<?xml version="1.0" standalone="no"?>
<!DOCTYPE svg PUBLIC "-//W3C//DTD SVG 1.1//EN" "http://www.w3.org/Graphics/SVG/1.1/DTD/svg11.dtd" >
<svg xmlns="http://www.w3.org/2000/svg" xmlns:xlink="http://www.w3.org/1999/xlink" version="1.1">
<metadata>
Created by FontForge 20201107 at Mon May 23 15:50:47 2022
 By www-data
Copyright 2021 The Albert Sans Project Authors (https://github.com/usted/Albert-Sans)
</metadata>
<defs>
<font id="AlbertSans-ExtraLightItalic" horiz-adv-x="772" >
  <font-face 
    font-family="Albert Sans ExtraLight"
    font-weight="250"
    font-style="italic"
    font-stretch="normal"
    units-per-em="1000"
    panose-1="0 0 0 0 0 0 0 0 0 0"
    ascent="800"
    descent="-200"
    x-height="500"
    cap-height="700"
    bbox="-120 -256 1219 941"
    underline-thickness="50"
    underline-position="-125"
    slope="-11.25"
    unicode-range="U+0020-FB01"
  />
<missing-glyph horiz-adv-x="673" 
d="M33 0l139 700h507l-139 -700h-507zM127 70h347l111 560h-347z" />
    <glyph glyph-name="fi" unicode="fi" horiz-adv-x="520" 
d="M476 618q-13 0 -21.5 9.5t-4.5 24.5q2 16 14 25.5t26 9.5t22 -9.5t5 -25.5q-3 -15 -15 -24.5t-26 -9.5zM470 501l-99 -501h-37l92 466h-346l7 35h383zM182 566q15 77 60.5 119.5t138.5 34.5l-6 -35q-75 6 -109.5 -25.5t-46.5 -93.5l-113 -566h-37z" />
    <glyph glyph-name=".notdef" horiz-adv-x="673" 
d="M33 0l139 700h507l-139 -700h-507zM127 70h347l111 560h-347z" />
    <glyph glyph-name=".null" horiz-adv-x="0" 
 />
    <glyph glyph-name="nonmarkingreturn" horiz-adv-x="333" 
 />
    <glyph glyph-name="space" unicode=" " horiz-adv-x="280" 
 />
    <glyph glyph-name="exclam" unicode="!" horiz-adv-x="230" 
d="M180 700h42l-110 -533h-34zM65 -1q-14 0 -21.5 9.5t-3.5 23.5q3 14 14 23.5t24 9.5q14 0 21.5 -9.5t4.5 -23.5q-4 -14 -15 -23.5t-24 -9.5z" />
    <glyph glyph-name="quotedbl" unicode="&#x22;" horiz-adv-x="253" 
d="M145 700h45l-45 -183h-27zM243 700h45l-45 -183h-27z" />
    <glyph glyph-name="numbersign" unicode="#" horiz-adv-x="770" 
d="M391 700h37l-86 -212h240l87 212h37l-86 -212h151l-7 -34h-158l-75 -187h152l-6 -34h-160l-95 -233h-37l95 233h-241l-94 -233h-38l95 233h-159l7 34h166l75 187h-162l7 34h169zM253 267h240l76 187h-241z" />
    <glyph glyph-name="dollar" unicode="$" horiz-adv-x="552" 
d="M366 775h29l-169 -850h-29zM71 156q1 -29 15.5 -58.5t50 -49.5t100.5 -20q89 0 141.5 41t65.5 103q9 50 -9.5 81t-56 50.5t-85.5 34.5q-39 11 -74.5 24.5t-61 33t-37 49.5t-2.5 75q11 56 45.5 98t87 65.5t117.5 23.5q59 0 97.5 -18.5t59 -48t24.5 -63.5l-36 -13
q-3 24 -19.5 49.5t-49 43t-82.5 17.5q-48 0 -91 -17.5t-73.5 -50.5t-40.5 -80q-9 -49 11 -77t58.5 -44.5t86.5 -31.5q39 -12 74 -27.5t59.5 -37t34.5 -54t1 -78.5q-9 -49 -39 -90.5t-82.5 -67t-129.5 -25.5q-68 0 -110.5 20t-63.5 54t-23 75z" />
    <glyph glyph-name="percent" unicode="%" horiz-adv-x="700" 
d="M119 573q8 39 31 69.5t56.5 47.5t71.5 17q56 0 86.5 -37.5t18.5 -96.5q-7 -40 -30.5 -70t-57 -47.5t-71.5 -17.5q-56 0 -86 38t-19 97zM272 679q-43 0 -76.5 -29.5t-42.5 -76.5q-10 -48 12 -77.5t65 -29.5t76 29.5t43 77.5q10 47 -11.5 76.5t-65.5 29.5zM629 700h40
l-558 -700h-40zM358 127q7 40 30 70t56.5 47.5t70.5 17.5q58 0 87.5 -38t18.5 -97q-8 -39 -31.5 -69t-56.5 -47.5t-71 -17.5q-57 0 -87 37.5t-17 96.5zM510 234q-44 0 -77.5 -30t-42.5 -77t12.5 -76.5t65.5 -29.5q43 0 76 29.5t43 76.5q9 47 -12 77t-65 30z" />
    <glyph glyph-name="ampersand" unicode="&#x26;" horiz-adv-x="716" 
d="M509 620q-22 27 -57.5 40t-77.5 13q-81 0 -131 -41.5t-63 -105.5q-9 -47 8 -80t64.5 -50.5t128.5 -17.5h209l-6 -35h-209q-114 0 -187 -38.5t-89 -122.5q-9 -43 3 -78t47.5 -55t95.5 -20q91 0 142.5 41.5t70.5 136.5l22 108h37l-21 -108q-16 -79 -51.5 -126t-87.5 -67.5
t-118 -20.5q-76 0 -118.5 25t-56.5 68t-4 94q16 82 74.5 125t136.5 54l1 5q-59 7 -89.5 31.5t-39 60t-1.5 73.5q10 49 41.5 89.5t81 64.5t115.5 24q57 0 98 -17t65 -48zM543 642l-34 -22zM462 377q11 0 18.5 4.5t13 12t6.5 17.5l18 89h36l-25 -123h27l-6 -34h-27l-40 -201
q-10 -50 16 -80.5t75 -30.5q8 0 17.5 1t19.5 2l-7 -31q-11 -3 -22.5 -4.5t-22.5 -1.5q-38 0 -67 17.5t-42.5 50t-4.5 77.5l40 201h-80l6 34h51z" />
    <glyph glyph-name="quotesingle" unicode="'" horiz-adv-x="170" 
d="M149 700h51l-48 -183h-27z" />
    <glyph glyph-name="parenleft" unicode="(" horiz-adv-x="366" 
d="M196 -100q-46 56 -78.5 122t-42.5 146.5t9 181.5q20 100 63 180.5t102.5 147t130.5 122.5h41l-1 -5q-83 -65 -143 -134.5t-99 -146t-57 -164.5q-17 -88 -9 -164.5t40 -145.5t87 -135l-1 -5h-42z" />
    <glyph glyph-name="parenright" unicode=")" horiz-adv-x="367" 
d="M31 -100h-41l1 5q81 66 140.5 135t97.5 145.5t56 164.5q17 88 9 164.5t-41 146t-89 134.5v5h42q48 -56 81.5 -122.5t44 -147t-9.5 -180.5q-20 -101 -62 -181.5t-101 -146.5t-128 -122z" />
    <glyph glyph-name="asterisk" unicode="*" horiz-adv-x="466" 
d="M307 565l155 84l11 -30l-160 -73l133 -73l-23 -31l-124 84l-28 -166h-33l38 166l-156 -84l-11 31l161 73l-130 73l23 30l121 -84l28 164h34z" />
    <glyph glyph-name="plus" unicode="+" horiz-adv-x="647" 
d="M412 605l-102 -510h-36l102 510h36zM92 366h509l-6 -33h-509z" />
    <glyph glyph-name="comma" unicode="," horiz-adv-x="232" 
d="M88 102h45l-141 -254h-31z" />
    <glyph glyph-name="hyphen" unicode="-" horiz-adv-x="511" 
d="M78 296h373l-6 -33h-373z" />
    <glyph glyph-name="period" unicode="." horiz-adv-x="203" 
d="M51 -3q-14 0 -21 9.5t-4 23.5t13.5 23.5t24.5 9.5q13 0 20.5 -9.5t5.5 -23.5q-3 -14 -14.5 -23.5t-24.5 -9.5z" />
    <glyph glyph-name="slash" unicode="/" horiz-adv-x="279" 
d="M349 800h39l-420 -900h-38z" />
    <glyph glyph-name="zero" unicode="0" horiz-adv-x="609" 
d="M94 350q15 76 37.5 141.5t56.5 113.5t84.5 75t122.5 27q71 0 111.5 -27t55.5 -75t11.5 -113.5t-18.5 -141.5q-15 -77 -37.5 -142.5t-57 -113.5t-85.5 -74.5t-122 -26.5q-72 0 -111.5 26.5t-54.5 74.5t-12 113.5t19 142.5zM517 350q13 68 17.5 127t-6.5 102.5t-44 68.5
t-96 25q-62 0 -105 -25t-71.5 -68.5t-47 -102.5t-32.5 -127q-14 -70 -18.5 -128.5t7 -102.5t44.5 -68t95 -24t105 24t72 68t47 102.5t33 128.5z" />
    <glyph glyph-name="one" unicode="1" horiz-adv-x="280" 
d="M233 666h-104l7 34h142l-139 -700h-39z" />
    <glyph glyph-name="two" unicode="2" horiz-adv-x="603" 
d="M18 26l270 215q79 64 128.5 109t74 83t33.5 80q14 72 -22.5 116t-115.5 44q-61 0 -108.5 -26t-78 -71t-42.5 -102h-37q15 74 54.5 126t96 79.5t122.5 27.5q63 0 105 -24.5t59 -68t6 -101.5q-9 -45 -35 -86t-77.5 -89.5t-135.5 -115.5l-235 -188h409l-6 -34h-471z" />
    <glyph glyph-name="three" unicode="3" horiz-adv-x="595" 
d="M126 512q17 60 55 103.5t93 67.5t123 24q66 0 106.5 -24t55.5 -64.5t6 -89.5q-8 -38 -30.5 -73.5t-63.5 -60t-102 -31.5l-1 -5q49 -7 84.5 -28.5t50.5 -58.5t5 -92q-11 -51 -42 -94t-83.5 -68t-128.5 -25q-71 0 -118.5 20.5t-69.5 66t-15 119.5h38q-8 -86 34 -128
t139 -42q61 0 104 20t69 55t35 78q17 84 -40.5 122.5t-171.5 38.5h-19l7 35h19q81 0 135.5 17.5t85 50.5t39.5 80q13 64 -21 105.5t-115 41.5q-47 0 -92 -17t-80 -52t-54 -92h-37z" />
    <glyph glyph-name="four" unicode="4" horiz-adv-x="651" 
d="M422 183h-390l7 29l481 488h44l-97 -483h116l-7 -34h-115l-36 -183h-39zM430 217l86 435l-432 -435h346z" />
    <glyph glyph-name="five" unicode="5" horiz-adv-x="618" 
d="M602 700l-7 -34h-388l-58 -291q35 39 91.5 63.5t120.5 24.5q62 0 102.5 -19t61 -51.5t25 -73t-3.5 -82.5q-13 -63 -48.5 -119t-94.5 -90.5t-142 -34.5q-65 0 -110.5 24.5t-68 69t-20.5 105.5h37q1 -81 46.5 -122t121.5 -41q68 0 117.5 27t80.5 74t42 106q18 90 -22 141.5
t-135 51.5q-65 0 -121 -28t-93 -77h-36l76 376h426z" />
    <glyph glyph-name="six" unicode="6" horiz-adv-x="601" 
d="M254 -7q-77 0 -125 32.5t-65.5 87.5t-4.5 120q9 46 31.5 89t63.5 90l251 288h41l-259 -298l-91 -97q35 73 102 117.5t153 44.5q71 0 118.5 -29.5t67 -82.5t5.5 -123t-54.5 -124t-101 -84.5t-132.5 -30.5zM98 234q-13 -62 3 -108.5t56.5 -72.5t103.5 -26q61 0 111.5 26
t85 72t46.5 107t-4 105.5t-56.5 70t-102.5 25.5q-61 0 -112.5 -25t-85.5 -69.5t-45 -104.5z" />
    <glyph glyph-name="seven" unicode="7" horiz-adv-x="550" 
d="M594 700l-7 -30l-412 -670h-39l416 666h-423l7 34h458z" />
    <glyph glyph-name="eight" unicode="8" horiz-adv-x="634" 
d="M253 369q-71 18 -97 60.5t-15 100.5q11 52 46 92t91 62.5t130 22.5q73 0 120 -22.5t66.5 -63t8.5 -91.5q-11 -58 -54 -100.5t-121 -60.5q73 -14 107.5 -59.5t21.5 -116.5q-13 -62 -52 -106.5t-100 -69t-139 -24.5t-129.5 24.5t-72.5 69t-9 106.5q14 71 67 116.5t131 59.5
zM564 527q15 73 -30.5 109.5t-132.5 36.5q-86 0 -146 -36.5t-76 -109.5q-13 -70 31.5 -106.5t133.5 -36.5q88 0 147 36.5t73 106.5zM337 351q-57 0 -108.5 -15t-87.5 -49.5t-47 -93.5q-17 -81 32.5 -123.5t146.5 -42.5q96 0 162.5 43t82.5 123q12 58 -10.5 93t-67.5 50
t-103 15z" />
    <glyph glyph-name="nine" unicode="9" horiz-adv-x="601" 
d="M387 707q77 0 125 -32.5t65.5 -87t5.5 -120.5q-10 -45 -32.5 -88.5t-63.5 -90.5l-251 -288h-41l260 298l90 97q-36 -73 -102.5 -117.5t-151.5 -44.5q-72 0 -119.5 29.5t-67 82.5t-5.5 123q14 71 55 124.5t101 84t132 30.5zM544 466q12 62 -4 108.5t-57 72.5t-102 26
q-62 0 -112.5 -26t-85 -72t-45.5 -107q-13 -60 3 -105t56.5 -70.5t102.5 -25.5t113 25t85 70t46 104z" />
    <glyph glyph-name="colon" unicode=":" horiz-adv-x="212" 
d="M56 -3q-14 0 -21 9.5t-5 23.5q3 14 14 23.5t25 9.5q13 0 20.5 -9.5t4.5 -23.5q-2 -14 -13 -23.5t-25 -9.5zM144 444q-14 0 -21 9.5t-4 22.5q3 14 14 24t24 10q14 0 21.5 -9.5t4.5 -24.5q-2 -13 -13.5 -22.5t-25.5 -9.5z" />
    <glyph glyph-name="semicolon" unicode=";" horiz-adv-x="248" 
d="M181 445q-14 0 -21.5 9.5t-3.5 23.5q3 14 13.5 23.5t24.5 9.5t21.5 -9.5t4.5 -23.5t-14.5 -23.5t-24.5 -9.5zM92 102h45l-141 -254h-30z" />
    <glyph glyph-name="less" unicode="&#x3c;" horiz-adv-x="477" 
d="M358 115h-49l-220 235l314 235h48l-315 -235z" />
    <glyph glyph-name="equal" unicode="=" horiz-adv-x="659" 
d="M85 259h493l-7 -33h-493zM122 446h493l-7 -34h-493z" />
    <glyph glyph-name="greater" unicode="&#x3e;" horiz-adv-x="477" 
d="M379 350l-220 235h48l221 -235l-314 -235h-49z" />
    <glyph glyph-name="question" unicode="?" horiz-adv-x="544" 
d="M361 707q62 0 105 -25t61.5 -69.5t6.5 -104.5q-16 -79 -58 -126t-104 -67.5t-138 -20.5l-29 -133h-32l31 162h18q44 0 87.5 6.5t81 25.5t65 56t40.5 97q14 77 -25.5 121t-116.5 44q-79 0 -134.5 -42.5t-69.5 -115.5h-36q12 61 48 104t88 65.5t111 22.5zM159 -3
q-13 0 -20.5 9.5t-4.5 23.5t13.5 23.5t24.5 9.5t21.5 -9.5t4.5 -23.5t-14 -23.5t-25 -9.5z" />
    <glyph glyph-name="at" unicode="@" horiz-adv-x="957" 
d="M587 161l8 -14q-40 -72 -104.5 -112t-130.5 -40q-75 0 -108 46t-17 123q11 54 37.5 103.5t66 88.5t88 61.5t100.5 22.5q66 0 98.5 -38.5t19.5 -111.5l-16 -10l55 146h33l-110 -294q-17 -47 -7.5 -77.5t48.5 -30.5q36 0 69 24t60.5 63.5t47 87t29.5 94.5q18 93 -8 161.5
t-92 106t-165 37.5q-94 0 -180 -35t-157 -97.5t-119.5 -144.5t-67.5 -175q-20 -96 6.5 -164.5t91.5 -104.5t162 -36q44 0 87 8.5t85 23.5v-29q-44 -16 -91.5 -24.5t-94.5 -8.5q-103 0 -173.5 40t-99.5 114t-9 175q20 103 73 191.5t130.5 155.5t171 104t196.5 37
q106 0 177.5 -42t101 -116.5t10.5 -172.5q-11 -56 -34.5 -110t-56.5 -97.5t-74.5 -69t-85.5 -25.5q-54 0 -68.5 37t4.5 93zM520 409q-46 0 -87 -20t-74 -54.5t-55.5 -77.5t-31.5 -89q-13 -65 14 -103.5t90 -38.5q46 0 91 23t82 67.5t60 107.5q19 51 16.5 93t-28 67t-77.5 25
z" />
    <glyph glyph-name="A" unicode="A" horiz-adv-x="630" 
d="M415 666h-33l-384 -666h-38l403 700h83l125 -700h-39zM109 237h408l-7 -34h-408z" />
    <glyph glyph-name="B" unicode="B" horiz-adv-x="641" 
d="M580 521q8 42 -4 74.5t-46.5 51.5t-94.5 19h-221l-58 -290h226q82 0 133.5 39.5t64.5 105.5zM42 0l140 700h262q73 0 114.5 -24t55.5 -63.5t5 -88.5q-10 -49 -35 -82.5t-59.5 -53t-70.5 -26.5l-1 -6q61 -9 95 -54t20 -116q-11 -51 -44 -93.5t-87.5 -67.5t-130.5 -25h-264
zM87 34h225q88 0 146 41t72 113t-28.5 113t-130.5 41h-222z" />
    <glyph glyph-name="C" unicode="C" horiz-adv-x="761" 
d="M66 350q16 79 54 144.5t92 113t120.5 73.5t137.5 26q119 0 187 -53t89 -144l-34 -12q-10 53 -42 92t-84 60.5t-122 21.5q-82 0 -156.5 -38.5t-128.5 -110.5t-75 -173q-19 -100 6.5 -172.5t84.5 -111t140 -38.5q72 -1 133.5 22t110.5 65.5t82 97.5l29 -12
q-58 -97 -149 -152.5t-213 -55.5q-71 0 -127 26t-91.5 74t-47 113.5t3.5 143.5z" />
    <glyph glyph-name="D" unicode="D" horiz-adv-x="722" 
d="M394 700q121 0 195.5 -42t101.5 -120t5 -189q-22 -110 -80 -188t-149 -119.5t-213 -41.5h-212l140 700h212zM261 34q167 0 267 84t129 231q29 148 -37 232.5t-232 84.5h-174l-127 -632h174z" />
    <glyph glyph-name="E" unicode="E" horiz-adv-x="605" 
d="M616 666h-402l-58 -290h302l-7 -34h-302l-62 -308h403l-7 -34h-441l140 700h441z" />
    <glyph glyph-name="F" unicode="F" horiz-adv-x="581" 
d="M182 700h441l-7 -34h-402l-58 -290h302l-7 -34h-302l-69 -342h-38z" />
    <glyph glyph-name="G" unicode="G" horiz-adv-x="765" 
d="M709 499q-19 78 -80 126t-159 48q-84 0 -160 -39t-131 -111.5t-75 -172.5q-19 -100 6.5 -172.5t86.5 -111t145 -38.5q67 0 129.5 25t113.5 72t84 113l18 93h-283l6 32h322l-25 -127q-35 -73 -92 -127.5t-128.5 -85t-151.5 -30.5q-73 0 -130 26t-93.5 73.5t-48.5 113
t3 144.5q16 79 54 144.5t93.5 113t123 73.5t140.5 26t128 -24t89.5 -68t48.5 -104z" />
    <glyph glyph-name="H" unicode="H" horiz-adv-x="688" 
d="M182 700h38l-64 -324h426l65 324h39l-140 -700h-39l69 342h-427l-69 -342h-38z" />
    <glyph glyph-name="I" unicode="I" horiz-adv-x="223" 
d="M182 700h38l-140 -700h-38z" />
    <glyph glyph-name="J" unicode="J" horiz-adv-x="482" 
d="M446 700h38l-107 -537q-9 -45 -36.5 -84t-69.5 -62.5t-94 -23.5q-70 0 -104.5 37.5t-34.5 103.5l36 12q0 -32 9.5 -59.5t33.5 -43.5t67 -16q48 0 80.5 22t50.5 53.5t24 60.5z" />
    <glyph glyph-name="K" unicode="K" horiz-adv-x="559" 
d="M182 700h38l-64 -324h34l394 324h51l-415 -341l276 -359h-52l-262 342h-33l-69 -342h-38z" />
    <glyph glyph-name="L" unicode="L" horiz-adv-x="504" 
d="M220 700l-133 -666h343l-7 -34h-381l140 700h38z" />
    <glyph glyph-name="M" unicode="M" horiz-adv-x="832" 
d="M80 0h-38l140 700h41l154 -648l412 648h40l-140 -700h-38l123 618l-393 -618h-31l-146 618z" />
    <glyph glyph-name="N" unicode="N" horiz-adv-x="688" 
d="M686 700l-140 -700h-38l-301 636l-127 -636h-38l140 700h38l300 -636l127 636h39z" />
    <glyph glyph-name="O" unicode="O" 
d="M335 -7q-73 0 -130 26t-93.5 73.5t-48.5 113t3 144.5q16 79 54 144.5t93.5 113t123 73.5t140.5 26q74 0 130.5 -26t93 -73.5t48.5 -113t-4 -144.5q-15 -79 -53.5 -144.5t-93.5 -113t-122 -73.5t-141 -26zM342 27q84 0 159.5 39t130 111.5t74.5 172.5q20 101 -6 173
t-86 111t-144 39t-160 -39t-130.5 -111t-74.5 -173q-19 -100 6.5 -172.5t86 -111.5t144.5 -39z" />
    <glyph glyph-name="P" unicode="P" horiz-adv-x="588" 
d="M329 334q69 0 115.5 21t72.5 59t36 86q10 51 -1.5 88.5t-49 57.5t-107.5 20h-181l-67 -332h182zM591 500q-12 -61 -46.5 -106t-90.5 -69.5t-132 -24.5h-182l-60 -300h-38l140 700h220q83 0 128 -26t59 -71t2 -103z" />
    <glyph glyph-name="Q" unicode="Q" 
d="M344 119h38l-44 -219h-38zM335 -7q-73 0 -130 26t-93.5 73.5t-48.5 113t3 144.5q16 79 54 144.5t93.5 113t123 73.5t140.5 26q74 0 130.5 -26t93 -73.5t48.5 -113t-4 -144.5q-15 -79 -53.5 -144.5t-93.5 -113t-122 -73.5t-141 -26zM342 27q84 0 159.5 39t130 111.5
t74.5 172.5q20 101 -6 173t-86 111t-144 39t-160 -39t-130.5 -111t-74.5 -173q-19 -100 6.5 -172.5t86 -111.5t144.5 -39z" />
    <glyph glyph-name="R" unicode="R" horiz-adv-x="598" 
d="M552 500q11 51 -1 88t-50 57.5t-108 20.5h-179l-67 -332h182q100 0 154.5 47t68.5 119zM400 700q83 0 129 -26t60 -71t2 -103q-12 -60 -46.5 -105.5t-90.5 -70t-132 -24.5h-182l-60 -300h-38l140 700h218zM369 314l133 -314h-43l-132 314h42z" />
    <glyph glyph-name="S" unicode="S" horiz-adv-x="552" 
d="M71 156q1 -29 15.5 -58.5t50 -49.5t100.5 -20q89 0 141.5 41t65.5 103q9 50 -9.5 81t-56 50.5t-85.5 34.5q-39 11 -74.5 24.5t-61 33t-37 49.5t-2.5 75q11 56 45.5 98t87 65.5t117.5 23.5q59 0 97.5 -18.5t59 -48t24.5 -63.5l-36 -13q-3 24 -19.5 49.5t-49 43t-82.5 17.5
q-48 0 -91 -17.5t-73.5 -50.5t-40.5 -80q-9 -49 11 -77t58.5 -44.5t86.5 -31.5q39 -12 74 -27.5t59.5 -37t34.5 -54t1 -78.5q-9 -49 -39 -90.5t-82.5 -67t-129.5 -25.5q-68 0 -110.5 20t-63.5 54t-23 75z" />
    <glyph glyph-name="T" unicode="T" horiz-adv-x="593" 
d="M136 700h500l-7 -34h-230l-133 -666h-38l132 666h-231z" />
    <glyph glyph-name="U" unicode="U" horiz-adv-x="679" 
d="M177 700h38l-87 -437q-16 -86 2.5 -138t63 -75t103.5 -23t111.5 23t91.5 75t55 138l88 437h38l-87 -437q-14 -71 -43.5 -122t-70 -84t-89.5 -48.5t-101 -15.5q-70 0 -122 28t-74.5 88t-3.5 154z" />
    <glyph glyph-name="V" unicode="V" horiz-adv-x="639" 
d="M657 700h41l-408 -700h-42l-128 700h42l117 -653z" />
    <glyph glyph-name="W" unicode="W" horiz-adv-x="920" 
d="M212 0h-40l-52 700h42l42 -643l325 643h42l68 -643l299 643h41l-331 -700h-40l-70 640z" />
    <glyph glyph-name="X" unicode="X" horiz-adv-x="666" 
d="M151 700h43l165 -320l292 320h42l-320 -350l181 -350h-42l-165 320l-292 -320h-43l320 350z" />
    <glyph glyph-name="Y" unicode="Y" horiz-adv-x="601" 
d="M620 700h40l-332 -413l-57 -287h-38l56 287l-169 413h42l154 -376z" />
    <glyph glyph-name="Z" unicode="Z" horiz-adv-x="588" 
d="M601 667l-539 -632h422l-7 -35h-465l6 32l539 633h-404l8 35h447z" />
    <glyph glyph-name="bracketleft" unicode="[" horiz-adv-x="259" 
d="M197 800h117l-7 -33h-79l-166 -834h79l-6 -33h-117z" />
    <glyph glyph-name="backslash" unicode="\" horiz-adv-x="281" 
d="M211 -100h-39l-63 900h40z" />
    <glyph glyph-name="bracketright" unicode="]" horiz-adv-x="259" 
d="M281 800l-179 -900h-117l7 33h80l165 834h-79l6 33h117z" />
    <glyph glyph-name="asciicircum" unicode="^" horiz-adv-x="613" 
d="M387 650l-288 -400h-39l320 450h31l142 -450h-39z" />
    <glyph glyph-name="underscore" unicode="_" horiz-adv-x="469" 
d="M1 -32h473l-6 -35h-473z" />
    <glyph glyph-name="grave" unicode="`" horiz-adv-x="221" 
d="M113 750l167 -132l-6 -32l-168 126z" />
    <glyph glyph-name="a" unicode="a" horiz-adv-x="525" 
d="M365 0l24 125q-32 -64 -87.5 -98t-130.5 -34q-54 0 -89 16t-49 46.5t-5 73.5q12 63 66.5 101t154.5 48l174 19l9 45q13 63 -19 97t-101 34q-67 0 -115.5 -30.5t-73.5 -87.5l-31 12q32 68 89.5 104t136.5 36q88 0 127.5 -42.5t24.5 -118.5l-70 -346h-35zM417 264l-176 -19
q-82 -8 -124 -36.5t-51 -77.5q-10 -50 18.5 -78t92.5 -28q62 0 109.5 25.5t79 71t43.5 107.5z" />
    <glyph glyph-name="b" unicode="b" horiz-adv-x="602" 
d="M140 367q31 59 90 99.5t142 40.5q70 0 115.5 -32t63 -89.5t1.5 -135.5q-15 -78 -55.5 -136t-98.5 -89.5t-129 -31.5q-77 0 -121 39.5t-52 97.5l-27 -130h-36l143 720h37l-70 -356zM514 250q20 103 -21 163t-132 60q-59 0 -109 -28t-84.5 -78t-48.5 -117q-12 -67 2.5 -117
t53 -78t97.5 -28q61 0 110.5 27.5t83.5 77t48 118.5z" />
    <glyph glyph-name="c" unicode="c" horiz-adv-x="554" 
d="M239 -7q-73 0 -120.5 31.5t-66 89t-2.5 135.5q15 77 56.5 135.5t101.5 90.5t132 32q77 0 126.5 -36t59.5 -99l-35 -11q-9 52 -50.5 82t-105.5 30q-61 0 -112 -28t-86.5 -78t-48.5 -118q-20 -101 22.5 -161.5t135.5 -60.5q62 0 114 28.5t88 81.5l31 -10
q-40 -64 -102.5 -99t-137.5 -35z" />
    <glyph glyph-name="d" unicode="d" horiz-adv-x="602" 
d="M509 367l-4 -3l71 356h37l-143 -720h-35l24 130q-32 -58 -91.5 -97.5t-137.5 -39.5q-69 0 -115 31.5t-63.5 89.5t-1.5 136q15 78 55.5 135.5t99 89.5t127.5 32q83 0 126 -40.5t51 -99.5zM88 250q-20 -103 21.5 -163t132.5 -60q58 0 108 28t84.5 78t47.5 117
q14 67 -0.5 117t-53.5 78t-98 28q-60 0 -109.5 -27.5t-84 -77t-48.5 -118.5z" />
    <glyph glyph-name="e" unicode="e" horiz-adv-x="557" 
d="M231 -7q-69 0 -114.5 33.5t-63 92.5t-2.5 136q14 74 55 131t100 89t126 32q66 0 111 -29t64.5 -78.5t5.5 -113.5q-1 -8 -3 -19.5t-6 -23.5h-417q-11 -64 4 -112.5t53 -76t93 -27.5q67 0 121.5 29.5t87.5 83.5l28 -13q-39 -64 -102.5 -99t-140.5 -35zM473 275
q13 58 -1.5 102.5t-52 70t-94.5 25.5q-53 0 -100.5 -25.5t-82 -70.5t-48.5 -102h379z" />
    <glyph glyph-name="f" unicode="f" horiz-adv-x="326" 
d="M182 566q15 77 60.5 119t138.5 34l-6 -34q-75 6 -109.5 -25.5t-46.5 -93.5l-14 -66h133l-7 -35h-133l-92 -465h-37l93 465h-82l7 35h81z" />
    <glyph glyph-name="g" unicode="g" horiz-adv-x="602" 
d="M534 500h35l-77 -390q-20 -99 -74.5 -168t-139.5 -105.5t-196 -36.5l1 34q155 1 250 71.5t122 204.5l5 25l3 -1q-32 -58 -90.5 -98.5t-142.5 -42.5q-70 0 -115.5 31.5t-63 89.5t-1.5 136q15 78 55.5 135.5t98.5 89.5t128 32q56 0 92.5 -19t56.5 -49.5t26 -67.5zM88 250
q-20 -103 21.5 -163t133.5 -60q58 0 107.5 28t84 78.5t47.5 116.5q14 67 -0.5 117t-53 78t-97.5 28q-61 0 -110.5 -27.5t-84 -77t-48.5 -118.5z" />
    <glyph glyph-name="h" unicode="h" horiz-adv-x="563" 
d="M176 720h37l-66 -333q32 59 85.5 89.5t116.5 30.5q55 0 93.5 -23.5t53.5 -73.5t-1 -128l-56 -282h-38l55 281q19 93 -12 142.5t-108 49.5q-78 0 -136 -55.5t-79 -162.5l-51 -255h-37z" />
    <glyph glyph-name="i" unicode="i" horiz-adv-x="227" 
d="M145 500h36l-99 -500h-36zM188 625q-12 0 -19.5 8.5t-5.5 22.5q4 14 14.5 22.5t23.5 8.5q12 0 19.5 -8.5t3.5 -22.5q-2 -14 -12.5 -22.5t-23.5 -8.5z" />
    <glyph glyph-name="j" unicode="j" horiz-adv-x="223" 
d="M43 -11q-14 -70 -55.5 -110t-104.5 -45l-1 -34q44 3 85 24.5t71 62.5t42 101l101 512h-37zM188 625q-13 0 -20 8.5t-5 22.5q4 14 14.5 22.5t22.5 8.5q13 0 20.5 -8.5t3.5 -22.5q-2 -14 -12.5 -22.5t-23.5 -8.5z" />
    <glyph glyph-name="k" unicode="k" horiz-adv-x="472" 
d="M176 720h38l-90 -451h57l269 231h51l-293 -248l197 -252h-51l-180 236h-57l-46 -236h-38z" />
    <glyph glyph-name="l" unicode="l" horiz-adv-x="203" 
d="M175 714h37l-142 -714h-37z" />
    <glyph glyph-name="m" unicode="m" horiz-adv-x="905" 
d="M132 500h36l-21 -113q28 53 75.5 86t116.5 33q61 0 101 -33t45 -101q33 71 88.5 102.5t119.5 31.5q54 0 91.5 -24t52.5 -73t0 -126l-56 -283h-37l56 281q19 93 -12.5 142.5t-104.5 49.5q-75 0 -131.5 -55t-77.5 -164l-51 -254h-37l56 281q19 93 -11 142.5t-104 49.5
q-75 0 -130 -55t-76 -164l-51 -254h-37z" />
    <glyph glyph-name="n" unicode="n" horiz-adv-x="562" 
d="M132 500h36l-22 -113q30 55 80 87.5t121 32.5q55 0 93.5 -24t54 -73.5t0.5 -125.5l-56 -284h-37l55 282q19 93 -13.5 142.5t-107.5 49.5q-79 0 -136 -54t-78 -161l-52 -259h-37z" />
    <glyph glyph-name="o" unicode="o" horiz-adv-x="584" 
d="M241 -7q-70 0 -118.5 31t-68.5 88.5t-4 137.5q16 79 59 137t104 89t130 31q70 0 118 -31t68 -89t4 -137q-16 -80 -58.5 -137.5t-103.5 -88.5t-130 -31zM247 27q53 0 104 24t90 73.5t54 125.5q15 77 -4 126t-60.5 73t-94.5 24t-104 -24t-89.5 -73.5t-53.5 -125.5
q-15 -77 4 -126t60 -73t94 -24z" />
    <glyph glyph-name="p" unicode="p" horiz-adv-x="602" 
d="M94 134l3 2l-67 -336h-37l139 700h36l-24 -129q20 37 52.5 68t77 49.5t98.5 18.5q69 0 115 -31.5t63.5 -89t1.5 -136.5q-15 -78 -55 -135.5t-98.5 -89.5t-128.5 -32q-80 0 -124.5 40.5t-51.5 100.5zM514 250q20 103 -21 163t-132 60q-59 0 -109 -28t-84.5 -78t-48.5 -117
q-12 -67 2.5 -117t53.5 -78t97 -28q61 0 111 27.5t83.5 77t47.5 118.5z" />
    <glyph glyph-name="q" unicode="q" horiz-adv-x="602" 
d="M463 134q-31 -60 -91.5 -100.5t-141.5 -40.5q-70 0 -116 32t-63 89.5t-1 135.5q16 79 56 136.5t98.5 89t127.5 31.5q55 0 91.5 -18.5t57 -49.5t26.5 -68l27 129h35l-139 -700h-37l67 336zM88 250q-20 -103 21.5 -163t131.5 -60q59 0 109 28t84.5 78t47.5 117
q14 67 -0.5 117t-53.5 78t-98 28q-60 0 -109.5 -27.5t-84 -77t-48.5 -118.5z" />
    <glyph glyph-name="r" unicode="r" horiz-adv-x="349" 
d="M132 500h36l-20 -107q22 35 56.5 62.5t77.5 40.5t89 4l-7 -36q-41 9 -80 -1.5t-71.5 -36.5t-55.5 -65.5t-33 -86.5l-55 -274h-37z" />
    <glyph glyph-name="s" unicode="s" horiz-adv-x="465" 
d="M62 137q0 -36 13 -60.5t41 -37t73 -12.5q72 0 113.5 29t50.5 74q7 37 -10 57.5t-48 31.5t-65 19q-22 5 -50.5 12.5t-54 21.5t-38.5 37.5t-6 62.5q8 40 36 71t71 47.5t94 16.5q61 0 103 -27t47 -88l-35 -11q-4 39 -23 58.5t-46 26.5t-52 7q-62 0 -104.5 -26.5t-51.5 -72.5
q-6 -28 3.5 -45.5t29.5 -28t44.5 -16.5t50.5 -12q27 -6 55.5 -15.5t51 -25t33 -40t3.5 -62.5q-9 -42 -37.5 -73t-72.5 -47t-100 -16q-74 0 -114.5 32t-41.5 101z" />
    <glyph glyph-name="t" unicode="t" horiz-adv-x="340" 
d="M167 500l28 140h37l-28 -140h149l-7 -34h-149l-65 -324q-8 -43 8 -69.5t48.5 -36.5t71.5 -2l-6 -31q-36 -9 -68.5 -4t-55.5 23t-33 48t-1 72l64 324h-80l7 34h80z" />
    <glyph glyph-name="u" unicode="u" horiz-adv-x="561" 
d="M429 0h-34l20 109q-29 -55 -79 -85.5t-120 -30.5q-55 0 -94 23t-54.5 71.5t-0.5 124.5l58 288h36l-57 -287q-19 -93 13.5 -139.5t108.5 -46.5q80 0 136 51t78 158l52 264h37z" />
    <glyph glyph-name="v" unicode="v" horiz-adv-x="508" 
d="M117 500l97 -453l277 453h39l-308 -500h-35l-110 500h40z" />
    <glyph glyph-name="w" unicode="w" horiz-adv-x="763" 
d="M167 0h-31l-59 500h38l48 -447l253 447h31l76 -446l224 446h37l-255 -500h-33l-77 441z" />
    <glyph glyph-name="x" unicode="x" horiz-adv-x="451" 
d="M83 500h42l107 -221l194 221h42l-221 -248l121 -252h-41l-106 225l-195 -225h-43l223 252z" />
    <glyph glyph-name="y" unicode="y" horiz-adv-x="486" 
d="M477 500h37l-415 -700h-37l120 202l-112 498h39l101 -455z" />
    <glyph glyph-name="z" unicode="z" horiz-adv-x="475" 
d="M456 465l-400 -431h322l-7 -34h-366l7 34l400 432h-307l7 34h350z" />
    <glyph glyph-name="braceleft" unicode="{" horiz-adv-x="364" 
d="M73 365q53 12 80 30.5t38 39.5t15 40q6 33 6.5 68t1 71.5t7.5 72.5q12 61 55.5 87t108.5 26h38l-6 -27h-33q-50 0 -83 -19.5t-42 -67.5q-8 -37 -8.5 -74t-1 -72t-6.5 -67q-8 -42 -42.5 -75.5t-99.5 -45.5l-1 -2q61 -12 82 -45t12 -78q-6 -31 -19.5 -66t-27.5 -72t-22 -74
q-10 -48 15 -68t76 -20h33l-5 -27h-38q-65 0 -98 27t-21 86q7 38 21 74t28 71.5t21 67.5q4 20 1 41t-23 39.5t-67 30.5z" />
    <glyph glyph-name="bar" unicode="|" horiz-adv-x="260" 
d="M258 800l-179 -900h-38l179 900h38z" />
    <glyph glyph-name="braceright" unicode="}" horiz-adv-x="364" 
d="M336 365l-5 -28q-52 -12 -79.5 -30.5t-38 -39.5t-14.5 -41q-7 -32 -7.5 -67.5t-1 -71.5t-7.5 -74q-12 -59 -55.5 -86t-108.5 -27h-38l6 27h33q51 0 83.5 20t42.5 68q7 37 7.5 74t1 72t6.5 66q9 45 43 78t99 45l1 2q-60 12 -81 45.5t-13 75.5q6 32 20 67t28 72t21 74
q10 48 -15 67.5t-76 19.5h-34l6 27h38q65 0 98 -26t21 -87q-7 -36 -21 -72.5t-28 -71.5t-20 -68q-4 -19 -1.5 -40t22.5 -39.5t67 -30.5z" />
    <glyph glyph-name="asciitilde" unicode="~" horiz-adv-x="490" 
d="M74 299q19 48 48.5 75.5t71.5 27.5q26 0 45.5 -10.5t36 -24t33 -24t37.5 -10.5q29 0 48.5 20.5t28.5 47.5h32q-16 -48 -45.5 -75.5t-72.5 -27.5q-26 0 -44.5 10.5t-35 24.5t-34 24t-39.5 10q-27 0 -47.5 -21t-30.5 -47h-32z" />
    <glyph glyph-name="uni00A0" unicode="&#xa0;" horiz-adv-x="280" 
 />
    <glyph glyph-name="exclamdown" unicode="&#xa1;" horiz-adv-x="230" 
d="M11 -147l111 533h33l-101 -533h-43zM175 555q14 0 21.5 -9.5t4.5 -23.5q-2 -15 -13.5 -24.5t-25.5 -9.5t-20.5 9.5t-4.5 24.5q3 14 14 23.5t24 9.5z" />
    <glyph glyph-name="cent" unicode="&#xa2;" horiz-adv-x="554" 
d="M349 600h29l-21 -108h-29zM233 18h29l-24 -118h-29zM239 -7q-73 0 -120.5 31.5t-66 89t-2.5 135.5q15 77 56.5 135.5t101.5 90.5t132 32q77 0 126.5 -36t59.5 -99l-35 -11q-9 52 -50.5 82t-105.5 30q-61 0 -112 -28t-86.5 -78t-48.5 -118q-20 -101 22.5 -161.5
t135.5 -60.5q62 0 114 28.5t88 81.5l31 -10q-40 -64 -102.5 -99t-137.5 -35z" />
    <glyph glyph-name="sterling" unicode="&#xa3;" horiz-adv-x="590" 
d="M416 707q64 0 103.5 -26t56 -69t11.5 -96h-36q7 69 -29.5 114t-110.5 45q-42 0 -81 -16t-68.5 -51.5t-41.5 -91.5q-8 -43 -5 -80.5t10 -72.5t10.5 -71t-3.5 -75q-11 -55 -40 -97.5t-78 -85.5h373l-6 -34h-406l-2 27q43 43 76.5 84t45.5 102q9 40 4.5 75.5t-11.5 70
t-10.5 73t5.5 86.5q12 55 44.5 98t81 67t107.5 24zM421 352l-6 -29h-336l6 29h336z" />
    <glyph glyph-name="currency" unicode="&#xa4;" horiz-adv-x="518" 
d="M318 550q43 0 74.5 -21.5t45.5 -60t4 -91.5q-10 -52 -39.5 -91t-70 -60.5t-83.5 -21.5q-67 0 -101.5 47.5t-19.5 125.5q10 53 39 91.5t68.5 60t82.5 21.5zM313 522q-52 0 -95 -38.5t-56 -106.5q-14 -69 14 -107t79 -38q32 0 64 17.5t56 49.5t33 78q9 45 -2 77.5t-35.5 50
t-57.5 17.5zM195 477l-61 74l25 20l56 -69zM403 502l83 69l17 -20l-91 -75zM374 279l61 -74l-26 -20l-54 68zM166 255l-84 -70l-16 20l90 75z" />
    <glyph glyph-name="yen" unicode="&#xa5;" horiz-adv-x="601" 
d="M354 355h187l-5 -30h-197zM78 228h438l-6 -32h-438zM103 355h190l5 -30h-200zM620 700h40l-332 -413l-57 -287h-38l56 287l-169 413h42l154 -376z" />
    <glyph glyph-name="brokenbar" unicode="&#xa6;" horiz-adv-x="259" 
d="M153 271l-74 -371h-38l74 371h38zM146 430l74 370h38l-74 -370h-38z" />
    <glyph glyph-name="section" unicode="&#xa7;" horiz-adv-x="440" 
d="M143 600q6 30 26.5 54.5t53 38.5t74.5 14q63 0 97.5 -34t28.5 -98h-28q3 25 -5.5 50t-32 42t-65.5 17q-46 0 -79.5 -20.5t-42.5 -62.5q-6 -37 16.5 -60.5t86.5 -41.5q42 -12 75 -30t49 -45.5t8 -73.5q-7 -34 -32 -65t-64.5 -49.5t-91.5 -16.5l3 4q31 -8 60.5 -21.5
t47 -37.5t9.5 -63q-6 -30 -26.5 -55t-52 -39t-72.5 -14q-65 0 -100 34t-30 97h28q-2 -26 6.5 -51t32 -41t68.5 -16q44 0 76.5 20.5t41.5 63.5q5 25 -3.5 43t-32 32t-66.5 27q-42 12 -75.5 29.5t-49.5 45.5t-7 73q7 36 32 66.5t64.5 49t91.5 15.5l-3 -4q-30 9 -60 22.5
t-47.5 37.5t-9.5 63zM376 350q9 49 -21 80t-95 31q-66 0 -107 -33.5t-49 -77.5q-10 -48 20 -79.5t96 -31.5q65 0 106 34t50 77z" />
    <glyph glyph-name="dieresis" unicode="&#xa8;" horiz-adv-x="240" 
d="M124 627q-15 0 -23 10.5t-5 24.5q3 15 15 25.5t27 10.5t23.5 -10.5t5.5 -25.5q-3 -14 -15.5 -24.5t-27.5 -10.5zM266 627q-15 0 -24 10.5t-5 24.5q2 15 15 25.5t28 10.5q14 0 22.5 -10.5t5.5 -25.5q-3 -14 -15.5 -24.5t-26.5 -10.5z" />
    <glyph glyph-name="copyright" unicode="&#xa9;" horiz-adv-x="810" 
d="M496 707q103 0 170.5 -46t95 -126t6.5 -184q-15 -77 -53 -142.5t-93 -113.5t-123 -75t-145 -27q-101 0 -169.5 46.5t-95.5 128t-7 183.5q16 78 53.5 143t93 112.5t123.5 74t144 26.5zM492 683q-98 0 -178 -43.5t-134 -118.5t-73 -170q-18 -94 5.5 -170t86.5 -120t160 -44
q73 0 136.5 25t113.5 70.5t84.5 107t48.5 131.5q19 95 -5 170t-86.5 118.5t-158.5 43.5zM373 94q-72 0 -120 31.5t-66 89t-3 134.5q15 78 56.5 136t102 90.5t132.5 32.5q76 0 125.5 -36.5t60.5 -99.5l-35 -11q-9 52 -51 82t-106 30q-61 0 -112 -27.5t-86 -78t-48 -117.5
q-21 -102 22 -162t136 -60q62 0 114 28.5t88 81.5l31 -10q-40 -65 -102.5 -99.5t-138.5 -34.5z" />
    <glyph glyph-name="ordfeminine" unicode="&#xaa;" horiz-adv-x="435" 
d="M94 528q11 54 39.5 94.5t69.5 63.5t90 23q56 0 87.5 -27t36.5 -71l19 92h34l-70 -349h-34l18 91q-22 -44 -64.5 -71t-98.5 -27q-49 0 -81 23t-44.5 64t-1.5 94zM127 528q-14 -70 16.5 -111.5t87.5 -41.5q61 0 108.5 41.5t61.5 111.5q14 71 -17 112t-92 41
q-58 0 -104.5 -41t-60.5 -112z" />
    <glyph glyph-name="guillemotleft" unicode="&#xab;" horiz-adv-x="403" 
d="M158 75h-43l-68 175l137 175h43l-140 -175zM312 75h-43l-68 175l137 175h43l-140 -175z" />
    <glyph glyph-name="logicalnot" unicode="&#xac;" horiz-adv-x="653" 
d="M76 426h556l-35 -180h-36l29 147h-520z" />
    <glyph glyph-name="uni00AD" unicode="&#xad;" horiz-adv-x="492" 
d="M69 296h374l-7 -33h-373z" />
    <glyph glyph-name="registered" unicode="&#xae;" horiz-adv-x="503" 
d="M114 512q12 55 44.5 99t80.5 70t103 26q56 0 93.5 -26t53.5 -70t5 -99q-12 -54 -45 -98.5t-81 -70t-103 -25.5q-56 0 -93.5 25.5t-53 70t-4.5 98.5zM140 512q-10 -48 3 -86.5t45.5 -60.5t81.5 -22t90 22t69.5 60.5t38.5 86.5q9 49 -4 87t-45.5 61t-81.5 23t-90 -23
t-69.5 -61t-37.5 -87zM255 620l-42 -214h28l17 91h58q32 0 53.5 16.5t27.5 45.5t-9 45t-47 16h-86zM338 406l33 1l-51 98h-31zM333 594q19 0 29.5 -8t5.5 -28q-3 -19 -17 -27.5t-32 -8.5h-56l15 72h55z" />
    <glyph glyph-name="macron" unicode="&#xaf;" horiz-adv-x="348" 
d="M100 685h320l-6 -31h-320z" />
    <glyph glyph-name="degree" unicode="&#xb0;" horiz-adv-x="366" 
d="M82 525q10 53 38 92t67 61t86 22q69 0 102.5 -48.5t17.5 -126.5q-10 -52 -37.5 -91.5t-67.5 -61.5t-86 -22q-68 0 -101.5 48.5t-18.5 126.5zM359 525q14 70 -11.5 109t-80.5 39t-96 -39t-55 -109q-14 -69 11.5 -108.5t80.5 -39.5q54 0 95.5 39.5t55.5 108.5z" />
    <glyph glyph-name="plusminus" unicode="&#xb1;" horiz-adv-x="767" 
d="M475 618l-94 -468h-36l94 468h36zM160 405h509l-7 -32h-509zM102 116h509l-6 -33h-509z" />
    <glyph glyph-name="uni00B2" unicode="&#xb2;" horiz-adv-x="319" 
d="M111 598q11 44 45.5 76.5t92.5 32.5q30 0 51.5 -12.5t30.5 -34.5t3 -53q-6 -30 -22 -54.5t-41 -47.5t-57 -48l-114 -90l-4 11h201l-5 -28h-230l4 21l134 108q33 26 61.5 55.5t37.5 71.5q8 38 -10 55.5t-46 17.5q-37 0 -61.5 -20.5t-36.5 -60.5h-34z" />
    <glyph glyph-name="uni00B3" unicode="&#xb3;" horiz-adv-x="326" 
d="M116 616q9 26 28 46.5t46.5 32.5t62.5 12q48 0 75.5 -27t18.5 -71q-6 -30 -27 -52t-56 -30v-2q27 -8 42 -31t8 -58t-42.5 -64t-93.5 -29q-51 0 -77 25t-22 74h34q-4 -42 16.5 -57t53.5 -15q39 0 64.5 19t31.5 49q7 35 -13 55t-58 20h-55l5 26h58q36 0 62.5 17.5
t33.5 51.5q6 31 -11.5 50.5t-53.5 19.5q-38 0 -62.5 -17t-35.5 -45h-33z" />
    <glyph glyph-name="acute" unicode="&#xb4;" horiz-adv-x="221" 
d="M306 750l-7 -38l-218 -126l6 32z" />
    <glyph glyph-name="uni00B5" unicode="&#xb5;" horiz-adv-x="592" 
d="M459 0h-38l23 117q-34 -67 -90 -97t-112 -30q-35 0 -67 10.5t-54 37t-28 72.5l-62 -310h-38l139 700h38l-52 -260q-15 -73 -1.5 -121.5t49.5 -72t88 -23.5q75 0 133 51.5t81 158.5l52 267h38z" />
    <glyph glyph-name="paragraph" unicode="&#xb6;" horiz-adv-x="548" 
d="M546 700l-139 -700h-36l132 669h-100l-132 -669h-36l61 309h-3q-80 0 -127 25t-64 69t-6 101q12 58 47 102.5t92.5 69t135.5 24.5h175z" />
    <glyph glyph-name="periodcentered" unicode="&#xb7;" horiz-adv-x="187" 
d="M107 320q-13 0 -20.5 9.5t-5.5 22.5q4 15 15 24.5t24 9.5q14 0 21.5 -9.5t4.5 -24.5q-3 -13 -14 -22.5t-25 -9.5z" />
    <glyph glyph-name="cedilla" unicode="&#xb8;" horiz-adv-x="215" 
d="M7 -81q42 2 68 -7t37.5 -28.5t4.5 -48.5q-5 -27 -22 -47.5t-44 -31.5t-62 -11h-76l6 29h70q45 0 66.5 16.5t27.5 44.5q5 24 -10 40t-61 16h-41l23 116h31z" />
    <glyph glyph-name="uni00B9" unicode="&#xb9;" horiz-adv-x="179" 
d="M168 672h-54l6 28h87l-69 -350h-33z" />
    <glyph glyph-name="ordmasculine" unicode="&#xba;" horiz-adv-x="418" 
d="M92 526q11 56 42 96.5t74.5 63.5t92.5 23t83 -23t48.5 -63.5t3.5 -96.5q-11 -54 -41.5 -95t-74 -64t-92.5 -23t-83.5 23t-48.5 64t-4 95zM402 526q15 75 -18 114.5t-89 39.5q-57 0 -105.5 -39.5t-63.5 -114.5q-14 -74 18 -113.5t90 -39.5q57 0 105.5 39.5t62.5 113.5z
" />
    <glyph glyph-name="guillemotright" unicode="&#xbb;" horiz-adv-x="402" 
d="M174 75l142 175l-72 175h43l69 -175l-139 -175h-43zM20 75l142 175l-72 175h43l69 -175l-139 -175h-43z" />
    <glyph glyph-name="onequarter" unicode="&#xbc;" horiz-adv-x="543" 
d="M521 700h36l-520 -700h-37zM477 101l-7 -27h-53l-14 -74h-34l15 74h-175l5 24l224 257h36l-51 -254h54zM391 101l40 203l-179 -203h139zM168 672h-54l6 28h87l-69 -350h-33z" />
    <glyph glyph-name="onehalf" unicode="&#xbd;" horiz-adv-x="618" 
d="M513 700h37l-520 -700h-37zM168 672h-54l6 28h87l-69 -350h-33zM326 248q12 44 46 76.5t92 32.5q30 0 51.5 -12.5t30.5 -34.5t3 -53q-6 -30 -22 -54.5t-40.5 -47.5t-56.5 -48l-115 -90l-3 11h201l-6 -28h-230l4 21l135 108q32 26 61 55.5t37 71.5q8 38 -10 55.5t-46 17.5
q-37 0 -61.5 -20.5t-36.5 -60.5h-34z" />
    <glyph glyph-name="threequarters" unicode="&#xbe;" horiz-adv-x="626" 
d="M610 700h37l-519 -700h-36zM566 101l-5 -27h-53l-15 -74h-33l15 74h-176l5 24l223 257h36l-50 -254h53zM480 101l40 203l-179 -203h139zM105 616q9 26 28.5 46.5t47 32.5t62.5 12q48 0 75 -27t18 -71q-5 -30 -26.5 -52t-55.5 -30l-1 -2q29 -8 43 -31t7 -58
q-6 -35 -42 -64t-94 -29q-51 0 -76.5 25t-21.5 74h33q-3 -42 17.5 -57t53.5 -15q39 0 64.5 19t31.5 49q7 35 -13.5 55t-56.5 20h-56l5 26h57q37 0 63 17.5t33 51.5q6 31 -11.5 50.5t-53.5 19.5q-38 0 -62 -17t-36 -45h-33z" />
    <glyph glyph-name="questiondown" unicode="&#xbf;" horiz-adv-x="544" 
d="M191 -167q-62 0 -105 25t-61.5 70t-6.5 104q16 80 58 126.5t104.5 67.5t137.5 21l29 132h32l-30 -162h-19q-44 0 -87.5 -6.5t-81.5 -25t-65 -55.5t-39 -98q-15 -77 24.5 -121t116.5 -44q79 0 134.5 43t69.5 115h36q-12 -60 -48 -103.5t-88 -66t-111 -22.5zM393 543
q13 0 20.5 -9t4.5 -24q-3 -14 -13.5 -23.5t-24.5 -9.5t-21.5 9.5t-4.5 23.5q3 15 14 24t25 9z" />
    <glyph glyph-name="Agrave" unicode="&#xc0;" horiz-adv-x="630" 
d="M415 666h-33l-384 -666h-38l403 700h83l125 -700h-39zM109 237h408l-7 -34h-408zM340 917l167 -131l-6 -32l-168 126z" />
    <glyph glyph-name="Aacute" unicode="&#xc1;" horiz-adv-x="630" 
d="M415 666h-33l-384 -666h-38l403 700h83l125 -700h-39zM109 237h408l-7 -34h-408zM533 917l-7 -37l-218 -126l6 32z" />
    <glyph glyph-name="Acircumflex" unicode="&#xc2;" horiz-adv-x="630" 
d="M415 666h-33l-384 -666h-38l403 700h83l125 -700h-39zM109 237h408l-7 -34h-408zM550 781l-111 82l-144 -82l7 34l143 81l111 -81z" />
    <glyph glyph-name="Atilde" unicode="&#xc3;" horiz-adv-x="630" 
d="M415 666h-33l-384 -666h-38l403 700h83l125 -700h-39zM109 237h408l-7 -34h-408zM294 764q11 35 33 54.5t51 19.5q20 0 31.5 -7.5t20.5 -16.5t20 -16.5t28 -7.5q16 0 30.5 11t22.5 34h27q-10 -33 -34 -53.5t-53 -20.5q-19 0 -31.5 7.5t-22 17t-20 16.5t-25.5 7
q-17 0 -30.5 -11t-20.5 -34h-27z" />
    <glyph glyph-name="Adieresis" unicode="&#xc4;" horiz-adv-x="630" 
d="M415 666h-33l-384 -666h-38l403 700h83l125 -700h-39zM109 237h408l-7 -34h-408zM355 794q-16 0 -24 10.5t-5 24.5q3 16 15 26.5t28 10.5q14 0 22.5 -10.5t6.5 -26.5q-4 -14 -16.5 -24.5t-26.5 -10.5zM496 794q-15 0 -23.5 10.5t-5.5 24.5q3 16 15.5 26.5t27.5 10.5
q14 0 22.5 -10.5t6.5 -26.5q-4 -14 -16.5 -24.5t-26.5 -10.5z" />
    <glyph glyph-name="Aring" unicode="&#xc5;" horiz-adv-x="630" 
d="M415 666h-33l-384 -666h-38l403 700h83l125 -700h-39zM109 237h408l-7 -34h-408zM529 847q-9 -44 -41.5 -68.5t-71.5 -24.5t-62 24.5t-13 68.5q8 43 41 68.5t71 25.5t61.5 -25.5t14.5 -68.5zM501 847q6 32 -9.5 50t-43.5 18t-50.5 -18t-28.5 -50q-6 -31 9 -49t43 -18
q29 0 51 18t29 49z" />
    <glyph glyph-name="AE" unicode="&#xc6;" horiz-adv-x="872" 
d="M569 666l-58 -290h223l-7 -34h-223l-61 -308h314l-7 -34h-352l41 203h-274l-162 -203h-43l562 700h367l-7 -34h-313zM192 237h253l83 418z" />
    <glyph glyph-name="Ccedilla" unicode="&#xc7;" horiz-adv-x="761" 
d="M66 350q16 79 54 144.5t92 113t120.5 73.5t137.5 26q119 0 187 -53t89 -144l-34 -12q-10 53 -42 92t-84 60.5t-122 21.5q-82 0 -156.5 -38.5t-128.5 -110.5t-75 -173q-19 -100 6.5 -172.5t84.5 -111t140 -38.5q72 -1 133.5 22t110.5 65.5t82 97.5l29 -12
q-58 -97 -149 -152.5t-213 -55.5q-71 0 -127 26t-91.5 74t-47 113.5t3.5 143.5zM348 -80q42 1 68.5 -8t37 -28.5t5.5 -48.5q-5 -26 -22 -46.5t-44 -32t-62 -11.5h-76l5 29h70q45 0 67 17t28 44q4 25 -11.5 41t-60.5 16h-41l23 115h31z" />
    <glyph glyph-name="Egrave" unicode="&#xc8;" horiz-adv-x="605" 
d="M616 666h-402l-58 -290h302l-7 -34h-302l-62 -308h403l-7 -34h-441l140 700h441zM336 917l167 -131l-7 -32l-167 126z" />
    <glyph glyph-name="Eacute" unicode="&#xc9;" horiz-adv-x="605" 
d="M616 666h-402l-58 -290h302l-7 -34h-302l-62 -308h403l-7 -34h-441l140 700h441zM529 917l-7 -37l-218 -126l7 32z" />
    <glyph glyph-name="Ecircumflex" unicode="&#xca;" horiz-adv-x="605" 
d="M616 666h-402l-58 -290h302l-7 -34h-302l-62 -308h403l-7 -34h-441l140 700h441zM546 781l-112 82l-143 -82l6 34l144 81l111 -81z" />
    <glyph glyph-name="Edieresis" unicode="&#xcb;" horiz-adv-x="605" 
d="M616 666h-402l-58 -290h302l-7 -34h-302l-62 -308h403l-7 -34h-441l140 700h441zM350 794q-15 0 -22.5 10.5t-5.5 24.5q3 16 15 26.5t28 10.5q15 0 23.5 -10.5t5.5 -26.5q-3 -14 -15.5 -24.5t-28.5 -10.5zM492 794q-15 0 -23.5 10.5t-5.5 24.5q3 16 15.5 26.5t27.5 10.5
q14 0 23 -10.5t5 -26.5q-2 -14 -15 -24.5t-27 -10.5z" />
    <glyph glyph-name="Igrave" unicode="&#xcc;" horiz-adv-x="377" 
d="M272 700h39l-140 -700h-39zM225 917l167 -131l-7 -32l-168 126z" />
    <glyph glyph-name="Iacute" unicode="&#xcd;" horiz-adv-x="377" 
d="M272 700h39l-140 -700h-39zM418 917l-8 -37l-218 -126l7 32z" />
    <glyph glyph-name="Icircumflex" unicode="&#xce;" horiz-adv-x="439" 
d="M291 700h38l-140 -700h-38zM453 781l-112 82l-143 -82l6 34l144 81l111 -81z" />
    <glyph glyph-name="Idieresis" unicode="&#xcf;" horiz-adv-x="396" 
d="M269 700h38l-140 -700h-38zM236 794q-15 0 -23 10.5t-5 25.5t15 25.5t27 10.5t23.5 -10.5t5.5 -26.5q-3 -14 -15.5 -24.5t-27.5 -10.5zM377 794q-15 0 -23 10.5t-6 24.5q3 16 15.5 26.5t27.5 10.5q14 0 23 -10.5t6 -26.5q-3 -14 -15.5 -24.5t-27.5 -10.5z" />
    <glyph glyph-name="Eth" unicode="&#xd0;" horiz-adv-x="791" 
d="M96 367h107l66 333h194q120 0 194.5 -42t101.5 -120t5 -189q-22 -110 -80.5 -188t-149.5 -119.5t-211 -41.5h-194l67 332h-107zM175 31h155q166 0 266 85.5t129 232.5q30 148 -36.5 233.5t-231.5 85.5h-156l-60 -301h223l-7 -35h-223z" />
    <glyph glyph-name="Ntilde" unicode="&#xd1;" horiz-adv-x="688" 
d="M686 700l-140 -700h-38l-301 636l-127 -636h-38l140 700h38l300 -636l127 636h39zM323 764q11 35 33 54.5t51 19.5q20 0 32 -7.5t20.5 -16.5t19.5 -16.5t29 -7.5q15 0 30 11t23 34h26q-9 -33 -33.5 -53.5t-52.5 -20.5q-20 0 -32.5 7.5t-21.5 17t-20 16.5t-26 7
q-17 0 -30 -11t-21 -34h-27z" />
    <glyph glyph-name="Ograve" unicode="&#xd2;" 
d="M335 -7q-73 0 -130 26t-93.5 73.5t-48.5 113t3 144.5q16 79 54 144.5t93.5 113t123 73.5t140.5 26q74 0 130.5 -26t93 -73.5t48.5 -113t-4 -144.5q-15 -79 -53.5 -144.5t-93.5 -113t-122 -73.5t-141 -26zM342 27q84 0 159.5 39t130 111.5t74.5 172.5q20 101 -6 173
t-86 111t-144 39t-160 -39t-130.5 -111t-74.5 -173q-19 -100 6.5 -172.5t86 -111.5t144.5 -39zM418 917l167 -131l-6 -32l-168 126z" />
    <glyph glyph-name="Oacute" unicode="&#xd3;" 
d="M335 -7q-73 0 -130 26t-93.5 73.5t-48.5 113t3 144.5q16 79 54 144.5t93.5 113t123 73.5t140.5 26q74 0 130.5 -26t93 -73.5t48.5 -113t-4 -144.5q-15 -79 -53.5 -144.5t-93.5 -113t-122 -73.5t-141 -26zM342 27q84 0 159.5 39t130 111.5t74.5 172.5q20 101 -6 173
t-86 111t-144 39t-160 -39t-130.5 -111t-74.5 -173q-19 -100 6.5 -172.5t86 -111.5t144.5 -39zM611 917l-7 -37l-218 -126l6 32z" />
    <glyph glyph-name="Ocircumflex" unicode="&#xd4;" 
d="M335 -7q-73 0 -130 26t-93.5 73.5t-48.5 113t3 144.5q16 79 54 144.5t93.5 113t123 73.5t140.5 26q74 0 130.5 -26t93 -73.5t48.5 -113t-4 -144.5q-15 -79 -53.5 -144.5t-93.5 -113t-122 -73.5t-141 -26zM342 27q84 0 159.5 39t130 111.5t74.5 172.5q20 101 -6 173
t-86 111t-144 39t-160 -39t-130.5 -111t-74.5 -173q-19 -100 6.5 -172.5t86 -111.5t144.5 -39zM628 781l-111 82l-144 -82l7 34l143 81l111 -81z" />
    <glyph glyph-name="Otilde" unicode="&#xd5;" 
d="M335 -7q-73 0 -130 26t-93.5 73.5t-48.5 113t3 144.5q16 79 54 144.5t93.5 113t123 73.5t140.5 26q74 0 130.5 -26t93 -73.5t48.5 -113t-4 -144.5q-15 -79 -53.5 -144.5t-93.5 -113t-122 -73.5t-141 -26zM342 27q84 0 159.5 39t130 111.5t74.5 172.5q20 101 -6 173
t-86 111t-144 39t-160 -39t-130.5 -111t-74.5 -173q-19 -100 6.5 -172.5t86 -111.5t144.5 -39zM372 764q12 35 33.5 54.5t51.5 19.5q19 0 30.5 -7.5t20.5 -16.5t20 -16.5t28 -7.5q16 0 31 11t22 34h27q-10 -33 -34 -53.5t-53 -20.5q-19 0 -31.5 7.5t-22 17t-20 16.5t-25.5 7
q-17 0 -30.5 -11t-20.5 -34h-27z" />
    <glyph glyph-name="Odieresis" unicode="&#xd6;" 
d="M335 -7q-73 0 -130 26t-93.5 73.5t-48.5 113t3 144.5q16 79 54 144.5t93.5 113t123 73.5t140.5 26q74 0 130.5 -26t93 -73.5t48.5 -113t-4 -144.5q-15 -79 -53.5 -144.5t-93.5 -113t-122 -73.5t-141 -26zM342 27q84 0 159.5 39t130 111.5t74.5 172.5q20 101 -6 173
t-86 111t-144 39t-160 -39t-130.5 -111t-74.5 -173q-19 -100 6.5 -172.5t86 -111.5t144.5 -39zM433 794q-15 0 -23.5 10.5t-4.5 24.5q2 16 14.5 26.5t27.5 10.5q14 0 23 -10.5t6 -26.5q-4 -14 -16.5 -24.5t-26.5 -10.5zM574 794q-15 0 -23.5 10.5t-5.5 24.5q3 16 15.5 26.5
t27.5 10.5q14 0 22.5 -10.5t6.5 -26.5q-4 -14 -16.5 -24.5t-26.5 -10.5z" />
    <glyph glyph-name="multiply" unicode="&#xd7;" horiz-adv-x="539" 
d="M155 550l300 -375l-31 -25l-300 375zM55 176l449 374l19 -25l-448 -374z" />
    <glyph glyph-name="Oslash" unicode="&#xd8;" 
d="M677 609l24 -19l-554 -494l-26 17zM335 -7q-73 0 -130 26t-93.5 73.5t-48.5 113t3 144.5q16 79 54 144.5t93.5 113t123 73.5t140.5 26q74 0 130.5 -26t93 -73.5t48.5 -113t-4 -144.5q-15 -79 -53.5 -144.5t-93.5 -113t-122 -73.5t-141 -26zM342 27q84 0 159.5 39
t130 111.5t74.5 172.5q20 101 -6 173t-86 111t-144 39t-160 -39t-130.5 -111t-74.5 -173q-19 -100 6.5 -172.5t86 -111.5t144.5 -39z" />
    <glyph glyph-name="Ugrave" unicode="&#xd9;" horiz-adv-x="679" 
d="M177 700h38l-87 -437q-16 -86 2.5 -138t63 -75t103.5 -23t111.5 23t91.5 75t55 138l88 437h38l-87 -437q-14 -71 -43.5 -122t-70 -84t-89.5 -48.5t-101 -15.5q-70 0 -122 28t-74.5 88t-3.5 154zM362 917l168 -131l-7 -32l-168 126z" />
    <glyph glyph-name="Uacute" unicode="&#xda;" horiz-adv-x="679" 
d="M177 700h38l-87 -437q-16 -86 2.5 -138t63 -75t103.5 -23t111.5 23t91.5 75t55 138l88 437h38l-87 -437q-14 -71 -43.5 -122t-70 -84t-89.5 -48.5t-101 -15.5q-70 0 -122 28t-74.5 88t-3.5 154zM555 917l-7 -37l-218 -126l7 32z" />
    <glyph glyph-name="Ucircumflex" unicode="&#xdb;" horiz-adv-x="679" 
d="M177 700h38l-87 -437q-16 -86 2.5 -138t63 -75t103.5 -23t111.5 23t91.5 75t55 138l88 437h38l-87 -437q-14 -71 -43.5 -122t-70 -84t-89.5 -48.5t-101 -15.5q-70 0 -122 28t-74.5 88t-3.5 154zM572 781l-111 82l-144 -82l7 34l143 81l112 -81z" />
    <glyph glyph-name="Udieresis" unicode="&#xdc;" horiz-adv-x="679" 
d="M177 700h38l-87 -437q-16 -86 2.5 -138t63 -75t103.5 -23t111.5 23t91.5 75t55 138l88 437h38l-87 -437q-14 -71 -43.5 -122t-70 -84t-89.5 -48.5t-101 -15.5q-70 0 -122 28t-74.5 88t-3.5 154zM376 794q-14 0 -22 10.5t-6 24.5q4 16 16 26.5t27 10.5t23.5 -10.5
t5.5 -26.5q-3 -14 -16 -24.5t-28 -10.5zM518 794q-15 0 -23.5 10.5t-5.5 24.5q3 16 16 26.5t27 10.5t23 -10.5t5 -26.5q-2 -14 -15 -24.5t-27 -10.5z" />
    <glyph glyph-name="Yacute" unicode="&#xdd;" horiz-adv-x="601" 
d="M620 700h40l-332 -413l-57 -287h-38l56 287l-169 413h42l154 -376zM518 917l-7 -37l-218 -126l6 32z" />
    <glyph glyph-name="Thorn" unicode="&#xde;" horiz-adv-x="556" 
d="M270 189q105 0 156.5 44t65.5 117q15 77 -19 120t-139 43h-152l-64 -324h152zM530 350q-12 -61 -46 -105t-89.5 -67t-131.5 -23h-151l-32 -155h-38l140 700h38l-32 -154h152q81 0 126.5 -25t60 -69t3.5 -102z" />
    <glyph glyph-name="germandbls" unicode="&#xdf;" horiz-adv-x="593" 
d="M136 515q11 57 41.5 100t77 67.5t106.5 24.5q57 0 93.5 -18.5t51.5 -50t7 -71.5q-6 -30 -23 -51t-39 -37t-45 -33q-28 -20 -50 -39.5t-26 -44.5q-6 -27 14.5 -45t83.5 -40q60 -20 80.5 -57.5t10.5 -87.5q-12 -63 -59.5 -101t-119.5 -38t-111 43t-33 117h39
q-5 -58 24.5 -93t87.5 -35q53 0 88.5 28.5t44.5 76.5q9 41 -10 71t-72 48q-68 23 -91.5 47t-15.5 63q7 36 34.5 61t57.5 47q32 22 58 42.5t33 56.5q10 47 -21 77.5t-99 30.5q-48 0 -85.5 -20t-62 -56.5t-34.5 -84.5l-102 -513h-37z" />
    <glyph glyph-name="agrave" unicode="&#xe0;" horiz-adv-x="525" 
d="M365 0l24 125q-32 -64 -87.5 -98t-130.5 -34q-54 0 -89 16t-49 46.5t-5 73.5q12 63 66.5 101t154.5 48l174 19l9 45q13 63 -19 97t-101 34q-67 0 -115.5 -30.5t-73.5 -87.5l-31 12q32 68 89.5 104t136.5 36q87 0 127 -42.5t25 -118.5l-70 -346h-35zM417 264l-176 -19
q-82 -8 -124 -36.5t-51 -77.5q-10 -50 18.5 -78t92.5 -28q62 0 109.5 25.5t79 71t43.5 107.5zM251 700l154 -121l-6 -29l-154 116z" />
    <glyph glyph-name="aacute" unicode="&#xe1;" horiz-adv-x="525" 
d="M365 0l24 125q-32 -64 -87.5 -98t-130.5 -34q-54 0 -89 16t-49 46.5t-5 73.5q12 63 66.5 101t154.5 48l174 19l9 45q13 63 -19 97t-101 34q-67 0 -115.5 -30.5t-73.5 -87.5l-31 12q32 68 89.5 104t136.5 36q87 0 127 -42.5t25 -118.5l-70 -346h-35zM417 264l-176 -19
q-82 -8 -124 -36.5t-51 -77.5q-10 -50 18.5 -78t92.5 -28q62 0 109.5 25.5t79 71t43.5 107.5zM428 700l-6 -34l-200 -116l6 29z" />
    <glyph glyph-name="acircumflex" unicode="&#xe2;" horiz-adv-x="525" 
d="M366 0l23 125q-32 -64 -87.5 -98t-130.5 -34q-54 0 -89 16t-49 46.5t-5 73.5q12 63 66.5 101t154.5 48l174 19l9 45q13 63 -19 97t-101 34q-67 0 -115.5 -30.5t-73.5 -87.5l-31 12q32 68 89.5 104t136.5 36q88 0 127.5 -42.5t24.5 -118.5l-69 -346h-35zM417 264l-176 -19
q-82 -8 -124 -36.5t-51 -77.5q-10 -50 18.5 -78t92.5 -28q62 0 109.5 25.5t79 71t43.5 107.5zM444 575l-102 76l-132 -76l6 32l132 74l102 -74z" />
    <glyph glyph-name="atilde" unicode="&#xe3;" horiz-adv-x="525" 
d="M365 0l24 125q-32 -64 -87.5 -98t-130.5 -34q-54 0 -89 16t-49 46.5t-5 73.5q12 63 66.5 101t154.5 48l174 19l9 45q13 63 -19 97t-101 34q-67 0 -115.5 -30.5t-73.5 -87.5l-31 12q32 68 89.5 104t136.5 36q87 0 127 -42.5t25 -118.5l-70 -346h-35zM417 264l-176 -19
q-82 -8 -124 -36.5t-51 -77.5q-10 -50 18.5 -78t92.5 -28q62 0 109.5 25.5t79 71t43.5 107.5zM208 558q11 33 31.5 51t46.5 18q24 0 36 -11t23.5 -22t32.5 -11q14 0 28 10t21 31h24q-8 -30 -30.5 -49t-48.5 -19q-24 0 -37 11t-24.5 22.5t-30.5 11.5q-16 0 -28 -10t-19 -33
h-25z" />
    <glyph glyph-name="adieresis" unicode="&#xe4;" horiz-adv-x="525" 
d="M365 0l24 125q-32 -64 -87.5 -98t-130.5 -34q-54 0 -89 16t-49 46.5t-5 73.5q12 63 66.5 101t154.5 48l174 19l9 45q13 63 -19 97t-101 34q-67 0 -115.5 -30.5t-73.5 -87.5l-31 12q32 68 89.5 104t136.5 36q87 0 127 -42.5t25 -118.5l-70 -346h-35zM417 264l-176 -19
q-82 -8 -124 -36.5t-51 -77.5q-10 -50 18.5 -78t92.5 -28q62 0 109.5 25.5t79 71t43.5 107.5zM265 588q-14 0 -21.5 9t-4.5 22q2 14 13.5 24t25.5 10q13 0 20.5 -10t5.5 -24q-3 -13 -14.5 -22t-24.5 -9zM395 588q-14 0 -22 9t-5 22q3 14 14 24t25 10q13 0 21 -10t5 -24
q-2 -13 -14 -22t-24 -9z" />
    <glyph glyph-name="aring" unicode="&#xe5;" horiz-adv-x="525" 
d="M365 0l24 125q-32 -64 -87.5 -98t-130.5 -34q-54 0 -89 16t-49 46.5t-5 73.5q12 63 66.5 101t154.5 48l174 19l9 45q13 63 -19 97t-101 34q-67 0 -115.5 -30.5t-73.5 -87.5l-31 12q32 68 89.5 104t136.5 36q87 0 127 -42.5t25 -118.5l-70 -346h-35zM417 264l-176 -19
q-82 -8 -124 -36.5t-51 -77.5q-10 -50 18.5 -78t92.5 -28q62 0 109.5 25.5t79 71t43.5 107.5zM425 635q-8 -40 -38.5 -62.5t-65.5 -22.5t-56.5 22.5t-12.5 62.5q8 41 38 64t65 23t56.5 -23t13.5 -64zM399 635q6 30 -8.5 46.5t-39.5 16.5q-26 0 -46.5 -16.5t-27.5 -46.5
q-5 -28 9 -45t39 -17q27 0 47.5 17t26.5 45z" />
    <glyph glyph-name="ae" unicode="&#xe6;" horiz-adv-x="917" 
d="M593 -7q-70 0 -114.5 32t-61 91t-0.5 139q23 118 97.5 185t179.5 67q75 0 118.5 -31.5t58.5 -81.5t3 -108q-1 -8 -3.5 -19t-5.5 -24h-416q-13 -74 4.5 -122t56 -71t89.5 -23q69 0 122 29.5t86 83.5l28 -13q-37 -60 -97.5 -97t-144.5 -37zM835 275q17 65 1 108.5t-56 66.5
t-93 23q-49 0 -96 -21t-82.5 -64.5t-52.5 -112.5h379zM429 236l-8 -71q-26 -63 -66 -100.5t-87 -54.5t-97 -17q-49 0 -84.5 16t-51.5 47t-7 77q9 44 35 72t60 43t67.5 21.5t58.5 8.5l174 17l10 51q11 54 -18 90.5t-103 36.5q-59 0 -110.5 -27.5t-78.5 -90.5l-31 12
q33 71 91.5 105.5t134.5 34.5q83 0 124 -41.5t25 -119.5l-18 -89zM417 262l-176 -17q-71 -7 -117.5 -32t-57.5 -79q-10 -54 24 -80.5t88 -26.5q61 0 109 26.5t79.5 73t43.5 104.5z" />
    <glyph glyph-name="ccedilla" unicode="&#xe7;" horiz-adv-x="554" 
d="M238 -7q-72 0 -119.5 31.5t-66 89t-2.5 135.5q15 77 56.5 135.5t101.5 90.5t132 32q77 0 126.5 -36t59.5 -99l-35 -11q-9 52 -50.5 82t-105.5 30q-61 0 -112 -28t-86.5 -78t-48.5 -118q-20 -101 22.5 -161.5t135.5 -60.5q62 0 114 28.5t88 81.5l31 -10
q-40 -64 -102.5 -99t-138.5 -35zM237 -72q38 1 62 -7.5t34.5 -26.5t4.5 -44q-4 -25 -20 -43.5t-40.5 -29t-56.5 -10.5h-71l6 27h64q41 0 61.5 15t24.5 41q5 22 -9 37t-56 15h-37l21 106h28z" />
    <glyph glyph-name="egrave" unicode="&#xe8;" horiz-adv-x="557" 
d="M231 -7q-69 0 -114.5 33.5t-63 92.5t-2.5 136q14 74 55 131t100 89t126 32q66 0 111 -29t64.5 -78.5t5.5 -113.5q-1 -8 -3 -19.5t-6 -23.5h-417q-11 -64 4 -112.5t53 -76t93 -27.5q67 0 121.5 29.5t87.5 83.5l28 -13q-39 -64 -102.5 -99t-140.5 -35zM473 275
q13 58 -1.5 102.5t-52 70t-94.5 25.5q-53 0 -100.5 -25.5t-82 -70.5t-48.5 -102h379zM274 700l153 -121l-6 -29l-154 116z" />
    <glyph glyph-name="eacute" unicode="&#xe9;" horiz-adv-x="557" 
d="M231 -7q-69 0 -114.5 33.5t-63 92.5t-2.5 136q14 74 55 131t100 89t126 32q66 0 111 -29t64.5 -78.5t5.5 -113.5q-1 -8 -3 -19.5t-6 -23.5h-417q-11 -64 4 -112.5t53 -76t93 -27.5q67 0 121.5 29.5t87.5 83.5l28 -13q-39 -64 -102.5 -99t-140.5 -35zM473 275
q13 58 -1.5 102.5t-52 70t-94.5 25.5q-53 0 -100.5 -25.5t-82 -70.5t-48.5 -102h379zM451 700l-6 -34l-201 -116l6 29z" />
    <glyph glyph-name="ecircumflex" unicode="&#xea;" horiz-adv-x="557" 
d="M231 -7q-69 0 -114.5 33.5t-63 92.5t-2.5 136q14 74 55 131t100 89t126 32q66 0 111 -29t64.5 -78.5t5.5 -113.5q-1 -8 -3 -19.5t-6 -23.5h-417q-11 -64 4 -112.5t53 -76t93 -27.5q67 0 121.5 29.5t87.5 83.5l28 -13q-39 -64 -102.5 -99t-140.5 -35zM473 275
q13 58 -1.5 102.5t-52 70t-94.5 25.5q-53 0 -100.5 -25.5t-82 -70.5t-48.5 -102h379zM466 575l-102 76l-131 -76l6 32l131 74l102 -74z" />
    <glyph glyph-name="edieresis" unicode="&#xeb;" horiz-adv-x="557" 
d="M231 -7q-69 0 -114.5 33.5t-63 92.5t-2.5 136q14 74 55 131t100 89t126 32q66 0 111 -29t64.5 -78.5t5.5 -113.5q-1 -8 -3 -19.5t-6 -23.5h-417q-11 -64 4 -112.5t53 -76t93 -27.5q67 0 121.5 29.5t87.5 83.5l28 -13q-39 -64 -102.5 -99t-140.5 -35zM473 275
q13 58 -1.5 102.5t-52 70t-94.5 25.5q-53 0 -100.5 -25.5t-82 -70.5t-48.5 -102h379zM287 588q-14 0 -21 9t-5 22q3 14 14.5 24t24.5 10q14 0 22 -10t4 -24q-2 -13 -13.5 -22t-25.5 -9zM417 588q-14 0 -21.5 9t-4.5 22q2 14 14 24t25 10t21 -10t5 -24q-3 -13 -14.5 -22
t-24.5 -9z" />
    <glyph glyph-name="igrave" unicode="&#xec;" horiz-adv-x="343" 
d="M213 500h39l-99 -500h-39zM173 700l152 -121l-5 -29l-155 116z" />
    <glyph glyph-name="iacute" unicode="&#xed;" horiz-adv-x="343" 
d="M213 500h39l-99 -500h-39zM350 700l-7 -34l-200 -116l5 29z" />
    <glyph glyph-name="icircumflex" unicode="&#xee;" horiz-adv-x="400" 
d="M231 500h38l-100 -500h-38zM382 575l-103 76l-131 -76l6 32l131 75l103 -75z" />
    <glyph glyph-name="idieresis" unicode="&#xef;" horiz-adv-x="360" 
d="M211 500h38l-99 -500h-39zM182 588q-13 0 -20.5 9t-5.5 22q3 14 14.5 24t25.5 10q13 0 21 -10t5 -24q-3 -13 -14.5 -22t-25.5 -9zM312 588q-13 0 -21 9t-5 22q2 14 14 24t26 10q13 0 20.5 -10t4.5 -24q-3 -13 -14.5 -22t-24.5 -9z" />
    <glyph glyph-name="eth" unicode="&#xf0;" horiz-adv-x="595" 
d="M599 685l-5 -27l-110 -37q55 -75 70.5 -159t-3.5 -177q-19 -97 -64 -162.5t-107.5 -97.5t-134.5 -32q-75 0 -124 32.5t-67.5 92.5t-2.5 140q15 74 57 130.5t103.5 87.5t134.5 31q45 0 82.5 -14.5t63 -46t33.5 -83.5q2 70 -16.5 127.5t-57.5 119.5l-157 -53l6 28l135 46
q-13 17 -28.5 34.5t-33.5 34.5h41q31 -28 56 -58zM252 26q57 0 109.5 26.5t90.5 77t53 121.5q14 74 -4.5 123.5t-61 74.5t-98.5 25q-59 0 -110.5 -25t-88.5 -73.5t-51 -117.5q-23 -113 24 -172.5t137 -59.5z" />
    <glyph glyph-name="ntilde" unicode="&#xf1;" horiz-adv-x="562" 
d="M132 500h36l-22 -113q30 55 80 87.5t121 32.5q55 0 93.5 -24t54 -73.5t0.5 -125.5l-56 -284h-37l55 282q19 93 -13.5 142.5t-107.5 49.5q-79 0 -136 -54t-78 -161l-52 -259h-37zM222 558q10 33 30 51t48 18q23 0 35 -11t23.5 -22t32.5 -11q15 0 28.5 10t20.5 31h24
q-8 -30 -30.5 -49t-48.5 -19q-24 0 -37 11t-24.5 22.5t-30.5 11.5q-16 0 -28 -10t-19 -33h-24z" />
    <glyph glyph-name="ograve" unicode="&#xf2;" horiz-adv-x="584" 
d="M241 -7q-70 0 -118.5 31t-68.5 88.5t-4 137.5q16 79 59 137t104 89t130 31q70 0 118 -31t68 -89t4 -137q-16 -80 -58.5 -137.5t-103.5 -88.5t-130 -31zM247 27q53 0 104 24t90 73.5t54 125.5q15 77 -4 126t-60.5 73t-94.5 24t-104 -24t-89.5 -73.5t-53.5 -125.5
q-15 -77 4 -126t60 -73t94 -24zM287 700l153 -121l-6 -29l-154 116z" />
    <glyph glyph-name="oacute" unicode="&#xf3;" horiz-adv-x="584" 
d="M241 -7q-70 0 -118.5 31t-68.5 88.5t-4 137.5q16 79 59 137t104 89t130 31q70 0 118 -31t68 -89t4 -137q-16 -80 -58.5 -137.5t-103.5 -88.5t-130 -31zM247 27q53 0 104 24t90 73.5t54 125.5q15 77 -4 126t-60.5 73t-94.5 24t-104 -24t-89.5 -73.5t-53.5 -125.5
q-15 -77 4 -126t60 -73t94 -24zM464 700l-6 -34l-201 -116l6 29z" />
    <glyph glyph-name="ocircumflex" unicode="&#xf4;" horiz-adv-x="584" 
d="M241 -7q-70 0 -118.5 31t-68.5 88.5t-4 137.5q16 79 59 137t104 89t130 31q70 0 118 -31t68 -89t4 -137q-16 -80 -58.5 -137.5t-103.5 -88.5t-130 -31zM247 27q53 0 104 24t90 73.5t54 125.5q15 77 -4 126t-60.5 73t-94.5 24t-104 -24t-89.5 -73.5t-53.5 -125.5
q-15 -77 4 -126t60 -73t94 -24zM479 575l-102 76l-131 -76l6 32l131 74l102 -74z" />
    <glyph glyph-name="otilde" unicode="&#xf5;" horiz-adv-x="584" 
d="M241 -7q-70 0 -118.5 31t-68.5 88.5t-4 137.5q16 79 59 137t104 89t130 31q70 0 118 -31t68 -89t4 -137q-16 -80 -58.5 -137.5t-103.5 -88.5t-130 -31zM247 27q53 0 104 24t90 73.5t54 125.5q15 77 -4 126t-60.5 73t-94.5 24t-104 -24t-89.5 -73.5t-53.5 -125.5
q-15 -77 4 -126t60 -73t94 -24zM245 558q10 33 30 51t47 18q23 0 35.5 -11t23.5 -22t33 -11q15 0 28 10t20 31h25q-9 -30 -31 -49t-48 -19q-25 0 -37.5 11t-24 22.5t-30.5 11.5q-16 0 -28 -10t-19 -33h-24z" />
    <glyph glyph-name="odieresis" unicode="&#xf6;" horiz-adv-x="584" 
d="M241 -7q-70 0 -118.5 31t-68.5 88.5t-4 137.5q16 79 59 137t104 89t130 31q70 0 118 -31t68 -89t4 -137q-16 -80 -58.5 -137.5t-103.5 -88.5t-130 -31zM247 27q53 0 104 24t90 73.5t54 125.5q15 77 -4 126t-60.5 73t-94.5 24t-104 -24t-89.5 -73.5t-53.5 -125.5
q-15 -77 4 -126t60 -73t94 -24zM300 588q-14 0 -21 9t-5 22q3 14 14.5 24t24.5 10q14 0 22 -10t4 -24q-2 -13 -13.5 -22t-25.5 -9zM430 588q-14 0 -21.5 9t-4.5 22q2 14 14 24t25 10t21 -10t5 -24q-3 -13 -14.5 -22t-24.5 -9z" />
    <glyph glyph-name="divide" unicode="&#xf7;" horiz-adv-x="647" 
d="M93 368h509l-6 -32h-510zM302 103q-14 0 -21 9.5t-5 23.5q3 14 14 23.5t25 9.5q13 0 20.5 -9.5t4.5 -23.5q-2 -14 -13 -23.5t-25 -9.5zM387 532q-14 0 -21 9.5t-4 23.5q2 13 13 23t25 10q13 0 20.5 -9.5t5.5 -24.5q-3 -13 -14 -22.5t-25 -9.5z" />
    <glyph glyph-name="oslash" unicode="&#xf8;" horiz-adv-x="584" 
d="M485 437l21 -21l-393 -354l-23 19zM241 -7q-70 0 -118.5 31t-68.5 88.5t-4 137.5q16 79 59 137t104 89t130 31q70 0 118 -31t68 -89t4 -137q-16 -80 -58.5 -137.5t-103.5 -88.5t-130 -31zM247 27q53 0 104 24t90 73.5t54 125.5q15 77 -4 126t-60.5 73t-94.5 24t-104 -24
t-89.5 -73.5t-53.5 -125.5q-15 -77 4 -126t60 -73t94 -24z" />
    <glyph glyph-name="ugrave" unicode="&#xf9;" horiz-adv-x="561" 
d="M429 0h-34l20 109q-29 -55 -79 -85.5t-120 -30.5q-55 0 -94 23t-54.5 71.5t-0.5 124.5l58 288h36l-57 -287q-18 -93 14 -139.5t108 -46.5q80 0 136 51t78 158l52 264h37zM260 700l154 -121l-6 -29l-154 116z" />
    <glyph glyph-name="uacute" unicode="&#xfa;" horiz-adv-x="561" 
d="M429 0h-34l20 109q-29 -55 -79 -85.5t-120 -30.5q-55 0 -94 23t-54.5 71.5t-0.5 124.5l58 288h36l-57 -287q-18 -93 14 -139.5t108 -46.5q80 0 136 51t78 158l52 264h37zM437 700l-6 -34l-200 -116l6 29z" />
    <glyph glyph-name="ucircumflex" unicode="&#xfb;" horiz-adv-x="561" 
d="M429 0h-34l20 109q-29 -55 -79 -85.5t-120 -30.5q-55 0 -94 23t-54.5 71.5t-0.5 124.5l58 288h36l-57 -287q-19 -93 13.5 -139.5t108.5 -46.5q80 0 136 51t78 158l52 264h37zM453 575l-102 76l-132 -76l6 32l132 74l102 -74z" />
    <glyph glyph-name="udieresis" unicode="&#xfc;" horiz-adv-x="561" 
d="M429 0h-34l20 109q-29 -55 -79 -85.5t-120 -30.5q-55 0 -94 23t-54.5 71.5t-0.5 124.5l58 288h36l-57 -287q-18 -93 14 -139.5t108 -46.5q80 0 136 51t78 158l52 264h37zM274 588q-14 0 -21.5 9t-4.5 22q2 14 13.5 24t25.5 10q13 0 21 -10t5 -24q-2 -13 -13.5 -22
t-25.5 -9zM404 588q-14 0 -22 9t-5 22q3 14 14.5 24t25.5 10q12 0 20 -10t5 -24q-2 -13 -13.5 -22t-24.5 -9z" />
    <glyph glyph-name="yacute" unicode="&#xfd;" horiz-adv-x="486" 
d="M477 500h37l-415 -700h-37l120 202l-112 498h39l101 -455zM410 700l-7 -34l-200 -116l6 29z" />
    <glyph glyph-name="thorn" unicode="&#xfe;" horiz-adv-x="625" 
d="M24 -228h-36l183 921h36l-66 -332q33 64 97 105.5t146 41.5q70 0 118.5 -31.5t68.5 -89t5 -136.5q-16 -78 -59 -136.5t-104.5 -90t-131.5 -31.5q-52 0 -91 19.5t-62.5 53.5t-29.5 75zM537 251q14 70 -2.5 119.5t-58.5 76.5t-102 27t-113 -27.5t-90.5 -77.5t-51.5 -118
t4 -118.5t60 -78.5t101 -28q62 0 114 27.5t88.5 78t50.5 119.5z" />
    <glyph glyph-name="ydieresis" unicode="&#xff;" horiz-adv-x="486" 
d="M477 500h37l-415 -700h-37l120 202l-112 498h39l101 -455zM246 588q-14 0 -21.5 9t-4.5 22q2 14 13.5 24t25.5 10q13 0 21 -10t6 -24q-4 -13 -15.5 -22t-24.5 -9zM375 588q-13 0 -20.5 9t-5.5 22q2 14 14 24t25 10q14 0 21.5 -10t5.5 -24q-3 -13 -15 -22t-25 -9z" />
    <glyph glyph-name="Amacron" unicode="&#x100;" horiz-adv-x="630" 
d="M415 666h-33l-384 -666h-38l403 700h83l125 -700h-39zM109 237h408l-7 -34h-408zM274 843h320l-6 -32h-320z" />
    <glyph glyph-name="amacron" unicode="&#x101;" horiz-adv-x="525" 
d="M366 0l23 125q-32 -64 -87.5 -98t-130.5 -34q-54 0 -89 16t-49 46.5t-5 73.5q12 63 66.5 101t154.5 48l174 19l9 45q13 63 -19 97t-101 34q-67 0 -115.5 -30.5t-73.5 -87.5l-31 12q32 68 89.5 104t136.5 36q88 0 127.5 -42.5t24.5 -118.5l-69 -346h-35zM417 264l-176 -19
q-82 -8 -124 -36.5t-51 -77.5q-10 -50 18.5 -78t92.5 -28q62 0 109.5 25.5t79 71t43.5 107.5zM191 632h293l-5 -29h-294z" />
    <glyph glyph-name="Abreve" unicode="&#x102;" horiz-adv-x="630" 
d="M415 666h-33l-384 -666h-38l403 700h83l125 -700h-39zM109 237h408l-7 -34h-408zM568 890q-5 -27 -23 -52t-48.5 -41t-74.5 -16q-43 0 -67.5 16t-32 41t-1.5 52l1 8h29q-9 -41 10.5 -64t66.5 -23t76 23t37 64h29z" />
    <glyph glyph-name="abreve" unicode="&#x103;" horiz-adv-x="525" 
d="M365 0l24 125q-32 -64 -87.5 -98t-130.5 -34q-54 0 -89 16t-49 46.5t-5 73.5q12 63 66.5 101t154.5 48l174 19l9 45q13 63 -19 97t-101 34q-67 0 -115.5 -30.5t-73.5 -87.5l-31 12q32 68 89.5 104t136.5 36q87 0 127 -42.5t25 -118.5l-70 -346h-35zM417 264l-176 -19
q-82 -8 -124 -36.5t-51 -77.5q-10 -50 18.5 -78t92.5 -28q62 0 109.5 25.5t79 71t43.5 107.5zM461 675q-5 -24 -21.5 -47.5t-44.5 -38t-69 -14.5q-39 0 -61 14.5t-29.5 38t-2.5 48.5l1 7h27q-8 -38 10 -59t61 -21t69.5 21t34.5 59h27z" />
    <glyph glyph-name="Aogonek" unicode="&#x104;" horiz-adv-x="630" 
d="M551 23l7 -23l-73 -32q-42 -16 -61 -36.5t-23 -41.5q-5 -27 11 -40.5t45 -13.5q15 0 32 3.5t34 9.5l-6 -30q-17 -6 -34.5 -9t-32.5 -3q-27 0 -48 8.5t-31 26t-5 45.5q5 20 17.5 39t37 36t61.5 33zM415 666h-33l-384 -666h-38l403 700h83l125 -700h-39zM109 237h408
l-7 -34h-408z" />
    <glyph glyph-name="aogonek" unicode="&#x105;" horiz-adv-x="526" 
d="M365 0l24 125q-32 -64 -87.5 -98t-130.5 -34q-54 0 -89 16t-49 46.5t-5 73.5q12 63 66.5 101t154.5 48l174 19l9 45q13 63 -19 97t-101 34q-67 0 -115.5 -30.5t-73.5 -87.5l-31 12q32 68 89.5 104t136.5 36q88 0 127.5 -42.5t24.5 -118.5l-70 -346h-35zM417 264l-176 -19
q-82 -8 -124 -36.5t-51 -77.5q-10 -50 18.5 -78t92.5 -28q62 0 109.5 25.5t79 71t43.5 107.5zM386 21l5 -21l-67 -29q-39 -16 -56 -34.5t-21 -37.5q-5 -26 10 -38t42 -12q26 0 60 12l-5 -28q-16 -5 -32 -8t-31 -3q-25 0 -43.5 8t-27.5 24t-4 42q6 28 30.5 53t75.5 46z" />
    <glyph glyph-name="Cacute" unicode="&#x106;" horiz-adv-x="761" 
d="M66 350q16 79 54 144.5t92 113t120.5 73.5t137.5 26q119 0 187 -53t89 -144l-34 -12q-10 53 -42 92t-84 60.5t-122 21.5q-82 0 -156.5 -38.5t-128.5 -110.5t-75 -173q-19 -100 6.5 -172.5t84.5 -111t140 -38.5q72 -1 133.5 22t110.5 65.5t82 97.5l29 -12
q-58 -97 -149 -152.5t-213 -55.5q-71 0 -127 26t-91.5 74t-47 113.5t3.5 143.5zM597 917l-7 -37l-218 -126l6 32z" />
    <glyph glyph-name="cacute" unicode="&#x107;" horiz-adv-x="554" 
d="M239 -7q-73 0 -120.5 31.5t-66 89t-2.5 135.5q15 77 56.5 135.5t101.5 90.5t132 32q77 0 126.5 -36t59.5 -99l-35 -11q-9 52 -50.5 82t-105.5 30q-61 0 -112 -28t-86.5 -78t-48.5 -118q-20 -101 22.5 -161.5t135.5 -60.5q62 0 114 28.5t88 81.5l31 -10
q-40 -64 -102.5 -99t-137.5 -35zM452 700l-7 -34l-201 -116l6 29z" />
    <glyph glyph-name="Ccircumflex" unicode="&#x108;" horiz-adv-x="761" 
d="M66 350q16 79 54 144.5t92 113t120.5 73.5t137.5 26q119 0 187 -53t89 -144l-34 -12q-10 53 -42 92t-84 60.5t-122 21.5q-82 0 -156.5 -38.5t-128.5 -110.5t-75 -173q-19 -100 6.5 -172.5t84.5 -111t140 -38.5q72 -1 133.5 22t110.5 65.5t82 97.5l29 -12
q-58 -97 -149 -152.5t-213 -55.5q-71 0 -127 26t-91.5 74t-47 113.5t3.5 143.5zM614 782l-112 82l-143 -82l6 34l144 81l111 -81z" />
    <glyph glyph-name="ccircumflex" unicode="&#x109;" horiz-adv-x="554" 
d="M239 -7q-73 0 -120.5 31.5t-66 89t-2.5 135.5q15 77 56.5 135.5t101.5 90.5t132 32q77 0 126.5 -36t59.5 -99l-35 -11q-9 52 -50.5 82t-105.5 30q-61 0 -112 -28t-86.5 -78t-48.5 -118q-20 -101 22.5 -161.5t135.5 -60.5q62 0 114 28.5t88 81.5l31 -10
q-40 -64 -102.5 -99t-137.5 -35zM479 582l-112 82l-143 -82l6 34l144 81l111 -81z" />
    <glyph glyph-name="Cdotaccent" unicode="&#x10a;" horiz-adv-x="761" 
d="M66 350q16 79 54 144.5t92 113t120.5 73.5t137.5 26q119 0 187 -53t89 -144l-34 -12q-10 53 -42 92t-84 60.5t-122 21.5q-82 0 -156.5 -38.5t-128.5 -110.5t-75 -173q-19 -100 6.5 -172.5t84.5 -111t140 -38.5q72 -1 133.5 22t110.5 65.5t82 97.5l29 -12
q-58 -97 -149 -152.5t-213 -55.5q-71 0 -127 26t-91.5 74t-47 113.5t3.5 143.5zM485 777q-15 0 -23 10t-6 24q4 16 16 26.5t27 10.5t23.5 -10.5t5.5 -26.5q-3 -14 -15.5 -24t-27.5 -10z" />
    <glyph glyph-name="cdotaccent" unicode="&#x10b;" horiz-adv-x="554" 
d="M238 -7q-72 0 -119.5 31.5t-66 89t-2.5 135.5q15 77 56.5 135.5t101.5 90.5t132 32q77 0 126.5 -36t59.5 -99l-35 -11q-9 52 -50.5 82t-105.5 30q-61 0 -112 -28t-86.5 -78t-48.5 -118q-20 -101 22.5 -161.5t135.5 -60.5q62 0 114 28.5t88 81.5l31 -10
q-40 -64 -102.5 -99t-138.5 -35zM349 571q-14 0 -21.5 9.5t-4.5 22.5q2 14 13.5 23.5t25.5 9.5q13 0 21 -9.5t5 -23.5q-2 -13 -13.5 -22.5t-25.5 -9.5z" />
    <glyph glyph-name="Ccaron" unicode="&#x10c;" horiz-adv-x="761" 
d="M66 350q16 79 54 144.5t92 113t120.5 73.5t137.5 26q119 0 187 -53t89 -144l-34 -12q-10 53 -42 92t-84 60.5t-122 21.5q-82 0 -156.5 -38.5t-128.5 -110.5t-75 -173q-19 -100 6.5 -172.5t84.5 -111t140 -38.5q72 -1 133.5 22t110.5 65.5t82 97.5l29 -12
q-58 -97 -149 -152.5t-213 -55.5q-71 0 -127 26t-91.5 74t-47 113.5t3.5 143.5zM635 894l-6 -34l-143 -80l-112 80l7 34l111 -82z" />
    <glyph glyph-name="ccaron" unicode="&#x10d;" horiz-adv-x="554" 
d="M238 -7q-72 0 -119.5 31.5t-66 89t-2.5 135.5q15 77 56.5 135.5t101.5 90.5t132 32q77 0 126.5 -36t59.5 -99l-35 -11q-9 52 -50.5 82t-105.5 30q-61 0 -112 -28t-86.5 -78t-48.5 -118q-20 -101 22.5 -161.5t135.5 -60.5q62 0 114 28.5t88 81.5l31 -10
q-40 -64 -102.5 -99t-138.5 -35zM488 679l-7 -31l-132 -74l-102 74l6 31l102 -75z" />
    <glyph glyph-name="Dcaron" unicode="&#x10e;" horiz-adv-x="722" 
d="M394 700q121 0 195.5 -42t101.5 -120t5 -189q-22 -110 -80 -188t-149 -119.5t-213 -41.5h-212l140 700h212zM261 34q167 0 267 84t129 231q29 148 -37 232.5t-232 84.5h-174l-127 -632h174zM581 894l-6 -34l-144 -80l-111 80l7 34l111 -82z" />
    <glyph glyph-name="dcaron" unicode="&#x10f;" horiz-adv-x="726" 
d="M724 683q-2 -21 -4 -38.5t-5 -31.5q-9 -46 -32.5 -63.5t-57.5 -17.5l6 26q24 0 35 11t15 31l6 24h-37l11 59h63zM509 367l-4 -3l71 356h37l-143 -720h-35l24 130q-32 -58 -91.5 -97.5t-137.5 -39.5q-69 0 -115 31.5t-63.5 89.5t-1.5 136q15 78 55.5 135.5t99 89.5
t127.5 32q83 0 126 -40.5t51 -99.5zM88 250q-20 -103 21.5 -163t132.5 -60q58 0 108 28t84.5 78t47.5 117q14 67 -0.5 117t-53.5 78t-98 28q-60 0 -109.5 -27.5t-84 -77t-48.5 -118.5z" />
    <glyph glyph-name="Dcroat" unicode="&#x110;" horiz-adv-x="811" 
d="M116 367h107l66 333h194q120 0 194.5 -42t101.5 -120t5 -189q-22 -110 -80.5 -188t-149.5 -119.5t-211 -41.5h-194l67 332h-107zM195 31h155q166 0 266 85.5t129 232.5q30 148 -36.5 233.5t-231.5 85.5h-156l-60 -301h223l-7 -35h-223z" />
    <glyph glyph-name="dcroat" unicode="&#x111;" horiz-adv-x="671" 
d="M433 615h266l-5 -28h-265zM509 367l-4 -3l71 356h37l-143 -720h-35l24 130q-32 -58 -91.5 -97.5t-137.5 -39.5q-69 0 -115 31.5t-63.5 89.5t-1.5 136q15 78 55.5 135.5t99 89.5t127.5 32q83 0 126 -40.5t51 -99.5zM88 250q-20 -103 21.5 -163t132.5 -60q58 0 108 28
t84.5 78t47.5 117q14 67 -0.5 117t-53.5 78t-98 28q-60 0 -109.5 -27.5t-84 -77t-48.5 -118.5z" />
    <glyph glyph-name="Emacron" unicode="&#x112;" horiz-adv-x="605" 
d="M616 666h-402l-58 -290h302l-7 -34h-302l-62 -308h403l-7 -34h-441l140 700h441zM271 843h320l-7 -32h-319z" />
    <glyph glyph-name="emacron" unicode="&#x113;" horiz-adv-x="557" 
d="M231 -7q-69 0 -114.5 33.5t-63 92.5t-2.5 136q14 74 55 131t100 89t126 32q66 0 111 -29t64.5 -78.5t5.5 -113.5q-1 -8 -3 -19.5t-6 -23.5h-417q-11 -64 4 -112.5t53 -76t93 -27.5q67 0 121.5 29.5t87.5 83.5l28 -13q-39 -64 -102.5 -99t-140.5 -35zM473 275
q13 58 -1.5 102.5t-52 70t-94.5 25.5q-53 0 -100.5 -25.5t-82 -70.5t-48.5 -102h379zM214 632h294l-6 -29h-294z" />
    <glyph glyph-name="Ebreve" unicode="&#x114;" horiz-adv-x="605" 
d="M616 666h-402l-58 -290h302l-7 -34h-302l-62 -308h403l-7 -34h-441l140 700h441zM564 890q-5 -27 -23 -52t-48.5 -41t-74.5 -16q-43 0 -67.5 16t-32 41t-2.5 52l2 8h28q-7 -41 12 -64t66 -23t76 23t37 64h29z" />
    <glyph glyph-name="ebreve" unicode="&#x115;" horiz-adv-x="557" 
d="M231 -7q-69 0 -114.5 33.5t-63 92.5t-2.5 136q14 74 55 131t100 89t126 32q66 0 111 -29t64.5 -78.5t5.5 -113.5q-1 -8 -3 -19.5t-6 -23.5h-417q-11 -64 4 -112.5t53 -76t93 -27.5q67 0 121.5 29.5t87.5 83.5l28 -13q-39 -64 -102.5 -99t-140.5 -35zM473 275
q13 58 -1.5 102.5t-52 70t-94.5 25.5q-53 0 -100.5 -25.5t-82 -70.5t-48.5 -102h379zM484 675q-5 -24 -21.5 -47.5t-44.5 -38t-69 -14.5q-39 0 -61.5 14.5t-29.5 38t-2 48.5l2 7h25q-7 -38 11 -59t61 -21t70 21t34 59h26z" />
    <glyph glyph-name="Edotaccent" unicode="&#x116;" horiz-adv-x="605" 
d="M616 666h-402l-58 -290h302l-7 -34h-302l-62 -308h403l-7 -34h-441l140 700h441zM418 777q-15 0 -23.5 10t-5.5 24q3 16 15.5 26.5t27.5 10.5t23 -10.5t5 -26.5q-3 -14 -15.5 -24t-26.5 -10z" />
    <glyph glyph-name="edotaccent" unicode="&#x117;" horiz-adv-x="557" 
d="M231 -7q-69 0 -114.5 33.5t-63 92.5t-2.5 136q14 74 55 131t100 89t126 32q66 0 111 -29t64.5 -78.5t5.5 -113.5q-1 -8 -3 -19.5t-6 -23.5h-417q-11 -64 4 -112.5t53 -76t93 -27.5q67 0 121.5 29.5t87.5 83.5l28 -13q-39 -64 -102.5 -99t-140.5 -35zM473 275
q13 58 -1.5 102.5t-52 70t-94.5 25.5q-53 0 -100.5 -25.5t-82 -70.5t-48.5 -102h379zM348 571q-13 0 -20.5 9.5t-4.5 22.5q2 14 13.5 23.5t24.5 9.5q14 0 22 -9.5t5 -23.5q-3 -13 -14.5 -22.5t-25.5 -9.5z" />
    <glyph glyph-name="Eogonek" unicode="&#x118;" horiz-adv-x="605" 
d="M616 666h-402l-58 -290h302l-7 -34h-302l-61 -308h402l-7 -34h-441l140 700h441zM427 23l6 -23l-73 -32q-41 -17 -60 -37t-23 -40q-6 -28 10.5 -41t45.5 -13q15 0 32 3.5t34 9.5l-6 -30q-17 -7 -34.5 -10t-34.5 -3q-26 0 -46.5 8.5t-30.5 25.5t-5 46q5 20 17.5 39t37 36
t61.5 33z" />
    <glyph glyph-name="eogonek" unicode="&#x119;" horiz-adv-x="557" 
d="M231 -7q-69 0 -114.5 33.5t-63 92.5t-2.5 136q14 74 55 131t100 89t126 32q66 0 111 -29t64.5 -78.5t5.5 -113.5q-1 -8 -3 -19.5t-6 -23.5h-417q-11 -64 4 -112.5t53 -76t93 -27.5q67 0 121.5 29.5t87.5 83.5l28 -13q-39 -64 -102.5 -99t-140.5 -35zM473 275
q13 58 -1.5 102.5t-52 70t-94.5 25.5q-53 0 -100.5 -25.5t-82 -70.5t-48.5 -102h379zM278 20l7 -22l-68 -29q-38 -16 -55.5 -34.5t-20.5 -36.5q-6 -27 9 -38.5t42 -11.5q26 0 61 12l-6 -28q-16 -6 -32 -9t-31 -3q-24 0 -43 8t-28 24t-4 42q5 28 30 53t76 46z" />
    <glyph glyph-name="Ecaron" unicode="&#x11a;" horiz-adv-x="605" 
d="M616 666h-402l-58 -290h302l-7 -34h-302l-62 -308h403l-7 -34h-441l140 700h441zM568 894l-6 -34l-144 -80l-111 80l6 34l111 -82z" />
    <glyph glyph-name="ecaron" unicode="&#x11b;" horiz-adv-x="557" 
d="M231 -7q-69 0 -114.5 33.5t-63 92.5t-2.5 136q14 74 55 131t100 89t126 32q66 0 111 -29t64.5 -78.5t5.5 -113.5q-1 -8 -3 -19.5t-6 -23.5h-417q-11 -64 4 -112.5t53 -76t93 -27.5q67 0 121.5 29.5t87.5 83.5l28 -13q-39 -64 -102.5 -99t-140.5 -35zM473 275
q13 58 -1.5 102.5t-52 70t-94.5 25.5q-53 0 -100.5 -25.5t-82 -70.5t-48.5 -102h379zM487 679l-6 -31l-132 -74l-102 74l6 31l102 -75z" />
    <glyph glyph-name="Gcircumflex" unicode="&#x11c;" horiz-adv-x="766" 
d="M709 499q-19 78 -80 126t-159 48q-84 0 -160 -39t-131 -111.5t-75 -172.5q-19 -100 6.5 -172.5t86.5 -111t145 -38.5q67 0 129.5 25t113.5 72t84 113l18 93h-283l6 32h322l-25 -127q-35 -73 -92 -127.5t-128.5 -85t-151.5 -30.5q-73 0 -130 26t-93.5 73.5t-48.5 113
t3 144.5q16 79 54 144.5t93.5 113t123 73.5t140.5 26t128 -24t89.5 -68t48.5 -104zM630 782l-111 82l-143 -82l6 34l143 81l112 -81z" />
    <glyph glyph-name="gcircumflex" unicode="&#x11d;" horiz-adv-x="602" 
d="M534 500h35l-77 -390q-20 -99 -74.5 -168t-139.5 -105.5t-196 -36.5l1 34q155 1 250 71.5t122 204.5l5 25l3 -1q-32 -58 -90.5 -98.5t-142.5 -42.5q-70 0 -115.5 31.5t-63 89.5t-1.5 136q15 78 55.5 135.5t98.5 89.5t128 32q56 0 92.5 -19t56.5 -49.5t26 -67.5zM88 250
q-20 -103 21.5 -163t133.5 -60q58 0 107.5 28t84 78.5t47.5 116.5q14 67 -0.5 117t-53 78t-97.5 28q-61 0 -110.5 -27.5t-84 -77t-48.5 -118.5zM482 582l-111 82l-144 -82l6 34l144 81l111 -81z" />
    <glyph glyph-name="Gbreve" unicode="&#x11e;" horiz-adv-x="766" 
d="M709 499q-19 78 -80 126t-159 48q-84 0 -160 -39t-131 -111.5t-75 -172.5q-19 -100 6.5 -172.5t86.5 -111t145 -38.5q67 0 129.5 25t113.5 72t84 113l18 93h-283l6 32h322l-25 -127q-35 -73 -92 -127.5t-128.5 -85t-151.5 -30.5q-73 0 -130 26t-93.5 73.5t-48.5 113
t3 144.5q16 79 54 144.5t93.5 113t123 73.5t140.5 26t128 -24t89.5 -68t48.5 -104zM649 890q-5 -27 -23 -52t-49 -41t-75 -16q-43 0 -67 16t-32 41t-2 52l2 8h28q-9 -41 10.5 -64t67.5 -23q46 0 75 23t38 64h29z" />
    <glyph glyph-name="gbreve" unicode="&#x11f;" horiz-adv-x="602" 
d="M534 500h35l-77 -390q-20 -99 -74.5 -168t-139.5 -105.5t-196 -36.5l1 34q155 1 250 71.5t122 204.5l5 25l3 -1q-32 -58 -90.5 -98.5t-142.5 -42.5q-70 0 -115.5 31.5t-63 89.5t-1.5 136q15 78 55.5 135.5t98.5 89.5t128 32q56 0 92.5 -19t56.5 -49.5t26 -67.5zM88 250
q-20 -103 21.5 -163t133.5 -60q58 0 107.5 28t84 78.5t47.5 116.5q14 67 -0.5 117t-53 78t-97.5 28q-61 0 -110.5 -27.5t-84 -77t-48.5 -118.5zM487 675q-4 -24 -21 -47.5t-45 -38t-68 -14.5t-62.5 14.5t-29.5 38t-2 48.5l2 7h26q-8 -38 10 -59t61 -21t70 21t34 59h27z" />
    <glyph glyph-name="Gdotaccent" unicode="&#x120;" horiz-adv-x="766" 
d="M709 499q-19 78 -80 126t-159 48q-84 0 -160 -39t-131 -111.5t-75 -172.5q-19 -100 6.5 -172.5t86.5 -111t145 -38.5q67 0 129.5 25t113.5 72t84 113l18 93h-283l6 32h322l-25 -127q-35 -73 -92 -127.5t-128.5 -85t-151.5 -30.5q-73 0 -130 26t-93.5 73.5t-48.5 113
t3 144.5q16 79 54 144.5t93.5 113t123 73.5t140.5 26t128 -24t89.5 -68t48.5 -104zM501 777q-14 0 -22 10t-6 24q3 16 15.5 26.5t27.5 10.5t23.5 -10.5t4.5 -26.5q-2 -14 -14.5 -24t-28.5 -10z" />
    <glyph glyph-name="gdotaccent" unicode="&#x121;" horiz-adv-x="602" 
d="M534 500h35l-77 -390q-20 -99 -74.5 -168t-139.5 -105.5t-196 -36.5l1 34q155 1 250 71.5t122 204.5l5 25l3 -1q-32 -58 -90.5 -98.5t-142.5 -42.5q-70 0 -115.5 31.5t-63 89.5t-1.5 136q15 78 55.5 135.5t98.5 89.5t128 32q56 0 92.5 -19t56.5 -49.5t26 -67.5zM88 250
q-20 -103 21.5 -163t133.5 -60q58 0 107.5 28t84 78.5t47.5 116.5q14 67 -0.5 117t-53 78t-97.5 28q-61 0 -110.5 -27.5t-84 -77t-48.5 -118.5zM352 571q-14 0 -21.5 9.5t-4.5 22.5q2 14 13.5 23.5t25.5 9.5q13 0 21 -9.5t5 -23.5q-2 -13 -13.5 -22.5t-25.5 -9.5z" />
    <glyph glyph-name="uni0122" unicode="&#x122;" horiz-adv-x="765" 
d="M368 -56q0 -11 -1 -22.5t-4 -22.5q-10 -54 -34.5 -73.5t-57.5 -19.5l5 25q24 0 37 14t18 39l2 11h-35l10 49h60zM709 499q-19 78 -80 126t-159 48q-84 0 -160 -39t-131 -111.5t-75 -172.5q-19 -100 6.5 -172.5t86.5 -111t145 -38.5q67 0 129.5 25t113.5 72t84 113l18 93
h-283l6 32h322l-25 -127q-35 -73 -92 -127.5t-128.5 -85t-151.5 -30.5q-73 0 -130 26t-93.5 73.5t-48.5 113t3 144.5q16 79 54 144.5t93.5 113t123 73.5t140.5 26t128 -24t89.5 -68t48.5 -104z" />
    <glyph glyph-name="uni0123" unicode="&#x123;" horiz-adv-x="602" 
d="M341 546q1 21 3.5 38.5t5.5 31.5q9 46 32 63.5t57 17.5l-5 -27q-25 0 -36 -10.5t-15 -30.5l-4 -24h37l-13 -59h-62zM534 500h35l-77 -390q-20 -99 -74.5 -168t-139.5 -105.5t-196 -36.5l1 34q155 1 250 71.5t122 204.5l5 25l3 -1q-32 -58 -90.5 -98.5t-142.5 -42.5
q-70 0 -115.5 31.5t-63 89.5t-1.5 136q15 78 55.5 135.5t98.5 89.5t128 32q56 0 92.5 -19t56.5 -49.5t26 -67.5zM88 250q-20 -103 21.5 -163t133.5 -60q58 0 107.5 28t84 78.5t47.5 116.5q14 67 -0.5 117t-53 78t-97.5 28q-61 0 -110.5 -27.5t-84 -77t-48.5 -118.5z" />
    <glyph glyph-name="Hcircumflex" unicode="&#x124;" horiz-adv-x="688" 
d="M182 700h38l-64 -324h426l65 324h39l-140 -700h-39l69 342h-427l-69 -342h-38zM577 782l-111 82l-143 -82l6 34l143 81l112 -81z" />
    <glyph glyph-name="hcircumflex" unicode="&#x125;" horiz-adv-x="673" 
d="M287 720h36l-66 -333q32 59 85 89.5t116 30.5q56 0 94 -23.5t53 -73.5t-1 -128l-56 -282h-38l56 281q18 93 -13 142.5t-107 49.5q-79 0 -136.5 -55.5t-79.5 -162.5l-50 -255h-37zM447 801l-111 82l-144 -82l7 34l144 81l111 -81z" />
    <glyph glyph-name="Itilde" unicode="&#x128;" horiz-adv-x="435" 
d="M288 700h39l-140 -700h-39zM194 764q12 35 34 54.5t51 19.5q19 0 31 -7.5t21 -16.5t20 -16.5t28 -7.5q16 0 30.5 11t22.5 34h27q-9 -33 -33.5 -53.5t-53.5 -20.5q-20 0 -32 7.5t-21.5 17t-20 16.5t-25.5 7q-18 0 -31 -11t-21 -34h-27z" />
    <glyph glyph-name="itilde" unicode="&#x129;" horiz-adv-x="362" 
d="M212 500h38l-99 -500h-39zM128 559q10 33 30.5 51t47.5 18q23 0 35 -11.5t23.5 -22.5t33.5 -11q14 0 27.5 10t20.5 31h25q-9 -30 -31 -49t-49 -19q-24 0 -37 11t-24 23t-31 12q-16 0 -28 -10.5t-19 -32.5h-24z" />
    <glyph glyph-name="Imacron" unicode="&#x12a;" horiz-adv-x="504" 
d="M323 700h38l-140 -700h-38zM210 843h320l-6 -32h-320z" />
    <glyph glyph-name="imacron" unicode="&#x12b;" horiz-adv-x="460" 
d="M261 500h38l-100 -500h-38zM159 632h294l-6 -29h-294z" />
    <glyph glyph-name="Ibreve" unicode="&#x12c;" horiz-adv-x="433" 
d="M287 700h38l-140 -700h-38zM468 890q-6 -27 -24 -52t-48 -41t-74 -16t-68 16t-32 41t-3 52l2 8h29q-8 -41 11.5 -64t65.5 -23q47 0 76.5 23t36.5 64h29z" />
    <glyph glyph-name="ibreve" unicode="&#x12d;" horiz-adv-x="394" 
d="M227 500h38l-99 -500h-38zM396 676q-6 -25 -22 -48.5t-44.5 -38t-68.5 -14.5t-62 14.5t-29 38t-3 48.5l2 7h26q-7 -38 11 -59t61 -21t69.5 21t33.5 59h27z" />
    <glyph glyph-name="Iogonek" unicode="&#x12e;" horiz-adv-x="355" 
d="M313 700h38l-140 -700h-38zM204 24l7 -24l-73 -31q-42 -18 -61 -38t-22 -40q-6 -28 10 -41t45 -13q15 0 32 3.5t34 9.5l-6 -30q-17 -6 -34.5 -9.5t-33.5 -3.5q-27 0 -47.5 8.5t-30.5 26t-4 45.5q4 20 17 39t37 36t61 33z" />
    <glyph glyph-name="iogonek" unicode="&#x12f;" horiz-adv-x="301" 
d="M236 500h36l-99 -500h-36zM279 625q-13 0 -20 8.5t-5 22.5q3 14 14 22.5t23 8.5q13 0 20 -8.5t4 -22.5q-2 -14 -12.5 -22.5t-23.5 -8.5zM166 23l6 -21l-68 -29q-38 -16 -55.5 -35t-21.5 -37q-4 -26 11 -38t41 -12q27 0 61 12l-6 -28q-16 -5 -32 -8t-31 -3q-24 0 -43 7.5
t-28 23.5t-3 42q5 29 29.5 54t76.5 46z" />
    <glyph glyph-name="Idotaccent" unicode="&#x130;" horiz-adv-x="256" 
d="M199 700h38l-140 -700h-38zM233 777q-15 0 -23.5 10t-5.5 24q3 16 15.5 26.5t26.5 10.5q16 0 24 -10.5t5 -26.5q-3 -14 -15.5 -24t-26.5 -10z" />
    <glyph glyph-name="dotlessi" unicode="&#x131;" horiz-adv-x="204" 
d="M132 500h39l-99 -500h-39z" />
    <glyph glyph-name="Jcircumflex" unicode="&#x134;" horiz-adv-x="591" 
d="M446 700h38l-107 -537q-9 -45 -36.5 -84t-69.5 -62.5t-94 -23.5q-70 0 -104.5 37.5t-34.5 103.5l36 12q0 -32 9.5 -59.5t33.5 -43.5t67 -16q48 0 80.5 22t50.5 53.5t24 60.5zM609 782l-111 82l-144 -82l8 34l143 81l111 -81z" />
    <glyph glyph-name="jcircumflex" unicode="&#x135;" horiz-adv-x="325" 
d="M43 -11q-14 -70 -55.5 -110t-104.5 -45l-1 -34q33 2 64.5 14.5t58.5 35.5t47 57.5t29 80.5l102 512h-39zM317 604l-112 82l-143 -82l6 34l144 81l111 -81z" />
    <glyph glyph-name="uni0136" unicode="&#x136;" horiz-adv-x="559" 
d="M226 -56q-1 -11 -2 -22.5t-3 -22.5q-11 -54 -35.5 -73.5t-57.5 -19.5l5 25q25 0 37 14t18 39l2 11h-35l10 49h61zM182 700h38l-64 -324h34l394 324h51l-415 -341l276 -359h-52l-262 342h-33l-69 -342h-38z" />
    <glyph glyph-name="uni0137" unicode="&#x137;" horiz-adv-x="472" 
d="M171 -49q-1 -10 -2 -21.5t-2 -19.5q-11 -52 -34.5 -70t-55.5 -18l5 25q17 0 27.5 7.5t16.5 19.5q2 4 3 7.5t3 7.5l2 14h-32l10 48h59zM176 720h38l-90 -451h57l269 231h51l-293 -248l197 -252h-51l-180 236h-57l-46 -236h-38z" />
    <glyph glyph-name="Lacute" unicode="&#x139;" horiz-adv-x="504" 
d="M220 700l-133 -666h343l-7 -34h-381l140 700h38zM431 917l-8 -37l-218 -126l7 32z" />
    <glyph glyph-name="lacute" unicode="&#x13a;" horiz-adv-x="343" 
d="M256 714h37l-142 -714h-37zM392 913l-7 -34l-200 -115l6 28z" />
    <glyph glyph-name="uni013B" unicode="&#x13b;" horiz-adv-x="504" 
d="M205 -56q-1 -11 -2 -22.5t-3 -22.5q-11 -54 -35.5 -73.5t-57.5 -19.5l5 25q24 0 36.5 14t17.5 39l3 11h-35l10 49h61zM220 700l-133 -666h343l-7 -34h-381l140 700h38z" />
    <glyph glyph-name="uni013C" unicode="&#x13c;" horiz-adv-x="238" 
d="M91 -49q0 -10 -1.5 -21.5t-2.5 -19.5q-11 -52 -34.5 -70t-54.5 -18l5 25q22 0 34 13t16 35l2 8h-32l9 48h59zM203 714h37l-142 -714h-37z" />
    <glyph glyph-name="Lcaron" unicode="&#x13d;" horiz-adv-x="504" 
d="M399 700q-1 -23 -3.5 -41t-4.5 -33q-11 -50 -35 -68.5t-58 -18.5l4 26q26 0 38.5 12t17.5 35l5 27h-41l12 61h65zM220 700l-133 -666h343l-7 -34h-381l140 700h38z" />
    <glyph glyph-name="lcaron" unicode="&#x13e;" horiz-adv-x="319" 
d="M322 714q-1 -22 -3.5 -39t-4.5 -32q-9 -46 -32 -63.5t-57 -17.5l5 27q24 0 35 10.5t15 31.5l5 24h-37l11 59h63zM175 714h37l-142 -714h-37z" />
    <glyph glyph-name="Ldot" unicode="&#x13f;" horiz-adv-x="424" 
d="M42 0l140 700h38l-133 -667h263l-7 -33h-301zM354 340q-14 0 -22.5 11t-5.5 25q2 15 15 25t27 10q15 0 23.5 -10t5.5 -25q-2 -14 -15 -25t-28 -11z" />
    <glyph glyph-name="ldot" unicode="&#x140;" horiz-adv-x="213" 
d="M33 0l138 693h38l-137 -693h-39zM232 308q-14 0 -22.5 10t-6.5 24q3 14 15.5 24.5t26.5 10.5t22.5 -10.5t5.5 -24.5t-15 -24t-26 -10z" />
    <glyph glyph-name="Lslash" unicode="&#x141;" horiz-adv-x="515" 
d="M110 337l98 41l65 322h38l-61 -307l161 66l-6 -33l-162 -66l-65 -329h263l-7 -31h-301l69 344l-99 -40z" />
    <glyph glyph-name="lslash" unicode="&#x142;" horiz-adv-x="205" 
d="M37 394l208 98l-7 -33l-207 -98zM171 693h39l-138 -693h-38z" />
    <glyph glyph-name="Nacute" unicode="&#x143;" horiz-adv-x="688" 
d="M686 700l-140 -700h-38l-301 636l-127 -636h-38l140 700h38l300 -636l127 636h39zM562 917l-7 -37l-218 -126l7 32z" />
    <glyph glyph-name="nacute" unicode="&#x144;" horiz-adv-x="562" 
d="M132 500h36l-22 -113q30 55 80 87.5t121 32.5q55 0 93.5 -24t54 -73.5t0.5 -125.5l-56 -284h-37l55 282q19 93 -13.5 142.5t-107.5 49.5q-79 0 -136 -54t-78 -161l-52 -259h-37zM442 700l-8 -34l-200 -116l6 29z" />
    <glyph glyph-name="uni0145" unicode="&#x145;" horiz-adv-x="688" 
d="M299 -56q-1 -11 -1.5 -22.5t-3.5 -22.5q-10 -54 -35 -73.5t-57 -19.5l5 25q24 0 36.5 14t17.5 39l3 11h-36l10 49h61zM686 700l-140 -700h-38l-301 636l-127 -636h-38l140 700h38l300 -636l127 636h39z" />
    <glyph glyph-name="uni0146" unicode="&#x146;" horiz-adv-x="562" 
d="M261 -49q-1 -10 -2 -21.5t-2 -19.5q-10 -52 -34 -70t-56 -18l5 25q23 0 34.5 13t15.5 35l2 10h4v-2h-36l10 48h59zM132 500h36l-22 -113q30 55 80 87.5t121 32.5q55 0 93.5 -24t54 -73.5t0.5 -125.5l-56 -284h-37l55 282q19 93 -13.5 142.5t-107.5 49.5q-79 0 -136 -54
t-78 -161l-52 -259h-37z" />
    <glyph glyph-name="Ncaron" unicode="&#x147;" horiz-adv-x="688" 
d="M686 700l-140 -700h-38l-301 636l-127 -636h-38l140 700h38l300 -636l127 636h39zM601 894l-6 -34l-144 -80l-111 80l7 34l111 -82z" />
    <glyph glyph-name="ncaron" unicode="&#x148;" horiz-adv-x="562" 
d="M132 500h36l-22 -113q30 55 80 87.5t121 32.5q55 0 93.5 -24t54 -73.5t0.5 -125.5l-56 -284h-37l55 282q19 93 -13.5 142.5t-107.5 49.5q-79 0 -136 -54t-78 -161l-52 -259h-37zM477 679l-6 -31l-132 -74l-102 74l6 31l102 -75z" />
    <glyph glyph-name="Eng" unicode="&#x14a;" horiz-adv-x="688" 
d="M686 700l-140 -700h-38l-301 636l-127 -636h-38l140 700h38l300 -636l127 636h39zM517 44h38l-12 -60q-13 -59 -43 -99.5t-71 -61t-85 -23.5l1 34q62 5 104.5 44.5t55.5 105.5z" />
    <glyph glyph-name="eng" unicode="&#x14b;" horiz-adv-x="565" 
d="M132 500h37l-21 -113q29 55 79.5 87.5t120.5 32.5q55 0 94.5 -24t55 -73.5t0.5 -125.5l-57 -284h-38l56 282q19 93 -14 142.5t-108 49.5q-79 0 -135.5 -54t-78.5 -161l-51 -259h-39zM400 -15l16 81h38l-16 -82q-12 -61 -42.5 -101t-71.5 -60t-85 -23l2 34q42 3 74 21
t53.5 51t31.5 79z" />
    <glyph glyph-name="Omacron" unicode="&#x14c;" 
d="M335 -7q-73 0 -130 26t-93.5 73.5t-48.5 113t3 144.5q16 79 54 144.5t93.5 113t123 73.5t140.5 26q74 0 130.5 -26t93 -73.5t48.5 -113t-4 -144.5q-15 -79 -53.5 -144.5t-93.5 -113t-122 -73.5t-141 -26zM342 27q84 0 159.5 39t130 111.5t74.5 172.5q20 101 -6 173
t-86 111t-144 39t-160 -39t-130.5 -111t-74.5 -173q-19 -100 6.5 -172.5t86 -111.5t144.5 -39zM352 843h320l-6 -32h-320z" />
    <glyph glyph-name="omacron" unicode="&#x14d;" horiz-adv-x="584" 
d="M241 -7q-70 0 -118.5 31t-68.5 88.5t-4 137.5q16 79 59 137t104 89t130 31q70 0 118 -31t68 -89t4 -137q-16 -80 -58.5 -137.5t-103.5 -88.5t-130 -31zM247 27q53 0 104 24t90 73.5t54 125.5q15 77 -4 126t-60.5 73t-94.5 24t-104 -24t-89.5 -73.5t-53.5 -125.5
q-15 -77 4 -126t60 -73t94 -24zM227 632h294l-6 -29h-294z" />
    <glyph glyph-name="Obreve" unicode="&#x14e;" 
d="M335 -7q-73 0 -130 26t-93.5 73.5t-48.5 113t3 144.5q16 79 54 144.5t93.5 113t123 73.5t140.5 26q74 0 130.5 -26t93 -73.5t48.5 -113t-4 -144.5q-15 -79 -53.5 -144.5t-93.5 -113t-122 -73.5t-141 -26zM342 27q84 0 159.5 39t130 111.5t74.5 172.5q20 101 -6 173
t-86 111t-144 39t-160 -39t-130.5 -111t-74.5 -173q-19 -100 6.5 -172.5t86 -111.5t144.5 -39zM647 890q-6 -27 -23.5 -52t-48.5 -41t-75 -16q-43 0 -67 16t-32 41t-2 52l1 8h29q-9 -41 10.5 -64t66.5 -23t76 23t38 64h28z" />
    <glyph glyph-name="obreve" unicode="&#x14f;" horiz-adv-x="584" 
d="M241 -7q-70 0 -118.5 31t-68.5 88.5t-4 137.5q16 79 59 137t104 89t130 31q70 0 118 -31t68 -89t4 -137q-16 -80 -58.5 -137.5t-103.5 -88.5t-130 -31zM247 27q53 0 104 24t90 73.5t54 125.5q15 77 -4 126t-60.5 73t-94.5 24t-104 -24t-89.5 -73.5t-53.5 -125.5
q-15 -77 4 -126t60 -73t94 -24zM497 675q-5 -24 -21.5 -47.5t-44.5 -38t-69 -14.5q-39 0 -61.5 14.5t-29.5 38t-2 48.5l2 7h25q-7 -38 11 -59t61 -21t70 21t34 59h26z" />
    <glyph glyph-name="Ohungarumlaut" unicode="&#x150;" 
d="M335 -7q-73 0 -130 26t-93.5 73.5t-48.5 113t3 144.5q16 79 54 144.5t93.5 113t123 73.5t140.5 26q74 0 130.5 -26t93 -73.5t48.5 -113t-4 -144.5q-15 -79 -53.5 -144.5t-93.5 -113t-122 -73.5t-141 -26zM342 27q84 0 159.5 39t130 111.5t74.5 172.5q20 101 -6 173
t-86 111t-144 39t-160 -39t-130.5 -111t-74.5 -173q-19 -100 6.5 -172.5t86 -111.5t144.5 -39zM537 885l-92 -116h-30l85 116h37zM663 885l-96 -116h-31l89 116h38z" />
    <glyph glyph-name="ohungarumlaut" unicode="&#x151;" horiz-adv-x="584" 
d="M241 -7q-70 0 -118.5 31t-68.5 88.5t-4 137.5q16 79 59 137t104 89t130 31q70 0 118 -31t68 -89t4 -137q-16 -80 -58.5 -137.5t-103.5 -88.5t-130 -31zM247 27q53 0 104 24t90 73.5t54 125.5q15 77 -4 126t-60.5 73t-94.5 24t-104 -24t-89.5 -73.5t-53.5 -125.5
q-15 -77 4 -126t60 -73t94 -24zM396 671l-84 -107h-27l77 107h34zM511 671l-87 -107h-28l81 107h34z" />
    <glyph glyph-name="OE" unicode="&#x152;" horiz-adv-x="1202" 
d="M335 -7q-73 0 -130 26t-93.5 73.5t-48.5 113t3 144.5q16 79 54 144.5t93.5 113t123 73.5t140.5 26q74 0 130.5 -26t93 -73.5t48.5 -113t-4 -144.5q-15 -79 -53.5 -144.5t-93.5 -113t-122 -73.5t-141 -26zM342 27q84 0 159.5 39t130 111.5t74.5 172.5q20 101 -6 173
t-86 111t-144 39t-160 -39t-130.5 -111t-74.5 -173q-19 -100 6.5 -172.5t86 -111.5t144.5 -39zM1212 666h-403l-57 -290h302l-7 -34h-302l-61 -308h402l-6 -34h-441l139 700h441z" />
    <glyph glyph-name="oe" unicode="&#x153;" horiz-adv-x="1003" 
d="M241 -7q-70 0 -118.5 31t-68.5 88.5t-4 137.5q16 79 59 137t104 89t130 31q70 0 118 -31t68 -89t4 -137q-16 -80 -58.5 -137.5t-103.5 -88.5t-130 -31zM247 27q53 0 104 24t90 73.5t54 125.5q15 77 -4 126t-60.5 73t-94.5 24t-104 -24t-89.5 -73.5t-53.5 -125.5
q-15 -77 4 -126t60 -73t94 -24zM677 -7q-68 0 -114 33.5t-64 92.5t-2 136q15 74 56 131t99.5 89t126.5 32q65 0 110.5 -29t64.5 -78.5t6 -113.5q-2 -8 -4 -19.5t-5 -23.5h-418q-11 -64 4.5 -112.5t52.5 -76t94 -27.5q66 0 120.5 29.5t86.5 83.5l29 -13q-39 -64 -103 -99
t-140 -35zM919 275q13 58 -1 102.5t-52 70t-95 25.5q-53 0 -100.5 -25.5t-82 -70.5t-48.5 -102h379z" />
    <glyph glyph-name="Racute" unicode="&#x154;" horiz-adv-x="598" 
d="M552 500q11 51 -1 88t-50 57.5t-108 20.5h-179l-67 -332h182q100 0 154.5 47t68.5 119zM400 700q83 0 129 -26t60 -71t2 -103q-12 -60 -46.5 -105.5t-90.5 -70t-132 -24.5h-182l-60 -300h-38l140 700h218zM369 314l133 -314h-43l-132 314h42zM509 917l-7 -37l-218 -126
l7 32z" />
    <glyph glyph-name="racute" unicode="&#x155;" horiz-adv-x="349" 
d="M132 500h36l-20 -107q21 35 56 62.5t78 40.5t89 4l-7 -36q-41 9 -80 -1.5t-71.5 -36.5t-55.5 -65.5t-33 -86.5l-55 -274h-37zM364 700l-7 -34l-200 -116l6 29z" />
    <glyph glyph-name="uni0156" unicode="&#x156;" horiz-adv-x="599" 
d="M290 -56q0 -11 -1 -22.5t-4 -22.5q-10 -54 -35 -73.5t-57 -19.5l5 25q24 0 36.5 14t17.5 39l2 11h-35l10 49h61zM552 500q11 51 -1 88t-50 57.5t-108 20.5h-179l-67 -332h182q100 0 154.5 47t68.5 119zM400 700q83 0 129 -26t60 -71t2 -103q-12 -60 -46.5 -105.5
t-90.5 -70t-132 -24.5h-182l-60 -300h-38l140 700h218zM369 314l133 -314h-43l-132 314h42z" />
    <glyph glyph-name="uni0157" unicode="&#x157;" horiz-adv-x="360" 
d="M92 -49q-1 -10 -2 -21.5t-2 -19.5q-11 -52 -34.5 -70t-54.5 -18l4 25q23 0 34.5 13t15.5 35l2 8h-32l10 48h59zM143 500h35l-19 -107q21 35 56 62.5t77.5 40.5t89.5 4l-7 -36q-41 9 -79.5 -1.5t-71.5 -36.5t-56 -65.5t-33 -86.5l-54 -274h-37z" />
    <glyph glyph-name="Rcaron" unicode="&#x158;" horiz-adv-x="598" 
d="M552 500q11 51 -1 88t-50 57.5t-108 20.5h-179l-67 -332h182q100 0 154.5 47t68.5 119zM400 700q83 0 129 -26t60 -71t2 -103q-12 -60 -46.5 -105.5t-90.5 -70t-132 -24.5h-182l-60 -300h-38l140 700h218zM369 314l133 -314h-43l-132 314h42zM548 894l-6 -34l-144 -80
l-111 80l6 34l111 -82z" />
    <glyph glyph-name="rcaron" unicode="&#x159;" horiz-adv-x="354" 
d="M138 500h35l-20 -107q21 35 55.5 62.5t77.5 40.5t90 4l-8 -36q-40 9 -79 -1.5t-71.5 -36.5t-56 -65.5t-32.5 -86.5l-55 -274h-36zM404 679l-6 -31l-132 -74l-101 74l6 31l101 -75z" />
    <glyph glyph-name="Sacute" unicode="&#x15a;" horiz-adv-x="552" 
d="M71 156q1 -29 15.5 -58.5t50 -49.5t100.5 -20q89 0 141.5 41t65.5 103q9 50 -9.5 81t-56 50.5t-85.5 34.5q-39 11 -74.5 24.5t-61 33t-37 49.5t-2.5 75q11 56 45.5 98t87 65.5t117.5 23.5q59 0 97.5 -18.5t59 -48t24.5 -63.5l-36 -13q-3 24 -19.5 49.5t-49 43t-82.5 17.5
q-48 0 -91 -17.5t-73.5 -50.5t-40.5 -80q-9 -49 11 -77t58.5 -44.5t86.5 -31.5q40 -12 74.5 -27.5t59 -37t34.5 -54t1 -78.5q-9 -49 -39 -90.5t-82.5 -67t-129.5 -25.5q-68 0 -110.5 20t-63.5 54t-23 75zM490 917l-7 -37l-218 -126l7 32z" />
    <glyph glyph-name="sacute" unicode="&#x15b;" horiz-adv-x="465" 
d="M62 137q0 -36 13 -60.5t41 -37t73 -12.5q72 0 113.5 29t50.5 74q7 37 -10 57.5t-48 31.5t-65 19q-22 5 -50.5 12.5t-54 21.5t-38.5 37.5t-6 62.5q8 40 36 71t71 47.5t94 16.5q61 0 103 -27t47 -88l-35 -11q-4 39 -23 58.5t-46 26.5t-52 7q-62 0 -104.5 -26.5t-51.5 -72.5
q-6 -28 3.5 -45.5t29.5 -28t44.5 -16.5t50.5 -12q27 -6 55.5 -15.5t51 -25t33 -40t3.5 -62.5q-9 -42 -37.5 -73t-72.5 -47t-100 -16q-74 0 -114.5 32t-41.5 101zM398 700l-7 -34l-200 -116l6 29z" />
    <glyph glyph-name="Scircumflex" unicode="&#x15c;" horiz-adv-x="552" 
d="M71 156q1 -29 15.5 -58.5t50 -49.5t100.5 -20q89 0 141.5 41t65.5 103q9 50 -9.5 81t-56 50.5t-85.5 34.5q-39 11 -74.5 24.5t-61 33t-37 49.5t-2.5 75q11 56 45.5 98t87 65.5t117.5 23.5q59 0 97.5 -18.5t59 -48t24.5 -63.5l-36 -13q-3 24 -19.5 49.5t-49 43t-82.5 17.5
q-48 0 -91 -17.5t-73.5 -50.5t-40.5 -80q-9 -49 11 -77t58.5 -44.5t86.5 -31.5q39 -12 74 -27.5t59.5 -37t34.5 -54t1 -78.5q-9 -49 -39 -90.5t-82.5 -67t-129.5 -25.5q-68 0 -110.5 20t-63.5 54t-23 75zM507 782l-112 82l-143 -82l7 34l143 81l112 -81z" />
    <glyph glyph-name="scircumflex" unicode="&#x15d;" horiz-adv-x="465" 
d="M62 137q0 -36 13 -60.5t41 -37t73 -12.5q72 0 113.5 29t50.5 74q7 37 -10 57.5t-48 31.5t-65 19q-22 5 -50.5 12.5t-54 21.5t-38.5 37.5t-6 62.5q8 40 36 71t71 47.5t94 16.5q61 0 103 -27t47 -88l-35 -11q-4 39 -23 58.5t-46 26.5t-52 7q-62 0 -104.5 -26.5t-51.5 -72.5
q-6 -28 3.5 -45.5t29.5 -28t44.5 -16.5t50.5 -12q27 -6 55.5 -15.5t51 -25t33 -40t3.5 -62.5q-9 -42 -37.5 -73t-72.5 -47t-100 -16q-74 0 -114.5 32t-41.5 101zM425 582l-111 82l-144 -82l6 34l144 81l111 -81z" />
    <glyph glyph-name="Scedilla" unicode="&#x15e;" horiz-adv-x="552" 
d="M71 156q1 -29 15.5 -58.5t50 -49.5t100.5 -20q89 0 141.5 41t65.5 103q9 50 -9.5 81t-56 50.5t-85.5 34.5q-39 11 -74.5 24.5t-61 33t-37 49.5t-2.5 75q11 56 45.5 98t87 65.5t117.5 23.5q59 0 97.5 -18.5t59 -48t24.5 -63.5l-36 -13q-3 24 -19.5 49.5t-49 43t-82.5 17.5
q-48 0 -91 -17.5t-73.5 -50.5t-40.5 -80q-9 -49 11 -77t58.5 -44.5t86.5 -31.5q39 -12 74 -27.5t59.5 -37t34.5 -54t1 -78.5q-9 -49 -39 -90.5t-82.5 -67t-129.5 -25.5q-68 0 -110.5 20t-63.5 54t-23 75zM226 -81q41 1 67.5 -8t37.5 -28.5t5 -48.5q-5 -27 -22 -47t-44 -31.5
t-62 -11.5h-76l6 29h69q45 0 67 17t28 44q4 25 -11 41t-61 16h-41l24 115h31z" />
    <glyph glyph-name="scedilla" unicode="&#x15f;" horiz-adv-x="465" 
d="M62 137q0 -36 13 -60.5t41 -37t73 -12.5q72 0 113.5 29t50.5 74q7 37 -10 57.5t-48 31.5t-65 19q-22 5 -50.5 12.5t-54 21.5t-38.5 37.5t-6 62.5q8 40 36 71t71 47.5t94 16.5q61 0 103 -27t47 -88l-35 -11q-4 39 -23 58.5t-46 26.5t-52 7q-62 0 -104.5 -26.5t-51.5 -72.5
q-6 -28 3.5 -45.5t29.5 -28t44.5 -16.5t50.5 -12q27 -6 55.5 -15.5t51 -25t33 -40t3.5 -62.5q-9 -42 -37.5 -73t-72.5 -47t-100 -16q-74 0 -114.5 32t-41.5 101zM184 -72q37 1 61.5 -7.5t34.5 -26.5t4 -44q-4 -25 -20 -43.5t-40.5 -29t-56.5 -10.5h-70l5 27h64q42 0 62 15
t25 41q5 22 -9 37t-56 15h-38l21 106h28z" />
    <glyph glyph-name="Scaron" unicode="&#x160;" horiz-adv-x="552" 
d="M71 156q1 -29 15.5 -58.5t50 -49.5t100.5 -20q89 0 141.5 41t65.5 103q9 50 -9.5 81t-56 50.5t-85.5 34.5q-39 11 -74.5 24.5t-61 33t-37 49.5t-2.5 75q11 56 45.5 98t87 65.5t117.5 23.5q60 0 98 -18.5t58.5 -48t24.5 -63.5l-36 -13q-3 24 -19.5 49.5t-49 43t-82.5 17.5
q-48 0 -91 -17.5t-73.5 -50.5t-40.5 -80q-9 -49 11 -77t58.5 -44.5t86.5 -31.5q40 -12 74.5 -27.5t59 -37t34.5 -54t1 -78.5q-9 -49 -39 -90.5t-82.5 -67t-129.5 -25.5q-68 0 -110.5 20t-63.5 54t-23 75zM529 894l-6 -34l-144 -80l-111 80l6 34l111 -82z" />
    <glyph glyph-name="scaron" unicode="&#x161;" horiz-adv-x="465" 
d="M62 137q0 -36 13 -60.5t41 -37t73 -12.5q72 0 113.5 29t50.5 74q7 37 -10 57.5t-48 31.5t-65 19q-22 5 -50.5 12.5t-54 21.5t-38.5 37.5t-6 62.5q8 40 36 71t71 47.5t94 16.5q61 0 103 -27t47 -88l-35 -11q-4 39 -23 58.5t-46 26.5t-52 7q-62 0 -104.5 -26.5t-51.5 -72.5
q-6 -28 3.5 -45.5t29.5 -28t44.5 -16.5t50.5 -12q27 -6 55.5 -15.5t51 -25t33 -40t3.5 -62.5q-9 -42 -37.5 -73t-72.5 -47t-100 -16q-74 0 -114.5 32t-41.5 101zM434 679l-7 -31l-131 -74l-103 74l6 31l103 -75z" />
    <glyph glyph-name="uni0162" unicode="&#x162;" horiz-adv-x="593" 
d="M136 700h500l-7 -34h-230l-133 -666h-38l132 666h-231zM247 -80q41 1 67.5 -8t37.5 -28.5t5 -48.5q-5 -26 -22 -46.5t-44 -32t-62 -11.5h-76l5 29h70q45 0 67 17t28 44q4 25 -11 41t-61 16h-41l23 115h31z" />
    <glyph glyph-name="uni0163" unicode="&#x163;" horiz-adv-x="381" 
d="M190 628h38l-99 -494q-11 -59 6.5 -79t68.5 -20h56l-7 -35h-61q-43 0 -68.5 13t-34 42.5t1.5 78.5zM80 467l7 34h265l-6 -34h-266zM163 -74l-3 3q41 0 66 -8t34.5 -25t3.5 -46q-5 -24 -21 -43.5t-40.5 -30.5t-57.5 -11h-71l6 31h64q42 0 61.5 14.5t24.5 39.5q5 22 -9 36
t-56 14h-38l24 119h31z" />
    <glyph glyph-name="Tcaron" unicode="&#x164;" horiz-adv-x="593" 
d="M136 700h500l-7 -34h-230l-133 -666h-38l132 666h-231zM553 894l-6 -34l-144 -80l-111 80l6 34l111 -82z" />
    <glyph glyph-name="tcaron" unicode="&#x165;" horiz-adv-x="343" 
d="M351 691q-1 -21 -3 -38t-5 -31q-9 -45 -32 -61t-57 -16l5 26q24 0 35.5 10t14.5 28l5 23h-37l12 59h62zM167 500l28 140h37l-28 -140h149l-7 -34h-149l-65 -324q-8 -43 8 -69.5t48.5 -36.5t71.5 -2l-6 -31q-36 -9 -68.5 -4t-55.5 23t-33 48t-1 72l64 324h-80l7 34h80z
" />
    <glyph glyph-name="Utilde" unicode="&#x168;" horiz-adv-x="679" 
d="M177 700h38l-87 -437q-16 -86 2.5 -138t63 -75t103.5 -23t111.5 23t91.5 75t55 138l88 437h38l-87 -437q-14 -71 -43.5 -122t-70 -84t-89.5 -48.5t-101 -15.5q-70 0 -122 28t-74.5 88t-3.5 154zM316 764q11 35 33 54.5t52 19.5q18 0 30 -7.5t21.5 -16.5t20 -16.5
t28.5 -7.5q16 0 30.5 11t21.5 34h27q-9 -33 -33 -53.5t-53 -20.5q-20 0 -32.5 7.5t-22 17t-19.5 16.5t-26 7q-17 0 -30.5 -11t-21.5 -34h-26z" />
    <glyph glyph-name="utilde" unicode="&#x169;" horiz-adv-x="561" 
d="M429 0h-34l20 109q-29 -55 -79 -85.5t-120 -30.5q-55 0 -94 23t-54.5 71.5t-0.5 124.5l58 288h36l-57 -287q-18 -93 14 -139.5t108 -46.5q80 0 136 51t78 158l52 264h37zM218 558q10 33 30.5 51t47.5 18q23 0 35 -11t23.5 -22t32.5 -11q15 0 28.5 10t20.5 31h25
q-9 -30 -31 -49t-49 -19q-24 0 -37 11t-24 22.5t-31 11.5q-15 0 -27.5 -10t-19.5 -33h-24z" />
    <glyph glyph-name="Umacron" unicode="&#x16a;" horiz-adv-x="679" 
d="M177 700h38l-87 -437q-16 -86 2.5 -138t63 -75t103.5 -23t111.5 23t91.5 75t55 138l88 437h38l-87 -437q-14 -71 -43.5 -122t-70 -84t-89.5 -48.5t-101 -15.5q-70 0 -122 28t-74.5 88t-3.5 154zM297 843h320l-6 -32h-320z" />
    <glyph glyph-name="umacron" unicode="&#x16b;" horiz-adv-x="561" 
d="M429 0h-34l20 109q-29 -55 -79 -85.5t-120 -30.5q-55 0 -94 23t-54.5 71.5t-0.5 124.5l58 288h36l-57 -287q-19 -93 13.5 -139.5t108.5 -46.5q80 0 136 51t78 158l52 264h37zM200 632h294l-5 -29h-294z" />
    <glyph glyph-name="Ubreve" unicode="&#x16c;" horiz-adv-x="679" 
d="M177 700h38l-87 -437q-16 -86 2.5 -138t63 -75t103.5 -23t111.5 23t91.5 75t55 138l88 437h38l-87 -437q-14 -71 -43.5 -122t-70 -84t-89.5 -48.5t-101 -15.5q-70 0 -122 28t-74.5 88t-3.5 154zM591 890q-5 -27 -23.5 -52t-49 -41t-73.5 -16q-44 0 -68 16t-32 41t-3 52
l2 8h28q-8 -41 11.5 -64t67.5 -23q46 0 75 23t37 64h29z" />
    <glyph glyph-name="ubreve" unicode="&#x16d;" horiz-adv-x="561" 
d="M429 0h-34l20 109q-29 -55 -79 -85.5t-120 -30.5q-55 0 -94 23t-54.5 71.5t-0.5 124.5l58 288h36l-57 -287q-18 -93 14 -139.5t108 -46.5q80 0 136 51t78 158l52 264h37zM470 675q-5 -24 -21 -47.5t-44.5 -38t-68.5 -14.5t-62 14.5t-29 38t-3 48.5l1 7h27q-8 -38 10 -59
t61 -21t70 21t34 59h27z" />
    <glyph glyph-name="Uring" unicode="&#x16e;" horiz-adv-x="679" 
d="M177 700h38l-87 -437q-16 -86 2.5 -138t63 -75t103.5 -23t111.5 23t91.5 75t55 138l88 437h38l-87 -437q-14 -71 -43.5 -122t-70 -84t-89.5 -48.5t-101 -15.5q-70 0 -122 28t-74.5 88t-3.5 154zM551 847q-8 -44 -41.5 -68.5t-70.5 -24.5q-39 0 -62 24.5t-14 68.5
q9 43 41.5 68.5t70.5 25.5q39 0 62 -25.5t14 -68.5zM523 847q6 32 -9 50t-43 18q-29 0 -51 -18t-29 -50q-6 -31 9 -49t43 -18t51 18t29 49z" />
    <glyph glyph-name="uring" unicode="&#x16f;" horiz-adv-x="561" 
d="M429 0h-34l20 109q-29 -55 -79 -85.5t-120 -30.5q-55 0 -94 23t-54.5 71.5t-0.5 124.5l58 288h36l-57 -287q-18 -93 14 -139.5t108 -46.5q80 0 136 51t78 158l52 264h37zM434 635q-8 -40 -38 -62.5t-66 -22.5q-35 0 -56 22.5t-13 62.5q8 41 38 64t65 23q36 0 57 -23
t13 -64zM408 635q6 30 -8 46.5t-40 16.5t-46.5 -16.5t-26.5 -46.5q-5 -28 8.5 -45t39.5 -17t46.5 17t26.5 45z" />
    <glyph glyph-name="Uhungarumlaut" unicode="&#x170;" horiz-adv-x="679" 
d="M177 700h38l-87 -437q-16 -86 2.5 -138t63 -75t103.5 -23t111.5 23t91.5 75t55 138l88 437h38l-87 -437q-14 -71 -43.5 -122t-70 -84t-89.5 -48.5t-101 -15.5q-70 0 -122 28t-74.5 88t-3.5 154zM481 885l-91 -116h-30l84 116h37zM607 885l-96 -116h-30l88 116h38z" />
    <glyph glyph-name="uhungarumlaut" unicode="&#x171;" horiz-adv-x="561" 
d="M429 0h-34l20 109q-29 -55 -79 -85.5t-120 -30.5q-55 0 -94 23t-54.5 71.5t-0.5 124.5l58 288h36l-57 -287q-18 -93 14 -139.5t108 -46.5q80 0 136 51t78 158l52 264h37zM369 671l-83 -107h-28l78 107h33zM484 671l-88 -107h-27l81 107h34z" />
    <glyph glyph-name="Uogonek" unicode="&#x172;" horiz-adv-x="679" 
d="M177 700h39l-88 -437q-16 -86 3 -138t63 -75t103 -23t111.5 23t91.5 75t56 138l87 437h38l-87 -437q-14 -71 -43.5 -122t-70 -84t-89.5 -48.5t-101 -15.5q-70 0 -121.5 28t-74.5 88t-4 154zM349 23l6 -23l-73 -32q-42 -17 -61 -37t-23 -40q-5 -28 11.5 -41t44.5 -13
q15 0 32 3.5t34 9.5l-6 -30q-17 -7 -34.5 -10t-33.5 -3q-28 0 -48 8.5t-29.5 25.5t-4.5 46q4 20 17 39t37 36t62 33z" />
    <glyph glyph-name="uogonek" unicode="&#x173;" horiz-adv-x="563" 
d="M429 0h-34l20 109q-29 -55 -79 -85.5t-120 -30.5q-55 0 -94 23t-54.5 71.5t-0.5 124.5l58 288h36l-57 -287q-18 -93 14 -139.5t108 -46.5q80 0 136 51t78 158l52 264h37zM423 23l6 -21l-67 -30q-39 -16 -56 -34.5t-21 -36.5q-5 -27 9.5 -38.5t41.5 -11.5q26 0 61 12
l-6 -28q-15 -5 -31.5 -8t-31.5 -3q-24 0 -43 7.5t-27.5 23.5t-4.5 42q6 28 31 53t75 46z" />
    <glyph glyph-name="Wcircumflex" unicode="&#x174;" horiz-adv-x="920" 
d="M212 0h-40l-52 700h42l42 -643l325 643h42l68 -643l299 643h41l-331 -700h-40l-70 640zM693 781l-111 82l-144 -82l7 34l143 81l111 -81z" />
    <glyph glyph-name="wcircumflex" unicode="&#x175;" horiz-adv-x="763" 
d="M167 0h-31l-59 500h38l48 -447l253 447h31l76 -446l224 446h37l-255 -500h-33l-77 441zM563 575l-102 76l-132 -76l6 32l132 74l102 -74z" />
    <glyph glyph-name="Ycircumflex" unicode="&#x176;" horiz-adv-x="601" 
d="M620 700h40l-332 -413l-57 -287h-38l56 287l-169 413h42l154 -376zM535 781l-111 82l-144 -82l6 34l144 81l111 -81z" />
    <glyph glyph-name="ycircumflex" unicode="&#x177;" horiz-adv-x="486" 
d="M477 500h37l-415 -700h-37l120 202l-112 498h39l101 -455zM425 575l-102 76l-132 -76l6 32l132 74l102 -74z" />
    <glyph glyph-name="Ydieresis" unicode="&#x178;" horiz-adv-x="601" 
d="M620 700h40l-332 -413l-57 -287h-38l56 287l-169 413h42l154 -376zM340 794q-15 0 -23.5 10.5t-5.5 24.5q3 16 15 26.5t28 10.5q15 0 23 -10.5t6 -26.5q-4 -14 -16 -24.5t-27 -10.5zM481 794q-15 0 -23.5 10.5t-5.5 24.5q3 16 15.5 26.5t27.5 10.5q14 0 22.5 -10.5
t5.5 -26.5q-3 -14 -15.5 -24.5t-26.5 -10.5z" />
    <glyph glyph-name="Zacute" unicode="&#x179;" horiz-adv-x="588" 
d="M601 667l-539 -632h422l-7 -35h-465l6 32l539 633h-404l8 35h447zM491 917l-8 -37l-217 -126l6 32z" />
    <glyph glyph-name="zacute" unicode="&#x17a;" horiz-adv-x="475" 
d="M456 465l-400 -431h322l-7 -34h-366l7 34l400 432h-307l7 34h350zM388 700l-7 -34l-201 -116l6 29z" />
    <glyph glyph-name="Zdotaccent" unicode="&#x17b;" horiz-adv-x="588" 
d="M601 667l-539 -632h422l-7 -35h-465l6 32l539 633h-404l8 35h447zM379 777q-14 0 -22.5 10t-5.5 24q2 16 15 26.5t27 10.5q15 0 23.5 -10.5t5.5 -26.5q-2 -14 -15 -24t-28 -10z" />
    <glyph glyph-name="zdotaccent" unicode="&#x17c;" horiz-adv-x="475" 
d="M456 465l-400 -431h322l-7 -34h-366l7 34l400 432h-307l7 34h350zM285 571q-14 0 -21.5 9.5t-4.5 22.5q2 14 13.5 23.5t25.5 9.5q13 0 21 -9.5t6 -23.5q-4 -13 -15.5 -22.5t-24.5 -9.5z" />
    <glyph glyph-name="Zcaron" unicode="&#x17d;" horiz-adv-x="588" 
d="M601 667l-539 -632h422l-7 -35h-465l6 32l539 633h-404l8 35h447zM530 894l-7 -34l-143 -80l-111 80l6 34l111 -82z" />
    <glyph glyph-name="zcaron" unicode="&#x17e;" horiz-adv-x="475" 
d="M456 465l-400 -431h322l-7 -34h-366l7 34l400 432h-307l7 34h350zM424 679l-7 -31l-132 -74l-102 74l6 31l102 -75z" />
    <glyph glyph-name="uni018F" unicode="&#x18f;" horiz-adv-x="761" 
d="M685 355q19 98 -4.5 169t-81.5 109.5t-139 38.5q-66 0 -127.5 -24.5t-111.5 -70t-79 -110.5h-42q32 73 88 126.5t127.5 83t151.5 29.5q97 0 162 -45.5t91 -125.5t5 -186q-21 -107 -79 -187t-142 -125t-184 -45q-93 0 -156.5 38.5t-89.5 110t-6 173.5q3 12 5.5 24.5
t6.5 24.5h616l-7 -34h-577q-23 -91 -3.5 -159t75.5 -105.5t143 -37.5q82 0 155.5 36t126.5 105.5t72 169.5z" />
    <glyph glyph-name="florin" unicode="&#x192;" horiz-adv-x="410" 
d="M167 501h248l-9 -32h-247zM262 559q24 74 75 107.5t131 33.5l-9 -33q-64 0 -103 -26t-57 -82l-154 -455q-16 -50 -44 -77t-86 -27h-28l9 32h24q34 0 53.5 14t33.5 58z" />
    <glyph glyph-name="uni01CD" unicode="&#x1cd;" horiz-adv-x="630" 
d="M415 666h-33l-384 -666h-38l403 700h83l125 -700h-39zM109 237h408l-7 -34h-408zM572 895l-7 -34l-143 -81l-112 81l8 34l110 -82z" />
    <glyph glyph-name="uni01CE" unicode="&#x1ce;" horiz-adv-x="525" 
d="M366 0l23 125q-32 -64 -87.5 -98t-130.5 -34q-54 0 -89 16t-49 46.5t-5 73.5q12 63 66.5 101t154.5 48l174 19l9 45q13 63 -19 97t-101 34q-67 0 -115.5 -30.5t-73.5 -87.5l-31 12q32 68 89.5 104t136.5 36q88 0 127.5 -42.5t24.5 -118.5l-69 -346h-35zM417 264l-176 -19
q-82 -8 -124 -36.5t-51 -77.5q-10 -50 18.5 -78t92.5 -28q62 0 109.5 25.5t79 71t43.5 107.5zM478 695l-7 -34l-143 -81l-112 81l7 34l111 -82z" />
    <glyph glyph-name="Gcaron" unicode="&#x1e6;" horiz-adv-x="766" 
d="M709 499q-19 78 -80 126t-159 48q-84 0 -160 -39t-131 -111.5t-75 -172.5q-19 -100 6.5 -172.5t86.5 -111t145 -38.5q67 0 129.5 25t113.5 72t84 113l18 93h-283l6 32h322l-25 -127q-35 -73 -92 -127.5t-128.5 -85t-151.5 -30.5q-73 0 -130 26t-93.5 73.5t-48.5 113
t3 144.5q16 79 54 144.5t93.5 113t123 73.5t140.5 26t128 -24t89.5 -68t48.5 -104zM653 895l-7 -34l-144 -81l-111 81l7 34l110 -82z" />
    <glyph glyph-name="gcaron" unicode="&#x1e7;" horiz-adv-x="602" 
d="M534 500h35l-77 -390q-20 -99 -74.5 -168t-139.5 -105.5t-196 -36.5l1 34q155 1 250 71.5t122 204.5l5 25l3 -1q-32 -58 -90.5 -98.5t-142.5 -42.5q-70 0 -115.5 31.5t-63 89.5t-1.5 136q15 78 55.5 135.5t98.5 89.5t128 32q56 0 92.5 -19t56.5 -49.5t26 -67.5zM88 250
q-20 -103 21.5 -163t133.5 -60q58 0 107.5 28t84 78.5t47.5 116.5q14 67 -0.5 117t-53 78t-97.5 28q-61 0 -110.5 -27.5t-84 -77t-48.5 -118.5zM504 695l-7 -34l-143 -81l-112 81l7 34l111 -82z" />
    <glyph glyph-name="uni01E8" unicode="&#x1e8;" horiz-adv-x="559" 
d="M182 700h38l-64 -324h34l394 324h51l-415 -341l276 -359h-52l-262 342h-33l-69 -342h-38zM531 895l-7 -34l-143 -81l-111 81l6 34l111 -82z" />
    <glyph glyph-name="uni01E9" unicode="&#x1e9;" horiz-adv-x="671" 
d="M137 720h37l-90 -451h57l271 231h51l-294 -248l197 -252h-51l-180 236h-57l-47 -236h-37zM319 893l-7 -34l-144 -81l-111 81l7 34l111 -82z" />
    <glyph glyph-name="uni01EA" unicode="&#x1ea;" 
d="M335 -7q-73 0 -130 26t-93.5 73.5t-48.5 113t3 144.5q16 79 54 144.5t93.5 113t123 73.5t140.5 26q74 0 130.5 -26t93 -73.5t48.5 -113t-4 -144.5q-15 -79 -53.5 -144.5t-93.5 -113t-122 -73.5t-141 -26zM342 27q84 0 159.5 39t130 111.5t74.5 172.5q20 101 -6 173
t-86 111t-144 39t-160 -39t-130.5 -111t-74.5 -173q-19 -100 6.5 -172.5t86 -111.5t144.5 -39zM450 37l6 -23l-73 -32q-42 -18 -61 -38t-23 -40q-5 -28 11.5 -41t44.5 -13q15 0 32 3.5t35 9.5l-7 -30q-17 -7 -34.5 -10t-33.5 -3q-27 0 -47.5 8.5t-30 26.5t-4.5 45
q4 21 17 39.5t37.5 36t61.5 32.5z" />
    <glyph glyph-name="uni01EB" unicode="&#x1eb;" horiz-adv-x="584" 
d="M241 -7q-70 0 -118.5 31t-68.5 88.5t-4 137.5q16 79 59 137t104 89t130 31q70 0 118 -31t68 -89t4 -137q-16 -80 -58.5 -137.5t-103.5 -88.5t-130 -31zM247 27q53 0 104 24t90 73.5t54 125.5q15 77 -4 126t-60.5 73t-94.5 24t-104 -24t-89.5 -73.5t-53.5 -125.5
q-15 -77 4 -126t60 -73t94 -24zM371 52l6 -24l-74 -31q-42 -18 -60.5 -38t-22.5 -41q-6 -27 10.5 -40.5t45.5 -13.5q15 0 31.5 3.5t34.5 9.5l-6 -30q-18 -6 -35.5 -9t-33.5 -3q-27 0 -47 8t-30 26t-4 45q3 22 16.5 40.5t37.5 35.5t61 33z" />
    <glyph glyph-name="AEacute" unicode="&#x1fc;" horiz-adv-x="872" 
d="M569 666l-58 -290h223l-7 -34h-223l-61 -308h314l-7 -34h-352l41 203h-274l-162 -203h-43l562 700h367l-7 -34h-313zM192 237h253l83 418zM684 917l-8 -37l-218 -126l6 32z" />
    <glyph glyph-name="aeacute" unicode="&#x1fd;" horiz-adv-x="917" 
d="M593 -7q-70 0 -114.5 32t-61 91t-0.5 139q23 118 97.5 185t179.5 67q75 0 118.5 -31.5t58.5 -81.5t3 -108q-1 -8 -3.5 -19t-5.5 -24h-416q-13 -74 4.5 -122t56 -71t89.5 -23q69 0 122 29.5t86 83.5l28 -13q-37 -60 -97.5 -97t-144.5 -37zM835 275q17 65 1 108.5t-56 66.5
t-93 23q-49 0 -96 -21t-82.5 -64.5t-52.5 -112.5h379zM429 236l-8 -71q-26 -63 -66 -100.5t-87 -54.5t-97 -17q-49 0 -84.5 16t-51.5 47t-7 77q9 44 35 72t60 43t67.5 21.5t58.5 8.5l174 17l10 51q11 54 -18 90.5t-103 36.5q-59 0 -110.5 -27.5t-78.5 -90.5l-31 12
q33 71 91.5 105.5t134.5 34.5q83 0 124 -41.5t25 -119.5l-18 -89zM417 262l-176 -17q-71 -7 -117.5 -32t-57.5 -79q-10 -54 24 -80.5t88 -26.5q61 0 109 26.5t79.5 73t43.5 104.5zM617 698l-7 -34l-200 -116l5 29z" />
    <glyph glyph-name="uni0218" unicode="&#x218;" horiz-adv-x="552" 
d="M262 -56q0 -11 -1 -22.5t-4 -22.5q-10 -54 -34.5 -73.5t-57.5 -19.5l5 25q24 0 36.5 14t17.5 39l2 11h-35l10 49h61zM71 156q1 -29 15.5 -58.5t50 -49.5t100.5 -20q89 0 141.5 41t65.5 103q9 50 -9.5 81t-56 50.5t-85.5 34.5q-39 11 -74.5 24.5t-61 33t-37 49.5t-2.5 75
q11 56 45.5 98t87 65.5t117.5 23.5q59 0 97.5 -18.5t59 -48t24.5 -63.5l-36 -13q-3 24 -19.5 49.5t-49 43t-82.5 17.5q-48 0 -91 -17.5t-73.5 -50.5t-40.5 -80q-9 -49 11 -77t58.5 -44.5t86.5 -31.5q40 -12 74.5 -27.5t59 -37t34.5 -54t1 -78.5q-9 -49 -39 -90.5t-82.5 -67
t-129.5 -25.5q-68 0 -110.5 20t-63.5 54t-23 75z" />
    <glyph glyph-name="uni0219" unicode="&#x219;" horiz-adv-x="465" 
d="M215 -49q-1 -10 -1.5 -21.5t-2.5 -19.5q-10 -52 -34 -70t-55 -18l5 25q22 0 34 13t16 35l1 8h-32l10 48h59zM62 137q0 -36 13 -60.5t41 -37t73 -12.5q72 0 113.5 29t50.5 74q7 37 -10 57.5t-48 31.5t-65 19q-22 5 -50.5 12.5t-54 21.5t-38.5 37.5t-6 62.5q8 40 36 71
t71 47.5t94 16.5q61 0 103 -27t47 -88l-35 -11q-4 39 -23 58.5t-46 26.5t-52 7q-62 0 -104.5 -26.5t-51.5 -72.5q-6 -28 3.5 -45.5t29.5 -28t44.5 -16.5t50.5 -12q27 -6 55.5 -15.5t51 -25t33 -40t3.5 -62.5q-9 -42 -37.5 -73t-72.5 -47t-100 -16q-74 0 -114.5 32t-41.5 101
z" />
    <glyph glyph-name="uni021A" unicode="&#x21a;" horiz-adv-x="593" 
d="M274 -56q0 -11 -1 -22.5t-3 -22.5q-11 -54 -36 -73.5t-57 -19.5l5 25q25 0 37 14t18 39l2 11h-36l10 49h61zM136 700h500l-7 -34h-230l-133 -666h-38l132 666h-231z" />
    <glyph glyph-name="uni021B" unicode="&#x21b;" horiz-adv-x="340" 
d="M156 -49q0 -10 -1 -21.5t-3 -19.5q-10 -52 -34 -70t-56 -18l5 25q23 0 34.5 13t16.5 35l1 8h-32l10 48h59zM167 500l28 140h37l-28 -140h149l-7 -34h-149l-65 -324q-8 -43 8 -69.5t48.5 -36.5t71.5 -2l-6 -31q-36 -9 -68.5 -4t-55.5 23t-33 48t-1 72l64 324h-80l7 34h80z
" />
    <glyph glyph-name="uni0232" unicode="&#x232;" horiz-adv-x="601" 
d="M620 700h40l-332 -413l-57 -287h-38l56 287l-169 413h42l154 -376zM260 843h320l-6 -31h-320z" />
    <glyph glyph-name="uni0233" unicode="&#x233;" horiz-adv-x="486" 
d="M477 500h37l-415 -700h-37l120 202l-112 498h39l101 -455zM162 643h320l-6 -31h-320z" />
    <glyph glyph-name="uni0259" unicode="&#x259;" horiz-adv-x="557" 
d="M326 507q68 0 114 -33.5t63.5 -92.5t2.5 -136q-15 -74 -56 -131t-99.5 -89t-126.5 -32q-65 0 -110 29t-64.5 78.5t-6.5 113.5q2 9 4 20t6 23h417q11 64 -4 112.5t-53 76t-93 27.5q-67 0 -121.5 -29.5t-87.5 -83.5l-28 13q39 64 102.5 99t140.5 35zM84 225
q-13 -58 1.5 -102.5t52 -70t94.5 -25.5q53 0 100.5 25.5t82 70.5t48.5 102h-379z" />
    <glyph glyph-name="circumflex" unicode="&#x2c6;" horiz-adv-x="282" 
d="M341 614l-111 82l-143 -82l6 34l143 81l112 -81z" />
    <glyph glyph-name="caron" unicode="&#x2c7;" horiz-adv-x="283" 
d="M364 727l-7 -34l-144 -81l-111 81l7 34l110 -82z" />
    <glyph glyph-name="breve" unicode="&#x2d8;" horiz-adv-x="276" 
d="M356 723q-5 -27 -23 -52.5t-49 -41.5t-75 -16q-42 0 -66.5 16t-32.5 41.5t-2 52.5l2 8h28q-8 -41 11.5 -64t66.5 -23t75.5 23t37.5 64h29z" />
    <glyph glyph-name="dotaccent" unicode="&#x2d9;" horiz-adv-x="99" 
d="M124 627q-14 0 -22.5 10.5t-5.5 24.5q3 15 15.5 25.5t26.5 10.5q15 0 23.5 -10.5t5.5 -25.5q-3 -14 -15.5 -24.5t-27.5 -10.5z" />
    <glyph glyph-name="ring" unicode="&#x2da;" horiz-adv-x="216" 
d="M293 707q-9 -44 -41.5 -69t-71.5 -25t-61.5 25t-13.5 69q8 43 41 68.5t71 25.5q39 0 62 -25.5t14 -68.5zM265 707q6 32 -9.5 50t-43.5 18t-50.5 -18t-28.5 -50q-6 -31 9 -49.5t44 -18.5q28 0 50.5 18.5t28.5 49.5z" />
    <glyph glyph-name="ogonek" unicode="&#x2db;" horiz-adv-x="198" 
d="M126 23l7 -23l-74 -32q-42 -17 -60.5 -37t-22.5 -41q-6 -28 10 -41t46 -13q15 0 31.5 3.5t33.5 9.5l-5 -30q-17 -6 -35 -9.5t-34 -3.5q-27 0 -47 8.5t-30 26.5t-5 45q4 21 17.5 40t37.5 36t61 33z" />
    <glyph glyph-name="tilde" unicode="&#x2dc;" horiz-adv-x="278" 
d="M85 605q11 36 33.5 56t50.5 20q20 0 31.5 -7.5t20.5 -17.5t20 -17t28 -7q16 0 31 11t22 34h27q-10 -33 -34 -53.5t-53 -20.5q-19 0 -31.5 7.5t-22 17t-19.5 17t-26 7.5q-17 0 -30 -11t-21 -36h-27z" />
    <glyph glyph-name="hungarumlaut" unicode="&#x2dd;" horiz-adv-x="252" 
d="M206 717l-92 -116h-30l85 116h37zM331 717l-96 -116h-30l88 116h38z" />
    <glyph glyph-name="uni0394" unicode="&#x394;" horiz-adv-x="660" 
d="M402 700h34l153 -669l-6 -31h-605l6 31zM409 654l-385 -620h527z" />
    <glyph glyph-name="uni03A9" unicode="&#x3a9;" horiz-adv-x="790" 
d="M212 33q-62 22 -99.5 68.5t-49.5 111t3 137.5q16 80 56 145.5t97 112.5t125.5 73t140.5 26q73 0 131.5 -26t96.5 -73t52 -112.5t-2 -145.5q-14 -73 -51.5 -137.5t-93.5 -111t-127 -68.5h191l-6 -33h-278l6 35q78 10 144.5 50.5t112.5 108t64 155.5q19 98 -8 170.5
t-89.5 112.5t-149.5 40q-66 0 -127.5 -23.5t-112 -66.5t-85.5 -102.5t-50 -130.5q-17 -88 3 -155.5t70 -108t123 -50.5l-7 -35h-278l7 33h191z" />
    <glyph glyph-name="uni03BC" unicode="&#x3bc;" horiz-adv-x="593" 
d="M460 0h-38l99 501h38zM32 -200h-39l139 701h39l-52 -261q-15 -73 -1.5 -121.5t49.5 -72t88 -23.5q75 0 133 51.5t81 158.5h1l3 -44q-17 -70 -53.5 -114t-83 -64.5t-93.5 -20.5q-35 0 -67 10.5t-54 37t-28 72.5z" />
    <glyph glyph-name="pi" unicode="&#x3c0;" horiz-adv-x="637" 
d="M92 501h554l-7 -34h-77l-94 -467h-38l93 467h-322l-93 -467h-39l94 467h-78z" />
    <glyph glyph-name="Wgrave" unicode="&#x1e80;" horiz-adv-x="920" 
d="M212 0h-40l-52 700h42l42 -643l325 643h42l68 -643l299 643h41l-331 -700h-40l-70 640zM484 917l167 -131l-7 -32l-168 126z" />
    <glyph glyph-name="wgrave" unicode="&#x1e81;" horiz-adv-x="763" 
d="M167 0h-31l-59 500h38l48 -447l253 447h31l76 -446l224 446h37l-255 -500h-33l-77 441zM371 700l153 -121l-6 -29l-154 116z" />
    <glyph glyph-name="Wacute" unicode="&#x1e82;" horiz-adv-x="920" 
d="M212 0h-40l-52 700h42l42 -643l325 643h42l68 -643l299 643h41l-331 -700h-40l-70 640zM676 917l-7 -37l-218 -126l7 32z" />
    <glyph glyph-name="wacute" unicode="&#x1e83;" horiz-adv-x="763" 
d="M167 0h-31l-59 500h38l48 -447l253 447h31l76 -446l224 446h37l-255 -500h-33l-77 441zM548 700l-7 -34l-200 -116l6 29z" />
    <glyph glyph-name="Wdieresis" unicode="&#x1e84;" horiz-adv-x="920" 
d="M212 0h-40l-52 700h42l42 -643l325 643h42l68 -643l299 643h41l-331 -700h-40l-70 640zM498 794q-16 0 -23.5 10.5t-5.5 24.5q4 16 16 26.5t27 10.5t23.5 -10.5t5.5 -26.5q-3 -14 -15.5 -24.5t-27.5 -10.5zM639 794q-15 0 -23 10.5t-6 24.5q3 16 15.5 26.5t27.5 10.5
t23.5 -10.5t4.5 -26.5q-2 -14 -15 -24.5t-27 -10.5z" />
    <glyph glyph-name="wdieresis" unicode="&#x1e85;" horiz-adv-x="763" 
d="M167 0h-31l-59 500h38l48 -447l253 447h31l76 -446l224 446h37l-255 -500h-33l-77 441zM384 588q-14 0 -21.5 9t-4.5 22q3 14 14 24t25 10t21.5 -10t4.5 -24q-2 -13 -13.5 -22t-25.5 -9zM514 588q-14 0 -22 9t-5 22q3 14 14.5 24t25.5 10q13 0 20.5 -10t4.5 -24
q-2 -13 -13.5 -22t-24.5 -9z" />
    <glyph glyph-name="uni1EBC" unicode="&#x1ebc;" horiz-adv-x="605" 
d="M616 666h-402l-58 -290h302l-7 -34h-302l-62 -308h403l-7 -34h-441l140 700h441zM289 764q12 35 34 54.5t51 19.5q19 0 31 -7.5t21 -16.5t20 -16.5t28 -7.5q16 0 30.5 11t22.5 34h27q-9 -33 -33.5 -53.5t-52.5 -20.5q-20 0 -32.5 7.5t-22 17t-20 16.5t-25.5 7
q-18 0 -31 -11t-21 -34h-27z" />
    <glyph glyph-name="uni1EBD" unicode="&#x1ebd;" horiz-adv-x="557" 
d="M231 -7q-69 0 -114.5 33.5t-63 92.5t-2.5 136q14 74 55 131t100 89t126 32q66 0 111 -29t64.5 -78.5t5.5 -113.5q-1 -8 -3 -19.5t-6 -23.5h-417q-11 -64 4 -112.5t53 -76t93 -27.5q67 0 121.5 29.5t87.5 83.5l28 -13q-39 -64 -102.5 -99t-140.5 -35zM473 275
q13 58 -1.5 102.5t-52 70t-94.5 25.5q-53 0 -100.5 -25.5t-82 -70.5t-48.5 -102h379zM232 558q10 33 30 51t47 18q23 0 35.5 -11t23.5 -22t33 -11q15 0 28 10t20 31h25q-9 -30 -31 -49t-48 -19q-25 0 -37.5 11t-24 22.5t-30.5 11.5q-16 0 -28 -10t-19 -33h-24z" />
    <glyph glyph-name="Ygrave" unicode="&#x1ef2;" horiz-adv-x="601" 
d="M620 700h40l-332 -413l-57 -287h-38l56 287l-169 413h42l154 -376zM325 917l167 -131l-6 -32l-168 126z" />
    <glyph glyph-name="ygrave" unicode="&#x1ef3;" horiz-adv-x="486" 
d="M477 500h37l-415 -700h-37l120 202l-112 498h39l101 -455zM233 700l153 -121l-6 -29l-154 116z" />
    <glyph glyph-name="uni1EF8" unicode="&#x1ef8;" horiz-adv-x="601" 
d="M620 700h40l-332 -413l-57 -287h-38l56 287l-169 413h42l154 -376zM279 764q12 35 33.5 54.5t50.5 19.5q19 0 31 -7.5t21 -16.5t20 -16.5t28 -7.5q16 0 31 11t23 34h26q-9 -33 -33.5 -53.5t-53.5 -20.5q-19 0 -31.5 7.5t-22 17t-20 16.5t-25.5 7q-17 0 -30.5 -11
t-21.5 -34h-26z" />
    <glyph glyph-name="uni1EF9" unicode="&#x1ef9;" horiz-adv-x="486" 
d="M477 500h37l-415 -700h-37l120 202l-112 498h39l101 -455zM190 558q11 33 31 51t47 18q23 0 35.5 -11t23.5 -22t32 -11q15 0 28.5 10t20.5 31h25q-9 -30 -31.5 -49t-47.5 -19q-24 0 -37.5 11t-25 22.5t-29.5 11.5q-16 0 -28 -10t-20 -33h-24z" />
    <glyph glyph-name="endash" unicode="&#x2013;" horiz-adv-x="628" 
d="M69 296h508l-6 -33h-508z" />
    <glyph glyph-name="emdash" unicode="&#x2014;" horiz-adv-x="818" 
d="M69 296h698l-7 -33h-697z" />
    <glyph glyph-name="quoteleft" unicode="&#x2018;" horiz-adv-x="215" 
d="M259 700l-95 -198h-50l115 198h30z" />
    <glyph glyph-name="quoteright" unicode="&#x2019;" horiz-adv-x="215" 
d="M96 502l95 198h49l-114 -198h-30z" />
    <glyph glyph-name="quotesinglbase" unicode="&#x201a;" horiz-adv-x="216" 
d="M-23 -100l95 198h50l-115 -198h-30z" />
    <glyph glyph-name="quotedblleft" unicode="&#x201c;" horiz-adv-x="336" 
d="M259 700l-95 -198h-50l115 198h30zM379 700l-94 -198h-50l115 198h29z" />
    <glyph glyph-name="quotedblright" unicode="&#x201d;" horiz-adv-x="336" 
d="M217 502l94 198h50l-115 -198h-29zM96 502l95 198h49l-114 -198h-30z" />
    <glyph glyph-name="quotedblbase" unicode="&#x201e;" horiz-adv-x="339" 
d="M-23 -100l95 198h50l-115 -198h-30zM100 -100l95 198h50l-115 -198h-30z" />
    <glyph glyph-name="dagger" unicode="&#x2020;" horiz-adv-x="516" 
d="M516 566l-6 -33l-180 5l-123 -638h-36l129 638l-181 -5l6 33l180 -4l45 238h36l-51 -238z" />
    <glyph glyph-name="daggerdbl" unicode="&#x2021;" horiz-adv-x="516" 
d="M511 533l-181 5l-74 -375l181 4l-6 -33l-179 4l-45 -238h-36l51 238l-183 -4l7 33l180 -4l74 375l-181 -5l6 33l180 -4l45 238h36l-51 -238l182 4z" />
    <glyph glyph-name="bullet" unicode="&#x2022;" horiz-adv-x="430" 
d="M211 229q-29 0 -50 14.5t-30.5 37.5t-2.5 52q5 30 24 53.5t45.5 37.5t54.5 14q30 0 50.5 -14t30 -37.5t4.5 -53.5q-6 -29 -25 -52t-45 -37.5t-56 -14.5z" />
    <glyph glyph-name="ellipsis" unicode="&#x2026;" horiz-adv-x="513" 
d="M206 -3q-14 0 -21 9.5t-4 23.5t14 23.5t25 9.5q13 0 20.5 -9.5t4.5 -23.5t-14 -23.5t-25 -9.5zM362 -3q-14 0 -21 9.5t-4 23.5t14 23.5t24 9.5t21 -9.5t5 -23.5t-14 -23.5t-25 -9.5zM51 -3q-14 0 -21 9.5t-4 23.5t13.5 23.5t24.5 9.5q13 0 20.5 -9.5t5.5 -23.5
q-3 -14 -14.5 -23.5t-24.5 -9.5z" />
    <glyph glyph-name="perthousand" unicode="&#x2030;" horiz-adv-x="904" 
d="M119 573q8 40 31 70t56.5 47t71.5 17q56 0 86.5 -37.5t18.5 -96.5q-7 -39 -30.5 -69t-57 -47t-71.5 -17q-56 0 -86 37.5t-19 95.5zM272 679q-43 0 -76.5 -29.5t-42.5 -76.5q-10 -47 12 -76.5t65 -29.5q44 0 77 29.5t42 76.5q10 47 -11.5 76.5t-65.5 29.5zM577 700h39
l-557 -700h-40zM254 126q7 40 30 70t56 47t71 17q57 0 87 -37.5t19 -96.5q-8 -39 -31.5 -69t-56.5 -47t-71 -17q-57 0 -87 37.5t-17 95.5zM406 233q-44 0 -77.5 -29.5t-42.5 -77.5q-9 -46 12.5 -75.5t65.5 -29.5q43 0 76 29.5t43 75.5q9 48 -12 77.5t-65 29.5zM561 126
q8 40 31 70t56 47t71 17q56 0 86.5 -37.5t19.5 -96.5q-8 -39 -31.5 -69t-57 -47t-70.5 -17q-57 0 -87 37.5t-18 95.5zM714 233q-44 0 -77.5 -29.5t-42.5 -77.5q-9 -46 12.5 -75.5t65.5 -29.5q43 0 76 29.5t43 75.5q9 48 -12 77.5t-65 29.5z" />
    <glyph glyph-name="guilsinglleft" unicode="&#x2039;" horiz-adv-x="249" 
d="M158 75h-43l-68 175l137 175h43l-140 -175z" />
    <glyph glyph-name="guilsinglright" unicode="&#x203a;" horiz-adv-x="248" 
d="M20 75l142 175l-72 175h43l69 -175l-139 -175h-43z" />
    <glyph glyph-name="fraction" unicode="&#x2044;" horiz-adv-x="544" 
d="M552 734h42l-560 -754h-41z" />
    <glyph glyph-name="uni2074" unicode="&#x2074;" horiz-adv-x="364" 
d="M257 350l16 83h-196l5 23l241 244h32l-48 -240h50l-6 -27h-50l-16 -83h-28zM320 666l-203 -206h162z" />
    <glyph glyph-name="uni20A8" unicode="&#x20a8;" horiz-adv-x="1026" 
d="M552 500q11 51 -1 88t-50 57.5t-108 20.5h-179l-67 -332h182q100 0 154.5 47t68.5 119zM400 700q83 0 129 -26t60 -71t2 -103q-12 -60 -46.5 -105.5t-90.5 -70t-132 -24.5h-182l-60 -300h-38l140 700h218zM369 314l133 -314h-43l-132 314h42zM624 137q0 -36 12.5 -60.5
t40.5 -37t74 -12.5q71 0 112.5 29t51.5 74q7 37 -10 57.5t-48 31.5t-65 19q-23 5 -51.5 12.5t-53.5 21.5t-38.5 37.5t-5.5 62.5q8 40 36 71t70.5 47.5t94.5 16.5q61 0 103 -27t47 -88l-35 -11q-3 39 -22.5 58.5t-46 26.5t-53.5 7q-61 0 -103.5 -26.5t-52.5 -72.5
q-5 -28 4.5 -45.5t29.5 -28t44.5 -16.5t49.5 -12q28 -6 56 -15.5t50.5 -25t33.5 -40t3 -62.5q-8 -42 -36.5 -73t-72.5 -47t-100 -16q-75 0 -115 32t-41 101z" />
    <glyph glyph-name="Euro" unicode="&#x20ac;" horiz-adv-x="780" 
d="M62 410l6 29h435l-6 -29h-435zM30 248l6 30h435l-6 -30h-435zM86 350q16 79 53.5 144.5t92 113t120.5 73.5t138 26q119 0 187 -53t88 -144l-33 -12q-11 53 -43 92t-83.5 60.5t-121.5 21.5q-82 0 -156.5 -38.5t-128.5 -110.5t-75 -173q-19 -100 6 -172.5t84.5 -111
t140.5 -38.5q72 -1 133.5 22t110.5 65.5t82 97.5l28 -12q-57 -97 -148 -152.5t-213 -55.5q-72 0 -127.5 26t-91 74t-47.5 113.5t4 143.5z" />
    <glyph glyph-name="indianrupee" unicode="&#x20b9;" horiz-adv-x="641" 
d="M528 684l-29 -140q-14 -72 -36.5 -118t-60 -70.5t-97.5 -34.5t-149 -10l-23 -113q-11 -54 -2 -93t39 -59.5t82 -20.5q73 0 118.5 42.5t60.5 121.5h36q-19 -98 -78 -147t-144 -49q-96 0 -131.5 55t-17.5 146l29 147q80 0 134 4t89.5 16.5t57 35.5t34.5 59.5t24 88.5
l28 139h36zM145 700h544l-6 -31h-544zM103 489l6 30h544l-6 -30h-544z" />
    <glyph glyph-name="turkishlira" unicode="&#x20ba;" horiz-adv-x="820" 
d="M289 700l-137 -692q28 -8 56 -11.5t56 -3.5q121 0 209 48.5t143.5 141t81.5 224.5h-38q-19 -94 -52.5 -165t-82.5 -118.5t-112.5 -71.5t-141.5 -24q-18 0 -37.5 2t-37.5 6l132 664h-39zM499 508l6 32l-459 -125l-6 -31zM464 339l7 31l-457 -120l-6 -32z" />
    <glyph glyph-name="uni20BD" unicode="&#x20bd;" horiz-adv-x="570" 
d="M46 345h272q105 0 156.5 44t65.5 117q11 50 -0.5 85.5t-49.5 55.5t-107 20h-152l-132 -667h-38l139 700h189q80 0 126 -25t60.5 -68.5t3.5 -100.5q-12 -62 -46 -105.5t-89 -66t-132 -22.5h-272zM14 183h380l-6 -32h-380z" />
    <glyph glyph-name="uni2113" unicode="&#x2113;" horiz-adv-x="258" 
d="M203 714h37l-143 -714h-36z" />
    <glyph glyph-name="trademark" unicode="&#x2122;" horiz-adv-x="751" 
d="M117 700h233l-5 -29h-100l-64 -321h-33l64 321h-101zM403 700h38l81 -325h-13l211 325h37l-70 -350h-32l63 316l16 6l-211 -322h-28l-81 322l13 -6l-63 -316h-31z" />
    <glyph glyph-name="uni2126" unicode="&#x2126;" horiz-adv-x="790" 
d="M212 33q-62 22 -99.5 68.5t-49.5 111t3 137.5q16 80 56 145.5t97 112.5t125.5 73t140.5 26q73 0 131.5 -26t96.5 -73t52 -112.5t-2 -145.5q-14 -73 -51.5 -137.5t-93.5 -111t-127 -68.5h191l-6 -33h-278l6 35q78 10 144.5 50.5t112.5 108t64 155.5q19 98 -8 170.5
t-89.5 112.5t-149.5 40q-66 0 -127.5 -23.5t-112 -66.5t-85.5 -102.5t-50 -130.5q-17 -88 3 -155.5t70 -108t123 -50.5l-7 -35h-278l7 33h191z" />
    <glyph glyph-name="estimated" unicode="&#x212e;" horiz-adv-x="770" 
d="M665 138q-75 -65 -156 -105t-166 -40q-98 0 -165.5 42t-96.5 119t-8 185q16 82 51 149.5t87 116.5t118.5 75.5t146.5 26.5q79 0 135.5 -25t90 -69t43.5 -103t-4 -126l-12 -61h-562l-33 -172q29 -61 79 -92t136 -31q54 0 100.5 17t93.5 48t100 74zM627 372l37 185
q-23 54 -73 84t-123 30q-71 0 -137.5 -30t-119.5 -96l-34 -173h450z" />
    <glyph glyph-name="partialdiff" unicode="&#x2202;" horiz-adv-x="539" 
d="M455 288q12 60 3 101.5t-37.5 63.5t-75.5 22q-64 0 -121 -35.5t-97.5 -96t-55.5 -136.5q-18 -92 15 -135.5t101 -43.5q58 0 113 30t96.5 88t58.5 142zM32 202q12 59 40 113t69.5 97.5t94.5 69t116 25.5q39 0 71 -13.5t48.5 -49.5t7.5 -104q16 74 21 138.5t-5 114.5
t-41.5 78t-88.5 28q-17 0 -38 -3t-44 -9l5 28q23 6 45 9t41 3q54 0 91 -22t55.5 -65t19.5 -108t-16 -152q-22 -109 -57.5 -183.5t-80.5 -119.5t-96.5 -64.5t-104.5 -19.5q-60 0 -99 23t-53.5 69.5t-0.5 116.5z" />
    <glyph glyph-name="uni2206" unicode="&#x2206;" horiz-adv-x="660" 
d="M402 700h34l153 -669l-6 -31h-605l6 31zM409 657l-387 -626h529z" />
    <glyph glyph-name="product" unicode="&#x220f;" horiz-adv-x="699" 
d="M131 700h616l-6 -32h-86l-132 -668h-38l133 668h-371l-132 -668h-38l132 668h-85z" />
    <glyph glyph-name="summation" unicode="&#x2211;" horiz-adv-x="475" 
d="M145 700h365l-7 -31h-340l2 12l219 -315l-6 -32l-345 -314v11h343l-6 -31h-365l9 41l334 307l-212 311z" />
    <glyph glyph-name="minus" unicode="&#x2212;" horiz-adv-x="511" 
d="M92 366h373l-6 -33h-373z" />
    <glyph glyph-name="uni2215" unicode="&#x2215;" horiz-adv-x="421" 
d="M470 700h41l-520 -700h-41z" />
    <glyph glyph-name="radical" unicode="&#x221a;" horiz-adv-x="651" 
d="M716 800h32l-580 -800h-15l-71 189l-61 -30l-9 25l95 48l73 -193h-14z" />
    <glyph glyph-name="infinity" unicode="&#x221e;" horiz-adv-x="647" 
d="M47 350q8 41 32.5 71t59.5 46t74 16q38 0 63.5 -17t43 -44t32.5 -57t31.5 -56.5t39 -43.5t56.5 -17q50 0 83.5 28.5t41.5 74.5q10 45 -11 72.5t-70 27.5t-93.5 -35.5t-79.5 -87.5l-12 24q19 30 47.5 60.5t65 51t80.5 19.5q39 0 66.5 -16t38.5 -45.5t3 -70.5
q-8 -43 -32 -73t-59 -45.5t-74 -15.5q-40 0 -66.5 17t-44.5 43.5t-33 56.5t-30.5 57t-37.5 44.5t-55 17.5q-49 0 -82.5 -28.5t-42.5 -74.5t12 -73t70 -27t93.5 34.5t80.5 87.5l12 -24q-19 -30 -48 -60.5t-66 -50.5t-80 -20q-60 0 -90.5 35t-18.5 98z" />
    <glyph glyph-name="integral" unicode="&#x222b;" horiz-adv-x="217" 
d="M226 695q11 34 28 58t41.5 35.5t57.5 11.5h24l-11 -33h-20q-28 0 -48.5 -15t-34.5 -57l-230 -683q-13 -36 -27.5 -61t-37.5 -38t-61 -13h-27l10 33h26q22 0 35.5 6.5t23 24t20.5 48.5z" />
    <glyph glyph-name="approxequal" unicode="&#x2248;" horiz-adv-x="444" 
d="M33 207q18 48 48 75.5t72 27.5q26 0 45.5 -10.5t36 -24t33 -24t36.5 -10.5q30 0 49.5 20.5t28.5 48.5h32q-17 -49 -46 -76.5t-72 -27.5q-26 0 -45 10.5t-35 24.5t-33.5 24.5t-39.5 10.5q-28 0 -48 -21.5t-31 -47.5h-31zM69 391q19 48 49 75.5t71 27.5q26 0 46 -10.5
t36.5 -24t33 -24t36.5 -10.5q29 0 49 21t28 48h32q-16 -49 -45 -76.5t-73 -27.5q-25 0 -44.5 10.5t-35.5 24.5t-33 24.5t-39 10.5q-28 0 -48.5 -21t-30.5 -48h-32z" />
    <glyph glyph-name="notequal" unicode="&#x2260;" horiz-adv-x="659" 
d="M545 553h35l-433 -434h-34zM85 259h493l-7 -33h-493zM122 446h493l-7 -34h-493z" />
    <glyph glyph-name="lessequal" unicode="&#x2264;" horiz-adv-x="486" 
d="M50 140h322l-6 -32h-322zM380 200h-52l-230 196l308 196h51l-313 -203l3 12z" />
    <glyph glyph-name="greaterequal" unicode="&#x2265;" horiz-adv-x="486" 
d="M87 200l313 201l-3 -12l-233 203h52l230 -196l-308 -196h-51zM393 140l-7 -32h-321l6 32h322z" />
    <glyph glyph-name="lozenge" unicode="&#x25ca;" horiz-adv-x="537" 
d="M335 577l180 -227l-272 -227l-182 227zM326 535l-221 -185l146 -184l221 184z" />
    <glyph glyph-name="uniA732" unicode="&#xa732;" horiz-adv-x="1202" 
d="M415 666h-33l-384 -666h-38l403 700h83l125 -700h-39zM109 237h408l-7 -34h-408zM987 666h-32l-384 -666h-39l404 700h83l124 -700h-38zM682 237h408l-7 -34h-408z" />
    <glyph glyph-name="g.ss02" horiz-adv-x="606" 
d="M537 500h36l-78 -390q-13 -67 -41 -123t-70 -97t-95.5 -64.5t-118.5 -25.5t-140 22l16 32q84 -25 153.5 -17t121.5 44t86.5 95t49.5 134l5 25h3q-32 -59 -92.5 -99.5t-142.5 -42.5q-71 0 -117 31t-62.5 89t-0.5 137q15 79 55 136.5t98 89t129 31.5q81 0 124.5 -39
t53.5 -95zM88 250q-13 -70 0.5 -120t52.5 -76.5t102 -26.5q59 0 108.5 27.5t84.5 77.5t48 118q21 102 -21.5 162.5t-131.5 60.5q-62 0 -112 -26.5t-83.5 -76.5t-47.5 -120z" />
    <glyph glyph-name="comma.ss01" horiz-adv-x="173" 
d="M73 47q-1 -13 -2 -25t-3 -23q-11 -53 -36.5 -74t-58.5 -21l4 25q25 0 38 15t19 41l2 10h-36l10 52h63z" />
    <glyph glyph-name="quotedblleft.ss01" horiz-adv-x="257" 
d="M208 559q1 23 3 41t5 33q10 50 34 68.5t59 18.5l-5 -25q-26 0 -38 -12t-18 -36l-4 -27h41l-12 -61h-65zM109 559q1 23 3.5 41t5.5 33q10 50 33.5 68.5t58.5 18.5l-5 -25q-26 0 -38 -12t-17 -36l-5 -27h41l-12 -61h-65z" />
    <glyph glyph-name="quotedblright.ss01" horiz-adv-x="258" 
d="M303 720q-1 -23 -3.5 -41t-4.5 -33q-11 -51 -35 -69t-59 -18l5 25q26 0 38.5 12t17.5 36l5 26h-41l12 62h65zM205 720q-1 -23 -3.5 -41t-5.5 -33q-10 -51 -34 -69t-59 -18l5 25q26 0 38 12t17 36l5 26h-40l12 62h65z" />
    <glyph glyph-name="quoteleft.ss01" horiz-adv-x="159" 
d="M109 559q1 23 3.5 41t5.5 33q10 50 33.5 68.5t58.5 18.5l-5 -25q-26 0 -38 -12t-17 -36l-5 -27h41l-12 -61h-65z" />
    <glyph glyph-name="quoteright.ss01" horiz-adv-x="159" 
d="M205 720q-1 -23 -3.5 -41t-5.5 -33q-10 -51 -34 -69t-59 -18l5 25q26 0 38 12t17 36l5 26h-40l12 62h65z" />
    <glyph glyph-name="ampersand.ss03" horiz-adv-x="676" 
d="M499 614q-14 29 -47 44t-77 15q-77 0 -129 -39t-66 -107q-13 -66 37.5 -102.5t165.5 -36.5h259l-6 -35h-259q-120 0 -190.5 -42t-87.5 -129q-14 -72 24.5 -112.5t121.5 -40.5q98 0 156.5 44.5t76.5 133.5l52 260h37l-51 -260q-21 -105 -91.5 -159.5t-185.5 -54.5
q-101 0 -148.5 50t-30.5 137q16 82 71 129.5t142 59.5l1 5q-74 8 -109 51.5t-23 104.5q11 54 44 93.5t83 61.5t112 22q55 0 93.5 -18.5t58.5 -53.5zM533 635l-34 -21z" />
    <glyph glyph-name="ampersand.ss04" horiz-adv-x="688" 
d="M476 564q7 36 -5.5 60.5t-37 37t-55.5 12.5q-55 0 -95.5 -29.5t-50.5 -78.5q-7 -37 6.5 -69.5t41.5 -69.5l331 -427h-48l-316 406q-34 43 -47.5 79.5t-5.5 79.5q9 43 35.5 75t67 49.5t88.5 17.5q42 0 75 -17.5t48 -49t6 -76.5h-38zM285 396l-30 -10q-80 -27 -126 -72.5
t-59 -110.5q-10 -51 6.5 -90.5t56 -62.5t95.5 -23q64 0 120 25.5t111.5 78.5t120.5 135l74 95h41l-88 -111q-70 -89 -130.5 -145.5t-122 -84t-133.5 -27.5q-68 0 -114.5 26.5t-66.5 73.5t-8 110q16 77 72 128.5t143 83.5l22 8z" />
    <glyph glyph-name="ampersand.ss05" horiz-adv-x="688" 
d="M476 564q8 36 -4.5 60.5t-37.5 37t-56 12.5q-55 0 -95.5 -29.5t-50.5 -78.5q-7 -37 6.5 -69.5t41.5 -69.5l331 -427h-48l-316 406q-34 43 -47.5 79.5t-5.5 79.5q9 43 35.5 75t67 49.5t88.5 17.5q42 0 75 -17.5t48.5 -49t5.5 -76.5q-9 -39 -38.5 -71t-75.5 -55.5
t-105 -38.5l-18 27q84 22 136.5 56.5t62.5 81.5zM285 396l-30 -10q-80 -27 -126 -72.5t-59 -110.5q-10 -51 6.5 -90.5t56 -62.5t95.5 -23q64 0 120 25.5t111.5 78.5t120.5 135l74 95h41l-88 -111q-70 -89 -130.5 -145.5t-122 -84t-133.5 -27.5q-68 0 -114.5 26.5t-66.5 73.5
t-8 110q16 77 72 128.5t143 83.5l22 8z" />
    </font>
</defs>
</svg>
