<?xml version="1.0" standalone="no"?>
<!DOCTYPE svg PUBLIC "-//W3C//DTD SVG 1.1//EN" "http://www.w3.org/Graphics/SVG/1.1/DTD/svg11.dtd" >
<svg xmlns="http://www.w3.org/2000/svg" xmlns:xlink="http://www.w3.org/1999/xlink" version="1.1">
<metadata>
Created by FontForge 20201107 at Mon May 23 15:50:47 2022
 By www-data
Copyright 2021 The Albert Sans Project Authors (https://github.com/usted/Albert-Sans)
</metadata>
<defs>
<font id="AlbertSans-ThinItalic" horiz-adv-x="604" >
  <font-face 
    font-family="Albert Sans Thin"
    font-weight="250"
    font-style="italic"
    font-stretch="normal"
    units-per-em="1000"
    panose-1="0 0 0 0 0 0 0 0 0 0"
    ascent="800"
    descent="-200"
    x-height="500"
    cap-height="700"
    bbox="-121 -254 1223 935"
    underline-thickness="50"
    underline-position="-125"
    slope="-11.25"
    unicode-range="U+0020-FB01"
  />
<missing-glyph horiz-adv-x="678" 
d="M36 0l139 700h507l-139 -700h-507zM130 70h347l111 560h-347z" />
    <glyph glyph-name="fi" unicode="fi" horiz-adv-x="511" 
d="M474 626q-10 0 -16.5 7t-3.5 20q2 13 11.5 20t19.5 7q11 0 17 -7t4 -20q-3 -13 -12 -20t-20 -7zM459 501l-99 -501h-22l95 479h-349l4 22h371zM188 569q15 74 59 116.5t135 34.5l-4 -22q-81 6 -118 -28.5t-50 -100.5l-113 -569h-22z" />
    <glyph glyph-name=".notdef" horiz-adv-x="678" 
d="M36 0l139 700h507l-139 -700h-507zM130 70h347l111 560h-347z" />
    <glyph glyph-name=".null" horiz-adv-x="0" 
 />
    <glyph glyph-name="nonmarkingreturn" horiz-adv-x="333" 
 />
    <glyph glyph-name="space" unicode=" " horiz-adv-x="280" 
 />
    <glyph glyph-name="exclam" unicode="!" horiz-adv-x="218" 
d="M182 700h26l-111 -542h-20zM59 0q-10 0 -15.5 7t-2.5 17q2 11 10 18t18 7t15.5 -7t3.5 -18q-3 -10 -11 -17t-18 -7z" />
    <glyph glyph-name="quotedbl" unicode="&#x22;" horiz-adv-x="233" 
d="M147 700h33l-44 -180h-17zM233 700h33l-43 -180h-17z" />
    <glyph glyph-name="numbersign" unicode="#" horiz-adv-x="754" 
d="M394 700h22l-92 -225h250l92 225h22l-92 -225h155l-4 -20h-159l-77 -189h155l-4 -19h-159l-101 -247h-22l101 247h-250l-101 -247h-22l101 247h-162l4 19h166l77 189h-163l4 20h167zM239 266h250l77 189h-250z" />
    <glyph glyph-name="dollar" unicode="$" horiz-adv-x="544" 
d="M367 775h21l-169 -850h-21zM56 147q1 -29 16 -60t52 -52t106 -21q94 0 149.5 43t69.5 111q10 53 -9.5 86.5t-59 54t-89.5 36.5q-39 12 -74 25t-60 32t-35.5 48t-2.5 73q11 54 44.5 95.5t85 65t115.5 23.5q59 0 96.5 -19t56.5 -48.5t22 -60.5l-20 -7q-3 24 -19.5 51
t-50.5 45.5t-88 18.5q-51 0 -97 -18.5t-79 -54.5t-43 -87q-10 -52 10.5 -81.5t61 -47t90.5 -33.5q40 -12 74 -27.5t58 -37t34 -53.5t1 -77q-9 -47 -37.5 -87.5t-79.5 -65t-127 -24.5q-69 0 -110.5 20t-60.5 53.5t-21 72.5z" />
    <glyph glyph-name="percent" unicode="%" horiz-adv-x="678" 
d="M122 577q7 38 29.5 67t54.5 46t69 17q55 0 84 -37t18 -93q-7 -37 -29.5 -66t-55 -46t-69.5 -17q-54 0 -83 37t-18 92zM271 688q-46 0 -82 -31.5t-46 -79.5t14 -79t70 -31q47 0 82.5 31t45.5 79t-13.5 79.5t-70.5 31.5zM627 700h25l-562 -700h-25zM341 122q7 38 29.5 67
t54.5 46t68 17q56 0 85 -37t18 -93q-8 -37 -30.5 -66t-54.5 -46t-69 -17q-55 0 -84 37t-17 92zM490 233q-47 0 -83 -31.5t-45 -79.5q-10 -47 13.5 -78.5t70.5 -31.5t82.5 31.5t45.5 78.5q9 48 -14 79.5t-70 31.5z" />
    <glyph glyph-name="ampersand" unicode="&#x26;" horiz-adv-x="720" 
d="M519 630q-24 30 -62.5 43.5t-82.5 13.5q-86 0 -139.5 -43.5t-67.5 -111.5q-10 -49 8 -85t68.5 -55t137.5 -19h206l-4 -21h-205q-120 0 -198.5 -42.5t-95.5 -130.5q-9 -45 4 -82.5t50.5 -59.5t102.5 -22q96 0 152 43.5t77 145.5l20 101h22l-20 -101q-16 -79 -51 -125.5
t-86.5 -66t-117.5 -19.5q-75 0 -116.5 25.5t-55 68t-3.5 92.5q17 84 79 128t143 53l1 6q-65 6 -97.5 31.5t-41 62t-1.5 73.5q10 49 40.5 88.5t79 62.5t113.5 23q56 0 96.5 -16.5t64.5 -47.5zM539 643l-20 -13zM476 372q10 0 16.5 4t11 10.5t5.5 15.5l19 93h22l-25 -123h-15
l-3 -20h15l-44 -218q-10 -50 18 -83.5t79 -33.5q8 0 17 1t19 3l-4 -18q-11 -3 -21.5 -4.5t-20.5 -1.5q-37 0 -64.5 17.5t-40 48.5t-4.5 71l44 218h-82l3 20h55z" />
    <glyph glyph-name="quotesingle" unicode="'" horiz-adv-x="163" 
d="M151 700h40l-47 -180h-17z" />
    <glyph glyph-name="parenleft" unicode="(" horiz-adv-x="350" 
d="M198 -100q-44 59 -77 123t-44 143.5t9 183.5q21 104 64 183t101.5 144t126.5 123h25l-1 -4q-81 -69 -140 -137.5t-97.5 -143.5t-56.5 -165t-9.5 -165t40.5 -143t85 -138l-1 -4h-25z" />
    <glyph glyph-name="parenright" unicode=")" horiz-adv-x="351" 
d="M13 -100h-25l1 4q81 70 140 138t97 143t56 165t9.5 165t-40.5 143.5t-85 137.5v4h25q45 -58 78 -123t44 -144t-9 -183q-21 -104 -63.5 -183.5t-101 -143.5t-126.5 -123z" />
    <glyph glyph-name="asterisk" unicode="*" horiz-adv-x="462" 
d="M301 560l160 83l7 -20l-163 -78l134 -77l-15 -20l-129 82l-32 -170h-21l36 170l-161 -82l-7 20l164 77l-131 78l15 20l126 -83l32 168h21z" />
    <glyph glyph-name="plus" unicode="+" horiz-adv-x="651" 
d="M407 605l-102 -510h-21l102 510h21zM93 359h509l-4 -19h-509z" />
    <glyph glyph-name="comma" unicode="," horiz-adv-x="219" 
d="M89 94h28l-134 -249h-21z" />
    <glyph glyph-name="hyphen" unicode="-" horiz-adv-x="507" 
d="M79 290h365l-4 -20h-365z" />
    <glyph glyph-name="period" unicode="." horiz-adv-x="190" 
d="M44 -2q-10 0 -15 7t-3 17q2 11 10 18t18 7t15.5 -7t3.5 -17q-2 -11 -10 -18t-19 -7z" />
    <glyph glyph-name="slash" unicode="/" horiz-adv-x="263" 
d="M349 800h23l-420 -900h-22z" />
    <glyph glyph-name="zero" unicode="0" horiz-adv-x="601" 
d="M96 350q15 76 37 141t55 113.5t82.5 75.5t120.5 27q70 0 109 -27t53.5 -75.5t10.5 -113.5t-19 -141q-15 -77 -37 -142t-55.5 -113.5t-83.5 -75t-120 -26.5q-71 0 -109.5 27t-52.5 75t-10 113.5t19 141.5zM523 350q14 72 18.5 133.5t-7.5 107t-47 71t-100 25.5t-110 -25.5
t-75 -71t-50 -107t-34 -133.5q-15 -73 -19.5 -134.5t8 -107t47 -70.5t99.5 -25t110 25t75.5 70.5t50 107t34.5 134.5z" />
    <glyph glyph-name="one" unicode="1" horiz-adv-x="270" 
d="M239 680h-106l4 20h128l-139 -700h-22z" />
    <glyph glyph-name="two" unicode="2" 
d="M17 13l277 222q82 66 133 113t77 86t35 82q15 77 -25 124t-122 47q-66 0 -117 -28t-83.5 -76t-44.5 -107h-22q14 72 53 123.5t95.5 79.5t122.5 28q61 0 102 -24t57.5 -67t5.5 -100q-9 -44 -35 -85t-78 -89.5t-136 -116.5l-256 -205h429l-4 -20h-467z" />
    <glyph glyph-name="three" unicode="3" horiz-adv-x="594" 
d="M128 512q18 60 55.5 103.5t92 67.5t122.5 24q65 0 104.5 -23t54 -62.5t5.5 -88.5q-8 -37 -30.5 -73.5t-65.5 -62t-111 -31.5l-1 -6q52 -6 90 -27.5t54.5 -59.5t5.5 -94q-10 -50 -40.5 -92.5t-82 -68t-126.5 -25.5q-71 0 -118 20t-69 65t-15 119h22q-8 -93 37 -137.5
t148 -44.5q65 0 111 22t74 59.5t37 82.5q18 88 -43.5 130.5t-181.5 42.5h-17l4 21h18q87 0 145 19t90.5 55t41.5 85q14 68 -22.5 111.5t-122.5 43.5q-49 0 -97.5 -17.5t-87 -55.5t-59.5 -102h-22z" />
    <glyph glyph-name="four" unicode="4" horiz-adv-x="649" 
d="M431 189h-396l4 18l493 493h23l-98 -491h121l-4 -20h-121l-37 -189h-22zM435 209l91 457l-460 -457h369z" />
    <glyph glyph-name="five" unicode="5" horiz-adv-x="615" 
d="M600 700l-4 -20h-401l-63 -313q37 41 97.5 67.5t127.5 26.5q62 0 102 -18.5t61 -50.5t25.5 -72t-4.5 -84q-12 -62 -46.5 -117.5t-92.5 -90.5t-142 -35q-63 0 -108 24t-67.5 68.5t-20.5 106.5h22q0 -88 48.5 -132.5t128.5 -44.5q73 0 125.5 29t85.5 79t45 113
q19 94 -23.5 149.5t-143.5 55.5q-69 0 -129 -29t-100 -80h-20l74 368h423z" />
    <glyph glyph-name="six" unicode="6" horiz-adv-x="602" 
d="M254 -7q-77 0 -124.5 32.5t-64.5 87t-5 118.5q9 44 29.5 84t58.5 84l256 301h24l-259 -306l-78 -91q35 74 102.5 118.5t154.5 44.5q72 0 120 -29.5t67.5 -82.5t5.5 -123t-54.5 -124t-100.5 -84t-132 -30zM83 233q-13 -65 4.5 -114.5t61 -77.5t109.5 -28q65 0 119.5 28
t92 77t49.5 113q13 64 -5 112t-61.5 75.5t-108.5 27.5t-120 -27t-92 -75t-49 -111z" />
    <glyph glyph-name="seven" unicode="7" horiz-adv-x="548" 
d="M590 700l-4 -19l-415 -681h-23l419 680h-434l4 20h453z" />
    <glyph glyph-name="eight" unicode="8" horiz-adv-x="635" 
d="M264 369q-78 17 -104.5 61t-15.5 102q11 52 46 91.5t90.5 61.5t127.5 22t119 -22t66.5 -61.5t8.5 -91.5q-11 -58 -55 -102t-129 -61q77 -13 114 -59t23 -119q-12 -61 -50.5 -105.5t-99 -68.5t-139.5 -24t-129.5 24t-71 68.5t-8.5 105.5q14 73 69 119t138 59zM580 531
q16 77 -33.5 116.5t-142.5 39.5q-92 0 -157 -39.5t-81 -116.5q-15 -75 33.5 -114t143.5 -39t158.5 39t78.5 114zM339 359q-60 0 -115 -16t-94 -53t-51 -99q-18 -88 35.5 -133t155.5 -45t173.5 45.5t89.5 132.5q12 62 -12 99t-72.5 53t-109.5 16z" />
    <glyph glyph-name="nine" unicode="9" horiz-adv-x="602" 
d="M388 707q77 0 124.5 -32.5t64.5 -86.5t5 -119q-9 -43 -29.5 -83.5t-58.5 -84.5l-256 -301h-24l259 306l78 91q-36 -74 -103 -118.5t-154 -44.5q-72 0 -120 29.5t-67.5 82.5t-5.5 123q14 71 54.5 124.5t100.5 83.5t132 30zM559 467q13 65 -4.5 114.5t-61.5 77.5t-109 28
t-119.5 -28t-92 -77t-49.5 -113q-13 -63 4.5 -111.5t61.5 -76t109 -27.5t120 27t92 75.5t49 110.5z" />
    <glyph glyph-name="colon" unicode=":" horiz-adv-x="199" 
d="M50 -2q-11 0 -16 7t-3 17q2 11 10 18t18 7t15.5 -7t3.5 -18q-2 -10 -10 -17t-18 -7zM140 450q-11 0 -16 7t-3 17q2 11 10 18t18 7t15.5 -7t3.5 -18q-2 -10 -10 -17t-18 -7z" />
    <glyph glyph-name="semicolon" unicode=";" horiz-adv-x="236" 
d="M176 452q-10 0 -15.5 7t-2.5 17q2 11 10 18t18 7t15.5 -7t3.5 -18q-3 -10 -11 -17t-18 -7zM93 94h28l-133 -249h-21z" />
    <glyph glyph-name="less" unicode="&#x3c;" horiz-adv-x="469" 
d="M347 113h-28l-228 237l322 237h28l-323 -237z" />
    <glyph glyph-name="equal" unicode="=" horiz-adv-x="656" 
d="M86 251h485l-4 -20h-485zM121 429h485l-4 -20h-485z" />
    <glyph glyph-name="greater" unicode="&#x3e;" horiz-adv-x="469" 
d="M390 350l-228 237h28l228 -237l-322 -237h-28z" />
    <glyph glyph-name="question" unicode="?" horiz-adv-x="543" 
d="M360 707q61 0 103.5 -25t61 -69t6.5 -103q-16 -81 -59 -128.5t-106 -67.5t-140 -21l-31 -144h-18l31 163h16q44 0 89 7t84.5 27t69 59.5t42.5 104.5q16 82 -27.5 129.5t-125.5 47.5q-85 0 -144 -46t-74 -123h-21q12 61 47.5 103t87 64t108.5 22zM157 -2q-9 0 -14.5 7
t-3.5 17q2 11 10 18t18 7q11 0 16 -7t3 -18q-2 -10 -10 -17t-19 -7z" />
    <glyph glyph-name="at" unicode="@" horiz-adv-x="949" 
d="M592 164l7 -10q-41 -76 -106.5 -117.5t-131.5 -41.5q-75 0 -107.5 46t-17.5 122q11 54 37.5 103t65.5 87.5t87 61t100 22.5q67 0 100.5 -41t16.5 -118l-12 -9l57 153h19l-110 -295q-18 -49 -7 -81t51 -32q37 0 71.5 24.5t63 64.5t49 89t30.5 98q19 95 -8.5 166t-95 110
t-167.5 39q-94 0 -181 -36t-159 -99t-121.5 -146t-68.5 -177q-20 -98 7 -168.5t93.5 -108t164.5 -37.5q44 0 87 8.5t84 23.5l1 -19q-43 -15 -89.5 -23.5t-91.5 -8.5q-102 0 -171.5 40t-98.5 113.5t-9 174.5q20 102 72 189.5t128 153.5t168 102.5t192 36.5q104 0 175 -42
t101 -116.5t11 -171.5q-11 -56 -34 -109t-55 -96t-71.5 -68.5t-82.5 -25.5q-52 0 -64.5 38t7.5 93zM521 418q-49 0 -92.5 -21t-78.5 -57t-58.5 -81.5t-33.5 -93.5q-14 -70 15.5 -110.5t95.5 -40.5q47 0 93 23t85 68t65 112q21 55 19.5 100.5t-28.5 73t-82 27.5z" />
    <glyph glyph-name="A" unicode="A" horiz-adv-x="613" 
d="M409 680h-32l-395 -680h-22l407 700h59l128 -700h-22zM99 230h408l-4 -20h-408z" />
    <glyph glyph-name="B" unicode="B" horiz-adv-x="634" 
d="M588 525q8 44 -4 79t-49 55.5t-102 20.5h-230l-62 -310h236q88 0 142.5 42.5t68.5 112.5zM45 0l140 700h253q73 0 114 -23.5t54 -63t4 -87.5q-10 -50 -35.5 -84t-60 -53.5t-70.5 -26.5l-1 -5q60 -10 94.5 -56t20.5 -116q-10 -51 -42.5 -93t-87 -67t-130.5 -25h-253z
M71 20h231q95 0 157 44.5t77 120.5t-30 120.5t-140 44.5h-229z" />
    <glyph glyph-name="C" unicode="C" horiz-adv-x="759" 
d="M67 350q16 79 53.5 144.5t91 113t119 73.5t136.5 26q122 0 189 -54t87 -145l-20 -7q-10 54 -42 96t-86.5 66t-131.5 24q-84 0 -162 -40.5t-134.5 -115.5t-77.5 -181q-20 -105 6.5 -180.5t88 -116t145.5 -40.5q78 -1 143.5 24.5t115.5 70.5t81 100l17 -7
q-56 -94 -146 -151t-215 -57q-71 0 -126 26t-90 74t-46 113.5t4 143.5z" />
    <glyph glyph-name="D" unicode="D" horiz-adv-x="719" 
d="M390 700q122 0 196.5 -41.5t101 -119.5t4.5 -189t-79.5 -189t-148.5 -119.5t-214 -41.5h-205l140 700h205zM254 20q176 0 280.5 88.5t135.5 241.5q30 153 -39 241.5t-245 88.5h-183l-132 -660h183z" />
    <glyph glyph-name="E" unicode="E" 
d="M615 680h-412l-62 -310h309l-4 -20h-309l-66 -330h412l-4 -20h-434l140 700h434z" />
    <glyph glyph-name="F" unicode="F" horiz-adv-x="579" 
d="M185 700h434l-4 -20h-412l-62 -310h309l-4 -20h-309l-70 -350h-22z" />
    <glyph glyph-name="G" unicode="G" horiz-adv-x="763" 
d="M720 502q-17 80 -80.5 132.5t-168.5 52.5q-87 0 -166.5 -40.5t-137 -116t-78.5 -180.5q-20 -105 7 -180.5t90.5 -116t150.5 -40.5q71 0 137 27.5t120.5 78.5t88.5 123l19 97h-300l4 20h322l-23 -119q-35 -74 -92 -130t-128.5 -86.5t-151.5 -30.5q-73 0 -129.5 26
t-92.5 73.5t-47.5 113t3.5 144.5q16 79 54 144.5t92.5 113t121.5 73.5t140 26q74 0 128.5 -24.5t88 -69t47.5 -104.5z" />
    <glyph glyph-name="H" unicode="H" horiz-adv-x="681" 
d="M185 700h22l-66 -330h447l66 330h22l-140 -700h-22l70 350h-447l-70 -350h-22z" />
    <glyph glyph-name="I" unicode="I" horiz-adv-x="212" 
d="M185 700h22l-140 -700h-22z" />
    <glyph glyph-name="J" unicode="J" horiz-adv-x="472" 
d="M449 700h22l-108 -545q-8 -41 -34 -78.5t-65.5 -60.5t-89.5 -23q-70 0 -103 38t-31 105l22 7q-1 -35 8.5 -65t35 -47.5t72.5 -17.5q52 0 86 23.5t52.5 56.5t24.5 62z" />
    <glyph glyph-name="K" unicode="K" horiz-adv-x="541" 
d="M185 700h22l-66 -330h34l412 330h30l-424 -340l284 -360h-30l-276 350h-34l-70 -350h-22z" />
    <glyph glyph-name="L" unicode="L" horiz-adv-x="498" 
d="M207 700l-136 -680h349l-4 -20h-371l140 700h22z" />
    <glyph glyph-name="M" unicode="M" horiz-adv-x="819" 
d="M67 0h-22l140 700h22l159 -671l426 671h22l-140 -700h-22l129 647l-411 -647h-21l-153 647z" />
    <glyph glyph-name="N" unicode="N" horiz-adv-x="681" 
d="M676 700l-140 -700h-21l-316 661l-132 -661h-22l140 700h21l316 -661l132 661h22z" />
    <glyph glyph-name="O" unicode="O" horiz-adv-x="768" 
d="M333 -7q-73 0 -129.5 26t-92.5 73.5t-47.5 113t3.5 144.5q16 79 54 144.5t92.5 113t121.5 73.5t140 26q74 0 130 -26t92 -73.5t47.5 -113t-4.5 -144.5q-15 -79 -53 -144.5t-92.5 -113t-121 -73.5t-140.5 -26zM337 13q87 0 166 40.5t136.5 116t77.5 180.5q21 105 -6 180.5
t-90 116t-150 40.5t-166.5 -40.5t-136.5 -116t-78 -180.5q-20 -105 7 -180.5t90 -116t150 -40.5z" />
    <glyph glyph-name="P" unicode="P" horiz-adv-x="578" 
d="M319 325q75 0 124.5 23t77 63.5t37.5 91.5q11 54 -1 94t-52 61.5t-115 21.5h-187l-71 -355h187zM580 503q-12 -64 -47 -108t-90 -67t-128 -23h-187l-61 -305h-22l140 700h209q84 0 128.5 -25t57 -69.5t0.5 -102.5z" />
    <glyph glyph-name="Q" unicode="Q" horiz-adv-x="768" 
d="M347 102h22l-41 -202h-22zM333 -7q-73 0 -129.5 26t-92.5 73.5t-47.5 113t3.5 144.5q16 79 54 144.5t92.5 113t121.5 73.5t140 26q74 0 130 -26t92 -73.5t47.5 -113t-4.5 -144.5q-15 -79 -53 -144.5t-92.5 -113t-121 -73.5t-140.5 -26zM337 13q87 0 166 40.5t136.5 116
t77.5 180.5q21 105 -6 180.5t-90 116t-150 40.5t-166.5 -40.5t-136.5 -116t-78 -180.5q-20 -105 7 -180.5t90 -116t150 -40.5z" />
    <glyph glyph-name="R" unicode="R" horiz-adv-x="588" 
d="M558 503q11 54 -1.5 93.5t-53 61.5t-115.5 22h-185l-71 -355h187q107 0 165.5 51t73.5 127zM392 700q84 0 129 -25t58 -69.5t1 -102.5q-12 -63 -47 -107.5t-90 -67.5t-128 -23h-187l-61 -305h-22l140 700h207zM356 313l134 -313h-25l-134 313h25z" />
    <glyph glyph-name="S" unicode="S" horiz-adv-x="544" 
d="M56 147q1 -29 16 -60t52 -52t106 -21q94 0 149.5 43t69.5 111q10 53 -9.5 86.5t-59 54t-89.5 36.5q-39 12 -74 25t-60 32t-35.5 48t-2.5 73q11 54 44.5 95.5t85 65t115.5 23.5q59 0 96.5 -19t56.5 -48.5t22 -60.5l-20 -7q-3 24 -19.5 51t-50.5 45.5t-88 18.5
q-51 0 -97 -18.5t-79 -54.5t-43 -87q-10 -52 10.5 -81.5t61 -47t90.5 -33.5q40 -12 74 -27.5t58 -37t34 -53.5t1 -77q-9 -47 -37.5 -87.5t-79.5 -65t-127 -24.5q-69 0 -110.5 20t-60.5 53.5t-21 72.5z" />
    <glyph glyph-name="T" unicode="T" horiz-adv-x="586" 
d="M137 700h491l-4 -20h-234l-135 -680h-22l135 680h-235z" />
    <glyph glyph-name="U" unicode="U" horiz-adv-x="672" 
d="M180 700h22l-87 -435q-18 -92 2 -147.5t66.5 -80t107.5 -24.5t116 24.5t96 80t59 147.5l87 435h22l-87 -435q-14 -72 -42.5 -123.5t-68 -84.5t-87 -48.5t-99.5 -15.5q-69 0 -119.5 28t-72 88t-2.5 156z" />
    <glyph glyph-name="V" unicode="V" horiz-adv-x="624" 
d="M658 700h24l-409 -700h-22l-130 700h25l122 -668z" />
    <glyph glyph-name="W" unicode="W" horiz-adv-x="900" 
d="M192 0h-21l-50 700h25l45 -659l337 659h24l75 -659l307 659h24l-329 -700h-21l-75 664z" />
    <glyph glyph-name="X" unicode="X" horiz-adv-x="649" 
d="M153 700h25l170 -333l302 333h25l-320 -350l181 -350h-25l-170 333l-302 -333h-25l319 350z" />
    <glyph glyph-name="Y" unicode="Y" horiz-adv-x="583" 
d="M619 700h22l-329 -406l-58 -294h-22l58 294l-169 406h24l161 -384z" />
    <glyph glyph-name="Z" unicode="Z" horiz-adv-x="585" 
d="M597 679l-555 -658h434l-4 -21h-458l4 20l554 658h-412l5 22h436z" />
    <glyph glyph-name="bracketleft" unicode="[" horiz-adv-x="244" 
d="M200 800h97l-4 -20h-75l-171 -860h75l-4 -20h-97z" />
    <glyph glyph-name="backslash" unicode="\" horiz-adv-x="266" 
d="M196 -100h-23l-64 900h25z" />
    <glyph glyph-name="bracketright" unicode="]" horiz-adv-x="244" 
d="M263 800l-179 -900h-97l4 20h75l171 860h-75l4 20h97z" />
    <glyph glyph-name="asciicircum" unicode="^" horiz-adv-x="598" 
d="M383 668l-299 -418h-22l319 450h14l141 -450h-22z" />
    <glyph glyph-name="underscore" unicode="_" horiz-adv-x="451" 
d="M0 -30h455l-4 -20h-455z" />
    <glyph glyph-name="grave" unicode="`" horiz-adv-x="216" 
d="M112 740l160 -134l-4 -21l-161 130z" />
    <glyph glyph-name="a" unicode="a" horiz-adv-x="524" 
d="M375 0l28 138q-33 -70 -92 -107.5t-139 -37.5q-54 0 -89 15.5t-49 45.5t-5 74q12 62 66.5 99t157.5 48l181 20l9 46q15 72 -19 109t-110 37q-72 0 -124.5 -33t-78.5 -94l-18 7q31 69 87.5 104.5t135.5 35.5q88 0 127 -41t24 -117l-70 -349h-22zM430 274l-182 -19
q-94 -10 -140.5 -41t-56.5 -85q-11 -56 20.5 -86.5t101.5 -30.5q64 0 115 26.5t85.5 75.5t47.5 117z" />
    <glyph glyph-name="b" unicode="b" horiz-adv-x="601" 
d="M127 354q31 65 92.5 109t148.5 44q70 0 116 -32t63.5 -89.5t1.5 -135.5q-15 -78 -55.5 -136t-99 -89.5t-129.5 -31.5q-81 0 -126.5 43.5t-51.5 108.5l-29 -145h-22l143 720h22l-73 -369zM527 250q22 109 -22 173t-141 64q-64 0 -117 -30t-89.5 -83.5t-50.5 -123.5
q-13 -70 2 -123.5t56 -83.5t104 -30q65 0 118 29t89.5 82t50.5 126z" />
    <glyph glyph-name="c" unicode="c" horiz-adv-x="553" 
d="M239 -7q-73 0 -120 31.5t-65 89t-3 135.5q16 77 57 135.5t100.5 90.5t131.5 32q76 0 125 -36.5t58 -99.5l-20 -6q-9 57 -53.5 89.5t-113.5 32.5q-65 0 -119.5 -29.5t-92 -83t-51.5 -125.5q-21 -108 24.5 -172t145.5 -64q66 0 121 30.5t94 89.5l19 -5q-41 -65 -102.5 -100
t-135.5 -35z" />
    <glyph glyph-name="d" unicode="d" horiz-adv-x="601" 
d="M515 354l-2 -3l74 369h22l-143 -720h-22l28 145q-32 -65 -94.5 -108.5t-144.5 -43.5q-70 0 -116.5 31.5t-63.5 89.5t-2 136q16 78 56.5 135.5t99 89.5t128.5 32q87 0 131 -44t49 -109zM73 250q-21 -109 23 -173t141 -64q63 0 116 30t89.5 83.5t50.5 123.5t-1 123.5
t-56 83.5t-105 30t-117 -29t-89.5 -82t-51.5 -126z" />
    <glyph glyph-name="e" unicode="e" horiz-adv-x="554" 
d="M229 -7q-68 0 -113 33t-62 92t-2 137q15 74 55.5 131t98.5 89t125 32q64 0 108.5 -28.5t64 -77t6.5 -110.5q-1 -7 -3 -18t-5 -23h-429q-13 -70 3 -123.5t56.5 -83.5t100.5 -30q70 0 128 32t94 91l16 -7q-38 -65 -101.5 -100.5t-140.5 -35.5zM484 270q15 64 0 113
t-55 76.5t-102 27.5q-58 0 -109.5 -28t-88.5 -77t-52 -112h407z" />
    <glyph glyph-name="f" unicode="f" horiz-adv-x="327" 
d="M188 569q15 74 59 116t135 34l-4 -21q-81 6 -118 -28.5t-50 -100.5l-14 -69h142l-4 -22h-142l-95 -478h-22l95 478h-86l4 22h86z" />
    <glyph glyph-name="g" unicode="g" horiz-adv-x="601" 
d="M543 500h22l-76 -383q-20 -102 -74.5 -172.5t-139.5 -107.5t-196 -37l1 20q160 1 259 77t128 220l6 30h1q-32 -63 -92.5 -107.5t-149.5 -46.5q-70 0 -116 31.5t-63 89.5t-2 136q16 78 56 135.5t98.5 89.5t128.5 32q60 0 98.5 -21t58.5 -55t24 -74zM73 250
q-22 -110 22.5 -173.5t142.5 -63.5q63 0 115.5 30.5t89 84t50.5 122.5q14 70 -1 123.5t-56 83.5t-104 30q-65 0 -118 -29t-89.5 -82t-51.5 -126z" />
    <glyph glyph-name="h" unicode="h" horiz-adv-x="561" 
d="M179 720h22l-70 -351q32 69 89 103.5t125 34.5q55 0 93.5 -23t53.5 -73t-1 -130l-56 -281h-22l56 282q20 99 -14 152t-115 53q-84 0 -146.5 -60t-85.5 -176l-50 -251h-22z" />
    <glyph glyph-name="i" unicode="i" horiz-adv-x="215" 
d="M146 500h22l-99 -500h-22zM184 635q-9 0 -14.5 6t-3.5 16q3 11 10.5 17t16.5 6t14.5 -6t2.5 -17q-2 -10 -9.5 -16t-16.5 -6z" />
    <glyph glyph-name="j" unicode="j" horiz-adv-x="212" 
d="M44 -21q-15 -71 -57.5 -112.5t-106.5 -46.5l-1 -20q42 3 80.5 23t66.5 59t40 97l103 521h-22zM185 635q-9 0 -14.5 6t-3.5 16q3 11 10.5 17t16.5 6t14.5 -6t2.5 -17q-2 -10 -9.5 -16t-16.5 -6z" />
    <glyph glyph-name="k" unicode="k" horiz-adv-x="454" 
d="M179 720h22l-91 -457h61l281 237h30l-296 -247l201 -253h-30l-190 243h-61l-48 -243h-22z" />
    <glyph glyph-name="l" unicode="l" horiz-adv-x="193" 
d="M177 711h22l-141 -711h-22z" />
    <glyph glyph-name="m" unicode="m" horiz-adv-x="908" 
d="M135 500h22l-25 -129q27 59 76.5 97t125.5 38q64 0 104.5 -36t42.5 -111q33 78 90 112.5t124 34.5q53 0 90.5 -24t52.5 -73.5t0 -127.5l-56 -281h-22l56 282q20 99 -13.5 151.5t-111.5 52.5q-79 0 -139.5 -59.5t-83.5 -176.5l-50 -250h-22l56 282q20 99 -12.5 151.5
t-110.5 52.5q-80 0 -139 -59.5t-82 -176.5l-50 -250h-22z" />
    <glyph glyph-name="n" unicode="n" horiz-adv-x="562" 
d="M135 500h22l-26 -130q29 63 82 100t131 37q54 0 93 -24t54.5 -73.5t0.5 -127.5l-56 -282h-22l56 283q20 99 -15.5 152t-115.5 53q-84 0 -145.5 -58t-84.5 -174l-51 -256h-22z" />
    <glyph glyph-name="o" unicode="o" horiz-adv-x="581" 
d="M240 -7q-69 0 -117 31t-68 88.5t-4 137.5q16 79 59 137t103 89t129 31t116.5 -31t67 -89t3.5 -137q-16 -80 -58 -137.5t-102 -88.5t-129 -31zM244 13q56 0 110.5 25.5t95.5 78t57 133.5t-4 133.5t-64.5 78t-100.5 25.5t-110.5 -25.5t-96 -78t-57.5 -133.5t4.5 -133.5
t65 -78t100.5 -25.5z" />
    <glyph glyph-name="p" unicode="p" horiz-adv-x="601" 
d="M86 147l1 2l-69 -349h-22l139 700h22l-28 -143q20 41 53.5 75t80.5 54.5t105 20.5q70 0 116 -31.5t63.5 -89t1.5 -136.5q-15 -78 -55 -135.5t-98.5 -89.5t-129.5 -32q-84 0 -129.5 44.5t-50.5 109.5zM527 250q22 109 -22 173t-141 64q-64 0 -117 -30t-89.5 -83.5
t-50.5 -123.5q-13 -70 2 -123.5t56.5 -83.5t104.5 -30q65 0 118 29t89 82t50 126z" />
    <glyph glyph-name="q" unicode="q" horiz-adv-x="601" 
d="M474 147q-31 -65 -94 -109.5t-148 -44.5q-70 0 -116 32t-63 89.5t-2 135.5q16 79 56.5 136.5t99 89t128.5 31.5q58 0 96.5 -20.5t59 -54.5t24.5 -75l28 143h22l-139 -700h-22l69 349zM73 250q-21 -109 23 -173t140 -64q64 0 117 30t89.5 83.5t50.5 123.5t-1 123.5
t-56 83.5t-105 30t-117 -29t-89.5 -82t-51.5 -126z" />
    <glyph glyph-name="r" unicode="r" horiz-adv-x="345" 
d="M135 500h22l-24 -120q21 38 56.5 69t81 46t95.5 5l-4 -21q-42 10 -82 -1.5t-74.5 -39.5t-58.5 -69.5t-34 -90.5l-56 -278h-22z" />
    <glyph glyph-name="s" unicode="s" horiz-adv-x="461" 
d="M48 131q-1 -38 12.5 -64.5t43.5 -40t79 -13.5q79 0 124.5 32t55.5 82q8 42 -10.5 64t-51.5 33.5t-69 19.5q-21 5 -49.5 12t-54.5 20.5t-39.5 37t-6.5 62.5q8 39 35.5 69t69.5 46t92 16q60 0 101.5 -27t45.5 -90l-19 -5q-4 43 -25 65t-49.5 29.5t-55.5 7.5
q-68 0 -115 -29.5t-57 -80.5q-7 -31 4 -50.5t32.5 -31t48 -18t52.5 -11.5q27 -6 55.5 -15t51 -24t33 -39.5t3.5 -61.5q-9 -42 -37 -72t-71.5 -45.5t-98.5 -15.5q-74 0 -113 31t-39 101z" />
    <glyph glyph-name="t" unicode="t" horiz-adv-x="336" 
d="M170 500l28 140h22l-28 -140h155l-4 -20h-155l-69 -346q-8 -41 8.5 -70t49.5 -41t75 -2l-4 -18q-34 -9 -64.5 -4t-52.5 23t-31.5 46.5t-2.5 65.5l69 346h-82l4 20h82z" />
    <glyph glyph-name="u" unicode="u" horiz-adv-x="561" 
d="M426 0h-21l24 124q-28 -62 -80.5 -96.5t-129.5 -34.5q-54 0 -93.5 22.5t-55.5 71.5t0 126l57 287h22l-58 -289q-20 -99 15 -148.5t117 -49.5q85 0 145.5 55t83.5 171l52 261h22z" />
    <glyph glyph-name="v" unicode="v" horiz-adv-x="501" 
d="M102 500l106 -467l291 467h23l-312 -500h-18l-114 500h24z" />
    <glyph glyph-name="w" unicode="w" horiz-adv-x="766" 
d="M154 0h-17l-59 500h23l53 -462l270 462h17l87 -462l236 462h23l-256 -500h-18l-88 461z" />
    <glyph glyph-name="x" unicode="x" horiz-adv-x="436" 
d="M84 500h25l113 -232l205 232h25l-221 -247l121 -253h-24l-112 237l-207 -237h-25l223 253z" />
    <glyph glyph-name="y" unicode="y" horiz-adv-x="475" 
d="M481 500h22l-412 -700h-23l118 200l-115 500h22l109 -475z" />
    <glyph glyph-name="z" unicode="z" horiz-adv-x="474" 
d="M453 477l-418 -457h337l-4 -20h-361l4 22l418 458h-318l4 20h342z" />
    <glyph glyph-name="braceleft" unicode="{" horiz-adv-x="359" 
d="M74 361q57 14 84.5 34t38 42.5t14.5 40.5q6 34 6 68.5t-0.5 70t7.5 72.5q12 61 54 86t107 25h32l-4 -16h-31q-54 0 -90 -21t-46 -74q-8 -39 -8 -76v-71t-6 -65q-8 -43 -43 -77.5t-102 -47.5l-1 -2q62 -13 83.5 -47t12.5 -80q-6 -30 -20 -64t-28.5 -71t-22.5 -76
q-11 -52 16.5 -74t82.5 -22h31l-3 -16h-32q-65 0 -97 26t-20 86q7 38 21.5 73.5t28.5 70t21 67.5q4 19 2.5 41.5t-21.5 43t-71 33.5z" />
    <glyph glyph-name="bar" unicode="|" horiz-adv-x="250" 
d="M245 800l-179 -900h-22l179 900h22z" />
    <glyph glyph-name="braceright" unicode="}" horiz-adv-x="359" 
d="M329 361l-4 -20q-56 -13 -84 -33.5t-38 -43t-14 -41.5q-7 -33 -6.5 -67.5t0.5 -70t-7 -73.5q-12 -60 -54.5 -86t-106.5 -26h-32l3 16h31q55 0 90.5 22t46.5 74q8 39 8 76t-0.5 71t5.5 64q9 46 44 80t102 47l1 2q-62 13 -83.5 47.5t-13.5 77.5q6 31 20.5 65t29 71t22.5 76
q10 53 -17.5 74t-82.5 21h-31l4 16h32q64 0 96.5 -25t20.5 -86q-8 -37 -22 -72.5t-28.5 -70t-20.5 -68.5q-4 -18 -2.5 -40.5t21.5 -42.5t70 -34z" />
    <glyph glyph-name="asciitilde" unicode="~" horiz-adv-x="468" 
d="M77 305q16 40 41.5 65t63.5 25q25 0 44.5 -10.5t36 -24t33 -24t37.5 -10.5q30 0 49 21.5t27 47.5h21q-13 -40 -37.5 -65t-64.5 -25q-25 0 -43.5 10.5t-35 24.5t-34 24.5t-39.5 10.5q-27 0 -47.5 -22t-30.5 -48h-21z" />
    <glyph glyph-name="uni00A0" unicode="&#xa0;" horiz-adv-x="280" 
 />
    <glyph glyph-name="exclamdown" unicode="&#xa1;" horiz-adv-x="218" 
d="M13 -148l111 542h20l-105 -542h-26zM169 552q10 0 15.5 -6.5t3.5 -17.5t-10.5 -18t-18.5 -7t-15 7t-3 18t10 17.5t18 6.5z" />
    <glyph glyph-name="cent" unicode="&#xa2;" horiz-adv-x="553" 
d="M351 600h21l-19 -100h-21zM233 5h21l-21 -105h-21zM239 -7q-73 0 -120 31.5t-65 89t-3 135.5q16 77 57 135.5t100.5 90.5t131.5 32q76 0 125 -36.5t58 -99.5l-20 -6q-9 57 -53.5 89.5t-113.5 32.5q-65 0 -119.5 -29.5t-92 -83t-51.5 -125.5q-21 -108 24.5 -172t145.5 -64
q66 0 121 30.5t94 89.5l19 -5q-41 -65 -102.5 -100t-135.5 -35z" />
    <glyph glyph-name="sterling" unicode="&#xa3;" horiz-adv-x="585" 
d="M412 707q61 0 100 -25t56 -67t13 -94h-22q7 73 -33 120t-117 47q-43 0 -84.5 -16.5t-72.5 -53t-43 -95.5q-9 -45 -5.5 -84.5t11 -76.5t11 -75t-4.5 -79q-11 -56 -41 -99t-80 -87h376l-4 -22h-394l-1 20q43 43 77 83.5t46 99.5q9 42 4.5 80t-12 75t-11.5 77.5t6 88.5
q11 53 42 94.5t78 65t105 23.5zM410 346l-4 -19h-324l4 19h324z" />
    <glyph glyph-name="currency" unicode="&#xa4;" horiz-adv-x="510" 
d="M314 549q40 0 70.5 -21.5t44 -60t3.5 -90.5t-39 -90.5t-68 -60t-79 -21.5q-65 0 -98 47t-18 125q10 52 38 90.5t66 60t80 21.5zM311 530q-55 0 -100.5 -41t-59.5 -112q-14 -72 15 -112.5t84 -40.5q34 0 67.5 18.5t59 52.5t34.5 82q10 47 -2 81.5t-38 53t-60 18.5z
M196 481l-59 72l17 14l52 -65zM404 502l77 65l12 -14l-87 -72zM365 275l59 -72l-18 -14l-51 65zM157 254l-78 -65l-11 14l87 72z" />
    <glyph glyph-name="yen" unicode="&#xa5;" horiz-adv-x="583" 
d="M336 347h187l-3 -19h-195zM78 229h422l-4 -21h-422zM101 347h186l6 -19h-195zM619 700h22l-329 -406l-58 -294h-22l58 294l-169 406h24l161 -384z" />
    <glyph glyph-name="brokenbar" unicode="&#xa6;" horiz-adv-x="250" 
d="M140 269l-74 -369h-22l74 369h22zM150 432l73 368h22l-73 -368h-22z" />
    <glyph glyph-name="section" unicode="&#xa7;" horiz-adv-x="432" 
d="M144 604q6 30 25.5 53t50 36.5t70.5 13.5q62 0 95.5 -34.5t28.5 -98.5h-16q4 26 -5 53t-34.5 46t-71.5 19q-48 0 -83.5 -21.5t-44.5 -66.5q-7 -39 16 -63.5t86 -41.5q41 -11 75 -28t51 -45t8 -76q-7 -35 -32.5 -66.5t-65.5 -49.5t-92 -13v-3q32 -7 63 -20t49.5 -37
t10.5 -64q-6 -30 -25 -53.5t-49 -37t-69 -13.5q-63 0 -97.5 34.5t-30.5 97.5h16q-2 -28 7 -55t34.5 -44.5t73.5 -17.5q46 0 80.5 21.5t44.5 67.5q5 26 -3.5 45t-32.5 33t-66 26q-41 12 -75.5 28.5t-51.5 44.5t-7 76q7 36 32.5 67t65.5 49t92 13v2q-30 8 -61.5 21t-50.5 37.5
t-11 64.5zM379 350q10 52 -21.5 84.5t-100.5 32.5q-70 0 -112.5 -35.5t-51.5 -81.5q-10 -52 21.5 -84.5t100.5 -32.5t112 35.5t52 81.5z" />
    <glyph glyph-name="dieresis" unicode="&#xa8;" horiz-adv-x="223" 
d="M120 629q-13 0 -20 9t-4 21q2 13 12.5 22t23.5 9t20 -9t5 -22q-3 -12 -14 -21t-23 -9zM255 629q-13 0 -20.5 9t-4.5 21q2 13 13 22t24 9q12 0 19 -9t5 -22q-3 -12 -13.5 -21t-22.5 -9z" />
    <glyph glyph-name="copyright" unicode="&#xa9;" horiz-adv-x="811" 
d="M497 707q102 0 169.5 -46t94.5 -126t6 -183q-15 -77 -52.5 -142.5t-92.5 -114t-123 -75.5t-144 -27q-101 0 -169 47t-95 128.5t-7 183.5q16 77 53.5 142t92.5 112.5t123 74t144 26.5zM493 687q-99 0 -180 -44t-135.5 -120t-73.5 -171q-18 -95 5.5 -172t87 -122.5
t162.5 -45.5q73 0 137.5 26t115.5 72.5t85.5 108.5t48.5 133q19 95 -5 171t-87 120t-161 44zM375 95q-72 0 -119.5 31.5t-65.5 89t-2 134.5q15 78 56 136t101 90.5t132 32.5q76 0 125 -36.5t58 -99.5l-20 -6q-9 56 -54 89t-114 33q-65 0 -119 -29.5t-91.5 -83t-51.5 -125.5
q-22 -108 24 -172t145 -64q67 0 122 30.5t94 89.5l19 -5q-41 -66 -102.5 -100.5t-136.5 -34.5z" />
    <glyph glyph-name="ordfeminine" unicode="&#xaa;" horiz-adv-x="429" 
d="M95 528q11 54 39 94.5t69 63.5t90 23q58 0 90.5 -29.5t35.5 -78.5l21 102h22l-70 -349h-22l20 101q-23 -49 -67 -78.5t-102 -29.5q-49 0 -81 23t-44 64t-1 94zM116 528q-15 -74 16.5 -118t92.5 -44q66 0 115.5 44.5t64.5 117.5q15 74 -17.5 118t-98.5 44
q-61 0 -109.5 -44t-63.5 -118z" />
    <glyph glyph-name="guillemotleft" unicode="&#xab;" horiz-adv-x="386" 
d="M148 75h-29l-71 175l140 175h29l-143 -175zM294 75h-29l-71 175l140 175h29l-143 -175z" />
    <glyph glyph-name="logicalnot" unicode="&#xac;" horiz-adv-x="654" 
d="M77 424h554l-33 -170h-20l29 149h-534z" />
    <glyph glyph-name="uni00AD" unicode="&#xad;" horiz-adv-x="488" 
d="M70 290h365l-4 -20h-365z" />
    <glyph glyph-name="registered" unicode="&#xae;" horiz-adv-x="499" 
d="M117 515q11 54 43 97.5t79 69t101 25.5q55 0 91.5 -25.5t52 -69t4.5 -97.5q-11 -53 -43.5 -96.5t-79.5 -69t-101 -25.5q-55 0 -91.5 25.5t-51.5 69t-4 96.5zM137 515q-10 -48 3 -87t46 -61.5t82 -22.5t90.5 22.5t70 61.5t38.5 87q9 49 -4 87.5t-45.5 61.5t-81.5 23
t-90.5 -23t-70.5 -61.5t-38 -87.5zM256 623l-42 -214h21l18 94h62q31 0 52 16t26 44q6 29 -8.5 44.5t-45.5 15.5h-83zM342 409l24 1l-53 98h-23zM333 603q21 0 32.5 -9t6.5 -31q-4 -21 -19 -30.5t-36 -9.5h-60l16 80h60z" />
    <glyph glyph-name="macron" unicode="&#xaf;" horiz-adv-x="339" 
d="M99 678h310l-4 -20h-310z" />
    <glyph glyph-name="degree" unicode="&#xb0;" horiz-adv-x="355" 
d="M83 525q10 52 37 91t64.5 61.5t82.5 22.5q67 0 98.5 -49t15.5 -126q-10 -51 -36.5 -90.5t-64.5 -62t-83 -22.5q-66 0 -97.5 49t-16.5 126zM359 525q15 73 -11 114.5t-85 41.5q-58 0 -100.5 -41.5t-57.5 -114.5q-14 -72 12 -114t84 -42t101 42t57 114z" />
    <glyph glyph-name="plusminus" unicode="&#xb1;" horiz-adv-x="775" 
d="M472 622l-94 -470h-21l94 470h21zM162 397h509l-4 -19h-509zM103 98h509l-4 -19h-509z" />
    <glyph glyph-name="uni00B2" unicode="&#xb2;" horiz-adv-x="313" 
d="M112 598q11 43 44.5 76t89.5 33q28 0 48 -11.5t28.5 -33t2.5 -52.5t-22.5 -57t-42 -50t-56.5 -49l-114 -93l-4 8h202l-3 -19h-222l2 11l136 114q33 27 63 58.5t39 76.5q9 41 -10.5 59.5t-50.5 18.5q-40 0 -67.5 -23t-40.5 -67h-22z" />
    <glyph glyph-name="uni00B3" unicode="&#xb3;" horiz-adv-x="317" 
d="M117 619q9 25 27 44.5t44.5 31.5t60.5 12q45 0 71 -26t17 -70q-6 -30 -27 -52.5t-57 -31.5v-2q28 -8 42.5 -31.5t7.5 -58.5q-7 -34 -40 -63t-89 -29q-49 0 -73.5 24t-20.5 73h22q-4 -46 18 -62t57 -16q43 0 70 20t34 53q7 38 -14.5 59.5t-61.5 21.5h-60l4 19h63
q39 0 67.5 19.5t35.5 56.5q7 33 -12 54t-58 21q-41 0 -67.5 -18.5t-38.5 -48.5h-22z" />
    <glyph glyph-name="acute" unicode="&#xb4;" horiz-adv-x="216" 
d="M299 740l-5 -25l-213 -130l4 21z" />
    <glyph glyph-name="uni00B5" unicode="&#xb5;" horiz-adv-x="589" 
d="M454 0h-22l26 130q-35 -74 -93.5 -107.5t-117.5 -33.5q-39 0 -75 12.5t-60 43.5t-29 85l-66 -330h-21l139 700h21l-51 -256q-16 -80 -1.5 -132.5t53 -77.5t94.5 -25q79 0 141.5 55t86.5 171l52 265h22z" />
    <glyph glyph-name="paragraph" unicode="&#xb6;" horiz-adv-x="529" 
d="M524 700l-139 -700h-22l135 681h-107l-135 -681h-22l62 313h-1q-79 0 -126.5 24.5t-64.5 68t-6 100.5q12 59 47 102.5t92.5 67.5t134.5 24h152z" />
    <glyph glyph-name="periodcentered" unicode="&#xb7;" horiz-adv-x="174" 
d="M103 332q-10 0 -15.5 7t-3.5 17q3 11 11 18t17 7q11 0 16.5 -7t2.5 -18q-2 -10 -10 -17t-18 -7z" />
    <glyph glyph-name="cedilla" unicode="&#xb8;" horiz-adv-x="200" 
d="M-8 -88q42 3 68 -6t37 -27.5t5 -46.5q-5 -25 -21 -44.5t-42 -30.5t-61 -11h-64l4 20h61q49 0 72 19t29 47q5 25 -10.5 43t-65.5 18h-38l23 114h22z" />
    <glyph glyph-name="uni00B9" unicode="&#xb9;" horiz-adv-x="170" 
d="M171 681h-54l4 19h75l-69 -350h-21z" />
    <glyph glyph-name="ordmasculine" unicode="&#xba;" horiz-adv-x="412" 
d="M93 526q11 55 41.5 96t73 64t90.5 23t81 -23t46.5 -64t2.5 -96q-10 -54 -40 -95.5t-72.5 -64.5t-90.5 -23t-81.5 23t-47 64.5t-3.5 95.5zM407 526q16 78 -18.5 120t-94.5 42q-61 0 -112 -42t-67 -120q-15 -78 19 -120t95 -42t112 42t66 120z" />
    <glyph glyph-name="guillemotright" unicode="&#xbb;" horiz-adv-x="385" 
d="M168 75l144 175l-74 175h29l71 -175l-141 -175h-29zM22 75l144 175l-74 175h29l71 -175l-141 -175h-29z" />
    <glyph glyph-name="onequarter" unicode="&#xbc;" horiz-adv-x="514" 
d="M517 700h22l-520 -700h-22zM446 97l-5 -21h-55l-15 -76h-22l15 76h-172l4 18l229 261h17l-51 -258h55zM370 97l42 211l-189 -211h147zM171 681h-54l4 19h75l-69 -350h-21z" />
    <glyph glyph-name="onehalf" unicode="&#xbd;" horiz-adv-x="599" 
d="M508 700h22l-520 -700h-22zM171 681h-54l4 19h75l-69 -350h-21zM313 248q12 43 45 76t89 33q28 0 48.5 -11.5t29 -33t2.5 -52.5q-7 -31 -23.5 -57t-41.5 -50t-56 -49l-115 -93l-3 8h202l-4 -19h-222l2 11l137 114q32 27 62.5 58.5t39.5 76.5q8 41 -11.5 59.5t-50.5 18.5
q-40 0 -67.5 -23t-40.5 -67h-22z" />
    <glyph glyph-name="threequarters" unicode="&#xbe;" horiz-adv-x="600" 
d="M609 700h22l-519 -700h-21zM538 97l-4 -21h-55l-15 -76h-21l15 76h-173l4 18l228 261h17l-51 -258h55zM462 97l42 211l-189 -211h147zM106 619q9 25 27.5 44.5t45 31.5t60.5 12q45 0 70.5 -26t16.5 -70q-5 -30 -26.5 -52.5t-56.5 -31.5l-1 -2q29 -8 43 -31.5t7 -58.5
q-6 -34 -39.5 -63t-89.5 -29q-49 0 -73 24t-21 73h22q-3 -46 19 -62t57 -16q43 0 70 20t33 53q8 38 -14 59.5t-61 21.5h-60l3 19h63q39 0 67.5 19.5t35.5 56.5q7 33 -12 54t-58 21q-41 0 -67 -18.5t-39 -48.5h-22z" />
    <glyph glyph-name="questiondown" unicode="&#xbf;" horiz-adv-x="543" 
d="M190 -170q-61 0 -103.5 25t-61 69.5t-6.5 102.5q16 82 59 129t106 67.5t140 20.5l31 144h18l-31 -163h-16q-44 0 -89 -7t-85 -27t-69 -59.5t-42 -104.5q-16 -82 27.5 -129.5t125.5 -47.5q84 0 143.5 46.5t74.5 122.5h21q-12 -60 -48 -102.5t-87 -64.5t-108 -22zM393 539
q9 0 14.5 -6.5t3.5 -17.5q-3 -11 -10.5 -18t-17.5 -7q-11 0 -16.5 7t-2.5 18q2 11 10 17.5t19 6.5z" />
    <glyph glyph-name="Agrave" unicode="&#xc0;" horiz-adv-x="613" 
d="M409 680h-32l-395 -680h-22l407 700h59l128 -700h-22zM99 230h408l-4 -20h-408zM333 909l160 -133l-4 -21l-161 129z" />
    <glyph glyph-name="Aacute" unicode="&#xc1;" horiz-adv-x="613" 
d="M409 680h-32l-395 -680h-22l407 700h59l128 -700h-22zM99 230h408l-4 -20h-408zM520 909l-5 -25l-213 -129l4 21z" />
    <glyph glyph-name="Acircumflex" unicode="&#xc2;" horiz-adv-x="613" 
d="M409 680h-32l-395 -680h-22l407 700h59l128 -700h-22zM99 230h408l-4 -20h-408zM540 788l-108 81l-140 -81l4 22l140 81l108 -81z" />
    <glyph glyph-name="Atilde" unicode="&#xc3;" horiz-adv-x="613" 
d="M409 680h-32l-395 -680h-22l407 700h59l128 -700h-22zM99 230h408l-4 -20h-408zM294 764q10 30 29 48t45 18q19 0 30 -7.5t20 -17t19.5 -17t28.5 -7.5q16 0 31 11.5t22 34.5h19q-7 -27 -28.5 -46t-47.5 -19q-19 0 -31 7.5t-21.5 17t-19.5 17t-26 7.5q-17 0 -30 -11.5
t-21 -35.5h-19z" />
    <glyph glyph-name="Adieresis" unicode="&#xc4;" horiz-adv-x="613" 
d="M409 680h-32l-395 -680h-22l407 700h59l128 -700h-22zM99 230h408l-4 -20h-408zM351 798q-13 0 -20 9t-4 21q2 13 12.5 22t23.5 9q12 0 19.5 -9t5.5 -22q-3 -12 -14 -21t-23 -9zM486 798q-13 0 -20.5 9t-4.5 21q2 13 13 22t24 9q12 0 19 -9t5 -22q-3 -12 -13.5 -21
t-22.5 -9z" />
    <glyph glyph-name="Aring" unicode="&#xc5;" horiz-adv-x="613" 
d="M409 680h-32l-395 -680h-22l407 700h59l128 -700h-22zM99 230h408l-4 -20h-408zM517 844q-9 -42 -40.5 -65.5t-68.5 -23.5t-59 23.5t-13 65.5q8 42 39.5 66.5t68.5 24.5q36 0 58.5 -24.5t14.5 -66.5zM496 844q6 34 -10 53t-46 19t-53.5 -19t-29.5 -53q-7 -33 9 -51.5
t46 -18.5t53.5 18.5t30.5 51.5z" />
    <glyph glyph-name="AE" unicode="&#xc6;" horiz-adv-x="864" 
d="M551 680l-62 -310h233l-4 -20h-233l-65 -330h323l-4 -20h-345l42 210h-279l-171 -210h-26l571 700h347l-4 -20h-323zM173 230h267l85 432z" />
    <glyph glyph-name="Ccedilla" unicode="&#xc7;" horiz-adv-x="759" 
d="M67 350q16 79 53.5 144.5t91 113t119 73.5t136.5 26q122 0 189 -54t87 -145l-20 -7q-10 54 -42 96t-86.5 66t-131.5 24q-84 0 -162 -40.5t-134.5 -115.5t-77.5 -181q-20 -105 6.5 -180.5t88 -116t145.5 -40.5q78 -1 143.5 24.5t115.5 70.5t81 100l17 -7
q-56 -94 -146 -151t-215 -57q-71 0 -126 26t-90 74t-46 113.5t4 143.5zM344 -87q42 2 68.5 -6.5t37 -27.5t5.5 -46q-5 -25 -21 -44.5t-42 -30.5t-61 -11h-64l3 20h61q50 0 73 19t29 47q4 25 -11.5 43t-64.5 18h-38l22 113h22z" />
    <glyph glyph-name="Egrave" unicode="&#xc8;" 
d="M615 680h-412l-62 -310h309l-4 -20h-309l-66 -330h412l-4 -20h-434l140 700h434zM336 909l161 -133l-5 -21l-161 129z" />
    <glyph glyph-name="Eacute" unicode="&#xc9;" 
d="M615 680h-412l-62 -310h309l-4 -20h-309l-66 -330h412l-4 -20h-434l140 700h434zM523 909l-5 -25l-213 -129l5 21z" />
    <glyph glyph-name="Ecircumflex" unicode="&#xca;" 
d="M615 680h-412l-62 -310h309l-4 -20h-309l-66 -330h412l-4 -20h-434l140 700h434zM543 788l-108 81l-140 -81l4 22l140 81l108 -81z" />
    <glyph glyph-name="Edieresis" unicode="&#xcb;" 
d="M615 680h-412l-62 -310h309l-4 -20h-309l-66 -330h412l-4 -20h-434l140 700h434zM354 798q-13 0 -19.5 9t-4.5 21q3 13 13 22t23 9t20.5 -9t4.5 -22q-2 -12 -13 -21t-24 -9zM489 798q-13 0 -20 9t-5 21q3 13 13.5 22t23.5 9q12 0 19.5 -9t4.5 -22q-2 -12 -13 -21t-23 -9z
" />
    <glyph glyph-name="Igrave" unicode="&#xcc;" horiz-adv-x="377" 
d="M281 700h22l-140 -700h-22zM226 909l161 -133l-5 -21l-161 129z" />
    <glyph glyph-name="Iacute" unicode="&#xcd;" horiz-adv-x="377" 
d="M281 700h22l-140 -700h-22zM413 909l-5 -25l-213 -129l5 21z" />
    <glyph glyph-name="Icircumflex" unicode="&#xce;" horiz-adv-x="438" 
d="M298 700h22l-140 -700h-22zM450 788l-108 81l-140 -81l4 22l140 81l108 -81z" />
    <glyph glyph-name="Idieresis" unicode="&#xcf;" horiz-adv-x="385" 
d="M271 700h22l-140 -700h-22zM234 798q-13 0 -19.5 9t-4.5 21q3 13 13 22t23 9t20.5 -9t4.5 -22q-2 -12 -13 -21t-24 -9zM369 798q-13 0 -20 9t-5 21q3 13 13.5 22t23.5 9q12 0 19.5 -9t4.5 -22q-2 -12 -13 -21t-23 -9z" />
    <glyph glyph-name="Eth" unicode="&#xd0;" horiz-adv-x="795" 
d="M97 360h114l68 340h186q122 0 196.5 -41.5t101 -119.5t4.5 -189t-80 -189t-149 -119.5t-213 -41.5h-186l68 340h-114zM165 19h164q176 0 280.5 89t135.5 242q30 153 -39.5 242t-244.5 89h-164l-64 -321h232l-4 -20h-232z" />
    <glyph glyph-name="Ntilde" unicode="&#xd1;" horiz-adv-x="681" 
d="M676 700l-140 -700h-21l-316 661l-132 -661h-22l140 700h21l316 -661l132 661h22zM325 764q10 30 29 48t45 18q19 0 30.5 -7.5t20 -17t19.5 -17t29 -7.5q15 0 30 11.5t23 34.5h19q-7 -27 -29 -46t-47 -19q-20 0 -32 7.5t-21 17t-19.5 17t-25.5 7.5q-18 0 -31 -11.5
t-21 -35.5h-19z" />
    <glyph glyph-name="Ograve" unicode="&#xd2;" horiz-adv-x="768" 
d="M333 -7q-73 0 -129.5 26t-92.5 73.5t-47.5 113t3.5 144.5q16 79 54 144.5t92.5 113t121.5 73.5t140 26q74 0 130 -26t92 -73.5t47.5 -113t-4.5 -144.5q-15 -79 -53 -144.5t-92.5 -113t-121 -73.5t-140.5 -26zM337 13q87 0 166 40.5t136.5 116t77.5 180.5q21 105 -6 180.5
t-90 116t-150 40.5t-166.5 -40.5t-136.5 -116t-78 -180.5q-20 -105 7 -180.5t90 -116t150 -40.5zM419 909l160 -133l-4 -21l-161 129z" />
    <glyph glyph-name="Oacute" unicode="&#xd3;" horiz-adv-x="768" 
d="M333 -7q-73 0 -129.5 26t-92.5 73.5t-47.5 113t3.5 144.5q16 79 54 144.5t92.5 113t121.5 73.5t140 26q74 0 130 -26t92 -73.5t47.5 -113t-4.5 -144.5q-15 -79 -53 -144.5t-92.5 -113t-121 -73.5t-140.5 -26zM337 13q87 0 166 40.5t136.5 116t77.5 180.5q21 105 -6 180.5
t-90 116t-150 40.5t-166.5 -40.5t-136.5 -116t-78 -180.5q-20 -105 7 -180.5t90 -116t150 -40.5zM606 909l-5 -25l-213 -129l4 21z" />
    <glyph glyph-name="Ocircumflex" unicode="&#xd4;" horiz-adv-x="768" 
d="M333 -7q-73 0 -129.5 26t-92.5 73.5t-47.5 113t3.5 144.5q16 79 54 144.5t92.5 113t121.5 73.5t140 26q74 0 130 -26t92 -73.5t47.5 -113t-4.5 -144.5q-15 -79 -53 -144.5t-92.5 -113t-121 -73.5t-140.5 -26zM337 13q87 0 166 40.5t136.5 116t77.5 180.5q21 105 -6 180.5
t-90 116t-150 40.5t-166.5 -40.5t-136.5 -116t-78 -180.5q-20 -105 7 -180.5t90 -116t150 -40.5zM626 788l-108 81l-140 -81l4 22l140 81l108 -81z" />
    <glyph glyph-name="Otilde" unicode="&#xd5;" horiz-adv-x="768" 
d="M333 -7q-73 0 -129.5 26t-92.5 73.5t-47.5 113t3.5 144.5q16 79 54 144.5t92.5 113t121.5 73.5t140 26q74 0 130 -26t92 -73.5t47.5 -113t-4.5 -144.5q-15 -79 -53 -144.5t-92.5 -113t-121 -73.5t-140.5 -26zM337 13q87 0 166 40.5t136.5 116t77.5 180.5q21 105 -6 180.5
t-90 116t-150 40.5t-166.5 -40.5t-136.5 -116t-78 -180.5q-20 -105 7 -180.5t90 -116t150 -40.5zM380 764q10 30 29 48t45 18q19 0 30 -7.5t20 -17t19.5 -17t28.5 -7.5q16 0 31 11.5t22 34.5h19q-7 -27 -28.5 -46t-47.5 -19q-19 0 -31 7.5t-21.5 17t-19.5 17t-26 7.5
q-17 0 -30 -11.5t-21 -35.5h-19z" />
    <glyph glyph-name="Odieresis" unicode="&#xd6;" horiz-adv-x="768" 
d="M333 -7q-73 0 -129.5 26t-92.5 73.5t-47.5 113t3.5 144.5q16 79 54 144.5t92.5 113t121.5 73.5t140 26q74 0 130 -26t92 -73.5t47.5 -113t-4.5 -144.5q-15 -79 -53 -144.5t-92.5 -113t-121 -73.5t-140.5 -26zM337 13q87 0 166 40.5t136.5 116t77.5 180.5q21 105 -6 180.5
t-90 116t-150 40.5t-166.5 -40.5t-136.5 -116t-78 -180.5q-20 -105 7 -180.5t90 -116t150 -40.5zM437 798q-13 0 -20 9t-4 21q2 13 12.5 22t23.5 9q12 0 19.5 -9t5.5 -22q-3 -12 -14 -21t-23 -9zM572 798q-13 0 -20.5 9t-4.5 21q2 13 13 22t24 9q12 0 19 -9t5 -22
q-3 -12 -13.5 -21t-22.5 -9z" />
    <glyph glyph-name="multiply" unicode="&#xd7;" horiz-adv-x="533" 
d="M145 545l300 -375l-18 -15l-300 375zM56 170l449 374l11 -14l-448 -374z" />
    <glyph glyph-name="Oslash" unicode="&#xd8;" horiz-adv-x="768" 
d="M686 609l12 -13l-565 -503l-14 11zM333 -7q-73 0 -129.5 26t-92.5 73.5t-47.5 113t3.5 144.5q16 79 54 144.5t92.5 113t121.5 73.5t140 26q74 0 130 -26t92 -73.5t47.5 -113t-4.5 -144.5q-15 -79 -53 -144.5t-92.5 -113t-121 -73.5t-140.5 -26zM337 13q87 0 166 40.5
t136.5 116t77.5 180.5q21 105 -6 180.5t-90 116t-150 40.5t-166.5 -40.5t-136.5 -116t-78 -180.5q-20 -105 7 -180.5t90 -116t150 -40.5z" />
    <glyph glyph-name="Ugrave" unicode="&#xd9;" horiz-adv-x="672" 
d="M180 700h22l-87 -435q-18 -92 2 -147.5t66.5 -80t107.5 -24.5t116 24.5t96 80t59 147.5l87 435h22l-87 -435q-14 -72 -42.5 -123.5t-68 -84.5t-87 -48.5t-99.5 -15.5q-69 0 -119.5 28t-72 88t-2.5 156zM359 909l161 -133l-4 -21l-162 129z" />
    <glyph glyph-name="Uacute" unicode="&#xda;" horiz-adv-x="672" 
d="M180 700h22l-87 -435q-18 -92 2 -147.5t66.5 -80t107.5 -24.5t116 24.5t96 80t59 147.5l87 435h22l-87 -435q-14 -72 -42.5 -123.5t-68 -84.5t-87 -48.5t-99.5 -15.5q-69 0 -119.5 28t-72 88t-2.5 156zM546 909l-5 -25l-212 -129l4 21z" />
    <glyph glyph-name="Ucircumflex" unicode="&#xdb;" horiz-adv-x="672" 
d="M180 700h22l-87 -435q-18 -92 2 -147.5t66.5 -80t107.5 -24.5t116 24.5t96 80t59 147.5l87 435h22l-87 -435q-14 -72 -42.5 -123.5t-68 -84.5t-87 -48.5t-99.5 -15.5q-69 0 -119.5 28t-72 88t-2.5 156zM566 788l-108 81l-140 -81l5 22l140 81l108 -81z" />
    <glyph glyph-name="Udieresis" unicode="&#xdc;" horiz-adv-x="672" 
d="M180 700h22l-87 -435q-18 -92 2 -147.5t66.5 -80t107.5 -24.5t116 24.5t96 80t59 147.5l87 435h22l-87 -435q-14 -72 -42.5 -123.5t-68 -84.5t-87 -48.5t-99.5 -15.5q-69 0 -119.5 28t-72 88t-2.5 156zM377 798q-12 0 -19 9t-5 21q3 13 13.5 22t22.5 9q13 0 20.5 -9
t4.5 -22q-2 -12 -13 -21t-24 -9zM512 798q-12 0 -19.5 9t-5.5 21q3 13 14 22t23 9t19.5 -9t4.5 -22q-2 -12 -13 -21t-23 -9z" />
    <glyph glyph-name="Yacute" unicode="&#xdd;" horiz-adv-x="583" 
d="M619 700h22l-329 -406l-58 -294h-22l58 294l-169 406h24l161 -384zM504 909l-5 -25l-213 -129l4 21z" />
    <glyph glyph-name="Thorn" unicode="&#xde;" horiz-adv-x="546" 
d="M260 180q113 0 167.5 46.5t69.5 123.5q16 81 -20 126.5t-149 45.5h-157l-68 -342h157zM519 350q-13 -64 -47 -107t-88.5 -64t-127.5 -21h-157l-32 -158h-22l140 700h22l-32 -157h157q80 0 125 -24t59 -67.5t3 -101.5z" />
    <glyph glyph-name="germandbls" unicode="&#xdf;" horiz-adv-x="582" 
d="M139 517q11 58 41.5 100.5t75.5 66t101 23.5q54 0 89.5 -17t50 -47.5t6.5 -70.5q-6 -29 -22.5 -49.5t-38.5 -36t-45 -32.5q-30 -22 -54 -43t-29 -49q-6 -30 15.5 -49.5t87.5 -41.5q58 -20 78.5 -56.5t10.5 -85.5q-12 -61 -57.5 -98.5t-113.5 -37.5q-70 0 -108 43t-32 115
h22q-5 -63 27.5 -101t94.5 -38q57 0 96 32.5t49 84.5q9 44 -11.5 75.5t-75.5 50.5q-68 23 -90.5 46t-14.5 60q7 36 34.5 61t58.5 47q33 23 60.5 44t35.5 59q10 50 -23 82.5t-105 32.5q-50 0 -89.5 -21t-66 -59.5t-36.5 -89.5l-103 -517h-22z" />
    <glyph glyph-name="agrave" unicode="&#xe0;" horiz-adv-x="524" 
d="M375 0l28 138q-33 -70 -92 -107.5t-139 -37.5q-54 0 -89 15.5t-49 45.5t-5 74q12 62 66.5 99t157.5 48l181 20l9 46q15 72 -19 109t-110 37q-72 0 -124.5 -33t-78.5 -94l-18 7q31 69 87.5 104.5t135.5 35.5q87 0 126.5 -41t24.5 -117l-70 -349h-22zM430 274l-182 -19
q-94 -10 -140.5 -41t-56.5 -85q-11 -56 20.5 -86.5t101.5 -30.5q64 0 115 26.5t85.5 75.5t47.5 117zM249 694l149 -124l-4 -19l-149 120z" />
    <glyph glyph-name="aacute" unicode="&#xe1;" horiz-adv-x="524" 
d="M375 0l28 138q-33 -70 -92 -107.5t-139 -37.5q-54 0 -89 15.5t-49 45.5t-5 74q12 62 66.5 99t157.5 48l181 20l9 46q15 72 -19 109t-110 37q-72 0 -124.5 -33t-78.5 -94l-18 7q31 69 87.5 104.5t135.5 35.5q87 0 126.5 -41t24.5 -117l-70 -349h-22zM430 274l-182 -19
q-94 -10 -140.5 -41t-56.5 -85q-11 -56 20.5 -86.5t101.5 -30.5q64 0 115 26.5t85.5 75.5t47.5 117zM422 694l-4 -23l-197 -120l4 19z" />
    <glyph glyph-name="acircumflex" unicode="&#xe2;" horiz-adv-x="524" 
d="M376 0l27 138q-33 -70 -92 -107.5t-139 -37.5q-54 0 -89 15.5t-49 45.5t-5 74q12 62 66.5 99t157.5 48l181 20l9 46q15 72 -19 109t-110 37q-72 0 -124.5 -33t-78.5 -94l-18 7q31 69 87.5 104.5t135.5 35.5q88 0 127 -41t24 -117l-69 -349h-22zM430 274l-182 -19
q-94 -10 -140.5 -41t-56.5 -85q-11 -56 20.5 -86.5t101.5 -30.5q64 0 115 26.5t85.5 75.5t47.5 117zM441 582l-100 75l-130 -75l4 21l130 75l100 -75z" />
    <glyph glyph-name="atilde" unicode="&#xe3;" horiz-adv-x="524" 
d="M375 0l28 138q-33 -70 -92 -107.5t-139 -37.5q-54 0 -89 15.5t-49 45.5t-5 74q12 62 66.5 99t157.5 48l181 20l9 46q15 72 -19 109t-110 37q-72 0 -124.5 -33t-78.5 -94l-18 7q31 69 87.5 104.5t135.5 35.5q87 0 126.5 -41t24.5 -117l-70 -349h-22zM430 274l-182 -19
q-94 -10 -140.5 -41t-56.5 -85q-11 -56 20.5 -86.5t101.5 -30.5q64 0 115 26.5t85.5 75.5t47.5 117zM213 559q9 29 27 45.5t42 16.5q23 0 34.5 -11.5l23 -23t33.5 -11.5q14 0 28 11t21 32h18q-7 -25 -27 -43t-44 -18t-36.5 11.5t-23.5 23.5t-31 12q-16 0 -28 -11t-19 -34
h-18z" />
    <glyph glyph-name="adieresis" unicode="&#xe4;" horiz-adv-x="524" 
d="M375 0l28 138q-33 -70 -92 -107.5t-139 -37.5q-54 0 -89 15.5t-49 45.5t-5 74q12 62 66.5 99t157.5 48l181 20l9 46q15 72 -19 109t-110 37q-72 0 -124.5 -33t-78.5 -94l-18 7q31 69 87.5 104.5t135.5 35.5q87 0 126.5 -41t24.5 -117l-70 -349h-22zM430 274l-182 -19
q-94 -10 -140.5 -41t-56.5 -85q-11 -56 20.5 -86.5t101.5 -30.5q64 0 115 26.5t85.5 75.5t47.5 117zM266 592q-12 0 -18.5 8t-3.5 19q2 12 11.5 20.5t21.5 8.5t18.5 -8.5t4.5 -20.5q-2 -11 -12 -19t-22 -8zM391 592q-12 0 -19 8t-4 19q2 12 12 20.5t22 8.5q11 0 17.5 -8.5
t4.5 -20.5q-2 -11 -12 -19t-21 -8z" />
    <glyph glyph-name="aring" unicode="&#xe5;" horiz-adv-x="524" 
d="M375 0l28 138q-33 -70 -92 -107.5t-139 -37.5q-54 0 -89 15.5t-49 45.5t-5 74q12 62 66.5 99t157.5 48l181 20l9 46q15 72 -19 109t-110 37q-72 0 -124.5 -33t-78.5 -94l-18 7q31 69 87.5 104.5t135.5 35.5q87 0 126.5 -41t24.5 -117l-70 -349h-22zM430 274l-182 -19
q-94 -10 -140.5 -41t-56.5 -85q-11 -56 20.5 -86.5t101.5 -30.5q64 0 115 26.5t85.5 75.5t47.5 117zM420 634q-8 -39 -37.5 -61t-63.5 -22t-54.5 22t-12.5 61t37 61.5t63 22.5t54.5 -22.5t13.5 -61.5zM400 634q6 31 -9 49t-42 18q-28 0 -49.5 -18t-28.5 -49q-6 -30 9 -48
t42 -18q28 0 50 18t28 48z" />
    <glyph glyph-name="ae" unicode="&#xe6;" horiz-adv-x="925" 
d="M602 -7q-70 0 -114 32t-60 91t0 139q23 118 97.5 185t178.5 67q75 0 117.5 -31.5t56.5 -81t3 -103.5q-1 -7 -3 -17.5t-5 -23.5h-427q-15 -82 3.5 -134.5t60 -77.5t96.5 -25q73 0 129.5 32.5t91.5 90.5l15 -7q-35 -61 -95.5 -98.5t-144.5 -37.5zM857 270q19 71 2 119
t-59.5 73t-99.5 25q-53 0 -104 -23t-89.5 -70.5t-56.5 -123.5h407zM434 250l-7 -70q-26 -67 -65.5 -108t-88 -60t-101.5 -19q-48 0 -83.5 16t-52 47t-7.5 76q10 46 37.5 74t63 42t69 19.5t54.5 7.5l181 17l10 55q13 61 -18.5 100.5t-111.5 39.5q-62 0 -118 -29t-85 -98
l-18 7q33 73 91 106.5t132 33.5q81 0 122 -39.5t25 -118.5l-18 -89zM430 272l-182 -17q-78 -8 -131 -34.5t-66 -88.5q-11 -59 26 -89t97 -30q65 0 116.5 28.5t85 78.5t46.5 114z" />
    <glyph glyph-name="ccedilla" unicode="&#xe7;" horiz-adv-x="553" 
d="M238 -7q-72 0 -119 31.5t-65 89t-3 135.5q16 77 57 135.5t100.5 90.5t131.5 32q76 0 125 -36.5t58 -99.5l-20 -6q-9 57 -53.5 89.5t-113.5 32.5q-65 0 -119.5 -29.5t-92 -83t-51.5 -125.5q-21 -108 24.5 -172t145.5 -64q66 0 121 30.5t94 89.5l19 -5q-41 -65 -102.5 -100
t-136.5 -35zM233 -80q38 2 62.5 -6t34.5 -25.5t4 -42.5q-4 -24 -19 -41.5t-39 -28t-56 -10.5h-60l4 19h57q45 0 66.5 17t26.5 44q5 22 -9.5 39t-60.5 17h-35l21 105h20z" />
    <glyph glyph-name="egrave" unicode="&#xe8;" horiz-adv-x="554" 
d="M229 -7q-68 0 -113 33t-62 92t-2 137q15 74 55.5 131t98.5 89t125 32q64 0 108.5 -28.5t64 -77t6.5 -110.5q-1 -7 -3 -18t-5 -23h-429q-13 -70 3 -123.5t56.5 -83.5t100.5 -30q70 0 128 32t94 91l16 -7q-38 -65 -101.5 -100.5t-140.5 -35.5zM484 270q15 64 0 113
t-55 76.5t-102 27.5q-58 0 -109.5 -28t-88.5 -77t-52 -112h407zM274 694l148 -124l-4 -19l-149 120z" />
    <glyph glyph-name="eacute" unicode="&#xe9;" horiz-adv-x="554" 
d="M229 -7q-68 0 -113 33t-62 92t-2 137q15 74 55.5 131t98.5 89t125 32q64 0 108.5 -28.5t64 -77t6.5 -110.5q-1 -7 -3 -18t-5 -23h-429q-13 -70 3 -123.5t56.5 -83.5t100.5 -30q70 0 128 32t94 91l16 -7q-38 -65 -101.5 -100.5t-140.5 -35.5zM484 270q15 64 0 113
t-55 76.5t-102 27.5q-58 0 -109.5 -28t-88.5 -77t-52 -112h407zM447 694l-5 -23l-197 -120l4 19z" />
    <glyph glyph-name="ecircumflex" unicode="&#xea;" horiz-adv-x="554" 
d="M229 -7q-68 0 -113 33t-62 92t-2 137q15 74 55.5 131t98.5 89t125 32q64 0 108.5 -28.5t64 -77t6.5 -110.5q-1 -7 -3 -18t-5 -23h-429q-13 -70 3 -123.5t56.5 -83.5t100.5 -30q70 0 128 32t94 91l16 -7q-38 -65 -101.5 -100.5t-140.5 -35.5zM484 270q15 64 0 113
t-55 76.5t-102 27.5q-58 0 -109.5 -28t-88.5 -77t-52 -112h407zM465 582l-100 75l-129 -75l4 21l129 75l100 -75z" />
    <glyph glyph-name="edieresis" unicode="&#xeb;" horiz-adv-x="554" 
d="M229 -7q-68 0 -113 33t-62 92t-2 137q15 74 55.5 131t98.5 89t125 32q64 0 108.5 -28.5t64 -77t6.5 -110.5q-1 -7 -3 -18t-5 -23h-429q-13 -70 3 -123.5t56.5 -83.5t100.5 -30q70 0 128 32t94 91l16 -7q-38 -65 -101.5 -100.5t-140.5 -35.5zM484 270q15 64 0 113
t-55 76.5t-102 27.5q-58 0 -109.5 -28t-88.5 -77t-52 -112h407zM290 592q-12 0 -18 8t-4 19q2 12 12 20.5t21 8.5q12 0 19 -8.5t4 -20.5q-2 -11 -12 -19t-22 -8zM415 592q-12 0 -18.5 8t-4.5 19q2 12 12.5 20.5t21.5 8.5t18 -8.5t4 -20.5q-2 -11 -12 -19t-21 -8z" />
    <glyph glyph-name="igrave" unicode="&#xec;" horiz-adv-x="344" 
d="M223 500h22l-99 -500h-22zM174 695l148 -124l-3 -19l-150 120z" />
    <glyph glyph-name="iacute" unicode="&#xed;" horiz-adv-x="344" 
d="M223 500h22l-99 -500h-22zM347 695l-5 -23l-196 -120l3 19z" />
    <glyph glyph-name="icircumflex" unicode="&#xee;" horiz-adv-x="400" 
d="M239 500h22l-100 -500h-22zM381 583l-100 75l-129 -75l4 21l129 75l100 -75z" />
    <glyph glyph-name="idieresis" unicode="&#xef;" horiz-adv-x="351" 
d="M214 500h22l-99 -500h-22zM181 593q-11 0 -17.5 8t-4.5 19q3 12 12.5 20.5t21.5 8.5q11 0 18 -8.5t5 -20.5q-3 -11 -13 -19t-22 -8zM306 593q-11 0 -18 8t-5 19q2 12 12.5 20.5t22.5 8.5q11 0 17.5 -8.5t4.5 -20.5q-3 -11 -13 -19t-21 -8z" />
    <glyph glyph-name="eth" unicode="&#xf0;" horiz-adv-x="594" 
d="M600 688l-4 -20l-121 -41q60 -76 76.5 -161t-2.5 -181q-19 -98 -63.5 -163t-106.5 -97t-134 -32q-76 0 -124.5 33t-66 93t-1.5 140q15 74 56 130t102.5 87t135.5 31q49 0 90 -16.5t68.5 -53t33.5 -97.5q5 83 -16.5 146.5t-67.5 133.5l-162 -55l4 20l146 50
q-13 16 -28.5 32.5t-32.5 32.5h25q32 -28 57 -58zM249 13q62 0 118 28t96 81.5t56 128.5q15 78 -5 130.5t-65 79t-106 26.5q-63 0 -118.5 -26.5t-94.5 -77.5t-54 -124q-24 -119 26 -182.5t147 -63.5z" />
    <glyph glyph-name="ntilde" unicode="&#xf1;" horiz-adv-x="562" 
d="M135 500h22l-26 -130q29 63 82 100t131 37q54 0 93 -24t54.5 -73.5t0.5 -127.5l-56 -282h-22l56 283q20 99 -15.5 152t-115.5 53q-84 0 -145.5 -58t-84.5 -174l-51 -256h-22zM223 559q9 29 26.5 45.5t42.5 16.5q23 0 34.5 -11.5t22.5 -23t33 -11.5q15 0 29 11t21 32h17
q-6 -25 -26.5 -43t-43.5 -18q-24 0 -36.5 11.5t-24 23.5t-30.5 12q-16 0 -28 -11t-20 -34h-17z" />
    <glyph glyph-name="ograve" unicode="&#xf2;" horiz-adv-x="581" 
d="M240 -7q-69 0 -117 31t-68 88.5t-4 137.5q16 79 59 137t103 89t129 31t116.5 -31t67 -89t3.5 -137q-16 -80 -58 -137.5t-102 -88.5t-129 -31zM244 13q56 0 110.5 25.5t95.5 78t57 133.5t-4 133.5t-64.5 78t-100.5 25.5t-110.5 -25.5t-96 -78t-57.5 -133.5t4.5 -133.5
t65 -78t100.5 -25.5zM287 694l148 -124l-4 -19l-149 120z" />
    <glyph glyph-name="oacute" unicode="&#xf3;" horiz-adv-x="581" 
d="M240 -7q-69 0 -117 31t-68 88.5t-4 137.5q16 79 59 137t103 89t129 31t116.5 -31t67 -89t3.5 -137q-16 -80 -58 -137.5t-102 -88.5t-129 -31zM244 13q56 0 110.5 25.5t95.5 78t57 133.5t-4 133.5t-64.5 78t-100.5 25.5t-110.5 -25.5t-96 -78t-57.5 -133.5t4.5 -133.5
t65 -78t100.5 -25.5zM460 694l-5 -23l-197 -120l4 19z" />
    <glyph glyph-name="ocircumflex" unicode="&#xf4;" horiz-adv-x="581" 
d="M240 -7q-69 0 -117 31t-68 88.5t-4 137.5q16 79 59 137t103 89t129 31t116.5 -31t67 -89t3.5 -137q-16 -80 -58 -137.5t-102 -88.5t-129 -31zM244 13q56 0 110.5 25.5t95.5 78t57 133.5t-4 133.5t-64.5 78t-100.5 25.5t-110.5 -25.5t-96 -78t-57.5 -133.5t4.5 -133.5
t65 -78t100.5 -25.5zM478 582l-100 75l-129 -75l4 21l129 75l100 -75z" />
    <glyph glyph-name="otilde" unicode="&#xf5;" horiz-adv-x="581" 
d="M240 -7q-69 0 -117 31t-68 88.5t-4 137.5q16 79 59 137t103 89t129 31t116.5 -31t67 -89t3.5 -137q-16 -80 -58 -137.5t-102 -88.5t-129 -31zM244 13q56 0 110.5 25.5t95.5 78t57 133.5t-4 133.5t-64.5 78t-100.5 25.5t-110.5 -25.5t-96 -78t-57.5 -133.5t4.5 -133.5
t65 -78t100.5 -25.5zM251 559q9 29 26.5 45.5t41.5 16.5q23 0 35 -11.5t23 -23t33 -11.5q15 0 28.5 11t20.5 32h18q-7 -25 -27 -43t-43 -18q-25 0 -37.5 11.5t-23.5 23.5t-30 12q-16 0 -28.5 -11t-19.5 -34h-17z" />
    <glyph glyph-name="odieresis" unicode="&#xf6;" horiz-adv-x="581" 
d="M240 -7q-69 0 -117 31t-68 88.5t-4 137.5q16 79 59 137t103 89t129 31t116.5 -31t67 -89t3.5 -137q-16 -80 -58 -137.5t-102 -88.5t-129 -31zM244 13q56 0 110.5 25.5t95.5 78t57 133.5t-4 133.5t-64.5 78t-100.5 25.5t-110.5 -25.5t-96 -78t-57.5 -133.5t4.5 -133.5
t65 -78t100.5 -25.5zM303 592q-12 0 -18 8t-4 19q2 12 12 20.5t21 8.5q12 0 19 -8.5t4 -20.5q-2 -11 -12 -19t-22 -8zM428 592q-12 0 -18.5 8t-4.5 19q2 12 12.5 20.5t21.5 8.5t18 -8.5t4 -20.5q-2 -11 -12 -19t-21 -8z" />
    <glyph glyph-name="divide" unicode="&#xf7;" horiz-adv-x="651" 
d="M94 362h509l-4 -19h-509zM306 112q-11 0 -16 7t-3 17q2 11 10 18t18 7t15.5 -7t3.5 -18q-2 -10 -10 -17t-18 -7zM390 540q-10 0 -15 7t-3 17q2 11 10 18t18 7t15.5 -7t3.5 -18q-2 -10 -10 -17t-19 -7z" />
    <glyph glyph-name="oslash" unicode="&#xf8;" horiz-adv-x="581" 
d="M490 434l10 -14l-396 -358l-13 12zM240 -7q-69 0 -117 31t-68 88.5t-4 137.5q16 79 59 137t103 89t129 31t116.5 -31t67 -89t3.5 -137q-16 -80 -58 -137.5t-102 -88.5t-129 -31zM244 13q56 0 110.5 25.5t95.5 78t57 133.5t-4 133.5t-64.5 78t-100.5 25.5t-110.5 -25.5
t-96 -78t-57.5 -133.5t4.5 -133.5t65 -78t100.5 -25.5z" />
    <glyph glyph-name="ugrave" unicode="&#xf9;" horiz-adv-x="561" 
d="M426 0h-21l24 124q-28 -62 -80.5 -96.5t-129.5 -34.5q-54 0 -93.5 22.5t-55.5 71.5t0 126l57 287h22l-58 -289q-19 -99 15.5 -148.5t116.5 -49.5q85 0 145.5 55t83.5 171l52 261h22zM260 694l149 -124l-4 -19l-149 120z" />
    <glyph glyph-name="uacute" unicode="&#xfa;" horiz-adv-x="561" 
d="M426 0h-21l24 124q-28 -62 -80.5 -96.5t-129.5 -34.5q-54 0 -93.5 22.5t-55.5 71.5t0 126l57 287h22l-58 -289q-19 -99 15.5 -148.5t116.5 -49.5q85 0 145.5 55t83.5 171l52 261h22zM433 694l-4 -23l-197 -120l4 19z" />
    <glyph glyph-name="ucircumflex" unicode="&#xfb;" horiz-adv-x="561" 
d="M426 0h-21l24 124q-28 -62 -80.5 -96.5t-129.5 -34.5q-54 0 -93.5 22.5t-55.5 71.5t0 126l57 287h22l-58 -289q-20 -99 15 -148.5t117 -49.5q85 0 145.5 55t83.5 171l52 261h22zM452 582l-100 75l-130 -75l4 21l130 75l100 -75z" />
    <glyph glyph-name="udieresis" unicode="&#xfc;" horiz-adv-x="561" 
d="M426 0h-21l24 124q-28 -62 -80.5 -96.5t-129.5 -34.5q-54 0 -93.5 22.5t-55.5 71.5t0 126l57 287h22l-58 -289q-19 -99 15.5 -148.5t116.5 -49.5q85 0 145.5 55t83.5 171l52 261h22zM277 592q-12 0 -18.5 8t-3.5 19q2 12 11.5 20.5t21.5 8.5t18.5 -8.5t4.5 -20.5
q-2 -11 -12 -19t-22 -8zM402 592q-12 0 -19 8t-4 19q2 12 12 20.5t22 8.5q11 0 17.5 -8.5t4.5 -20.5q-2 -11 -12 -19t-21 -8z" />
    <glyph glyph-name="yacute" unicode="&#xfd;" horiz-adv-x="475" 
d="M481 500h22l-412 -700h-23l118 200l-115 500h22l109 -475zM401 694l-5 -23l-197 -120l4 19z" />
    <glyph glyph-name="thorn" unicode="&#xfe;" horiz-adv-x="626" 
d="M10 -234h-21l183 921h21l-67 -341q33 71 101 116.5t155 45.5q71 0 119.5 -31.5t68.5 -89t5 -136.5q-16 -79 -59 -137t-104.5 -89.5t-132.5 -31.5q-56 0 -97 21.5t-65 58.5t-29 82zM553 251q14 73 -3 126t-61.5 82t-110.5 29q-64 0 -120.5 -29.5t-96.5 -82.5t-54 -125
q-15 -71 4 -125t64 -83.5t108 -29.5q67 0 122.5 29t94 82.5t53.5 126.5z" />
    <glyph glyph-name="ydieresis" unicode="&#xff;" horiz-adv-x="475" 
d="M481 500h22l-412 -700h-23l118 200l-115 500h22l109 -475zM244 592q-11 0 -17.5 8t-4.5 19q2 12 12 20.5t22 8.5q11 0 18 -8.5t5 -20.5q-3 -11 -13 -19t-22 -8zM369 592q-12 0 -18.5 8t-4.5 19q2 12 12.5 20.5t21.5 8.5q12 0 18.5 -8.5t4.5 -20.5q-3 -11 -13 -19t-21 -8z
" />
    <glyph glyph-name="Amacron" unicode="&#x100;" horiz-adv-x="613" 
d="M409 680h-32l-395 -680h-22l407 700h59l128 -700h-22zM99 230h408l-4 -20h-408zM270 837h310l-4 -20h-310z" />
    <glyph glyph-name="amacron" unicode="&#x101;" horiz-adv-x="524" 
d="M376 0l27 138q-33 -70 -92 -107.5t-139 -37.5q-54 0 -89 15.5t-49 45.5t-5 74q12 62 66.5 99t157.5 48l181 20l9 46q15 72 -19 109t-110 37q-72 0 -124.5 -33t-78.5 -94l-18 7q31 69 87.5 104.5t135.5 35.5q88 0 127 -41t24 -117l-69 -349h-22zM430 274l-182 -19
q-94 -10 -140.5 -41t-56.5 -85q-11 -56 20.5 -86.5t101.5 -30.5q64 0 115 26.5t85.5 75.5t47.5 117zM192 628h286l-3 -19h-287z" />
    <glyph glyph-name="Abreve" unicode="&#x102;" horiz-adv-x="613" 
d="M409 680h-32l-395 -680h-22l407 700h59l128 -700h-22zM99 230h408l-4 -20h-408zM555 889q-5 -24 -21.5 -48t-46 -39.5t-72.5 -15.5q-42 0 -65 15.5t-30 39.5t-2 48l1 5h21q-9 -43 11.5 -66.5t67.5 -23.5q46 0 76.5 23.5t39.5 66.5h21z" />
    <glyph glyph-name="abreve" unicode="&#x103;" horiz-adv-x="524" 
d="M375 0l28 138q-33 -70 -92 -107.5t-139 -37.5q-54 0 -89 15.5t-49 45.5t-5 74q12 62 66.5 99t157.5 48l181 20l9 46q15 72 -19 109t-110 37q-72 0 -124.5 -33t-78.5 -94l-18 7q31 69 87.5 104.5t135.5 35.5q87 0 126.5 -41t24.5 -117l-70 -349h-22zM430 274l-182 -19
q-94 -10 -140.5 -41t-56.5 -85q-11 -56 20.5 -86.5t101.5 -30.5q64 0 115 26.5t85.5 75.5t47.5 117zM455 676q-5 -22 -20.5 -44.5t-42.5 -37t-67 -14.5q-39 0 -60 14.5t-27.5 37t-2.5 44.5l1 4h20q-8 -39 11 -61t62 -22t71 22t36 61h20z" />
    <glyph glyph-name="Aogonek" unicode="&#x104;" horiz-adv-x="613" 
d="M541 16l4 -16l-77 -33q-43 -17 -62.5 -38t-23.5 -43q-6 -28 11 -41.5t47 -13.5q15 0 31.5 3.5t33.5 9.5l-4 -21q-17 -6 -33.5 -9t-30.5 -3q-26 0 -45 8t-28 24.5t-4 41.5q4 19 16 36.5t34.5 33.5t56.5 30zM409 680h-32l-395 -680h-22l407 700h59l128 -700h-22zM99 230
h408l-4 -20h-408z" />
    <glyph glyph-name="aogonek" unicode="&#x105;" horiz-adv-x="524" 
d="M375 0l28 138q-33 -70 -92 -107.5t-139 -37.5q-54 0 -89 15.5t-49 45.5t-5 74q12 62 66.5 99t157.5 48l181 20l9 46q15 72 -19 109t-110 37q-72 0 -124.5 -33t-78.5 -94l-18 7q31 69 87.5 104.5t135.5 35.5q88 0 127 -41t24 -117l-70 -349h-22zM430 274l-182 -19
q-94 -10 -140.5 -41t-56.5 -85q-11 -56 20.5 -86.5t101.5 -30.5q64 0 115 26.5t85.5 75.5t47.5 117zM382 15l3 -15l-71 -31q-40 -16 -58 -35.5t-22 -38.5q-5 -28 11 -40t43 -12q26 0 60 12l-4 -20q-15 -5 -30.5 -8t-29.5 -3q-24 0 -41 7.5t-25 22.5t-4 39q6 27 29 50.5
t70 42.5z" />
    <glyph glyph-name="Cacute" unicode="&#x106;" horiz-adv-x="759" 
d="M67 350q16 79 53.5 144.5t91 113t119 73.5t136.5 26q122 0 189 -54t87 -145l-20 -7q-10 54 -42 96t-86.5 66t-131.5 24q-84 0 -162 -40.5t-134.5 -115.5t-77.5 -181q-20 -105 6.5 -180.5t88 -116t145.5 -40.5q78 -1 143.5 24.5t115.5 70.5t81 100l17 -7
q-56 -94 -146 -151t-215 -57q-71 0 -126 26t-90 74t-46 113.5t4 143.5zM588 909l-5 -25l-213 -129l4 21z" />
    <glyph glyph-name="cacute" unicode="&#x107;" horiz-adv-x="553" 
d="M239 -7q-73 0 -120 31.5t-65 89t-3 135.5q16 77 57 135.5t100.5 90.5t131.5 32q76 0 125 -36.5t58 -99.5l-20 -6q-9 57 -53.5 89.5t-113.5 32.5q-65 0 -119.5 -29.5t-92 -83t-51.5 -125.5q-21 -108 24.5 -172t145.5 -64q66 0 121 30.5t94 89.5l19 -5q-41 -65 -102.5 -100
t-135.5 -35zM449 694l-5 -23l-197 -120l4 19z" />
    <glyph glyph-name="Ccircumflex" unicode="&#x108;" horiz-adv-x="759" 
d="M67 350q16 79 53.5 144.5t91 113t119 73.5t136.5 26q122 0 189 -54t87 -145l-20 -7q-10 54 -42 96t-86.5 66t-131.5 24q-84 0 -162 -40.5t-134.5 -115.5t-77.5 -181q-20 -105 6.5 -180.5t88 -116t145.5 -40.5q78 -1 143.5 24.5t115.5 70.5t81 100l17 -7
q-56 -94 -146 -151t-215 -57q-71 0 -126 26t-90 74t-46 113.5t4 143.5zM608 789l-108 81l-140 -81l4 22l140 81l108 -81z" />
    <glyph glyph-name="ccircumflex" unicode="&#x109;" horiz-adv-x="553" 
d="M239 -7q-73 0 -120 31.5t-65 89t-3 135.5q16 77 57 135.5t100.5 90.5t131.5 32q76 0 125 -36.5t58 -99.5l-20 -6q-9 57 -53.5 89.5t-113.5 32.5q-65 0 -119.5 -29.5t-92 -83t-51.5 -125.5q-21 -108 24.5 -172t145.5 -64q66 0 121 30.5t94 89.5l19 -5q-41 -65 -102.5 -100
t-135.5 -35zM478 589l-108 81l-140 -81l4 22l140 81l108 -81z" />
    <glyph glyph-name="Cdotaccent" unicode="&#x10a;" horiz-adv-x="759" 
d="M67 350q16 79 53.5 144.5t91 113t119 73.5t136.5 26q122 0 189 -54t87 -145l-20 -7q-10 54 -42 96t-86.5 66t-131.5 24q-84 0 -162 -40.5t-134.5 -115.5t-77.5 -181q-20 -105 6.5 -180.5t88 -116t145.5 -40.5q78 -1 143.5 24.5t115.5 70.5t81 100l17 -7
q-56 -94 -146 -151t-215 -57q-71 0 -126 26t-90 74t-46 113.5t4 143.5zM481 777q-12 0 -19 8.5t-5 20.5q3 13 13.5 22t22.5 9q13 0 20.5 -9t4.5 -22q-2 -12 -13 -20.5t-24 -8.5z" />
    <glyph glyph-name="cdotaccent" unicode="&#x10b;" horiz-adv-x="553" 
d="M238 -7q-72 0 -119 31.5t-65 89t-3 135.5q16 77 57 135.5t100.5 90.5t131.5 32q76 0 125 -36.5t58 -99.5l-20 -6q-9 57 -53.5 89.5t-113.5 32.5q-65 0 -119.5 -29.5t-92 -83t-51.5 -125.5q-21 -108 24.5 -172t145.5 -64q66 0 121 30.5t94 89.5l19 -5q-41 -65 -102.5 -100
t-136.5 -35zM350 571q-11 0 -17.5 8.5t-4.5 19.5q2 12 12 20.5t21 8.5q12 0 19 -8.5t4 -20.5q-2 -11 -12 -19.5t-22 -8.5z" />
    <glyph glyph-name="Ccaron" unicode="&#x10c;" horiz-adv-x="759" 
d="M67 350q16 79 53.5 144.5t91 113t119 73.5t136.5 26q122 0 189 -54t87 -145l-20 -7q-10 54 -42 96t-86.5 66t-131.5 24q-84 0 -162 -40.5t-134.5 -115.5t-77.5 -181q-20 -105 6.5 -180.5t88 -116t145.5 -40.5q78 -1 143.5 24.5t115.5 70.5t81 100l17 -7
q-56 -94 -146 -151t-215 -57q-71 0 -126 26t-90 74t-46 113.5t4 143.5zM627 888l-4 -22l-140 -80l-108 80l4 22l108 -81z" />
    <glyph glyph-name="ccaron" unicode="&#x10d;" horiz-adv-x="553" 
d="M238 -7q-72 0 -119 31.5t-65 89t-3 135.5q16 77 57 135.5t100.5 90.5t131.5 32q76 0 125 -36.5t58 -99.5l-20 -6q-9 57 -53.5 89.5t-113.5 32.5q-65 0 -119.5 -29.5t-92 -83t-51.5 -125.5q-21 -108 24.5 -172t145.5 -64q66 0 121 30.5t94 89.5l19 -5q-41 -65 -102.5 -100
t-136.5 -35zM486 675l-5 -20l-129 -75l-100 75l4 20l100 -75z" />
    <glyph glyph-name="Dcaron" unicode="&#x10e;" horiz-adv-x="719" 
d="M390 700q122 0 196.5 -41.5t101 -119.5t4.5 -189t-79.5 -189t-148.5 -119.5t-214 -41.5h-205l140 700h205zM254 20q176 0 280.5 88.5t135.5 241.5q30 153 -39 241.5t-245 88.5h-183l-132 -660h183zM572 888l-4 -22l-140 -80l-108 80l4 22l108 -81z" />
    <glyph glyph-name="dcaron" unicode="&#x10f;" horiz-adv-x="715" 
d="M713 686q-2 -20 -4.5 -36t-4.5 -29q-9 -44 -30 -59t-50 -15l4 21q25 0 35.5 10.5t14.5 30.5l6 26h-35l10 51h54zM515 354l-2 -3l74 369h22l-143 -720h-22l28 145q-32 -65 -94.5 -108.5t-144.5 -43.5q-70 0 -116.5 31.5t-63.5 89.5t-2 136q16 78 56.5 135.5t99 89.5
t128.5 32q87 0 131 -44t49 -109zM73 250q-21 -109 23 -173t141 -64q63 0 116 30t89.5 83.5t50.5 123.5t-1 123.5t-56 83.5t-105 30t-117 -29t-89.5 -82t-51.5 -126z" />
    <glyph glyph-name="Dcroat" unicode="&#x110;" horiz-adv-x="815" 
d="M117 360h114l68 340h186q122 0 196.5 -41.5t101 -119.5t4.5 -189t-80 -189t-149 -119.5t-213 -41.5h-186l68 340h-114zM185 19h164q176 0 280.5 89t135.5 242q30 153 -39.5 242t-244.5 89h-164l-64 -321h232l-4 -20h-232z" />
    <glyph glyph-name="dcroat" unicode="&#x111;" horiz-adv-x="669" 
d="M436 619h271l-3 -19h-271zM515 354l-2 -3l74 369h22l-143 -720h-22l28 145q-32 -65 -94.5 -108.5t-144.5 -43.5q-70 0 -116.5 31.5t-63.5 89.5t-2 136q16 78 56.5 135.5t99 89.5t128.5 32q87 0 131 -44t49 -109zM73 250q-21 -109 23 -173t141 -64q63 0 116 30t89.5 83.5
t50.5 123.5t-1 123.5t-56 83.5t-105 30t-117 -29t-89.5 -82t-51.5 -126z" />
    <glyph glyph-name="Emacron" unicode="&#x112;" 
d="M615 680h-412l-62 -310h309l-4 -20h-309l-66 -330h412l-4 -20h-434l140 700h434zM274 837h310l-4 -20h-310z" />
    <glyph glyph-name="emacron" unicode="&#x113;" horiz-adv-x="554" 
d="M229 -7q-68 0 -113 33t-62 92t-2 137q15 74 55.5 131t98.5 89t125 32q64 0 108.5 -28.5t64 -77t6.5 -110.5q-1 -7 -3 -18t-5 -23h-429q-13 -70 3 -123.5t56.5 -83.5t100.5 -30q70 0 128 32t94 91l16 -7q-38 -65 -101.5 -100.5t-140.5 -35.5zM484 270q15 64 0 113
t-55 76.5t-102 27.5q-58 0 -109.5 -28t-88.5 -77t-52 -112h407zM216 628h287l-4 -19h-287z" />
    <glyph glyph-name="Ebreve" unicode="&#x114;" 
d="M615 680h-412l-62 -310h309l-4 -20h-309l-66 -330h412l-4 -20h-434l140 700h434zM558 889q-5 -24 -21.5 -48t-45.5 -39.5t-72 -15.5t-66 15.5t-30 39.5t-2 48l1 5h21q-8 -43 12.5 -66.5t66.5 -23.5q47 0 77.5 23.5t38.5 66.5h21z" />
    <glyph glyph-name="ebreve" unicode="&#x115;" horiz-adv-x="554" 
d="M229 -7q-68 0 -113 33t-62 92t-2 137q15 74 55.5 131t98.5 89t125 32q64 0 108.5 -28.5t64 -77t6.5 -110.5q-1 -7 -3 -18t-5 -23h-429q-13 -70 3 -123.5t56.5 -83.5t100.5 -30q70 0 128 32t94 91l16 -7q-38 -65 -101.5 -100.5t-140.5 -35.5zM484 270q15 64 0 113
t-55 76.5t-102 27.5q-58 0 -109.5 -28t-88.5 -77t-52 -112h407zM479 676q-4 -22 -19.5 -44.5t-42.5 -37t-67 -14.5q-39 0 -60.5 14.5t-28 37t-1.5 44.5l1 4h19q-8 -39 11 -61t62 -22t71.5 22t36.5 61h19z" />
    <glyph glyph-name="Edotaccent" unicode="&#x116;" 
d="M615 680h-412l-62 -310h309l-4 -20h-309l-66 -330h412l-4 -20h-434l140 700h434zM417 777q-12 0 -19.5 8.5t-4.5 20.5q2 13 13 22t23 9q13 0 20 -9t5 -22q-3 -12 -14 -20.5t-23 -8.5z" />
    <glyph glyph-name="edotaccent" unicode="&#x117;" horiz-adv-x="554" 
d="M229 -7q-68 0 -113 33t-62 92t-2 137q15 74 55.5 131t98.5 89t125 32q64 0 108.5 -28.5t64 -77t6.5 -110.5q-1 -7 -3 -18t-5 -23h-429q-13 -70 3 -123.5t56.5 -83.5t100.5 -30q70 0 128 32t94 91l16 -7q-38 -65 -101.5 -100.5t-140.5 -35.5zM484 270q15 64 0 113
t-55 76.5t-102 27.5q-58 0 -109.5 -28t-88.5 -77t-52 -112h407zM348 571q-11 0 -17.5 8.5t-4.5 19.5q2 12 12 20.5t21 8.5q12 0 19 -8.5t4 -20.5q-2 -11 -12 -19.5t-22 -8.5z" />
    <glyph glyph-name="Eogonek" unicode="&#x118;" 
d="M615 680h-412l-62 -310h309l-4 -20h-309l-66 -330h412l-4 -20h-434l140 700h434zM425 16l4 -16l-77 -33q-43 -18 -62.5 -38.5t-23.5 -41.5q-6 -29 11 -42.5t47 -13.5q15 0 31.5 3.5t33.5 9.5l-4 -21q-17 -6 -33.5 -9t-31.5 -3q-26 0 -44.5 8t-27.5 24t-4 42q4 19 16 36.5
t34.5 33.5t56.5 30z" />
    <glyph glyph-name="eogonek" unicode="&#x119;" horiz-adv-x="554" 
d="M229 -7q-68 0 -113 33t-62 92t-2 137q15 74 55.5 131t98.5 89t125 32q64 0 108.5 -28.5t64 -77t6.5 -110.5q-1 -7 -3 -18t-5 -23h-429q-13 -70 3 -123.5t56.5 -83.5t100.5 -30q70 0 128 32t94 91l16 -7q-38 -65 -101.5 -100.5t-140.5 -35.5zM484 270q15 64 0 113
t-55 76.5t-102 27.5q-58 0 -109.5 -28t-88.5 -77t-52 -112h407zM272 12l4 -15l-72 -31q-39 -16 -57.5 -35.5t-21.5 -38.5q-6 -28 10 -40t43 -12t61 12l-4 -20q-16 -5 -31.5 -8t-29.5 -3q-23 0 -40.5 7.5t-25.5 22.5t-3 39q5 27 28 50.5t71 42.5z" />
    <glyph glyph-name="Ecaron" unicode="&#x11a;" 
d="M615 680h-412l-62 -310h309l-4 -20h-309l-66 -330h412l-4 -20h-434l140 700h434zM563 888l-4 -22l-140 -80l-108 80l4 22l108 -81z" />
    <glyph glyph-name="ecaron" unicode="&#x11b;" horiz-adv-x="554" 
d="M229 -7q-68 0 -113 33t-62 92t-2 137q15 74 55.5 131t98.5 89t125 32q64 0 108.5 -28.5t64 -77t6.5 -110.5q-1 -7 -3 -18t-5 -23h-429q-13 -70 3 -123.5t56.5 -83.5t100.5 -30q70 0 128 32t94 91l16 -7q-38 -65 -101.5 -100.5t-140.5 -35.5zM484 270q15 64 0 113
t-55 76.5t-102 27.5q-58 0 -109.5 -28t-88.5 -77t-52 -112h407zM484 675l-5 -20l-129 -75l-100 75l4 20l100 -75z" />
    <glyph glyph-name="Gcircumflex" unicode="&#x11c;" horiz-adv-x="764" 
d="M720 502q-17 80 -80.5 132.5t-168.5 52.5q-87 0 -166.5 -40.5t-137 -116t-78.5 -180.5q-20 -105 7 -180.5t90.5 -116t150.5 -40.5q71 0 137 27.5t120.5 78.5t88.5 123l19 97h-300l4 20h322l-23 -119q-35 -74 -92 -130t-128.5 -86.5t-151.5 -30.5q-73 0 -129.5 26
t-92.5 73.5t-47.5 113t3.5 144.5q16 79 54 144.5t92.5 113t121.5 73.5t140 26q74 0 128.5 -24.5t88 -69t47.5 -104.5zM630 789l-108 81l-140 -81l4 22l140 81l108 -81z" />
    <glyph glyph-name="gcircumflex" unicode="&#x11d;" horiz-adv-x="601" 
d="M543 500h22l-76 -383q-20 -102 -74.5 -172.5t-139.5 -107.5t-196 -37l1 20q160 1 259 77t128 220l6 30h1q-32 -63 -92.5 -107.5t-149.5 -46.5q-70 0 -116 31.5t-63 89.5t-2 136q16 78 56 135.5t98.5 89.5t128.5 32q60 0 98.5 -21t58.5 -55t24 -74zM73 250
q-22 -110 22.5 -173.5t142.5 -63.5q63 0 115.5 30.5t89 84t50.5 122.5q14 70 -1 123.5t-56 83.5t-104 30q-65 0 -118 -29t-89.5 -82t-51.5 -126zM476 589l-108 81l-140 -81l4 22l140 81l108 -81z" />
    <glyph glyph-name="Gbreve" unicode="&#x11e;" horiz-adv-x="764" 
d="M720 502q-17 80 -80.5 132.5t-168.5 52.5q-87 0 -166.5 -40.5t-137 -116t-78.5 -180.5q-20 -105 7 -180.5t90.5 -116t150.5 -40.5q71 0 137 27.5t120.5 78.5t88.5 123l19 97h-300l4 20h322l-23 -119q-35 -74 -92 -130t-128.5 -86.5t-151.5 -30.5q-73 0 -129.5 26
t-92.5 73.5t-47.5 113t3.5 144.5q16 79 54 144.5t92.5 113t121.5 73.5t140 26q74 0 128.5 -24.5t88 -69t47.5 -104.5zM645 889q-5 -24 -21.5 -48t-46 -39.5t-72.5 -15.5q-42 0 -65 15.5t-30 39.5t-2 48l1 5h21q-9 -43 11.5 -66.5t67.5 -23.5q46 0 76.5 23.5t39.5 66.5h21z
" />
    <glyph glyph-name="gbreve" unicode="&#x11f;" horiz-adv-x="601" 
d="M543 500h22l-76 -383q-20 -102 -74.5 -172.5t-139.5 -107.5t-196 -37l1 20q160 1 259 77t128 220l6 30h1q-32 -63 -92.5 -107.5t-149.5 -46.5q-70 0 -116 31.5t-63 89.5t-2 136q16 78 56 135.5t98.5 89.5t128.5 32q60 0 98.5 -21t58.5 -55t24 -74zM73 250
q-22 -110 22.5 -173.5t142.5 -63.5q63 0 115.5 30.5t89 84t50.5 122.5q14 70 -1 123.5t-56 83.5t-104 30q-65 0 -118 -29t-89.5 -82t-51.5 -126zM479 676q-4 -22 -19.5 -44.5t-42.5 -37t-67 -14.5q-39 0 -60.5 14.5t-28 37t-1.5 44.5l1 4h19q-8 -39 11 -61t62 -22t71.5 22
t36.5 61h19z" />
    <glyph glyph-name="Gdotaccent" unicode="&#x120;" horiz-adv-x="764" 
d="M720 502q-17 80 -80.5 132.5t-168.5 52.5q-87 0 -166.5 -40.5t-137 -116t-78.5 -180.5q-20 -105 7 -180.5t90.5 -116t150.5 -40.5q71 0 137 27.5t120.5 78.5t88.5 123l19 97h-300l4 20h322l-23 -119q-35 -74 -92 -130t-128.5 -86.5t-151.5 -30.5q-73 0 -129.5 26
t-92.5 73.5t-47.5 113t3.5 144.5q16 79 54 144.5t92.5 113t121.5 73.5t140 26q74 0 128.5 -24.5t88 -69t47.5 -104.5zM503 777q-12 0 -19 8.5t-5 20.5q3 13 13.5 22t22.5 9q13 0 20.5 -9t4.5 -22q-2 -12 -13 -20.5t-24 -8.5z" />
    <glyph glyph-name="gdotaccent" unicode="&#x121;" horiz-adv-x="601" 
d="M543 500h22l-76 -383q-20 -102 -74.5 -172.5t-139.5 -107.5t-196 -37l1 20q160 1 259 77t128 220l6 30h1q-32 -63 -92.5 -107.5t-149.5 -46.5q-70 0 -116 31.5t-63 89.5t-2 136q16 78 56 135.5t98.5 89.5t128.5 32q60 0 98.5 -21t58.5 -55t24 -74zM73 250
q-22 -110 22.5 -173.5t142.5 -63.5q63 0 115.5 30.5t89 84t50.5 122.5q14 70 -1 123.5t-56 83.5t-104 30q-65 0 -118 -29t-89.5 -82t-51.5 -126zM348 571q-11 0 -17.5 8.5t-4.5 19.5q2 12 12 20.5t21 8.5q12 0 19 -8.5t4 -20.5q-2 -11 -12 -19.5t-22 -8.5z" />
    <glyph glyph-name="uni0122" unicode="&#x122;" horiz-adv-x="763" 
d="M367 -58q-1 -7 -2 -16t-3 -17q-10 -53 -32.5 -69.5t-50.5 -16.5l4 19q24 0 36.5 14t17.5 39l2 8h-32l8 39h52zM720 502q-17 80 -80.5 132.5t-168.5 52.5q-87 0 -166.5 -40.5t-137 -116t-78.5 -180.5q-20 -105 7 -180.5t90.5 -116t150.5 -40.5q71 0 137 27.5t120.5 78.5
t88.5 123l19 97h-300l4 20h322l-23 -119q-35 -74 -92 -130t-128.5 -86.5t-151.5 -30.5q-73 0 -129.5 26t-92.5 73.5t-47.5 113t3.5 144.5q16 79 54 144.5t92.5 113t121.5 73.5t140 26q74 0 128.5 -24.5t88 -69t47.5 -104.5z" />
    <glyph glyph-name="uni0123" unicode="&#x123;" horiz-adv-x="601" 
d="M349 549q2 20 4.5 36t4.5 29q9 44 30 59t50 15l-4 -21q-25 0 -35.5 -10.5t-14.5 -30.5l-5 -26h35l-11 -51h-54zM543 500h22l-76 -383q-20 -102 -74.5 -172.5t-139.5 -107.5t-196 -37l1 20q160 1 259 77t128 220l6 30h1q-32 -63 -92.5 -107.5t-149.5 -46.5
q-70 0 -116 31.5t-63 89.5t-2 136q16 78 56 135.5t98.5 89.5t128.5 32q60 0 98.5 -21t58.5 -55t24 -74zM73 250q-22 -110 22.5 -173.5t142.5 -63.5q63 0 115.5 30.5t89 84t50.5 122.5q14 70 -1 123.5t-56 83.5t-104 30q-65 0 -118 -29t-89.5 -82t-51.5 -126z" />
    <glyph glyph-name="Hcircumflex" unicode="&#x124;" horiz-adv-x="681" 
d="M185 700h22l-66 -330h447l66 330h22l-140 -700h-22l70 350h-447l-70 -350h-22zM572 789l-108 81l-140 -81l4 22l140 81l108 -81z" />
    <glyph glyph-name="hcircumflex" unicode="&#x125;" horiz-adv-x="675" 
d="M293 720h22l-70 -351q32 69 88.5 103.5t124.5 34.5q55 0 93.5 -23t53.5 -73t-1 -130l-56 -281h-22l57 282q19 99 -14.5 152t-115.5 53q-84 0 -146.5 -60t-85.5 -176l-50 -251h-22zM444 808l-107 81l-141 -81l5 22l140 81l108 -81z" />
    <glyph glyph-name="Itilde" unicode="&#x128;" horiz-adv-x="422" 
d="M291 700h22l-140 -700h-22zM197 764q10 30 29 48t45 18q19 0 30.5 -7.5t20 -17t19.5 -17t29 -7.5q15 0 30 11.5t23 34.5h19q-7 -27 -29 -46t-47 -19q-20 0 -32 7.5t-21 17t-19.5 17t-25.5 7.5q-18 0 -31 -11.5t-21 -35.5h-19z" />
    <glyph glyph-name="itilde" unicode="&#x129;" horiz-adv-x="351" 
d="M215 500h22l-99 -500h-22zM130 560q9 29 27 45.5t42 16.5q23 0 34.5 -11.5l23 -23t33.5 -11.5q14 0 28 11t21 32h18q-7 -25 -27 -43t-44 -18t-36.5 11.5t-23.5 23.5t-31 12q-16 0 -28 -11t-19 -34h-18z" />
    <glyph glyph-name="Imacron" unicode="&#x12a;" horiz-adv-x="500" 
d="M329 700h22l-140 -700h-22zM212 837h310l-4 -20h-310z" />
    <glyph glyph-name="imacron" unicode="&#x12b;" horiz-adv-x="458" 
d="M268 500h22l-100 -500h-22zM161 629h287l-4 -19h-287z" />
    <glyph glyph-name="Ibreve" unicode="&#x12c;" horiz-adv-x="427" 
d="M292 700h22l-140 -700h-22zM459 889q-5 -24 -21.5 -48t-45.5 -39.5t-72 -15.5t-66 15.5t-30 39.5t-2 48l1 5h21q-8 -43 12.5 -66.5t66.5 -23.5q47 0 77.5 23.5t38.5 66.5h21z" />
    <glyph glyph-name="ibreve" unicode="&#x12d;" horiz-adv-x="390" 
d="M233 500h22l-99 -500h-22zM390 677q-5 -22 -20 -44.5t-42.5 -37t-67.5 -14.5q-39 0 -60 14.5t-27.5 37t-2.5 44.5l1 4h20q-8 -39 11 -61t62 -22t71 22t36 61h20z" />
    <glyph glyph-name="Iogonek" unicode="&#x12e;" horiz-adv-x="352" 
d="M325 700h22l-140 -700h-22zM203 16l4 -16l-77 -33q-43 -18 -62.5 -38.5t-23.5 -41.5q-6 -29 11 -42.5t47 -13.5q15 0 31.5 3.5t33.5 9.5l-4 -21q-17 -6 -33.5 -9t-31.5 -3q-26 0 -44.5 8t-27.5 24t-4 42q4 19 16 36.5t34.5 33.5t56.5 30z" />
    <glyph glyph-name="iogonek" unicode="&#x12f;" horiz-adv-x="299" 
d="M247 500h22l-99 -500h-22zM285 635q-9 0 -14.5 6t-3.5 16q2 11 10 17t17 6t14 -6t3 -17q-2 -10 -9.5 -16t-16.5 -6zM165 16l4 -15l-72 -31q-39 -16 -57.5 -35.5t-22.5 -38.5q-5 -28 11 -40t43 -12t61 12l-4 -20q-16 -5 -31.5 -8t-29.5 -3q-23 0 -40.5 7.5t-25.5 22.5
t-3 39q5 27 28 50.5t71 42.5z" />
    <glyph glyph-name="Idotaccent" unicode="&#x130;" horiz-adv-x="251" 
d="M204 700h22l-140 -700h-22zM230 777q-12 0 -19.5 8.5t-4.5 20.5q2 13 13 22t23 9q13 0 20 -9t5 -22q-3 -12 -14 -20.5t-23 -8.5z" />
    <glyph glyph-name="dotlessi" unicode="&#x131;" horiz-adv-x="193" 
d="M135 500h22l-99 -500h-22z" />
    <glyph glyph-name="Jcircumflex" unicode="&#x134;" horiz-adv-x="585" 
d="M449 700h22l-108 -545q-8 -41 -34 -78.5t-65.5 -60.5t-89.5 -23q-70 0 -103 38t-31 105l22 7q-1 -35 8.5 -65t35 -47.5t72.5 -17.5q52 0 86 23.5t52.5 56.5t24.5 62zM602 789l-108 81l-140 -81l5 22l140 81l108 -81z" />
    <glyph glyph-name="jcircumflex" unicode="&#x135;" horiz-adv-x="319" 
d="M44 -21q-15 -71 -57.5 -112.5t-106.5 -46.5l-1 -20q32 2 61.5 14t54.5 34t43.5 54.5t27.5 76.5l103 521h-22zM309 609l-108 81l-140 -81l4 22l141 81l107 -81z" />
    <glyph glyph-name="uni0136" unicode="&#x136;" horiz-adv-x="541" 
d="M209 -58q-1 -7 -2 -16t-3 -17q-10 -53 -32.5 -69.5t-50.5 -16.5l4 19q24 0 36 14t17 39l2 8h-31l8 39h52zM185 700h22l-66 -330h34l412 330h30l-424 -340l284 -360h-30l-276 350h-34l-70 -350h-22z" />
    <glyph glyph-name="uni0137" unicode="&#x137;" horiz-adv-x="454" 
d="M154 -53q0 -7 -1 -15.5t-2 -14.5q-10 -50 -31.5 -66t-48.5 -16l4 19q17 0 27 7.5t16 20.5q2 4 3 7.5t3 7.5l2 12h-29l8 38h49zM179 720h22l-91 -457h61l281 237h30l-296 -247l201 -253h-30l-190 243h-61l-48 -243h-22z" />
    <glyph glyph-name="Lacute" unicode="&#x139;" horiz-adv-x="498" 
d="M207 700l-136 -680h349l-4 -20h-371l140 700h22zM423 909l-5 -25l-213 -129l5 21z" />
    <glyph glyph-name="lacute" unicode="&#x13a;" horiz-adv-x="344" 
d="M265 711h22l-141 -711h-22zM389 905l-5 -23l-197 -120l4 19z" />
    <glyph glyph-name="uni013B" unicode="&#x13b;" horiz-adv-x="498" 
d="M198 -58q-1 -7 -2 -16t-3 -17q-10 -53 -32.5 -69.5t-50.5 -16.5l4 19q24 0 36 14t17 39l2 8h-31l8 39h52zM207 700l-136 -680h349l-4 -20h-371l140 700h22z" />
    <glyph glyph-name="uni013C" unicode="&#x13c;" horiz-adv-x="234" 
d="M86 -53q0 -7 -1.5 -15.5t-2.5 -14.5q-10 -50 -31.5 -66t-47.5 -16l4 19q22 0 33.5 13.5t15.5 35.5l2 6h-29l7 38h50zM212 711h22l-142 -711h-22z" />
    <glyph glyph-name="Lcaron" unicode="&#x13d;" horiz-adv-x="498" 
d="M380 700q-2 -22 -4.5 -38.5t-4.5 -30.5q-10 -47 -32 -63t-52 -16l4 21q26 0 38 11.5t16 33.5l6 28h-39l11 54h57zM207 700l-136 -680h349l-4 -20h-371l140 700h22z" />
    <glyph glyph-name="lcaron" unicode="&#x13e;" horiz-adv-x="296" 
d="M298 711q-2 -20 -4.5 -36t-4.5 -29q-9 -44 -29.5 -59t-49.5 -15l4 21q24 0 34.5 10.5t14.5 30.5l6 26h-35l10 51h54zM177 711h22l-141 -711h-22z" />
    <glyph glyph-name="Ldot" unicode="&#x13f;" horiz-adv-x="418" 
d="M45 0l140 700h22l-136 -680h269l-4 -20h-291zM351 345q-12 0 -19 9.5t-5 21.5t13 21t23 9q13 0 20 -9t5 -21t-13 -21.5t-24 -9.5z" />
    <glyph glyph-name="ldot" unicode="&#x140;" horiz-adv-x="197" 
d="M36 0l136 687h22l-136 -687h-22zM224 316q-12 0 -19.5 8.5t-5.5 20.5q3 11 13.5 20t22.5 9q11 0 18.5 -9t4.5 -20q-2 -12 -12.5 -20.5t-21.5 -8.5z" />
    <glyph glyph-name="Lslash" unicode="&#x141;" horiz-adv-x="512" 
d="M112 333l102 44l65 323h22l-63 -313l175 74l-4 -21l-175 -75l-69 -346h269l-4 -19h-291l71 355l-103 -44z" />
    <glyph glyph-name="lslash" unicode="&#x142;" horiz-adv-x="196" 
d="M40 408l199 101l-4 -21l-199 -101zM174 687h22l-136 -687h-22z" />
    <glyph glyph-name="Nacute" unicode="&#x143;" horiz-adv-x="681" 
d="M676 700l-140 -700h-21l-316 661l-132 -661h-22l140 700h21l316 -661l132 661h22zM551 909l-5 -25l-213 -129l5 21z" />
    <glyph glyph-name="nacute" unicode="&#x144;" horiz-adv-x="562" 
d="M135 500h22l-26 -130q29 63 82 100t131 37q54 0 93 -24t54.5 -73.5t0.5 -127.5l-56 -282h-22l56 283q20 99 -15.5 152t-115.5 53q-84 0 -145.5 -58t-84.5 -174l-51 -256h-22zM432 694l-5 -23l-197 -120l4 19z" />
    <glyph glyph-name="uni0145" unicode="&#x145;" horiz-adv-x="681" 
d="M288 -58q-1 -7 -1.5 -16t-2.5 -17q-10 -53 -33 -69.5t-50 -16.5l4 19q24 0 36 14t17 39l2 8h-32l8 39h52zM676 700l-140 -700h-21l-316 661l-132 -661h-22l140 700h21l316 -661l132 661h22z" />
    <glyph glyph-name="uni0146" unicode="&#x146;" horiz-adv-x="562" 
d="M255 -53q-1 -7 -2 -15.5t-2 -14.5q-10 -50 -31.5 -66t-48.5 -16l4 19q23 0 34.5 13.5t15.5 35.5l1 7h2v-1h-31l8 38h50zM135 500h22l-26 -130q29 63 82 100t131 37q54 0 93 -24t54.5 -73.5t0.5 -127.5l-56 -282h-22l56 283q20 99 -15.5 152t-115.5 53q-84 0 -145.5 -58
t-84.5 -174l-51 -256h-22z" />
    <glyph glyph-name="Ncaron" unicode="&#x147;" horiz-adv-x="681" 
d="M676 700l-140 -700h-21l-316 661l-132 -661h-22l140 700h21l316 -661l132 661h22zM591 888l-4 -22l-140 -80l-108 80l4 22l108 -81z" />
    <glyph glyph-name="ncaron" unicode="&#x148;" horiz-adv-x="562" 
d="M135 500h22l-26 -130q29 63 82 100t131 37q54 0 93 -24t54.5 -73.5t0.5 -127.5l-56 -282h-22l56 283q20 99 -15.5 152t-115.5 53q-84 0 -145.5 -58t-84.5 -174l-51 -256h-22zM469 675l-4 -20l-130 -75l-100 75l4 20l100 -75z" />
    <glyph glyph-name="Eng" unicode="&#x14a;" horiz-adv-x="681" 
d="M676 700l-140 -700h-21l-316 661l-132 -661h-22l140 700h21l316 -661l132 661h22zM520 23h21l-9 -44q-12 -58 -40 -97t-66 -59t-81 -23l1 20q64 5 107.5 46.5t57.5 112.5z" />
    <glyph glyph-name="eng" unicode="&#x14b;" horiz-adv-x="562" 
d="M135 500h22l-26 -130q29 63 82 100t131 37q54 0 93 -24t54.5 -73.5t0.5 -127.5l-56 -282h-22l56 283q20 99 -15.5 152t-115.5 53q-84 0 -145.5 -58t-84.5 -174l-51 -256h-22zM410 -21l17 88h22l-17 -88q-12 -58 -40 -97t-66.5 -59t-80.5 -23l1 20q43 3 76 22.5t55.5 54.5
t32.5 82z" />
    <glyph glyph-name="Omacron" unicode="&#x14c;" horiz-adv-x="768" 
d="M333 -7q-73 0 -129.5 26t-92.5 73.5t-47.5 113t3.5 144.5q16 79 54 144.5t92.5 113t121.5 73.5t140 26q74 0 130 -26t92 -73.5t47.5 -113t-4.5 -144.5q-15 -79 -53 -144.5t-92.5 -113t-121 -73.5t-140.5 -26zM337 13q87 0 166 40.5t136.5 116t77.5 180.5q21 105 -6 180.5
t-90 116t-150 40.5t-166.5 -40.5t-136.5 -116t-78 -180.5q-20 -105 7 -180.5t90 -116t150 -40.5zM356 837h310l-4 -20h-310z" />
    <glyph glyph-name="omacron" unicode="&#x14d;" horiz-adv-x="581" 
d="M240 -7q-69 0 -117 31t-68 88.5t-4 137.5q16 79 59 137t103 89t129 31t116.5 -31t67 -89t3.5 -137q-16 -80 -58 -137.5t-102 -88.5t-129 -31zM244 13q56 0 110.5 25.5t95.5 78t57 133.5t-4 133.5t-64.5 78t-100.5 25.5t-110.5 -25.5t-96 -78t-57.5 -133.5t4.5 -133.5
t65 -78t100.5 -25.5zM229 628h287l-4 -19h-287z" />
    <glyph glyph-name="Obreve" unicode="&#x14e;" horiz-adv-x="768" 
d="M333 -7q-73 0 -129.5 26t-92.5 73.5t-47.5 113t3.5 144.5q16 79 54 144.5t92.5 113t121.5 73.5t140 26q74 0 130 -26t92 -73.5t47.5 -113t-4.5 -144.5q-15 -79 -53 -144.5t-92.5 -113t-121 -73.5t-140.5 -26zM337 13q87 0 166 40.5t136.5 116t77.5 180.5q21 105 -6 180.5
t-90 116t-150 40.5t-166.5 -40.5t-136.5 -116t-78 -180.5q-20 -105 7 -180.5t90 -116t150 -40.5zM641 889q-5 -24 -21.5 -48t-46 -39.5t-72.5 -15.5q-42 0 -65 15.5t-30 39.5t-2 48l1 5h21q-9 -43 11.5 -66.5t67.5 -23.5q46 0 76.5 23.5t39.5 66.5h21z" />
    <glyph glyph-name="obreve" unicode="&#x14f;" horiz-adv-x="581" 
d="M240 -7q-69 0 -117 31t-68 88.5t-4 137.5q16 79 59 137t103 89t129 31t116.5 -31t67 -89t3.5 -137q-16 -80 -58 -137.5t-102 -88.5t-129 -31zM244 13q56 0 110.5 25.5t95.5 78t57 133.5t-4 133.5t-64.5 78t-100.5 25.5t-110.5 -25.5t-96 -78t-57.5 -133.5t4.5 -133.5
t65 -78t100.5 -25.5zM492 676q-4 -22 -19.5 -44.5t-42.5 -37t-67 -14.5q-39 0 -60.5 14.5t-28 37t-1.5 44.5l1 4h19q-8 -39 11 -61t62 -22t71.5 22t36.5 61h19z" />
    <glyph glyph-name="Ohungarumlaut" unicode="&#x150;" horiz-adv-x="768" 
d="M333 -7q-73 0 -129.5 26t-92.5 73.5t-47.5 113t3.5 144.5q16 79 54 144.5t92.5 113t121.5 73.5t140 26q74 0 130 -26t92 -73.5t47.5 -113t-4.5 -144.5q-15 -79 -53 -144.5t-92.5 -113t-121 -73.5t-140.5 -26zM337 13q87 0 166 40.5t136.5 116t77.5 180.5q21 105 -6 180.5
t-90 116t-150 40.5t-166.5 -40.5t-136.5 -116t-78 -180.5q-20 -105 7 -180.5t90 -116t150 -40.5zM530 875l-84 -104h-21l81 104h24zM647 875l-88 -104h-21l84 104h25z" />
    <glyph glyph-name="ohungarumlaut" unicode="&#x151;" horiz-adv-x="581" 
d="M240 -7q-69 0 -117 31t-68 88.5t-4 137.5q16 79 59 137t103 89t129 31t116.5 -31t67 -89t3.5 -137q-16 -80 -58 -137.5t-102 -88.5t-129 -31zM244 13q56 0 110.5 25.5t95.5 78t57 133.5t-4 133.5t-64.5 78t-100.5 25.5t-110.5 -25.5t-96 -78t-57.5 -133.5t4.5 -133.5
t65 -78t100.5 -25.5zM390 663l-78 -97h-19l74 97h23zM498 663l-81 -97h-20l78 97h23z" />
    <glyph glyph-name="OE" unicode="&#x152;" horiz-adv-x="1209" 
d="M333 -7q-73 0 -129.5 26t-92.5 73.5t-47.5 113t3.5 144.5q16 79 54 144.5t92.5 113t121.5 73.5t140 26q74 0 130 -26t92 -73.5t47.5 -113t-4.5 -144.5q-15 -79 -53 -144.5t-92.5 -113t-121 -73.5t-140.5 -26zM337 13q87 0 166 40.5t136.5 116t77.5 180.5q21 105 -6 180.5
t-90 116t-150 40.5t-166.5 -40.5t-136.5 -116t-78 -180.5q-20 -105 7 -180.5t90 -116t150 -40.5zM1219 680h-412l-61 -310h309l-4 -20h-309l-66 -330h412l-4 -20h-434l139 700h434z" />
    <glyph glyph-name="oe" unicode="&#x153;" horiz-adv-x="1011" 
d="M240 -7q-69 0 -117 31t-68 88.5t-4 137.5q16 79 59 137t103 89t129 31t116.5 -31t67 -89t3.5 -137q-16 -80 -58 -137.5t-102 -88.5t-129 -31zM244 13q56 0 110.5 25.5t95.5 78t57 133.5t-4 133.5t-64.5 78t-100.5 25.5t-110.5 -25.5t-96 -78t-57.5 -133.5t4.5 -133.5
t65 -78t100.5 -25.5zM686 -7q-68 0 -113 33t-62.5 92t-1.5 137q15 74 55.5 131t98.5 89t125 32q64 0 108.5 -28.5t63.5 -77t7 -110.5q-1 -7 -3 -18t-5 -23h-429q-13 -70 3 -123.5t56 -83.5t101 -30q70 0 128 32t93 91l17 -7q-38 -65 -102 -100.5t-140 -35.5zM941 270
q15 64 0 113t-55.5 76.5t-101.5 27.5q-58 0 -109.5 -28t-88.5 -77t-52 -112h407z" />
    <glyph glyph-name="Racute" unicode="&#x154;" horiz-adv-x="588" 
d="M558 503q11 54 -1.5 93.5t-53 61.5t-115.5 22h-185l-71 -355h187q107 0 165.5 51t73.5 127zM392 700q84 0 129 -25t58 -69.5t1 -102.5q-12 -63 -47 -107.5t-90 -67.5t-128 -23h-187l-61 -305h-22l140 700h207zM356 313l134 -313h-25l-134 313h25zM498 909l-5 -25
l-213 -129l5 21z" />
    <glyph glyph-name="racute" unicode="&#x155;" horiz-adv-x="345" 
d="M135 500h22l-24 -120q20 38 56 69t81.5 46t95.5 5l-4 -21q-42 10 -82 -1.5t-74.5 -39.5t-58.5 -69.5t-34 -90.5l-56 -278h-22zM356 694l-5 -23l-197 -120l4 19z" />
    <glyph glyph-name="uni0156" unicode="&#x156;" horiz-adv-x="588" 
d="M278 -58q0 -7 -1 -16t-3 -17q-10 -53 -33 -69.5t-50 -16.5l4 19q24 0 36 14t17 39l2 8h-32l8 39h52zM558 503q11 54 -1.5 93.5t-53 61.5t-115.5 22h-185l-71 -355h187q107 0 165.5 51t73.5 127zM392 700q84 0 129 -25t58 -69.5t1 -102.5q-12 -63 -47 -107.5t-90 -67.5
t-128 -23h-187l-61 -305h-22l140 700h207zM356 313l134 -313h-25l-134 313h25z" />
    <glyph glyph-name="uni0157" unicode="&#x157;" horiz-adv-x="360" 
d="M86 -53q-1 -7 -2 -15.5t-2 -14.5q-10 -50 -31.5 -66t-47.5 -16l3 19q23 0 34.5 13.5t15.5 35.5l1 6h-29l8 38h50zM150 500h22l-23 -120q20 38 55.5 69t81 46t95.5 5l-4 -21q-41 10 -81 -1.5t-74.5 -39.5t-59 -69.5t-34.5 -90.5l-55 -278h-22z" />
    <glyph glyph-name="Rcaron" unicode="&#x158;" horiz-adv-x="588" 
d="M558 503q11 54 -1.5 93.5t-53 61.5t-115.5 22h-185l-71 -355h187q107 0 165.5 51t73.5 127zM392 700q84 0 129 -25t58 -69.5t1 -102.5q-12 -63 -47 -107.5t-90 -67.5t-128 -23h-187l-61 -305h-22l140 700h207zM356 313l134 -313h-25l-134 313h25zM538 888l-4 -22
l-140 -80l-108 80l4 22l108 -81z" />
    <glyph glyph-name="rcaron" unicode="&#x159;" horiz-adv-x="352" 
d="M142 500h22l-24 -120q20 38 55.5 69t81 46t96.5 5l-5 -21q-41 10 -81 -1.5t-74.5 -39.5t-59 -69.5t-34.5 -90.5l-55 -278h-22zM399 675l-4 -20l-130 -75l-99 75l4 20l99 -75z" />
    <glyph glyph-name="Sacute" unicode="&#x15a;" horiz-adv-x="544" 
d="M56 147q1 -29 16 -60t52 -52t106 -21q94 0 149.5 43t69.5 111q10 53 -9.5 86.5t-59 54t-89.5 36.5q-39 12 -74 25t-60 32t-35.5 48t-2.5 73q11 54 44.5 95.5t85 65t115.5 23.5q59 0 96.5 -19t56.5 -48.5t22 -60.5l-20 -7q-3 24 -19.5 51t-50.5 45.5t-88 18.5
q-51 0 -97 -18.5t-79 -54.5t-43 -87q-10 -52 10.5 -81.5t61 -47t90.5 -33.5q40 -12 74 -27.5t58 -37t34 -53.5t1 -77q-9 -47 -37.5 -87.5t-79.5 -65t-127 -24.5q-69 0 -110.5 20t-60.5 53.5t-21 72.5zM479 909l-5 -25l-213 -129l5 21z" />
    <glyph glyph-name="sacute" unicode="&#x15b;" horiz-adv-x="461" 
d="M48 131q-1 -38 12.5 -64.5t43.5 -40t79 -13.5q79 0 124.5 32t55.5 82q8 42 -10.5 64t-51.5 33.5t-69 19.5q-21 5 -49.5 12t-54.5 20.5t-39.5 37t-6.5 62.5q8 39 35.5 69t69.5 46t92 16q60 0 101.5 -27t45.5 -90l-19 -5q-4 43 -25 65t-49.5 29.5t-55.5 7.5
q-68 0 -115 -29.5t-57 -80.5q-7 -31 4 -50.5t32.5 -31t48 -18t52.5 -11.5q27 -6 55.5 -15t51 -24t33 -39.5t3.5 -61.5q-9 -42 -37 -72t-71.5 -45.5t-98.5 -15.5q-74 0 -113 31t-39 101zM392 694l-5 -23l-197 -120l4 19z" />
    <glyph glyph-name="Scircumflex" unicode="&#x15c;" horiz-adv-x="544" 
d="M56 147q1 -29 16 -60t52 -52t106 -21q94 0 149.5 43t69.5 111q10 53 -9.5 86.5t-59 54t-89.5 36.5q-39 12 -74 25t-60 32t-35.5 48t-2.5 73q11 54 44.5 95.5t85 65t115.5 23.5q59 0 96.5 -19t56.5 -48.5t22 -60.5l-20 -7q-3 24 -19.5 51t-50.5 45.5t-88 18.5
q-51 0 -97 -18.5t-79 -54.5t-43 -87q-10 -52 10.5 -81.5t61 -47t90.5 -33.5q40 -12 74 -27.5t58 -37t34 -53.5t1 -77q-9 -47 -37.5 -87.5t-79.5 -65t-127 -24.5q-69 0 -110.5 20t-60.5 53.5t-21 72.5zM499 789l-108 81l-140 -81l5 22l140 81l108 -81z" />
    <glyph glyph-name="scircumflex" unicode="&#x15d;" horiz-adv-x="461" 
d="M48 131q-1 -38 12.5 -64.5t43.5 -40t79 -13.5q79 0 124.5 32t55.5 82q8 42 -10.5 64t-51.5 33.5t-69 19.5q-21 5 -49.5 12t-54.5 20.5t-39.5 37t-6.5 62.5q8 39 35.5 69t69.5 46t92 16q60 0 101.5 -27t45.5 -90l-19 -5q-4 43 -25 65t-49.5 29.5t-55.5 7.5
q-68 0 -115 -29.5t-57 -80.5q-7 -31 4 -50.5t32.5 -31t48 -18t52.5 -11.5q27 -6 55.5 -15t51 -24t33 -39.5t3.5 -61.5q-9 -42 -37 -72t-71.5 -45.5t-98.5 -15.5q-74 0 -113 31t-39 101zM421 589l-108 81l-140 -81l4 22l140 81l108 -81z" />
    <glyph glyph-name="Scedilla" unicode="&#x15e;" horiz-adv-x="544" 
d="M56 147q1 -29 16 -60t52 -52t106 -21q94 0 149.5 43t69.5 111q10 53 -9.5 86.5t-59 54t-89.5 36.5q-39 12 -74 25t-60 32t-35.5 48t-2.5 73q11 54 44.5 95.5t85 65t115.5 23.5q59 0 96.5 -19t56.5 -48.5t22 -60.5l-20 -7q-3 24 -19.5 51t-50.5 45.5t-88 18.5
q-51 0 -97 -18.5t-79 -54.5t-43 -87q-10 -52 10.5 -81.5t61 -47t90.5 -33.5q40 -12 74 -27.5t58 -37t34 -53.5t1 -77q-9 -47 -37.5 -87.5t-79.5 -65t-127 -24.5q-69 0 -110.5 20t-60.5 53.5t-21 72.5zM214 -87q41 2 67.5 -6.5t37 -27.5t5.5 -46q-5 -25 -21 -44.5t-42 -30.5
t-61 -11h-64l4 20h61q49 0 72 19t29 47q5 25 -10.5 43t-65.5 18h-38l23 113h22z" />
    <glyph glyph-name="scedilla" unicode="&#x15f;" horiz-adv-x="461" 
d="M48 131q-1 -38 12.5 -64.5t43.5 -40t79 -13.5q79 0 124.5 32t55.5 82q8 42 -10.5 64t-51.5 33.5t-69 19.5q-21 5 -49.5 12t-54.5 20.5t-39.5 37t-6.5 62.5q8 39 35.5 69t69.5 46t92 16q60 0 101.5 -27t45.5 -90l-19 -5q-4 43 -25 65t-49.5 29.5t-55.5 7.5
q-68 0 -115 -29.5t-57 -80.5q-7 -31 4 -50.5t32.5 -31t48 -18t52.5 -11.5q27 -6 55.5 -15t51 -24t33 -39.5t3.5 -61.5q-9 -42 -37 -72t-71.5 -45.5t-98.5 -15.5q-74 0 -113 31t-39 101zM176 -80q38 2 62.5 -6t34.5 -25.5t4 -42.5q-4 -24 -19 -41.5t-39 -28t-56 -10.5h-60
l4 19h57q45 0 66.5 17t26.5 44q5 22 -9.5 39t-60.5 17h-35l21 105h20z" />
    <glyph glyph-name="Scaron" unicode="&#x160;" horiz-adv-x="544" 
d="M56 147q1 -29 16 -60t52 -52t106 -21q94 0 149.5 43t69.5 111q10 53 -9.5 86.5t-59 54t-89.5 36.5q-39 12 -74 25t-60 32t-35.5 48t-2.5 73q11 54 44.5 95.5t85 65t115.5 23.5q60 0 97 -19t56 -48.5t22 -60.5l-20 -7q-3 24 -19.5 51t-50.5 45.5t-88 18.5q-51 0 -97 -18.5
t-79 -54.5t-43 -87q-10 -52 10.5 -81.5t61 -47t90.5 -33.5q40 -12 74 -27.5t58 -37t34 -53.5t1 -77q-9 -47 -37.5 -87.5t-79.5 -65t-127 -24.5q-69 0 -110.5 20t-60.5 53.5t-21 72.5zM519 888l-4 -22l-140 -80l-108 80l4 22l108 -81z" />
    <glyph glyph-name="scaron" unicode="&#x161;" horiz-adv-x="461" 
d="M48 131q-1 -38 12.5 -64.5t43.5 -40t79 -13.5q79 0 124.5 32t55.5 82q8 42 -10.5 64t-51.5 33.5t-69 19.5q-21 5 -49.5 12t-54.5 20.5t-39.5 37t-6.5 62.5q8 39 35.5 69t69.5 46t92 16q60 0 101.5 -27t45.5 -90l-19 -5q-4 43 -25 65t-49.5 29.5t-55.5 7.5
q-68 0 -115 -29.5t-57 -80.5q-7 -31 4 -50.5t32.5 -31t48 -18t52.5 -11.5q27 -6 55.5 -15t51 -24t33 -39.5t3.5 -61.5q-9 -42 -37 -72t-71.5 -45.5t-98.5 -15.5q-74 0 -113 31t-39 101zM429 675l-5 -20l-129 -75l-100 75l4 20l100 -75z" />
    <glyph glyph-name="uni0162" unicode="&#x162;" horiz-adv-x="586" 
d="M137 700h491l-4 -20h-234l-135 -680h-22l135 680h-235zM237 -87q42 2 68.5 -6.5t37 -27.5t5.5 -46q-5 -25 -21 -44.5t-42 -30.5t-61 -11h-64l3 20h61q50 0 73 19t29 47q4 25 -11.5 43t-64.5 18h-38l22 113h22z" />
    <glyph glyph-name="uni0163" unicode="&#x163;" horiz-adv-x="383" 
d="M195 629h22l-99 -497q-13 -66 6.5 -88t74.5 -22h54l-4 -22h-56q-43 0 -67.5 13t-32 42t2.5 77zM84 480l4 21h260l-4 -21h-260zM162 -82l-3 3q43 0 68 -7.5t34 -23.5t3 -44q-5 -23 -19.5 -41.5t-38.5 -29t-57 -10.5h-60l4 21h57q46 0 67 16.5t26 43.5q5 23 -9.5 39
t-60.5 16h-35l22 108h21z" />
    <glyph glyph-name="Tcaron" unicode="&#x164;" horiz-adv-x="586" 
d="M137 700h491l-4 -20h-234l-135 -680h-22l135 680h-235zM545 888l-4 -22l-140 -80l-108 80l4 22l108 -81z" />
    <glyph glyph-name="tcaron" unicode="&#x165;" horiz-adv-x="336" 
d="M330 687q-2 -20 -4 -36t-5 -29q-9 -44 -29.5 -58.5t-50.5 -14.5l4 20q25 0 36 11t15 30l5 26h-35l10 51h54zM170 500l28 140h22l-28 -140h155l-4 -20h-155l-69 -346q-8 -41 8.5 -70t49.5 -41t75 -2l-4 -18q-34 -9 -64.5 -4t-52.5 23t-31.5 46.5t-2.5 65.5l69 346h-82
l4 20h82z" />
    <glyph glyph-name="Utilde" unicode="&#x168;" horiz-adv-x="672" 
d="M180 700h22l-87 -435q-18 -92 2 -147.5t66.5 -80t107.5 -24.5t116 24.5t96 80t59 147.5l87 435h22l-87 -435q-14 -72 -42.5 -123.5t-68 -84.5t-87 -48.5t-99.5 -15.5q-69 0 -119.5 28t-72 88t-2.5 156zM320 764q10 30 29 48t46 18q18 0 29.5 -7.5t20.5 -17t19.5 -17
t28.5 -7.5q16 0 30.5 11.5t22.5 34.5h19q-7 -27 -28.5 -46t-47.5 -19q-19 0 -31.5 7.5t-21.5 17t-19 17t-26 7.5q-17 0 -30.5 -11.5t-21.5 -35.5h-19z" />
    <glyph glyph-name="utilde" unicode="&#x169;" horiz-adv-x="561" 
d="M426 0h-21l24 124q-28 -62 -80.5 -96.5t-129.5 -34.5q-54 0 -93.5 22.5t-55.5 71.5t0 126l57 287h22l-58 -289q-19 -99 15.5 -148.5t116.5 -49.5q85 0 145.5 55t83.5 171l52 261h22zM224 559q9 29 27 45.5t42 16.5q23 0 34.5 -11.5l23 -23t33.5 -11.5q14 0 28 11t21 32
h18q-7 -25 -27 -43t-44 -18t-36.5 11.5t-23.5 23.5t-31 12q-15 0 -27.5 -11t-19.5 -34h-18z" />
    <glyph glyph-name="Umacron" unicode="&#x16a;" horiz-adv-x="672" 
d="M180 700h22l-87 -435q-18 -92 2 -147.5t66.5 -80t107.5 -24.5t116 24.5t96 80t59 147.5l87 435h22l-87 -435q-14 -72 -42.5 -123.5t-68 -84.5t-87 -48.5t-99.5 -15.5q-69 0 -119.5 28t-72 88t-2.5 156zM297 837h310l-4 -20h-310z" />
    <glyph glyph-name="umacron" unicode="&#x16b;" horiz-adv-x="561" 
d="M426 0h-21l24 124q-28 -62 -80.5 -96.5t-129.5 -34.5q-54 0 -93.5 22.5t-55.5 71.5t0 126l57 287h22l-58 -289q-20 -99 15 -148.5t117 -49.5q85 0 145.5 55t83.5 171l52 261h22zM203 628h286l-3 -19h-287z" />
    <glyph glyph-name="Ubreve" unicode="&#x16c;" horiz-adv-x="672" 
d="M180 700h22l-87 -435q-18 -92 2 -147.5t66.5 -80t107.5 -24.5t116 24.5t96 80t59 147.5l87 435h22l-87 -435q-14 -72 -42.5 -123.5t-68 -84.5t-87 -48.5t-99.5 -15.5q-69 0 -119.5 28t-72 88t-2.5 156zM581 889q-4 -24 -21 -48t-46 -39.5t-72 -15.5t-65.5 15.5
t-29.5 39.5t-3 48l1 5h21q-8 -43 12.5 -66.5t67.5 -23.5q46 0 76.5 23.5t38.5 66.5h21z" />
    <glyph glyph-name="ubreve" unicode="&#x16d;" horiz-adv-x="561" 
d="M426 0h-21l24 124q-28 -62 -80.5 -96.5t-129.5 -34.5q-54 0 -93.5 22.5t-55.5 71.5t0 126l57 287h22l-58 -289q-19 -99 15.5 -148.5t116.5 -49.5q85 0 145.5 55t83.5 171l52 261h22zM466 676q-5 -22 -20 -44.5t-42.5 -37t-66.5 -14.5q-40 0 -61 14.5t-27.5 37t-2.5 44.5
l1 4h20q-8 -39 11 -61t62 -22t71 22t36 61h20z" />
    <glyph glyph-name="Uring" unicode="&#x16e;" horiz-adv-x="672" 
d="M180 700h22l-87 -435q-18 -92 2 -147.5t66.5 -80t107.5 -24.5t116 24.5t96 80t59 147.5l87 435h22l-87 -435q-14 -72 -42.5 -123.5t-68 -84.5t-87 -48.5t-99.5 -15.5q-69 0 -119.5 28t-72 88t-2.5 156zM543 844q-8 -42 -40 -65.5t-68 -23.5q-37 0 -59 23.5t-14 65.5
q9 42 40.5 66.5t67.5 24.5q37 0 59.5 -24.5t13.5 -66.5zM522 844q7 34 -9 53t-46 19t-53.5 -19t-30.5 -53q-6 -33 9.5 -51.5t45.5 -18.5t54 18.5t30 51.5z" />
    <glyph glyph-name="uring" unicode="&#x16f;" horiz-adv-x="561" 
d="M426 0h-21l24 124q-28 -62 -80.5 -96.5t-129.5 -34.5q-54 0 -93.5 22.5t-55.5 71.5t0 126l57 287h22l-58 -289q-19 -99 15.5 -148.5t116.5 -49.5q85 0 145.5 55t83.5 171l52 261h22zM431 634q-8 -39 -37.5 -61t-63.5 -22t-54.5 22t-12.5 61t37 61.5t63 22.5t54.5 -22.5
t13.5 -61.5zM411 634q6 31 -9 49t-42 18q-28 0 -49.5 -18t-27.5 -49q-6 -30 8.5 -48t41.5 -18q28 0 50 18t28 48z" />
    <glyph glyph-name="Uhungarumlaut" unicode="&#x170;" horiz-adv-x="672" 
d="M180 700h22l-87 -435q-18 -92 2 -147.5t66.5 -80t107.5 -24.5t116 24.5t96 80t59 147.5l87 435h22l-87 -435q-14 -72 -42.5 -123.5t-68 -84.5t-87 -48.5t-99.5 -15.5q-69 0 -119.5 28t-72 88t-2.5 156zM471 875l-84 -104h-21l81 104h24zM588 875l-88 -104h-21l84 104h25z
" />
    <glyph glyph-name="uhungarumlaut" unicode="&#x171;" horiz-adv-x="561" 
d="M426 0h-21l24 124q-28 -62 -80.5 -96.5t-129.5 -34.5q-54 0 -93.5 22.5t-55.5 71.5t0 126l57 287h22l-58 -289q-19 -99 15.5 -148.5t116.5 -49.5q85 0 145.5 55t83.5 171l52 261h22zM363 663l-77 -97h-20l75 97h22zM471 663l-81 -97h-19l77 97h23z" />
    <glyph glyph-name="Uogonek" unicode="&#x172;" horiz-adv-x="672" 
d="M180 700h22l-87 -435q-18 -92 2 -147.5t66.5 -80t107.5 -24.5t116 24.5t96 80t59 147.5l87 435h22l-87 -435q-14 -72 -42.5 -123.5t-68 -84.5t-87 -48.5t-99.5 -15.5q-69 0 -119.5 28t-72 88t-2.5 156zM346 16l4 -16l-78 -33q-43 -18 -62.5 -38.5t-23.5 -41.5
q-6 -29 11.5 -42.5t46.5 -13.5q15 0 32 3.5t33 9.5l-4 -21q-17 -6 -33.5 -9t-31.5 -3q-26 0 -44.5 8t-27 24t-3.5 42q3 19 15.5 36.5t34.5 33.5t57 30z" />
    <glyph glyph-name="uogonek" unicode="&#x173;" horiz-adv-x="561" 
d="M426 0h-21l24 124q-28 -62 -80.5 -96.5t-129.5 -34.5q-54 0 -93.5 22.5t-55.5 71.5t0 126l57 287h22l-58 -289q-19 -99 15.5 -148.5t116.5 -49.5q85 0 145.5 55t83.5 171l52 261h22zM422 16l3 -15l-71 -31q-40 -16 -58 -35.5t-22 -38.5q-5 -28 10.5 -40t43.5 -12
q26 0 60 12l-4 -20q-15 -5 -30.5 -8t-29.5 -3q-24 0 -41.5 7.5t-25 22.5t-3.5 39q6 27 29 50.5t70 42.5z" />
    <glyph glyph-name="Wcircumflex" unicode="&#x174;" horiz-adv-x="900" 
d="M192 0h-21l-50 700h25l45 -659l337 659h24l75 -659l307 659h24l-329 -700h-21l-75 664zM681 788l-108 81l-140 -81l4 22l140 81l108 -81z" />
    <glyph glyph-name="wcircumflex" unicode="&#x175;" horiz-adv-x="766" 
d="M154 0h-17l-59 500h23l53 -462l270 462h17l87 -462l236 462h23l-256 -500h-18l-88 461zM564 582l-100 75l-130 -75l4 21l130 75l100 -75z" />
    <glyph glyph-name="Ycircumflex" unicode="&#x176;" horiz-adv-x="583" 
d="M619 700h22l-329 -406l-58 -294h-22l58 294l-169 406h24l161 -384zM524 788l-108 81l-140 -81l4 22l140 81l108 -81z" />
    <glyph glyph-name="ycircumflex" unicode="&#x177;" horiz-adv-x="475" 
d="M481 500h22l-412 -700h-23l118 200l-115 500h22l109 -475zM419 582l-100 75l-129 -75l4 21l129 75l100 -75z" />
    <glyph glyph-name="Ydieresis" unicode="&#x178;" horiz-adv-x="583" 
d="M619 700h22l-329 -406l-58 -294h-22l58 294l-169 406h24l161 -384zM335 798q-13 0 -20 9t-4 21q2 13 12.5 22t23.5 9t20 -9t5 -22q-3 -12 -13.5 -21t-23.5 -9zM470 798q-13 0 -20.5 9t-4.5 21q2 13 13 22t24 9q12 0 19 -9t5 -22q-3 -12 -13.5 -21t-22.5 -9z" />
    <glyph glyph-name="Zacute" unicode="&#x179;" horiz-adv-x="585" 
d="M597 679l-555 -658h434l-4 -21h-458l4 20l554 658h-412l5 22h436zM484 909l-5 -25l-212 -129l4 21z" />
    <glyph glyph-name="zacute" unicode="&#x17a;" horiz-adv-x="474" 
d="M453 477l-418 -457h337l-4 -20h-361l4 22l418 458h-318l4 20h342zM383 694l-5 -23l-197 -120l4 19z" />
    <glyph glyph-name="Zdotaccent" unicode="&#x17b;" horiz-adv-x="585" 
d="M597 679l-555 -658h434l-4 -21h-458l4 20l554 658h-412l5 22h436zM378 777q-12 0 -19 8.5t-5 20.5q2 13 13 22t23 9q13 0 20 -9t5 -22q-2 -12 -13 -20.5t-24 -8.5z" />
    <glyph glyph-name="zdotaccent" unicode="&#x17c;" horiz-adv-x="474" 
d="M453 477l-418 -457h337l-4 -20h-361l4 22l418 458h-318l4 20h342zM284 571q-11 0 -17.5 8.5t-4.5 19.5q2 12 12 20.5t22 8.5q11 0 18 -8.5t5 -20.5q-3 -11 -13 -19.5t-22 -8.5z" />
    <glyph glyph-name="Zcaron" unicode="&#x17d;" horiz-adv-x="585" 
d="M597 679l-555 -658h434l-4 -21h-458l4 20l554 658h-412l5 22h436zM524 888l-4 -22l-140 -80l-108 80l4 22l108 -81z" />
    <glyph glyph-name="zcaron" unicode="&#x17e;" horiz-adv-x="474" 
d="M453 477l-418 -457h337l-4 -20h-361l4 22l418 458h-318l4 20h342zM420 675l-4 -20l-130 -75l-100 75l4 20l100 -75z" />
    <glyph glyph-name="uni018F" unicode="&#x18f;" horiz-adv-x="761" 
d="M700 351q21 105 -4.5 180t-86.5 115t-146 40q-70 0 -136.5 -26.5t-120 -76t-84.5 -120.5h-23q31 74 87.5 128.5t128.5 84.5t152 30q97 0 161.5 -45.5t90.5 -126t5 -185.5q-22 -108 -80 -188t-142 -124.5t-183 -44.5q-92 0 -155 38t-89 109.5t-6 172.5q3 11 5.5 22.5
t5.5 22.5h628l-3 -19h-606q-26 -98 -6.5 -171.5t78.5 -114t152 -40.5q87 0 164.5 38.5t134 112.5t77.5 182z" />
    <glyph glyph-name="florin" unicode="&#x192;" horiz-adv-x="411" 
d="M170 501h245l-5 -19h-244zM271 565q23 71 72.5 103t124.5 32l-5 -20q-68 0 -110 -28t-61 -87l-157 -469q-14 -44 -38.5 -70t-80.5 -26h-28l5 19h25q37 0 58 14.5t37 62.5z" />
    <glyph glyph-name="uni01CD" unicode="&#x1cd;" horiz-adv-x="613" 
d="M409 680h-32l-395 -680h-22l407 700h59l128 -700h-22zM99 230h408l-4 -20h-408zM560 889l-5 -22l-140 -81l-108 81l5 22l107 -81z" />
    <glyph glyph-name="uni01CE" unicode="&#x1ce;" horiz-adv-x="524" 
d="M376 0l27 138q-33 -70 -92 -107.5t-139 -37.5q-54 0 -89 15.5t-49 45.5t-5 74q12 62 66.5 99t157.5 48l181 20l9 46q15 72 -19 109t-110 37q-72 0 -124.5 -33t-78.5 -94l-18 7q31 69 87.5 104.5t135.5 35.5q88 0 127 -41t24 -117l-69 -349h-22zM430 274l-182 -19
q-94 -10 -140.5 -41t-56.5 -85q-11 -56 20.5 -86.5t101.5 -30.5q64 0 115 26.5t85.5 75.5t47.5 117zM471 689l-4 -22l-140 -81l-108 81l4 22l108 -81z" />
    <glyph glyph-name="Gcaron" unicode="&#x1e6;" horiz-adv-x="764" 
d="M720 502q-17 80 -80.5 132.5t-168.5 52.5q-87 0 -166.5 -40.5t-137 -116t-78.5 -180.5q-20 -105 7 -180.5t90.5 -116t150.5 -40.5q71 0 137 27.5t120.5 78.5t88.5 123l19 97h-300l4 20h322l-23 -119q-35 -74 -92 -130t-128.5 -86.5t-151.5 -30.5q-73 0 -129.5 26
t-92.5 73.5t-47.5 113t3.5 144.5q16 79 54 144.5t92.5 113t121.5 73.5t140 26q74 0 128.5 -24.5t88 -69t47.5 -104.5zM650 889l-5 -22l-140 -81l-108 81l5 22l107 -81z" />
    <glyph glyph-name="gcaron" unicode="&#x1e7;" horiz-adv-x="601" 
d="M543 500h22l-76 -383q-20 -102 -74.5 -172.5t-139.5 -107.5t-196 -37l1 20q160 1 259 77t128 220l6 30h1q-32 -63 -92.5 -107.5t-149.5 -46.5q-70 0 -116 31.5t-63 89.5t-2 136q16 78 56 135.5t98.5 89.5t128.5 32q60 0 98.5 -21t58.5 -55t24 -74zM73 250
q-22 -110 22.5 -173.5t142.5 -63.5q63 0 115.5 30.5t89 84t50.5 122.5q14 70 -1 123.5t-56 83.5t-104 30q-65 0 -118 -29t-89.5 -82t-51.5 -126zM496 689l-5 -22l-140 -81l-108 81l5 22l108 -81z" />
    <glyph glyph-name="uni01E8" unicode="&#x1e8;" horiz-adv-x="541" 
d="M185 700h22l-66 -330h34l412 330h30l-424 -340l284 -360h-30l-276 350h-34l-70 -350h-22zM517 889l-4 -22l-140 -81l-108 81l4 22l108 -81z" />
    <glyph glyph-name="uni01E9" unicode="&#x1e9;" horiz-adv-x="730" 
d="M141 720h22l-91 -457h61l282 237h30l-297 -247l201 -253h-30l-190 243h-61l-48 -243h-22zM309 879l-4 -22l-141 -81l-107 81l4 22l108 -81z" />
    <glyph glyph-name="uni01EA" unicode="&#x1ea;" horiz-adv-x="768" 
d="M333 -7q-73 0 -129.5 26t-92.5 73.5t-47.5 113t3.5 144.5q16 79 54 144.5t92.5 113t121.5 73.5t140 26q74 0 130 -26t92 -73.5t47.5 -113t-4.5 -144.5q-15 -79 -53 -144.5t-92.5 -113t-121 -73.5t-140.5 -26zM337 13q87 0 166 40.5t136.5 116t77.5 180.5q21 105 -6 180.5
t-90 116t-150 40.5t-166.5 -40.5t-136.5 -116t-78 -180.5q-20 -105 7 -180.5t90 -116t150 -40.5zM442 27l4 -16l-78 -33q-42 -18 -62 -39t-24 -42q-6 -29 11.5 -42.5t46.5 -13.5q15 0 32 3.5t34 9.5l-5 -21q-17 -6 -33.5 -9t-31.5 -3q-26 0 -44.5 8t-27 24.5t-3.5 41.5
q4 20 16 37.5t34.5 33.5t56.5 30z" />
    <glyph glyph-name="uni01EB" unicode="&#x1eb;" horiz-adv-x="581" 
d="M240 -7q-69 0 -117 31t-68 88.5t-4 137.5q16 79 59 137t103 89t129 31t116.5 -31t67 -89t3.5 -137q-16 -80 -58 -137.5t-102 -88.5t-129 -31zM244 13q56 0 110.5 25.5t95.5 78t57 133.5t-4 133.5t-64.5 78t-100.5 25.5t-110.5 -25.5t-96 -78t-57.5 -133.5t4.5 -133.5
t65 -78t100.5 -25.5zM368 42l4 -16l-78 -33q-43 -18 -62.5 -39t-23.5 -42q-6 -29 11.5 -42.5t46.5 -13.5q15 0 31.5 3.5t33.5 9.5l-4 -21q-17 -6 -33.5 -9t-31.5 -3q-26 0 -44.5 8t-27.5 24.5t-3 41.5q3 20 15.5 37.5t34.5 33.5t57 30z" />
    <glyph glyph-name="AEacute" unicode="&#x1fc;" horiz-adv-x="864" 
d="M551 680l-62 -310h233l-4 -20h-233l-65 -330h323l-4 -20h-345l42 210h-279l-171 -210h-26l571 700h347l-4 -20h-323zM173 230h267l85 432zM666 909l-5 -25l-213 -129l4 21z" />
    <glyph glyph-name="aeacute" unicode="&#x1fd;" horiz-adv-x="925" 
d="M602 -7q-70 0 -114 32t-60 91t0 139q23 118 97.5 185t178.5 67q75 0 117.5 -31.5t56.5 -81t3 -103.5q-1 -7 -3 -17.5t-5 -23.5h-427q-15 -82 3.5 -134.5t60 -77.5t96.5 -25q73 0 129.5 32.5t91.5 90.5l15 -7q-35 -61 -95.5 -98.5t-144.5 -37.5zM857 270q19 71 2 119
t-59.5 73t-99.5 25q-53 0 -104 -23t-89.5 -70.5t-56.5 -123.5h407zM434 250l-7 -70q-26 -67 -65.5 -108t-88 -60t-101.5 -19q-48 0 -83.5 16t-52 47t-7.5 76q10 46 37.5 74t63 42t69 19.5t54.5 7.5l181 17l10 55q13 61 -18.5 100.5t-111.5 39.5q-62 0 -118 -29t-85 -98
l-18 7q33 73 91 106.5t132 33.5q81 0 122 -39.5t25 -118.5l-18 -89zM430 272l-182 -17q-78 -8 -131 -34.5t-66 -88.5q-11 -59 26 -89t97 -30q65 0 116.5 28.5t85 78.5t46.5 114zM614 692l-5 -23l-197 -120l4 19z" />
    <glyph glyph-name="uni0218" unicode="&#x218;" horiz-adv-x="544" 
d="M258 -58q-1 -7 -2 -16t-3 -17q-10 -53 -32.5 -69.5t-50.5 -16.5l4 19q24 0 36 14t17 39l2 8h-32l8 39h53zM56 147q1 -29 16 -60t52 -52t106 -21q94 0 149.5 43t69.5 111q10 53 -9.5 86.5t-59 54t-89.5 36.5q-39 12 -74 25t-60 32t-35.5 48t-2.5 73q11 54 44.5 95.5t85 65
t115.5 23.5q59 0 96.5 -19t56.5 -48.5t22 -60.5l-20 -7q-3 24 -19.5 51t-50.5 45.5t-88 18.5q-51 0 -97 -18.5t-79 -54.5t-43 -87q-10 -52 10.5 -81.5t61 -47t90.5 -33.5q40 -12 74 -27.5t58 -37t34 -53.5t1 -77q-9 -47 -37.5 -87.5t-79.5 -65t-127 -24.5q-69 0 -110.5 20
t-60.5 53.5t-21 72.5z" />
    <glyph glyph-name="uni0219" unicode="&#x219;" horiz-adv-x="461" 
d="M209 -53q-1 -7 -1.5 -15.5t-1.5 -14.5q-10 -50 -31.5 -66t-48.5 -16l4 19q22 0 34 13.5t16 35.5l1 6h-29l8 38h49zM48 131q-1 -38 12.5 -64.5t43.5 -40t79 -13.5q79 0 124.5 32t55.5 82q8 42 -10.5 64t-51.5 33.5t-69 19.5q-21 5 -49.5 12t-54.5 20.5t-39.5 37t-6.5 62.5
q8 39 35.5 69t69.5 46t92 16q60 0 101.5 -27t45.5 -90l-19 -5q-4 43 -25 65t-49.5 29.5t-55.5 7.5q-68 0 -115 -29.5t-57 -80.5q-7 -31 4 -50.5t32.5 -31t48 -18t52.5 -11.5q27 -6 55.5 -15t51 -24t33 -39.5t3.5 -61.5q-9 -42 -37 -72t-71.5 -45.5t-98.5 -15.5
q-74 0 -113 31t-39 101z" />
    <glyph glyph-name="uni021A" unicode="&#x21a;" horiz-adv-x="586" 
d="M267 -58q0 -7 -1 -16t-3 -17q-10 -53 -33 -69.5t-50 -16.5l4 19q24 0 36 14t17 39l2 8h-32l8 39h52zM137 700h491l-4 -20h-234l-135 -680h-22l135 680h-235z" />
    <glyph glyph-name="uni021B" unicode="&#x21b;" horiz-adv-x="336" 
d="M153 -53q-1 -7 -2 -15.5t-2 -14.5q-10 -50 -31.5 -66t-48.5 -16l4 19q23 0 34 13.5t16 35.5l1 6h-29l8 38h50zM170 500l28 140h22l-28 -140h155l-4 -20h-155l-69 -346q-8 -41 8.5 -70t49.5 -41t75 -2l-4 -18q-34 -9 -64.5 -4t-52.5 23t-31.5 46.5t-2.5 65.5l69 346h-82
l4 20h82z" />
    <glyph glyph-name="uni0232" unicode="&#x232;" horiz-adv-x="583" 
d="M619 700h22l-329 -406l-58 -294h-22l58 294l-169 406h24l161 -384zM255 838h310l-4 -20h-310z" />
    <glyph glyph-name="uni0233" unicode="&#x233;" horiz-adv-x="475" 
d="M481 500h22l-412 -700h-23l118 200l-115 500h22l109 -475zM161 638h310l-4 -20h-310z" />
    <glyph glyph-name="uni0259" unicode="&#x259;" horiz-adv-x="554" 
d="M325 507q68 0 113 -33t62 -92t2 -137q-15 -74 -55.5 -131t-98.5 -89t-125 -32q-64 0 -108.5 28.5t-64 77t-6.5 110.5q1 8 3 18.5t5 22.5h429q13 70 -3 123.5t-56.5 83.5t-100.5 30q-70 0 -128 -32t-94 -91l-16 7q38 65 101.5 100.5t140.5 35.5zM70 230q-15 -64 0 -113
t55 -76.5t102 -27.5q58 0 109.5 28t88.5 77t52 112h-407z" />
    <glyph glyph-name="circumflex" unicode="&#x2c6;" horiz-adv-x="276" 
d="M336 619l-108 81l-140 -81l4 22l140 81l108 -81z" />
    <glyph glyph-name="caron" unicode="&#x2c7;" horiz-adv-x="277" 
d="M356 719l-5 -22l-140 -81l-108 81l5 22l107 -81z" />
    <glyph glyph-name="breve" unicode="&#x2d8;" horiz-adv-x="266" 
d="M345 720q-5 -24 -21.5 -48t-46 -40t-72.5 -16q-42 0 -65 16t-30 40t-2 48l1 5h21q-9 -43 11.5 -66.5t67.5 -23.5q46 0 76.5 23.5t39.5 66.5h21z" />
    <glyph glyph-name="dotaccent" unicode="&#x2d9;" horiz-adv-x="89" 
d="M120 629q-12 0 -19.5 9t-4.5 21q2 13 13 22t23 9q13 0 20 -9t5 -22q-3 -12 -14 -21t-23 -9z" />
    <glyph glyph-name="ring" unicode="&#x2da;" horiz-adv-x="209" 
d="M286 705q-9 -42 -40.5 -66t-68.5 -24t-59 24t-13 66q8 42 39.5 66.5t68.5 24.5t59 -24.5t14 -66.5zM265 705q6 34 -10 53t-46 19t-53.5 -19t-29.5 -53q-7 -33 9 -52t46 -19t53.5 19t30.5 52z" />
    <glyph glyph-name="ogonek" unicode="&#x2db;" horiz-adv-x="191" 
d="M123 16l4 -16l-78 -33q-43 -18 -62.5 -39t-23.5 -42q-6 -29 11 -42.5t47 -13.5q15 0 31.5 3.5t33.5 9.5l-4 -21q-17 -6 -33.5 -9t-31.5 -3q-26 0 -44.5 8t-27.5 24.5t-4 41.5q4 20 16.5 37.5t34.5 33.5t57 30z" />
    <glyph glyph-name="tilde" unicode="&#x2dc;" horiz-adv-x="261" 
d="M85 604q10 31 29 49t45 18q19 0 30 -7.5t20 -17.5t19.5 -17.5t28.5 -7.5q16 0 31 12t22 35h19q-7 -28 -28.5 -47t-47.5 -19q-19 0 -31 7.5t-21.5 17.5t-19.5 17.5t-26 7.5q-17 0 -30 -11.5t-21 -36.5h-19z" />
    <glyph glyph-name="hungarumlaut" unicode="&#x2dd;" horiz-adv-x="230" 
d="M189 706l-84 -105h-21l81 105h24zM306 706l-88 -105h-21l84 105h25z" />
    <glyph glyph-name="uni0394" unicode="&#x394;" horiz-adv-x="651" 
d="M404 700h21l152 -681l-4 -19h-594l4 19zM408 675l-403 -655h550z" />
    <glyph glyph-name="uni03A9" unicode="&#x3a9;" horiz-adv-x="790" 
d="M228 21q-67 21 -108.5 68.5t-54.5 115t2 145.5q16 80 56 145.5t97 112.5t125 73t140 26q73 0 131 -26t96 -73t52 -112.5t-2 -145.5q-15 -78 -55.5 -145.5t-100.5 -115t-136 -68.5h207l-4 -21h-279l4 23q83 8 154 50t120.5 113t67.5 164q20 101 -8.5 177t-94 118
t-156.5 42q-69 0 -133.5 -25t-117.5 -70t-90 -106.5t-52 -135.5q-18 -93 3.5 -164t75.5 -113t133 -50l-4 -23h-279l4 21h207z" />
    <glyph glyph-name="uni03BC" unicode="&#x3bc;" horiz-adv-x="590" 
d="M455 0h-22l99 501h22zM18 -200h-22l139 701h22l-51 -257q-16 -80 -1.5 -132.5t53 -77.5t94.5 -25q79 0 141.5 55t86.5 171h2v-36q-17 -74 -54 -120.5t-84.5 -68t-95.5 -21.5q-39 0 -75 12.5t-60 43.5t-29 85z" />
    <glyph glyph-name="pi" unicode="&#x3c0;" horiz-adv-x="634" 
d="M93 501h549l-4 -20h-80l-96 -481h-22l96 481h-345l-96 -481h-22l96 481h-80z" />
    <glyph glyph-name="Wgrave" unicode="&#x1e80;" horiz-adv-x="900" 
d="M192 0h-21l-50 700h25l45 -659l337 659h24l75 -659l307 659h24l-329 -700h-21l-75 664zM474 909l161 -133l-5 -21l-161 129z" />
    <glyph glyph-name="wgrave" unicode="&#x1e81;" horiz-adv-x="766" 
d="M154 0h-17l-59 500h23l53 -462l270 462h17l87 -462l236 462h23l-256 -500h-18l-88 461zM372 694l149 -124l-4 -19l-149 120z" />
    <glyph glyph-name="Wacute" unicode="&#x1e82;" horiz-adv-x="900" 
d="M192 0h-21l-50 700h25l45 -659l337 659h24l75 -659l307 659h24l-329 -700h-21l-75 664zM661 909l-5 -25l-213 -129l5 21z" />
    <glyph glyph-name="wacute" unicode="&#x1e83;" horiz-adv-x="766" 
d="M154 0h-17l-59 500h23l53 -462l270 462h17l87 -462l236 462h23l-256 -500h-18l-88 461zM545 694l-4 -23l-197 -120l4 19z" />
    <glyph glyph-name="Wdieresis" unicode="&#x1e84;" horiz-adv-x="900" 
d="M192 0h-21l-50 700h25l45 -659l337 659h24l75 -659l307 659h24l-329 -700h-21l-75 664zM492 798q-13 0 -19.5 9t-4.5 21q3 13 13 22t23 9t20.5 -9t4.5 -22q-2 -12 -13 -21t-24 -9zM627 798q-13 0 -20 9t-5 21q3 13 13.5 22t23.5 9q12 0 19.5 -9t4.5 -22q-2 -12 -13 -21
t-23 -9z" />
    <glyph glyph-name="wdieresis" unicode="&#x1e85;" horiz-adv-x="766" 
d="M154 0h-17l-59 500h23l53 -462l270 462h17l87 -462l236 462h23l-256 -500h-18l-88 461zM389 592q-12 0 -18 8t-4 19q2 12 11.5 20.5t21.5 8.5t19 -8.5t4 -20.5q-2 -11 -12 -19t-22 -8zM514 592q-12 0 -19 8t-4 19q2 12 12 20.5t22 8.5q11 0 17.5 -8.5t4.5 -20.5
q-2 -11 -12 -19t-21 -8z" />
    <glyph glyph-name="uni1EBC" unicode="&#x1ebc;" 
d="M615 680h-412l-62 -310h309l-4 -20h-309l-66 -330h412l-4 -20h-434l140 700h434zM297 764q10 30 29 48t45 18q19 0 30.5 -7.5t20 -17t19.5 -17t29 -7.5q15 0 30 11.5t23 34.5h19q-7 -27 -29 -46t-47 -19q-20 0 -32 7.5t-21 17t-19.5 17t-25.5 7.5q-18 0 -31 -11.5
t-21 -35.5h-19z" />
    <glyph glyph-name="uni1EBD" unicode="&#x1ebd;" horiz-adv-x="554" 
d="M229 -7q-68 0 -113 33t-62 92t-2 137q15 74 55.5 131t98.5 89t125 32q64 0 108.5 -28.5t64 -77t6.5 -110.5q-1 -7 -3 -18t-5 -23h-429q-13 -70 3 -123.5t56.5 -83.5t100.5 -30q70 0 128 32t94 91l16 -7q-38 -65 -101.5 -100.5t-140.5 -35.5zM484 270q15 64 0 113
t-55 76.5t-102 27.5q-58 0 -109.5 -28t-88.5 -77t-52 -112h407zM238 559q9 29 26.5 45.5t41.5 16.5q23 0 35 -11.5t23 -23t33 -11.5q15 0 28.5 11t20.5 32h18q-7 -25 -27 -43t-43 -18q-25 0 -37.5 11.5t-23.5 23.5t-30 12q-16 0 -28.5 -11t-19.5 -34h-17z" />
    <glyph glyph-name="Ygrave" unicode="&#x1ef2;" horiz-adv-x="583" 
d="M619 700h22l-329 -406l-58 -294h-22l58 294l-169 406h24l161 -384zM317 909l160 -133l-4 -21l-161 129z" />
    <glyph glyph-name="ygrave" unicode="&#x1ef3;" horiz-adv-x="475" 
d="M481 500h22l-412 -700h-23l118 200l-115 500h22l109 -475zM228 694l148 -124l-4 -19l-149 120z" />
    <glyph glyph-name="uni1EF8" unicode="&#x1ef8;" horiz-adv-x="583" 
d="M619 700h22l-329 -406l-58 -294h-22l58 294l-169 406h24l161 -384zM278 764q10 30 29 48t45 18q19 0 30 -7.5t20 -17t20 -17t28 -7.5q16 0 31 11.5t23 34.5h19q-7 -27 -29 -46t-48 -19q-19 0 -31 7.5t-21 17t-19.5 17t-26.5 7.5q-17 0 -30 -11.5t-21 -35.5h-19z" />
    <glyph glyph-name="uni1EF9" unicode="&#x1ef9;" horiz-adv-x="475" 
d="M481 500h22l-412 -700h-23l118 200l-115 500h22l109 -475zM192 559q9 29 26.5 45.5t41.5 16.5t35.5 -11.5t22.5 -23t33 -11.5q15 0 28.5 11t20.5 32h18q-6 -25 -26.5 -43t-43.5 -18q-24 0 -37 11.5t-24 23.5t-30 12q-16 0 -28 -11t-20 -34h-17z" />
    <glyph glyph-name="endash" unicode="&#x2013;" horiz-adv-x="626" 
d="M70 290h502l-4 -20h-502z" />
    <glyph glyph-name="emdash" unicode="&#x2014;" horiz-adv-x="810" 
d="M70 290h686l-4 -20h-686z" />
    <glyph glyph-name="quoteleft" unicode="&#x2018;" horiz-adv-x="202" 
d="M244 700l-92 -190h-34l107 190h19z" />
    <glyph glyph-name="quoteright" unicode="&#x2019;" horiz-adv-x="202" 
d="M99 510l92 190h34l-107 -190h-19z" />
    <glyph glyph-name="quotesinglbase" unicode="&#x201a;" horiz-adv-x="203" 
d="M-22 -100l93 190h34l-107 -190h-20z" />
    <glyph glyph-name="quotedblleft" unicode="&#x201c;" horiz-adv-x="310" 
d="M244 700l-92 -190h-34l107 190h19zM352 700l-92 -190h-34l107 190h19z" />
    <glyph glyph-name="quotedblright" unicode="&#x201d;" horiz-adv-x="310" 
d="M207 510l92 190h34l-107 -190h-19zM99 510l92 190h34l-107 -190h-19z" />
    <glyph glyph-name="quotedblbase" unicode="&#x201e;" horiz-adv-x="313" 
d="M-22 -100l93 190h34l-107 -190h-20zM89 -100l92 190h34l-107 -190h-19z" />
    <glyph glyph-name="dagger" unicode="&#x2020;" horiz-adv-x="499" 
d="M498 566l-4 -21l-177 3l-126 -648h-20l129 648l-177 -3l4 21l176 -3l47 237h20l-50 -237z" />
    <glyph glyph-name="daggerdbl" unicode="&#x2021;" horiz-adv-x="500" 
d="M495 545l-177 3l-78 -396l177 4l-4 -22l-176 3l-46 -237h-20l49 237l-179 -3l4 22l178 -4l78 396l-178 -3l4 21l177 -3l46 237h20l-49 -237l178 3z" />
    <glyph glyph-name="bullet" unicode="&#x2022;" horiz-adv-x="426" 
d="M210 235q-27 0 -47 13.5t-29 35.5t-3 49q5 28 23 50.5t43 36t52 13.5q28 0 47.5 -13.5t28.5 -36t4 -50.5q-6 -27 -23.5 -49t-42.5 -35.5t-53 -13.5z" />
    <glyph glyph-name="ellipsis" unicode="&#x2026;" horiz-adv-x="481" 
d="M190 -2q-10 0 -15 7t-3 17q2 11 10 18t18 7t15.5 -7t3.5 -17q-2 -11 -10 -18t-19 -7zM336 -2q-10 0 -15 7t-3 17q2 11 10 18t18 7t15.5 -7t3.5 -17q-2 -11 -10 -18t-19 -7zM44 -2q-10 0 -15 7t-3 17q2 11 10 18t18 7t15.5 -7t3.5 -17q-2 -11 -10 -18t-19 -7z" />
    <glyph glyph-name="perthousand" unicode="&#x2030;" horiz-adv-x="868" 
d="M122 577q7 38 29.5 67t54.5 46t69 17q55 0 84 -37t18 -93q-7 -37 -29.5 -66t-55 -46t-69.5 -17q-54 0 -83 37t-18 92zM271 688q-46 0 -82 -31.5t-46 -79.5t14 -79t70 -31q47 0 82.5 31t45.5 79t-13.5 79.5t-70.5 31.5zM572 700h23l-561 -700h-24zM230 122q7 38 29.5 67
t54.5 46t68 17q56 0 85 -37t18 -93q-8 -37 -30.5 -66t-54.5 -46t-69 -17q-55 0 -84 37t-17 92zM379 233q-47 0 -83 -31.5t-45 -79.5q-10 -47 13.5 -78.5t70.5 -31.5t82.5 31.5t45.5 78.5q9 48 -14 79.5t-70 31.5zM531 122q7 38 29.5 67t54.5 46t68 17q55 0 84.5 -37
t18.5 -93q-8 -37 -30.5 -66t-55 -46t-68.5 -17q-55 0 -84 37t-17 92zM680 233q-47 0 -83 -31.5t-45 -79.5q-10 -47 13.5 -78.5t70.5 -31.5t82.5 31.5t45.5 78.5q9 48 -14 79.5t-70 31.5z" />
    <glyph glyph-name="guilsinglleft" unicode="&#x2039;" horiz-adv-x="240" 
d="M148 75h-29l-71 175l140 175h29l-143 -175z" />
    <glyph glyph-name="guilsinglright" unicode="&#x203a;" horiz-adv-x="239" 
d="M22 75l144 175l-74 175h29l71 -175l-141 -175h-29z" />
    <glyph glyph-name="fraction" unicode="&#x2044;" horiz-adv-x="534" 
d="M558 740h26l-564 -760h-26z" />
    <glyph glyph-name="uni2074" unicode="&#x2074;" horiz-adv-x="363" 
d="M261 350l17 85h-199l4 18l247 247h21l-49 -245h51l-4 -20h-51l-17 -85h-20zM325 673l-218 -218h175z" />
    <glyph glyph-name="uni20A8" unicode="&#x20a8;" horiz-adv-x="1010" 
d="M558 503q11 54 -1.5 93.5t-53 61.5t-115.5 22h-185l-71 -355h187q107 0 165.5 51t73.5 127zM392 700q84 0 129 -25t58 -69.5t1 -102.5q-12 -63 -47 -107.5t-90 -67.5t-128 -23h-187l-61 -305h-22l140 700h207zM356 313l134 -313h-25l-134 313h25zM597 131q0 -38 13 -64.5
t43 -40t80 -13.5q78 0 123.5 32t56.5 82q8 42 -10.5 64t-51.5 33.5t-69 19.5q-22 5 -50.5 12t-54 20.5t-39.5 37t-6 62.5t35.5 69t69 46t92.5 16q60 0 101.5 -27t45.5 -90l-19 -5q-4 43 -25 65t-49.5 29.5t-56.5 7.5q-67 0 -114.5 -29.5t-57.5 -80.5q-6 -31 5 -50.5
t32.5 -31t48 -18t51.5 -11.5q28 -6 56 -15t50.5 -24t33.5 -39.5t3 -61.5q-8 -42 -36 -72t-71.5 -45.5t-99.5 -15.5q-74 0 -112.5 31t-38.5 101z" />
    <glyph glyph-name="Euro" unicode="&#x20ac;" horiz-adv-x="778" 
d="M64 413l4 19h437l-4 -19h-437zM32 252l4 20h437l-4 -20h-437zM87 350q16 79 53 144.5t91 113t119 73.5t137 26q122 0 189 -54t86 -145l-19 -7q-11 54 -43 96t-86 66t-131 24q-84 0 -162 -40.5t-134.5 -115.5t-77.5 -181q-21 -105 5.5 -180.5t88.5 -116t146 -40.5
q78 -1 143 24.5t115 70.5t82 100l16 -7q-55 -94 -145 -151t-215 -57q-72 0 -126.5 26t-89.5 74t-46.5 113.5t4.5 143.5z" />
    <glyph glyph-name="indianrupee" unicode="&#x20b9;" horiz-adv-x="644" 
d="M522 692l-30 -148q-14 -71 -36 -115t-59.5 -67t-98.5 -31.5t-152 -8.5l-25 -125q-11 -58 -1 -99.5t42 -63t87 -21.5q77 0 125.5 45t64.5 129h22q-19 -97 -76.5 -145.5t-139.5 -48.5q-95 0 -129 55t-17 143l30 150q80 0 134.5 4.5t90.5 17t58.5 35.5t35.5 59.5t24 88.5
l29 146h21zM147 700h544l-4 -20h-544zM106 498l4 19h544l-4 -19h-544z" />
    <glyph glyph-name="turkishlira" unicode="&#x20ba;" horiz-adv-x="812" 
d="M297 700l-138 -694q23 -7 47 -10t48 -3q120 0 207 48.5t142.5 139.5t80.5 220h-22q-19 -97 -54.5 -170t-86.5 -121.5t-117 -72.5t-146 -24q-18 0 -37 2t-37 6l135 679h-22zM501 514l4 22l-460 -130l-4 -21zM467 345l4 21l-459 -126l-4 -21z" />
    <glyph glyph-name="uni20BD" unicode="&#x20bd;" horiz-adv-x="556" 
d="M46 339h260q113 0 167.5 46.5t69.5 124.5q11 52 -1 89.5t-52.5 58t-115.5 20.5h-157l-135 -678h-22l139 700h179q80 0 125 -24t59 -67t3 -99q-13 -65 -47 -107.5t-88 -63t-128 -20.5h-260zM14 179h375l-3 -19h-375z" />
    <glyph glyph-name="uni2113" unicode="&#x2113;" horiz-adv-x="250" 
d="M206 711h22l-142 -711h-22z" />
    <glyph glyph-name="trademark" unicode="&#x2122;" horiz-adv-x="736" 
d="M118 700h231l-4 -21h-104l-66 -329h-21l66 329h-106zM400 700h22l86 -333h-9l219 333h22l-70 -350h-22l64 322l15 6l-217 -328h-21l-85 328l11 -6l-64 -322h-21z" />
    <glyph glyph-name="uni2126" unicode="&#x2126;" horiz-adv-x="790" 
d="M228 21q-67 21 -108.5 68.5t-54.5 115t2 145.5q16 80 56 145.5t97 112.5t125 73t140 26q73 0 131 -26t96 -73t52 -112.5t-2 -145.5q-15 -78 -55.5 -145.5t-100.5 -115t-136 -68.5h207l-4 -21h-279l4 23q83 8 154 50t120.5 113t67.5 164q20 101 -8.5 177t-94 118
t-156.5 42q-69 0 -133.5 -25t-117.5 -70t-90 -106.5t-52 -135.5q-18 -93 3.5 -164t75.5 -113t133 -50l-4 -23h-279l4 21h207z" />
    <glyph glyph-name="estimated" unicode="&#x212e;" horiz-adv-x="771" 
d="M664 139q-74 -65 -155 -105.5t-166 -40.5q-97 0 -164.5 42.5t-96 120.5t-7.5 186q17 82 51.5 149t86 115.5t117.5 74.5t146 26q79 0 135.5 -24.5t90 -68t43.5 -102t-4 -126.5l-12 -60h-571l-34 -174q29 -65 81 -98.5t143 -33.5q54 0 101 17.5t94.5 49.5t101.5 76z
M636 370l37 186q-23 58 -75 90t-128 32q-74 0 -144 -32t-125 -103l-34 -173h469z" />
    <glyph glyph-name="partialdiff" unicode="&#x2202;" horiz-adv-x="531" 
d="M462 292q13 67 3.5 110.5t-40 64.5t-78.5 21q-70 0 -130.5 -38t-103 -102.5t-58.5 -144.5q-19 -99 16.5 -143.5t106.5 -44.5q62 0 120 31t102 92.5t62 153.5zM33 199q11 57 38 111.5t67.5 99t94 71t118.5 26.5q41 0 75 -15t50.5 -56t3.5 -118q19 79 26.5 149t-2 124.5
t-42 85.5t-93.5 31q-20 0 -42 -3.5t-45 -9.5l4 21q23 6 44 8.5t39 2.5q53 0 89 -22t54 -65t18.5 -108t-16.5 -152q-22 -110 -57 -184.5t-79 -119t-94.5 -64t-102.5 -19.5q-59 0 -97 22.5t-51.5 68t0.5 115.5z" />
    <glyph glyph-name="uni2206" unicode="&#x2206;" horiz-adv-x="651" 
d="M404 700h21l152 -681l-4 -19h-594l4 19zM408 675l-404 -656h552z" />
    <glyph glyph-name="product" unicode="&#x220f;" horiz-adv-x="689" 
d="M132 700h603l-4 -20h-87l-135 -680h-22l135 680h-385l-135 -680h-22l135 680h-87z" />
    <glyph glyph-name="summation" unicode="&#x2211;" horiz-adv-x="471" 
d="M147 700h357l-4 -19h-345l4 9l214 -330l-4 -20l-346 -330v9h345l-4 -19h-357l5 22l342 326l-212 330z" />
    <glyph glyph-name="minus" unicode="&#x2212;" horiz-adv-x="507" 
d="M93 359h365l-4 -20h-365z" />
    <glyph glyph-name="uni2215" unicode="&#x2215;" horiz-adv-x="406" 
d="M470 700h26l-520 -700h-26z" />
    <glyph glyph-name="radical" unicode="&#x221a;" horiz-adv-x="627" 
d="M703 800h21l-576 -800h-6l-68 180l-57 -28l-7 18l76 37l69 -182l-12 -3z" />
    <glyph glyph-name="infinity" unicode="&#x221e;" horiz-adv-x="637" 
d="M48 350q8 40 31.5 69t57 44.5t71.5 15.5t62.5 -17.5t41.5 -44.5t31.5 -57t31 -57t39.5 -44t59 -17q53 0 88.5 30.5t44.5 78.5q10 47 -11.5 76.5t-74.5 29.5q-51 0 -96 -36t-82 -89l-4 22q19 27 46 56t62 49t78 20q38 0 64.5 -15.5t37 -44t2.5 -68.5q-8 -41 -31 -70
t-56.5 -44t-71.5 -15q-40 0 -66 17t-43 44t-31.5 57t-30 57t-38 44.5t-56.5 17.5q-53 0 -88.5 -30.5t-45.5 -78.5q-9 -48 12.5 -77t74.5 -29q51 0 96 35.5t83 89.5l4 -22q-19 -28 -46.5 -57t-63 -48.5t-77.5 -19.5q-58 0 -87.5 34t-17.5 94z" />
    <glyph glyph-name="integral" unicode="&#x222b;" horiz-adv-x="205" 
d="M230 706q10 29 24.5 50.5t36 32.5t51.5 11h24l-7 -20h-21q-29 0 -50.5 -15t-36.5 -59l-235 -703q-11 -31 -23 -54.5t-31.5 -36t-54.5 -12.5h-28l6 20h27q24 0 38 7t23.5 25t21.5 51z" />
    <glyph glyph-name="approxequal" unicode="&#x2248;" horiz-adv-x="421" 
d="M36 217q16 40 41.5 65t63.5 25q25 0 44.5 -10.5t36 -24t33 -24t36.5 -10.5q31 0 50 21.5t27 47.5h21q-13 -40 -37.5 -65t-64.5 -25q-25 0 -44 10.5t-35 24.5t-33.5 24.5t-39.5 10.5q-28 0 -48 -22t-30 -48h-21zM71 393q16 40 41.5 65t63.5 25q25 0 44.5 -10.5t36 -24
t33 -24t36.5 -10.5q31 0 50 21.5t27 47.5h21q-13 -40 -37.5 -65t-64.5 -25q-25 0 -44 10.5t-35 24.5t-33.5 24.5t-39.5 10.5q-28 0 -48 -22t-30 -48h-21z" />
    <glyph glyph-name="notequal" unicode="&#x2260;" horiz-adv-x="656" 
d="M535 539h25l-408 -417h-24zM86 251h485l-4 -20h-485zM121 429h485l-4 -20h-485z" />
    <glyph glyph-name="lessequal" unicode="&#x2264;" horiz-adv-x="480" 
d="M50 132h312l-4 -20h-312zM368 194h-31l-238 197l316 197h31l-320 -203l2 10z" />
    <glyph glyph-name="greaterequal" unicode="&#x2265;" horiz-adv-x="480" 
d="M90 194l320 201l-2 -10l-240 203h31l238 -197l-316 -197h-31zM384 132l-4 -20h-312l4 20h312z" />
    <glyph glyph-name="lozenge" unicode="&#x25ca;" horiz-adv-x="531" 
d="M331 573l176 -224l-267 -222l-178 222zM326 547l-237 -198l156 -196l236 196z" />
    <glyph glyph-name="uniA732" unicode="&#xa732;" horiz-adv-x="1185" 
d="M409 680h-32l-395 -680h-22l407 700h59l128 -700h-22zM99 230h408l-4 -20h-408zM981 680h-32l-395 -680h-22l407 700h59l128 -700h-22zM671 230h408l-4 -20h-408z" />
    <glyph glyph-name="g.ss02" 
d="M546 500h22l-76 -383q-14 -69 -42 -126.5t-69.5 -99.5t-94.5 -65.5t-117.5 -25.5t-137.5 22l9 17q89 -26 161.5 -16.5t126.5 48.5t90 102.5t52 143.5l6 30h1q-33 -64 -95.5 -108t-149.5 -46q-72 0 -118 31t-62.5 88.5t-0.5 137.5t55.5 137.5t97.5 88.5t130 31
q87 0 131.5 -43t52.5 -105zM73 250q-14 -74 0 -127t55.5 -81.5t109.5 -28.5q64 0 117 29.5t89.5 83t50.5 124.5q22 107 -22.5 172t-140.5 65q-68 0 -121 -28.5t-88 -81.5t-50 -127z" />
    <glyph glyph-name="comma.ss01" horiz-adv-x="166" 
d="M64 33q-2 -10 -3 -18.5t-2 -16.5q-10 -49 -33 -67t-50 -18l3 19q24 0 36.5 14.5t17.5 39.5l2 7h-31l8 40h52z" />
    <glyph glyph-name="quotedblleft.ss01" horiz-adv-x="240" 
d="M199 572q2 22 4 39t5 30q9 48 31 63.5t52 15.5l-4 -20q-26 0 -37.5 -11.5t-16.5 -34.5l-5 -28h39l-11 -54h-57zM111 572q2 22 4.5 39t5.5 30q9 48 30.5 63.5t52.5 15.5l-4 -20q-26 0 -37.5 -11.5t-16.5 -34.5l-5 -28h38l-11 -54h-57z" />
    <glyph glyph-name="quotedblright.ss01" horiz-adv-x="241" 
d="M287 720q-2 -22 -4.5 -38.5t-4.5 -30.5q-10 -48 -31.5 -63.5t-52.5 -15.5l4 20q26 0 38 12t17 34l5 28h-39l11 54h57zM200 720q-2 -22 -4.5 -38.5t-4.5 -30.5q-10 -48 -31.5 -63.5t-52.5 -15.5l4 20q26 0 37.5 12t16.5 34l5 28h-38l11 54h57z" />
    <glyph glyph-name="quoteleft.ss01" horiz-adv-x="154" 
d="M111 572q2 22 4.5 39t5.5 30q9 48 30.5 63.5t52.5 15.5l-4 -20q-26 0 -37.5 -11.5t-16.5 -34.5l-5 -28h38l-11 -54h-57z" />
    <glyph glyph-name="quoteright.ss01" horiz-adv-x="154" 
d="M200 720q-2 -22 -4.5 -38.5t-4.5 -30.5q-10 -48 -31.5 -63.5t-52.5 -15.5l4 20q26 0 37.5 12t16.5 34l5 28h-38l11 54h57z" />
    <glyph glyph-name="ampersand.ss03" horiz-adv-x="676" 
d="M507 623q-16 31 -50.5 47.5t-82.5 16.5q-82 0 -137.5 -41.5t-69.5 -113.5t39.5 -110.5t176.5 -38.5h256l-4 -21h-255q-126 0 -202 -45.5t-94 -137.5q-15 -76 27 -120t130 -44q105 0 167.5 47.5t81.5 141.5l52 259h21l-51 -259q-21 -104 -90.5 -157.5t-184.5 -53.5
q-99 0 -145.5 49.5t-29.5 136.5q17 84 75 132.5t149 58.5l1 6q-80 7 -117 50t-25 107q11 53 43 92t81 60.5t109 21.5q55 0 93 -18.5t57 -52.5zM528 636l-21 -13z" />
    <glyph glyph-name="ampersand.ss04" horiz-adv-x="674" 
d="M479 570q8 38 -6 64t-41 39.5t-60 13.5q-60 0 -103.5 -32t-54.5 -85q-7 -39 6.5 -72.5t41.5 -70.5l328 -427h-27l-319 412q-32 41 -46 77.5t-6 79.5q8 42 34 73t65 48t85 17q38 0 70 -16t48 -46.5t7 -74.5h-22zM270 402l-26 -9q-81 -28 -128 -75.5t-61 -115.5
q-11 -55 7 -97.5t59.5 -66.5t100.5 -24q69 0 127.5 27t117 84t128.5 147l69 88h23l-81 -103q-72 -92 -132.5 -150t-122 -86t-133.5 -28q-66 0 -111.5 26.5t-65.5 73.5t-8 109q16 77 71 127t138 83l17 7z" />
    <glyph glyph-name="ampersand.ss05" horiz-adv-x="674" 
d="M479 570q8 38 -6 64t-41 39.5t-60 13.5q-60 0 -103.5 -32t-54.5 -85q-7 -39 6.5 -72.5t41.5 -70.5l328 -427h-27l-319 412q-32 41 -46 77.5t-6 79.5q8 42 34 73t65 48t85 17q38 0 70 -16t48 -46.5t7 -74.5q-7 -38 -37.5 -69.5t-79 -55.5t-109.5 -41l-11 16
q91 26 148.5 63.5t66.5 86.5zM270 402l-26 -9q-81 -28 -128 -75.5t-61 -115.5q-11 -55 7 -97.5t59.5 -66.5t100.5 -24q69 0 127.5 27t117 84t128.5 147l69 88h23l-81 -103q-72 -92 -132.5 -150t-122 -86t-133.5 -28q-66 0 -111.5 26.5t-65.5 73.5t-8 109q16 77 71 127
t138 83l17 7z" />
    </font>
</defs>
</svg>
