<?xml version="1.0" standalone="no"?>
<!DOCTYPE svg PUBLIC "-//W3C//DTD SVG 1.1//EN" "http://www.w3.org/Graphics/SVG/1.1/DTD/svg11.dtd" >
<svg xmlns="http://www.w3.org/2000/svg" xmlns:xlink="http://www.w3.org/1999/xlink" version="1.1">
<metadata>
Created by FontForge 20201107 at Mon May 23 15:50:47 2022
 By www-data
Copyright 2021 The Albert Sans Project Authors (https://github.com/usted/Albert-Sans)
</metadata>
<defs>
<font id="AlbertSans-Medium" horiz-adv-x="561" >
  <font-face 
    font-family="Albert Sans Medium"
    font-weight="500"
    font-stretch="normal"
    units-per-em="1000"
    panose-1="0 0 0 0 0 0 0 0 0 0"
    ascent="800"
    descent="-200"
    x-height="500"
    cap-height="700"
    bbox="-50 -268 1260 962"
    underline-thickness="50"
    underline-position="-125"
    unicode-range="U+0020-FB01"
  />
<missing-glyph horiz-adv-x="650" 
d="M72 0v700h507v-700h-507zM152 70h347v560h-347v-560z" />
    <glyph glyph-name="fi" unicode="fi" horiz-adv-x="553" 
d="M417 587q-26 0 -44.5 18t-18.5 44q0 28 18.5 46.5t44.5 18.5q27 0 46 -18.5t19 -46.5q0 -26 -19 -44t-46 -18zM464 501v-501h-95v417h-337v84h432zM96 556q0 57 19.5 96t60.5 56.5t108 11.5v-83q-52 5 -72.5 -16t-20.5 -65v-556h-95v556z" />
    <glyph glyph-name=".notdef" horiz-adv-x="650" 
d="M72 0v700h507v-700h-507zM152 70h347v560h-347v-560z" />
    <glyph glyph-name=".null" horiz-adv-x="0" 
 />
    <glyph glyph-name="nonmarkingreturn" horiz-adv-x="333" 
 />
    <glyph glyph-name="space" unicode=" " horiz-adv-x="280" 
 />
    <glyph glyph-name="exclam" unicode="!" horiz-adv-x="272" 
d="M82 700h105l-11 -498h-83zM136 -6q-27 0 -46 19t-19 47q0 27 19 46t46 19t46 -19t19 -46q0 -28 -19 -47t-46 -19z" />
    <glyph glyph-name="quotedbl" unicode="&#x22;" horiz-adv-x="328" 
d="M48 700h91l-11 -196h-68zM188 700h92l-11 -196h-68z" />
    <glyph glyph-name="numbersign" unicode="#" horiz-adv-x="835" 
d="M298 700h95l-35 -170h204l36 170h95l-35 -170h138v-87h-156l-34 -165h139v-88h-157l-39 -190h-95l39 190h-205l-39 -190h-95l39 190h-153v88h171l34 165h-154v87h172zM306 278h204l34 165h-204z" />
    <glyph glyph-name="dollar" unicode="$" horiz-adv-x="578" 
d="M258 775h58v-850h-58v850zM139 185q6 -28 24.5 -52t50.5 -39t79 -15q70 0 103.5 32.5t33.5 76.5q0 36 -20.5 59.5t-56 40t-81.5 29.5q-40 12 -78.5 25.5t-69.5 34t-49 53t-18 81.5q0 61 29 105t81.5 67.5t121.5 23.5q58 0 104 -16.5t77.5 -47t46.5 -73.5l-91 -33
q-6 22 -25 41.5t-48 31.5t-65 12q-37 1 -66.5 -11.5t-47 -35.5t-17.5 -55q0 -35 20 -55t53.5 -33t73.5 -25q42 -13 82 -28t72.5 -38t52.5 -57.5t20 -86.5q0 -56 -26 -102t-78.5 -74t-131.5 -28q-65 0 -117 20t-85.5 55.5t-44.5 82.5z" />
    <glyph glyph-name="percent" unicode="%" horiz-adv-x="782" 
d="M48 555q0 72 42 112t106 40q63 0 105.5 -40t42.5 -112t-42.5 -112.5t-105.5 -40.5q-64 0 -106 40.5t-42 112.5zM196 646q-32 0 -51 -22t-19 -69q0 -46 19 -69t51 -23q31 0 50 23t19 69q0 47 -19 69t-50 22zM543 700h98l-403 -700h-98zM439 145q0 72 42.5 112.5
t105.5 40.5t105.5 -40.5t42.5 -112.5q0 -71 -42.5 -111.5t-105.5 -40.5t-105.5 40.5t-42.5 111.5zM587 236q-32 0 -51 -22t-19 -69q0 -46 19 -68t51 -22q30 0 49.5 22t19.5 68q0 47 -19.5 69t-49.5 22z" />
    <glyph glyph-name="ampersand" unicode="&#x26;" horiz-adv-x="697" 
d="M404 582q-17 18 -43 28.5t-61 10.5q-63 0 -92.5 -35t-29.5 -85q0 -37 19 -59.5t57.5 -33.5t95.5 -12h227v-85h-226q-94 0 -140 -24.5t-46 -92.5q0 -36 13 -61.5t41.5 -39.5t75.5 -14q69 0 97.5 33.5t28.5 103.5v136h97v-136q0 -80 -27.5 -129t-77.5 -71.5t-119 -22.5
q-76 0 -127 24.5t-77.5 68t-26.5 100.5q0 47 17 80.5t47.5 55t70.5 31.5v5q-35 9 -62.5 31t-43.5 53.5t-16 69.5q0 52 25.5 96.5t74.5 71.5t120 27q59 0 107.5 -18.5t80.5 -53.5zM484 635l-80 -53zM379 396q14 0 25.5 4.5t17 18t5.5 39.5v61h92v-123h125v-85h-125v-141
q0 -48 22.5 -68t63.5 -20q8 0 18 1t21 2v-81q-14 -3 -28 -5t-27 -2q-44 0 -82.5 17t-62 55t-23.5 101v142h-74v84h32z" />
    <glyph glyph-name="quotesingle" unicode="'" horiz-adv-x="196" 
d="M52 700h92l-12 -196h-68z" />
    <glyph glyph-name="parenleft" unicode="(" horiz-adv-x="426" 
d="M259 -100q-65 51 -110.5 121.5t-69 154t-23.5 172.5q0 90 24.5 173.5t73.5 154.5t122 124h103v-8q-78 -58 -128.5 -130.5t-74.5 -152t-24 -161.5q0 -80 23.5 -159.5t70 -151t116.5 -129.5v-8h-103z" />
    <glyph glyph-name="parenright" unicode=")" horiz-adv-x="426" 
d="M168 -100h-103v8q69 58 115.5 129.5t70 151t23.5 159.5q0 82 -24 161.5t-74.5 152t-127.5 130.5v8h103q73 -53 122 -124t73 -154.5t24 -173.5q0 -89 -23.5 -172.5t-68.5 -154t-110 -121.5z" />
    <glyph glyph-name="asterisk" unicode="*" horiz-adv-x="478" 
d="M263 585l120 89l39 -71l-138 -55l139 -56l-41 -72l-119 89l18 -149h-80l16 149l-119 -91l-42 75l138 56l-138 53l40 72l122 -89l-17 150h81z" />
    <glyph glyph-name="plus" unicode="+" horiz-adv-x="628" 
d="M360 605v-510h-92v510h92zM59 392h510v-84h-510v84z" />
    <glyph glyph-name="comma" unicode="," horiz-adv-x="276" 
d="M108 130h109l-116 -272h-65z" />
    <glyph glyph-name="hyphen" unicode="-" horiz-adv-x="523" 
d="M59 320h404v-84h-404v84z" />
    <glyph glyph-name="period" unicode="." horiz-adv-x="248" 
d="M124 -6q-27 0 -46 19t-19 46q0 28 19 47t46 19t46 -19t19 -47q0 -27 -19 -46t-46 -19z" />
    <glyph glyph-name="slash" unicode="/" horiz-adv-x="339" 
d="M240 800h99l-241 -900h-98z" />
    <glyph glyph-name="zero" unicode="0" horiz-adv-x="635" 
d="M63 350q0 78 12 143.5t40 113t78 74t125 26.5q76 0 125 -26.5t77.5 -74t40 -113t11.5 -143.5q0 -79 -11.5 -144.5t-40 -113t-77.5 -73.5t-125 -26q-75 0 -125 26t-78 73.5t-40 113t-12 144.5zM471 350q0 54 -5 103t-19.5 87t-45.5 59.5t-83 21.5t-83 -21.5t-46 -59.5
t-19.5 -87t-4.5 -103q0 -57 4.5 -106t19.5 -86t46 -58t83 -21t83 21t45.5 58t19.5 86t5 106z" />
    <glyph glyph-name="one" unicode="1" horiz-adv-x="314" 
d="M135 616h-95v84h195v-700h-100v616z" />
    <glyph glyph-name="two" unicode="2" horiz-adv-x="598" 
d="M54 73l206 192q59 54 93 93t49 72.5t15 69.5q0 53 -30.5 87t-98.5 34q-43 0 -73 -19t-46 -53.5t-17 -80.5h-96q2 80 33 133t83.5 79.5t116.5 26.5q72 0 123.5 -26t78.5 -72.5t27 -108.5q0 -45 -16.5 -87.5t-56.5 -91t-109 -112.5l-136 -125h337v-84h-483v73z" />
    <glyph glyph-name="three" unicode="3" horiz-adv-x="597" 
d="M63 510q4 63 35.5 107t83.5 67t119 23q71 0 120 -27t74.5 -71.5t25.5 -96.5q0 -38 -16 -69.5t-43.5 -53.5t-62.5 -31v-5q40 -10 70.5 -31.5t47.5 -55t17 -80.5q0 -57 -26 -100.5t-77.5 -68t-127.5 -24.5q-73 0 -128 22t-86.5 69t-35.5 122h96q5 -62 41 -94.5t113 -32.5
q45 0 74 14t42.5 39.5t13.5 61.5q0 68 -46.5 92.5t-140.5 24.5h-25v85h26q57 1 95.5 12t58 33.5t19.5 59.5q0 50 -30 85t-92 35q-42 0 -71 -14.5t-46 -39.5t-21 -57h-97z" />
    <glyph glyph-name="four" unicode="4" horiz-adv-x="654" 
d="M407 160h-367v73l345 467h121v-455h96v-85h-96v-160h-99v160zM409 245v352l-255 -352h255z" />
    <glyph glyph-name="five" unicode="5" horiz-adv-x="623" 
d="M516 700v-84h-338v-209q21 29 61 47t91 18q65 0 109 -22t71.5 -57t40 -75.5t12.5 -77.5q0 -68 -28.5 -124t-84.5 -89.5t-136 -33.5q-72 0 -125.5 25.5t-85 70t-40.5 101.5h97q13 -52 53.5 -81.5t101.5 -29.5q50 0 83 20t48.5 55.5t15.5 83.5q0 70 -38 109t-108 39
q-53 0 -90 -25t-53 -68h-94v407h437z" />
    <glyph glyph-name="six" unicode="6" horiz-adv-x="607" 
d="M307 -7q-74 0 -131.5 32t-89.5 88t-32 126q0 55 20.5 110t64.5 112l183 239h108l-208 -270l-116 -119q21 71 77.5 115t136.5 44q70 0 124 -29.5t84.5 -82t30.5 -121.5q0 -70 -32.5 -125.5t-90 -87t-129.5 -31.5zM155 237q0 -48 17.5 -83.5t52 -55t82.5 -19.5
q49 0 82.5 19.5t51 55t17.5 83.5q0 49 -17.5 83t-51 52t-82.5 18q-48 0 -82.5 -18t-52 -52t-17.5 -83z" />
    <glyph glyph-name="seven" unicode="7" horiz-adv-x="557" 
d="M517 700v-74l-278 -626h-100l281 616h-380v84h477z" />
    <glyph glyph-name="eight" unicode="8" horiz-adv-x="628" 
d="M187 368q-52 21 -82 59.5t-30 96.5q0 51 27 92t79.5 66t132.5 25q79 0 132 -25t79.5 -66.5t26.5 -91.5q0 -55 -31 -95.5t-81 -60.5q60 -19 95.5 -63t35.5 -108q0 -63 -33 -108.5t-90.5 -70.5t-133.5 -25t-134 25t-90.5 70.5t-32.5 108.5q0 64 35.5 108.5t94.5 62.5z
M450 513q0 57 -35.5 82.5t-100.5 25.5q-64 0 -100.5 -25t-36.5 -84q0 -51 37 -80.5t100 -29.5t99.5 29.5t36.5 81.5zM314 324q-45 0 -80.5 -13t-55.5 -40t-20 -71q0 -58 40.5 -89.5t115.5 -31.5q74 0 115 32t41 89q0 42 -20 69.5t-55 41t-81 13.5z" />
    <glyph glyph-name="nine" unicode="9" horiz-adv-x="607" 
d="M299 707q74 0 131.5 -32t90 -88t32.5 -126q0 -55 -21 -110t-65 -112l-182 -239h-108l208 270l115 119q-20 -71 -76.5 -115t-136.5 -44q-71 0 -124.5 29.5t-84 82t-30.5 121.5q0 71 32.5 126t89 86.5t129.5 31.5zM452 463q0 49 -18 84t-52.5 54.5t-82.5 19.5
q-49 0 -82.5 -19.5t-50.5 -54.5t-17 -84q0 -48 17 -82.5t50.5 -52.5t82.5 -18q48 0 82.5 18t52.5 52.5t18 82.5z" />
    <glyph glyph-name="colon" unicode=":" horiz-adv-x="256" 
d="M128 -6q-27 0 -46 19t-19 46q0 28 19 47t46 19t46 -19t19 -47q0 -27 -19 -46t-46 -19zM128 419q-27 0 -46 19t-19 46q0 28 19 47t46 19t46 -19t19 -47q0 -27 -19 -46t-46 -19z" />
    <glyph glyph-name="semicolon" unicode=";" horiz-adv-x="293" 
d="M165 419q-27 0 -46 19t-19 46q0 28 19 47t46 19t46 -19t19 -47q0 -27 -19 -46t-46 -19zM112 130h109l-116 -272h-65z" />
    <glyph glyph-name="less" unicode="&#x3c;" horiz-adv-x="502" 
d="M422 121h-125l-238 229l238 229h125l-238 -229z" />
    <glyph glyph-name="equal" unicode="=" horiz-adv-x="667" 
d="M72 283h524v-84h-524v84zM72 502h524v-84h-524v84z" />
    <glyph glyph-name="greater" unicode="&#x3e;" horiz-adv-x="501" 
d="M317 350l-238 229h126l237 -229l-237 -229h-126z" />
    <glyph glyph-name="question" unicode="?" horiz-adv-x="547" 
d="M272 707q66 0 116 -25t78.5 -71.5t28.5 -110.5q0 -72 -31 -117t-85 -66.5t-123 -21.5l-3 -90h-86l-5 158h30q43 0 79.5 5.5t64 19.5t43 41.5t15.5 70.5q0 38 -14.5 65t-41 41.5t-65.5 14.5q-58 0 -92.5 -30t-34.5 -87h-93q-1 61 26.5 106.5t77 71t115.5 25.5zM214 -6
q-28 0 -46.5 19t-18.5 46q0 28 18.5 47t46.5 19q27 0 45.5 -19t18.5 -47q0 -27 -18.5 -46t-45.5 -19z" />
    <glyph glyph-name="at" unicode="@" horiz-adv-x="989" 
d="M586 152l21 -33q-27 -56 -81.5 -91t-117.5 -35q-78 0 -120.5 47t-42.5 126q0 56 17.5 107t50.5 91t78 63t100 23q61 0 96.5 -29t45.5 -87l-27 -14l21 121h87l-51 -288q-6 -41 2.5 -67t46.5 -26q31 0 55 23.5t39.5 60.5t23 79t7.5 80q0 87 -34.5 147t-100.5 91.5
t-161 31.5q-90 0 -166 -33t-132 -92t-86.5 -137.5t-30.5 -170.5q-1 -87 34.5 -147.5t102.5 -91.5t161 -31q41 0 84.5 8t81.5 26l13 -66q-46 -20 -96.5 -29t-102.5 -9q-109 0 -190 40.5t-125.5 115.5t-44.5 176q0 107 37 200t105.5 162.5t162 109t204.5 39.5q114 0 196 -42.5
t125.5 -117.5t43.5 -175q0 -57 -14.5 -113t-43 -101.5t-69.5 -73t-94 -27.5q-62 0 -89 35t-23 91zM491 374q-48 0 -82.5 -28.5t-53 -73t-18.5 -92.5t25 -79t76 -31q43 0 79 25t57 65.5t23 90.5q2 34 -9 62t-35.5 44.5t-61.5 16.5z" />
    <glyph glyph-name="A" unicode="A" horiz-adv-x="692" 
d="M365 616h-35l-220 -616h-102l252 700h173l252 -700h-102zM137 262h408v-84h-408v84z" />
    <glyph glyph-name="B" unicode="B" horiz-adv-x="666" 
d="M497 506q0 51 -33.5 80.5t-96.5 29.5h-188v-219h189q61 0 95 29t34 80zM79 0v700h297q74 0 123 -25t73.5 -66t24.5 -91q0 -47 -17.5 -79t-46 -51t-64.5 -27v-7q43 -6 75.5 -25.5t51 -54.5t18.5 -87t-27 -95t-77.5 -67.5t-122.5 -24.5h-308zM179 84h199q64 0 100.5 29.5
t36.5 84.5q0 56 -38.5 85.5t-101.5 29.5h-196v-229z" />
    <glyph glyph-name="C" unicode="C" horiz-adv-x="764" 
d="M40 350q0 79 27 144.5t75 113t111.5 73.5t137.5 26q105 0 187.5 -49t125.5 -141l-80 -29q-24 47 -61 76t-81 43t-89 14q-71 0 -128.5 -33t-90 -94t-32.5 -144q0 -82 32.5 -143t90 -94.5t128.5 -33.5q46 0 91 15t84 48.5t64 87.5l80 -28q-45 -106 -129 -157.5t-192 -51.5
q-74 0 -137.5 26t-111.5 74t-75 113.5t-27 143.5z" />
    <glyph glyph-name="D" unicode="D" horiz-adv-x="729" 
d="M319 700q114 0 196.5 -43t128 -122t45.5 -188q0 -108 -45.5 -185.5t-128 -119.5t-196.5 -42h-240v700h240zM319 84q132 0 200.5 69.5t68.5 193.5q0 126 -68.5 197.5t-200.5 71.5h-140v-532h140z" />
    <glyph glyph-name="E" unicode="E" horiz-adv-x="606" 
d="M547 616h-368v-219h276v-84h-276v-229h368v-84h-468v700h468v-84z" />
    <glyph glyph-name="F" unicode="F" horiz-adv-x="586" 
d="M79 700h468v-84h-368v-219h276v-84h-276v-313h-100v700z" />
    <glyph glyph-name="G" unicode="G" horiz-adv-x="768" 
d="M618 486q-38 71 -96.5 103t-127.5 32q-70 0 -128 -34t-91.5 -94.5t-33.5 -142.5q0 -81 33 -142t90.5 -95t128.5 -34q51 0 96 18t78.5 50t52.5 76v76h-220v82h321v-163q-24 -64 -71.5 -115t-113 -80.5t-143.5 -29.5q-74 0 -138.5 26t-112.5 73.5t-75 113t-27 144.5
q0 78 27 143.5t75 113.5t112.5 74t138.5 26q67 0 128 -22t109 -64t75 -103z" />
    <glyph glyph-name="H" unicode="H" horiz-adv-x="710" 
d="M79 700h100v-303h352v303h99v-700h-99v313h-352v-313h-100v700z" />
    <glyph glyph-name="I" unicode="I" horiz-adv-x="258" 
d="M79 700h100v-700h-100v700z" />
    <glyph glyph-name="J" unicode="J" horiz-adv-x="516" 
d="M341 700h100v-507q0 -60 -26 -105t-71 -70t-104 -25q-73 0 -121 35.5t-66 99.5l85 29q7 -23 20 -41t33.5 -28.5t48.5 -10.5q34 0 56 16t33.5 41.5t11.5 54.5v511z" />
    <glyph glyph-name="K" unicode="K" horiz-adv-x="631" 
d="M79 700h100v-303h36l274 303h126l-311 -345l315 -355h-131l-274 313h-35v-313h-100v700z" />
    <glyph glyph-name="L" unicode="L" horiz-adv-x="525" 
d="M179 700v-616h320v-84h-420v700h100z" />
    <glyph glyph-name="M" unicode="M" horiz-adv-x="874" 
d="M179 0h-100v700h110l249 -567l248 567h109v-700h-99v506l-222 -506h-73l-222 506v-506z" />
    <glyph glyph-name="N" unicode="N" horiz-adv-x="709" 
d="M630 700v-700h-102l-349 542v-542h-100v700h102l349 -540v540h100z" />
    <glyph glyph-name="O" unicode="O" horiz-adv-x="783" 
d="M393 -7q-74 0 -138.5 26t-112.5 73.5t-75 113t-27 144.5t27 144t75 113t112.5 74t138.5 26q73 0 137 -26t112 -74t75 -113t27 -144t-27 -144.5t-75 -113t-112 -73.5t-137 -26zM393 79q71 0 127.5 33t89.5 94t33 144q0 84 -33 144.5t-89.5 93.5t-127.5 33q-72 0 -129 -33
t-89.5 -93.5t-32.5 -144.5q0 -83 32.5 -144t89.5 -94t129 -33z" />
    <glyph glyph-name="P" unicode="P" horiz-adv-x="622" 
d="M340 367q49 0 80.5 15.5t46.5 43.5t15 65q0 59 -34 92t-108 33h-161v-249h161zM582 491q0 -38 -13 -75.5t-42 -67.5t-75.5 -47.5t-111.5 -17.5h-161v-283h-100v700h261q82 0 135.5 -28.5t80 -76t26.5 -104.5z" />
    <glyph glyph-name="Q" unicode="Q" horiz-adv-x="783" 
d="M345 184h100v-284h-100v284zM393 -7q-74 0 -138.5 26t-112.5 73.5t-75 113t-27 144.5t27 144t75 113t112.5 74t138.5 26q73 0 137 -26t112 -74t75 -113t27 -144t-27 -144.5t-75 -113t-112 -73.5t-137 -26zM393 79q71 0 127.5 33t89.5 94t33 144q0 84 -33 144.5
t-89.5 93.5t-127.5 33q-72 0 -129 -33t-89.5 -93.5t-32.5 -144.5q0 -83 32.5 -144t89.5 -94t129 -33z" />
    <glyph glyph-name="R" unicode="R" horiz-adv-x="636" 
d="M481 491q0 57 -34 91t-108 34h-160v-249h161q49 0 80 15.5t46 43.5t15 65zM339 700q83 0 136.5 -28.5t80 -75.5t26.5 -105q0 -38 -13 -75t-42 -67.5t-75.5 -48t-111.5 -17.5h-161v-283h-100v700h260zM403 317l193 -317h-113l-186 317h106z" />
    <glyph glyph-name="S" unicode="S" horiz-adv-x="578" 
d="M139 185q6 -28 24.5 -52t50.5 -39t79 -15q70 0 103.5 32.5t33.5 76.5q0 36 -20.5 59.5t-56 40t-81.5 29.5q-40 12 -78.5 25.5t-69.5 34t-49 53t-18 81.5q0 61 29 105t81.5 67.5t121.5 23.5q58 0 104 -16.5t77.5 -47t46.5 -73.5l-91 -33q-6 22 -25 41.5t-48 31.5t-65 12
q-37 1 -66.5 -11.5t-47 -35.5t-17.5 -55q0 -35 20 -55t53.5 -33t73.5 -25q42 -13 82 -28t72.5 -38t52.5 -57.5t20 -86.5q0 -56 -26 -102t-78.5 -74t-131.5 -28q-65 0 -117 20t-85.5 55.5t-44.5 82.5z" />
    <glyph glyph-name="T" unicode="T" horiz-adv-x="616" 
d="M40 700h537v-84h-218v-616h-100v616h-219v84z" />
    <glyph glyph-name="U" unicode="U" horiz-adv-x="702" 
d="M75 700h100v-445q0 -60 23 -99.5t63 -58t90 -18.5q51 0 90.5 18.5t62.5 58t23 99.5v445h100v-443q0 -68 -22.5 -117.5t-62 -82t-89 -48.5t-103.5 -16q-72 0 -135 28.5t-101.5 87t-38.5 148.5v443z" />
    <glyph glyph-name="V" unicode="V" horiz-adv-x="693" 
d="M561 700h105l-263 -700h-115l-262 700h106l214 -597z" />
    <glyph glyph-name="W" unicode="W" horiz-adv-x="994" 
d="M337 0h-111l-200 700h107l149 -584l160 584h111l159 -582l150 582h105l-199 -700h-112l-159 551z" />
    <glyph glyph-name="X" unicode="X" horiz-adv-x="726" 
d="M53 700h110l200 -270l199 270h111l-254 -350l254 -350h-111l-199 270l-200 -270h-110l254 350z" />
    <glyph glyph-name="Y" unicode="Y" horiz-adv-x="670" 
d="M532 700h111l-259 -440v-260h-99v259l-259 441h111l197 -349z" />
    <glyph glyph-name="Z" unicode="Z" horiz-adv-x="597" 
d="M543 624l-373 -540h375v-84h-492v76l372 540h-370v84h488v-76z" />
    <glyph glyph-name="bracketleft" unicode="[" horiz-adv-x="313" 
d="M75 800h190v-82h-96v-735h96v-83h-190v900z" />
    <glyph glyph-name="backslash" unicode="\" horiz-adv-x="339" 
d="M339 -100h-98l-241 900h98z" />
    <glyph glyph-name="bracketright" unicode="]" horiz-adv-x="313" 
d="M238 800v-900h-190v83h96v735h-96v82h190z" />
    <glyph glyph-name="asciicircum" unicode="^" horiz-adv-x="669" 
d="M335 579l-181 -329h-102l235 450h93l237 -450h-104z" />
    <glyph glyph-name="underscore" unicode="_" horiz-adv-x="538" 
d="M-2 -38h542v-93h-542v93z" />
    <glyph glyph-name="grave" unicode="`" horiz-adv-x="240" 
d="M12 787l215 -123v-74l-215 113v84z" />
    <glyph glyph-name="a" unicode="a" horiz-adv-x="527" 
d="M377 0l-8 73q-23 -38 -59.5 -58.5t-94.5 -20.5q-54 0 -92 17.5t-58.5 49t-20.5 73.5q0 63 47 104.5t136 51.5l142 16v39q0 32 -26 54.5t-75 22.5q-46 0 -78 -21.5t-43 -63.5l-84 30q19 66 74.5 103t134.5 37q94 0 143 -47t49 -124v-336h-87zM369 229l-137 -17
q-44 -6 -66 -24.5t-22 -48.5q0 -28 21.5 -46.5t60.5 -18.5q48 0 80 18t47.5 50.5t15.5 75.5v11z" />
    <glyph glyph-name="b" unicode="b" horiz-adv-x="600" 
d="M156 415q23 39 68.5 65.5t110.5 26.5q68 0 119 -32t79.5 -90t28.5 -135t-29 -135t-80 -90t-118 -32q-61 0 -103.5 24t-66.5 58l-7 -75h-86v720h94v-308zM460 250q0 77 -40.5 124t-105.5 47q-42 0 -75 -20.5t-53 -58.5t-20 -92t20 -92.5t53 -58.5t75 -20q65 0 105.5 47
t40.5 124z" />
    <glyph glyph-name="c" unicode="c" horiz-adv-x="553" 
d="M286 -7q-72 0 -127 32.5t-85.5 89.5t-30.5 133q0 77 31 135t86 91t128 33q77 0 135.5 -36t84.5 -97l-85 -30q-15 35 -50.5 56t-80.5 21q-46 0 -79 -21.5t-51 -60t-18 -90.5q0 -78 40 -124t108 -46q45 0 80.5 20t53.5 55l84 -30q-28 -60 -88 -95.5t-136 -35.5z" />
    <glyph glyph-name="d" unicode="d" horiz-adv-x="604" 
d="M449 415l-11 -3v308h95v-720h-86l-7 75q-25 -34 -67.5 -58t-103.5 -24q-68 0 -118.5 32t-79 90t-28.5 135t28.5 135t79 90t118.5 32q65 0 110.5 -26.5t69.5 -65.5zM144 250q0 -77 40 -124t107 -47q41 0 74 20t53 58.5t20 92.5t-20 92t-53 58.5t-74 20.5q-66 0 -106.5 -47
t-40.5 -124z" />
    <glyph glyph-name="e" unicode="e" horiz-adv-x="563" 
d="M289 -7q-72 0 -127.5 33.5t-87 92.5t-31.5 135q0 73 31 130t85.5 90t123.5 33q70 0 124 -30.5t84 -85t29 -125.5q0 -12 -1 -24.5t-3 -27.5h-370q3 -40 22.5 -70.5t50 -47.5t69.5 -17q50 0 87 19.5t52 52.5l82 -29q-30 -61 -87.5 -95t-132.5 -34zM417 295q0 36 -18 65
t-48.5 45.5t-68.5 16.5q-34 0 -62.5 -16.5t-48 -45t-24.5 -65.5h270z" />
    <glyph glyph-name="f" unicode="f" horiz-adv-x="323" 
d="M96 556q0 57 19.5 96t60.5 56.5t108 11.5v-83q-52 5 -72.5 -16t-20.5 -65v-56h99v-84h-99v-416h-95v416h-64v84h64v56z" />
    <glyph glyph-name="g" unicode="g" horiz-adv-x="604" 
d="M447 500h86v-418q0 -88 -42 -151t-120.5 -97t-189.5 -34l-15 83q134 3 203 53.5t69 145.5v5l11 -1q-24 -38 -68.5 -65.5t-110.5 -27.5q-67 0 -118.5 32t-80 90t-28.5 135t28.5 135t80 90t118.5 32q41 0 73.5 -11t56.5 -29.5t40 -41.5zM144 250q0 -77 40.5 -124t108.5 -47
q40 0 73 20.5t52.5 59t19.5 91.5q0 54 -19.5 92t-53 58.5t-72.5 20.5q-68 0 -108.5 -47t-40.5 -124z" />
    <glyph glyph-name="h" unicode="h" horiz-adv-x="565" 
d="M72 720h94v-275q24 29 62 45.5t84 16.5q56 0 98.5 -24.5t66.5 -73t24 -120.5v-289h-99v277q0 70 -29 107t-85 37q-58 0 -90 -38t-32 -111v-272h-94v720z" />
    <glyph glyph-name="i" unicode="i" horiz-adv-x="268" 
d="M87 500h95v-500h-95v500zM135 588q-27 0 -45 18t-18 44q0 27 18 45.5t45 18.5q26 0 44.5 -18.5t18.5 -45.5q0 -26 -18.5 -44t-44.5 -18z" />
    <glyph glyph-name="j" unicode="j" horiz-adv-x="262" 
d="M84 25q0 -62 -31 -99.5t-89 -42.5l15 -83q52 2 97.5 28.5t74 76t28.5 119.5v476h-95v-475zM131 588q-26 0 -44.5 18t-18.5 44q0 27 18.5 45.5t44.5 18.5q27 0 45 -18.5t18 -45.5q0 -26 -18 -44t-45 -18z" />
    <glyph glyph-name="k" unicode="k" horiz-adv-x="538" 
d="M72 720h95v-429h41l187 209h128l-232 -250l233 -250h-129l-187 210h-41v-210h-95v720z" />
    <glyph glyph-name="l" unicode="l" horiz-adv-x="237" 
d="M72 720h94v-720h-94v720z" />
    <glyph glyph-name="m" unicode="m" horiz-adv-x="890" 
d="M72 500h86l6 -58q24 30 60 47.5t81 17.5q51 0 92.5 -22.5t65.5 -66.5q25 44 71 66.5t101 22.5q57 0 100.5 -24.5t67.5 -72.5t24 -120v-290h-95v278q0 70 -30 106.5t-86 36.5q-57 0 -90 -38t-33 -111v-272h-95v278q0 70 -28 106.5t-84 36.5q-57 0 -88.5 -38t-31.5 -111
v-272h-94v500z" />
    <glyph glyph-name="n" unicode="n" 
d="M72 500h86l6 -58q24 31 61 48t82 17q58 0 100.5 -24.5t66 -72.5t23.5 -120v-290h-94v278q0 70 -29.5 106.5t-85.5 36.5q-58 0 -90 -37.5t-32 -110.5v-273h-94v500z" />
    <glyph glyph-name="o" unicode="o" horiz-adv-x="589" 
d="M291 -7q-71 0 -127.5 31.5t-88.5 89t-32 135.5q0 79 33 137t90 89.5t128 31.5t128.5 -31.5t90.5 -89t33 -135.5q0 -79 -33.5 -137t-91.5 -89.5t-130 -31.5zM290 79q40 0 75 18.5t57.5 56.5t22.5 97q0 58 -21.5 95.5t-56.5 56t-75 18.5q-39 0 -72.5 -18.5t-54.5 -56.5
t-21 -97q0 -58 20.5 -95.5t53.5 -56t72 -18.5z" />
    <glyph glyph-name="p" unicode="p" horiz-adv-x="604" 
d="M156 85l10 3v-288h-94v700h86l7 -75q24 34 66.5 58t103.5 24q66 0 117 -32t80.5 -89.5t29.5 -135.5q0 -77 -28.5 -135t-79.5 -90t-119 -32q-65 0 -110.5 26.5t-68.5 65.5zM460 250q0 77 -40.5 124t-105.5 47q-42 0 -75 -20t-53 -58t-20 -93q0 -54 20 -92t53 -58.5
t75 -20.5q65 0 105.5 47t40.5 124z" />
    <glyph glyph-name="q" unicode="q" horiz-adv-x="604" 
d="M449 85q-24 -39 -69.5 -65.5t-110.5 -26.5q-68 0 -118.5 32t-79 90t-28.5 135q0 78 28.5 135.5t79 89.5t118.5 32q61 0 103.5 -24t67.5 -58l7 75h86v-700h-95v288zM144 250q0 -77 40.5 -124t106.5 -47q41 0 74 20.5t53 58.5t20 92q0 55 -20 93t-53 58t-74 20
q-67 0 -107 -47t-40 -124z" />
    <glyph glyph-name="r" unicode="r" horiz-adv-x="363" 
d="M72 500h86l6 -67q21 26 48.5 43.5t60 24.5t67.5 -1v-89q-33 8 -64 2t-55.5 -25.5t-39.5 -51.5t-15 -77v-259h-94v500z" />
    <glyph glyph-name="s" unicode="s" horiz-adv-x="480" 
d="M128 158q7 -30 24 -47t40.5 -24.5t49.5 -7.5q45 0 70 18t25 45q0 23 -15.5 36.5t-41 21.5t-54.5 15q-26 7 -56.5 16t-57 24.5t-43.5 40t-17 62.5q0 45 24.5 78.5t68 52t98.5 18.5q64 0 112.5 -27.5t70.5 -82.5l-85 -28q-7 19 -23 31t-36.5 16.5t-40.5 4.5q-38 0 -63 -15
t-25 -44q0 -16 8 -26.5t22.5 -17t34.5 -11.5t43 -11q30 -9 61 -19.5t57 -26.5t42 -42t17 -64q0 -44 -24.5 -78t-69 -53.5t-105.5 -19.5q-74 0 -126 33t-70 102z" />
    <glyph glyph-name="t" unicode="t" horiz-adv-x="357" 
d="M104 500v140h95v-140h125v-84h-125v-246q0 -46 18.5 -65t47 -21.5t59.5 1.5v-81q-41 -9 -80.5 -5.5t-71 22.5t-50 55.5t-18.5 93.5v246h-72v84h72z" />
    <glyph glyph-name="u" unicode="u" 
d="M490 0h-86l-7 59q-24 -32 -60.5 -49t-81.5 -17q-58 0 -101 24.5t-66.5 72t-23.5 118.5v292h95v-280q0 -69 28.5 -105t86.5 -36q57 0 89.5 37t32.5 110v274h94v-500z" />
    <glyph glyph-name="v" unicode="v" horiz-adv-x="538" 
d="M126 500l144 -399l145 399h100l-195 -500h-102l-194 500h102z" />
    <glyph glyph-name="w" unicode="w" horiz-adv-x="756" 
d="M271 0h-90l-157 500h96l105 -388l112 388h90l108 -386l104 386h93l-155 -500h-91l-107 363z" />
    <glyph glyph-name="x" unicode="x" horiz-adv-x="508" 
d="M29 500h108l117 -175l117 175h108l-174 -250l174 -250h-108l-117 177l-117 -177h-108l173 250z" />
    <glyph glyph-name="y" unicode="y" horiz-adv-x="529" 
d="M413 500h98l-290 -700h-93l88 210l-198 490h104l145 -379z" />
    <glyph glyph-name="z" unicode="z" horiz-adv-x="478" 
d="M430 423l-265 -339h266v-84h-384v77l266 339h-265v84h382v-77z" />
    <glyph glyph-name="braceleft" unicode="{" horiz-adv-x="380" 
d="M44 381q35 4 57 15.5t32.5 28t10.5 36.5q0 32 -4.5 70t-9 77.5t-4.5 72.5q0 59 41.5 89t106.5 30h62v-69h-42q-35 0 -53.5 -13t-18.5 -43q0 -29 4.5 -67t9 -76.5t4.5 -73.5q0 -40 -25 -68.5t-81 -38.5v-1q56 -10 81 -39t25 -69q0 -34 -4.5 -73t-9 -76t-4.5 -67t18.5 -43
t53.5 -13h42v-70h-62q-65 0 -106.5 31t-41.5 89q0 34 4.5 73t9 77.5t4.5 68.5q0 21 -10.5 37.5t-32.5 27.5t-57 16v61z" />
    <glyph glyph-name="bar" unicode="|" horiz-adv-x="290" 
d="M195 800v-900h-100v900h100z" />
    <glyph glyph-name="braceright" unicode="}" horiz-adv-x="379" 
d="M336 381v-61q-36 -5 -58 -16t-32.5 -27.5t-10.5 -37.5q0 -30 5 -68.5t9.5 -77.5t4.5 -73q0 -58 -41.5 -89t-107.5 -31h-61v70h41q36 0 54 13t18 43t-4.5 67t-9 76t-4.5 73q0 40 25 69t82 39v1q-57 10 -82 38.5t-25 68.5q0 35 4.5 73.5t9 76.5t4.5 67q0 30 -18 43t-54 13
h-41v69h61q66 0 107.5 -30t41.5 -89q0 -33 -4.5 -72.5t-9.5 -77.5t-5 -70q0 -20 10.5 -36.5t32.5 -28t58 -15.5z" />
    <glyph glyph-name="asciitilde" unicode="~" horiz-adv-x="569" 
d="M56 274q14 80 52.5 117t95.5 37q28 0 50 -10t41 -23.5t38 -23t40 -9.5q25 0 44 16.5t23 47.5h74q-14 -80 -53 -116.5t-95 -36.5q-30 0 -51.5 9.5t-40.5 23t-37.5 23.5t-40.5 10q-25 0 -44.5 -17.5t-23.5 -47.5h-72z" />
    <glyph glyph-name="uni00A0" unicode="&#xa0;" horiz-adv-x="280" 
 />
    <glyph glyph-name="exclamdown" unicode="&#xa1;" horiz-adv-x="272" 
d="M136 564q27 0 46 -18.5t19 -46.5t-19 -46.5t-46 -18.5t-46 18.5t-19 46.5t19 46.5t46 18.5zM82 -141l11 498h83l11 -498h-105z" />
    <glyph glyph-name="cent" unicode="&#xa2;" horiz-adv-x="553" 
d="M266 600h58v-142h-58v142zM266 60h58v-160h-58v160zM286 -7q-72 0 -127 32.5t-85.5 89.5t-30.5 133q0 77 31 135t86 91t128 33q77 0 135.5 -36t84.5 -97l-85 -30q-15 35 -50.5 56t-80.5 21q-46 0 -79 -21.5t-51 -60t-18 -90.5q0 -78 40 -124t108 -46q45 0 80.5 20
t53.5 55l84 -30q-28 -60 -88 -95.5t-136 -35.5z" />
    <glyph glyph-name="sterling" unicode="&#xa3;" horiz-adv-x="610" 
d="M341 707q73 0 120.5 -29t71 -76t25.5 -104h-91q-1 54 -31 89.5t-95 35.5q-35 0 -64 -13.5t-46 -43t-17 -77.5q0 -36 8.5 -66.5t19 -58t19 -55t8.5 -58.5q0 -49 -17.5 -90.5t-51.5 -78.5h362v-82h-452l-18 55q25 28 44 55.5t29 61t10 79.5q0 33 -8.5 58.5t-19 51t-19 57.5
t-8.5 76q0 66 28 113.5t78 73.5t115 26zM434 376v-70h-379v70h379z" />
    <glyph glyph-name="currency" unicode="&#xa4;" horiz-adv-x="545" 
d="M272 554q51 0 92 -21.5t65 -61t24 -94.5q0 -54 -24 -93.5t-65.5 -61.5t-92.5 -22q-52 0 -92.5 22t-63 61.5t-22.5 93.5q0 55 23.5 94.5t64 61t91.5 21.5zM272 492q-39 0 -67.5 -29.5t-28.5 -85.5t28 -85t67 -29q25 0 47.5 13t37 38.5t14.5 62.5q0 38 -14 63.5t-36 38.5
t-48 13zM149 459l-85 84l45 45l87 -86zM350 501l86 87l45 -45l-87 -88zM399 295l82 -82l-45 -45l-83 83zM198 257l-89 -89l-45 45l85 86z" />
    <glyph glyph-name="yen" unicode="&#xa5;" horiz-adv-x="670" 
d="M394 387h190v-72h-204zM85 223h499v-72h-499v72zM85 387h205l13 -72h-218v72zM532 700h111l-259 -440v-260h-99v259l-259 441h111l197 -349z" />
    <glyph glyph-name="brokenbar" unicode="&#xa6;" horiz-adv-x="289" 
d="M194 279v-379h-99v379h99zM95 422v378h99v-378h-99z" />
    <glyph glyph-name="section" unicode="&#xa7;" horiz-adv-x="461" 
d="M71 582q0 51 41.5 88t114.5 37q68 0 112.5 -33.5t45.5 -95.5h-75q-2 20 -11 37t-27 27.5t-45 10.5q-37 0 -59.5 -16.5t-22.5 -48.5q0 -19 10.5 -33t36.5 -27t73 -31q46 -16 80 -35.5t51.5 -46t17.5 -65.5q0 -33 -16.5 -61.5t-49 -48.5t-80.5 -29l7 30q31 -12 57 -28
t42 -38.5t16 -55.5q0 -52 -41 -89t-114 -37q-68 0 -112.5 33.5t-46.5 95.5h75q2 -21 11 -38t27 -27t46 -10q37 0 58.5 16.5t21.5 48.5q0 19 -10 33t-36 27.5t-73 30.5q-47 16 -80 35.5t-50.5 47t-17.5 64.5q0 34 16 63t48.5 49t80.5 25l-7 -28q-31 13 -57 29t-42 38.5
t-16 55.5zM337 350q0 37 -29 62t-79 25t-77.5 -26t-27.5 -61q0 -36 28.5 -61.5t79.5 -25.5q50 0 77.5 26t27.5 61z" />
    <glyph glyph-name="dieresis" unicode="&#xa8;" horiz-adv-x="301" 
d="M67 621q-23 0 -39 16t-16 39t16 39.5t39 16.5t39.5 -16.5t16.5 -39.5t-16.5 -39t-39.5 -16zM233 621q-23 0 -39 16t-16 39t16 39.5t39 16.5t39.5 -16.5t16.5 -39.5t-16.5 -39t-39.5 -16z" />
    <glyph glyph-name="copyright" unicode="&#xa9;" horiz-adv-x="802" 
d="M402 707q103 0 180.5 -46t121.5 -127t44 -185q0 -105 -44 -185t-121.5 -125.5t-181.5 -45.5q-103 0 -181 45.5t-122 125.5t-44 185q0 104 44 185t122 127t182 46zM402 665q-93 0 -161 -39.5t-105 -111t-37 -165.5t37 -164.5t105 -110t161 -39.5q92 0 160 39.5t104.5 110
t36.5 164.5t-36.5 165.5t-104.5 111t-160 39.5zM396 90q-72 0 -126.5 32t-85.5 89.5t-31 134.5q0 76 31 134t86.5 91t127.5 33q77 0 136 -36t84 -97l-85 -30q-15 35 -50 56t-81 21q-45 0 -78 -21.5t-51.5 -60t-18.5 -90.5q0 -78 40.5 -124t107.5 -46q45 0 81 20t53 55
l84 -30q-28 -60 -87.5 -95.5t-136.5 -35.5z" />
    <glyph glyph-name="ordfeminine" unicode="&#xaa;" horiz-adv-x="456" 
d="M33 530q0 53 22 93.5t60 63t84 22.5q49 0 81.5 -18.5t48.5 -43.5v56h78v-350h-78v55q-15 -25 -47.5 -43t-79.5 -18q-48 0 -86 23.5t-60.5 65t-22.5 94.5zM113 529q0 -57 32.5 -89t75.5 -32q44 0 76 31.5t32 88.5t-32 88.5t-76 31.5q-43 0 -75.5 -31t-32.5 -88z" />
    <glyph glyph-name="guillemotleft" unicode="&#xab;" horiz-adv-x="463" 
d="M231 75h-97l-94 175l94 175h97l-98 -175zM416 75h-98l-94 175l94 175h98l-98 -175z" />
    <glyph glyph-name="logicalnot" unicode="&#xac;" horiz-adv-x="649" 
d="M36 433h565v-218h-99v140h-466v78z" />
    <glyph glyph-name="uni00AD" unicode="&#xad;" horiz-adv-x="507" 
d="M52 320h403v-84h-403v84z" />
    <glyph glyph-name="registered" unicode="&#xae;" horiz-adv-x="517" 
d="M54 501q0 60 26 106t72.5 73t106.5 27q59 0 105.5 -27t72.5 -73t26 -106t-26 -106.5t-72.5 -73.5t-105.5 -27q-60 0 -106.5 27t-72.5 73.5t-26 106.5zM99 501q0 -48 19.5 -85t55.5 -58t85 -21q48 0 84.5 21t56 58t19.5 85q0 49 -19.5 85.5t-56 57.5t-84.5 21
q-49 0 -85 -21t-55.5 -57.5t-19.5 -85.5zM176 611v-215h56v77h42q34 0 54.5 19.5t20.5 49.5q0 31 -20.5 50t-54.5 19h-98zM292 396h68l-65 99l-62 -1zM271 560q9 0 16 -4.5t7 -15.5q0 -10 -7 -15t-16 -5h-39v40h39z" />
    <glyph glyph-name="macron" unicode="&#xaf;" horiz-adv-x="381" 
d="M12 713h357v-74h-357v74z" />
    <glyph glyph-name="degree" unicode="&#xb0;" horiz-adv-x="407" 
d="M23 525q0 55 24 94t64.5 60t91.5 21q52 0 93 -21t63.5 -60t22.5 -94q0 -54 -23 -93t-64.5 -60.5t-93.5 -21.5q-79 0 -128.5 47.5t-49.5 127.5zM302 525q0 59 -29.5 88t-70.5 29q-40 0 -70 -29t-30 -88t29 -87.5t70 -28.5q40 0 70.5 28.5t30.5 87.5z" />
    <glyph glyph-name="plusminus" unicode="&#xb1;" horiz-adv-x="731" 
d="M412 601v-457h-93v457h93zM111 436h509v-83h-509v83zM111 183h509v-84h-509v84z" />
    <glyph glyph-name="uni00B2" unicode="&#xb2;" horiz-adv-x="340" 
d="M36 600q2 47 35.5 77t95.5 30q40 0 69.5 -15.5t44.5 -40.5t15 -55q0 -26 -9 -47t-28.5 -40.5t-50.5 -42.5l-103 -79l-3 27h197v-64h-262v57l110 87q29 23 48 45t19 53q0 26 -14.5 40.5t-34.5 14.5q-23 0 -35 -12.5t-15 -34.5h-79z" />
    <glyph glyph-name="uni00B3" unicode="&#xb3;" horiz-adv-x="358" 
d="M39 607q3 29 20.5 51.5t48 35.5t70.5 13q37 0 68 -14t49 -37.5t18 -52.5q0 -31 -17.5 -49.5t-44.5 -26.5v-2q26 -9 45.5 -30.5t19.5 -53.5q0 -41 -39.5 -69.5t-102.5 -28.5q-60 0 -98 28t-41 80h78q4 -26 20 -38t40 -12q26 0 42 13.5t16 36.5t-16.5 37t-43.5 14h-40v51
h38q26 0 42.5 11.5t16.5 34.5q0 22 -15 35t-41 13q-25 0 -39 -11t-19 -29h-75z" />
    <glyph glyph-name="acute" unicode="&#xb4;" horiz-adv-x="240" 
d="M227 787v-86l-215 -111v74z" />
    <glyph glyph-name="uni00B5" unicode="&#xb5;" horiz-adv-x="597" 
d="M526 0h-99v71q-26 -39 -67 -59t-89 -20q-19 0 -37.5 4.5t-34.5 13.5t-29 23v-233h-98v700h98v-275q0 -73 35.5 -110.5t92.5 -37.5t93 37t36 111v275h99v-500z" />
    <glyph glyph-name="paragraph" unicode="&#xb6;" horiz-adv-x="617" 
d="M539 700v-700h-89v622h-73v-622h-88v291h-12q-82 0 -134.5 27.5t-77.5 74t-25 102.5q0 57 25 103.5t77.5 74t134.5 27.5h262z" />
    <glyph glyph-name="periodcentered" unicode="&#xb7;" horiz-adv-x="235" 
d="M118 273q-27 0 -46 19t-19 46q0 28 19 47t46 19t46 -19t19 -47q0 -27 -19 -46t-46 -19z" />
    <glyph glyph-name="cedilla" unicode="&#xb8;" horiz-adv-x="269" 
d="M127 -54q38 0 67 -11.5t46 -34t17 -56.5q0 -32 -16.5 -55.5t-44.5 -36.5t-63 -13h-121v64h101q31 0 46 9t15 32t-15 32t-46 9h-52v122h66v-61z" />
    <glyph glyph-name="uni00B9" unicode="&#xb9;" horiz-adv-x="211" 
d="M80 642h-54v58h132v-350h-78v292z" />
    <glyph glyph-name="ordmasculine" unicode="&#xba;" horiz-adv-x="439" 
d="M32 528q0 56 25 96.5t67 62.5t96 22q53 0 95.5 -22t67 -62.5t24.5 -96.5q0 -54 -25 -95t-68 -63.5t-96 -22.5q-54 0 -96 22.5t-66 63.5t-24 95zM325 527q0 60 -32 90.5t-75 30.5q-41 0 -73 -30.5t-32 -90.5q0 -58 31 -88t74 -30q42 0 74.5 30t32.5 88z" />
    <glyph glyph-name="guillemotright" unicode="&#xbb;" horiz-adv-x="463" 
d="M232 75l97 175l-97 175h97l95 -175l-95 -175h-97zM48 75l97 175l-97 175h96l95 -175l-95 -175h-96z" />
    <glyph glyph-name="onequarter" unicode="&#xbc;" horiz-adv-x="651" 
d="M444 700h94l-380 -700h-95zM619 119v-51h-46v-68h-79v68h-184v45l156 240h107v-234h46zM496 119v170l-107 -170h107zM80 641h-54v58h132v-350h-78v292z" />
    <glyph glyph-name="onehalf" unicode="&#xbd;" horiz-adv-x="689" 
d="M441 700h95l-380 -700h-94zM80 641h-54v58h132v-350h-78v292zM373 250q2 47 35.5 77t96.5 30q40 0 69 -15.5t44.5 -40.5t15.5 -55q0 -26 -9.5 -47t-29 -40.5t-49.5 -42.5l-104 -79l-2 27h196v-64h-261v57l109 87q29 23 48 45t19 53q0 26 -14.5 40.5t-34.5 14.5
q-22 0 -34.5 -12.5t-15.5 -34.5h-79z" />
    <glyph glyph-name="threequarters" unicode="&#xbe;" horiz-adv-x="725" 
d="M525 700h94l-380 -700h-93zM699 119v-51h-46v-68h-79v68h-184v45l156 240h107v-234h46zM576 119v170l-107 -170h107zM30 607q3 29 21 51.5t48 35.5t70 13q38 0 68.5 -14t48.5 -37.5t18 -52.5q0 -31 -17 -49.5t-45 -26.5v-2q27 -9 46 -30.5t19 -53.5q0 -41 -39 -69.5
t-103 -28.5q-60 0 -98 28t-41 80h78q4 -26 20.5 -38t40.5 -12q26 0 42 13.5t16 36.5t-17 37t-44 14h-40v51h38q27 0 43.5 11.5t16.5 34.5q0 22 -15 35t-42 13q-25 0 -39 -11t-19 -29h-75z" />
    <glyph glyph-name="questiondown" unicode="&#xbf;" horiz-adv-x="547" 
d="M333 558q27 0 46 -19t19 -47q0 -27 -19 -46t-46 -19t-45.5 19t-18.5 46q0 28 18.5 47t45.5 19zM275 -156q-65 0 -115.5 25t-78.5 72t-28 110q0 73 31 118t85 66t123 21l3 90h86l5 -158h-30q-43 0 -79.5 -5t-64 -19.5t-43 -41.5t-15.5 -71q0 -38 14 -64.5t41 -41.5t66 -15
q58 0 92.5 31t34.5 87h93q0 -60 -27 -106t-76.5 -72t-116.5 -26z" />
    <glyph glyph-name="Agrave" unicode="&#xc0;" horiz-adv-x="692" 
d="M231 949l215 -124v-74l-215 113v85zM365 616h-35l-220 -616h-102l252 700h173l252 -700h-102zM137 262h408v-84h-408v84z" />
    <glyph glyph-name="Aacute" unicode="&#xc1;" horiz-adv-x="692" 
d="M446 949v-87l-215 -111v74zM365 616h-35l-220 -616h-102l252 700h173l252 -700h-102zM137 262h408v-84h-408v84z" />
    <glyph glyph-name="Acircumflex" unicode="&#xc2;" horiz-adv-x="692" 
d="M487 755l-140 86l-140 -86v79l140 84l140 -84v-79zM365 616h-35l-220 -616h-102l252 700h173l252 -700h-102zM137 262h408v-84h-408v84z" />
    <glyph glyph-name="Atilde" unicode="&#xc3;" horiz-adv-x="692" 
d="M191 760q7 54 35.5 81t69.5 27q26 0 44 -11t34 -22.5t36 -11.5q16 0 28.5 10t15.5 32h57q-8 -54 -36.5 -81t-68.5 -27q-27 0 -45.5 11.5t-34 23t-35.5 11.5q-18 0 -29 -10.5t-14 -32.5h-57zM365 616h-35l-220 -616h-102l252 700h173l252 -700h-102zM137 262h408v-84h-408
v84z" />
    <glyph glyph-name="Adieresis" unicode="&#xc4;" horiz-adv-x="692" 
d="M264 782q-24 0 -40 16t-16 39t16 39.5t40 16.5q22 0 38.5 -16.5t16.5 -39.5t-16.5 -39t-38.5 -16zM430 782q-24 0 -39.5 16t-15.5 39t15.5 39.5t39.5 16.5q22 0 38.5 -16.5t16.5 -39.5t-16.5 -39t-38.5 -16zM365 616h-35l-220 -616h-102l252 700h173l252 -700h-102z
M137 262h408v-84h-408v84z" />
    <glyph glyph-name="Aring" unicode="&#xc5;" horiz-adv-x="692" 
d="M456 854q0 -49 -32 -78t-77 -29t-77 29t-32 78q0 50 32 79t77 29t77 -29t32 -79zM399 855q0 25 -15 39.5t-37 14.5t-37 -14.5t-15 -39.5t15 -39.5t37 -14.5t37 14.5t15 39.5zM365 616h-35l-220 -616h-102l252 700h173l252 -700h-102zM137 262h408v-84h-408v84z" />
    <glyph glyph-name="AE" unicode="&#xc6;" horiz-adv-x="899" 
d="M563 616v-219h187v-85h-187v-228h277v-84h-377v177h-249l-98 -177h-108l390 700h442v-84h-277zM260 262h203v365z" />
    <glyph glyph-name="Ccedilla" unicode="&#xc7;" horiz-adv-x="765" 
d="M426 -54q37 0 66 -11.5t46 -34t17 -56.5q0 -33 -16 -56.5t-44.5 -36.5t-63.5 -13h-121v64h102q30 0 45.5 9t15.5 33q0 23 -15.5 32t-45.5 9h-53v122h67v-61zM40 350q0 79 27 144.5t75 113t111.5 73.5t137.5 26q105 0 187.5 -49t125.5 -141l-80 -29q-24 47 -61 76t-81 43
t-89 14q-71 0 -128.5 -33t-90 -94t-32.5 -144q0 -82 32.5 -143t90 -94.5t128.5 -33.5q46 0 91 15t84 48.5t64 87.5l80 -28q-45 -106 -129 -157.5t-192 -51.5q-74 0 -137.5 26t-111.5 74t-75 113.5t-27 143.5z" />
    <glyph glyph-name="Egrave" unicode="&#xc8;" horiz-adv-x="606" 
d="M197 949l215 -124v-74l-215 113v85zM547 616h-368v-219h276v-84h-276v-229h368v-84h-468v700h468v-84z" />
    <glyph glyph-name="Eacute" unicode="&#xc9;" horiz-adv-x="606" 
d="M412 949v-87l-215 -111v74zM547 616h-368v-219h276v-84h-276v-229h368v-84h-468v700h468v-84z" />
    <glyph glyph-name="Ecircumflex" unicode="&#xca;" horiz-adv-x="606" 
d="M453 755l-140 86l-140 -86v79l140 84l140 -84v-79zM547 616h-368v-219h276v-84h-276v-229h368v-84h-468v700h468v-84z" />
    <glyph glyph-name="Edieresis" unicode="&#xcb;" horiz-adv-x="606" 
d="M230 782q-24 0 -40 16t-16 39t16 39.5t40 16.5q23 0 39 -16.5t16 -39.5t-16 -39t-39 -16zM396 782q-23 0 -39 16t-16 39t16 39.5t39 16.5t39 -16.5t16 -39.5t-16 -39t-39 -16zM547 616h-368v-219h276v-84h-276v-229h368v-84h-468v700h468v-84z" />
    <glyph glyph-name="Igrave" unicode="&#xcc;" horiz-adv-x="258" 
d="M12 949l216 -124v-74l-216 113v85zM79 700h100v-700h-100v700z" />
    <glyph glyph-name="Iacute" unicode="&#xcd;" horiz-adv-x="258" 
d="M228 949v-87l-216 -111v74zM79 700h100v-700h-100v700z" />
    <glyph glyph-name="Icircumflex" unicode="&#xce;" horiz-adv-x="258" 
d="M269 755l-140 86l-140 -86v79l140 84l140 -84v-79zM79 700h100v-700h-100v700z" />
    <glyph glyph-name="Idieresis" unicode="&#xcf;" horiz-adv-x="258" 
d="M46 782q-24 0 -40 16t-16 39t16 39.5t40 16.5q22 0 38.5 -16.5t16.5 -39.5t-16.5 -39t-38.5 -16zM212 782q-24 0 -40 16t-16 39t16 39.5t40 16.5q22 0 38.5 -16.5t16.5 -39.5t-16.5 -39t-38.5 -16zM79 700h100v-700h-100v700z" />
    <glyph glyph-name="Eth" unicode="&#xd0;" horiz-adv-x="772" 
d="M59 394h83v306h221q114 0 196.5 -43t127.5 -122t45 -188q0 -107 -45 -185t-127.5 -120t-196.5 -42h-221v302h-83v92zM242 76h121q131 -1 199 73t68 198q0 126 -68 199t-199 73h-121v-225h187v-92h-187v-226z" />
    <glyph glyph-name="Ntilde" unicode="&#xd1;" horiz-adv-x="709" 
d="M209 760q8 54 36 81t69 27q27 0 45 -11t33.5 -22.5t36.5 -11.5q17 0 28.5 10t14.5 32h57q-7 -54 -35.5 -81t-69.5 -27q-27 0 -45 11.5t-34 23t-36 11.5q-16 0 -28 -10.5t-15 -32.5h-57zM630 700v-700h-102l-349 542v-542h-100v700h102l349 -540v540h100z" />
    <glyph glyph-name="Ograve" unicode="&#xd2;" horiz-adv-x="783" 
d="M278 949l215 -124v-74l-215 113v85zM393 -7q-74 0 -138.5 26t-112.5 73.5t-75 113t-27 144.5t27 144t75 113t112.5 74t138.5 26q73 0 137 -26t112 -74t75 -113t27 -144t-27 -144.5t-75 -113t-112 -73.5t-137 -26zM393 79q71 0 127.5 33t89.5 94t33 144q0 84 -33 144.5
t-89.5 93.5t-127.5 33q-72 0 -129 -33t-89.5 -93.5t-32.5 -144.5q0 -83 32.5 -144t89.5 -94t129 -33z" />
    <glyph glyph-name="Oacute" unicode="&#xd3;" horiz-adv-x="783" 
d="M493 949v-87l-215 -111v74zM393 -7q-74 0 -138.5 26t-112.5 73.5t-75 113t-27 144.5t27 144t75 113t112.5 74t138.5 26q73 0 137 -26t112 -74t75 -113t27 -144t-27 -144.5t-75 -113t-112 -73.5t-137 -26zM393 79q71 0 127.5 33t89.5 94t33 144q0 84 -33 144.5t-89.5 93.5
t-127.5 33q-72 0 -129 -33t-89.5 -93.5t-32.5 -144.5q0 -83 32.5 -144t89.5 -94t129 -33z" />
    <glyph glyph-name="Ocircumflex" unicode="&#xd4;" horiz-adv-x="783" 
d="M534 755l-140 86l-140 -86v79l140 84l140 -84v-79zM393 -7q-74 0 -138.5 26t-112.5 73.5t-75 113t-27 144.5q0 78 27 143.5t75 113.5t112.5 74t138.5 26q73 0 137 -26t112 -74t75 -113.5t27 -143.5q0 -79 -27 -144.5t-75 -113t-112 -73.5t-137 -26zM393 79q71 0 127.5 33
t89.5 94t33 144q0 84 -33 144.5t-89.5 93.5t-127.5 33q-72 0 -129 -33t-89.5 -93.5t-32.5 -144.5q0 -83 32.5 -144t89.5 -94t129 -33z" />
    <glyph glyph-name="Otilde" unicode="&#xd5;" horiz-adv-x="783" 
d="M238 760q7 54 35.5 81t69.5 27q26 0 44 -11t34 -22.5t37 -11.5q15 0 27.5 10.5t15.5 31.5h57q-8 -54 -37 -81t-68 -27q-28 0 -46 11.5t-33.5 23t-35.5 11.5q-18 0 -29 -10.5t-14 -32.5h-57zM393 -7q-74 0 -138.5 26t-112.5 73.5t-75 113t-27 144.5t27 144t75 113
t112.5 74t138.5 26q73 0 137 -26t112 -74t75 -113t27 -144t-27 -144.5t-75 -113t-112 -73.5t-137 -26zM393 79q71 0 127.5 33t89.5 94t33 144q0 84 -33 144.5t-89.5 93.5t-127.5 33q-72 0 -129 -33t-89.5 -93.5t-32.5 -144.5q0 -83 32.5 -144t89.5 -94t129 -33z" />
    <glyph glyph-name="Odieresis" unicode="&#xd6;" horiz-adv-x="783" 
d="M311 782q-24 0 -40 16t-16 39t16 39.5t40 16.5q22 0 38.5 -16.5t16.5 -39.5t-16.5 -39t-38.5 -16zM477 782q-24 0 -39.5 16t-15.5 39t15.5 39.5t39.5 16.5q22 0 38.5 -16.5t16.5 -39.5t-16.5 -39t-38.5 -16zM393 -7q-74 0 -138.5 26t-112.5 73.5t-75 113t-27 144.5
t27 144t75 113t112.5 74t138.5 26q73 0 137 -26t112 -74t75 -113t27 -144t-27 -144.5t-75 -113t-112 -73.5t-137 -26zM393 79q71 0 127.5 33t89.5 94t33 144q0 84 -33 144.5t-89.5 93.5t-127.5 33q-72 0 -129 -33t-89.5 -93.5t-32.5 -144.5q0 -83 32.5 -144t89.5 -94
t129 -33z" />
    <glyph glyph-name="multiply" unicode="&#xd7;" 
d="M126 570l375 -375l-63 -64l-375 376zM59 196l375 374l65 -65l-374 -374z" />
    <glyph glyph-name="Oslash" unicode="&#xd8;" horiz-adv-x="783" 
d="M571 608l79 -42l-421 -460l-79 42zM393 -7q-74 0 -138.5 26t-112.5 73.5t-75 113t-27 144.5t27 144t75 113t112.5 74t138.5 26q73 0 137 -26t112 -74t75 -113t27 -144t-27 -144.5t-75 -113t-112 -73.5t-137 -26zM393 79q71 0 127.5 33t89.5 94t33 144q0 84 -33 144.5
t-89.5 93.5t-127.5 33q-72 0 -129 -33t-89.5 -93.5t-32.5 -144.5q0 -83 32.5 -144t89.5 -94t129 -33z" />
    <glyph glyph-name="Ugrave" unicode="&#xd9;" horiz-adv-x="702" 
d="M234 949l216 -124v-74l-216 113v85zM75 700h100v-445q0 -60 23 -99.5t63 -58t90 -18.5q51 0 90.5 18.5t62.5 58t23 99.5v445h100v-443q0 -68 -22.5 -117.5t-62 -82t-89 -48.5t-103.5 -16q-72 0 -135 28.5t-101.5 87t-38.5 148.5v443z" />
    <glyph glyph-name="Uacute" unicode="&#xda;" horiz-adv-x="702" 
d="M450 949v-87l-216 -111v74zM75 700h100v-445q0 -60 23 -99.5t63 -58t90 -18.5q51 0 90.5 18.5t62.5 58t23 99.5v445h100v-443q0 -68 -22.5 -117.5t-62 -82t-89 -48.5t-103.5 -16q-72 0 -135 28.5t-101.5 87t-38.5 148.5v443z" />
    <glyph glyph-name="Ucircumflex" unicode="&#xdb;" horiz-adv-x="702" 
d="M490 755l-140 86l-140 -86v79l140 84l140 -84v-79zM75 700h100v-445q0 -60 23 -99.5t63 -58t90 -18.5q51 0 90.5 18.5t62.5 58t23 99.5v445h100v-443q0 -68 -22.5 -117.5t-62 -82t-89 -48.5t-103.5 -16q-72 0 -135 28.5t-101.5 87t-38.5 148.5v443z" />
    <glyph glyph-name="Udieresis" unicode="&#xdc;" horiz-adv-x="702" 
d="M267 782q-23 0 -39 16t-16 39t16 39.5t39 16.5t39.5 -16.5t16.5 -39.5t-16.5 -39t-39.5 -16zM433 782q-23 0 -39 16t-16 39t16 39.5t39 16.5t39.5 -16.5t16.5 -39.5t-16.5 -39t-39.5 -16zM75 700h100v-445q0 -60 23 -99.5t63 -58t90 -18.5q51 0 90.5 18.5t62.5 58
t23 99.5v445h100v-443q0 -68 -22.5 -117.5t-62 -82t-89 -48.5t-103.5 -16q-72 0 -135 28.5t-101.5 87t-38.5 148.5v443z" />
    <glyph glyph-name="Yacute" unicode="&#xdd;" horiz-adv-x="670" 
d="M434 949v-87l-216 -111v74zM532 700h111l-259 -440v-260h-99v259l-259 441h111l197 -349z" />
    <glyph glyph-name="Thorn" unicode="&#xde;" horiz-adv-x="592" 
d="M310 224q74 0 107 34.5t33 91.5q0 59 -33 93t-107 34h-132v-253h132zM552 350q0 -52 -24 -98.5t-77 -76t-141 -29.5h-132v-146h-99v700h98v-145h133q82 0 135.5 -27t80 -74t26.5 -104z" />
    <glyph glyph-name="germandbls" unicode="&#xdf;" horiz-adv-x="632" 
d="M72 507q0 54 21.5 99.5t68.5 73t124 27.5q67 0 113 -23t69 -59.5t23 -76.5q0 -34 -13.5 -56.5t-32.5 -38.5t-37 -31q-17 -14 -29.5 -27.5t-12.5 -26.5q0 -16 18.5 -29t76.5 -32q68 -23 98.5 -67t30.5 -99q0 -66 -47 -107t-132 -41q-81 0 -132.5 44t-58.5 125h101
q2 -41 25 -65t65 -24q37 0 57 15t20 46q0 30 -18 56t-63 41q-74 24 -107.5 52t-33.5 73q0 37 21.5 62.5t47.5 48.5q22 19 39 33.5t17 40.5q0 38 -28.5 60.5t-77.5 22.5q-43 0 -69.5 -16t-38 -45t-11.5 -67v-496h-94v507z" />
    <glyph glyph-name="agrave" unicode="&#xe0;" horiz-adv-x="527" 
d="M164 721l193 -110v-65l-193 101v74zM377 0l-8 73q-23 -38 -59.5 -58.5t-94.5 -20.5q-54 0 -92 17.5t-58.5 49t-20.5 73.5q0 63 47 104.5t136 51.5l142 16v39q0 32 -26 54.5t-75 22.5q-46 0 -78 -21.5t-43 -63.5l-84 30q19 66 74.5 103t134.5 37q94 0 143 -47t49 -124
v-336h-87zM369 229l-137 -17q-44 -6 -66 -24.5t-22 -48.5q0 -28 21.5 -46.5t60.5 -18.5q48 0 80 18t47.5 50.5t15.5 75.5v11z" />
    <glyph glyph-name="aacute" unicode="&#xe1;" horiz-adv-x="527" 
d="M357 721v-76l-193 -99v65zM377 0l-8 73q-23 -38 -59.5 -58.5t-94.5 -20.5q-54 0 -92 17.5t-58.5 49t-20.5 73.5q0 63 47 104.5t136 51.5l142 16v39q0 32 -26 54.5t-75 22.5q-46 0 -78 -21.5t-43 -63.5l-84 30q19 66 74.5 103t134.5 37q94 0 143 -47t49 -124v-336h-87z
M369 229l-137 -17q-44 -6 -66 -24.5t-22 -48.5q0 -28 21.5 -46.5t60.5 -18.5q48 0 80 18t47.5 50.5t15.5 75.5v11z" />
    <glyph glyph-name="acircumflex" unicode="&#xe2;" horiz-adv-x="527" 
d="M393 550l-125 76l-126 -76v70l126 74l125 -74v-70zM377 0l-8 73q-23 -38 -59.5 -58.5t-94.5 -20.5q-54 0 -92 17.5t-58.5 49t-20.5 73.5q0 63 47 104.5t136 51.5l142 16v39q0 32 -26 54.5t-75 22.5q-46 0 -78 -21.5t-43 -63.5l-84 30q19 66 74.5 103t134.5 37
q94 0 143 -47t49 -124v-336h-87zM369 229l-137 -17q-44 -6 -66 -24.5t-22 -48.5q0 -28 21.5 -46.5t60.5 -18.5q48 0 80 18t47.5 50.5t15.5 75.5v11z" />
    <glyph glyph-name="atilde" unicode="&#xe3;" horiz-adv-x="527" 
d="M129 554q7 48 32 72t61 24q24 0 40 -10t30.5 -20t31.5 -10q15 0 26 9t14 28h51q-7 -49 -32.5 -72.5t-61.5 -23.5q-25 0 -41 10t-30 20.5t-32 10.5q-15 0 -25.5 -9.5t-12.5 -28.5h-51zM377 0l-8 73q-23 -38 -59.5 -58.5t-94.5 -20.5q-54 0 -92 17.5t-58.5 49t-20.5 73.5
q0 63 47 104.5t136 51.5l142 16v39q0 32 -26 54.5t-75 22.5q-46 0 -78 -21.5t-43 -63.5l-84 30q19 66 74.5 103t134.5 37q94 0 143 -47t49 -124v-336h-87zM369 229l-137 -17q-44 -6 -66 -24.5t-22 -48.5q0 -28 21.5 -46.5t60.5 -18.5q48 0 80 18t47.5 50.5t15.5 75.5v11z
" />
    <glyph glyph-name="adieresis" unicode="&#xe4;" horiz-adv-x="527" 
d="M194 573q-22 0 -36 14t-14 35t14 35.5t36 14.5q20 0 34.5 -14.5t14.5 -35.5t-14.5 -35t-34.5 -14zM342 573q-20 0 -34.5 14t-14.5 35t14.5 35.5t34.5 14.5t35 -14.5t15 -35.5t-15 -35t-35 -14zM377 0l-8 73q-23 -38 -59.5 -58.5t-94.5 -20.5q-54 0 -92 17.5t-58.5 49
t-20.5 73.5q0 63 47 104.5t136 51.5l142 16v39q0 32 -26 54.5t-75 22.5q-46 0 -78 -21.5t-43 -63.5l-84 30q19 66 74.5 103t134.5 37q94 0 143 -47t49 -124v-336h-87zM369 229l-137 -17q-44 -6 -66 -24.5t-22 -48.5q0 -28 21.5 -46.5t60.5 -18.5q48 0 80 18t47.5 50.5
t15.5 75.5v11z" />
    <glyph glyph-name="aring" unicode="&#xe5;" horiz-adv-x="527" 
d="M366 637q0 -44 -28.5 -69.5t-69.5 -25.5q-40 0 -68.5 25.5t-28.5 69.5q0 45 28.5 70.5t68.5 25.5q41 0 69.5 -25.5t28.5 -70.5zM315 638q0 23 -13.5 35.5t-33.5 12.5q-19 0 -32.5 -12.5t-13.5 -35.5q0 -22 13.5 -35t32.5 -13q20 0 33.5 13t13.5 35zM377 0l-8 73
q-23 -38 -59.5 -58.5t-94.5 -20.5q-54 0 -92 17.5t-58.5 49t-20.5 73.5q0 63 47 104.5t136 51.5l142 16v39q0 32 -26 54.5t-75 22.5q-46 0 -78 -21.5t-43 -63.5l-84 30q19 66 74.5 103t134.5 37q94 0 143 -47t49 -124v-336h-87zM369 229l-137 -17q-44 -6 -66 -24.5
t-22 -48.5q0 -28 21.5 -46.5t60.5 -18.5q48 0 80 18t47.5 50.5t15.5 75.5v11z" />
    <glyph glyph-name="ae" unicode="&#xe6;" horiz-adv-x="882" 
d="M607 -7q-72 0 -125 32.5t-82 91t-29 136.5q0 118 61 186t172 68q72 0 125 -30.5t82 -84.5t29 -125q0 -12 -1 -25t-3 -28h-371q3 -44 21.5 -74t49 -45.5t68.5 -15.5q54 0 89.5 17.5t53.5 54.5l82 -29q-29 -58 -83.5 -93.5t-138.5 -35.5zM739 295q-1 41 -19 69.5t-48.5 43
t-69.5 14.5q-34 0 -63 -15t-47 -43t-23 -69h270zM423 199l8 -72q-18 -50 -53.5 -79t-78.5 -42t-84 -13q-50 0 -88.5 16t-60.5 47.5t-22 77.5q0 40 16 68t42.5 46t59 28t65.5 14l142 19v36q0 30 -25 53.5t-76 23.5q-45 0 -77.5 -21t-43.5 -64l-84 30q19 66 73 103t136 37
q93 0 142.5 -47.5t49.5 -123.5v-102zM369 229l-134 -17q-48 -5 -69.5 -24.5t-21.5 -48.5q0 -32 24.5 -46.5t60.5 -14.5q41 0 73 16.5t49.5 48t17.5 74.5v12z" />
    <glyph glyph-name="ccedilla" unicode="&#xe7;" horiz-adv-x="553" 
d="M312 -44q34 0 60 -10t41 -30.5t15 -50.5q0 -29 -14.5 -50t-40 -32.5t-56.5 -11.5h-109v57h91q27 0 41 8t14 29t-14 29t-41 8h-47v109h60v-55zM286 -7q-72 0 -127 32.5t-85.5 89.5t-30.5 133q0 77 31 135t86 91t128 33q77 0 135.5 -36t84.5 -97l-85 -30q-15 35 -50.5 56
t-80.5 21q-46 0 -79 -21.5t-51 -60t-18 -90.5q0 -78 40 -124t108 -46q45 0 80.5 20t53.5 55l84 -30q-28 -60 -88 -95.5t-136 -35.5z" />
    <glyph glyph-name="egrave" unicode="&#xe8;" horiz-adv-x="563" 
d="M181 721l193 -110v-65l-193 101v74zM289 -7q-72 0 -127.5 33.5t-87 92.5t-31.5 135q0 73 31 130t85.5 90t123.5 33q70 0 124 -30.5t84 -85t29 -125.5q0 -12 -1 -24.5t-3 -27.5h-370q3 -40 22.5 -70.5t50 -47.5t69.5 -17q50 0 87 19.5t52 52.5l82 -29q-30 -61 -87.5 -95
t-132.5 -34zM417 295q0 36 -18 65t-48.5 45.5t-68.5 16.5q-34 0 -62.5 -16.5t-48 -45t-24.5 -65.5h270z" />
    <glyph glyph-name="eacute" unicode="&#xe9;" horiz-adv-x="563" 
d="M374 721v-76l-193 -99v65zM289 -7q-72 0 -127.5 33.5t-87 92.5t-31.5 135q0 73 31 130t85.5 90t123.5 33q70 0 124 -30.5t84 -85t29 -125.5q0 -12 -1 -24.5t-3 -27.5h-370q3 -40 22.5 -70.5t50 -47.5t69.5 -17q50 0 87 19.5t52 52.5l82 -29q-30 -61 -87.5 -95t-132.5 -34
zM417 295q0 36 -18 65t-48.5 45.5t-68.5 16.5q-34 0 -62.5 -16.5t-48 -45t-24.5 -65.5h270z" />
    <glyph glyph-name="ecircumflex" unicode="&#xea;" horiz-adv-x="563" 
d="M411 550l-125 76l-126 -76v70l126 74l125 -74v-70zM289 -7q-72 0 -127.5 33.5t-87 92.5t-31.5 135q0 73 31 130t85.5 90t123.5 33q70 0 124 -30.5t84 -85t29 -125.5q0 -12 -1 -24.5t-3 -27.5h-370q3 -40 22.5 -70.5t50 -47.5t69.5 -17q50 0 87 19.5t52 52.5l82 -29
q-30 -61 -87.5 -95t-132.5 -34zM417 295q0 36 -18 65t-48.5 45.5t-68.5 16.5q-34 0 -62.5 -16.5t-48 -45t-24.5 -65.5h270z" />
    <glyph glyph-name="edieresis" unicode="&#xeb;" horiz-adv-x="563" 
d="M211 573q-21 0 -35 14.5t-14 34.5q0 21 14 35.5t35 14.5t35.5 -14.5t14.5 -35.5q0 -20 -14.5 -34.5t-35.5 -14.5zM360 573q-21 0 -35 14.5t-14 34.5q0 21 14 35.5t35 14.5q20 0 35 -14.5t15 -35.5q0 -20 -15 -34.5t-35 -14.5zM289 -7q-72 0 -127.5 33.5t-87 92.5
t-31.5 135q0 73 31 130t85.5 90t123.5 33q70 0 124 -30.5t84 -85t29 -125.5q0 -12 -1 -24.5t-3 -27.5h-370q3 -40 22.5 -70.5t50 -47.5t69.5 -17q50 0 87 19.5t52 52.5l82 -29q-30 -61 -87.5 -95t-132.5 -34zM417 295q0 36 -18 65t-48.5 45.5t-68.5 16.5q-34 0 -62.5 -16.5
t-48 -45t-24.5 -65.5h270z" />
    <glyph glyph-name="igrave" unicode="&#xec;" horiz-adv-x="242" 
d="M17 718l193 -110v-65l-193 100v75zM72 500h99v-500h-99v500z" />
    <glyph glyph-name="iacute" unicode="&#xed;" horiz-adv-x="242" 
d="M210 718v-76l-193 -99v65zM72 500h99v-500h-99v500z" />
    <glyph glyph-name="icircumflex" unicode="&#xee;" horiz-adv-x="242" 
d="M247 547l-125 76l-126 -76v70l126 74l125 -74v-70zM72 500h99v-500h-99v500z" />
    <glyph glyph-name="idieresis" unicode="&#xef;" horiz-adv-x="242" 
d="M47 570q-22 0 -35.5 14t-13.5 35q0 20 14 35t35 15q20 0 34.5 -15t14.5 -35q0 -21 -14.5 -35t-34.5 -14zM196 570q-22 0 -36 14t-14 35q0 20 14 35t36 15q19 0 34 -15t15 -35q0 -21 -15 -35t-34 -14zM72 500h99v-500h-99v500z" />
    <glyph glyph-name="eth" unicode="&#xf0;" horiz-adv-x="595" 
d="M512 676v-58l-64 -21q52 -70 78 -150t26 -160q0 -97 -33.5 -163t-92 -99t-131.5 -33t-130 32t-89.5 91t-32.5 137t32.5 135.5t88.5 89.5t125 32q29 0 55.5 -6.5t47.5 -19.5t39 -33q-12 28 -27.5 58.5t-37.5 61.5l-125 -42v58l90 30q-18 22 -38.5 43t-44.5 41h105
q31 -26 59 -57zM295 76q40 0 75.5 20t58 59t22.5 96q0 58 -22 96.5t-57.5 58t-75.5 19.5q-41 0 -75 -19.5t-55 -58t-21 -95.5q0 -58 20.5 -97t54.5 -59t75 -20z" />
    <glyph glyph-name="ntilde" unicode="&#xf1;" 
d="M155 554q7 48 32 72t62 24q24 0 40 -10t30 -20t33 -10q15 0 25.5 9t13.5 28h50q-6 -49 -31.5 -72.5t-61.5 -23.5q-24 0 -40.5 10t-31 20.5t-31.5 10.5q-15 0 -25.5 -9.5t-13.5 -28.5h-51zM72 500h86l6 -58q24 31 61 48t82 17q58 0 100.5 -24.5t66 -72.5t23.5 -120v-290
h-94v278q0 70 -29.5 106.5t-85.5 36.5q-58 0 -90 -37.5t-32 -110.5v-273h-94v500z" />
    <glyph glyph-name="ograve" unicode="&#xf2;" horiz-adv-x="589" 
d="M193 721l193 -110v-65l-193 101v74zM291 -7q-71 0 -127.5 31.5t-88.5 89t-32 135.5q0 79 33 137t90 89.5t128 31.5t128.5 -31.5t90.5 -89t33 -135.5q0 -79 -33.5 -137t-91.5 -89.5t-130 -31.5zM290 79q40 0 75 18.5t57.5 56.5t22.5 97q0 58 -21.5 95.5t-56.5 56t-75 18.5
q-39 0 -72.5 -18.5t-54.5 -56.5t-21 -97q0 -58 20.5 -95.5t53.5 -56t72 -18.5z" />
    <glyph glyph-name="oacute" unicode="&#xf3;" horiz-adv-x="589" 
d="M386 721v-76l-193 -99v65zM291 -7q-71 0 -127.5 31.5t-88.5 89t-32 135.5q0 79 33 137t90 89.5t128 31.5t128.5 -31.5t90.5 -89t33 -135.5q0 -79 -33.5 -137t-91.5 -89.5t-130 -31.5zM290 79q40 0 75 18.5t57.5 56.5t22.5 97q0 58 -21.5 95.5t-56.5 56t-75 18.5
q-39 0 -72.5 -18.5t-54.5 -56.5t-21 -97q0 -58 20.5 -95.5t53.5 -56t72 -18.5z" />
    <glyph glyph-name="ocircumflex" unicode="&#xf4;" horiz-adv-x="589" 
d="M423 550l-125 76l-126 -76v70l126 74l125 -74v-70zM291 -7q-71 0 -127.5 31.5t-88.5 89t-32 135.5q0 79 33 137t90 89.5t128 31.5t128.5 -31.5t90.5 -89t33 -135.5q0 -79 -33.5 -137t-91.5 -89.5t-130 -31.5zM290 79q40 0 75 18.5t57.5 56.5t22.5 97q0 58 -21.5 95.5
t-56.5 56t-75 18.5q-39 0 -72.5 -18.5t-54.5 -56.5t-21 -97q0 -58 20.5 -95.5t53.5 -56t72 -18.5z" />
    <glyph glyph-name="otilde" unicode="&#xf5;" horiz-adv-x="589" 
d="M158 554q7 48 32 72t62 24q24 0 40 -10t30 -20t32 -10q15 0 26 9t14 28h50q-6 -49 -31.5 -72.5t-62.5 -23.5q-24 0 -40.5 10t-30.5 20.5t-32 10.5q-15 0 -25.5 -9.5t-13.5 -28.5h-50zM291 -7q-71 0 -127.5 31.5t-88.5 89t-32 135.5q0 79 33 137t90 89.5t128 31.5
t128.5 -31.5t90.5 -89t33 -135.5q0 -79 -33.5 -137t-91.5 -89.5t-130 -31.5zM290 79q40 0 75 18.5t57.5 56.5t22.5 97q0 58 -21.5 95.5t-56.5 56t-75 18.5q-39 0 -72.5 -18.5t-54.5 -56.5t-21 -97q0 -58 20.5 -95.5t53.5 -56t72 -18.5z" />
    <glyph glyph-name="odieresis" unicode="&#xf6;" horiz-adv-x="589" 
d="M223 573q-21 0 -35 14.5t-14 34.5q0 21 14 35.5t35 14.5q20 0 35 -14.5t15 -35.5q0 -20 -15 -34.5t-35 -14.5zM372 573q-21 0 -35 14.5t-14 34.5q0 21 14 35.5t35 14.5q20 0 34.5 -14.5t14.5 -35.5q0 -20 -14.5 -34.5t-34.5 -14.5zM291 -7q-71 0 -127.5 31.5t-88.5 89
t-32 135.5q0 79 33 137t90 89.5t128 31.5t128.5 -31.5t90.5 -89t33 -135.5q0 -79 -33.5 -137t-91.5 -89.5t-130 -31.5zM290 79q40 0 75 18.5t57.5 56.5t22.5 97q0 58 -21.5 95.5t-56.5 56t-75 18.5q-39 0 -72.5 -18.5t-54.5 -56.5t-21 -97q0 -58 20.5 -95.5t53.5 -56
t72 -18.5z" />
    <glyph glyph-name="divide" unicode="&#xf7;" horiz-adv-x="629" 
d="M59 392h510v-84h-510v84zM320 70q-27 0 -46 19t-19 46q0 28 19 47t46 19t46 -19t19 -47q0 -27 -19 -46t-46 -19zM320 500q-27 0 -46 19t-19 46t19 46t46 19t46 -19t19 -46t-19 -46t-46 -19z" />
    <glyph glyph-name="oslash" unicode="&#xf8;" horiz-adv-x="589" 
d="M424 447l70 -49l-309 -339l-69 50zM291 -7q-71 0 -127.5 31.5t-88.5 89t-32 135.5q0 79 33 137t90 89.5t128 31.5t128.5 -31.5t90.5 -89t33 -135.5q0 -79 -33.5 -137t-91.5 -89.5t-130 -31.5zM290 79q40 0 75 18.5t57.5 56.5t22.5 97q0 58 -21.5 95.5t-56.5 56t-75 18.5
q-39 0 -72.5 -18.5t-54.5 -56.5t-21 -97q0 -58 20.5 -95.5t53.5 -56t72 -18.5z" />
    <glyph glyph-name="ugrave" unicode="&#xf9;" 
d="M167 721l192 -110v-65l-192 101v74zM490 0h-86l-7 59q-24 -32 -60.5 -49t-81.5 -17q-58 0 -101 24.5t-66.5 72t-23.5 118.5v292h95v-280q0 -69 28.5 -105t86.5 -36q57 0 89.5 37t32.5 110v274h94v-500z" />
    <glyph glyph-name="uacute" unicode="&#xfa;" 
d="M359 721v-76l-192 -99v65zM490 0h-86l-7 59q-24 -32 -60.5 -49t-81.5 -17q-58 0 -101 24.5t-66.5 72t-23.5 118.5v292h95v-280q0 -69 28.5 -105t86.5 -36q57 0 89.5 37t32.5 110v274h94v-500z" />
    <glyph glyph-name="ucircumflex" unicode="&#xfb;" 
d="M396 550l-125 76l-126 -76v70l126 74l125 -74v-70zM490 0h-86l-7 59q-24 -32 -60.5 -49t-81.5 -17q-58 0 -101 24.5t-66.5 72t-23.5 118.5v292h95v-280q0 -69 28.5 -105t86.5 -36q57 0 89.5 37t32.5 110v274h94v-500z" />
    <glyph glyph-name="udieresis" unicode="&#xfc;" 
d="M196 573q-20 0 -34.5 14t-14.5 35t14.5 35.5t34.5 14.5q21 0 35.5 -14.5t14.5 -35.5t-14.5 -35t-35.5 -14zM345 573q-21 0 -35 14t-14 35t14 35.5t35 14.5q20 0 35 -14.5t15 -35.5t-15 -35t-35 -14zM490 0h-86l-7 59q-24 -32 -60.5 -49t-81.5 -17q-58 0 -101 24.5
t-66.5 72t-23.5 118.5v292h95v-280q0 -69 28.5 -105t86.5 -36q57 0 89.5 37t32.5 110v274h94v-500z" />
    <glyph glyph-name="yacute" unicode="&#xfd;" horiz-adv-x="529" 
d="M353 721v-76l-193 -99v65zM413 500h98l-290 -700h-93l88 210l-198 490h104l145 -379z" />
    <glyph glyph-name="thorn" unicode="&#xfe;" horiz-adv-x="620" 
d="M166 -205h-94v921h94v-300q24 40 68 66.5t106 26.5q67 0 120.5 -32t85.5 -89.5t32 -134.5q0 -78 -32 -136.5t-85.5 -91.5t-120.5 -33q-40 0 -73.5 12.5t-58.5 34.5t-42 50v-294zM477 253q0 54 -22 92t-57.5 57.5t-76.5 19.5t-76.5 -20t-57 -58.5t-21.5 -92.5t21.5 -93
t57 -59.5t76.5 -20.5t76.5 21t57.5 60t22 94z" />
    <glyph glyph-name="ydieresis" unicode="&#xff;" horiz-adv-x="529" 
d="M190 573q-21 0 -35.5 14.5t-14.5 34.5q0 21 14.5 35.5t35.5 14.5q20 0 34.5 -14.5t14.5 -35.5q0 -20 -14.5 -34.5t-34.5 -14.5zM338 573q-20 0 -34.5 14.5t-14.5 34.5q0 21 14.5 35.5t34.5 14.5t35 -14.5t15 -35.5q0 -20 -15 -34.5t-35 -14.5zM413 500h98l-290 -700h-93
l88 210l-198 490h104l145 -379z" />
    <glyph glyph-name="Amacron" unicode="&#x100;" horiz-adv-x="692" 
d="M168 865h358v-75h-358v75zM365 616h-35l-220 -616h-102l252 700h173l252 -700h-102zM137 262h408v-84h-408v84z" />
    <glyph glyph-name="amacron" unicode="&#x101;" horiz-adv-x="527" 
d="M109 647h320v-67h-320v67zM377 0l-8 73q-23 -38 -59.5 -58.5t-94.5 -20.5q-54 0 -92 17.5t-58.5 49t-20.5 73.5q0 63 47 104.5t136 51.5l142 16v39q0 32 -26 54.5t-75 22.5q-46 0 -78 -21.5t-43 -63.5l-84 30q19 66 74.5 103t134.5 37q94 0 143 -47t49 -124v-336h-87z
M369 229l-137 -17q-44 -6 -66 -24.5t-22 -48.5q0 -28 21.5 -46.5t60.5 -18.5q48 0 80 18t47.5 50.5t15.5 75.5v11z" />
    <glyph glyph-name="Abreve" unicode="&#x102;" horiz-adv-x="692" 
d="M493 895q0 -39 -17.5 -69t-50 -47.5t-78.5 -17.5q-47 0 -79.5 17.5t-49 48t-16.5 69.5v19h58q0 -35 19 -55.5t68 -20.5q48 0 67.5 20.5t19.5 55.5h59v-20zM365 616h-35l-220 -616h-102l252 700h173l252 -700h-102zM137 262h408v-84h-408v84z" />
    <glyph glyph-name="abreve" unicode="&#x103;" horiz-adv-x="527" 
d="M399 674q0 -34 -15.5 -61.5t-44.5 -42.5t-71 -15q-41 0 -70 15.5t-44.5 43t-15.5 60.5v17h52q0 -31 17.5 -49t60.5 -18q44 0 61 18t17 49h53v-17zM377 0l-8 73q-23 -38 -59.5 -58.5t-94.5 -20.5q-54 0 -92 17.5t-58.5 49t-20.5 73.5q0 63 47 104.5t136 51.5l142 16v39
q0 32 -26 54.5t-75 22.5q-46 0 -78 -21.5t-43 -63.5l-84 30q19 66 74.5 103t134.5 37q94 0 143 -47t49 -124v-336h-87zM369 229l-137 -17q-44 -6 -66 -24.5t-22 -48.5q0 -28 21.5 -46.5t60.5 -18.5q48 0 80 18t47.5 50.5t15.5 75.5v11z" />
    <glyph glyph-name="Aogonek" unicode="&#x104;" horiz-adv-x="692" 
d="M621 51l27 -51l-53 -26q-33 -16 -46 -33.5t-13 -35.5q0 -23 16 -36t42 -13q14 0 31 3.5t34 10.5v-64q-17 -7 -37 -11t-41 -4q-30 0 -59.5 10t-48 33t-18.5 60q0 25 11.5 48t38 45.5t70.5 43.5zM365 616h-35l-220 -616h-102l252 700h173l252 -700h-102zM137 262h408v-84
h-408v84z" />
    <glyph glyph-name="aogonek" unicode="&#x105;" horiz-adv-x="527" 
d="M435 46l23 -46l-47 -23q-30 -16 -41.5 -30.5t-11.5 -31.5q0 -20 14.5 -31t36.5 -11q27 0 59 12v-58q-15 -6 -33 -9.5t-37 -3.5q-27 0 -53 9t-42.5 29t-16.5 53q0 34 24 64.5t83 57.5zM377 0l-8 73q-23 -38 -59.5 -58.5t-94.5 -20.5q-54 0 -92 17.5t-58.5 49t-20.5 73.5
q0 63 47 104.5t136 51.5l142 16v39q0 32 -26 54.5t-75 22.5q-46 0 -78 -21.5t-43 -63.5l-84 30q19 66 74.5 103t134.5 37q94 0 143 -47t49 -124v-336h-87zM369 229l-137 -17q-44 -6 -66 -24.5t-22 -48.5q0 -28 21.5 -46.5t60.5 -18.5q48 0 80 18t47.5 50.5t15.5 75.5v11z
" />
    <glyph glyph-name="Cacute" unicode="&#x106;" horiz-adv-x="765" 
d="M492 949v-87l-215 -111v74zM40 350q0 79 27 144.5t75 113t111.5 73.5t137.5 26q105 0 187.5 -49t125.5 -141l-80 -29q-24 47 -61 76t-81 43t-89 14q-71 0 -128.5 -33t-90 -94t-32.5 -144q0 -82 32.5 -143t90 -94.5t128.5 -33.5q46 0 91 15t84 48.5t64 87.5l80 -28
q-45 -106 -129 -157.5t-192 -51.5q-74 0 -137.5 26t-111.5 74t-75 113.5t-27 143.5z" />
    <glyph glyph-name="cacute" unicode="&#x107;" horiz-adv-x="553" 
d="M368 721v-76l-193 -99v65zM286 -7q-72 0 -127 32.5t-85.5 89.5t-30.5 133q0 77 31 135t86 91t128 33q77 0 135.5 -36t84.5 -97l-85 -30q-15 35 -50.5 56t-80.5 21q-46 0 -79 -21.5t-51 -60t-18 -90.5q0 -78 40 -124t108 -46q45 0 80.5 20t53.5 55l84 -30
q-28 -60 -88 -95.5t-136 -35.5z" />
    <glyph glyph-name="Ccircumflex" unicode="&#x108;" horiz-adv-x="764" 
d="M40 350q0 79 27 144.5t75 113t111.5 73.5t137.5 26q105 0 187.5 -49t125.5 -141l-80 -29q-24 47 -61 76t-81 43t-89 14q-71 0 -128.5 -33t-90 -94t-32.5 -144q0 -82 32.5 -143t90 -94.5t128.5 -33.5q46 0 91 15t84 48.5t64 87.5l80 -28q-45 -106 -129 -157.5t-192 -51.5
q-74 0 -137.5 26t-111.5 74t-75 113.5t-27 143.5zM532 756l-140 85l-140 -85v78l140 83l140 -83v-78z" />
    <glyph glyph-name="ccircumflex" unicode="&#x109;" horiz-adv-x="553" 
d="M286 -7q-72 0 -127 32.5t-85.5 89.5t-30.5 133q0 77 31 135t86 91t128 33q77 0 135.5 -36t84.5 -97l-85 -30q-15 35 -50.5 56t-80.5 21q-46 0 -79 -21.5t-51 -60t-18 -90.5q0 -78 40 -124t108 -46q45 0 80.5 20t53.5 55l84 -30q-28 -60 -88 -95.5t-136 -35.5zM419 556
l-140 85l-140 -85v78l140 83l140 -83v-78z" />
    <glyph glyph-name="Cdotaccent" unicode="&#x10a;" horiz-adv-x="765" 
d="M393 779q-24 0 -39.5 15.5t-15.5 39.5q0 23 15.5 39t39.5 16q22 0 38.5 -16t16.5 -39q0 -24 -16.5 -39.5t-38.5 -15.5zM40 350q0 79 27 144.5t75 113t111.5 73.5t137.5 26q105 0 187.5 -49t125.5 -141l-80 -29q-24 47 -61 76t-81 43t-89 14q-71 0 -128.5 -33t-90 -94
t-32.5 -144q0 -82 32.5 -143t90 -94.5t128.5 -33.5q46 0 91 15t84 48.5t64 87.5l80 -28q-45 -106 -129 -157.5t-192 -51.5q-74 0 -137.5 26t-111.5 74t-75 113.5t-27 143.5z" />
    <glyph glyph-name="cdotaccent" unicode="&#x10b;" horiz-adv-x="553" 
d="M280 570q-22 0 -36 14.5t-14 34.5q0 21 14 35.5t36 14.5q20 0 34.5 -14.5t14.5 -35.5q0 -20 -14.5 -34.5t-34.5 -14.5zM286 -7q-73 0 -127.5 32.5t-85 89.5t-30.5 133q0 77 31 135t86 91t128 33q77 0 135.5 -36t84.5 -97l-85 -30q-15 35 -50.5 56t-81.5 21
q-45 0 -78 -21.5t-51 -60t-18 -90.5q0 -78 40 -124t108 -46q45 0 80.5 20t53.5 55l84 -30q-28 -60 -88 -95.5t-136 -35.5z" />
    <glyph glyph-name="Ccaron" unicode="&#x10c;" horiz-adv-x="765" 
d="M533 917v-79l-140 -83l-140 83v79l140 -86zM40 350q0 79 27 144.5t75 113t111.5 73.5t137.5 26q105 0 187.5 -49t125.5 -141l-80 -29q-24 47 -61 76t-81 43t-89 14q-71 0 -128.5 -33t-90 -94t-32.5 -144q0 -82 32.5 -143t90 -94.5t128.5 -33.5q46 0 91 15t84 48.5
t64 87.5l80 -28q-45 -106 -129 -157.5t-192 -51.5q-74 0 -137.5 26t-111.5 74t-75 113.5t-27 143.5z" />
    <glyph glyph-name="ccaron" unicode="&#x10d;" horiz-adv-x="553" 
d="M405 694v-71l-125 -74l-126 74v71l126 -77zM286 -7q-72 0 -127 32.5t-85.5 89.5t-30.5 133q0 77 31 135t86 91t128 33q77 0 135.5 -36t84.5 -97l-85 -30q-15 35 -50.5 56t-80.5 21q-46 0 -79 -21.5t-51 -60t-18 -90.5q0 -78 40 -124t108 -46q45 0 80.5 20t53.5 55l84 -30
q-28 -60 -88 -95.5t-136 -35.5z" />
    <glyph glyph-name="Dcaron" unicode="&#x10e;" horiz-adv-x="729" 
d="M482 917v-79l-140 -83l-140 83v79l140 -86zM319 700q114 0 196.5 -43t128 -122t45.5 -188q0 -108 -45.5 -185.5t-128 -119.5t-196.5 -42h-240v700h240zM319 84q132 0 200.5 69.5t68.5 193.5q0 126 -68.5 197.5t-200.5 71.5h-140v-532h140z" />
    <glyph glyph-name="dcaron" unicode="&#x10f;" horiz-adv-x="765" 
d="M681 672q6 -26 9 -48.5t3 -41.5q0 -55 -26.5 -82t-79.5 -27v49q23 0 33.5 11.5t10.5 33.5v15h-46v90h96zM449 415l-11 -3v308h95v-720h-86l-7 75q-25 -34 -67.5 -58t-103.5 -24q-68 0 -118.5 32t-79 90t-28.5 135t28.5 135t79 90t118.5 32q65 0 110.5 -26.5t69.5 -65.5z
M144 250q0 -77 40 -124t107 -47q41 0 74 20t53 58.5t20 92.5t-20 92t-53 58.5t-74 20.5q-66 0 -106.5 -47t-40.5 -124z" />
    <glyph glyph-name="Dcroat" unicode="&#x110;" horiz-adv-x="772" 
d="M59 394h83v306h221q114 0 196.5 -43t127.5 -122t45 -188q0 -107 -45 -185t-127.5 -120t-196.5 -42h-221v302h-83v92zM242 76h121q131 -1 199 73t68 198q0 126 -68 199t-199 73h-121v-225h187v-92h-187v-226z" />
    <glyph glyph-name="dcroat" unicode="&#x111;" horiz-adv-x="676" 
d="M359 598h245v-61h-245v61zM449 415l-11 -3v308h95v-720h-86l-7 75q-25 -34 -67.5 -58t-103.5 -24q-68 0 -118.5 32t-79 90t-28.5 135t28.5 135t79 90t118.5 32q65 0 110.5 -26.5t69.5 -65.5zM144 250q0 -77 40 -124t107 -47q41 0 74 20t53 58.5t20 92.5t-20 92t-53 58.5
t-74 20.5q-66 0 -106.5 -47t-40.5 -124z" />
    <glyph glyph-name="Emacron" unicode="&#x112;" horiz-adv-x="606" 
d="M134 865h358v-75h-358v75zM547 616h-368v-219h276v-84h-276v-229h368v-84h-468v700h468v-84z" />
    <glyph glyph-name="emacron" unicode="&#x113;" horiz-adv-x="563" 
d="M126 647h319v-67h-319v67zM289 -7q-72 0 -127.5 33.5t-87 92.5t-31.5 135q0 73 31 130t85.5 90t123.5 33q70 0 124 -30.5t84 -85t29 -125.5q0 -12 -1 -24.5t-3 -27.5h-370q3 -40 22.5 -70.5t50 -47.5t69.5 -17q50 0 87 19.5t52 52.5l82 -29q-30 -61 -87.5 -95t-132.5 -34
zM417 295q0 36 -18 65t-48.5 45.5t-68.5 16.5q-34 0 -62.5 -16.5t-48 -45t-24.5 -65.5h270z" />
    <glyph glyph-name="Ebreve" unicode="&#x114;" horiz-adv-x="606" 
d="M459 895q0 -39 -17 -69t-49.5 -47.5t-79.5 -17.5q-46 0 -78.5 17.5t-49.5 48t-17 69.5v19h58q0 -36 19 -56t68 -20q48 0 67.5 20t19.5 56h59v-20zM547 616h-368v-219h276v-84h-276v-229h368v-84h-468v700h468v-84z" />
    <glyph glyph-name="ebreve" unicode="&#x115;" horiz-adv-x="563" 
d="M416 674q0 -34 -15 -61.5t-44 -42.5t-71 -15t-71 15.5t-44 43t-15 60.5v17h52q0 -31 17 -49t61 -18q43 0 60.5 18t17.5 49h52v-17zM289 -7q-72 0 -127.5 33.5t-87 92.5t-31.5 135q0 73 31 130t85.5 90t123.5 33q70 0 124 -30.5t84 -85t29 -125.5q0 -12 -1 -24.5t-3 -27.5
h-370q3 -40 22.5 -70.5t50 -47.5t69.5 -17q50 0 87 19.5t52 52.5l82 -29q-30 -61 -87.5 -95t-132.5 -34zM417 295q0 36 -18 65t-48.5 45.5t-68.5 16.5q-34 0 -62.5 -16.5t-48 -45t-24.5 -65.5h270z" />
    <glyph glyph-name="Edotaccent" unicode="&#x116;" horiz-adv-x="606" 
d="M313 779q-23 0 -39.5 15.5t-16.5 39.5q0 23 16.5 39t39.5 16t39 -16t16 -39q0 -24 -16 -39.5t-39 -15.5zM547 616h-368v-219h276v-84h-276v-229h368v-84h-468v700h468v-84z" />
    <glyph glyph-name="edotaccent" unicode="&#x117;" horiz-adv-x="563" 
d="M286 570q-21 0 -35.5 14t-14.5 35t14.5 35.5t35.5 14.5q20 0 34.5 -14.5t14.5 -35.5t-14.5 -35t-34.5 -14zM289 -7q-72 0 -127.5 33.5t-87 92.5t-31.5 135q0 73 31 130t85.5 90t123.5 33q70 0 124 -30.5t84 -85t29 -125.5q0 -12 -1 -24.5t-3 -27.5h-370q3 -40 22.5 -70.5
t50 -47.5t69.5 -17q50 0 87 19.5t52 52.5l82 -29q-30 -61 -87.5 -95t-132.5 -34zM417 295q0 36 -18 65t-48.5 45.5t-68.5 16.5q-34 0 -62.5 -16.5t-48 -45t-24.5 -65.5h270z" />
    <glyph glyph-name="Eogonek" unicode="&#x118;" horiz-adv-x="606" 
d="M471 51l26 -51l-52 -26q-34 -17 -47 -34t-13 -35q0 -23 16 -35.5t42 -12.5q14 0 31.5 3.5t33.5 10.5v-65q-16 -7 -36.5 -10.5t-41.5 -3.5q-30 0 -59.5 9.5t-48 32t-18.5 60.5q0 25 11.5 48.5t38 45.5t70.5 43zM547 616h-368v-219h276v-84h-276v-229h368v-84h-468v700h468
v-84z" />
    <glyph glyph-name="eogonek" unicode="&#x119;" horiz-adv-x="563" 
d="M342 50l23 -46l-47 -24q-30 -15 -41.5 -30t-11.5 -31q0 -20 13.5 -31.5t37.5 -11.5q27 0 59 13v-58q-16 -6 -34 -9.5t-36 -3.5q-27 0 -53.5 9t-43 29t-16.5 53t24 63.5t84 58.5zM289 -7q-72 0 -127.5 33.5t-87 92.5t-31.5 135q0 73 31 130t85.5 90t123.5 33
q70 0 124 -30.5t84 -85t29 -125.5q0 -12 -1 -24.5t-3 -27.5h-370q3 -40 22.5 -70.5t50 -47.5t69.5 -17q50 0 87 19.5t52 52.5l82 -29q-30 -61 -87.5 -95t-132.5 -34zM417 295q0 36 -18 65t-48.5 45.5t-68.5 16.5q-34 0 -62.5 -16.5t-48 -45t-24.5 -65.5h270z" />
    <glyph glyph-name="Ecaron" unicode="&#x11a;" horiz-adv-x="606" 
d="M453 917v-79l-140 -83l-140 83v79l140 -86zM547 616h-368v-219h276v-84h-276v-229h368v-84h-468v700h468v-84z" />
    <glyph glyph-name="ecaron" unicode="&#x11b;" horiz-adv-x="563" 
d="M411 694v-71l-125 -74l-126 74v71l126 -77zM289 -7q-72 0 -127.5 33.5t-87 92.5t-31.5 135q0 73 31 130t85.5 90t123.5 33q70 0 124 -30.5t84 -85t29 -125.5q0 -12 -1 -24.5t-3 -27.5h-370q3 -40 22.5 -70.5t50 -47.5t69.5 -17q50 0 87 19.5t52 52.5l82 -29
q-30 -61 -87.5 -95t-132.5 -34zM417 295q0 36 -18 65t-48.5 45.5t-68.5 16.5q-34 0 -62.5 -16.5t-48 -45t-24.5 -65.5h270z" />
    <glyph glyph-name="Gcircumflex" unicode="&#x11c;" horiz-adv-x="768" 
d="M618 486q-38 71 -96.5 103t-127.5 32q-70 0 -128 -34t-91.5 -94.5t-33.5 -142.5q0 -81 33 -142t90.5 -95t128.5 -34q51 0 96 18t78.5 50t52.5 76v76h-220v82h321v-163q-24 -64 -71.5 -115t-113 -80.5t-143.5 -29.5q-74 0 -138.5 26t-112.5 73.5t-75 113t-27 144.5
q0 78 27 143.5t75 113.5t112.5 74t138.5 26q67 0 128 -22t109 -64t75 -103zM529 756l-140 85l-140 -85v78l140 83l140 -83v-78z" />
    <glyph glyph-name="gcircumflex" unicode="&#x11d;" horiz-adv-x="604" 
d="M447 500h86v-418q0 -88 -42 -151t-120.5 -97t-189.5 -34l-15 83q134 3 203 53.5t69 145.5v5l11 -1q-24 -38 -68.5 -65.5t-110.5 -27.5q-67 0 -118.5 32t-80 90t-28.5 135t28.5 135t80 90t118.5 32q41 0 73.5 -11t56.5 -29.5t40 -41.5zM144 250q0 -77 40.5 -124t108.5 -47
q40 0 73 20.5t52.5 59t19.5 91.5q0 54 -19.5 92t-53 58.5t-72.5 20.5q-68 0 -108.5 -47t-40.5 -124zM438 556l-140 85l-140 -85v78l140 83l140 -83v-78z" />
    <glyph glyph-name="Gbreve" unicode="&#x11e;" horiz-adv-x="768" 
d="M535 895q0 -39 -17 -69t-49.5 -47.5t-78.5 -17.5q-47 0 -79.5 17.5t-49 48t-16.5 69.5v19h57q0 -35 19.5 -55.5t68.5 -20.5q48 0 67.5 20.5t19.5 55.5h58v-20zM618 486q-38 71 -96.5 103t-127.5 32q-70 0 -128 -34t-91.5 -94.5t-33.5 -142.5q0 -81 33 -142t90.5 -95
t128.5 -34q51 0 96 18t78.5 50t52.5 76v76h-220v82h321v-163q-24 -64 -71.5 -115t-113 -80.5t-143.5 -29.5q-74 0 -138.5 26t-112.5 73.5t-75 113t-27 144.5q0 78 27 143.5t75 113.5t112.5 74t138.5 26q67 0 128 -22t109 -64t75 -103z" />
    <glyph glyph-name="gbreve" unicode="&#x11f;" horiz-adv-x="604" 
d="M429 674q0 -34 -15.5 -61.5t-44.5 -42.5t-70 -15q-42 0 -71 15.5t-44.5 43t-15.5 60.5v17h52q0 -31 17.5 -49t61.5 -18q43 0 60 18t17 49h53v-17zM447 500h86v-418q0 -88 -42 -151t-120.5 -97t-189.5 -34l-15 83q134 3 203 53.5t69 145.5v5l11 -1q-24 -38 -68.5 -65.5
t-110.5 -27.5q-67 0 -118.5 32t-80 90t-28.5 135t28.5 135t80 90t118.5 32q41 0 73.5 -11t56.5 -29.5t40 -41.5zM144 250q0 -77 40.5 -124t108.5 -47q40 0 73 20.5t52.5 59t19.5 91.5q0 54 -19.5 92t-53 58.5t-72.5 20.5q-68 0 -108.5 -47t-40.5 -124z" />
    <glyph glyph-name="Gdotaccent" unicode="&#x120;" horiz-adv-x="768" 
d="M390 779q-24 0 -40 15.5t-16 39.5q0 23 16 39t40 16q22 0 38.5 -16t16.5 -39q0 -24 -16.5 -39.5t-38.5 -15.5zM618 486q-38 71 -96.5 103t-127.5 32q-70 0 -128 -34t-91.5 -94.5t-33.5 -142.5q0 -81 33 -142t90.5 -95t128.5 -34q51 0 96 18t78.5 50t52.5 76v76h-220v82
h321v-163q-24 -64 -71.5 -115t-113 -80.5t-143.5 -29.5q-74 0 -138.5 26t-112.5 73.5t-75 113t-27 144.5q0 78 27 143.5t75 113.5t112.5 74t138.5 26q67 0 128 -22t109 -64t75 -103z" />
    <glyph glyph-name="gdotaccent" unicode="&#x121;" horiz-adv-x="604" 
d="M299 570q-22 0 -36 14t-14 35t14 35.5t36 14.5q20 0 34.5 -14.5t14.5 -35.5t-14.5 -35t-34.5 -14zM447 500h86v-418q0 -88 -42 -151t-120.5 -97t-189.5 -34l-15 83q134 3 203 53.5t69 145.5v5l11 -1q-24 -38 -68.5 -65.5t-110.5 -27.5q-67 0 -118.5 32t-80 90t-28.5 135
t28.5 135t80 90t118.5 32q41 0 73.5 -11t56.5 -29.5t40 -41.5zM144 250q0 -77 40.5 -124t108.5 -47q40 0 73 20.5t52.5 59t19.5 91.5q0 54 -19.5 92t-53 58.5t-72.5 20.5q-68 0 -108.5 -47t-40.5 -124z" />
    <glyph glyph-name="uni0122" unicode="&#x122;" horiz-adv-x="768" 
d="M434 -49q6 -24 9 -46.5t3 -41.5q0 -62 -27 -91t-78 -29v45q25 0 36.5 14t11.5 42v20h-50v87h95zM618 486q-38 71 -96.5 103t-127.5 32q-70 0 -128 -34t-91.5 -94.5t-33.5 -142.5q0 -81 33 -142t90.5 -95t128.5 -34q51 0 96 18t78.5 50t52.5 76v76h-220v82h321v-163
q-24 -64 -71.5 -115t-113 -80.5t-143.5 -29.5q-74 0 -138.5 26t-112.5 73.5t-75 113t-27 144.5q0 78 27 143.5t75 113.5t112.5 74t138.5 26q67 0 128 -22t109 -64t75 -103z" />
    <glyph glyph-name="uni0123" unicode="&#x123;" horiz-adv-x="604" 
d="M255 540q-6 26 -8 48.5t-2 40.5q0 56 26.5 82.5t77.5 26.5v-49q-22 0 -32.5 -11t-10.5 -34v-14h44v-90h-95zM447 500h86v-418q0 -88 -42 -151t-120.5 -97t-189.5 -34l-15 83q134 3 203 53.5t69 145.5v5l11 -1q-24 -38 -68.5 -65.5t-110.5 -27.5q-67 0 -118.5 32t-80 90
t-28.5 135t28.5 135t80 90t118.5 32q41 0 73.5 -11t56.5 -29.5t40 -41.5zM144 250q0 -77 40.5 -124t108.5 -47q40 0 73 20.5t52.5 59t19.5 91.5q0 54 -19.5 92t-53 58.5t-72.5 20.5q-68 0 -108.5 -47t-40.5 -124z" />
    <glyph glyph-name="Hcircumflex" unicode="&#x124;" horiz-adv-x="710" 
d="M79 700h100v-303h352v303h99v-700h-99v313h-352v-313h-100v700zM495 756l-140 85l-140 -85v78l140 83l140 -83v-78z" />
    <glyph glyph-name="hcircumflex" unicode="&#x125;" horiz-adv-x="565" 
d="M72 720h94v-275q24 29 62 45.5t84 16.5q56 0 98.5 -24.5t66.5 -73t24 -120.5v-289h-99v277q0 70 -29 107t-85 37q-58 0 -90 -38t-32 -111v-272h-94v720zM258 775l-140 85l-140 -85v78l140 83l140 -83v-78z" />
    <glyph glyph-name="Itilde" unicode="&#x128;" horiz-adv-x="258" 
d="M-27 760q7 54 35.5 81t68.5 27q27 0 45 -11t34 -22.5t36 -11.5q17 0 29 10t15 32h56q-7 -54 -35.5 -81t-69.5 -27q-27 0 -45 11.5t-33.5 23t-35.5 11.5q-17 0 -28.5 -10.5t-14.5 -32.5h-57zM79 700h100v-700h-100v700z" />
    <glyph glyph-name="itilde" unicode="&#x129;" horiz-adv-x="242" 
d="M-18 550q7 49 31.5 73t61.5 24q24 0 40.5 -10t30.5 -20t32 -10q15 0 25.5 9t13.5 28h50q-6 -49 -31.5 -72.5t-61.5 -23.5q-24 0 -40.5 10t-30.5 20t-32 10q-15 0 -25.5 -9t-13.5 -29h-50zM72 500h99v-500h-99v500z" />
    <glyph glyph-name="Imacron" unicode="&#x12a;" horiz-adv-x="258" 
d="M-50 865h357v-75h-357v75zM79 700h100v-700h-100v700z" />
    <glyph glyph-name="imacron" unicode="&#x12b;" horiz-adv-x="242" 
d="M-38 643h319v-66h-319v66zM72 500h99v-500h-99v500z" />
    <glyph glyph-name="Ibreve" unicode="&#x12c;" horiz-adv-x="258" 
d="M275 895q0 -39 -17 -69t-49.5 -47.5t-79.5 -17.5t-79 17.5t-49 48t-17 69.5v19h58q0 -35 19 -55.5t68 -20.5q48 0 67.5 20.5t19.5 55.5h59v-20zM79 700h100v-700h-100v700z" />
    <glyph glyph-name="ibreve" unicode="&#x12d;" horiz-adv-x="242" 
d="M252 671q0 -35 -15 -62t-44.5 -42.5t-70.5 -15.5q-42 0 -71 15.5t-44.5 43t-15.5 61.5v17h52q0 -32 17.5 -49.5t61.5 -17.5q43 0 60 17.5t17 49.5h53v-17zM72 500h99v-500h-99v500z" />
    <glyph glyph-name="Iogonek" unicode="&#x12e;" horiz-adv-x="258" 
d="M152 52l26 -51l-52 -26q-33 -17 -46 -34t-13 -35q0 -23 15.5 -35.5t41.5 -12.5q14 0 31.5 3.5t34.5 10.5v-65q-17 -7 -37.5 -10.5t-40.5 -3.5q-31 0 -60 9.5t-48 32t-19 60.5q0 25 12 48.5t38.5 45.5t70.5 43zM79 700h100v-700h-100v700z" />
    <glyph glyph-name="iogonek" unicode="&#x12f;" horiz-adv-x="268" 
d="M154 51l23 -46l-47 -23q-30 -16 -41.5 -30.5t-11.5 -31.5q0 -20 14 -31t37 -11q27 0 59 12v-58q-15 -6 -33 -9.5t-36 -3.5q-28 0 -54 9t-43 29t-17 54q0 33 24.5 63.5t83.5 58.5zM87 500h95v-500h-95v500zM135 588q-27 0 -45 18t-18 44q0 27 18 45.5t45 18.5
q26 0 44.5 -18.5t18.5 -45.5q0 -26 -18.5 -44t-44.5 -18z" />
    <glyph glyph-name="Idotaccent" unicode="&#x130;" horiz-adv-x="258" 
d="M129 779q-24 0 -40 15.5t-16 39.5q0 23 16 39t40 16q22 0 38.5 -16t16.5 -39q0 -24 -16.5 -39.5t-38.5 -15.5zM79 700h100v-700h-100v700z" />
    <glyph glyph-name="dotlessi" unicode="&#x131;" horiz-adv-x="242" 
d="M72 500h99v-500h-99v500z" />
    <glyph glyph-name="Jcircumflex" unicode="&#x134;" horiz-adv-x="516" 
d="M341 700h100v-507q0 -60 -26 -105t-71 -70t-104 -25q-73 0 -121 35.5t-66 99.5l85 29q7 -23 20 -41t33.5 -28.5t48.5 -10.5q34 0 56 16t33.5 41.5t11.5 54.5v511zM534 756l-140 85l-140 -85v78l140 83l140 -83v-78z" />
    <glyph glyph-name="jcircumflex" unicode="&#x135;" horiz-adv-x="344" 
d="M84 25q0 -62 -31 -99.5t-89 -42.5l15 -83q39 1 75.5 15.5t65.5 41.5t46.5 69t17.5 98v476h-100v-475zM277 579l-141 85l-140 -85v78l140 83l141 -83v-78z" />
    <glyph glyph-name="uni0136" unicode="&#x136;" horiz-adv-x="631" 
d="M350 -49q7 -24 9.5 -46.5t2.5 -41.5q0 -62 -26.5 -91t-78.5 -29v45q25 0 36 14t11 42v20h-49v87h95zM79 700h100v-303h36l274 303h126l-311 -345l315 -355h-131l-274 313h-35v-313h-100v700z" />
    <glyph glyph-name="uni0137" unicode="&#x137;" horiz-adv-x="538" 
d="M289 -34q5 -24 7.5 -45t2.5 -39q0 -56 -26.5 -83t-77.5 -27v48q17 0 27 7t14 19q1 4 1.5 7.5t0.5 7.5l1 18h-45v87h95zM72 720h95v-429h41l187 209h128l-232 -250l233 -250h-129l-187 210h-41v-210h-95v720z" />
    <glyph glyph-name="Lacute" unicode="&#x139;" horiz-adv-x="525" 
d="M320 949v-87l-215 -111v74zM179 700v-616h320v-84h-420v700h100z" />
    <glyph glyph-name="lacute" unicode="&#x13a;" horiz-adv-x="237" 
d="M210 941v-76l-193 -99v65zM72 720h94v-720h-94v720z" />
    <glyph glyph-name="uni013B" unicode="&#x13b;" horiz-adv-x="525" 
d="M290 -49q7 -24 9.5 -46.5t2.5 -41.5q0 -62 -27 -91t-78 -29v45q26 0 37 14t11 42v20h-50v87h95zM179 700v-616h320v-84h-420v700h100z" />
    <glyph glyph-name="uni013C" unicode="&#x13c;" horiz-adv-x="251" 
d="M169 -34q5 -24 8 -45t3 -39q0 -56 -27 -83t-78 -27v48q22 0 32.5 12.5t10.5 34.5v13h-44v86h95zM76 720h95v-720h-95v720z" />
    <glyph glyph-name="Lcaron" unicode="&#x13d;" horiz-adv-x="525" 
d="M383 700q7 -27 9.5 -50t2.5 -44q0 -60 -26.5 -89.5t-78.5 -29.5v46q26 0 37 14t11 42v22h-51v89h96zM179 700v-616h320v-84h-420v700h100z" />
    <glyph glyph-name="lcaron" unicode="&#x13e;" horiz-adv-x="404" 
d="M319 720q7 -27 10 -48.5t3 -40.5q0 -56 -26.5 -83t-78.5 -27v50q23 0 32.5 11t9.5 33v16h-45v89h95zM72 720h94v-720h-94v720z" />
    <glyph glyph-name="Ldot" unicode="&#x13f;" horiz-adv-x="445" 
d="M79 0v700h99v-619h241v-81h-340zM350 322q-23 0 -39 16t-16 39t16 39t39 16t39 -16t16 -39t-16 -39t-39 -16z" />
    <glyph glyph-name="ldot" unicode="&#x140;" horiz-adv-x="275" 
d="M72 0v715h99v-715h-99zM256 278q-23 0 -39 16t-16 39q0 21 16 37t39 16q22 0 38.5 -16t16.5 -37q0 -23 -16.5 -39t-38.5 -16z" />
    <glyph glyph-name="Lslash" unicode="&#x141;" horiz-adv-x="525" 
d="M79 352l80 28v320h100v-285l103 36v-77l-103 -36v-262h239v-76h-339v303l-80 -27v76z" />
    <glyph glyph-name="lslash" unicode="&#x142;" horiz-adv-x="238" 
d="M7 342l224 83v-78l-224 -84v79zM69 715h99v-715h-99v715z" />
    <glyph glyph-name="Nacute" unicode="&#x143;" horiz-adv-x="709" 
d="M464 949v-87l-215 -111v74zM630 700v-700h-102l-349 542v-542h-100v700h102l349 -540v540h100z" />
    <glyph glyph-name="nacute" unicode="&#x144;" 
d="M383 721v-76l-192 -99v65zM72 500h86l6 -58q24 31 61 48t82 17q58 0 100.5 -24.5t66 -72.5t23.5 -120v-290h-94v278q0 70 -29.5 106.5t-85.5 36.5q-58 0 -90 -37.5t-32 -110.5v-273h-94v500z" />
    <glyph glyph-name="uni0145" unicode="&#x145;" horiz-adv-x="709" 
d="M400 -49q6 -24 9 -46.5t3 -41.5q0 -62 -27 -91t-78 -29v45q25 0 36 14t11 42v20h-49v87h95zM630 700v-700h-102l-349 542v-542h-100v700h102l349 -540v540h100z" />
    <glyph glyph-name="uni0146" unicode="&#x146;" 
d="M339 -34q7 -24 10 -45t3 -39q0 -56 -27 -83t-78 -27v48q22 0 32 12.5t10 34.5v17h11v-5h-55v87h94zM72 500h86l6 -58q24 31 61 48t82 17q58 0 100.5 -24.5t66 -72.5t23.5 -120v-290h-94v278q0 70 -29.5 106.5t-85.5 36.5q-58 0 -90 -37.5t-32 -110.5v-273h-94v500z" />
    <glyph glyph-name="Ncaron" unicode="&#x147;" horiz-adv-x="709" 
d="M505 917v-79l-140 -83l-140 83v79l140 -86zM630 700v-700h-102l-349 542v-542h-100v700h102l349 -540v540h100z" />
    <glyph glyph-name="ncaron" unicode="&#x148;" 
d="M420 694v-71l-125 -74l-126 74v71l126 -77zM72 500h86l6 -58q24 31 61 48t82 17q58 0 100.5 -24.5t66 -72.5t23.5 -120v-290h-94v278q0 70 -29.5 106.5t-85.5 36.5q-58 0 -90 -37.5t-32 -110.5v-273h-94v500z" />
    <glyph glyph-name="Eng" unicode="&#x14a;" horiz-adv-x="709" 
d="M630 700v-700h-102l-349 542v-542h-100v700h102l349 -540v540h100zM528 107h102v-110q0 -46 -17 -82.5t-46.5 -61.5t-66 -38.5t-75.5 -14.5l-15 83q58 5 88 37.5t30 76.5v110z" />
    <glyph glyph-name="eng" unicode="&#x14b;" horiz-adv-x="571" 
d="M72 500h91l6 -58q24 31 61 48t82 17q58 0 101.5 -24.5t68.5 -72.5t25 -120v-290h-99v278q0 70 -29.5 106.5t-85.5 36.5q-58 0 -90 -37.5t-32 -110.5v-273h-99v500zM408 -1v77h99v-78q0 -65 -27 -108.5t-70.5 -65.5t-95.5 -24l-14 83q38 4 62 19t35 40.5t11 56.5z" />
    <glyph glyph-name="Omacron" unicode="&#x14c;" horiz-adv-x="783" 
d="M215 865h358v-75h-358v75zM393 -7q-74 0 -138.5 26t-112.5 73.5t-75 113t-27 144.5t27 144t75 113t112.5 74t138.5 26q73 0 137 -26t112 -74t75 -113t27 -144t-27 -144.5t-75 -113t-112 -73.5t-137 -26zM393 79q71 0 127.5 33t89.5 94t33 144q0 84 -33 144.5t-89.5 93.5
t-127.5 33q-72 0 -129 -33t-89.5 -93.5t-32.5 -144.5q0 -83 32.5 -144t89.5 -94t129 -33z" />
    <glyph glyph-name="omacron" unicode="&#x14d;" horiz-adv-x="589" 
d="M138 647h319v-67h-319v67zM291 -7q-71 0 -127.5 31.5t-88.5 89t-32 135.5q0 79 33 137t90 89.5t128 31.5t128.5 -31.5t90.5 -89t33 -135.5q0 -79 -33.5 -137t-91.5 -89.5t-130 -31.5zM290 79q40 0 75 18.5t57.5 56.5t22.5 97q0 58 -21.5 95.5t-56.5 56t-75 18.5
q-39 0 -72.5 -18.5t-54.5 -56.5t-21 -97q0 -58 20.5 -95.5t53.5 -56t72 -18.5z" />
    <glyph glyph-name="Obreve" unicode="&#x14e;" horiz-adv-x="783" 
d="M540 895q0 -39 -17.5 -69t-50 -47.5t-78.5 -17.5q-47 0 -79.5 17.5t-49 48t-16.5 69.5v19h58q0 -36 19 -56t68 -20q48 0 67.5 20t19.5 56h59v-20zM393 -7q-74 0 -138.5 26t-112.5 73.5t-75 113t-27 144.5t27 144t75 113t112.5 74t138.5 26q73 0 137 -26t112 -74t75 -113
t27 -144t-27 -144.5t-75 -113t-112 -73.5t-137 -26zM393 79q71 0 127.5 33t89.5 94t33 144q0 84 -33 144.5t-89.5 93.5t-127.5 33q-72 0 -129 -33t-89.5 -93.5t-32.5 -144.5q0 -83 32.5 -144t89.5 -94t129 -33z" />
    <glyph glyph-name="obreve" unicode="&#x14f;" horiz-adv-x="589" 
d="M428 674q0 -34 -15 -61.5t-44.5 -42.5t-70.5 -15q-42 0 -71 15.5t-44 43t-15 60.5v17h52q0 -31 17 -49t61 -18q43 0 60 18t17 49h53v-17zM291 -7q-71 0 -127.5 31.5t-88.5 89t-32 135.5q0 79 33 137t90 89.5t128 31.5t128.5 -31.5t90.5 -89t33 -135.5q0 -79 -33.5 -137
t-91.5 -89.5t-130 -31.5zM290 79q40 0 75 18.5t57.5 56.5t22.5 97q0 58 -21.5 95.5t-56.5 56t-75 18.5q-39 0 -72.5 -18.5t-54.5 -56.5t-21 -97q0 -58 20.5 -95.5t53.5 -56t72 -18.5z" />
    <glyph glyph-name="Ohungarumlaut" unicode="&#x150;" horiz-adv-x="783" 
d="M429 923l-89 -161h-65l67 161h87zM588 923l-95 -161h-66l73 161h88zM393 -7q-74 0 -138.5 26t-112.5 73.5t-75 113t-27 144.5q0 78 27 143.5t75 113.5t112.5 74t138.5 26q73 0 137 -26t112 -74t75 -113.5t27 -143.5q0 -79 -27 -144.5t-75 -113t-112 -73.5t-137 -26z
M393 79q71 0 127.5 33t89.5 94t33 144q0 84 -33 144.5t-89.5 93.5t-127.5 33q-72 0 -129 -33t-89.5 -93.5t-32.5 -144.5q0 -83 32.5 -144t89.5 -94t129 -33z" />
    <glyph glyph-name="ohungarumlaut" unicode="&#x151;" horiz-adv-x="589" 
d="M329 699l-80 -144h-58l61 144h77zM471 699l-85 -144h-58l65 144h78zM291 -7q-71 0 -127.5 31.5t-88.5 89t-32 135.5q0 79 33 137t90 89.5t128 31.5t128.5 -31.5t90.5 -89t33 -135.5q0 -79 -33.5 -137t-91.5 -89.5t-130 -31.5zM290 79q40 0 75 18.5t57.5 56.5t22.5 97
q0 58 -21.5 95.5t-56.5 56t-75 18.5q-39 0 -72.5 -18.5t-54.5 -56.5t-21 -97q0 -58 20.5 -95.5t53.5 -56t72 -18.5z" />
    <glyph glyph-name="OE" unicode="&#x152;" horiz-adv-x="1171" 
d="M393 -7q-74 0 -138.5 26t-112.5 73.5t-75 113t-27 144.5t27 144t75 113t112.5 74t138.5 26q73 0 137 -26t112 -74t75 -113t27 -144t-27 -144.5t-75 -113t-112 -73.5t-137 -26zM393 79q71 0 127.5 33t89.5 94t33 144q0 84 -33 144.5t-89.5 93.5t-127.5 33q-72 0 -129 -33
t-89.5 -93.5t-32.5 -144.5q0 -83 32.5 -144t89.5 -94t129 -33zM1112 616h-368v-219h276v-84h-276v-229h368v-84h-468v700h468v-84z" />
    <glyph glyph-name="oe" unicode="&#x153;" horiz-adv-x="966" 
d="M291 -7q-71 0 -127.5 31.5t-88.5 89t-32 135.5q0 79 33 137t90 89.5t128 31.5t128.5 -31.5t90.5 -89t33 -135.5q0 -79 -33.5 -137t-91.5 -89.5t-130 -31.5zM290 79q40 0 75 18.5t57.5 56.5t22.5 97q0 58 -21.5 95.5t-56.5 56t-75 18.5q-39 0 -72.5 -18.5t-54.5 -56.5
t-21 -97q0 -58 20.5 -95.5t53.5 -56t72 -18.5zM692 -7q-72 0 -127.5 33.5t-87 92.5t-31.5 135q0 73 31 130t85.5 90t123.5 33q70 0 124 -30.5t84 -85t29 -125.5q0 -12 -1 -24.5t-3 -27.5h-370q3 -40 22.5 -70.5t50 -47.5t69.5 -17q50 0 87 19.5t52 52.5l82 -29
q-30 -61 -87.5 -95t-132.5 -34zM820 295q0 36 -18 65t-48.5 45.5t-68.5 16.5q-34 0 -62.5 -16.5t-48 -45t-24.5 -65.5h270z" />
    <glyph glyph-name="Racute" unicode="&#x154;" horiz-adv-x="636" 
d="M411 949v-87l-215 -111v74zM481 491q0 57 -34 91t-108 34h-160v-249h161q49 0 80 15.5t46 43.5t15 65zM339 700q83 0 136.5 -28.5t80 -75.5t26.5 -105q0 -38 -13 -75t-42 -67.5t-75.5 -48t-111.5 -17.5h-161v-283h-100v700h260zM403 317l193 -317h-113l-186 317h106z" />
    <glyph glyph-name="racute" unicode="&#x155;" horiz-adv-x="363" 
d="M302 721v-76l-193 -99v65zM72 500h86l6 -67q21 26 48.5 43.5t60 24.5t67.5 -1v-89q-33 8 -64 2t-55.5 -25.5t-39.5 -51.5t-15 -77v-259h-94v500z" />
    <glyph glyph-name="uni0156" unicode="&#x156;" horiz-adv-x="636" 
d="M394 -49q7 -24 9.5 -46.5t2.5 -41.5q0 -62 -26.5 -91t-78.5 -29v45q25 0 36.5 14t11.5 42v20h-50v87h95zM481 491q0 57 -34 91t-108 34h-160v-249h161q49 0 80 15.5t46 43.5t15 65zM339 700q83 0 136.5 -28.5t80 -75.5t26.5 -105q0 -38 -13 -75t-42 -67.5t-75.5 -48
t-111.5 -17.5h-161v-283h-100v700h260zM403 317l193 -317h-113l-186 317h106z" />
    <glyph glyph-name="uni0157" unicode="&#x157;" horiz-adv-x="363" 
d="M174 -34q7 -24 10 -45t3 -39q0 -56 -26.5 -83t-78.5 -27v48q23 0 33 12.5t10 34.5v12h-44v87h93zM72 500h86l6 -67q21 26 48.5 43.5t60 24.5t67.5 -1v-89q-33 8 -64 2t-55.5 -25.5t-39.5 -51.5t-15 -77v-259h-94v500z" />
    <glyph glyph-name="Rcaron" unicode="&#x158;" horiz-adv-x="636" 
d="M452 917v-79l-140 -83l-140 83v79l140 -86zM481 491q0 57 -34 91t-108 34h-160v-249h161q49 0 80 15.5t46 43.5t15 65zM339 700q83 0 136.5 -28.5t80 -75.5t26.5 -105q0 -38 -13 -75t-42 -67.5t-75.5 -48t-111.5 -17.5h-161v-283h-100v700h260zM403 317l193 -317h-113
l-186 317h106z" />
    <glyph glyph-name="rcaron" unicode="&#x159;" horiz-adv-x="363" 
d="M339 694v-71l-125 -74l-126 74v71l126 -77zM72 500h86l6 -67q21 26 48.5 43.5t60 24.5t67.5 -1v-89q-33 8 -64 2t-55.5 -25.5t-39.5 -51.5t-15 -77v-259h-94v500z" />
    <glyph glyph-name="Sacute" unicode="&#x15a;" horiz-adv-x="578" 
d="M389 949v-87l-216 -111v74zM139 185q6 -28 24.5 -52t50.5 -39t79 -15q70 0 103.5 32.5t33.5 76.5q0 36 -20.5 59.5t-56 40t-81.5 29.5q-40 12 -78.5 25.5t-69.5 34t-49 53t-18 81.5q0 61 29 105t81.5 67.5t121.5 23.5q58 0 104 -16.5t77.5 -47t46.5 -73.5l-91 -33
q-6 22 -25 41.5t-48 31.5t-65 12q-37 1 -66.5 -11.5t-47 -35.5t-17.5 -55q0 -35 20 -55t53.5 -33t73.5 -25q42 -13 82 -28t72.5 -38t52.5 -57.5t20 -86.5q0 -56 -26 -102t-78.5 -74t-131.5 -28q-65 0 -117 20t-85.5 55.5t-44.5 82.5z" />
    <glyph glyph-name="sacute" unicode="&#x15b;" horiz-adv-x="480" 
d="M327 721v-76l-193 -99v65zM128 158q7 -30 24 -47t40.5 -24.5t49.5 -7.5q45 0 70 18t25 45q0 23 -15.5 36.5t-41 21.5t-54.5 15q-26 7 -56.5 16t-57 24.5t-43.5 40t-17 62.5q0 45 24.5 78.5t68 52t98.5 18.5q64 0 112.5 -27.5t70.5 -82.5l-85 -28q-7 19 -23 31t-36.5 16.5
t-40.5 4.5q-38 0 -63 -15t-25 -44q0 -16 8 -26.5t22.5 -17t34.5 -11.5t43 -11q30 -9 61 -19.5t57 -26.5t42 -42t17 -64q0 -44 -24.5 -78t-69 -53.5t-105.5 -19.5q-74 0 -126 33t-70 102z" />
    <glyph glyph-name="Scircumflex" unicode="&#x15c;" horiz-adv-x="578" 
d="M139 185q6 -28 24.5 -52t50.5 -39t79 -15q70 0 103.5 32.5t33.5 76.5q0 36 -20.5 59.5t-56 40t-81.5 29.5q-40 12 -78.5 25.5t-69.5 34t-49 53t-18 81.5q0 61 29 105t81.5 67.5t121.5 23.5q58 0 104 -16.5t77.5 -47t46.5 -73.5l-91 -33q-6 22 -25 41.5t-48 31.5t-65 12
q-37 1 -66.5 -11.5t-47 -35.5t-17.5 -55q0 -35 20 -55t53.5 -33t73.5 -25q42 -13 82 -28t72.5 -38t52.5 -57.5t20 -86.5q0 -56 -26 -102t-78.5 -74t-131.5 -28q-65 0 -117 20t-85.5 55.5t-44.5 82.5zM430 756l-140 85l-140 -85v78l140 83l140 -83v-78z" />
    <glyph glyph-name="scircumflex" unicode="&#x15d;" horiz-adv-x="480" 
d="M128 158q7 -30 24 -47t40.5 -24.5t49.5 -7.5q45 0 70 18t25 45q0 23 -15.5 36.5t-41 21.5t-54.5 15q-26 7 -56.5 16t-57 24.5t-43.5 40t-17 62.5q0 45 24.5 78.5t68 52t98.5 18.5q64 0 112.5 -27.5t70.5 -82.5l-85 -28q-7 19 -23 31t-36.5 16.5t-40.5 4.5q-38 0 -63 -15
t-25 -44q0 -16 8 -26.5t22.5 -17t34.5 -11.5t43 -11q30 -9 61 -19.5t57 -26.5t42 -42t17 -64q0 -44 -24.5 -78t-69 -53.5t-105.5 -19.5q-74 0 -126 33t-70 102zM378 556l-140 85l-140 -85v78l140 83l140 -83v-78z" />
    <glyph glyph-name="Scedilla" unicode="&#x15e;" horiz-adv-x="578" 
d="M330 -60q38 0 67.5 -11.5t46 -34t16.5 -56.5q0 -33 -16 -56.5t-44 -36.5t-64 -13h-121v65h101q30 0 45.5 8.5t15.5 32.5q0 23 -15.5 32t-45.5 9h-52v122h66v-61zM139 185q6 -28 24.5 -52t50.5 -39t79 -15q70 0 103.5 32.5t33.5 76.5q0 36 -20.5 59.5t-56 40t-81.5 29.5
q-40 12 -78.5 25.5t-69.5 34t-49 53t-18 81.5q0 61 29 105t81.5 67.5t121.5 23.5q58 0 104 -16.5t77.5 -47t46.5 -73.5l-91 -33q-6 22 -25 41.5t-48 31.5t-65 12q-37 1 -66.5 -11.5t-47 -35.5t-17.5 -55q0 -35 20 -55t53.5 -33t73.5 -25q42 -13 82 -28t72.5 -38t52.5 -57.5
t20 -86.5q0 -56 -26 -102t-78.5 -74t-131.5 -28q-65 0 -117 20t-85.5 55.5t-44.5 82.5z" />
    <glyph glyph-name="scedilla" unicode="&#x15f;" horiz-adv-x="480" 
d="M271 -44q34 0 60 -10t41 -30.5t15 -50.5q0 -29 -14.5 -50t-40 -32.5t-56.5 -11.5h-109v57h91q27 0 41 8t14 29t-14 29t-41 8h-47v109h60v-55zM128 158q7 -30 24 -47t40.5 -24.5t49.5 -7.5q45 0 70 18t25 45q0 23 -15.5 36.5t-41 21.5t-54.5 15q-26 7 -56.5 16t-57 24.5
t-43.5 40t-17 62.5q0 45 24.5 78.5t68 52t98.5 18.5q64 0 112.5 -27.5t70.5 -82.5l-85 -28q-7 19 -23 31t-36.5 16.5t-40.5 4.5q-38 0 -63 -15t-25 -44q0 -16 8 -26.5t22.5 -17t34.5 -11.5t43 -11q30 -9 61 -19.5t57 -26.5t42 -42t17 -64q0 -44 -24.5 -78t-69 -53.5
t-105.5 -19.5q-74 0 -126 33t-70 102z" />
    <glyph glyph-name="Scaron" unicode="&#x160;" horiz-adv-x="578" 
d="M430 917v-79l-140 -83l-140 83v79l140 -86zM139 185q6 -28 24.5 -52t50.5 -39t79 -15q70 0 103.5 32.5t33.5 76.5q0 36 -20.5 59.5t-56 40t-81.5 29.5q-40 12 -78.5 25.5t-69.5 34t-49 53t-18 81.5q0 61 29 105t81.5 67.5t121.5 23.5q58 0 104 -16.5t77.5 -47t46.5 -73.5
l-91 -33q-6 22 -25 41.5t-48 31.5t-65 12q-37 1 -66.5 -11.5t-47 -35.5t-17.5 -55q0 -35 20 -55t53.5 -33t73.5 -25q42 -13 82 -28t72.5 -38t52.5 -57.5t20 -86.5q0 -56 -26 -102t-78.5 -74t-131.5 -28q-65 0 -117 20t-85.5 55.5t-44.5 82.5z" />
    <glyph glyph-name="scaron" unicode="&#x161;" horiz-adv-x="480" 
d="M364 694v-71l-125 -74l-126 74v71l126 -77zM128 158q7 -30 24 -47t40.5 -24.5t49.5 -7.5q45 0 70 18t25 45q0 23 -15.5 36.5t-41 21.5t-54.5 15q-26 7 -56.5 16t-57 24.5t-43.5 40t-17 62.5q0 45 24.5 78.5t68 52t98.5 18.5q64 0 112.5 -27.5t70.5 -82.5l-85 -28
q-7 19 -23 31t-36.5 16.5t-40.5 4.5q-38 0 -63 -15t-25 -44q0 -16 8 -26.5t22.5 -17t34.5 -11.5t43 -11q30 -9 61 -19.5t57 -26.5t42 -42t17 -64q0 -44 -24.5 -78t-69 -53.5t-105.5 -19.5q-74 0 -126 33t-70 102z" />
    <glyph glyph-name="uni0162" unicode="&#x162;" horiz-adv-x="616" 
d="M343 -54q38 0 67 -11.5t46 -34t17 -56.5q0 -33 -16.5 -56.5t-44.5 -36.5t-63 -13h-121v64h101q30 0 45.5 9t15.5 33q0 23 -15.5 32t-45.5 9h-52v122h66v-61zM40 700h537v-84h-218v-616h-100v616h-219v84z" />
    <glyph glyph-name="uni0163" unicode="&#x163;" horiz-adv-x="371" 
d="M93 624h101v-484q0 -32 13.5 -44t45.5 -12h66v-84h-81q-45 0 -77.5 14t-50 44.5t-17.5 81.5v484zM32 419v82h287v-82h-287zM223 -43l-6 3q36 0 63.5 -10.5t43 -31.5t15.5 -53q0 -30 -15.5 -52.5t-41.5 -34t-60 -11.5h-113v65h96q24 0 36.5 7.5t12.5 25.5t-12.5 25
t-36.5 7h-52v158h70v-98z" />
    <glyph glyph-name="Tcaron" unicode="&#x164;" horiz-adv-x="616" 
d="M449 917v-79l-140 -83l-140 83v79l140 -86zM40 700h537v-84h-218v-616h-100v616h-219v84z" />
    <glyph glyph-name="tcaron" unicode="&#x165;" horiz-adv-x="385" 
d="M341 705q6 -26 9 -44.5t3 -37.5q0 -49 -26.5 -71.5t-78.5 -22.5v49q22 0 32 6t10 20v11h-45v90h96zM104 500v140h95v-140h125v-84h-125v-246q0 -46 18.5 -65t47 -21.5t59.5 1.5v-81q-41 -9 -80.5 -5.5t-71 22.5t-50 55.5t-18.5 93.5v246h-72v84h72z" />
    <glyph glyph-name="Utilde" unicode="&#x168;" horiz-adv-x="702" 
d="M194 760q9 54 37 81t68 27q27 0 45 -11t33.5 -22.5t36.5 -11.5q16 0 28 10t15 32h57q-7 -54 -35.5 -81t-69.5 -27q-27 0 -45.5 11.5t-34 23t-35.5 11.5q-16 0 -28 -10.5t-15 -32.5h-57zM75 700h100v-445q0 -60 23 -99.5t63 -58t90 -18.5q51 0 90.5 18.5t62.5 58t23 99.5
v445h100v-443q0 -68 -22.5 -117.5t-62 -82t-89 -48.5t-103.5 -16q-72 0 -135 28.5t-101.5 87t-38.5 148.5v443z" />
    <glyph glyph-name="utilde" unicode="&#x169;" 
d="M131 554q7 48 32.5 72t61.5 24q24 0 40 -10t30 -20t32 -10q15 0 26 9t14 28h50q-6 -49 -31.5 -72.5t-62.5 -23.5q-24 0 -40.5 10t-30.5 20.5t-32 10.5q-15 0 -25.5 -9.5t-12.5 -28.5h-51zM490 0h-86l-7 59q-24 -32 -60.5 -49t-81.5 -17q-58 0 -101 24.5t-66.5 72
t-23.5 118.5v292h95v-280q0 -69 28.5 -105t86.5 -36q57 0 89.5 37t32.5 110v274h94v-500z" />
    <glyph glyph-name="Umacron" unicode="&#x16a;" horiz-adv-x="702" 
d="M172 865h357v-75h-357v75zM75 700h100v-445q0 -60 23 -99.5t63 -58t90 -18.5q51 0 90.5 18.5t62.5 58t23 99.5v445h100v-443q0 -68 -22.5 -117.5t-62 -82t-89 -48.5t-103.5 -16q-72 0 -135 28.5t-101.5 87t-38.5 148.5v443z" />
    <glyph glyph-name="umacron" unicode="&#x16b;" 
d="M111 647h320v-67h-320v67zM490 0h-86l-7 59q-24 -32 -60.5 -49t-81.5 -17q-58 0 -101 24.5t-66.5 72t-23.5 118.5v292h95v-280q0 -69 28.5 -105t86.5 -36q57 0 89.5 37t32.5 110v274h94v-500z" />
    <glyph glyph-name="Ubreve" unicode="&#x16c;" horiz-adv-x="702" 
d="M496 895q0 -39 -17 -69t-49.5 -47.5t-79.5 -17.5q-46 0 -78.5 17.5t-49.5 48t-17 69.5v19h58q0 -35 19.5 -55.5t67.5 -20.5q49 0 68 20.5t19 55.5h59v-20zM75 700h100v-445q0 -60 23 -99.5t63 -58t90 -18.5q51 0 90.5 18.5t62.5 58t23 99.5v445h100v-443
q0 -68 -22.5 -117.5t-62 -82t-89 -48.5t-103.5 -16q-72 0 -135 28.5t-101.5 87t-38.5 148.5v443z" />
    <glyph glyph-name="ubreve" unicode="&#x16d;" 
d="M401 674q0 -34 -15 -61.5t-44.5 -42.5t-70.5 -15q-42 0 -71 15.5t-44 43t-15 60.5v17h52q0 -31 17 -49t61 -18q43 0 60 18t17 49h53v-17zM490 0h-86l-7 59q-24 -32 -60.5 -49t-81.5 -17q-58 0 -101 24.5t-66.5 72t-23.5 118.5v292h95v-280q0 -69 28.5 -105t86.5 -36
q57 0 89.5 37t32.5 110v274h94v-500z" />
    <glyph glyph-name="Uring" unicode="&#x16e;" horiz-adv-x="702" 
d="M460 854q0 -49 -32 -78t-78 -29q-44 0 -76 29t-32 78q0 50 32 79t76 29q46 0 78 -29t32 -79zM403 855q0 25 -15 39.5t-38 14.5q-21 0 -36 -14.5t-15 -39.5t15 -39.5t36 -14.5q23 0 38 14.5t15 39.5zM75 700h100v-445q0 -60 23 -99.5t63 -58t90 -18.5q51 0 90.5 18.5
t62.5 58t23 99.5v445h100v-443q0 -68 -22.5 -117.5t-62 -82t-89 -48.5t-103.5 -16q-72 0 -135 28.5t-101.5 87t-38.5 148.5v443z" />
    <glyph glyph-name="uring" unicode="&#x16f;" 
d="M368 637q0 -44 -28.5 -69.5t-68.5 -25.5t-69 25.5t-29 69.5q0 45 29 70.5t69 25.5t68.5 -25.5t28.5 -70.5zM317 638q0 23 -13 35.5t-33 12.5t-33.5 -12.5t-13.5 -35.5q0 -22 13.5 -35t33.5 -13t33 13t13 35zM490 0h-86l-7 59q-24 -32 -60.5 -49t-81.5 -17
q-58 0 -101 24.5t-66.5 72t-23.5 118.5v292h95v-280q0 -69 28.5 -105t86.5 -36q57 0 89.5 37t32.5 110v274h94v-500z" />
    <glyph glyph-name="Uhungarumlaut" unicode="&#x170;" horiz-adv-x="702" 
d="M386 923l-89 -161h-66l68 161h87zM544 923l-95 -161h-65l73 161h87zM75 700h100v-445q0 -60 23 -99.5t63 -58t90 -18.5q51 0 90.5 18.5t62.5 58t23 99.5v445h100v-443q0 -68 -22.5 -117.5t-62 -82t-89 -48.5t-103.5 -16q-72 0 -135 28.5t-101.5 87t-38.5 148.5v443z" />
    <glyph glyph-name="uhungarumlaut" unicode="&#x171;" 
d="M302 699l-79 -144h-59l61 144h77zM444 699l-85 -144h-59l66 144h78zM490 0h-86l-7 59q-24 -32 -60.5 -49t-81.5 -17q-58 0 -101 24.5t-66.5 72t-23.5 118.5v292h95v-280q0 -69 28.5 -105t86.5 -36q57 0 89.5 37t32.5 110v274h94v-500z" />
    <glyph glyph-name="Uogonek" unicode="&#x172;" horiz-adv-x="702" 
d="M396 51l26 -51l-52 -26q-34 -17 -46.5 -34t-12.5 -35q0 -23 15.5 -35.5t41.5 -12.5q15 0 31.5 3.5t33.5 10.5v-65q-17 -7 -37 -10.5t-41 -3.5q-30 0 -59 9.5t-48 32t-19 60.5q0 25 12 48.5t38 45.5t71 43zM75 700h100v-445q0 -60 23 -99.5t63 -58t90 -18.5
q51 0 90.5 18.5t62.5 58t23 99.5v445h100v-443q0 -68 -22.5 -117.5t-62 -82t-89 -48.5t-103.5 -16q-72 0 -135 28.5t-101.5 87t-38.5 148.5v443z" />
    <glyph glyph-name="uogonek" unicode="&#x173;" 
d="M466 50l24 -46l-47 -24q-30 -15 -42 -30t-12 -31q0 -20 14.5 -31.5t37.5 -11.5q27 0 59 13v-58q-15 -6 -33.5 -9.5t-36.5 -3.5q-28 0 -54 9t-42.5 29t-16.5 53t24 63.5t84 58.5zM490 0h-86l-7 59q-24 -32 -60.5 -49t-81.5 -17q-58 0 -101 24.5t-66.5 72t-23.5 118.5v292
h95v-280q0 -69 28.5 -105t86.5 -36q57 0 89.5 37t32.5 110v274h94v-500z" />
    <glyph glyph-name="Wcircumflex" unicode="&#x174;" horiz-adv-x="994" 
d="M637 755l-140 86l-140 -86v79l140 84l140 -84v-79zM337 0h-111l-200 700h107l149 -584l160 584h111l159 -582l150 582h105l-199 -700h-112l-159 551z" />
    <glyph glyph-name="wcircumflex" unicode="&#x175;" horiz-adv-x="756" 
d="M503 550l-125 76l-125 -76v70l125 74l125 -74v-70zM271 0h-90l-157 500h96l105 -388l112 388h90l108 -386l104 386h93l-155 -500h-91l-107 363z" />
    <glyph glyph-name="Ycircumflex" unicode="&#x176;" horiz-adv-x="670" 
d="M474 755l-140 86l-140 -86v79l140 84l140 -84v-79zM532 700h111l-259 -440v-260h-99v259l-259 441h111l197 -349z" />
    <glyph glyph-name="ycircumflex" unicode="&#x177;" horiz-adv-x="529" 
d="M389 550l-125 76l-125 -76v70l125 74l125 -74v-70zM413 500h98l-290 -700h-93l88 210l-198 490h104l145 -379z" />
    <glyph glyph-name="Ydieresis" unicode="&#x178;" horiz-adv-x="670" 
d="M251 782q-23 0 -39 16t-16 39t16 39.5t39 16.5q24 0 40 -16.5t16 -39.5t-16 -39t-40 -16zM417 782q-23 0 -39 16t-16 39t16 39.5t39 16.5t39.5 -16.5t16.5 -39.5t-16.5 -39t-39.5 -16zM532 700h111l-259 -440v-260h-99v259l-259 441h111l197 -349z" />
    <glyph glyph-name="Zacute" unicode="&#x179;" horiz-adv-x="597" 
d="M378 949v-87l-216 -111v74zM543 624l-373 -540h375v-84h-492v76l372 540h-370v84h488v-76z" />
    <glyph glyph-name="zacute" unicode="&#x17a;" horiz-adv-x="478" 
d="M310 721v-76l-192 -99v65zM430 423l-265 -339h266v-84h-384v77l266 339h-265v84h382v-77z" />
    <glyph glyph-name="Zdotaccent" unicode="&#x17b;" horiz-adv-x="597" 
d="M279 779q-24 0 -40 15.5t-16 39.5q0 23 16 39t40 16q22 0 38.5 -16t16.5 -39q0 -24 -16.5 -39.5t-38.5 -15.5zM543 624l-373 -540h375v-84h-492v76l372 540h-370v84h488v-76z" />
    <glyph glyph-name="zdotaccent" unicode="&#x17c;" horiz-adv-x="478" 
d="M222 570q-21 0 -35.5 14.5t-14.5 34.5q0 21 14.5 35.5t35.5 14.5t35.5 -14.5t14.5 -35.5q0 -20 -14.5 -34.5t-35.5 -14.5zM430 423l-265 -339h266v-84h-384v77l266 339h-265v84h382v-77z" />
    <glyph glyph-name="Zcaron" unicode="&#x17d;" horiz-adv-x="597" 
d="M419 917v-79l-140 -83l-140 83v79l140 -86zM543 624l-373 -540h375v-84h-492v76l372 540h-370v84h488v-76z" />
    <glyph glyph-name="zcaron" unicode="&#x17e;" horiz-adv-x="478" 
d="M347 694v-71l-125 -74l-125 74v71l125 -77zM430 423l-265 -339h266v-84h-384v77l266 339h-265v84h382v-77z" />
    <glyph glyph-name="uni018F" unicode="&#x18f;" horiz-adv-x="757" 
d="M601 369q0 75 -28.5 130.5t-79.5 86.5t-118 31q-49 0 -90 -16t-70.5 -45.5t-45.5 -71.5h-115q23 69 68.5 119t109.5 77.5t143 27.5q99 0 174.5 -45.5t118 -125.5t42.5 -186t-42 -186.5t-117 -126t-175 -45.5q-97 0 -171 39t-115.5 112.5t-41.5 178.5q0 15 1 31t2 34h569
v-94h-469q1 -63 29.5 -110.5t79 -74t116.5 -26.5q64 0 115 27.5t80.5 79t29.5 123.5v56z" />
    <glyph glyph-name="florin" unicode="&#x192;" horiz-adv-x="406" 
d="M104 501h260l-8 -81h-260zM170 539q13 84 61.5 122.5t146.5 38.5l-8 -82q-51 0 -73 -19t-28 -61l-62 -404q-7 -48 -25.5 -77.5t-49 -43t-73.5 -13.5h-27l8 82h21q22 0 32 12t15 40z" />
    <glyph glyph-name="uni01CD" unicode="&#x1cd;" horiz-adv-x="692" 
d="M365 616h-35l-220 -616h-102l252 700h173l252 -700h-102zM137 262h408v-84h-408v84zM486 916v-78l-140 -83l-140 83v78l140 -85z" />
    <glyph glyph-name="uni01CE" unicode="&#x1ce;" horiz-adv-x="527" 
d="M377 0l-8 73q-23 -38 -59.5 -58.5t-94.5 -20.5q-54 0 -92 17.5t-58.5 49t-20.5 73.5q0 63 47 104.5t136 51.5l142 16v39q0 32 -26 54.5t-75 22.5q-46 0 -78 -21.5t-43 -63.5l-84 30q19 66 74.5 103t134.5 37q94 0 143 -47t49 -124v-336h-87zM369 229l-137 -17
q-44 -6 -66 -24.5t-22 -48.5q0 -28 21.5 -46.5t60.5 -18.5q48 0 80 18t47.5 50.5t15.5 75.5v11zM408 716v-78l-140 -83l-140 83v78l140 -85z" />
    <glyph glyph-name="Gcaron" unicode="&#x1e6;" horiz-adv-x="768" 
d="M618 486q-38 71 -96.5 103t-127.5 32q-70 0 -128 -34t-91.5 -94.5t-33.5 -142.5q0 -81 33 -142t90.5 -95t128.5 -34q51 0 96 18t78.5 50t52.5 76v76h-220v82h321v-163q-24 -64 -71.5 -115t-113 -80.5t-143.5 -29.5q-74 0 -138.5 26t-112.5 73.5t-75 113t-27 144.5
q0 78 27 143.5t75 113.5t112.5 74t138.5 26q67 0 128 -22t109 -64t75 -103zM529 916v-78l-140 -83l-140 83v78l140 -85z" />
    <glyph glyph-name="gcaron" unicode="&#x1e7;" horiz-adv-x="604" 
d="M447 500h86v-418q0 -88 -42 -151t-120.5 -97t-189.5 -34l-15 83q134 3 203 53.5t69 145.5v5l11 -1q-24 -38 -68.5 -65.5t-110.5 -27.5q-67 0 -118.5 32t-80 90t-28.5 135t28.5 135t80 90t118.5 32q41 0 73.5 -11t56.5 -29.5t40 -41.5zM144 250q0 -77 40.5 -124t108.5 -47
q40 0 73 20.5t52.5 59t19.5 91.5q0 54 -19.5 92t-53 58.5t-72.5 20.5q-68 0 -108.5 -47t-40.5 -124zM438 716v-78l-140 -83l-140 83v78l140 -85z" />
    <glyph glyph-name="uni01E8" unicode="&#x1e8;" horiz-adv-x="631" 
d="M79 700h100v-303h36l274 303h126l-311 -345l315 -355h-131l-274 313h-35v-313h-100v700zM450 916v-78l-140 -83l-140 83v78l140 -85z" />
    <glyph glyph-name="uni01E9" unicode="&#x1e9;" horiz-adv-x="538" 
d="M72 720h95v-429h41l187 209h128l-232 -250l233 -250h-129l-187 210h-41v-210h-95v720zM260 936v-78l-140 -83l-140 83v78l140 -85z" />
    <glyph glyph-name="uni01EA" unicode="&#x1ea;" horiz-adv-x="783" 
d="M393 -7q-74 0 -138.5 26t-112.5 73.5t-75 113t-27 144.5t27 144t75 113t112.5 74t138.5 26q73 0 137 -26t112 -74t75 -113t27 -144t-27 -144.5t-75 -113t-112 -73.5t-137 -26zM393 79q71 0 127.5 33t89.5 94t33 144q0 84 -33 144.5t-89.5 93.5t-127.5 33q-72 0 -129 -33
t-89.5 -93.5t-32.5 -144.5q0 -83 32.5 -144t89.5 -94t129 -33zM490 67l26 -51l-52 -26q-34 -17 -47 -33.5t-13 -35.5q0 -22 16 -34.5t42 -12.5q15 0 31.5 3.5t33.5 10.5v-65q-17 -7 -37 -11t-41 -4q-30 0 -59 10.5t-48 32.5t-19 60q0 25 12 48t38 45t71 43z" />
    <glyph glyph-name="uni01EB" unicode="&#x1eb;" horiz-adv-x="589" 
d="M291 -7q-71 0 -127.5 31.5t-88.5 89t-32 135.5q0 79 33 137t90 89.5t128 31.5t128.5 -31.5t90.5 -89t33 -135.5q0 -79 -33.5 -137t-91.5 -89.5t-130 -31.5zM290 79q40 0 75 18.5t57.5 56.5t22.5 97q0 58 -21.5 95.5t-56.5 56t-75 18.5q-39 0 -72.5 -18.5t-54.5 -56.5
t-21 -97q0 -58 20.5 -95.5t53.5 -56t72 -18.5zM402 82l26 -51l-52 -26q-34 -17 -47 -33.5t-13 -35.5q0 -22 16 -34.5t42 -12.5q15 0 31.5 3.5t33.5 10.5v-65q-17 -7 -37 -11t-41 -4q-30 0 -59 10.5t-48 32.5t-19 60q0 25 12 48t38 45t71 43z" />
    <glyph glyph-name="AEacute" unicode="&#x1fc;" horiz-adv-x="899" 
d="M611 949v-87l-215 -111v74zM563 616v-219h187v-85h-187v-228h277v-84h-377v177h-249l-98 -177h-108l390 700h442v-84h-277zM260 262h203v365z" />
    <glyph glyph-name="aeacute" unicode="&#x1fd;" horiz-adv-x="882" 
d="M531 718v-76l-193 -99v65zM607 -7q-72 0 -125 32.5t-82 91t-29 136.5q0 118 61 186t172 68q72 0 125 -30.5t82 -84.5t29 -125q0 -12 -1 -25t-3 -28h-371q3 -44 21.5 -74t49 -45.5t68.5 -15.5q54 0 89.5 17.5t53.5 54.5l82 -29q-29 -58 -83.5 -93.5t-138.5 -35.5zM739 295
q-1 41 -19 69.5t-48.5 43t-69.5 14.5q-34 0 -63 -15t-47 -43t-23 -69h270zM423 199l8 -72q-18 -50 -53.5 -79t-78.5 -42t-84 -13q-50 0 -88.5 16t-60.5 47.5t-22 77.5q0 40 16 68t42.5 46t59 28t65.5 14l142 19v36q0 30 -25 53.5t-76 23.5q-45 0 -77.5 -21t-43.5 -64l-84 30
q19 66 73 103t136 37q93 0 142.5 -47.5t49.5 -123.5v-102zM369 229l-134 -17q-48 -5 -69.5 -24.5t-21.5 -48.5q0 -32 24.5 -46.5t60.5 -14.5q41 0 73 16.5t49.5 48t17.5 74.5v12z" />
    <glyph glyph-name="uni0218" unicode="&#x218;" horiz-adv-x="578" 
d="M339 -49q7 -24 10 -46.5t3 -41.5q0 -62 -27.5 -91t-78.5 -29v45q25 0 36.5 14.5t11.5 41.5v20h-50v87h95zM139 185q6 -28 24.5 -52t50.5 -39t79 -15q70 0 103.5 32.5t33.5 76.5q0 36 -20.5 59.5t-56 40t-81.5 29.5q-40 12 -78.5 25.5t-69.5 34t-49 53t-18 81.5
q0 61 29 105t81.5 67.5t121.5 23.5q58 0 104 -16.5t77.5 -47t46.5 -73.5l-91 -33q-6 22 -25 41.5t-48 31.5t-65 12q-37 1 -66.5 -11.5t-47 -35.5t-17.5 -55q0 -35 20 -55t53.5 -33t73.5 -25q42 -13 82 -28t72.5 -38t52.5 -57.5t20 -86.5q0 -56 -26 -102t-78.5 -74
t-131.5 -28q-65 0 -117 20t-85.5 55.5t-44.5 82.5z" />
    <glyph glyph-name="uni0219" unicode="&#x219;" horiz-adv-x="480" 
d="M299 -34q6 -24 9 -45t3 -39q0 -56 -27 -83t-78 -27v48q23 0 32.5 12.5t9.5 34.5v12h-44v87h95zM128 158q7 -30 24 -47t40.5 -24.5t49.5 -7.5q45 0 70 18t25 45q0 23 -15.5 36.5t-41 21.5t-54.5 15q-26 7 -56.5 16t-57 24.5t-43.5 40t-17 62.5q0 45 24.5 78.5t68 52
t98.5 18.5q64 0 112.5 -27.5t70.5 -82.5l-85 -28q-7 19 -23 31t-36.5 16.5t-40.5 4.5q-38 0 -63 -15t-25 -44q0 -16 8 -26.5t22.5 -17t34.5 -11.5t43 -11q30 -9 61 -19.5t57 -26.5t42 -42t17 -64q0 -44 -24.5 -78t-69 -53.5t-105.5 -19.5q-74 0 -126 33t-70 102z" />
    <glyph glyph-name="uni021A" unicode="&#x21a;" horiz-adv-x="616" 
d="M361 -49q6 -24 8.5 -46.5t2.5 -41.5q0 -62 -26.5 -91t-77.5 -29v45q25 0 36.5 14t11.5 42v20h-50v87h95zM40 700h537v-84h-218v-616h-100v616h-219v84z" />
    <glyph glyph-name="uni021B" unicode="&#x21b;" horiz-adv-x="357" 
d="M224 -34q7 -24 9.5 -45t2.5 -39q0 -56 -27 -83t-78 -27v48q23 0 33 12.5t10 34.5v12h-45v87h95zM104 500v140h95v-140h125v-84h-125v-246q0 -46 18.5 -65t47 -21.5t59.5 1.5v-81q-41 -9 -80.5 -5.5t-71 22.5t-50 55.5t-18.5 93.5v246h-72v84h72z" />
    <glyph glyph-name="uni0232" unicode="&#x232;" horiz-adv-x="670" 
d="M532 700h111l-259 -440v-260h-99v259l-259 441h111l197 -349zM157 864h357v-74h-357v74z" />
    <glyph glyph-name="uni0233" unicode="&#x233;" horiz-adv-x="529" 
d="M413 500h98l-290 -700h-93l88 210l-198 490h104l145 -379zM86 664h357v-74h-357v74z" />
    <glyph glyph-name="uni0259" unicode="&#x259;" horiz-adv-x="563" 
d="M274 507q72 0 127.5 -33.5t87 -92.5t31.5 -135q0 -73 -31 -130t-85.5 -90t-123.5 -33q-70 0 -124 30.5t-84 85t-29 125.5q0 12 1 24.5t3 27.5h371q-4 40 -23.5 70.5t-50 47.5t-70.5 17q-49 0 -86 -19.5t-52 -52.5l-82 29q30 61 87.5 95t132.5 34zM146 205q0 -36 18 -65
t48 -45.5t69 -16.5q33 0 62 16.5t48.5 45t25.5 65.5h-271z" />
    <glyph glyph-name="circumflex" unicode="&#x2c6;" horiz-adv-x="304" 
d="M292 595l-140 85l-140 -85v78l140 83l140 -83v-78z" />
    <glyph glyph-name="caron" unicode="&#x2c7;" horiz-adv-x="304" 
d="M292 755v-78l-140 -83l-140 83v78l140 -85z" />
    <glyph glyph-name="breve" unicode="&#x2d8;" horiz-adv-x="315" 
d="M303 733q0 -38 -17 -68t-49.5 -47.5t-79.5 -17.5t-79 17.5t-49 48t-17 68.5v19h58q0 -35 19.5 -55t67.5 -20t67.5 20t19.5 55h59v-20z" />
    <glyph glyph-name="dotaccent" unicode="&#x2d9;" horiz-adv-x="135" 
d="M67 621q-23 0 -39 16t-16 39t16 39.5t39 16.5t39.5 -16.5t16.5 -39.5t-16.5 -39t-39.5 -16z" />
    <glyph glyph-name="ring" unicode="&#x2da;" horiz-adv-x="242" 
d="M230 713q0 -49 -32 -77.5t-78 -28.5q-44 0 -76 28.5t-32 77.5t32 78t76 29q46 0 78 -29t32 -78zM173 713q0 25 -15 40t-38 15q-21 0 -36 -15t-15 -40q0 -23 15 -38.5t36 -15.5q23 0 38 15.5t15 38.5z" />
    <glyph glyph-name="ogonek" unicode="&#x2db;" horiz-adv-x="228" 
d="M179 51l26 -51l-52 -26q-34 -17 -47 -33.5t-13 -35.5q0 -22 16 -34.5t42 -12.5q15 0 31.5 3.5t33.5 10.5v-65q-17 -7 -37 -11t-41 -4q-30 0 -59 10.5t-48 32.5t-19 60q0 25 12 48t38 45t71 43z" />
    <glyph glyph-name="tilde" unicode="&#x2dc;" horiz-adv-x="344" 
d="M12 608q8 55 36 82t68 27q27 0 45 -11.5t34 -22.5t36 -11q17 0 29 9.5t15 31.5h56q-7 -54 -35.5 -80.5t-69.5 -26.5q-27 0 -45 11t-33.5 22.5t-35.5 11.5q-17 0 -28.5 -10t-14.5 -33h-57z" />
    <glyph glyph-name="hungarumlaut" unicode="&#x2dd;" horiz-adv-x="337" 
d="M166 761l-89 -160h-65l68 160h86zM325 761l-95 -160h-66l74 160h87z" />
    <glyph glyph-name="uni0394" unicode="&#x394;" horiz-adv-x="693" 
d="M305 700h82l282 -623v-77h-646v77zM346 582l-221 -498h442z" />
    <glyph glyph-name="uni03A9" unicode="&#x3a9;" horiz-adv-x="786" 
d="M182 78q-46 29 -78 70.5t-48 93.5t-16 109q0 78 27 143.5t75.5 113t112.5 73.5t138 26t138 -26t112.5 -73.5t76 -113t27.5 -143.5q0 -57 -16.5 -109t-48.5 -93.5t-79 -70.5h132v-78h-275v81q54 16 96 52t66 89.5t24 122.5q0 62 -19 113t-53.5 87t-80.5 55.5t-100 19.5
q-55 0 -101 -19.5t-80 -56t-52.5 -87t-18.5 -112.5q0 -69 24 -122.5t66 -89.5t96 -52v-81h-275v78h130z" />
    <glyph glyph-name="uni03BC" unicode="&#x3bc;" horiz-adv-x="598" 
d="M527 0h-99v501h99v-501zM171 -200h-99v701h99v-276q0 -73 35.5 -110.5t92.5 -37.5t93 37t36 111v1l30 -77q-10 -52 -36.5 -87t-65.5 -52.5t-84 -17.5q-19 0 -37.5 4.5t-34.5 13.5t-29 23v-233z" />
    <glyph glyph-name="pi" unicode="&#x3c0;" horiz-adv-x="647" 
d="M36 501h576v-84h-69v-417h-100v417h-238v-417h-100v417h-69v84z" />
    <glyph glyph-name="Wgrave" unicode="&#x1e80;" horiz-adv-x="994" 
d="M381 949l215 -124v-74l-215 113v85zM337 0h-111l-200 700h107l149 -584l160 584h111l159 -582l150 582h105l-199 -700h-112l-159 551z" />
    <glyph glyph-name="wgrave" unicode="&#x1e81;" horiz-adv-x="756" 
d="M274 721l193 -110v-65l-193 101v74zM271 0h-90l-157 500h96l105 -388l112 388h90l108 -386l104 386h93l-155 -500h-91l-107 363z" />
    <glyph glyph-name="Wacute" unicode="&#x1e82;" horiz-adv-x="994" 
d="M596 949v-87l-215 -111v74zM337 0h-111l-200 700h107l149 -584l160 584h111l159 -582l150 582h105l-199 -700h-112l-159 551z" />
    <glyph glyph-name="wacute" unicode="&#x1e83;" horiz-adv-x="756" 
d="M467 721v-76l-193 -99v65zM271 0h-90l-157 500h96l105 -388l112 388h90l108 -386l104 386h93l-155 -500h-91l-107 363z" />
    <glyph glyph-name="Wdieresis" unicode="&#x1e84;" horiz-adv-x="994" 
d="M414 782q-23 0 -39 16t-16 39t16 39.5t39 16.5t39 -16.5t16 -39.5t-16 -39t-39 -16zM580 782q-23 0 -39 16t-16 39t16 39.5t39 16.5t39.5 -16.5t16.5 -39.5t-16.5 -39t-39.5 -16zM337 0h-111l-200 700h107l149 -584l160 584h111l159 -582l150 582h105l-199 -700h-112
l-159 551z" />
    <glyph glyph-name="wdieresis" unicode="&#x1e85;" horiz-adv-x="756" 
d="M304 573q-21 0 -35.5 14.5t-14.5 34.5q0 21 14.5 35.5t35.5 14.5q20 0 34.5 -14.5t14.5 -35.5q0 -20 -14.5 -34.5t-34.5 -14.5zM453 573q-22 0 -36 14.5t-14 34.5q0 21 14 35.5t36 14.5q20 0 34.5 -14.5t14.5 -35.5q0 -20 -14.5 -34.5t-34.5 -14.5zM271 0h-90l-157 500
h96l105 -388l112 388h90l108 -386l104 386h93l-155 -500h-91l-107 363z" />
    <glyph glyph-name="uni1EBC" unicode="&#x1ebc;" horiz-adv-x="606" 
d="M157 760q8 54 36 81t69 27q27 0 44.5 -11t33.5 -22.5t36 -11.5q17 0 29 10t15 32h57q-8 -54 -36 -81t-69 -27q-27 0 -45.5 11.5t-34 23t-35.5 11.5q-17 0 -28.5 -10.5t-14.5 -32.5h-57zM547 616h-368v-219h276v-84h-276v-229h368v-84h-468v700h468v-84z" />
    <glyph glyph-name="uni1EBD" unicode="&#x1ebd;" horiz-adv-x="563" 
d="M146 554q7 48 32 72t62 24q24 0 40 -10t30 -20t32 -10q15 0 26 9t14 28h50q-6 -49 -31.5 -72.5t-62.5 -23.5q-24 0 -40 10t-30.5 20.5t-31.5 10.5q-15 0 -25.5 -9.5t-13.5 -28.5h-51zM289 -7q-72 0 -127.5 33.5t-87 92.5t-31.5 135q0 73 31 130t85.5 90t123.5 33
q70 0 124 -30.5t84 -85t29 -125.5q0 -12 -1 -24.5t-3 -27.5h-370q3 -40 22.5 -70.5t50 -47.5t69.5 -17q50 0 87 19.5t52 52.5l82 -29q-30 -61 -87.5 -95t-132.5 -34zM417 295q0 36 -18 65t-48.5 45.5t-68.5 16.5q-34 0 -62.5 -16.5t-48 -45t-24.5 -65.5h270z" />
    <glyph glyph-name="Ygrave" unicode="&#x1ef2;" horiz-adv-x="670" 
d="M218 949l216 -124v-74l-216 113v85zM532 700h111l-259 -440v-260h-99v259l-259 441h111l197 -349z" />
    <glyph glyph-name="ygrave" unicode="&#x1ef3;" horiz-adv-x="529" 
d="M160 721l193 -110v-65l-193 101v74zM413 500h98l-290 -700h-93l88 210l-198 490h104l145 -379z" />
    <glyph glyph-name="uni1EF8" unicode="&#x1ef8;" horiz-adv-x="670" 
d="M179 760q7 54 35.5 81t68.5 27q27 0 45 -11t33.5 -22.5t36.5 -11.5q17 0 28.5 10t14.5 32h57q-7 -54 -35.5 -81t-69.5 -27q-27 0 -45 11.5t-34 23t-36 11.5q-16 0 -28 -10.5t-15 -32.5h-56zM532 700h111l-259 -440v-260h-99v259l-259 441h111l197 -349z" />
    <glyph glyph-name="uni1EF9" unicode="&#x1ef9;" horiz-adv-x="529" 
d="M125 554q6 48 31.5 72t61.5 24q24 0 40 -10t30.5 -20t32.5 -10q14 0 25 9t14 28h51q-7 -49 -32.5 -72.5t-61.5 -23.5q-25 0 -41 10t-30 20.5t-32 10.5q-15 0 -25.5 -9.5t-12.5 -28.5h-51zM413 500h98l-290 -700h-93l88 210l-198 490h104l145 -379z" />
    <glyph glyph-name="endash" unicode="&#x2013;" horiz-adv-x="633" 
d="M52 320h529v-84h-529v84z" />
    <glyph glyph-name="emdash" unicode="&#x2014;" horiz-adv-x="843" 
d="M52 320h739v-84h-739v84z" />
    <glyph glyph-name="quoteleft" unicode="&#x2018;" horiz-adv-x="264" 
d="M225 700l-60 -232h-109l99 232h70z" />
    <glyph glyph-name="quoteright" unicode="&#x2019;" horiz-adv-x="264" 
d="M40 468l60 232h109l-99 -232h-70z" />
    <glyph glyph-name="quotesinglbase" unicode="&#x201a;" horiz-adv-x="265" 
d="M40 -100l60 229h110l-99 -229h-71z" />
    <glyph glyph-name="quotedblleft" unicode="&#x201c;" horiz-adv-x="433" 
d="M225 700l-59 -232h-110l99 232h70zM394 700l-60 -232h-109l99 232h70z" />
    <glyph glyph-name="quotedblright" unicode="&#x201d;" horiz-adv-x="433" 
d="M209 468l59 232h110l-99 -232h-70zM40 468l60 232h109l-99 -232h-70z" />
    <glyph glyph-name="quotedblbase" unicode="&#x201e;" horiz-adv-x="435" 
d="M40 -100l60 229h110l-99 -229h-71zM211 -100l60 229h110l-100 -229h-70z" />
    <glyph glyph-name="dagger" unicode="&#x2020;" horiz-adv-x="575" 
d="M521 568v-79l-194 9l10 -598h-99l11 598l-195 -9v79l195 -9l-11 241h99l-10 -241z" />
    <glyph glyph-name="daggerdbl" unicode="&#x2021;" horiz-adv-x="574" 
d="M521 489l-195 9v-295l195 8v-78l-195 9l10 -242h-99l11 242l-194 -9v78l194 -8v295l-194 -9v79l194 -9l-11 241h99l-10 -241l195 9v-79z" />
    <glyph glyph-name="bullet" unicode="&#x2022;" horiz-adv-x="442" 
d="M220 208q-34 0 -62.5 17t-45.5 45t-17 63q0 36 17 64t45.5 45t62.5 17q36 0 64.5 -17t45.5 -45t17 -64q0 -35 -17 -63t-45.5 -45t-64.5 -17z" />
    <glyph glyph-name="ellipsis" unicode="&#x2026;" horiz-adv-x="633" 
d="M316 -6q-27 0 -46 19t-19 46q0 28 19 47t46 19t46 -19t19 -47q0 -27 -19 -46t-46 -19zM509 -6q-27 0 -46 19t-19 46q0 28 19 47t46 19t46 -19t19 -47q0 -27 -19 -46t-46 -19zM124 -6q-27 0 -46 19t-19 46q0 28 19 47t46 19t46 -19t19 -47q0 -27 -19 -46t-46 -19z" />
    <glyph glyph-name="perthousand" unicode="&#x2030;" horiz-adv-x="1040" 
d="M48 558q0 69 42 109t106 40q63 0 105.5 -40t42.5 -109q0 -71 -42.5 -110.5t-105.5 -39.5q-64 0 -106 39.5t-42 110.5zM196 646q-32 0 -51 -22t-19 -66q0 -45 19 -67t51 -22q31 0 50 22t19 67q0 44 -19 66t-50 22zM505 700h98l-403 -700h-98zM363 143q0 70 42 109.5
t106 39.5q63 0 105 -39.5t42 -109.5t-42 -110t-105 -40q-64 0 -106 40t-42 110zM510 231q-32 0 -51 -21.5t-19 -66.5t19 -66.5t51 -21.5q31 0 50.5 21.5t19.5 66.5t-19.5 66.5t-50.5 21.5zM696 143q0 70 42.5 109.5t105.5 39.5t105.5 -39.5t42.5 -109.5t-42.5 -110
t-105.5 -40t-105.5 40t-42.5 110zM844 231q-32 0 -51 -21.5t-19 -66.5t19 -66.5t51 -21.5q31 0 50.5 21.5t19.5 66.5t-19.5 66.5t-50.5 21.5z" />
    <glyph glyph-name="guilsinglleft" unicode="&#x2039;" horiz-adv-x="279" 
d="M231 75h-97l-94 175l94 175h97l-98 -175z" />
    <glyph glyph-name="guilsinglright" unicode="&#x203a;" horiz-adv-x="279" 
d="M48 75l97 175l-97 175h96l95 -175l-95 -175h-96z" />
    <glyph glyph-name="fraction" unicode="&#x2044;" horiz-adv-x="581" 
d="M442 720h100l-402 -740h-100z" />
    <glyph glyph-name="uni2074" unicode="&#x2074;" horiz-adv-x="366" 
d="M219 350v77h-184v39l173 234h70v-219h46v-54h-46v-77h-59zM221 638l-111 -157h111v157z" />
    <glyph glyph-name="uni20A8" unicode="&#x20a8;" horiz-adv-x="1084" 
d="M481 491q0 57 -34 91t-108 34h-160v-249h161q49 0 80 15.5t46 43.5t15 65zM339 700q83 0 136.5 -28.5t80 -75.5t26.5 -105q0 -38 -13 -75t-42 -67.5t-75.5 -48t-111.5 -17.5h-161v-283h-100v700h260zM403 317l193 -317h-113l-186 317h106zM732 158q7 -30 24 -47
t40.5 -24.5t49.5 -7.5q45 0 70 18t25 45q0 23 -15.5 36.5t-41 21.5t-54.5 15q-26 7 -56.5 16t-57 24.5t-43.5 40t-17 62.5q0 45 24.5 78.5t68 52t98.5 18.5q64 0 112.5 -27.5t70.5 -82.5l-85 -28q-7 19 -23 31t-36.5 16.5t-40.5 4.5q-38 0 -63 -15t-25 -44q0 -16 8 -26.5
t22.5 -17t34.5 -11.5t43 -11q30 -9 61 -19.5t57 -26.5t42 -42t17 -64q0 -44 -24.5 -78t-69 -53.5t-105.5 -19.5q-74 0 -126 33t-70 102z" />
    <glyph glyph-name="Euro" unicode="&#x20ac;" horiz-adv-x="784" 
d="M26 396v69h429v-69h-429zM26 231v69h429v-69h-429zM60 350q0 79 26.5 144.5t74.5 113t112 73.5t138 26q104 0 187 -49t126 -141l-81 -29q-23 47 -60.5 76t-81.5 43t-89 14q-71 0 -128 -33t-90 -94t-33 -144q0 -82 33 -143t90 -94.5t128 -33.5q46 0 91.5 15t84 48.5
t63.5 87.5l81 -28q-45 -106 -129.5 -157.5t-191.5 -51.5q-74 0 -138 26t-112 74t-74.5 113.5t-26.5 143.5z" />
    <glyph glyph-name="indianrupee" unicode="&#x20b9;" horiz-adv-x="627" 
d="M468 653v-111q0 -76 -14 -128t-46 -83.5t-86.5 -45.5t-136.5 -14v-70q0 -56 24.5 -93t88.5 -37q59 0 84.5 33.5t25.5 90.5h92q-2 -101 -54.5 -151.5t-149.5 -50.5q-101 0 -152.5 56t-51.5 154v137q96 0 152.5 6t84.5 26t36.5 61t8.5 110v110h94zM48 700h544v-73h-544v73z
M48 454v72h544v-72h-544z" />
    <glyph glyph-name="turkishlira" unicode="&#x20ba;" horiz-adv-x="848" 
d="M171 700v-684q50 -11 94.5 -17t85.5 -6q129 0 210 48.5t118.5 146t37.5 243.5h-102q0 -82 -14.5 -146t-45.5 -108.5t-81.5 -67.5t-122.5 -23q-18 0 -37.5 1.5t-40.5 5.5v607h-102zM446 483v72l-434 -105v-69zM442 317v71l-427 -101v-72z" />
    <glyph glyph-name="uni20BD" unicode="&#x20bd;" horiz-adv-x="620" 
d="M23 366h318q74 0 107.5 35t33.5 90q0 62 -33.5 96.5t-107.5 34.5h-131v-622h-99v700h230q83 0 136.5 -28t80 -75t26.5 -106q0 -51 -24 -97.5t-77.5 -76.5t-141.5 -30h-318v79zM23 197h398v-80h-398v80z" />
    <glyph glyph-name="uni2113" unicode="&#x2113;" horiz-adv-x="285" 
d="M96 720h94v-720h-94v720z" />
    <glyph glyph-name="trademark" unicode="&#x2122;" horiz-adv-x="805" 
d="M23 700h243v-60h-82v-290h-79v290h-82v60zM323 700h101l118 -295l-29 -1l124 296h96v-350h-73v292l21 6l-128 -298h-54l-125 298l20 -6v-292h-71v350z" />
    <glyph glyph-name="uni2126" unicode="&#x2126;" horiz-adv-x="786" 
d="M182 78q-46 29 -78 70.5t-48 93.5t-16 109q0 78 27 143.5t75.5 113.5t112.5 74t138 26t138 -26t112.5 -74t76 -113.5t27.5 -143.5q0 -57 -16.5 -109t-48.5 -93.5t-79 -70.5h132v-78h-275v81q54 16 96 52t66 89.5t24 122.5q0 62 -19 113t-53.5 86t-80.5 54t-100 19
q-55 0 -101 -19t-80 -54.5t-52.5 -86t-18.5 -112.5q0 -69 24 -122.5t66 -89.5t96 -52v-81h-275v78h130z" />
    <glyph glyph-name="estimated" unicode="&#x212e;" horiz-adv-x="764" 
d="M688 136q-62 -66 -136 -104.5t-161 -38.5q-98 0 -175.5 40t-122.5 116.5t-45 184.5q0 79 22 147t64.5 118.5t104.5 79t143 28.5q80 0 142.5 -26.5t105 -72.5t64.5 -105t22 -124v-61h-528v-171q39 -44 87 -66.5t116 -22.5q50 0 93 15t82 43t79 67zM567 384v179
q-31 39 -78.5 59.5t-106.5 20.5q-60 0 -109.5 -22t-84.5 -69v-168h379z" />
    <glyph glyph-name="partialdiff" unicode="&#x2202;" horiz-adv-x="570" 
d="M422 272q0 42 -13 76.5t-39 54.5t-66 20t-79 -23.5t-64 -69t-25 -109.5q0 -70 32 -107t86 -37q42 0 80.5 23t63 66.5t24.5 105.5zM36 214q0 66 21.5 119.5t59.5 92.5t86.5 60t101.5 21q29 0 53 -7.5t43 -24.5t33 -45q-5 50 -15 93t-28.5 75t-47.5 50.5t-70 18.5
q-11 0 -28.5 -2.5t-41.5 -8.5v57q22 7 46 10.5t45 3.5q60 0 105 -26.5t75 -74.5t45.5 -114.5t15.5 -145.5q0 -103 -24 -174t-64.5 -115.5t-91.5 -64t-105 -19.5q-64 0 -112 25t-75 74t-27 122z" />
    <glyph glyph-name="uni2206" unicode="&#x2206;" horiz-adv-x="693" 
d="M305 700h82l282 -623v-77h-646v77zM346 587l-221 -510h442z" />
    <glyph glyph-name="product" unicode="&#x220f;" horiz-adv-x="738" 
d="M36 700h666v-78h-78v-622h-98v622h-313v-622h-100v622h-77v78z" />
    <glyph glyph-name="summation" unicode="&#x2211;" horiz-adv-x="488" 
d="M48 700h393v-77h-325l-7 22l287 -256v-78l-287 -255l-4 21h336v-77h-393v115l257 233l-257 237v115z" />
    <glyph glyph-name="minus" unicode="&#x2212;" horiz-adv-x="523" 
d="M59 392h404v-84h-404v84z" />
    <glyph glyph-name="uni2215" unicode="&#x2215;" horiz-adv-x="479" 
d="M380 700h99l-380 -700h-99z" />
    <glyph glyph-name="radical" unicode="&#x221a;" horiz-adv-x="739" 
d="M656 800h72l-433 -800h-50l-127 225l-67 -39l-30 50l152 90l131 -232l-24 10z" />
    <glyph glyph-name="infinity" unicode="&#x221e;" horiz-adv-x="685" 
d="M23 350q0 47 21.5 81t57 52t78.5 18q42 0 73.5 -17t57 -43t47 -55t43 -55t45.5 -43t53 -17q35 0 56.5 21t21.5 59t-21 58t-57 20q-41 0 -78 -33t-54 -82l-47 33q10 40 36 75t64.5 57.5t87.5 21.5q42 0 77 -18t55 -51.5t20 -80.5q0 -48 -20.5 -82t-56.5 -52t-79 -18
q-41 0 -73.5 16.5t-59 42.5t-49 55.5t-44 55.5t-44.5 43t-49 17q-35 0 -57 -20.5t-22 -58.5t22 -58t56 -20q43 0 79.5 32.5t53.5 81.5l47 -33q-10 -39 -36 -75t-64.5 -58t-87.5 -21q-65 0 -109 39.5t-44 111.5z" />
    <glyph glyph-name="integral" unicode="&#x222b;" horiz-adv-x="266" 
d="M129 655q8 53 27.5 84.5t51.5 46t79 14.5h22l-9 -83h-17q-24 0 -37 -14t-18 -48l-90 -610q-9 -52 -28 -84t-51 -46.5t-79 -14.5h-23l8 82h19q25 0 36.5 14.5t16.5 48.5z" />
    <glyph glyph-name="approxequal" unicode="&#x2248;" horiz-adv-x="529" 
d="M36 167q14 80 52.5 117t95.5 37q28 0 50 -10t41 -23.5t38 -23t40 -9.5q25 0 44 16.5t23 47.5h74q-14 -80 -53 -116.5t-95 -36.5q-30 0 -51.5 9.5t-40.5 23t-37.5 23.5t-40.5 10q-25 0 -44.5 -17.5t-23.5 -47.5h-72zM36 382q14 80 52.5 117t95.5 37q28 0 50 -10t41 -23.5
t38 -23t40 -9.5q25 0 44 16.5t23 47.5h74q-14 -80 -53 -116.5t-95 -36.5q-30 0 -51.5 9.5t-40.5 23t-37.5 23.5t-40.5 10q-25 0 -44.5 -17.5t-23.5 -47.5h-72z" />
    <glyph glyph-name="notequal" unicode="&#x2260;" horiz-adv-x="667" 
d="M510 599h75l-429 -497h-74zM71 283h524v-84h-524v84zM71 502h524v-84h-524v84z" />
    <glyph glyph-name="lessequal" unicode="&#x2264;" horiz-adv-x="507" 
d="M65 169h360v-76h-360v76zM428 225h-131l-238 191l238 191h131l-247 -200v19z" />
    <glyph glyph-name="greaterequal" unicode="&#x2265;" horiz-adv-x="507" 
d="M79 225l247 201v-19l-247 200h131l238 -191l-238 -191h-131zM442 169v-76h-360v76h360z" />
    <glyph glyph-name="lozenge" unicode="&#x25ca;" horiz-adv-x="558" 
d="M280 594l243 -243l-244 -244l-243 244zM280 487l-137 -136l136 -137l137 137z" />
    <glyph glyph-name="uniA732" unicode="&#xa732;" horiz-adv-x="1267" 
d="M365 616h-35l-220 -616h-102l252 700h173l252 -700h-102zM137 262h408v-84h-408v84zM940 616h-35l-220 -616h-102l252 700h173l252 -700h-102zM712 262h408v-84h-408v84z" />
    <glyph glyph-name="g.ss02" horiz-adv-x="610" 
d="M448 500h91v-418q0 -52 -16 -101t-49.5 -88.5t-84.5 -64.5t-120.5 -28t-158.5 22l23 81q84 -22 142.5 -15.5t94.5 34t52.5 69.5t16.5 91v5h10q-24 -36 -69 -65t-110 -29q-67 0 -118.5 32t-80 90t-28.5 135t28.5 135t80 90t118.5 32q60 0 103.5 -23.5t67.5 -57.5zM144 250
q0 -55 20 -93t54 -58t75 -20q40 0 73.5 20t53 58.5t19.5 92.5t-19.5 92t-53 58t-73.5 20q-41 0 -75 -19.5t-54 -57.5t-20 -93z" />
    <glyph glyph-name="comma.ss01" horiz-adv-x="204" 
d="M142 101q7 -27 10.5 -52.5t3.5 -46.5q0 -67 -30 -99.5t-86 -32.5v50q26 0 39 15.5t13 46.5v21h-56v98h106z" />
    <glyph glyph-name="quotedblleft.ss01" horiz-adv-x="320" 
d="M189 508q-7 27 -9.5 50.5t-2.5 43.5q0 60 27 89t78 29v-45q-26 0 -37 -14t-11 -42v-22h51v-89h-96zM48 508q-7 27 -9.5 50.5t-2.5 43.5q0 60 26.5 89t78.5 29v-45q-25 0 -36.5 -14t-11.5 -42v-22h51v-89h-96z" />
    <glyph glyph-name="quotedblright.ss01" horiz-adv-x="321" 
d="M273 720q7 -27 9.5 -51t2.5 -44q0 -60 -27 -88.5t-79 -28.5v45q26 0 37.5 13.5t11.5 40.5v23h-51v90h96zM131 720q7 -27 10 -51t3 -44q0 -60 -27 -88.5t-78 -28.5v45q25 0 36 13.5t11 40.5v23h-50v90h95z" />
    <glyph glyph-name="quoteleft.ss01" horiz-adv-x="180" 
d="M48 508q-7 27 -9.5 50.5t-2.5 43.5q0 60 26.5 89t78.5 29v-45q-25 0 -36.5 -14t-11.5 -42v-22h51v-89h-96z" />
    <glyph glyph-name="quoteright.ss01" horiz-adv-x="180" 
d="M131 720q7 -27 10 -51t3 -44q0 -60 -27 -88.5t-78 -28.5v45q25 0 36 13.5t11 40.5v23h-50v90h95z" />
    <glyph glyph-name="ampersand.ss03" horiz-adv-x="674" 
d="M401 579q-15 22 -41.5 32t-59.5 10q-56 0 -89 -28t-33 -83q0 -49 42 -76t130 -28h271v-85h-270q-98 0 -142 -30.5t-44 -93.5q0 -56 33 -87t97 -31q71 0 107 37t36 106v260h96v-260q0 -108 -62 -168.5t-178 -60.5q-108 0 -169.5 53t-61.5 143q0 66 34.5 111.5t100.5 62.5
v5q-56 15 -89 56.5t-33 90.5q0 57 28.5 100.5t78.5 67.5t114 24q59 0 105 -20t74 -58zM475 628l-74 -49z" />
    <glyph glyph-name="ampersand.ss04" horiz-adv-x="749" 
d="M405 541q1 28 -9.5 47t-29 28.5t-41.5 9.5q-38 0 -61 -21.5t-23 -53.5q0 -30 17 -57.5t54 -64.5l429 -429h-130l-381 384q-33 33 -52.5 59t-27.5 51.5t-8 56.5q0 45 23 80t65 55.5t99 20.5t97 -22t60 -59t18 -85h-99zM319 374l-44 -15q-72 -24 -106 -60.5t-34 -89.5
q0 -37 18.5 -66.5t51.5 -47t77 -17.5q50 0 91.5 18.5t77.5 55.5t70 93l71 118h108l-86 -141q-46 -77 -95 -128t-107 -76t-130 -25q-73 0 -129 26t-86.5 74t-30.5 113q0 77 48 133.5t145 88.5l37 12z" />
    <glyph glyph-name="ampersand.ss05" horiz-adv-x="749" 
d="M405 547q1 24 -9.5 42t-29 27.5t-41.5 9.5q-38 0 -61 -21.5t-23 -53.5q0 -30 17 -57.5t54 -64.5l429 -429h-130l-381 384q-33 33 -52.5 59t-27.5 51.5t-8 56.5q0 45 23 80t65 55.5t99 20.5t97.5 -22t61 -59.5t16.5 -84.5q-3 -41 -26.5 -73t-58.5 -53.5t-75 -32.5l-57 66
q56 14 86.5 38t31.5 61zM319 374l-44 -15q-72 -24 -106 -60.5t-34 -89.5q0 -37 18.5 -66.5t51.5 -47t77 -17.5q50 0 91.5 18.5t77.5 55.5t70 93l71 118h108l-86 -141q-46 -77 -95 -128t-107 -76t-130 -25q-73 0 -129 26t-86.5 74t-30.5 113q0 77 48 133.5t145 88.5l37 12z
" />
    </font>
</defs>
</svg>
