<?xml version="1.0" standalone="no"?>
<!DOCTYPE svg PUBLIC "-//W3C//DTD SVG 1.1//EN" "http://www.w3.org/Graphics/SVG/1.1/DTD/svg11.dtd" >
<svg xmlns="http://www.w3.org/2000/svg" xmlns:xlink="http://www.w3.org/1999/xlink" version="1.1">
<metadata>
Created by FontForge 20201107 at Mon May 23 15:50:47 2022
 By www-data
Copyright 2021 The Albert Sans Project Authors (https://github.com/usted/Albert-Sans)
</metadata>
<defs>
<font id="AlbertSans-BoldItalic" horiz-adv-x="781" >
  <font-face 
    font-family="Albert Sans"
    font-weight="700"
    font-style="italic"
    font-stretch="normal"
    units-per-em="1000"
    panose-1="0 0 0 0 0 0 0 0 0 0"
    ascent="800"
    descent="-200"
    x-height="500"
    cap-height="700"
    bbox="-110 -286 1268 971"
    underline-thickness="50"
    underline-position="-125"
    slope="-11.25"
    unicode-range="U+0020-FB01"
  />
<missing-glyph horiz-adv-x="629" 
d="M12 0l139 700h507l-139 -700h-507zM106 70h347l111 560h-347z" />
    <glyph glyph-name="fi" unicode="fi" horiz-adv-x="570" 
d="M489 566q-35 0 -54 22.5t-12 54.5q7 33 34.5 55t62.5 22t54 -22t13 -55q-7 -32 -35 -54.5t-63 -22.5zM540 501l-99 -501h-129l77 388h-334l22 113h463zM146 545q19 97 79.5 142t164.5 33l-23 -113q-42 6 -64 -12t-30 -56l-107 -539h-129z" />
    <glyph glyph-name=".notdef" horiz-adv-x="629" 
d="M12 0l139 700h507l-139 -700h-507zM106 70h347l111 560h-347z" />
    <glyph glyph-name=".null" horiz-adv-x="0" 
 />
    <glyph glyph-name="nonmarkingreturn" horiz-adv-x="333" 
 />
    <glyph glyph-name="space" unicode=" " horiz-adv-x="280" 
 />
    <glyph glyph-name="exclam" unicode="!" horiz-adv-x="289" 
d="M162 700h145l-111 -476h-114zM94 -7q-37 0 -56 23t-12 57t35.5 57.5t64.5 23.5q35 0 54.5 -23.5t12.5 -57.5t-35 -57t-64 -23z" />
    <glyph glyph-name="quotedbl" unicode="&#x22;" horiz-adv-x="365" 
d="M131 700h117l-53 -207h-92zM297 700h117l-54 -207h-92z" />
    <glyph glyph-name="numbersign" unicode="#" horiz-adv-x="870" 
d="M386 700h129l-63 -153h185l62 153h129l-63 -153h130l-24 -121h-155l-57 -139h129l-23 -121h-156l-68 -166h-129l68 166h-184l-68 -166h-129l69 166h-150l23 121h176l58 139h-151l25 121h175zM345 287h185l57 139h-184z" />
    <glyph glyph-name="dollar" unicode="$" horiz-adv-x="592" 
d="M364 775h64l-169 -850h-64zM156 198q-1 -28 12 -49t38 -32.5t62 -11.5q58 0 92.5 26.5t41.5 64.5q7 30 -7.5 50t-44 34t-69.5 27q-39 12 -75 26t-63.5 35t-40 54.5t-1.5 84.5q13 64 53 109t100 68t132 23q61 0 107 -17.5t72.5 -51t31.5 -82.5l-130 -34q-2 22 -15.5 38
t-36 25.5t-49.5 9.5q-31 1 -57.5 -9t-45 -29t-24.5 -44q-5 -28 8.5 -44.5t39.5 -28t58 -22.5q39 -12 78 -27.5t70 -39t45 -59.5t3 -91q-11 -58 -48 -105t-97.5 -75t-143.5 -28q-68 0 -119 20t-80 58.5t-29 91.5z" />
    <glyph glyph-name="percent" unicode="%" horiz-adv-x="829" 
d="M100 546q10 52 37.5 88t67 54.5t85.5 18.5q67 0 104 -41.5t21 -119.5q-10 -52 -38 -88t-67.5 -55t-83.5 -19q-69 0 -105.5 42t-20.5 120zM273 626q-27 0 -46 -18.5t-27 -61.5q-8 -42 3 -61.5t38 -19.5t46.5 19.5t27.5 61.5q8 43 -4 61.5t-38 18.5zM635 700h132l-534 -700
h-132zM455 155q10 52 38 88t67.5 54.5t84.5 18.5q67 0 103.5 -41.5t20.5 -119.5q-10 -52 -37.5 -88.5t-67 -55t-83.5 -18.5q-68 0 -105 41.5t-21 120.5zM627 235q-26 0 -45 -19t-28 -61q-8 -42 4 -61t38 -19t45.5 19t27.5 61t-3.5 61t-38.5 19z" />
    <glyph glyph-name="ampersand" unicode="&#x26;" horiz-adv-x="688" 
d="M445 559q-10 15 -28.5 24t-48.5 9q-49 0 -78.5 -28.5t-38.5 -71.5q-6 -33 7.5 -51.5t43.5 -26t73 -8.5h248l-22 -108h-246q-81 0 -122.5 -19t-52.5 -77q-6 -30 1 -51t28 -32t57 -11q58 0 86 28t40 88l29 146h132l-29 -146q-17 -83 -56.5 -134t-97.5 -74t-130 -23
q-77 0 -124.5 25t-66 69.5t-7.5 103.5q14 69 56 107.5t101 55.5l1 4q-26 10 -47 29.5t-31.5 50t-2.5 71.5q11 54 46 99t91.5 72t130.5 27q63 0 108.5 -19t70.5 -55zM566 633l-121 -74zM383 406q16 0 29 5t23 20t15 43l10 45h126l-23 -113h111l-22 -108h-110l-23 -114
q-8 -41 6.5 -56.5t49.5 -15.5q7 -1 17.5 0t24.5 3l-23 -110q-17 -4 -33.5 -6t-31.5 -2q-47 0 -85.5 17.5t-56 59t-3.5 110.5l23 115h-72l21 107h27z" />
    <glyph glyph-name="quotesingle" unicode="'" horiz-adv-x="206" 
d="M133 700h118l-53 -207h-92z" />
    <glyph glyph-name="parenleft" unicode="(" horiz-adv-x="446" 
d="M182 -100q-56 51 -87 122t-38 154.5t10 171.5q18 89 59 172.5t104 155t147 124.5h137l-2 -10q-88 -58 -153 -130.5t-105 -151.5t-56 -160q-16 -79 -8 -158t41 -150.5t90 -129.5l-2 -10h-137z" />
    <glyph glyph-name="parenright" unicode=")" horiz-adv-x="445" 
d="M124 -100h-137l2 10q81 58 142 129.5t100.5 150.5t55.5 158q16 81 7 160t-45 151.5t-101 130.5l2 10h137q64 -53 98.5 -124.5t42 -155t-10.5 -172.5q-17 -88 -57.5 -171.5t-100 -154.5t-135.5 -122z" />
    <glyph glyph-name="asterisk" unicode="*" horiz-adv-x="475" 
d="M336 597l129 88l32 -88l-142 -48l123 -48l-70 -91l-91 89l-6 -139h-101l49 139l-126 -91l-35 94l141 48l-122 46l68 90l94 -89l6 140h103z" />
    <glyph glyph-name="plus" unicode="+" horiz-adv-x="612" 
d="M441 605l-102 -510h-128l102 510h128zM83 409h510l-24 -118h-510z" />
    <glyph glyph-name="comma" unicode="," horiz-adv-x="286" 
d="M76 145h138l-173 -281h-87z" />
    <glyph glyph-name="hyphen" unicode="-" horiz-adv-x="525" 
d="M68 336h422l-22 -114h-423z" />
    <glyph glyph-name="period" unicode="." horiz-adv-x="269" 
d="M83 -7q-36 0 -55 23t-12 57t35 57.5t65 23.5q35 0 54.5 -23.5t12.5 -57.5q-6 -34 -35 -57t-65 -23z" />
    <glyph glyph-name="slash" unicode="/" horiz-adv-x="373" 
d="M349 800h133l-420 -900h-132z" />
    <glyph glyph-name="zero" unicode="0" horiz-adv-x="645" 
d="M74 350q16 79 42 144.5t66 113t97 73.5t134 26t124 -26t68 -73.5t21 -113t-15 -144.5q-16 -80 -42.5 -146t-66.5 -113t-97 -72.5t-134 -25.5t-123.5 25.5t-68 72.5t-21.5 113t16 146zM473 350q9 47 14 90.5t-1 78t-28.5 54t-66.5 19.5q-45 0 -76 -19.5t-50 -54t-31.5 -78
t-21.5 -90.5q-11 -50 -15.5 -93.5t1.5 -77t28.5 -52.5t67.5 -19t75 19t49.5 52.5t32 77t22.5 93.5z" />
    <glyph glyph-name="one" unicode="1" horiz-adv-x="333" 
d="M196 587h-95l22 113h231l-139 -700h-135z" />
    <glyph glyph-name="two" unicode="2" horiz-adv-x="591" 
d="M17 98l231 183q64 51 103 86t58 64.5t26 61.5q8 44 -10.5 71.5t-73.5 27.5q-33 0 -59.5 -15.5t-45 -44.5t-27.5 -70h-131q19 85 62.5 139t103 80t125.5 26q77 0 124 -27.5t64.5 -74.5t5.5 -108q-9 -45 -32.5 -86t-70 -87t-124.5 -106l-136 -105h302l-22 -113h-493z" />
    <glyph glyph-name="three" unicode="3" horiz-adv-x="594" 
d="M105 502q16 67 57 112.5t99 69t128 23.5q73 0 119 -27t63.5 -72t6.5 -99q-8 -41 -31 -71.5t-52 -50t-58 -29.5l-1 -4q35 -11 59 -32t33 -53t-1 -78q-11 -59 -47.5 -103.5t-94 -69.5t-133.5 -25q-75 0 -127.5 22t-76 70.5t-10.5 128.5h132q-8 -54 15.5 -80t85.5 -26
q37 0 62 11t40 32t21 51q12 58 -21.5 77t-113.5 19h-28l21 108h29q42 1 75.5 8.5t55 26t27.5 51.5q8 43 -10 71.5t-67 28.5q-36 0 -61 -13t-41 -33t-23 -44h-132z" />
    <glyph glyph-name="four" unicode="4" horiz-adv-x="654" 
d="M366 148h-352l20 102l418 450h158l-87 -439h89l-23 -113h-88l-30 -148h-135zM395 261l58 295l-268 -295h210z" />
    <glyph glyph-name="five" unicode="5" horiz-adv-x="617" 
d="M607 700l-22 -113h-316l-33 -168q25 25 61.5 40t83.5 15q61 0 101 -22t60 -56.5t25 -75.5t-3 -79q-14 -72 -55.5 -128t-105 -88t-141.5 -32t-128 26.5t-72.5 72.5t-17.5 105h132q1 -39 28 -64t79 -25q40 0 69 16t48 45.5t27 70.5q12 58 -12.5 90t-81.5 32
q-44 0 -77.5 -22.5t-51.5 -57.5h-130l83 418h450z" />
    <glyph glyph-name="six" unicode="6" horiz-adv-x="611" 
d="M258 -7q-75 0 -128.5 32t-76.5 88t-9 128q11 56 45 113t93 117l223 229h147l-260 -265l-158 -138q33 79 98.5 125.5t144.5 46.5q67 0 115 -28.5t69 -80t7 -122.5t-60.5 -126.5t-111.5 -87t-138 -31.5zM180 238q-7 -39 2 -68.5t34 -45.5t65 -16q39 0 70 16t51.5 45.5
t28.5 68.5q8 40 -0.5 68.5t-33.5 44t-65 15.5t-71 -15.5t-52 -44t-29 -68.5z" />
    <glyph glyph-name="seven" unicode="7" horiz-adv-x="550" 
d="M606 700l-20 -101l-387 -599h-138l387 587h-347l22 113h483z" />
    <glyph glyph-name="eight" unicode="8" horiz-adv-x="623" 
d="M191 371q-41 21 -61 58.5t-9 94.5q10 50 45 91.5t94 66.5t142 25q82 0 132 -25t68 -66.5t9 -91.5q-11 -54 -47.5 -93.5t-83.5 -59.5q50 -22 73.5 -66t10.5 -104q-12 -66 -56 -112t-108.5 -71t-139.5 -25t-129.5 25t-79.5 71t-12 112q12 60 53 104.5t99 65.5zM470 506
q10 48 -14 69t-76 21q-51 0 -83.5 -20.5t-42.5 -69.5q-9 -44 15.5 -70t73.5 -26q50 0 84.5 26.5t42.5 69.5zM324 314q-38 0 -68 -12.5t-51 -36t-27 -59.5q-10 -47 16 -74.5t88 -27.5t99.5 27.5t46.5 74.5q7 35 -3.5 59t-36.5 36.5t-64 12.5z" />
    <glyph glyph-name="nine" unicode="9" horiz-adv-x="611" 
d="M393 707q75 0 128.5 -32t76.5 -88t9 -128q-11 -56 -45.5 -113t-92.5 -117l-223 -229h-148l262 265l157 138q-34 -79 -99 -125.5t-145 -46.5q-66 0 -114 28.5t-69 80.5t-7 122q14 72 60 127t111.5 86.5t138.5 31.5zM470 462q8 40 -1 69t-34 45t-65 16t-71 -16t-51 -45
t-28 -69q-8 -39 1 -68.5t33.5 -44.5t64.5 -15t71.5 15.5t51.5 44.5t28 68z" />
    <glyph glyph-name="colon" unicode=":" horiz-adv-x="276" 
d="M87 -7q-37 0 -56 23t-12 57t35 57.5t65 23.5q36 0 55 -23.5t12 -57.5q-6 -34 -34.5 -57t-64.5 -23zM169 408q-36 0 -55 23t-12 57q6 34 34.5 57.5t64.5 23.5t55.5 -23.5t12.5 -57.5t-35.5 -57t-64.5 -23z" />
    <glyph glyph-name="semicolon" unicode=";" horiz-adv-x="305" 
d="M199 405q-37 0 -56 23t-12 57q6 34 34.5 57.5t65.5 23.5q36 0 54.5 -23.5t12.5 -57.5q-7 -34 -35.5 -57t-63.5 -23zM79 145h139l-173 -281h-88z" />
    <glyph glyph-name="less" unicode="&#x3c;" horiz-adv-x="510" 
d="M417 125h-171l-175 225l265 225h170l-265 -225z" />
    <glyph glyph-name="equal" unicode="=" horiz-adv-x="665" 
d="M69 290h543l-24 -117h-542zM117 528h543l-24 -118h-543z" />
    <glyph glyph-name="greater" unicode="&#x3e;" horiz-adv-x="509" 
d="M308 350l-175 225h170l175 -225l-264 -225h-171z" />
    <glyph glyph-name="question" unicode="?" horiz-adv-x="548" 
d="M365 707q67 0 114 -25t66.5 -72t6.5 -114q-14 -68 -53 -112.5t-95 -66.5t-123 -23l-20 -77h-118l28 168h43q40 0 73.5 4.5t59.5 16.5t43.5 34t24.5 57q9 45 -9.5 70t-65.5 25t-78 -24.5t-40 -70.5h-127q10 61 46.5 108t93.5 74.5t130 27.5zM162 -7q-37 0 -56 23t-12 57
q6 34 34.5 57.5t64.5 23.5t55.5 -23.5t12.5 -57.5t-35.5 -57t-63.5 -23z" />
    <glyph glyph-name="at" unicode="@" horiz-adv-x="996" 
d="M562 162l13 -49q-37 -54 -96.5 -87t-121.5 -33q-77 0 -110.5 46t-17.5 125q11 55 38.5 106.5t67.5 91t89.5 63t102.5 23.5q58 0 86 -27t28 -77l-30 -16l42 111h114l-102 -272q-13 -38 -11 -61t36 -23q29 0 54 21t45.5 55t35 73t21.5 75q16 82 -5.5 138.5t-79 86.5
t-149.5 30q-87 0 -168 -32.5t-147 -89.5t-111.5 -133.5t-62.5 -165.5q-17 -83 5 -141t79.5 -87.5t146.5 -29.5q44 0 90 8t88 27l2 -89q-52 -21 -107 -30.5t-112 -9.5q-112 0 -186.5 42t-105 119t-10.5 181q23 111 81 206.5t143 166.5t189.5 110.5t219.5 39.5
q117 0 192.5 -43.5t105 -120t9.5 -178.5q-12 -60 -39 -116.5t-66 -102t-88.5 -72.5t-106.5 -27q-69 0 -93 37t-5 100zM514 347q-29 0 -55.5 -13.5t-47.5 -36.5t-35.5 -52t-20.5 -60q-8 -39 7 -65t58 -26q37 0 72 22t59.5 57.5t33.5 76.5q5 28 -0.5 50t-23 34.5t-47.5 12.5z
" />
    <glyph glyph-name="A" unicode="A" horiz-adv-x="739" 
d="M454 587h-35l-323 -587h-139l390 700h223l112 -700h-139zM163 274h408l-23 -113h-407z" />
    <glyph glyph-name="B" unicode="B" horiz-adv-x="679" 
d="M530 498q6 29 -3 49t-31 30t-55 10h-171l-35 -177h170q50 0 83.5 22.5t41.5 65.5zM18 0l140 700h325q72 0 117.5 -24.5t63 -66t6.5 -93.5q-9 -46 -32 -78t-56.5 -50.5t-73.5 -25.5l-2 -8q67 -9 99 -49t16 -116q-10 -55 -46 -97.5t-92 -67t-128 -24.5h-337zM176 113h184
q52 0 86.5 23.5t43.5 68.5q9 47 -17.5 71t-78.5 24h-181z" />
    <glyph glyph-name="C" unicode="C" horiz-adv-x="757" 
d="M53 350q16 79 56 144.5t98 113t127.5 73.5t143.5 26q108 0 182 -51.5t95 -147.5l-119 -33q-13 42 -40 68t-63 38t-75 12q-64 0 -119.5 -30.5t-95 -85.5t-53.5 -127t3 -126.5t60.5 -85.5t108.5 -31q40 0 82 12.5t81.5 42.5t73.5 80l105 -31q-65 -109 -161 -163.5
t-207 -54.5q-74 0 -133 26t-98 74t-53 113.5t1 143.5z" />
    <glyph glyph-name="D" unicode="D" horiz-adv-x="732" 
d="M419 700q111 0 185.5 -43.5t104.5 -122.5t8 -186q-21 -106 -82.5 -184t-152.5 -121t-203 -43h-261l140 700h261zM297 113q113 0 187 62.5t96 172.5q22 111 -26.5 175t-161.5 64h-122l-94 -474h121z" />
    <glyph glyph-name="E" unicode="E" horiz-adv-x="608" 
d="M627 587h-357l-36 -178h268l-22 -109h-267l-37 -187h356l-22 -113h-492l140 700h492z" />
    <glyph glyph-name="F" unicode="F" horiz-adv-x="592" 
d="M158 700h492l-23 -113h-357l-36 -178h268l-22 -109h-267l-60 -300h-135z" />
    <glyph glyph-name="G" unicode="G" horiz-adv-x="760" 
d="M630 478q-21 61 -65 87.5t-104 26.5q-62 0 -118.5 -31t-97 -85.5t-54.5 -125.5q-14 -72 4 -126.5t62.5 -85t109.5 -30.5q42 0 82.5 15t75 41t58.5 61l11 58h-191l22 108h323l-38 -183q-35 -58 -91.5 -107.5t-128 -78.5t-151.5 -29q-76 0 -135.5 26t-98.5 73.5t-53 113
t1 144.5q16 78 56 143.5t98 113.5t128 74t145 26q71 0 129.5 -22.5t98 -65t52.5 -103.5z" />
    <glyph glyph-name="H" unicode="H" horiz-adv-x="716" 
d="M158 700h135l-58 -289h310l58 289h135l-140 -700h-135l59 298h-310l-59 -298h-135z" />
    <glyph glyph-name="I" unicode="I" horiz-adv-x="271" 
d="M158 700h135l-140 -700h-135z" />
    <glyph glyph-name="J" unicode="J" horiz-adv-x="536" 
d="M426 700h135l-98 -491q-13 -67 -51 -115.5t-92.5 -74.5t-118.5 -26q-79 0 -125.5 38.5t-51.5 111.5l124 31q2 -21 11 -36.5t24.5 -23.5t38.5 -8q27 0 48.5 12.5t36 34.5t19.5 49z" />
    <glyph glyph-name="K" unicode="K" horiz-adv-x="673" 
d="M158 700h135l-58 -289h41l304 289h165l-359 -344l227 -356h-173l-186 298h-42l-59 -298h-135z" />
    <glyph glyph-name="L" unicode="L" horiz-adv-x="537" 
d="M293 700l-117 -587h311l-22 -113h-447l140 700h135z" />
    <glyph glyph-name="M" unicode="M" horiz-adv-x="890" 
d="M153 0h-135l140 700h154l118 -524l328 524h154l-140 -700h-135l91 452l-280 -452h-106l-99 452z" />
    <glyph glyph-name="N" unicode="N" horiz-adv-x="715" 
d="M737 700l-140 -700h-138l-209 486l-97 -486h-135l140 700h137l209 -486l98 486h135z" />
    <glyph glyph-name="O" unicode="O" 
d="M339 -7q-73 0 -132.5 26t-99 73.5t-54.5 113t0 144.5q16 78 57 143.5t99.5 113.5t128.5 74t144 26q75 0 134 -26t98.5 -74t54 -113.5t-1.5 -143.5q-15 -79 -55.5 -144.5t-99 -113t-128.5 -73.5t-145 -26zM363 108q64 0 119.5 30t94.5 85t53 127q14 73 -3.5 127
t-60.5 84.5t-107 30.5t-120 -30.5t-95 -84.5t-53 -127q-14 -72 3 -126.5t61 -85t108 -30.5z" />
    <glyph glyph-name="P" unicode="P" horiz-adv-x="641" 
d="M378 380q40 0 68.5 12.5t46 36t23.5 55.5t-2 55.5t-31.5 35.5t-62.5 12h-150l-41 -207h149zM653 484q-10 -52 -45 -102t-97 -82.5t-151 -32.5h-153l-54 -267h-135l140 700h288q84 0 133.5 -29.5t67.5 -79t6 -107.5z" />
    <glyph glyph-name="Q" unicode="Q" 
d="M324 213h122l-62 -308h-121zM339 -7q-73 0 -132.5 26t-99 73.5t-54.5 113t0 144.5q16 78 57 143.5t99.5 113.5t128.5 74t143 26q76 0 135 -26t98.5 -74t54 -113.5t-1.5 -143.5q-15 -79 -55.5 -144.5t-99 -113t-128.5 -73.5t-145 -26zM363 108q64 0 119 30.5t94.5 85
t53.5 126.5q14 73 -3.5 127t-60.5 84.5t-107 30.5q-65 0 -120.5 -30.5t-94.5 -84.5t-53 -127q-14 -72 3 -126.5t61 -85t108 -30.5z" />
    <glyph glyph-name="R" unicode="R" horiz-adv-x="655" 
d="M516 484q6 32 -2 55t-31.5 35.5t-62.5 12.5h-150l-41 -207h149q60 0 94 28t44 76zM446 700q84 0 133.5 -29.5t67.5 -79t6 -107.5q-10 -52 -45 -102t-97 -82.5t-151 -32.5h-153l-54 -267h-135l140 700h288zM444 312l127 -312h-151l-119 312h143z" />
    <glyph glyph-name="S" unicode="S" horiz-adv-x="592" 
d="M156 198q-1 -28 12 -49t38 -32.5t62 -11.5q58 0 92.5 26.5t41.5 64.5q7 30 -7.5 50t-44 34t-69.5 27q-39 12 -75 26t-63.5 35t-40 54.5t-1.5 84.5q13 64 53 109t100 68t132 23q61 0 107 -17.5t72.5 -51t31.5 -82.5l-130 -34q-2 22 -15.5 38t-36 25.5t-49.5 9.5
q-31 1 -57.5 -9t-45 -29t-24.5 -44q-5 -28 8.5 -44.5t39.5 -28t58 -22.5q39 -12 78 -27.5t70 -39t45 -59.5t3 -91q-11 -58 -48 -105t-97.5 -75t-143.5 -28q-68 0 -119 20t-80 58.5t-29 91.5z" />
    <glyph glyph-name="T" unicode="T" horiz-adv-x="635" 
d="M123 700h568l-23 -113h-216l-116 -587h-135l116 587h-216z" />
    <glyph glyph-name="U" unicode="U" horiz-adv-x="709" 
d="M154 700h135l-88 -442q-10 -49 3 -82.5t44.5 -50.5t76.5 -17q46 0 84 17t65 50.5t37 82.5l88 442h135l-87 -435q-13 -69 -48 -120t-82.5 -85t-103.5 -50.5t-113 -16.5q-76 0 -135 30t-87 90t-11 152z" />
    <glyph glyph-name="V" unicode="V" horiz-adv-x="722" 
d="M645 700h144l-396 -700h-163l-117 700h144l82 -562z" />
    <glyph glyph-name="W" unicode="W" horiz-adv-x="1023" 
d="M325 0h-158l-54 700h144l21 -544l248 544h151l31 -542l236 542h146l-333 -700h-159l-37 502z" />
    <glyph glyph-name="X" unicode="X" horiz-adv-x="754" 
d="M134 700h154l132 -246l225 246h153l-320 -350l181 -350h-153l-128 246l-229 -246h-154l325 350z" />
    <glyph glyph-name="Y" unicode="Y" horiz-adv-x="705" 
d="M620 700h152l-353 -454l-49 -246h-135l49 245l-171 455h151l113 -325z" />
    <glyph glyph-name="Z" unicode="Z" horiz-adv-x="603" 
d="M627 597l-451 -484h354l-22 -113h-513l21 103l449 484h-352l21 113h513z" />
    <glyph glyph-name="bracketleft" unicode="[" horiz-adv-x="348" 
d="M174 800h243l-22 -111h-116l-134 -677h116l-23 -112h-243z" />
    <glyph glyph-name="backslash" unicode="\" horiz-adv-x="373" 
d="M303 -100h-132l-62 900h132z" />
    <glyph glyph-name="bracketright" unicode="]" horiz-adv-x="348" 
d="M393 800l-179 -900h-243l22 112h116l135 677h-116l22 111h243z" />
    <glyph glyph-name="asciicircum" unicode="^" horiz-adv-x="697" 
d="M407 539l-224 -289h-139l328 450h130l151 -450h-140z" />
    <glyph glyph-name="underscore" unicode="_" horiz-adv-x="578" 
d="M11 -40h582l-26 -128h-582z" />
    <glyph glyph-name="grave" unicode="`" horiz-adv-x="250" 
d="M121 807l205 -118l-19 -97l-207 106z" />
    <glyph glyph-name="a" unicode="a" horiz-adv-x="529" 
d="M306 0l2 61q-31 -31 -66 -49t-88 -18q-50 0 -84 17.5t-49 49t-6 74.5q12 63 66 104.5t148 52.5l128 14l7 35q4 21 -11.5 39t-55.5 18q-36 0 -66 -17.5t-46 -52.5l-103 40q34 67 97 103t145 36q100 0 141 -49.5t25 -130.5l-66 -327h-118zM339 217l-110 -14
q-34 -4 -54.5 -19.5t-24.5 -37.5q-5 -21 10 -35.5t45 -14.5q35 0 62.5 13t45 38t25.5 62z" />
    <glyph glyph-name="b" unicode="b" horiz-adv-x="593" 
d="M208 425q30 34 77.5 58t105.5 24q66 0 109.5 -31.5t60 -89.5t0.5 -136q-15 -78 -54.5 -135.5t-96 -89.5t-122.5 -32q-51 0 -87 20.5t-53 48.5l-20 -62h-116l143 720h128l-59 -297zM423 250q14 63 -11 101.5t-77 38.5q-32 0 -62 -16.5t-52 -47.5t-32 -76q-9 -45 1 -76
t33.5 -47.5t55.5 -16.5q35 0 65 17.5t50.5 49.5t28.5 73z" />
    <glyph glyph-name="c" unicode="c" horiz-adv-x="549" 
d="M231 -7q-73 0 -122 32t-68.5 89.5t-4.5 133.5q15 77 58 135t105.5 91t135.5 33q79 0 132.5 -39t65.5 -105l-126 -34q-6 29 -29.5 46t-59.5 17q-35 0 -65 -18t-51 -50t-30 -75q-12 -65 12.5 -103t78.5 -38q34 0 65 16.5t51 45.5l110 -34q-39 -65 -109 -104t-149 -39z" />
    <glyph glyph-name="d" unicode="d" horiz-adv-x="598" 
d="M460 425l-17 -2l59 297h128l-143 -720h-116l4 62q-28 -28 -72 -48.5t-96 -20.5q-65 0 -108.5 32t-60.5 89.5t-2 135.5q16 78 55.5 136t96 89.5t121.5 31.5q59 0 96.5 -24t54.5 -58zM174 250q-13 -63 12 -101.5t77 -38.5q32 0 62 16.5t52 47.5t31 76t-0.5 76t-33 47.5
t-55.5 16.5q-35 0 -64.5 -17.5t-51 -49t-29.5 -73.5z" />
    <glyph glyph-name="e" unicode="e" horiz-adv-x="560" 
d="M238 -7q-75 0 -125.5 33t-70.5 92t-5 136q15 74 57.5 131t104.5 89.5t133 32.5q72 0 121 -31t68 -86.5t5 -129.5q-3 -11 -6.5 -24.5t-9.5 -28.5h-344q-1 -32 10.5 -54.5t33.5 -35t54 -12.5q37 0 69 15.5t50 40.5l107 -34q-43 -64 -109 -99t-143 -35zM393 300
q5 28 -4.5 50.5t-29.5 35t-49 12.5q-25 0 -49.5 -13t-44 -34.5t-30.5 -50.5h207z" />
    <glyph glyph-name="f" unicode="f" horiz-adv-x="330" 
d="M146 545q19 97 79.5 142t164.5 33l-23 -113q-42 6 -64 -12t-30 -56l-8 -39h87l-23 -113h-87l-76 -387h-129l77 387h-59l22 113h59z" />
    <glyph glyph-name="g" unicode="g" horiz-adv-x="598" 
d="M470 500h116l-84 -426q-17 -85 -71 -146.5t-140 -94.5t-198 -33l2 108q120 2 191 43t87 118v2l18 6q-30 -35 -77 -59.5t-106 -24.5q-65 0 -109 32t-61 89.5t-2 135.5q16 78 56 136t96.5 89.5t122.5 31.5q34 0 61.5 -9.5t47 -25t30.5 -34.5zM174 250q-13 -63 12.5 -101.5
t78.5 -38.5q31 0 60.5 16.5t52 48.5t30.5 75q9 45 -0.5 76t-33 47.5t-54.5 16.5q-35 0 -65 -17.5t-51.5 -49t-29.5 -73.5z" />
    <glyph glyph-name="h" unicode="h" horiz-adv-x="567" 
d="M155 720h128l-54 -269q30 25 67 40.5t80 15.5q57 0 94.5 -25t50.5 -72.5t0 -117.5l-58 -292h-135l55 275q11 58 -6 87t-64 29q-46 0 -77 -31.5t-42 -89.5l-54 -270h-128z" />
    <glyph glyph-name="i" unicode="i" horiz-adv-x="285" 
d="M128 500h128l-99 -500h-128zM206 564q-36 0 -54.5 22.5t-12.5 55.5q7 33 34.5 55.5t63.5 22.5q35 0 53.5 -22.5t11.5 -55.5q-6 -33 -34 -55.5t-62 -22.5z" />
    <glyph glyph-name="j" unicode="j" horiz-adv-x="279" 
d="M32 38q-11 -53 -47 -87.5t-93 -39.5l-2 -111q58 2 114 29.5t99 80t57 127.5l92 463h-128zM201 564q-36 0 -54 22.5t-12 55.5t33.5 55.5t63.5 22.5q35 0 54 -22.5t12 -55.5q-6 -33 -34 -55.5t-63 -22.5z" />
    <glyph glyph-name="k" unicode="k" horiz-adv-x="568" 
d="M155 720h129l-83 -415h33l203 195h168l-270 -248l172 -252h-168l-127 198h-32l-39 -198h-129z" />
    <glyph glyph-name="l" unicode="l" horiz-adv-x="251" 
d="M155 720h128l-143 -720h-128z" />
    <glyph glyph-name="m" unicode="m" horiz-adv-x="883" 
d="M111 500h116v-49q29 25 65.5 40.5t76.5 15.5q48 0 84 -20.5t53 -58.5q33 37 81 58t99 21q59 0 97.5 -25t52.5 -72.5t1 -117.5l-58 -292h-128l54 275q11 57 -7.5 86t-64.5 29q-47 0 -79.5 -30t-43.5 -87l-55 -273h-128l55 275q11 57 -5.5 86t-63.5 29t-77 -29.5t-41 -86.5
l-55 -274h-128z" />
    <glyph glyph-name="n" unicode="n" horiz-adv-x="561" 
d="M111 500h116v-51q30 27 67 42.5t77 15.5q59 0 95.5 -25t49 -72.5t-0.5 -117.5l-58 -292h-129l55 275q11 58 -6 87t-64 29q-46 0 -76.5 -29.5t-41.5 -87.5l-55 -274h-128z" />
    <glyph glyph-name="o" unicode="o" horiz-adv-x="584" 
d="M238 -7q-73 0 -123.5 31.5t-72 89t-6.5 135.5q16 79 61 137t109.5 89.5t136.5 31.5t124 -31.5t74 -89t7 -135.5q-16 -79 -62 -137t-110.5 -89.5t-137.5 -31.5zM260 108q32 0 63 15.5t54.5 47t33.5 80.5q9 47 -1.5 78.5t-35 47t-56.5 15.5q-31 0 -60.5 -15.5t-52 -47
t-31.5 -80.5q-9 -47 0 -78.5t32 -47t54 -15.5z" />
    <glyph glyph-name="p" unicode="p" horiz-adv-x="598" 
d="M138 75l17 2l-55 -277h-128l139 700h116l-4 -62q19 19 45 35t57 25t66 9q65 0 108.5 -32t60.5 -89.5t1 -135.5q-15 -78 -54.5 -136t-96 -89.5t-122.5 -31.5q-58 0 -95.5 24t-54.5 58zM423 250q14 63 -11 101.5t-77 38.5q-32 0 -62 -16.5t-52 -47t-32 -76.5q-9 -45 1 -76
t33.5 -47.5t55.5 -16.5q35 0 65 17.5t50.5 49t28.5 73.5z" />
    <glyph glyph-name="q" unicode="q" horiz-adv-x="598" 
d="M389 75q-29 -34 -76.5 -58t-105.5 -24q-66 0 -109.5 31.5t-60 89.5t-1.5 136q16 78 55.5 135.5t96 89.5t121.5 32q35 0 62.5 -9t47 -25t31.5 -35l20 62h116l-139 -700h-128l55 277zM174 250q-13 -63 12 -101.5t77 -38.5q31 0 61.5 16.5t52.5 47.5t31 76q9 46 -0.5 76.5
t-33.5 47t-56 16.5q-34 0 -64 -17.5t-51 -49.5t-29 -73z" />
    <glyph glyph-name="r" unicode="r" horiz-adv-x="380" 
d="M111 500h116l-3 -64q25 26 55.5 42.5t63 23t66.5 -1.5l-24 -120q-24 9 -54 5t-59.5 -21t-53 -48.5t-32.5 -79.5l-47 -236h-128z" />
    <glyph glyph-name="s" unicode="s" horiz-adv-x="488" 
d="M134 163q1 -25 13 -38t30 -18.5t36 -5.5q35 0 57.5 13.5t27.5 34.5q3 18 -8.5 28.5t-32 16t-43.5 11.5q-26 7 -54 15.5t-53 24.5t-37.5 41.5t-4.5 64.5q9 46 42 81t82 55t109 20q71 0 114 -30t53 -86l-118 -32q-3 14 -13 23t-26 13t-32 4q-30 0 -51 -11.5t-25 -31.5
q-2 -12 3 -19.5t17 -12.5t27.5 -9t34.5 -9q29 -8 58.5 -18.5t52.5 -26.5t34.5 -43t3.5 -68q-8 -44 -40 -79.5t-83 -56.5t-118 -21q-78 0 -125.5 33t-51.5 103z" />
    <glyph glyph-name="t" unicode="t" horiz-adv-x="367" 
d="M148 500l28 140h130l-28 -140h110l-22 -113h-111l-40 -203q-8 -39 5.5 -55t39 -17t52.5 3l-22 -110q-49 -10 -91.5 -6t-72.5 23.5t-41.5 59.5t0.5 102l40 203h-70l22 113h71z" />
    <glyph glyph-name="u" unicode="u" horiz-adv-x="562" 
d="M451 0h-117l2 52q-29 -28 -67 -43.5t-77 -15.5q-58 0 -95 25t-50.5 72.5t-0.5 117.5l58 292h129l-55 -276q-11 -57 6.5 -86.5t63.5 -29.5q47 0 77.5 30t42.5 87l54 275h128z" />
    <glyph glyph-name="v" unicode="v" horiz-adv-x="555" 
d="M208 500l49 -356l190 356h137l-285 -500h-143l-86 500h138z" />
    <glyph glyph-name="w" unicode="w" horiz-adv-x="770" 
d="M250 0h-131l-49 500h132l16 -338l155 338h128l18 -338l149 338h131l-247 -500h-134l-21 314z" />
    <glyph glyph-name="x" unicode="x" horiz-adv-x="548" 
d="M75 500h147l71 -154l132 154h149l-226 -249l126 -251h-148l-71 155l-132 -155h-148l225 251z" />
    <glyph glyph-name="y" unicode="y" horiz-adv-x="557" 
d="M455 500h137l-435 -700h-129l138 218l-101 482h143l57 -329z" />
    <glyph glyph-name="z" unicode="z" horiz-adv-x="484" 
d="M471 399l-296 -286h241l-22 -113h-403l20 102l295 285h-238l22 113h401z" />
    <glyph glyph-name="braceleft" unicode="{" horiz-adv-x="389" 
d="M66 392q33 2 56 11t37 24t17 34q6 29 8.5 65.5t6 74.5t9.5 70q13 63 65.5 96t126.5 33h69l-19 -92h-42q-32 0 -49.5 -11.5t-21.5 -36.5q-5 -24 -8 -60t-6.5 -73t-10.5 -70q-8 -41 -38.5 -69t-87.5 -37v-1q53 -9 72.5 -37.5t11.5 -69.5q-7 -32 -18 -69.5t-22.5 -72.5
t-16.5 -60t8 -36.5t45 -11.5h42l-18 -93h-69q-74 0 -113.5 34t-26.5 97q6 32 18 69.5t24 74t17 64.5q4 20 -3.5 34.5t-27.5 23.5t-52 11z" />
    <glyph glyph-name="bar" unicode="|" horiz-adv-x="298" 
d="M326 800l-179 -900h-135l179 900h135z" />
    <glyph glyph-name="braceright" unicode="}" horiz-adv-x="389" 
d="M379 392l-17 -84q-32 -2 -55.5 -11t-37 -23.5t-17.5 -34.5q-5 -28 -8 -64.5t-6.5 -74t-9.5 -69.5q-12 -63 -64.5 -97t-126.5 -34h-69l19 93h42q31 0 48.5 11.5t22.5 36.5t8 60t6 72.5t10 69.5q8 41 38.5 69.5t87.5 37.5v1q-53 9 -72.5 37t-11.5 69q7 33 18.5 70t22.5 73
t16 60q5 25 -8 36.5t-44 11.5h-42l18 92h69q74 0 113 -33t27 -96q-7 -32 -19 -70t-23.5 -74.5t-17.5 -65.5q-3 -19 4.5 -34t27.5 -24t51 -11z" />
    <glyph glyph-name="asciitilde" unicode="~" horiz-adv-x="614" 
d="M49 258q36 99 91 142t120 43q32 0 53.5 -10t39 -23t35 -22.5t38.5 -9.5q25 0 46.5 15.5t33.5 48.5h99q-36 -98 -91 -141t-121 -43q-31 0 -52.5 9.5t-39 22.5t-34.5 23t-39 10q-26 0 -47.5 -16.5t-33.5 -48.5h-98z" />
    <glyph glyph-name="uni00A0" unicode="&#xa0;" horiz-adv-x="280" 
 />
    <glyph glyph-name="exclamdown" unicode="&#xa1;" horiz-adv-x="289" 
d="M-5 -138l110 475h114l-78 -475h-146zM209 569q36 0 54.5 -23t12.5 -57q-7 -34 -35 -57.5t-64 -23.5q-37 0 -56 23.5t-12 57.5q6 34 34.5 57t65.5 23z" />
    <glyph glyph-name="cent" unicode="&#xa2;" horiz-adv-x="549" 
d="M329 600h64l-33 -167h-64zM226 82h64l-36 -182h-64zM231 -7q-73 0 -122 32t-68.5 89.5t-4.5 133.5q15 77 58 135t105.5 91t135.5 33q79 0 132.5 -39t65.5 -105l-126 -34q-6 29 -29.5 46t-59.5 17q-35 0 -65 -18t-51 -50t-30 -75q-12 -65 12.5 -103t78.5 -38q34 0 65 16.5
t51 45.5l110 -34q-39 -65 -109 -104t-149 -39z" />
    <glyph glyph-name="sterling" unicode="&#xa3;" horiz-adv-x="618" 
d="M434 707q78 0 122 -30t58.5 -79.5t4.5 -109.5h-124q9 46 -8.5 76t-73.5 30q-30 0 -56 -12t-45 -37.5t-27 -66.5q-6 -31 -4 -57.5t7 -50.5t7.5 -48.5t-3.5 -52.5q-8 -42 -32 -83.5t-66 -76.5h355l-21 -109h-481l-8 70q50 41 80.5 85t44.5 115q6 27 3 48.5t-8.5 44.5
t-7.5 52.5t7 72.5q14 69 53.5 118t97 75t125.5 26zM479 389l-19 -93h-403l18 93h404z" />
    <glyph glyph-name="currency" unicode="&#xa4;" horiz-adv-x="550" 
d="M336 556q57 0 96 -22t56.5 -61.5t6.5 -95.5q-11 -54 -44.5 -94.5t-82 -62.5t-104.5 -22q-86 0 -129.5 49t-27.5 130q11 56 44 95.5t81 61.5t104 22zM319 475q-34 0 -63.5 -24.5t-39.5 -73.5q-10 -48 10.5 -72.5t53.5 -24.5q21 0 43 11t38.5 32.5t23.5 53.5q6 33 -1.5 55
t-25 32.5t-39.5 10.5zM185 451l-72 90l68 57l77 -96zM392 501l116 97l44 -57l-115 -97zM417 304l71 -88l-68 -57l-74 91zM215 260l-121 -101l-46 57l110 92z" />
    <glyph glyph-name="yen" unicode="&#xa5;" horiz-adv-x="705" 
d="M458 407h193l-19 -96h-202zM80 232h536l-19 -94h-535zM115 407h219l-10 -96h-228zM620 700h152l-353 -454l-49 -246h-135l49 245l-171 455h151l113 -325z" />
    <glyph glyph-name="brokenbar" unicode="&#xa6;" horiz-adv-x="299" 
d="M224 284l-77 -384h-135l76 384h136zM115 416l76 384h135l-75 -384h-136z" />
    <glyph glyph-name="section" unicode="&#xa7;" horiz-adv-x="462" 
d="M131 575q7 36 32.5 66t66 48t92.5 18q72 0 109.5 -36t26.5 -99h-103q3 20 -1 33.5t-16 21t-31 7.5q-29 0 -48 -13t-24 -38q-6 -26 14.5 -43.5t84.5 -44.5q40 -17 66.5 -37.5t37 -46.5t4.5 -61q-7 -33 -27.5 -60.5t-57 -47.5t-89.5 -33l21 46q29 -14 49.5 -32.5t29.5 -42
t3 -55.5q-7 -36 -32.5 -66.5t-66 -48t-92.5 -17.5q-71 0 -109 36t-26 99h102q-3 -19 1 -33t15.5 -21.5t31.5 -7.5q29 0 48 13t25 39q3 17 -4.5 29.5t-30.5 26t-65 31.5q-40 17 -66.5 37.5t-37 47t-3.5 60.5q6 33 27 61.5t56.5 48t87.5 26.5l-19 -41q-29 15 -50 33t-29.5 42
t-2.5 55zM336 350q6 30 -13 51.5t-58 21.5t-65.5 -21.5t-32.5 -51.5t12.5 -52t57.5 -22t65.5 22t33.5 52z" />
    <glyph glyph-name="dieresis" unicode="&#xa8;" horiz-adv-x="334" 
d="M149 620q-28 0 -43 19t-9 46q5 27 27.5 46.5t50.5 19.5q27 0 42.5 -19.5t10.5 -46.5q-6 -27 -29 -46t-50 -19zM332 620q-28 0 -43 19t-9 46q5 27 27.5 46.5t50.5 19.5q27 0 42 -19.5t10 -46.5t-28 -46t-50 -19z" />
    <glyph glyph-name="copyright" unicode="&#xa9;" horiz-adv-x="791" 
d="M487 707q104 0 173.5 -45.5t98 -126t7.5 -185.5q-16 -78 -54.5 -143.5t-94 -113.5t-125 -74t-147.5 -26q-104 0 -173.5 45.5t-98 126t-7.5 185.5q16 78 54 144t94 113.5t125.5 73.5t147.5 26zM477 657q-91 0 -165 -37.5t-123.5 -107t-68.5 -162.5q-18 -92 4 -161
t81 -107.5t150 -38.5q68 0 127 22t105.5 62.5t78.5 96.5t46 126q18 93 -4 162.5t-81 107t-150 37.5zM362 91q-73 0 -122 32t-68.5 89.5t-4.5 134.5q15 76 58 134.5t105 91t136 32.5q79 0 132.5 -38.5t65.5 -105.5l-125 -34q-6 29 -30.5 46t-59.5 17q-36 0 -65.5 -18
t-50.5 -50t-30 -75q-12 -64 12.5 -102t77.5 -38q35 0 66 16t51 45l111 -34q-40 -65 -110 -103.5t-149 -39.5z" />
    <glyph glyph-name="ordfeminine" unicode="&#xaa;" horiz-adv-x="465" 
d="M84 530q11 54 41.5 94.5t73 63t88.5 22.5q45 0 72.5 -15.5t40.5 -36.5l9 46h104l-69 -351h-104l8 45q-20 -21 -53.5 -35.5t-76.5 -14.5q-48 0 -82 22.5t-48.5 64t-3.5 95.5zM192 529q-10 -48 12.5 -74t58.5 -26t69 26t43 74q9 48 -13.5 73.5t-58.5 25.5q-35 0 -68 -25.5
t-43 -73.5z" />
    <glyph glyph-name="guillemotleft" unicode="&#xab;" horiz-adv-x="497" 
d="M217 75h-129l-54 175l123 175h129l-127 -175zM422 75h-129l-55 175l124 175h129l-128 -175z" />
    <glyph glyph-name="logicalnot" unicode="&#xac;" horiz-adv-x="658" 
d="M68 437h586l-48 -240h-136l28 136h-451z" />
    <glyph glyph-name="uni00AD" unicode="&#xad;" horiz-adv-x="511" 
d="M61 336h422l-22 -114h-422z" />
    <glyph glyph-name="registered" unicode="&#xae;" horiz-adv-x="516" 
d="M95 495q12 62 49 109.5t90.5 75t115.5 27.5q61 0 103 -27.5t60 -75t6 -109.5q-13 -62 -49.5 -109.5t-89.5 -75t-115 -27.5t-104.5 27.5t-60.5 75t-5 109.5zM149 495q-10 -47 2 -84t44 -57.5t80 -20.5t88 20.5t66.5 57.5t35.5 84q10 49 -2 85t-43.5 56.5t-80.5 20.5
t-88.5 -20.5t-66 -56.5t-35.5 -85zM241 605l-43 -214h67l15 75h38q34 0 59.5 19t31.5 50q6 32 -11.5 51t-51.5 19h-105zM314 391h78l-42 97l-71 -1zM327 547q7 0 11.5 -3.5t3.5 -11.5q-2 -9 -8 -12.5t-13 -3.5h-32l7 31h31z" />
    <glyph glyph-name="macron" unicode="&#xaf;" horiz-adv-x="400" 
d="M106 730h379l-20 -97h-379z" />
    <glyph glyph-name="degree" unicode="&#xb0;" horiz-adv-x="428" 
d="M75 525q11 56 44 94.5t80.5 59.5t104.5 21q84 0 129 -46t29 -129q-11 -54 -44 -93.5t-81 -60.5t-105 -21q-85 0 -129 46.5t-28 128.5zM355 525q11 52 -11.5 75.5t-55.5 23.5q-34 0 -65.5 -23.5t-41.5 -75.5q-11 -52 11 -75.5t56 -23.5q33 0 65 23.5t42 75.5z" />
    <glyph glyph-name="plusminus" unicode="&#xb1;" horiz-adv-x="700" 
d="M484 601l-92 -461h-127l91 461h128zM138 462h509l-24 -117h-509zM89 217h509l-24 -118h-509z" />
    <glyph glyph-name="uni00B2" unicode="&#xb2;" horiz-adv-x="355" 
d="M99 593q12 50 57.5 82t114.5 32q45 0 73 -16t39 -42t5 -55q-5 -24 -16.5 -43.5t-35 -38t-64.5 -39.5l-124 -71l8 31h198l-16 -83h-284l15 77l129 79q33 21 53.5 39t25.5 43q4 19 -4.5 30.5t-24.5 11.5q-17 0 -28 -10t-16 -27h-105z" />
    <glyph glyph-name="uni00B3" unicode="&#xb3;" horiz-adv-x="373" 
d="M104 598q8 30 31 55t59.5 39.5t83.5 14.5q64 0 99 -30t26 -75q-6 -31 -27.5 -49t-51.5 -25v-3q28 -9 43 -29.5t8 -52.5q-8 -44 -56 -72t-115 -28q-73 0 -106.5 31t-25.5 84h104q-1 -20 9.5 -30t29.5 -10t34 10.5t19 30.5q3 19 -8 30t-33 11h-35l11 57h31q22 0 37 8.5
t18 27.5q4 18 -5 28t-30 10q-19 0 -31.5 -9t-19.5 -24h-99z" />
    <glyph glyph-name="acute" unicode="&#xb4;" horiz-adv-x="250" 
d="M350 807l-22 -110l-250 -105l20 97z" />
    <glyph glyph-name="uni00B5" unicode="&#xb5;" horiz-adv-x="599" 
d="M488 0h-136l11 57q-28 -28 -65 -43.5t-77 -17.5q-14 0 -26.5 1.5t-24.5 5t-21 8.5l-43 -211h-134l139 700h134l-54 -276q-8 -37 -0.5 -62.5t28.5 -38.5t52 -13q46 0 80.5 29.5t45.5 86.5l54 274h136z" />
    <glyph glyph-name="paragraph" unicode="&#xb6;" horiz-adv-x="654" 
d="M676 700l-139 -700h-116l118 596h-65l-119 -596h-116l56 281h-18q-83 0 -129.5 29t-61.5 77t-4 103q11 57 45 104.5t92.5 76.5t141.5 29h315z" />
    <glyph glyph-name="periodcentered" unicode="&#xb7;" horiz-adv-x="258" 
d="M128 247q-36 0 -55 23t-12 57q6 34 34.5 57.5t64.5 23.5t55 -23.5t13 -57.5q-7 -34 -35.5 -57t-64.5 -23z" />
    <glyph glyph-name="cedilla" unicode="&#xb8;" horiz-adv-x="293" 
d="M94 -44q34 0 61.5 -11.5t41 -35.5t5.5 -61q-7 -37 -30.5 -62t-56 -37.5t-67.5 -12.5h-140l16 80h117q24 0 38.5 7t17.5 26q5 20 -7 26.5t-36 6.5h-61l25 125h86z" />
    <glyph glyph-name="uni00B9" unicode="&#xb9;" horiz-adv-x="229" 
d="M154 624h-57l15 76h160l-69 -350h-104z" />
    <glyph glyph-name="ordmasculine" unicode="&#xba;" horiz-adv-x="447" 
d="M83 528q11 55 44.5 95.5t82 63t105.5 22.5t96.5 -22.5t56.5 -63t7 -95.5q-12 -53 -45.5 -94t-82.5 -64t-105 -23q-58 0 -97 23t-56 64t-6 94zM367 527q11 51 -12 76.5t-57 25.5t-66 -25.5t-42 -76.5q-10 -48 11 -73.5t57 -25.5q34 0 67 25.5t42 73.5z" />
    <glyph glyph-name="guillemotright" unicode="&#xbb;" horiz-adv-x="497" 
d="M210 75l128 175l-58 175h128l55 -175l-125 -175h-128zM6 75l127 175l-57 175h128l54 -175l-124 -175h-128z" />
    <glyph glyph-name="onequarter" unicode="&#xbc;" horiz-adv-x="711" 
d="M541 700h129l-520 -700h-130zM659 128l-12 -63h-43l-13 -65h-105l14 65h-190l11 57l196 231h144l-45 -225h43zM516 129l29 149l-120 -149h91zM154 623h-57l15 76h160l-69 -350h-104z" />
    <glyph glyph-name="onehalf" unicode="&#xbd;" horiz-adv-x="732" 
d="M540 700h130l-520 -700h-130zM154 623h-57l15 76h160l-69 -350h-104zM395 242q13 50 58 82t113 32q47 0 74.5 -16t38.5 -42t5 -55q-5 -24 -16.5 -43.5t-35 -38t-64.5 -39.5l-124 -71l8 31h199l-17 -83h-284l15 77l129 79q34 21 54 39t25 43q4 19 -4.5 30.5t-24.5 11.5
t-27.5 -10t-16.5 -27h-105z" />
    <glyph glyph-name="threequarters" unicode="&#xbe;" horiz-adv-x="792" 
d="M627 700h129l-519 -700h-128zM745 128l-12 -63h-43l-13 -65h-104l13 65h-190l11 57l191 231h149l-45 -225h43zM601 128l32 154l-123 -154h91zM96 598q8 30 31 55t59.5 39.5t84.5 14.5q63 0 98.5 -30t26.5 -75q-6 -31 -28 -49t-51 -25v-3q27 -9 42 -29.5t9 -52.5
q-8 -44 -56 -72t-116 -28q-73 0 -106.5 31t-25.5 84h104q0 -20 10 -30t30 -10q19 0 33.5 10.5t18.5 30.5q4 19 -7 30t-33 11h-36l11 57h31q23 0 37.5 8.5t18.5 27.5q4 18 -5.5 28t-29.5 10t-32.5 -9t-18.5 -24h-100z" />
    <glyph glyph-name="questiondown" unicode="&#xbf;" horiz-adv-x="548" 
d="M195 -149q-68 0 -114.5 25t-66.5 72t-7 114q14 68 53 112.5t95.5 66.5t122.5 23l20 77h118l-28 -168h-43q-40 0 -73.5 -4.5t-59.5 -16.5t-43.5 -34t-23.5 -57q-9 -45 9.5 -70t64.5 -25q47 0 78 24.5t41 70.5h127q-11 -60 -47.5 -107.5t-93 -75t-129.5 -27.5zM399 565
q35 0 54.5 -23t12.5 -57t-35.5 -57.5t-64.5 -23.5q-35 0 -54.5 23.5t-12.5 57.5t35.5 57t64.5 23z" />
    <glyph glyph-name="Agrave" unicode="&#xc0;" horiz-adv-x="739" 
d="M454 587h-35l-323 -587h-139l390 700h223l112 -700h-139zM163 274h408l-23 -113h-407zM392 968l205 -119l-20 -97l-207 106z" />
    <glyph glyph-name="Aacute" unicode="&#xc1;" horiz-adv-x="739" 
d="M454 587h-35l-323 -587h-139l390 700h223l112 -700h-139zM163 274h408l-23 -113h-407zM620 968l-22 -111l-249 -105l19 97z" />
    <glyph glyph-name="Acircumflex" unicode="&#xc2;" horiz-adv-x="739" 
d="M454 587h-35l-323 -587h-139l390 700h223l112 -700h-139zM163 274h408l-23 -113h-407zM617 753l-131 84l-164 -84l20 100l163 82l132 -82z" />
    <glyph glyph-name="Atilde" unicode="&#xc3;" horiz-adv-x="739" 
d="M454 587h-35l-323 -587h-139l390 700h223l112 -700h-139zM163 274h408l-23 -113h-407zM292 757q24 67 63 98t86 31q21 0 36 -6.5t27 -15.5t23.5 -15.5t26.5 -6.5q17 0 30.5 10t20.5 33h73q-23 -67 -61.5 -98t-86.5 -31q-21 0 -35.5 6.5t-26.5 15.5t-23.5 16t-26.5 7
q-17 0 -30.5 -11t-22.5 -33h-73z" />
    <glyph glyph-name="Adieresis" unicode="&#xc4;" horiz-adv-x="739" 
d="M454 587h-35l-323 -587h-139l390 700h223l112 -700h-139zM163 274h408l-23 -113h-407zM383 781q-28 0 -42.5 18.5t-9.5 45.5q5 28 27.5 47t50.5 19q27 0 42.5 -19t9.5 -47q-5 -27 -28 -45.5t-50 -18.5zM566 781q-28 0 -43 18.5t-9 45.5q5 28 27.5 47t50.5 19q27 0 42 -19
t10 -47q-5 -27 -28 -45.5t-50 -18.5z" />
    <glyph glyph-name="Aring" unicode="&#xc5;" horiz-adv-x="739" 
d="M454 587h-35l-323 -587h-139l390 700h223l112 -700h-139zM163 274h408l-23 -113h-407zM607 856q-11 -52 -51 -82.5t-89 -30.5q-47 0 -75 30.5t-18 82.5q10 54 50.5 84.5t88.5 30.5t76 -30.5t18 -84.5zM538 857q5 23 -6.5 36.5t-31.5 13.5q-19 0 -36 -13.5t-22 -36.5
q-4 -22 7 -36t31 -14t37 14t21 36z" />
    <glyph glyph-name="AE" unicode="&#xc6;" horiz-adv-x="918" 
d="M673 587l-35 -178h170l-22 -110h-170l-37 -186h264l-23 -113h-398l32 161h-234l-117 -161h-146l513 700h489l-22 -113h-264zM301 274h175l65 329z" />
    <glyph glyph-name="Ccedilla" unicode="&#xc7;" horiz-adv-x="757" 
d="M53 350q16 79 56 144.5t98 113t127.5 73.5t143.5 26q108 0 182 -51.5t95 -147.5l-119 -33q-13 42 -40 68t-63 38t-75 12q-64 0 -119.5 -30.5t-95 -85.5t-53.5 -127t3 -126.5t60.5 -85.5t108.5 -31q40 0 82 12.5t81.5 42.5t73.5 80l105 -31q-65 -109 -161 -163.5
t-207 -54.5q-74 0 -133 26t-98 74t-53 113.5t1 143.5zM372 -45q34 0 61 -11.5t41 -35.5t6 -62q-8 -36 -31 -61t-55.5 -37.5t-67.5 -12.5h-141l17 80h117q23 0 38 6.5t18 26.5q5 20 -7 26.5t-35 6.5h-62l25 125h86z" />
    <glyph glyph-name="Egrave" unicode="&#xc8;" horiz-adv-x="608" 
d="M627 587h-357l-36 -178h268l-22 -109h-267l-37 -187h356l-22 -113h-492l140 700h492zM334 968l205 -119l-19 -97l-208 106z" />
    <glyph glyph-name="Eacute" unicode="&#xc9;" horiz-adv-x="608" 
d="M627 587h-357l-36 -178h268l-22 -109h-267l-37 -187h356l-22 -113h-492l140 700h492zM563 968l-22 -111l-250 -105l20 97z" />
    <glyph glyph-name="Ecircumflex" unicode="&#xca;" horiz-adv-x="608" 
d="M627 587h-357l-36 -178h268l-22 -109h-267l-37 -187h356l-22 -113h-492l140 700h492zM559 753l-130 84l-165 -84l20 100l164 82l131 -82z" />
    <glyph glyph-name="Edieresis" unicode="&#xcb;" horiz-adv-x="608" 
d="M627 587h-357l-36 -178h268l-22 -109h-267l-37 -187h356l-22 -113h-492l140 700h492zM325 781q-27 0 -42 18.5t-10 45.5q6 28 28.5 47t49.5 19q28 0 43 -19t10 -47q-6 -27 -28.5 -45.5t-50.5 -18.5zM508 781q-27 0 -42 18.5t-10 45.5q6 28 28.5 47t49.5 19q28 0 43 -19
t9 -47q-5 -27 -27.5 -45.5t-50.5 -18.5z" />
    <glyph glyph-name="Igrave" unicode="&#xcc;" horiz-adv-x="365" 
d="M211 700h135l-140 -700h-135zM210 968l206 -119l-20 -97l-207 106z" />
    <glyph glyph-name="Iacute" unicode="&#xcd;" horiz-adv-x="365" 
d="M211 700h135l-140 -700h-135zM439 968l-22 -111l-249 -105l19 97z" />
    <glyph glyph-name="Icircumflex" unicode="&#xce;" horiz-adv-x="431" 
d="M238 700h135l-140 -700h-135zM463 753l-130 84l-165 -84l20 100l164 82l131 -82z" />
    <glyph glyph-name="Idieresis" unicode="&#xcf;" horiz-adv-x="449" 
d="M247 700h135l-140 -700h-135zM238 781q-27 0 -42 18.5t-10 45.5q6 28 28.5 47t49.5 19q28 0 43 -19t10 -47q-6 -27 -28.5 -45.5t-50.5 -18.5zM421 781q-27 0 -42 18.5t-10 45.5q6 28 28.5 47t49.5 19q28 0 43 -19t9 -47q-5 -27 -27.5 -45.5t-50.5 -18.5z" />
    <glyph glyph-name="Eth" unicode="&#xd0;" horiz-adv-x="764" 
d="M79 408h72l59 292h241q111 0 185 -43.5t104 -122.5t8 -186q-21 -106 -81.5 -184t-152 -121t-203.5 -43h-241l57 289h-71zM228 109h101q113 -1 186 64t95 175q22 111 -26 175.5t-160 64.5h-101l-35 -180h168l-24 -119h-168z" />
    <glyph glyph-name="Ntilde" unicode="&#xd1;" horiz-adv-x="715" 
d="M737 700l-140 -700h-138l-209 486l-97 -486h-135l140 700h137l209 -486l98 486h135zM294 757q23 67 62 98t86 31q21 0 35.5 -6.5t26.5 -15.5t24 -15.5t27 -6.5q17 0 30.5 10t20.5 33h73q-22 -67 -61.5 -98t-85.5 -31q-22 0 -36.5 6.5t-26.5 15.5t-23.5 16t-26.5 7
q-18 0 -31.5 -11t-21.5 -33h-72z" />
    <glyph glyph-name="Ograve" unicode="&#xd2;" 
d="M339 -7q-73 0 -132.5 26t-99 73.5t-54.5 113t0 144.5q16 78 57 143.5t99.5 113.5t128.5 74t143 26q76 0 135 -26t98.5 -74t54 -113.5t-1.5 -143.5q-15 -79 -55.5 -144.5t-99 -113t-128.5 -73.5t-145 -26zM363 108q64 0 119 30.5t94.5 85t53.5 126.5q14 73 -3.5 127
t-60.5 84.5t-107 30.5q-65 0 -120.5 -30.5t-94.5 -84.5t-53 -127q-14 -72 3 -126.5t61 -85t108 -30.5zM413 968l205 -119l-19 -97l-208 106z" />
    <glyph glyph-name="Oacute" unicode="&#xd3;" 
d="M339 -7q-73 0 -132.5 26t-99 73.5t-54.5 113t0 144.5q16 78 57 143.5t99.5 113.5t128.5 74t143 26q76 0 135 -26t98.5 -74t54 -113.5t-1.5 -143.5q-15 -79 -55.5 -144.5t-99 -113t-128.5 -73.5t-145 -26zM363 108q64 0 119 30.5t94.5 85t53.5 126.5q14 73 -3.5 127
t-60.5 84.5t-107 30.5q-65 0 -120.5 -30.5t-94.5 -84.5t-53 -127q-14 -72 3 -126.5t61 -85t108 -30.5zM642 968l-22 -111l-250 -105l20 97z" />
    <glyph glyph-name="Ocircumflex" unicode="&#xd4;" 
d="M339 -7q-73 0 -132.5 26t-99 73.5t-54.5 113t0 144.5q16 78 57 143.5t99.5 113.5t128.5 74t143 26q76 0 135 -26t98.5 -74t54 -113.5t-1.5 -143.5q-15 -79 -55.5 -144.5t-99 -113t-128.5 -73.5t-145 -26zM363 108q64 0 119 30.5t94.5 85t53.5 126.5q14 73 -3.5 127
t-60.5 84.5t-107 30.5q-65 0 -120.5 -30.5t-94.5 -84.5t-53 -127q-14 -72 3 -126.5t61 -85t108 -30.5zM639 753l-131 84l-165 -84l20 100l164 82l132 -82z" />
    <glyph glyph-name="Otilde" unicode="&#xd5;" 
d="M339 -7q-73 0 -132.5 26t-99 73.5t-54.5 113t0 144.5q16 78 57 143.5t99.5 113.5t128.5 74t143 26q76 0 135 -26t98.5 -74t54 -113.5t-1.5 -143.5q-15 -79 -55.5 -144.5t-99 -113t-128.5 -73.5t-145 -26zM363 108q64 0 119 30.5t94.5 85t53.5 126.5q14 73 -3.5 127
t-60.5 84.5t-107 30.5q-65 0 -120.5 -30.5t-94.5 -84.5t-53 -127q-14 -72 3 -126.5t61 -85t108 -30.5zM314 757q24 67 62.5 98t86.5 31q21 0 36 -6.5t26.5 -15.5t23 -15.5t26.5 -6.5q17 0 30.5 10t21.5 33h73q-23 -67 -62 -98t-86 -31q-21 0 -36 6.5t-27 15.5t-23.5 16
t-26.5 7q-16 0 -30 -11t-22 -33h-73z" />
    <glyph glyph-name="Odieresis" unicode="&#xd6;" 
d="M339 -7q-73 0 -132.5 26t-99 73.5t-54.5 113t0 144.5q16 78 57 143.5t99.5 113.5t128.5 74t144 26q75 0 134 -26t98.5 -74t54 -113.5t-1.5 -143.5q-15 -79 -55.5 -144.5t-99 -113t-128.5 -73.5t-145 -26zM363 108q64 0 119.5 30t94.5 85t53 127q14 73 -3.5 127
t-60.5 84.5t-107 30.5t-120 -30.5t-95 -84.5t-53 -127q-14 -72 3 -126.5t61 -85t108 -30.5zM404 781q-27 0 -42 18.5t-10 45.5q6 28 28 47t50 19t43 -19t10 -47q-5 -27 -28 -45.5t-51 -18.5zM587 781q-28 0 -42.5 18.5t-9.5 45.5q6 28 28 47t50 19t43 -19t9 -47
q-5 -27 -27.5 -45.5t-50.5 -18.5z" />
    <glyph glyph-name="multiply" unicode="&#xd7;" horiz-adv-x="572" 
d="M210 583l302 -378l-106 -88l-302 379zM42 206l453 377l71 -88l-453 -377z" />
    <glyph glyph-name="Oslash" unicode="&#xd8;" 
d="M628 607l87 -50l-496 -446l-87 50zM339 -7q-73 0 -132.5 26t-99 73.5t-54.5 113t0 144.5q16 78 57 143.5t99.5 113.5t128.5 74t143 26q76 0 135 -26t98.5 -74t54 -113.5t-1.5 -143.5q-15 -79 -55.5 -144.5t-99 -113t-128.5 -73.5t-145 -26zM363 108q64 0 119 30.5
t94.5 85t53.5 126.5q14 73 -3.5 127t-60.5 84.5t-107 30.5q-65 0 -120.5 -30.5t-94.5 -84.5t-53 -127q-14 -72 3 -126.5t61 -85t108 -30.5z" />
    <glyph glyph-name="Ugrave" unicode="&#xd9;" horiz-adv-x="709" 
d="M154 700h135l-88 -442q-10 -49 3 -82.5t44.5 -50.5t76.5 -17q46 0 84 17t65 50.5t37 82.5l88 442h135l-87 -435q-13 -69 -48 -120t-82.5 -85t-103.5 -50.5t-113 -16.5q-76 0 -135 30t-87 90t-11 152zM376 968l204 -119l-19 -97l-207 106z" />
    <glyph glyph-name="Uacute" unicode="&#xda;" horiz-adv-x="709" 
d="M154 700h135l-88 -442q-10 -49 3 -82.5t44.5 -50.5t76.5 -17q46 0 84 17t65 50.5t37 82.5l88 442h135l-87 -435q-13 -69 -48 -120t-82.5 -85t-103.5 -50.5t-113 -16.5q-76 0 -135 30t-87 90t-11 152zM604 968l-22 -111l-249 -105l18 97z" />
    <glyph glyph-name="Ucircumflex" unicode="&#xdb;" horiz-adv-x="709" 
d="M154 700h135l-88 -442q-10 -49 3 -82.5t44.5 -50.5t76.5 -17q46 0 84 17t65 50.5t37 82.5l88 442h135l-87 -435q-13 -69 -48 -120t-82.5 -85t-103.5 -50.5t-113 -16.5q-76 0 -135 30t-87 90t-11 152zM601 753l-131 84l-165 -84l20 100l164 82l131 -82z" />
    <glyph glyph-name="Udieresis" unicode="&#xdc;" horiz-adv-x="709" 
d="M154 700h135l-88 -442q-10 -49 3 -82.5t44.5 -50.5t76.5 -17q46 0 84 17t65 50.5t37 82.5l88 442h135l-87 -435q-13 -69 -48 -120t-82.5 -85t-103.5 -50.5t-113 -16.5q-76 0 -135 30t-87 90t-11 152zM367 781q-28 0 -43 18.5t-9 45.5q5 28 27.5 47t50.5 19q27 0 42.5 -19
t9.5 -47q-6 -27 -28.5 -45.5t-49.5 -18.5zM550 781q-28 0 -43.5 18.5t-8.5 45.5q5 28 27.5 47t50.5 19q27 0 42 -19t10 -47q-6 -27 -29 -45.5t-49 -18.5z" />
    <glyph glyph-name="Yacute" unicode="&#xdd;" horiz-adv-x="705" 
d="M620 700h152l-353 -454l-49 -246h-135l49 245l-171 455h151l113 -325zM603 968l-22 -111l-250 -105l20 97z" />
    <glyph glyph-name="Thorn" unicode="&#xde;" horiz-adv-x="607" 
d="M316 243q61 0 94.5 29.5t43.5 77.5q10 49 -12.5 78.5t-82.5 29.5h-113l-43 -215h113zM593 350q-10 -51 -45 -100t-96.5 -80t-150.5 -31h-119l-28 -139h-136l140 700h135l-28 -137h119q84 0 134.5 -28.5t68.5 -77t6 -107.5z" />
    <glyph glyph-name="germandbls" unicode="&#xdf;" horiz-adv-x="650" 
d="M109 492q12 57 46 105.5t91.5 79t135.5 30.5q71 0 115 -25.5t61 -64.5t9 -81q-7 -34 -23.5 -55.5t-37.5 -37t-41 -30.5q-17 -12 -28 -22t-13 -20q-3 -11 10.5 -21.5t61.5 -28.5q65 -25 86.5 -71.5t10.5 -101.5q-13 -70 -72.5 -112.5t-149.5 -42.5q-85 0 -130 45.5
t-37 130.5h133q-5 -34 9 -52.5t46 -18.5q28 0 44 9.5t21 33.5q4 25 -6.5 47.5t-48.5 36.5q-69 25 -98 54t-20 73q7 36 32 61.5t53 48.5q23 18 39.5 28.5t20.5 32.5q6 30 -13 50.5t-59 20.5q-36 0 -61 -15t-39.5 -41t-20.5 -58l-96 -480h-128z" />
    <glyph glyph-name="agrave" unicode="&#xe0;" horiz-adv-x="529" 
d="M306 0l2 61q-31 -31 -66 -49t-88 -18q-50 0 -84 17.5t-49 49t-6 74.5q12 63 66 104.5t148 52.5l128 14l7 35q4 21 -11.5 39t-55.5 18q-36 0 -66 -17.5t-46 -52.5l-103 40q34 67 97 103t145 36q100 0 141 -49.5t25 -130.5l-66 -327h-118zM339 217l-110 -14
q-34 -4 -54.5 -19.5t-24.5 -37.5q-5 -21 10 -35.5t45 -14.5q35 0 62.5 13t45 38t25.5 62zM259 734l181 -104l-17 -84l-182 93z" />
    <glyph glyph-name="aacute" unicode="&#xe1;" horiz-adv-x="529" 
d="M306 0l2 61q-31 -31 -66 -49t-88 -18q-50 0 -84 17.5t-49 49t-6 74.5q12 63 66 104.5t148 52.5l128 14l7 35q4 21 -11.5 39t-55.5 18q-36 0 -66 -17.5t-46 -52.5l-103 40q34 67 97 103t145 36q100 0 141 -49.5t25 -130.5l-66 -327h-118zM339 217l-110 -14
q-34 -4 -54.5 -19.5t-24.5 -37.5q-5 -21 10 -35.5t45 -14.5q35 0 62.5 13t45 38t25.5 62zM460 734l-19 -96l-219 -92l16 84z" />
    <glyph glyph-name="acircumflex" unicode="&#xe2;" horiz-adv-x="529" 
d="M306 0l2 61q-31 -31 -66 -49t-88 -18q-50 0 -84 17.5t-49 49t-6 74.5q12 63 66 104.5t148 52.5l128 14l7 35q4 21 -11.5 39t-55.5 18q-36 0 -66 -17.5t-46 -52.5l-103 40q34 67 97 103t145 36q100 0 141 -49.5t25 -130.5l-66 -327h-118zM339 217l-110 -14
q-34 -4 -54.5 -19.5t-24.5 -37.5q-5 -21 10 -35.5t45 -14.5q35 0 62.5 13t45 38t25.5 62zM457 546l-115 74l-144 -74l18 88l143 71l116 -71z" />
    <glyph glyph-name="atilde" unicode="&#xe3;" horiz-adv-x="529" 
d="M306 0l2 61q-31 -31 -66 -49t-88 -18q-50 0 -84 17.5t-49 49t-6 74.5q12 63 66 104.5t148 52.5l128 14l7 35q4 21 -11.5 39t-55.5 18q-36 0 -66 -17.5t-46 -52.5l-103 40q34 67 97 103t145 36q100 0 141 -49.5t25 -130.5l-66 -327h-118zM339 217l-110 -14
q-34 -4 -54.5 -19.5t-24.5 -37.5q-5 -21 10 -35.5t45 -14.5q35 0 62.5 13t45 38t25.5 62zM172 550q21 58 55 85.5t76 27.5q25 0 40.5 -10t28 -19.5t30.5 -9.5q15 0 26.5 9t18.5 29h64q-20 -59 -54.5 -86t-74.5 -27q-25 0 -40.5 10t-28.5 19.5t-31 9.5q-14 0 -26.5 -9
t-19.5 -29h-64z" />
    <glyph glyph-name="adieresis" unicode="&#xe4;" horiz-adv-x="529" 
d="M306 0l2 61q-31 -31 -66 -49t-88 -18q-50 0 -84 17.5t-49 49t-6 74.5q12 63 66 104.5t148 52.5l128 14l7 35q4 21 -11.5 39t-55.5 18q-36 0 -66 -17.5t-46 -52.5l-103 40q34 67 97 103t145 36q100 0 141 -49.5t25 -130.5l-66 -327h-118zM339 217l-110 -14
q-34 -4 -54.5 -19.5t-24.5 -37.5q-5 -21 10 -35.5t45 -14.5q35 0 62.5 13t45 38t25.5 62zM252 570q-25 0 -37.5 16.5t-8.5 41.5q5 23 24.5 40t44.5 17q23 0 36.5 -17t9.5 -40q-6 -25 -25.5 -41.5t-43.5 -16.5zM412 570q-24 0 -37 16.5t-9 41.5q6 23 25.5 40t43.5 17t37 -17
t9 -40q-5 -25 -25 -41.5t-44 -16.5z" />
    <glyph glyph-name="aring" unicode="&#xe5;" horiz-adv-x="529" 
d="M306 0l2 61q-31 -31 -66 -49t-88 -18q-50 0 -84 17.5t-49 49t-6 74.5q12 63 66 104.5t148 52.5l128 14l7 35q4 21 -11.5 39t-55.5 18q-36 0 -66 -17.5t-46 -52.5l-103 40q34 67 97 103t145 36q100 0 141 -49.5t25 -130.5l-66 -327h-118zM339 217l-110 -14
q-34 -4 -54.5 -19.5t-24.5 -37.5q-5 -21 10 -35.5t45 -14.5q35 0 62.5 13t45 38t25.5 62zM448 637q-9 -46 -44.5 -73t-77.5 -27t-66.5 27t-15.5 73q9 47 44.5 74t77.5 27t66.5 -27t15.5 -74zM388 638q4 20 -6 32t-27 12q-18 0 -32.5 -12t-18.5 -32t6 -32t27 -12
q18 0 32.5 12t18.5 32z" />
    <glyph glyph-name="ae" unicode="&#xe6;" horiz-adv-x="858" 
d="M531 -7q-73 0 -119 32.5t-63 91t-1 136.5q23 119 97 186.5t186 67.5q72 0 120.5 -30.5t68 -85.5t4.5 -130q-3 -12 -6.5 -25t-8.5 -29h-345q-2 -32 8.5 -54.5t32 -35t50.5 -12.5q45 0 75 13t51 43l107 -34q-43 -63 -107.5 -98.5t-149.5 -35.5zM694 300q4 30 -5 52.5
t-30 34t-51 11.5q-27 0 -51 -12.5t-42.5 -34.5t-28.5 -51h208zM399 193l-4 -78q-30 -45 -69.5 -72t-84 -38.5t-87.5 -11.5q-48 0 -83 16t-50.5 48t-5.5 78q8 39 28 66.5t49.5 45.5t65 28.5t71.5 15.5l128 18l7 32q4 21 -11.5 39t-55.5 18q-36 0 -66 -17.5t-46 -52.5l-103 40
q34 67 97 103t145 36q99 0 138.5 -49.5t23.5 -130.5l-21 -107zM339 218l-110 -15q-36 -5 -55.5 -20.5t-23.5 -37.5q-5 -24 12 -34.5t46 -10.5q30 0 57 11.5t46 35.5t26 61z" />
    <glyph glyph-name="ccedilla" unicode="&#xe7;" horiz-adv-x="549" 
d="M231 -7q-73 0 -122 32t-68.5 89.5t-4.5 133.5q15 77 58 135t105.5 91t135.5 33q79 0 132.5 -39t65.5 -105l-126 -34q-6 29 -29.5 46t-59.5 17q-35 0 -65 -18t-51 -50t-30 -75q-12 -65 12.5 -103t78.5 -38q34 0 65 16.5t51 45.5l110 -34q-39 -65 -109 -104t-149 -39z
M262 -33q30 0 54 -10t35.5 -31t5.5 -54q-7 -32 -27.5 -54t-49 -33t-58.5 -11h-124l14 70h103q21 0 33.5 6t16.5 23q3 18 -7.5 23.5t-30.5 5.5h-54l22 110h75z" />
    <glyph glyph-name="egrave" unicode="&#xe8;" horiz-adv-x="560" 
d="M238 -7q-75 0 -125.5 33t-70.5 92t-5 136q15 74 57.5 131t104.5 89.5t133 32.5q72 0 121 -31t68 -86.5t5 -129.5q-3 -11 -6.5 -24.5t-9.5 -28.5h-344q-1 -32 10.5 -54.5t33.5 -35t54 -12.5q37 0 69 15.5t50 40.5l107 -34q-43 -64 -109 -99t-143 -35zM393 300
q5 28 -4.5 50.5t-29.5 35t-49 12.5q-25 0 -49.5 -13t-44 -34.5t-30.5 -50.5h207zM274 734l180 -104l-16 -84l-183 93z" />
    <glyph glyph-name="eacute" unicode="&#xe9;" horiz-adv-x="560" 
d="M238 -7q-75 0 -125.5 33t-70.5 92t-5 136q15 74 57.5 131t104.5 89.5t133 32.5q72 0 121 -31t68 -86.5t5 -129.5q-3 -11 -6.5 -24.5t-9.5 -28.5h-344q-1 -32 10.5 -54.5t33.5 -35t54 -12.5q37 0 69 15.5t50 40.5l107 -34q-43 -64 -109 -99t-143 -35zM393 300
q5 28 -4.5 50.5t-29.5 35t-49 12.5q-25 0 -49.5 -13t-44 -34.5t-30.5 -50.5h207zM475 734l-19 -96l-219 -92l17 84z" />
    <glyph glyph-name="ecircumflex" unicode="&#xea;" horiz-adv-x="560" 
d="M238 -7q-75 0 -125.5 33t-70.5 92t-5 136q15 74 57.5 131t104.5 89.5t133 32.5q72 0 121 -31t68 -86.5t5 -129.5q-3 -11 -6.5 -24.5t-9.5 -28.5h-344q-1 -32 10.5 -54.5t33.5 -35t54 -12.5q37 0 69 15.5t50 40.5l107 -34q-43 -64 -109 -99t-143 -35zM393 300
q5 28 -4.5 50.5t-29.5 35t-49 12.5q-25 0 -49.5 -13t-44 -34.5t-30.5 -50.5h207zM472 546l-115 74l-144 -74l17 88l144 71l116 -71z" />
    <glyph glyph-name="edieresis" unicode="&#xeb;" horiz-adv-x="560" 
d="M238 -7q-75 0 -125.5 33t-70.5 92t-5 136q15 74 57.5 131t104.5 89.5t133 32.5q72 0 121 -31t68 -86.5t5 -129.5q-3 -11 -6.5 -24.5t-9.5 -28.5h-344q-1 -32 10.5 -54.5t33.5 -35t54 -12.5q37 0 69 15.5t50 40.5l107 -34q-43 -64 -109 -99t-143 -35zM393 300
q5 28 -4.5 50.5t-29.5 35t-49 12.5q-25 0 -49.5 -13t-44 -34.5t-30.5 -50.5h207zM267 570q-24 0 -37.5 16.5t-8.5 41.5q5 23 24.5 40t44.5 17q24 0 37 -17t9 -40q-5 -25 -25 -41.5t-44 -16.5zM427 570q-24 0 -37 16.5t-8 41.5q4 23 24 40t44 17t37.5 -17t8.5 -40
q-5 -25 -24.5 -41.5t-44.5 -16.5z" />
    <glyph glyph-name="igrave" unicode="&#xec;" horiz-adv-x="323" 
d="M149 500h135l-99 -500h-135zM156 728l181 -104l-17 -84l-182 93z" />
    <glyph glyph-name="iacute" unicode="&#xed;" horiz-adv-x="323" 
d="M149 500h135l-99 -500h-135zM357 728l-19 -96l-219 -92l17 84z" />
    <glyph glyph-name="icircumflex" unicode="&#xee;" horiz-adv-x="382" 
d="M172 500h136l-99 -500h-136zM378 540l-115 74l-144 -74l17 88l144 71l115 -71z" />
    <glyph glyph-name="idieresis" unicode="&#xef;" horiz-adv-x="397" 
d="M181 500h135l-99 -500h-135zM181 564q-25 0 -38 16.5t-8 40.5q4 24 24 41t44 17t37.5 -17t9.5 -41q-6 -24 -25.5 -40.5t-43.5 -16.5zM341 564q-24 0 -37 16.5t-9 40.5q5 24 24.5 41t44.5 17q24 0 37 -17t9 -41q-6 -24 -25.5 -40.5t-43.5 -16.5z" />
    <glyph glyph-name="eth" unicode="&#xf0;" horiz-adv-x="592" 
d="M588 668l-13 -67l-46 -14q31 -69 39.5 -148t-6.5 -153q-20 -97 -67 -162.5t-113 -98t-139 -32.5q-72 0 -124 31.5t-75 90t-7 136.5q15 79 60 136.5t107.5 89t131.5 31.5q22 0 40 -3.5t33 -10t28 -17.5q-5 18 -12.5 38t-16.5 41l-115 -32l14 67l74 22q-13 23 -28.5 45.5
t-34.5 41.5h138q24 -26 43 -57zM266 108q30 0 61.5 16t55.5 47.5t34 79.5q9 48 -2 79.5t-36 47t-56 15.5t-61.5 -15.5t-53.5 -47t-32 -79.5q-14 -72 14.5 -107.5t75.5 -35.5z" />
    <glyph glyph-name="ntilde" unicode="&#xf1;" horiz-adv-x="561" 
d="M111 500h116v-51q30 27 67 42.5t77 15.5q59 0 95.5 -25t49 -72.5t-0.5 -117.5l-58 -292h-129l55 275q11 58 -6 87t-64 29q-46 0 -76.5 -29.5t-41.5 -87.5l-55 -274h-128zM207 550q20 58 54.5 85.5t76.5 27.5q24 0 39.5 -10t28.5 -19.5t30 -9.5q15 0 27 9t19 29h64
q-21 -59 -55 -86t-75 -27q-25 0 -40.5 10t-28.5 19.5t-30 9.5q-15 0 -27 -9t-19 -29h-64z" />
    <glyph glyph-name="ograve" unicode="&#xf2;" horiz-adv-x="584" 
d="M238 -7q-73 0 -123.5 31.5t-72 89t-6.5 135.5q16 79 61 137t109.5 89.5t136.5 31.5t124 -31.5t74 -89t7 -135.5q-16 -79 -62 -137t-110.5 -89.5t-137.5 -31.5zM260 108q32 0 63 15.5t54.5 47t33.5 80.5q9 47 -1.5 78.5t-35 47t-56.5 15.5q-31 0 -60.5 -15.5t-52 -47
t-31.5 -80.5q-9 -47 0 -78.5t32 -47t54 -15.5zM290 734l179 -104l-16 -84l-183 93z" />
    <glyph glyph-name="oacute" unicode="&#xf3;" horiz-adv-x="584" 
d="M238 -7q-73 0 -123.5 31.5t-72 89t-6.5 135.5q16 79 61 137t109.5 89.5t136.5 31.5t124 -31.5t74 -89t7 -135.5q-16 -79 -62 -137t-110.5 -89.5t-137.5 -31.5zM260 108q32 0 63 15.5t54.5 47t33.5 80.5q9 47 -1.5 78.5t-35 47t-56.5 15.5q-31 0 -60.5 -15.5t-52 -47
t-31.5 -80.5q-9 -47 0 -78.5t32 -47t54 -15.5zM490 734l-19 -96l-219 -92l17 84z" />
    <glyph glyph-name="ocircumflex" unicode="&#xf4;" horiz-adv-x="584" 
d="M238 -7q-73 0 -123.5 31.5t-72 89t-6.5 135.5q16 79 61 137t109.5 89.5t136.5 31.5t124 -31.5t74 -89t7 -135.5q-16 -79 -62 -137t-110.5 -89.5t-137.5 -31.5zM260 108q32 0 63 15.5t54.5 47t33.5 80.5q9 47 -1.5 78.5t-35 47t-56.5 15.5q-31 0 -60.5 -15.5t-52 -47
t-31.5 -80.5q-9 -47 0 -78.5t32 -47t54 -15.5zM487 546l-115 74l-143 -74l16 88l144 71l116 -71z" />
    <glyph glyph-name="otilde" unicode="&#xf5;" horiz-adv-x="584" 
d="M238 -7q-73 0 -123.5 31.5t-72 89t-6.5 135.5q16 79 61 137t109.5 89.5t136.5 31.5t124 -31.5t74 -89t7 -135.5q-16 -79 -62 -137t-110.5 -89.5t-137.5 -31.5zM260 108q32 0 63 15.5t54.5 47t33.5 80.5q9 47 -1.5 78.5t-35 47t-56.5 15.5q-31 0 -60.5 -15.5t-52 -47
t-31.5 -80.5q-9 -47 0 -78.5t32 -47t54 -15.5zM203 550q20 58 54.5 85.5t76.5 27.5q24 0 39.5 -10t28.5 -19.5t30 -9.5q15 0 27 9t19 29h64q-21 -59 -55 -86t-76 -27q-24 0 -39 10t-28.5 19.5t-30.5 9.5q-15 0 -27 -9t-19 -29h-64z" />
    <glyph glyph-name="odieresis" unicode="&#xf6;" horiz-adv-x="584" 
d="M238 -7q-73 0 -123.5 31.5t-72 89t-6.5 135.5q16 79 61 137t109.5 89.5t136.5 31.5t124 -31.5t74 -89t7 -135.5q-16 -79 -62 -137t-110.5 -89.5t-137.5 -31.5zM260 108q32 0 63 15.5t54.5 47t33.5 80.5q9 47 -1.5 78.5t-35 47t-56.5 15.5q-31 0 -60.5 -15.5t-52 -47
t-31.5 -80.5q-9 -47 0 -78.5t32 -47t54 -15.5zM282 570q-24 0 -37.5 16.5t-8.5 41.5q5 23 25 40t44 17t37.5 -17t8.5 -40q-5 -25 -25 -41.5t-44 -16.5zM443 570q-25 0 -38 16.5t-8 41.5q5 23 24.5 40t43.5 17t37.5 -17t8.5 -40q-5 -25 -24.5 -41.5t-43.5 -16.5z" />
    <glyph glyph-name="divide" unicode="&#xf7;" horiz-adv-x="613" 
d="M82 408h511l-24 -117h-510zM273 50q-37 0 -56 23.5t-13 56.5q7 35 35.5 58t64.5 23t55 -23t12 -58q-6 -33 -34.5 -56.5t-63.5 -23.5zM359 489q-36 0 -55 23.5t-12 57.5t35 57t65 23q35 0 54.5 -23t12.5 -57t-35.5 -57.5t-64.5 -23.5z" />
    <glyph glyph-name="oslash" unicode="&#xf8;" horiz-adv-x="584" 
d="M458 447l61 -51l-364 -328l-62 51zM238 -7q-73 0 -123.5 31.5t-72 89t-6.5 135.5q16 79 61 137t109.5 89.5t136.5 31.5t124 -31.5t74 -89t7 -135.5q-16 -79 -62 -137t-110.5 -89.5t-137.5 -31.5zM260 108q32 0 63 15.5t54.5 47t33.5 80.5q9 47 -1.5 78.5t-35 47
t-56.5 15.5q-31 0 -60.5 -15.5t-52 -47t-31.5 -80.5q-9 -47 0 -78.5t32 -47t54 -15.5z" />
    <glyph glyph-name="ugrave" unicode="&#xf9;" horiz-adv-x="562" 
d="M451 0h-117l2 52q-29 -28 -67 -43.5t-77 -15.5q-58 0 -95 25t-50.5 72.5t-0.5 117.5l58 292h129l-55 -276q-11 -57 6.5 -86.5t63.5 -29.5q47 0 77.5 30t42.5 87l54 275h128zM263 734l180 -104l-17 -84l-182 93z" />
    <glyph glyph-name="uacute" unicode="&#xfa;" horiz-adv-x="562" 
d="M451 0h-117l2 52q-29 -28 -67 -43.5t-77 -15.5q-58 0 -95 25t-50.5 72.5t-0.5 117.5l58 292h129l-55 -276q-11 -57 6.5 -86.5t63.5 -29.5q47 0 77.5 30t42.5 87l54 275h128zM464 734l-19 -96l-220 -92l17 84z" />
    <glyph glyph-name="ucircumflex" unicode="&#xfb;" horiz-adv-x="562" 
d="M451 0h-117l2 52q-29 -28 -67 -43.5t-77 -15.5q-58 0 -95 25t-50.5 72.5t-0.5 117.5l58 292h129l-55 -276q-11 -57 6.5 -86.5t63.5 -29.5q47 0 77.5 30t42.5 87l54 275h128zM461 546l-115 74l-144 -74l17 88l144 71l115 -71z" />
    <glyph glyph-name="udieresis" unicode="&#xfc;" horiz-adv-x="562" 
d="M451 0h-117l2 52q-29 -28 -67 -43.5t-77 -15.5q-58 0 -95 25t-50.5 72.5t-0.5 117.5l58 292h129l-55 -276q-11 -57 6.5 -86.5t63.5 -29.5q47 0 77.5 30t42.5 87l54 275h128zM256 570q-25 0 -38 16.5t-8 41.5q5 23 24.5 40t43.5 17t37.5 -17t9.5 -40q-6 -25 -25.5 -41.5
t-43.5 -16.5zM416 570q-24 0 -37 16.5t-9 41.5q6 23 25.5 40t43.5 17q23 0 36.5 -17t9.5 -40q-5 -25 -25 -41.5t-44 -16.5z" />
    <glyph glyph-name="yacute" unicode="&#xfd;" horiz-adv-x="557" 
d="M455 500h137l-435 -700h-129l138 218l-101 482h143l57 -329zM470 734l-19 -96l-220 -92l17 84z" />
    <glyph glyph-name="thorn" unicode="&#xfe;" horiz-adv-x="612" 
d="M101 -200h-129l183 921h129l-56 -281q31 32 71.5 50t92.5 18q66 0 112.5 -32t66.5 -89.5t5 -134.5t-58.5 -135.5t-103 -91t-124.5 -32.5q-33 0 -59.5 9.5t-45.5 26t-31 37.5zM438 252q9 45 -3 76t-37 47t-57 16q-31 0 -62 -16t-55 -47t-33 -77q-10 -46 2 -77.5t37 -47.5
t56 -16t62.5 16.5t56 48t33.5 77.5z" />
    <glyph glyph-name="ydieresis" unicode="&#xff;" horiz-adv-x="557" 
d="M455 500h137l-435 -700h-129l138 218l-101 482h143l57 -329zM262 570q-25 0 -38 16.5t-8 41.5q5 23 24.5 40t43.5 17t37.5 -17t8.5 -40q-4 -25 -24.5 -41.5t-43.5 -16.5zM422 570q-24 0 -37 16.5t-9 41.5q5 23 25 40t44 17q23 0 36.5 -17t8.5 -40q-4 -25 -24 -41.5
t-44 -16.5z" />
    <glyph glyph-name="Amacron" unicode="&#x100;" horiz-adv-x="739" 
d="M454 587h-35l-323 -587h-139l390 700h223l112 -700h-139zM163 274h408l-23 -113h-407zM306 880h379l-20 -97h-379z" />
    <glyph glyph-name="amacron" unicode="&#x101;" horiz-adv-x="529" 
d="M306 0l2 61q-31 -31 -66 -49t-88 -18q-50 0 -84 17.5t-49 49t-6 74.5q12 63 66 104.5t148 52.5l128 14l7 35q4 21 -11.5 39t-55.5 18q-36 0 -66 -17.5t-46 -52.5l-103 40q34 67 97 103t145 36q100 0 141 -49.5t25 -130.5l-66 -327h-118zM339 217l-110 -14
q-34 -4 -54.5 -19.5t-24.5 -37.5q-5 -21 10 -35.5t45 -14.5q35 0 62.5 13t45 38t25.5 62zM183 658h333l-17 -85h-333z" />
    <glyph glyph-name="Abreve" unicode="&#x102;" horiz-adv-x="739" 
d="M454 587h-35l-323 -587h-139l390 700h223l112 -700h-139zM163 274h408l-23 -113h-407zM659 910q-9 -47 -35.5 -81t-65.5 -52.5t-88 -18.5q-48 0 -79.5 18.5t-44 53t-3.5 81.5l4 21h73q-7 -34 7.5 -52.5t63.5 -18.5t70.5 18.5t28.5 52.5h73z" />
    <glyph glyph-name="abreve" unicode="&#x103;" horiz-adv-x="529" 
d="M306 0l2 61q-31 -31 -66 -49t-88 -18q-50 0 -84 17.5t-49 49t-6 74.5q12 63 66 104.5t148 52.5l128 14l7 35q4 21 -11.5 39t-55.5 18q-36 0 -66 -17.5t-46 -52.5l-103 40q34 67 97 103t145 36q100 0 141 -49.5t25 -130.5l-66 -327h-118zM339 217l-110 -14
q-34 -4 -54.5 -19.5t-24.5 -37.5q-5 -21 10 -35.5t45 -14.5q35 0 62.5 13t45 38t25.5 62zM494 684q-8 -41 -31 -71t-57.5 -46t-77.5 -16q-41 0 -69 16t-39.5 46.5t-2.5 70.5l3 18h64q-6 -28 7 -44.5t55 -16.5q43 0 62.5 16.5t25.5 44.5h64z" />
    <glyph glyph-name="Aogonek" unicode="&#x104;" horiz-adv-x="739" 
d="M608 67l18 -67l-52 -24q-39 -17 -54.5 -33t-19.5 -33q-4 -19 7.5 -30.5t36.5 -11.5q14 0 32.5 3.5t38.5 10.5l-16 -81q-20 -7 -43.5 -11.5t-47.5 -4.5q-35 0 -64.5 11.5t-44.5 36t-7 64.5q6 29 24 54t53.5 49.5t93.5 48.5zM454 587h-35l-323 -587h-139l390 700h223
l112 -700h-139zM163 274h408l-23 -113h-407z" />
    <glyph glyph-name="aogonek" unicode="&#x105;" horiz-adv-x="536" 
d="M306 0l2 61q-31 -31 -66 -49t-88 -18q-50 0 -84 17.5t-49 49t-6 74.5q12 63 66 104.5t148 52.5l128 14l7 35q4 21 -11.5 39t-55.5 18q-36 0 -66 -17.5t-46 -52.5l-103 40q34 67 97 103t145 36q100 0 141 -49.5t25 -130.5l-66 -327h-118zM339 217l-110 -14
q-34 -4 -54.5 -19.5t-24.5 -37.5q-5 -21 10 -35.5t45 -14.5q35 0 62.5 13t45 38t25.5 62zM403 58l17 -58l-46 -21q-33 -16 -47.5 -29.5t-17.5 -28.5q-3 -17 7 -26.5t30 -9.5q28 0 65 13l-15 -72q-18 -6 -38 -10t-41 -4q-31 0 -57 10t-39 31.5t-6 55.5q6 36 39.5 68.5
t109.5 63.5z" />
    <glyph glyph-name="Cacute" unicode="&#x106;" horiz-adv-x="757" 
d="M53 350q16 79 56 144.5t98 113t127.5 73.5t143.5 26q108 0 182 -51.5t95 -147.5l-119 -33q-13 42 -40 68t-63 38t-75 12q-64 0 -119.5 -30.5t-95 -85.5t-53.5 -127t3 -126.5t60.5 -85.5t108.5 -31q40 0 82 12.5t81.5 42.5t73.5 80l105 -31q-65 -109 -161 -163.5
t-207 -54.5q-74 0 -133 26t-98 74t-53 113.5t1 143.5zM641 968l-23 -111l-249 -105l19 97z" />
    <glyph glyph-name="cacute" unicode="&#x107;" horiz-adv-x="549" 
d="M231 -7q-73 0 -122 32t-68.5 89.5t-4.5 133.5q15 77 58 135t105.5 91t135.5 33q79 0 132.5 -39t65.5 -105l-126 -34q-6 29 -29.5 46t-59.5 17q-35 0 -65 -18t-51 -50t-30 -75q-12 -65 12.5 -103t78.5 -38q34 0 65 16.5t51 45.5l110 -34q-39 -65 -109 -104t-149 -39z
M467 734l-19 -96l-219 -92l17 84z" />
    <glyph glyph-name="Ccircumflex" unicode="&#x108;" horiz-adv-x="757" 
d="M53 350q16 79 56 144.5t98 113t127.5 73.5t143.5 26q108 0 182 -51.5t95 -147.5l-119 -33q-13 42 -40 68t-63 38t-75 12q-64 0 -119.5 -30.5t-95 -85.5t-53.5 -127t3 -126.5t60.5 -85.5t108.5 -31q40 0 82 12.5t81.5 42.5t73.5 80l105 -31q-65 -109 -161 -163.5
t-207 -54.5q-74 0 -133 26t-98 74t-53 113.5t1 143.5zM637 753l-131 84l-164 -84l20 100l164 81l131 -81z" />
    <glyph glyph-name="ccircumflex" unicode="&#x109;" horiz-adv-x="549" 
d="M231 -7q-73 0 -122 32t-68.5 89.5t-4.5 133.5q15 77 58 135t105.5 91t135.5 33q79 0 132.5 -39t65.5 -105l-126 -34q-6 29 -29.5 46t-59.5 17q-35 0 -65 -18t-51 -50t-30 -75q-12 -65 12.5 -103t78.5 -38q34 0 65 16.5t51 45.5l110 -34q-39 -65 -109 -104t-149 -39z
M484 553l-131 84l-165 -84l20 100l164 81l132 -81z" />
    <glyph glyph-name="Cdotaccent" unicode="&#x10a;" horiz-adv-x="757" 
d="M53 350q16 79 56 144.5t98 113t127.5 73.5t143.5 26q108 0 182 -51.5t95 -147.5l-119 -33q-13 42 -40 68t-63 38t-75 12q-64 0 -119.5 -30.5t-95 -85.5t-53.5 -127t3 -126.5t60.5 -85.5t108.5 -31q40 0 82 12.5t81.5 42.5t73.5 80l105 -31q-65 -109 -161 -163.5
t-207 -54.5q-74 0 -133 26t-98 74t-53 113.5t1 143.5zM494 781q-27 0 -42 18.5t-9 45.5q5 28 27 47t50 19t43 -19t10 -47q-5 -27 -28 -45.5t-51 -18.5z" />
    <glyph glyph-name="cdotaccent" unicode="&#x10b;" horiz-adv-x="549" 
d="M231 -7q-73 0 -122 32t-68.5 89.5t-4.5 133.5q15 77 58 135t105.5 91t135.5 33q79 0 132.5 -39t65.5 -105l-126 -34q-6 29 -29.5 46t-59.5 17q-35 0 -65 -18t-51 -50t-30 -75q-12 -65 12.5 -103t78.5 -38q34 0 65 16.5t51 45.5l110 -34q-39 -65 -109 -104t-149 -39z
M339 570q-24 0 -37.5 16.5t-8.5 41.5q5 23 25 40t43 17q24 0 38 -17t9 -40q-5 -25 -25 -41.5t-44 -16.5z" />
    <glyph glyph-name="Ccaron" unicode="&#x10c;" horiz-adv-x="757" 
d="M53 350q16 79 56 144.5t98 113t127.5 73.5t143.5 26q108 0 182 -51.5t95 -147.5l-119 -33q-13 42 -40 68t-63 38t-75 12q-64 0 -119.5 -30.5t-95 -85.5t-53.5 -127t3 -126.5t60.5 -85.5t108.5 -31q40 0 82 12.5t81.5 42.5t73.5 80l105 -31q-65 -109 -161 -163.5
t-207 -54.5q-74 0 -133 26t-98 74t-53 113.5t1 143.5zM673 935l-20 -101l-163 -81l-132 81l20 101l131 -87z" />
    <glyph glyph-name="ccaron" unicode="&#x10d;" horiz-adv-x="549" 
d="M231 -7q-73 0 -122 32t-68.5 89.5t-4.5 133.5q15 77 58 135t105.5 91t135.5 33q79 0 132.5 -39t65.5 -105l-126 -34q-6 29 -29.5 46t-59.5 17q-35 0 -65 -18t-51 -50t-30 -75q-12 -65 12.5 -103t78.5 -38q34 0 65 16.5t51 45.5l110 -34q-39 -65 -109 -104t-149 -39z
M496 705l-17 -88l-144 -71l-116 71l18 88l114 -76z" />
    <glyph glyph-name="Dcaron" unicode="&#x10e;" horiz-adv-x="732" 
d="M419 700q111 0 185.5 -43.5t104.5 -122.5t8 -186q-21 -106 -82.5 -184t-152.5 -121t-203 -43h-261l140 700h261zM297 113q113 0 187 62.5t96 172.5q22 111 -26.5 175t-161.5 64h-122l-94 -474h121zM628 935l-20 -101l-164 -81l-131 81l20 101l130 -87z" />
    <glyph glyph-name="dcaron" unicode="&#x10f;" horiz-adv-x="782" 
d="M787 665q3 -29 2 -54t-6 -47q-12 -60 -49.5 -92.5t-100.5 -32.5l12 63q23 0 35.5 11t17.5 33l2 11h-50l22 108h115zM460 425l-17 -2l59 297h128l-143 -720h-116l4 62q-28 -28 -72 -48.5t-96 -20.5q-65 0 -108.5 32t-60.5 89.5t-2 135.5q16 78 55.5 136t96 89.5
t121.5 31.5q59 0 96.5 -24t54.5 -58zM174 250q-13 -63 12 -101.5t77 -38.5q32 0 62 16.5t52 47.5t31 76t-0.5 76t-33 47.5t-55.5 16.5q-35 0 -64.5 -17.5t-51 -49t-29.5 -73.5z" />
    <glyph glyph-name="Dcroat" unicode="&#x110;" horiz-adv-x="784" 
d="M99 408h72l59 292h241q111 0 185 -43.5t104 -122.5t8 -186q-21 -106 -81.5 -184t-152 -121t-203.5 -43h-241l57 289h-71zM248 109h101q113 -1 186 64t95 175q22 111 -26 175.5t-160 64.5h-101l-35 -180h168l-24 -119h-168z" />
    <glyph glyph-name="dcroat" unicode="&#x111;" horiz-adv-x="666" 
d="M409 596h258l-15 -77h-258zM460 425l-17 -2l59 297h128l-143 -720h-116l4 62q-28 -28 -72 -48.5t-96 -20.5q-65 0 -108.5 32t-60.5 89.5t-2 135.5q16 78 55.5 136t96 89.5t121.5 31.5q59 0 96.5 -24t54.5 -58zM174 250q-13 -63 12 -101.5t77 -38.5q32 0 62 16.5t52 47.5
t31 76t-0.5 76t-33 47.5t-55.5 16.5q-35 0 -64.5 -17.5t-51 -49t-29.5 -73.5z" />
    <glyph glyph-name="Emacron" unicode="&#x112;" horiz-adv-x="608" 
d="M627 587h-357l-36 -178h268l-22 -109h-267l-37 -187h356l-22 -113h-492l140 700h492zM248 880h379l-20 -97h-379z" />
    <glyph glyph-name="emacron" unicode="&#x113;" horiz-adv-x="560" 
d="M238 -7q-75 0 -125.5 33t-70.5 92t-5 136q15 74 57.5 131t104.5 89.5t133 32.5q72 0 121 -31t68 -86.5t5 -129.5q-3 -11 -6.5 -24.5t-9.5 -28.5h-344q-1 -32 10.5 -54.5t33.5 -35t54 -12.5q37 0 69 15.5t50 40.5l107 -34q-43 -64 -109 -99t-143 -35zM393 300
q5 28 -4.5 50.5t-29.5 35t-49 12.5q-25 0 -49.5 -13t-44 -34.5t-30.5 -50.5h207zM198 658h334l-18 -85h-332z" />
    <glyph glyph-name="Ebreve" unicode="&#x114;" horiz-adv-x="608" 
d="M627 587h-357l-36 -178h268l-22 -109h-267l-37 -187h356l-22 -113h-492l140 700h492zM602 910q-10 -47 -36 -81t-65.5 -52.5t-87.5 -18.5t-79.5 18.5t-44.5 53t-3 81.5l4 21h72q-6 -34 8.5 -52.5t63.5 -18.5q48 0 70 18.5t28 52.5h74z" />
    <glyph glyph-name="ebreve" unicode="&#x115;" horiz-adv-x="560" 
d="M238 -7q-75 0 -125.5 33t-70.5 92t-5 136q15 74 57.5 131t104.5 89.5t133 32.5q72 0 121 -31t68 -86.5t5 -129.5q-3 -11 -6.5 -24.5t-9.5 -28.5h-344q-1 -32 10.5 -54.5t33.5 -35t54 -12.5q37 0 69 15.5t50 40.5l107 -34q-43 -64 -109 -99t-143 -35zM393 300
q5 28 -4.5 50.5t-29.5 35t-49 12.5q-25 0 -49.5 -13t-44 -34.5t-30.5 -50.5h207zM509 684q-8 -41 -31 -71t-57.5 -46t-76.5 -16q-43 0 -70.5 16t-39 46.5t-3.5 70.5l4 18h64q-6 -28 7 -44.5t56 -16.5q42 0 61.5 16.5t24.5 44.5h65z" />
    <glyph glyph-name="Edotaccent" unicode="&#x116;" horiz-adv-x="608" 
d="M627 587h-357l-36 -178h268l-22 -109h-267l-37 -187h356l-22 -113h-492l140 700h492zM417 781q-28 0 -43 18.5t-10 45.5q6 28 28.5 47t49.5 19q28 0 43.5 -19t9.5 -47q-5 -27 -28 -45.5t-50 -18.5z" />
    <glyph glyph-name="edotaccent" unicode="&#x117;" horiz-adv-x="560" 
d="M238 -7q-75 0 -125.5 33t-70.5 92t-5 136q15 74 57.5 131t104.5 89.5t133 32.5q72 0 121 -31t68 -86.5t5 -129.5q-3 -11 -6.5 -24.5t-9.5 -28.5h-344q-1 -32 10.5 -54.5t33.5 -35t54 -12.5q37 0 69 15.5t50 40.5l107 -34q-43 -64 -109 -99t-143 -35zM393 300
q5 28 -4.5 50.5t-29.5 35t-49 12.5q-25 0 -49.5 -13t-44 -34.5t-30.5 -50.5h207zM347 570q-24 0 -37.5 16.5t-8.5 41.5q5 23 25 40t43 17q24 0 38 -17t9 -40q-5 -25 -25 -41.5t-44 -16.5z" />
    <glyph glyph-name="Eogonek" unicode="&#x118;" horiz-adv-x="608" 
d="M627 587h-357l-36 -178h268l-22 -109h-267l-37 -187h356l-22 -113h-492l140 700h492zM441 66l19 -66l-52 -24q-37 -18 -54 -33.5t-20 -32.5q-4 -19 7 -30t36 -11q14 0 33 3.5t39 10.5l-16 -81q-21 -7 -44 -11t-47 -4q-35 0 -65 11t-44.5 35t-6.5 64q5 27 23 52.5t53.5 50
t93.5 47.5z" />
    <glyph glyph-name="eogonek" unicode="&#x119;" horiz-adv-x="560" 
d="M238 -7q-75 0 -125.5 33t-70.5 92t-5 136q15 74 57.5 131t104.5 89.5t133 32.5q72 0 121 -31t68 -86.5t5 -129.5q-3 -11 -6.5 -24.5t-9.5 -28.5h-344q-1 -32 10.5 -54.5t33.5 -35t54 -12.5q37 0 69 15.5t50 40.5l107 -34q-43 -64 -109 -99t-143 -35zM393 300
q5 28 -4.5 50.5t-29.5 35t-49 12.5q-25 0 -49.5 -13t-44 -34.5t-30.5 -50.5h207zM302 63l18 -57l-46 -22q-33 -15 -47.5 -28.5t-18.5 -28.5q-2 -17 7.5 -27t30.5 -10q28 0 64 13l-14 -71q-18 -6 -38.5 -10t-41.5 -4q-30 0 -56 10t-39.5 31.5t-6.5 55.5q7 36 40 68.5
t110 63.5z" />
    <glyph glyph-name="Ecaron" unicode="&#x11a;" horiz-adv-x="608" 
d="M627 587h-357l-36 -178h268l-22 -109h-267l-37 -187h356l-22 -113h-492l140 700h492zM596 935l-20 -101l-164 -81l-131 81l20 101l130 -87z" />
    <glyph glyph-name="ecaron" unicode="&#x11b;" horiz-adv-x="560" 
d="M238 -7q-75 0 -125.5 33t-70.5 92t-5 136q15 74 57.5 131t104.5 89.5t133 32.5q72 0 121 -31t68 -86.5t5 -129.5q-3 -11 -6.5 -24.5t-9.5 -28.5h-344q-1 -32 10.5 -54.5t33.5 -35t54 -12.5q37 0 69 15.5t50 40.5l107 -34q-43 -64 -109 -99t-143 -35zM393 300
q5 28 -4.5 50.5t-29.5 35t-49 12.5q-25 0 -49.5 -13t-44 -34.5t-30.5 -50.5h207zM504 705l-17 -88l-144 -71l-116 71l18 88l114 -76z" />
    <glyph glyph-name="Gcircumflex" unicode="&#x11c;" horiz-adv-x="760" 
d="M630 478q-21 61 -65 87.5t-104 26.5q-62 0 -118.5 -31t-97 -85.5t-54.5 -125.5q-14 -72 4 -126.5t62.5 -85t109.5 -30.5q42 0 82.5 15t75 41t58.5 61l11 58h-191l22 108h323l-38 -183q-35 -58 -91.5 -107.5t-128 -78.5t-151.5 -29q-76 0 -135.5 26t-98.5 73.5t-53 113
t1 144.5q16 78 56 143.5t98 113.5t128 74t145 26q71 0 129.5 -22.5t98 -65t52.5 -103.5zM630 753l-131 84l-164 -84l20 100l164 81l131 -81z" />
    <glyph glyph-name="gcircumflex" unicode="&#x11d;" horiz-adv-x="598" 
d="M470 500h116l-84 -426q-17 -85 -71 -146.5t-140 -94.5t-198 -33l2 108q120 2 191 43t87 118v2l18 6q-30 -35 -77 -59.5t-106 -24.5q-65 0 -109 32t-61 89.5t-1 135.5q15 78 55 136t96.5 89.5t122.5 31.5q34 0 61.5 -9.5t47 -25t30.5 -34.5zM175 250q-14 -63 11.5 -101.5
t78.5 -38.5q31 0 60.5 16.5t52 48.5t31.5 75q8 45 -1.5 76t-33 47.5t-54.5 16.5q-35 0 -65 -17.5t-51.5 -49t-28.5 -73.5zM508 553l-131 84l-164 -84l20 100l164 81l131 -81z" />
    <glyph glyph-name="Gbreve" unicode="&#x11e;" horiz-adv-x="760" 
d="M630 478q-21 61 -65 87.5t-104 26.5q-62 0 -118.5 -31t-97 -85.5t-54.5 -125.5q-14 -72 4 -126.5t62.5 -85t109.5 -30.5q42 0 82.5 15t75 41t58.5 61l11 58h-191l22 108h323l-38 -183q-35 -58 -91 -107.5t-128 -78.5t-152 -29q-76 0 -135.5 26t-98.5 73.5t-53 113
t1 144.5q16 78 56 143.5t98 113.5t128 74t145 26q71 0 129.5 -22.5t98 -65t52.5 -103.5zM672 910q-9 -47 -35.5 -81t-65 -52.5t-88.5 -18.5q-48 0 -79.5 18.5t-44 53t-3.5 81.5l4 21h73q-6 -34 8 -52.5t63 -18.5t71 18.5t28 52.5h73z" />
    <glyph glyph-name="gbreve" unicode="&#x11f;" horiz-adv-x="598" 
d="M470 500h116l-84 -426q-17 -85 -71 -146.5t-140 -94.5t-198 -33l2 108q120 2 191 43t87 118v2l18 6q-30 -35 -77 -59.5t-106 -24.5q-65 0 -109 32t-61 89.5t-1 135.5q15 78 55 136t96.5 89.5t122.5 31.5q34 0 61.5 -9.5t47 -25t30.5 -34.5zM175 250q-14 -63 11.5 -101.5
t78.5 -38.5q31 0 60.5 16.5t52 48.5t31.5 75q8 45 -1.5 76t-33 47.5t-54.5 16.5q-35 0 -65 -17.5t-51.5 -49t-28.5 -73.5zM525 684q-7 -41 -30 -71t-58 -46t-77 -16t-70 16t-39 46.5t-3 70.5l4 18h64q-6 -28 7 -44.5t55 -16.5q43 0 62 16.5t25 44.5h64z" />
    <glyph glyph-name="Gdotaccent" unicode="&#x120;" horiz-adv-x="760" 
d="M630 478q-21 61 -65 87.5t-104 26.5q-62 0 -118.5 -31t-97 -85.5t-54.5 -125.5q-14 -72 4 -126.5t62.5 -85t109.5 -30.5q42 0 82.5 15t75 41t58.5 61l11 58h-191l22 108h323l-38 -183q-35 -58 -91 -107.5t-128 -78.5t-152 -29q-76 0 -135.5 26t-98.5 73.5t-53 113
t1 144.5q16 78 56 143.5t98 113.5t128 74t145 26q71 0 129.5 -22.5t98 -65t52.5 -103.5zM487 781q-27 0 -42 18.5t-9 45.5q5 28 27 47t51 19q27 0 42 -19t10 -47q-5 -27 -28 -45.5t-51 -18.5z" />
    <glyph glyph-name="gdotaccent" unicode="&#x121;" horiz-adv-x="598" 
d="M470 500h116l-84 -426q-17 -85 -71 -146.5t-140 -94.5t-198 -33l2 108q121 2 192 43t86 118v2l18 6q-30 -35 -77 -59.5t-106 -24.5q-65 0 -109 32t-61 89.5t-2 135.5q16 78 56 136t96.5 89.5t122.5 31.5q34 0 61.5 -9.5t47 -25t30.5 -34.5zM174 250q-13 -63 12.5 -101.5
t78.5 -38.5q31 0 60.5 16.5t52 48.5t30.5 75q9 45 -0.5 76t-33 47.5t-54.5 16.5q-35 0 -65 -17.5t-51.5 -49t-29.5 -73.5zM363 570q-23 0 -36.5 16.5t-8.5 41.5q5 23 24.5 40t43.5 17t37.5 -17t8.5 -40q-4 -25 -24.5 -41.5t-44.5 -16.5z" />
    <glyph glyph-name="uni0122" unicode="&#x122;" horiz-adv-x="760" 
d="M381 -44q2 -29 1 -55.5t-6 -50.5q-13 -65 -51 -100.5t-100 -35.5l11 56q26 0 41 15t21 45l4 20h-56l21 106h114zM630 478q-21 61 -65 87.5t-104 26.5q-62 0 -118.5 -31t-97 -85.5t-54.5 -125.5q-14 -72 4 -126.5t62.5 -85t109.5 -30.5q42 0 82.5 15t75 41t58.5 61l11 58
h-191l22 108h323l-38 -183q-35 -58 -91 -107.5t-128 -78.5t-152 -29q-76 0 -135.5 26t-98.5 73.5t-53 113t1 144.5q16 78 56 143.5t98 113.5t128 74t145 26q71 0 129.5 -22.5t98 -65t52.5 -103.5z" />
    <glyph glyph-name="uni0123" unicode="&#x123;" horiz-adv-x="598" 
d="M303 540q-2 30 -0.5 55.5t5.5 45.5q12 60 49.5 92.5t99.5 32.5l-12 -63q-21 0 -33.5 -10t-17.5 -31l-4 -13h49l-21 -109h-115zM470 500h116l-84 -426q-17 -85 -71 -146.5t-140 -94.5t-198 -33l2 108q120 2 191 43t87 118v2l18 6q-30 -35 -77 -59.5t-106 -24.5
q-65 0 -109 32t-61 89.5t-2 135.5q16 78 56 136t96.5 89.5t122.5 31.5q34 0 61.5 -9.5t47 -25t30.5 -34.5zM174 250q-13 -63 12.5 -101.5t78.5 -38.5q31 0 60.5 16.5t52 48.5t30.5 75q9 45 -0.5 76t-33 47.5t-54.5 16.5q-35 0 -65 -17.5t-51.5 -49t-29.5 -73.5z" />
    <glyph glyph-name="Hcircumflex" unicode="&#x124;" horiz-adv-x="716" 
d="M158 700h135l-58 -289h310l58 289h135l-140 -700h-135l59 298h-310l-59 -298h-135zM606 753l-131 84l-164 -84l19 100l164 81l131 -81z" />
    <glyph glyph-name="hcircumflex" unicode="&#x125;" horiz-adv-x="652" 
d="M239 720h128l-53 -269q29 25 66.5 40.5t79.5 15.5q58 0 95 -25t50.5 -72.5t-0.5 -117.5l-58 -292h-135l56 275q10 58 -7 87t-63 29t-77.5 -31.5t-42.5 -89.5l-54 -270h-129zM461 772l-131 84l-165 -84l20 100l164 81l131 -81z" />
    <glyph glyph-name="Itilde" unicode="&#x128;" horiz-adv-x="497" 
d="M268 700h135l-140 -700h-135zM169 757q23 67 62 98t86 31q22 0 36.5 -6.5t26 -15.5t24 -15.5t27.5 -6.5q16 0 30 10t21 33h73q-23 -67 -62 -98t-86 -31q-22 0 -36.5 6.5t-26.5 15.5t-23.5 16t-26.5 7q-17 0 -31 -11t-21 -33h-73z" />
    <glyph glyph-name="itilde" unicode="&#x129;" horiz-adv-x="414" 
d="M186 500h136l-100 -500h-135zM107 544q21 58 55 85.5t76 27.5q24 0 39.5 -10t28.5 -19.5t31 -9.5q14 0 26 9t19 29h64q-20 -59 -54.5 -86t-75.5 -27q-25 0 -40.5 10t-28 19.5t-30.5 9.5q-15 0 -27 -9t-19 -29h-64z" />
    <glyph glyph-name="Imacron" unicode="&#x12a;" horiz-adv-x="515" 
d="M280 700h135l-140 -700h-135zM193 880h379l-19 -97h-379z" />
    <glyph glyph-name="imacron" unicode="&#x12b;" horiz-adv-x="455" 
d="M209 500h136l-99 -500h-136zM141 652h333l-17 -85h-333z" />
    <glyph glyph-name="Ibreve" unicode="&#x12c;" horiz-adv-x="452" 
d="M248 700h135l-140 -700h-135zM516 910q-10 -47 -36 -81t-65.5 -52.5t-87.5 -18.5t-80 18.5t-44.5 53t-3.5 81.5l4 21h73q-6 -34 8.5 -52.5t63.5 -18.5q48 0 70 18.5t28 52.5h74z" />
    <glyph glyph-name="ibreve" unicode="&#x12d;" horiz-adv-x="400" 
d="M182 500h135l-100 -500h-135zM424 678q-9 -41 -32 -71t-57 -46t-77 -16q-42 0 -69.5 16t-39 46.5t-3.5 70.5l4 18h64q-6 -29 6.5 -45.5t55.5 -16.5t62 16.5t25 45.5h65z" />
    <glyph glyph-name="Iogonek" unicode="&#x12e;" horiz-adv-x="362" 
d="M237 700h135l-140 -700h-135zM213 66l19 -65l-52 -24q-37 -18 -53.5 -33.5t-20.5 -32.5q-4 -19 7.5 -30t35.5 -11q14 0 33 3.5t40 10.5l-17 -81q-20 -7 -43.5 -11.5t-47.5 -4.5q-35 0 -64.5 11t-44.5 35.5t-7 64.5q5 27 23 52.5t53.5 50t93.5 47.5z" />
    <glyph glyph-name="iogonek" unicode="&#x12f;" horiz-adv-x="309" 
d="M164 500h129l-100 -500h-129zM242 564q-36 0 -54.5 22.5t-12.5 55.5t34 55.5t64 22.5q34 0 52.5 -22.5t12.5 -55.5t-33.5 -55.5t-62.5 -22.5zM171 65l18 -57l-46 -22q-33 -15 -47.5 -28.5t-17.5 -28.5q-4 -17 6 -27t31 -10q28 0 64 13l-14 -71q-18 -6 -38.5 -10t-41.5 -4
q-31 0 -56.5 10t-39 31.5t-7.5 55.5q8 36 41 68.5t109 63.5z" />
    <glyph glyph-name="Idotaccent" unicode="&#x130;" horiz-adv-x="275" 
d="M160 700h135l-140 -700h-135zM242 781q-27 0 -42 18.5t-10 45.5q6 28 28.5 47t49.5 19q28 0 43 -19t9 -47q-5 -27 -27.5 -45.5t-50.5 -18.5z" />
    <glyph glyph-name="dotlessi" unicode="&#x131;" horiz-adv-x="258" 
d="M111 500h135l-99 -500h-135z" />
    <glyph glyph-name="Jcircumflex" unicode="&#x134;" horiz-adv-x="619" 
d="M426 700h135l-98 -491q-13 -67 -51 -115.5t-92.5 -74.5t-118.5 -26q-79 0 -125.5 38.5t-51.5 111.5l124 31q2 -21 11 -36.5t24.5 -23.5t38.5 -8q27 0 48.5 12.5t36 34.5t19.5 49zM654 753l-130 84l-165 -84l20 100l164 81l132 -81z" />
    <glyph glyph-name="jcircumflex" unicode="&#x135;" horiz-adv-x="348" 
d="M32 38q-11 -53 -47 -87.5t-93 -39.5l-2 -111q43 1 87 15.5t82.5 43.5t67 73t40.5 105l92 463h-135zM352 562l-131 84l-164 -84l20 100l164 81l131 -81z" />
    <glyph glyph-name="uni0136" unicode="&#x136;" horiz-adv-x="673" 
d="M329 -44q3 -29 1.5 -55.5t-6.5 -50.5q-13 -65 -50.5 -100.5t-99.5 -35.5l12 56q24 0 39.5 15t21.5 45l4 20h-57l21 106h114zM158 700h135l-58 -289h41l304 289h165l-359 -344l227 -356h-173l-186 298h-42l-59 -298h-135z" />
    <glyph glyph-name="uni0137" unicode="&#x137;" horiz-adv-x="568" 
d="M262 -31q3 -29 1.5 -54t-5.5 -46q-12 -60 -50 -93t-100 -33l13 63q16 0 27.5 6t18.5 19q2 4 3 7.5t2 7.5l3 16h-50l22 107h115zM155 720h129l-83 -415h33l203 195h168l-270 -248l172 -252h-168l-127 198h-32l-39 -198h-129z" />
    <glyph glyph-name="Lacute" unicode="&#x139;" horiz-adv-x="537" 
d="M293 700l-117 -587h311l-22 -113h-447l140 700h135zM473 968l-22 -111l-250 -105l20 97z" />
    <glyph glyph-name="lacute" unicode="&#x13a;" horiz-adv-x="323" 
d="M193 720h128l-143 -720h-128zM402 954l-19 -96l-219 -92l17 84z" />
    <glyph glyph-name="uni013B" unicode="&#x13b;" horiz-adv-x="537" 
d="M252 -44q3 -29 1.5 -55.5t-6.5 -50.5q-13 -65 -51 -100.5t-100 -35.5l12 56q26 0 41 15t21 45l4 20h-57l21 106h114zM293 700l-117 -587h311l-22 -113h-447l140 700h135z" />
    <glyph glyph-name="uni013C" unicode="&#x13c;" horiz-adv-x="263" 
d="M129 -31q3 -29 1.5 -54t-5.5 -46q-12 -60 -50 -93t-100 -33l12 63q23 0 36 11.5t18 34.5l2 13l-50 -3l21 107h115zM155 720h128l-143 -720h-128z" />
    <glyph glyph-name="Lcaron" unicode="&#x13d;" horiz-adv-x="537" 
d="M515 700q2 -29 0.5 -55.5t-5.5 -50.5q-13 -64 -50.5 -100t-99.5 -36l12 56q24 0 39 15t22 46l3 19h-56l21 106h114zM293 700l-117 -587h311l-22 -113h-447l140 700h135z" />
    <glyph glyph-name="lcaron" unicode="&#x13e;" horiz-adv-x="438" 
d="M453 720q3 -30 2 -54.5t-5 -46.5q-13 -59 -50.5 -92t-99.5 -33l12 63q22 0 35 11.5t18 33.5l2 13l-50 -3l21 108h115zM155 720h128l-143 -720h-128z" />
    <glyph glyph-name="Ldot" unicode="&#x13f;" horiz-adv-x="458" 
d="M18 0l140 700h136l-118 -593h230l-21 -107h-367zM376 318q-28 0 -43 19t-9 46q5 28 28 47t50 19t42.5 -19t10.5 -47q-6 -27 -29 -46t-50 -19z" />
    <glyph glyph-name="ldot" unicode="&#x140;" horiz-adv-x="319" 
d="M12 0l143 720h135l-143 -720h-135zM286 263q-28 0 -43 18.5t-10 46.5q5 26 28 45t50 19q28 0 43.5 -19t10.5 -45q-6 -28 -29 -46.5t-50 -18.5z" />
    <glyph glyph-name="Lslash" unicode="&#x141;" horiz-adv-x="530" 
d="M92 371l78 23l61 306h136l-52 -263l94 28l-22 -109l-95 -28l-44 -225h230l-21 -103h-366l57 286l-77 -23z" />
    <glyph glyph-name="lslash" unicode="&#x142;" horiz-adv-x="265" 
d="M25 342l267 82l-21 -111l-268 -82zM157 720h135l-143 -720h-135z" />
    <glyph glyph-name="Nacute" unicode="&#x143;" horiz-adv-x="715" 
d="M737 700l-140 -700h-138l-209 486l-97 -486h-135l140 700h137l209 -486l98 486h135zM621 968l-22 -111l-250 -105l20 97z" />
    <glyph glyph-name="nacute" unicode="&#x144;" horiz-adv-x="561" 
d="M111 500h116v-51q30 27 67 42.5t77 15.5q59 0 95.5 -25t49 -72.5t-0.5 -117.5l-58 -292h-129l55 275q11 58 -6 87t-64 29q-46 0 -76.5 -29.5t-41.5 -87.5l-55 -274h-128zM494 734l-19 -96l-219 -92l17 84z" />
    <glyph glyph-name="uni0145" unicode="&#x145;" horiz-adv-x="715" 
d="M367 -44q3 -29 1.5 -55.5t-6.5 -50.5q-12 -65 -50 -100.5t-100 -35.5l12 56q25 0 40 15t21 45l4 20h-57l21 106h114zM737 700l-140 -700h-138l-209 486l-97 -486h-135l140 700h137l209 -486l98 486h135z" />
    <glyph glyph-name="uni0146" unicode="&#x146;" horiz-adv-x="561" 
d="M301 -31q3 -29 1.5 -54t-5.5 -46q-12 -60 -49.5 -93t-99.5 -33l12 63q22 0 35 11.5t17 34.5l3 17h18l-1 -7h-68l22 107h115zM111 500h116v-51q30 27 67 42.5t77 15.5q59 0 95.5 -25t49 -72.5t-0.5 -117.5l-58 -292h-129l55 275q11 58 -6 87t-64 29q-46 0 -76.5 -29.5
t-41.5 -87.5l-55 -274h-128z" />
    <glyph glyph-name="Ncaron" unicode="&#x147;" horiz-adv-x="715" 
d="M737 700l-140 -700h-138l-209 486l-97 -486h-135l140 700h137l209 -486l98 486h135zM654 935l-20 -101l-164 -81l-131 81l20 101l130 -87z" />
    <glyph glyph-name="ncaron" unicode="&#x148;" horiz-adv-x="561" 
d="M111 500h116v-51q30 27 67 42.5t77 15.5q59 0 95.5 -25t49 -72.5t-0.5 -117.5l-58 -292h-129l55 275q11 58 -6 87t-64 29q-46 0 -76.5 -29.5t-41.5 -87.5l-55 -274h-128zM523 705l-17 -88l-144 -71l-116 71l18 88l114 -76z" />
    <glyph glyph-name="Eng" unicode="&#x14a;" horiz-adv-x="715" 
d="M737 700l-140 -700h-138l-209 486l-97 -486h-135l140 700h137l209 -486l98 486h135zM481 110h138l-22 -113q-14 -66 -55 -109t-97.5 -64.5t-113.5 -23.5l3 111q56 5 87.5 30t37.5 56z" />
    <glyph glyph-name="eng" unicode="&#x14b;" horiz-adv-x="575" 
d="M111 500h123l-1 -51q30 27 67.5 42.5t77.5 15.5q59 0 97.5 -25t52.5 -72.5t0 -117.5l-58 -292h-135l55 275q11 58 -6 87t-64 29q-46 0 -76.5 -29.5t-42.5 -87.5l-54 -274h-135zM335 -2l18 90h135l-19 -90q-12 -62 -48 -106t-86.5 -67t-106.5 -25l2 111q35 4 56.5 17
t33 32.5t15.5 37.5z" />
    <glyph glyph-name="Omacron" unicode="&#x14c;" 
d="M339 -7q-73 0 -132.5 26t-99 73.5t-54.5 113t0 144.5q16 78 57 143.5t99.5 113.5t128.5 74t143 26q76 0 135 -26t98.5 -74t54 -113.5t-1.5 -143.5q-15 -79 -55.5 -144.5t-99 -113t-128.5 -73.5t-145 -26zM363 108q64 0 119 30.5t94.5 85t53.5 126.5q14 73 -3.5 127
t-60.5 84.5t-107 30.5q-65 0 -120.5 -30.5t-94.5 -84.5t-53 -127q-14 -72 3 -126.5t61 -85t108 -30.5zM327 880h379l-19 -97h-379z" />
    <glyph glyph-name="omacron" unicode="&#x14d;" horiz-adv-x="584" 
d="M238 -7q-73 0 -123.5 31.5t-72 89t-6.5 135.5q16 79 61 137t109.5 89.5t136.5 31.5t124 -31.5t74 -89t7 -135.5q-16 -79 -62 -137t-110.5 -89.5t-137.5 -31.5zM260 108q32 0 63 15.5t54.5 47t33.5 80.5q9 47 -1.5 78.5t-35 47t-56.5 15.5q-31 0 -60.5 -15.5t-52 -47
t-31.5 -80.5q-9 -47 0 -78.5t32 -47t54 -15.5zM214 658h333l-17 -85h-333z" />
    <glyph glyph-name="Obreve" unicode="&#x14e;" 
d="M339 -7q-73 0 -132.5 26t-99 73.5t-54.5 113t0 144.5q16 78 57 143.5t99.5 113.5t128.5 74t143 26q76 0 135 -26t98.5 -74t54 -113.5t-1.5 -143.5q-15 -79 -55.5 -144.5t-99 -113t-128.5 -73.5t-145 -26zM363 108q64 0 119 30.5t94.5 85t53.5 126.5q14 73 -3.5 127
t-60.5 84.5t-107 30.5q-65 0 -120.5 -30.5t-94.5 -84.5t-53 -127q-14 -72 3 -126.5t61 -85t108 -30.5zM680 910q-9 -47 -35 -81t-65 -52.5t-88 -18.5q-48 0 -80 18.5t-44.5 53t-3.5 81.5l4 21h73q-6 -34 8 -52.5t63 -18.5t71 18.5t28 52.5h73z" />
    <glyph glyph-name="obreve" unicode="&#x14f;" horiz-adv-x="584" 
d="M238 -7q-73 0 -123.5 31.5t-72 89t-6.5 135.5q16 79 61 137t109.5 89.5t136.5 31.5t124 -31.5t74 -89t7 -135.5q-16 -79 -62 -137t-110.5 -89.5t-137.5 -31.5zM260 108q32 0 63 15.5t54.5 47t33.5 80.5q9 47 -1.5 78.5t-35 47t-56.5 15.5q-31 0 -60.5 -15.5t-52 -47
t-31.5 -80.5q-9 -47 0 -78.5t32 -47t54 -15.5zM524 684q-8 -41 -30.5 -71t-57.5 -46t-77 -16q-43 0 -70.5 16t-38.5 46.5t-3 70.5l4 18h63q-5 -28 7.5 -44.5t55.5 -16.5q42 0 61.5 16.5t25.5 44.5h64z" />
    <glyph glyph-name="Ohungarumlaut" unicode="&#x150;" 
d="M339 -7q-73 0 -132.5 26t-99 73.5t-54.5 113t0 144.5q16 78 57 143.5t99.5 113.5t128.5 74t143 26q76 0 135 -26t98.5 -74t54 -113.5t-1.5 -143.5q-15 -79 -55.5 -144.5t-99 -113t-128.5 -73.5t-145 -26zM363 108q64 0 119 30.5t94.5 85t53.5 126.5q14 73 -3.5 127
t-60.5 84.5t-107 30.5q-65 0 -120.5 -30.5t-94.5 -84.5t-53 -127q-14 -72 3 -126.5t61 -85t108 -30.5zM573 947l-136 -186h-86l109 186h113zM755 947l-145 -186h-86l118 186h113z" />
    <glyph glyph-name="ohungarumlaut" unicode="&#x151;" horiz-adv-x="584" 
d="M238 -7q-73 0 -123.5 31.5t-72 89t-6.5 135.5q16 79 61 137t109.5 89.5t136.5 31.5t124 -31.5t74 -89t7 -135.5q-16 -79 -62 -137t-110.5 -89.5t-137.5 -31.5zM260 108q32 0 63 15.5t54.5 47t33.5 80.5q9 47 -1.5 78.5t-35 47t-56.5 15.5q-31 0 -60.5 -15.5t-52 -47
t-31.5 -80.5q-9 -47 0 -78.5t32 -47t54 -15.5zM430 716l-119 -163h-75l94 163h100zM589 716l-127 -163h-75l103 163h99z" />
    <glyph glyph-name="OE" unicode="&#x152;" horiz-adv-x="1152" 
d="M339 -7q-73 0 -132.5 26t-99 73.5t-54.5 113t0 144.5q16 78 57 143.5t99.5 113.5t128.5 74t143 26q76 0 135 -26t98.5 -74t54 -113.5t-1.5 -143.5q-15 -79 -55.5 -144.5t-99 -113t-128.5 -73.5t-145 -26zM363 108q64 0 119 30.5t94.5 85t53.5 126.5q14 73 -3.5 127
t-60.5 84.5t-107 30.5q-65 0 -120.5 -30.5t-94.5 -84.5t-53 -127q-14 -72 3 -126.5t61 -85t108 -30.5zM1172 587h-357l-36 -178h267l-22 -109h-267l-37 -187h357l-23 -113h-491l139 700h492z" />
    <glyph glyph-name="oe" unicode="&#x153;" horiz-adv-x="935" 
d="M238 -7q-73 0 -123.5 31.5t-72 89t-6.5 135.5q16 79 61 137t109.5 89.5t136.5 31.5t124 -31.5t74 -89t7 -135.5q-16 -79 -62 -137t-110.5 -89.5t-137.5 -31.5zM260 108q32 0 63 15.5t54.5 47t33.5 80.5q9 47 -1.5 78.5t-35 47t-56.5 15.5q-31 0 -60.5 -15.5t-52 -47
t-31.5 -80.5q-9 -47 0 -78.5t32 -47t54 -15.5zM613 -7q-75 0 -125 33t-70.5 92t-4.5 136q14 74 57 131t104.5 89.5t132.5 32.5q73 0 121.5 -31t68 -86.5t4.5 -129.5q-2 -11 -6 -24.5t-10 -28.5h-344q-1 -32 10.5 -54.5t34 -35t53.5 -12.5q36 0 69 15.5t50 40.5l107 -34
q-42 -64 -108.5 -99t-143.5 -35zM769 300q5 28 -4.5 50.5t-30 35t-48.5 12.5q-26 0 -50 -13t-44 -34.5t-31 -50.5h208z" />
    <glyph glyph-name="Racute" unicode="&#x154;" horiz-adv-x="656" 
d="M516 484q6 32 -2 55t-31.5 35.5t-62.5 12.5h-150l-41 -207h149q60 0 94 28t44 76zM446 700q84 0 133.5 -29.5t67.5 -79t6 -107.5q-10 -52 -45 -102t-97 -82.5t-151 -32.5h-153l-54 -267h-135l140 700h288zM444 312l127 -312h-151l-119 312h143zM573 968l-22 -111
l-250 -105l20 97z" />
    <glyph glyph-name="racute" unicode="&#x155;" horiz-adv-x="380" 
d="M111 500h116l-3 -64q25 26 55.5 42.5t63 23t66.5 -1.5l-24 -120q-24 9 -54 5t-59.5 -21t-53 -48.5t-32.5 -79.5l-47 -236h-128zM409 734l-19 -96l-220 -92l18 84z" />
    <glyph glyph-name="uni0156" unicode="&#x156;" horiz-adv-x="656" 
d="M353 -44q2 -29 0.5 -55.5t-6.5 -50.5q-13 -65 -50.5 -100.5t-99.5 -35.5l12 56q25 0 40 15t21 45l4 20h-56l21 106h114zM516 484q6 32 -2 55t-31.5 35.5t-62.5 12.5h-150l-41 -207h149q60 0 94 28t44 76zM446 700q84 0 133.5 -29.5t67.5 -79t6 -107.5q-10 -52 -45 -102
t-97 -82.5t-151 -32.5h-153l-54 -267h-135l140 700h288zM444 312l127 -312h-151l-119 312h143z" />
    <glyph glyph-name="uni0157" unicode="&#x157;" horiz-adv-x="380" 
d="M134 -31q3 -29 1.5 -54t-5.5 -46q-11 -60 -49 -93t-100 -33l12 63q22 0 35 11.5t17 34.5l3 13l-50 -3l22 107h114zM111 500h116l-3 -64q25 26 55.5 42.5t63 23t66.5 -1.5l-24 -120q-24 9 -54 5t-59.5 -21t-53 -48.5t-32.5 -79.5l-47 -236h-128z" />
    <glyph glyph-name="Rcaron" unicode="&#x158;" horiz-adv-x="655" 
d="M516 484q6 32 -2 55t-31.5 35.5t-62.5 12.5h-150l-41 -207h149q60 0 94 28t44 76zM446 700q84 0 133.5 -29.5t67.5 -79t6 -107.5q-10 -52 -45 -102t-97 -82.5t-151 -32.5h-153l-54 -267h-135l140 700h288zM444 312l127 -312h-151l-119 312h143zM606 935l-20 -101
l-164 -81l-131 81l20 101l130 -87z" />
    <glyph glyph-name="rcaron" unicode="&#x159;" horiz-adv-x="380" 
d="M111 500h116l-3 -64q25 26 55.5 42.5t63 23t66.5 -1.5l-24 -120q-24 9 -54 5t-59.5 -21t-53 -48.5t-32.5 -79.5l-47 -236h-128zM438 705l-18 -88l-144 -71l-115 71l18 88l115 -76z" />
    <glyph glyph-name="Sacute" unicode="&#x15a;" horiz-adv-x="592" 
d="M156 198q-1 -28 12 -49t38 -32.5t62 -11.5q58 0 92.5 26.5t41.5 64.5q7 30 -7.5 50t-44 34t-69.5 27q-39 12 -75 26t-63.5 35t-40 54.5t-1.5 84.5q13 64 53 109t100 68t132 23q61 0 107 -17.5t72.5 -51t31.5 -82.5l-130 -34q-2 22 -15.5 38t-36 25.5t-49.5 9.5
q-31 1 -57.5 -9t-45 -29t-24.5 -44q-5 -28 8.5 -44.5t39.5 -28t58 -22.5q39 -12 78 -27.5t70 -39t45 -59.5t3 -91q-11 -58 -48 -105t-97.5 -75t-143.5 -28q-68 0 -119 20t-80 58.5t-29 91.5zM548 968l-21 -111l-250 -105l19 97z" />
    <glyph glyph-name="sacute" unicode="&#x15b;" horiz-adv-x="488" 
d="M134 163q1 -25 13 -38t30 -18.5t36 -5.5q35 0 57.5 13.5t27.5 34.5q3 18 -8.5 28.5t-32 16t-43.5 11.5q-26 7 -54 15.5t-53 24.5t-37.5 41.5t-4.5 64.5q9 46 42 81t82 55t109 20q71 0 114 -30t53 -86l-118 -32q-3 14 -13 23t-26 13t-32 4q-30 0 -51 -11.5t-25 -31.5
q-2 -12 3 -19.5t17 -12.5t27.5 -9t34.5 -9q29 -8 58.5 -18.5t52.5 -26.5t34.5 -43t3.5 -68q-8 -44 -40 -79.5t-83 -56.5t-118 -21q-78 0 -125.5 33t-51.5 103zM437 734l-19 -96l-219 -92l17 84z" />
    <glyph glyph-name="Scircumflex" unicode="&#x15c;" horiz-adv-x="592" 
d="M156 198q-1 -28 12 -49t38 -32.5t62 -11.5q58 0 92.5 26.5t41.5 64.5q7 30 -7.5 50t-44 34t-69.5 27q-39 12 -75 26t-63.5 35t-40 54.5t-1.5 84.5q13 64 53 109t100 68t132 23q61 0 107 -17.5t72.5 -51t31.5 -82.5l-130 -34q-2 22 -15.5 38t-36 25.5t-49.5 9.5
q-31 1 -57.5 -9t-45 -29t-24.5 -44q-5 -28 8.5 -44.5t39.5 -28t58 -22.5q39 -12 78 -27.5t70 -39t45 -59.5t3 -91q-11 -58 -48 -105t-97.5 -75t-143.5 -28q-68 0 -119 20t-80 58.5t-29 91.5zM545 753l-131 84l-164 -84l20 100l163 81l132 -81z" />
    <glyph glyph-name="scircumflex" unicode="&#x15d;" horiz-adv-x="488" 
d="M134 163q1 -25 13 -38t30 -18.5t36 -5.5q35 0 57.5 13.5t27.5 34.5q3 18 -8.5 28.5t-32 16t-43.5 11.5q-26 7 -54 15.5t-53 24.5t-37.5 41.5t-4.5 64.5q9 46 42 81t82 55t109 20q71 0 114 -30t53 -86l-118 -32q-3 14 -13 23t-26 13t-32 4q-30 0 -51 -11.5t-25 -31.5
q-2 -12 3 -19.5t17 -12.5t27.5 -9t34.5 -9q29 -8 58.5 -18.5t52.5 -26.5t34.5 -43t3.5 -68q-8 -44 -40 -79.5t-83 -56.5t-118 -21q-78 0 -125.5 33t-51.5 103zM453 553l-131 84l-164 -84l20 100l164 81l131 -81z" />
    <glyph glyph-name="Scedilla" unicode="&#x15e;" horiz-adv-x="592" 
d="M156 198q-1 -28 12 -49t38 -32.5t62 -11.5q58 0 92.5 26.5t41.5 64.5q7 30 -7.5 50t-44 34t-69.5 27q-39 12 -75 26t-63.5 35t-40 54.5t-1.5 84.5q13 64 53 109t100 68t132 23q61 0 107 -17.5t72.5 -51t31.5 -82.5l-130 -34q-2 22 -15.5 38t-36 25.5t-49.5 9.5
q-31 1 -57.5 -9t-45 -29t-24.5 -44q-5 -28 8.5 -44.5t39.5 -28t58 -22.5q39 -12 78 -27.5t70 -39t45 -59.5t3 -91q-11 -58 -48 -105t-97.5 -75t-143.5 -28q-68 0 -119 20t-80 58.5t-29 91.5zM289 -50q35 0 62 -12t40.5 -36t6.5 -61q-8 -37 -31 -61.5t-55.5 -37.5t-67.5 -13
h-141l17 80h117q23 0 37.5 6.5t18.5 26.5t-7.5 26.5t-35.5 6.5h-61l24 125h86z" />
    <glyph glyph-name="scedilla" unicode="&#x15f;" horiz-adv-x="488" 
d="M134 163q1 -25 13 -38t30 -18.5t36 -5.5q35 0 57.5 13.5t27.5 34.5q3 18 -8.5 28.5t-32 16t-43.5 11.5q-26 7 -54 15.5t-53 24.5t-37.5 41.5t-4.5 64.5q9 46 42 81t82 55t109 20q71 0 114 -30t53 -86l-118 -32q-3 14 -13 23t-26 13t-32 4q-30 0 -51 -11.5t-25 -31.5
q-2 -12 3 -19.5t17 -12.5t27.5 -9t34.5 -9q29 -8 58.5 -18.5t52.5 -26.5t34.5 -43t3.5 -68q-8 -44 -40 -79.5t-83 -56.5t-118 -21q-78 0 -125.5 33t-51.5 103zM231 -33q30 0 54 -10t35.5 -31t5.5 -54q-7 -32 -27.5 -54t-49 -33t-58.5 -11h-124l14 70h103q21 0 33.5 6
t16.5 23q3 18 -7.5 23.5t-30.5 5.5h-54l22 110h75z" />
    <glyph glyph-name="Scaron" unicode="&#x160;" horiz-adv-x="592" 
d="M156 198q-1 -28 12 -49t38 -32.5t62 -11.5q58 0 92.5 26.5t41.5 64.5q7 30 -7.5 50t-44 34t-69.5 27q-39 12 -75 26t-63.5 35t-40 54.5t-1.5 84.5q13 64 53 109t100 68t132 23q61 0 107 -17.5t72.5 -51t31.5 -82.5l-130 -34q-2 22 -15.5 38t-36 25.5t-49.5 9.5
q-31 1 -57.5 -9t-45 -29t-24.5 -44q-5 -28 8.5 -44.5t39.5 -28t58 -22.5q39 -12 78 -27.5t70 -39t45 -59.5t3 -91q-11 -58 -48 -105t-97.5 -75t-143.5 -28q-68 0 -119 20t-80 58.5t-29 91.5zM582 935l-20 -101l-165 -81l-131 81l21 101l130 -87z" />
    <glyph glyph-name="scaron" unicode="&#x161;" horiz-adv-x="488" 
d="M134 163q1 -25 13 -38t30 -18.5t36 -5.5q35 0 57.5 13.5t27.5 34.5q3 18 -8.5 28.5t-32 16t-43.5 11.5q-26 7 -54 15.5t-53 24.5t-37.5 41.5t-4.5 64.5q9 46 42 81t82 55t109 20q71 0 114 -30t53 -86l-118 -32q-3 14 -13 23t-26 13t-32 4q-30 0 -51 -11.5t-25 -31.5
q-2 -12 3 -19.5t17 -12.5t27.5 -9t34.5 -9q29 -8 58.5 -18.5t52.5 -26.5t34.5 -43t3.5 -68q-8 -44 -40 -79.5t-83 -56.5t-118 -21q-78 0 -125.5 33t-51.5 103zM466 705l-18 -88l-144 -71l-115 71l18 88l114 -76z" />
    <glyph glyph-name="uni0162" unicode="&#x162;" horiz-adv-x="635" 
d="M123 700h568l-23 -113h-216l-116 -587h-135l116 587h-216zM304 -45q35 0 62 -11.5t40.5 -35.5t6.5 -62q-8 -36 -31 -61t-55.5 -37.5t-67.5 -12.5h-141l17 80h117q23 0 38 6.5t18 26.5q4 20 -7.5 26.5t-35.5 6.5h-61l25 125h86z" />
    <glyph glyph-name="uni0163" unicode="&#x163;" horiz-adv-x="380" 
d="M159 621h137l-93 -467q-4 -22 3.5 -31t32.5 -9h67l-22 -114h-87q-49 0 -82.5 15t-46.5 49t-1 91zM55 389l22 112h305l-22 -112h-305zM180 -35l-11 6q33 0 60 -11t40.5 -34t6.5 -57q-7 -35 -29 -58.5t-52.5 -35.5t-64.5 -12h-131l17 85h111q20 0 32 4.5t15 17.5
q2 12 -8.5 16.5t-29.5 4.5h-62l35 179h92z" />
    <glyph glyph-name="Tcaron" unicode="&#x164;" horiz-adv-x="635" 
d="M123 700h568l-23 -113h-216l-116 -587h-135l116 587h-216zM600 935l-20 -101l-163 -81l-132 81l20 101l131 -87z" />
    <glyph glyph-name="tcaron" unicode="&#x165;" horiz-adv-x="425" 
d="M475 721q2 -29 2.5 -49.5t-4.5 -42.5q-10 -52 -47 -80t-99 -28l12 64q22 0 34 5t14 17l2 9h-49l20 105h115zM148 500l28 140h130l-28 -140h110l-22 -113h-111l-40 -203q-8 -39 5.5 -55t39 -17t52.5 3l-22 -110q-49 -10 -91.5 -6t-72.5 23.5t-41.5 59.5t0.5 102l40 203
h-70l22 113h71z" />
    <glyph glyph-name="Utilde" unicode="&#x168;" horiz-adv-x="709" 
d="M154 700h135l-88 -442q-10 -49 3 -82.5t44.5 -50.5t76.5 -17q46 0 84 17t65 50.5t37 82.5l88 442h135l-87 -435q-13 -69 -48 -120t-82.5 -85t-103.5 -50.5t-113 -16.5q-76 0 -135 30t-87 90t-11 152zM276 757q23 67 62.5 98t86.5 31q21 0 36 -6.5t26.5 -15.5t23.5 -15.5
t27 -6.5q16 0 30 10t21 33h73q-23 -67 -62 -98t-86 -31q-21 0 -35.5 6.5t-26.5 15.5t-24 16t-27 7q-17 0 -30.5 -11t-21.5 -33h-73z" />
    <glyph glyph-name="utilde" unicode="&#x169;" horiz-adv-x="562" 
d="M451 0h-117l2 52q-29 -28 -67 -43.5t-77 -15.5q-58 0 -95 25t-50.5 72.5t-0.5 117.5l58 292h129l-55 -276q-11 -57 6.5 -86.5t63.5 -29.5q47 0 77.5 30t42.5 87l54 275h128zM177 550q20 58 54 85.5t76 27.5q24 0 40 -10t28.5 -19.5t30.5 -9.5q15 0 26.5 9t18.5 29h64
q-20 -59 -54.5 -86t-75.5 -27q-24 0 -39.5 10t-28.5 19.5t-31 9.5q-14 0 -26.5 -9t-19.5 -29h-63z" />
    <glyph glyph-name="Umacron" unicode="&#x16a;" horiz-adv-x="709" 
d="M154 700h135l-88 -442q-10 -49 3 -82.5t44.5 -50.5t76.5 -17q46 0 84 17t65 50.5t37 82.5l88 442h135l-87 -435q-13 -69 -48 -120t-82.5 -85t-103.5 -50.5t-113 -16.5q-76 0 -135 30t-87 90t-11 152zM289 880h379l-19 -97h-379z" />
    <glyph glyph-name="umacron" unicode="&#x16b;" horiz-adv-x="562" 
d="M451 0h-117l2 52q-29 -28 -67 -43.5t-77 -15.5q-58 0 -95 25t-50.5 72.5t-0.5 117.5l58 292h129l-55 -276q-11 -57 6.5 -86.5t63.5 -29.5q47 0 77.5 30t42.5 87l54 275h128zM188 658h332l-17 -85h-333z" />
    <glyph glyph-name="Ubreve" unicode="&#x16c;" horiz-adv-x="709" 
d="M154 700h135l-88 -442q-10 -49 3 -82.5t44.5 -50.5t76.5 -17q46 0 84 17t65 50.5t37 82.5l88 442h135l-87 -435q-13 -69 -48 -120t-82.5 -85t-103.5 -50.5t-113 -16.5q-76 0 -135 30t-87 90t-11 152zM643 910q-10 -47 -36 -81t-65.5 -52.5t-87.5 -18.5t-80 18.5t-44.5 53
t-2.5 81.5l3 21h73q-6 -34 8.5 -52.5t63.5 -18.5t70.5 18.5t27.5 52.5h74z" />
    <glyph glyph-name="ubreve" unicode="&#x16d;" horiz-adv-x="562" 
d="M451 0h-117l2 52q-29 -28 -67 -43.5t-77 -15.5q-58 0 -95 25t-50.5 72.5t-0.5 117.5l58 292h129l-55 -276q-11 -57 6.5 -86.5t63.5 -29.5q47 0 77.5 30t42.5 87l54 275h128zM497 684q-8 -41 -30.5 -71t-57 -46t-77.5 -16q-42 0 -70 16t-39 46.5t-2 70.5l3 18h64
q-6 -28 7 -44.5t55 -16.5q43 0 62.5 16.5t25.5 44.5h63z" />
    <glyph glyph-name="Uring" unicode="&#x16e;" horiz-adv-x="709" 
d="M154 700h135l-88 -442q-10 -49 3 -82.5t44.5 -50.5t76.5 -17q46 0 84 17t65 50.5t37 82.5l88 442h135l-87 -435q-13 -69 -48 -120t-82.5 -85t-103.5 -50.5t-113 -16.5q-76 0 -135 30t-87 90t-11 152zM590 856q-10 -52 -50 -82.5t-89 -30.5q-47 0 -75.5 30.5t-18.5 82.5
q11 54 51.5 84.5t87.5 30.5q49 0 77 -30.5t17 -84.5zM522 857q4 23 -7 36.5t-31 13.5t-37 -13.5t-21 -36.5q-4 -22 7 -36t30 -14q21 0 38 14t21 36z" />
    <glyph glyph-name="uring" unicode="&#x16f;" horiz-adv-x="562" 
d="M451 0h-117l2 52q-29 -28 -67 -43.5t-77 -15.5q-58 0 -95 25t-50.5 72.5t-0.5 117.5l58 292h129l-55 -276q-11 -57 6.5 -86.5t63.5 -29.5q47 0 77.5 30t42.5 87l54 275h128zM452 637q-9 -46 -44.5 -73t-78.5 -27q-41 0 -66 27t-15 73q9 47 44 74t78 27q42 0 66.5 -27
t15.5 -74zM392 638q4 20 -6 32t-28 12q-17 0 -31.5 -12t-18.5 -32t6 -32t27 -12t32 12t19 32z" />
    <glyph glyph-name="Uhungarumlaut" unicode="&#x170;" horiz-adv-x="709" 
d="M154 700h135l-88 -442q-10 -49 3 -82.5t44.5 -50.5t76.5 -17q46 0 84 17t65 50.5t37 82.5l88 442h135l-87 -435q-13 -69 -48 -120t-82.5 -85t-103.5 -50.5t-113 -16.5q-76 0 -135 30t-87 90t-11 152zM535 947l-135 -186h-86l108 186h113zM717 947l-145 -186h-86l118 186
h113z" />
    <glyph glyph-name="uhungarumlaut" unicode="&#x171;" horiz-adv-x="562" 
d="M451 0h-117l2 52q-29 -28 -67 -43.5t-77 -15.5q-58 0 -95 25t-50.5 72.5t-0.5 117.5l58 292h129l-55 -276q-11 -57 6.5 -86.5t63.5 -29.5q47 0 77.5 30t42.5 87l54 275h128zM403 716l-119 -163h-75l95 163h99zM563 716l-127 -163h-75l102 163h100z" />
    <glyph glyph-name="Uogonek" unicode="&#x172;" horiz-adv-x="709" 
d="M154 700h135l-88 -442q-10 -49 3 -82.5t44.5 -50.5t76.5 -17q46 0 84 17t65 50.5t37 82.5l88 442h135l-87 -435q-13 -69 -48 -120t-82.5 -85t-103.5 -50.5t-113 -16.5q-76 0 -135 30t-87 90t-11 152zM361 66l19 -65l-52 -25q-38 -17 -54.5 -32.5t-20.5 -33.5
q-3 -18 8.5 -29.5t34.5 -11.5q15 0 33.5 3.5t39.5 11.5l-17 -82q-19 -7 -42.5 -11t-47.5 -4q-35 0 -64.5 11t-45 35.5t-7.5 63.5q5 27 23.5 53t54 50.5t93.5 47.5z" />
    <glyph glyph-name="uogonek" unicode="&#x173;" horiz-adv-x="572" 
d="M451 0h-117l2 52q-29 -28 -67 -43.5t-77 -15.5q-58 0 -95 25t-50.5 72.5t-0.5 117.5l58 292h129l-55 -276q-11 -57 6.5 -86.5t63.5 -29.5q47 0 77.5 30t42.5 87l54 275h128zM434 63l18 -57l-46 -22q-34 -15 -48 -28.5t-18 -28.5q-3 -17 7 -27t31 -10q28 0 64 13l-15 -71
q-17 -6 -37.5 -10t-41.5 -4q-31 0 -56.5 10t-39 31.5t-7.5 55.5q8 36 41 68.5t109 63.5z" />
    <glyph glyph-name="Wcircumflex" unicode="&#x174;" horiz-adv-x="1023" 
d="M325 0h-158l-54 700h144l21 -544l248 544h151l31 -542l236 542h146l-333 -700h-159l-37 502zM759 753l-130 84l-165 -84l20 100l164 82l131 -82z" />
    <glyph glyph-name="wcircumflex" unicode="&#x175;" horiz-adv-x="770" 
d="M250 0h-131l-49 500h132l16 -338l155 338h128l18 -338l149 338h131l-247 -500h-134l-21 314zM572 546l-114 74l-145 -74l18 88l143 71l115 -71z" />
    <glyph glyph-name="Ycircumflex" unicode="&#x176;" horiz-adv-x="705" 
d="M620 700h152l-353 -454l-49 -246h-135l49 245l-171 455h151l113 -325zM599 753l-130 84l-165 -84l20 100l164 82l132 -82z" />
    <glyph glyph-name="ycircumflex" unicode="&#x177;" horiz-adv-x="557" 
d="M455 500h137l-434 -700h-129l137 218l-101 482h143l57 -329zM467 546l-115 74l-144 -74l17 88l144 71l116 -71z" />
    <glyph glyph-name="Ydieresis" unicode="&#x178;" horiz-adv-x="705" 
d="M620 700h152l-353 -454l-49 -246h-135l49 245l-171 455h151l113 -325zM366 781q-28 0 -43 18.5t-10 45.5q6 28 28.5 47t49.5 19q28 0 43.5 -19t9.5 -47q-5 -27 -28 -45.5t-50 -18.5zM548 781q-27 0 -42 18.5t-10 45.5q6 28 28.5 47t49.5 19q28 0 43 -19t9 -47
q-5 -27 -27.5 -45.5t-50.5 -18.5z" />
    <glyph glyph-name="Zacute" unicode="&#x179;" horiz-adv-x="603" 
d="M627 597l-451 -484h354l-22 -113h-513l21 103l449 484h-352l21 113h513zM532 968l-22 -111l-250 -105l20 97z" />
    <glyph glyph-name="zacute" unicode="&#x17a;" horiz-adv-x="484" 
d="M471 399l-296 -286h241l-22 -113h-403l20 102l295 285h-238l22 113h401zM418 734l-19 -96l-219 -92l17 84z" />
    <glyph glyph-name="Zdotaccent" unicode="&#x17b;" horiz-adv-x="603" 
d="M627 597l-451 -484h354l-22 -113h-513l21 103l449 484h-352l21 113h513zM386 781q-27 0 -42 18.5t-10 45.5q5 28 28 47t50 19t42.5 -19t9.5 -47q-5 -27 -27.5 -45.5t-50.5 -18.5z" />
    <glyph glyph-name="zdotaccent" unicode="&#x17c;" horiz-adv-x="484" 
d="M471 399l-296 -286h241l-22 -113h-403l20 102l295 285h-238l22 113h401zM290 570q-24 0 -37.5 16.5t-8.5 41.5q5 23 24.5 40t44.5 17q24 0 37 -17t8 -40q-4 -25 -24.5 -41.5t-43.5 -16.5z" />
    <glyph glyph-name="Zcaron" unicode="&#x17d;" horiz-adv-x="603" 
d="M627 597l-451 -484h354l-22 -113h-513l21 103l449 484h-352l21 113h513zM565 935l-20 -101l-164 -81l-131 81l20 101l131 -87z" />
    <glyph glyph-name="zcaron" unicode="&#x17e;" horiz-adv-x="484" 
d="M471 399l-296 -286h241l-22 -113h-403l20 102l295 285h-238l22 113h401zM447 705l-18 -88l-144 -71l-115 71l18 88l114 -76z" />
    <glyph glyph-name="uni018F" unicode="&#x18f;" horiz-adv-x="756" 
d="M596 377q13 64 -3 111t-54.5 73t-94.5 26q-43 0 -79.5 -12.5t-66.5 -36t-50 -57.5h-153q37 69 93 120.5t127 80t152 28.5q101 0 168.5 -45t94.5 -125.5t6 -187.5q-21 -106 -79.5 -187.5t-144 -126.5t-186.5 -45q-100 0 -168 39.5t-95.5 115t-5.5 182.5q3 15 7 32t9 33
h548l-21 -110h-411q-8 -50 9 -88t56 -59.5t95 -21.5q55 0 103.5 23t83 66t46.5 103z" />
    <glyph glyph-name="florin" unicode="&#x192;" horiz-adv-x="412" 
d="M152 501h272l-34 -112h-272zM213 527q32 90 94 131.5t172 41.5l-35 -113q-42 0 -63 -14t-33 -47l-136 -375q-30 -84 -80.5 -117.5t-123.5 -33.5h-31l35 113h20q17 0 27.5 10.5t19.5 32.5z" />
    <glyph glyph-name="uni01CD" unicode="&#x1cd;" horiz-adv-x="739" 
d="M454 587h-35l-323 -587h-139l390 700h223l112 -700h-139zM163 274h408l-23 -113h-407zM653 934l-20 -100l-164 -81l-131 81l20 100l130 -86z" />
    <glyph glyph-name="uni01CE" unicode="&#x1ce;" horiz-adv-x="529" 
d="M306 0l2 61q-31 -31 -66 -49t-88 -18q-50 0 -84 17.5t-49 49t-6 74.5q12 63 66 104.5t148 52.5l128 14l7 35q4 21 -11.5 39t-55.5 18q-36 0 -66 -17.5t-46 -52.5l-103 40q34 67 97 103t145 36q100 0 141 -49.5t25 -130.5l-66 -327h-118zM339 217l-110 -14
q-34 -4 -54.5 -19.5t-24.5 -37.5q-5 -21 10 -35.5t45 -14.5q35 0 62.5 13t45 38t25.5 62zM512 734l-19 -100l-164 -81l-131 81l19 100l130 -86z" />
    <glyph glyph-name="Gcaron" unicode="&#x1e6;" horiz-adv-x="760" 
d="M630 478q-21 61 -65 87.5t-104 26.5q-62 0 -118.5 -31t-97 -85.5t-54.5 -125.5q-14 -72 4 -126.5t62.5 -85t109.5 -30.5q42 0 82.5 15t75 41t58.5 61l11 58h-191l22 108h323l-38 -183q-35 -58 -91.5 -107.5t-128 -78.5t-151.5 -29q-76 0 -135.5 26t-98.5 73.5t-53 113
t1 144.5q16 78 56 143.5t98 113.5t128 74t145 26q71 0 129.5 -22.5t98 -65t52.5 -103.5zM666 934l-20 -100l-163 -81l-132 81l20 100l131 -86z" />
    <glyph glyph-name="gcaron" unicode="&#x1e7;" horiz-adv-x="598" 
d="M470 500h116l-84 -426q-17 -85 -71 -146.5t-140 -94.5t-198 -33l2 108q120 2 191 43t87 118v2l18 6q-30 -35 -77 -59.5t-106 -24.5q-65 0 -109 32t-61 89.5t-1 135.5q15 78 55 136t96.5 89.5t122.5 31.5q34 0 61.5 -9.5t47 -25t30.5 -34.5zM175 250q-14 -63 11.5 -101.5
t78.5 -38.5q31 0 60.5 16.5t52 48.5t31.5 75q8 45 -1.5 76t-33 47.5t-54.5 16.5q-35 0 -65 -17.5t-51.5 -49t-28.5 -73.5zM544 734l-20 -100l-164 -81l-131 81l20 100l130 -86z" />
    <glyph glyph-name="uni01E8" unicode="&#x1e8;" horiz-adv-x="673" 
d="M158 700h135l-58 -289h41l304 289h165l-359 -344l227 -356h-173l-186 298h-42l-59 -298h-135zM610 934l-19 -100l-164 -81l-131 81l19 100l131 -86z" />
    <glyph glyph-name="uni01E9" unicode="&#x1e9;" horiz-adv-x="568" 
d="M109 720h129l-82 -415h32l204 195h167l-269 -248l171 -252h-168l-126 198h-33l-39 -198h-129zM369 954l-21 -100l-163 -81l-132 81l21 100l130 -86z" />
    <glyph glyph-name="uni01EA" unicode="&#x1ea;" 
d="M339 -7q-73 0 -132.5 26t-99 73.5t-54.5 113t0 144.5q16 78 57 143.5t99.5 113.5t128.5 74t143 26q75 0 134.5 -26t99 -74t54 -113.5t-1.5 -143.5q-15 -79 -55.5 -144.5t-99 -113t-128.5 -73.5t-145 -26zM363 108q64 0 119 30.5t94.5 85t53.5 126.5q14 73 -3.5 127
t-61 84.5t-107.5 30.5t-119.5 -30.5t-94.5 -84.5t-53 -127q-14 -72 3 -126.5t60.5 -85t108.5 -30.5zM441 78l19 -65l-52 -25q-38 -17 -54.5 -32.5t-19.5 -32.5q-4 -19 7.5 -30t34.5 -11q15 0 34 3.5t39 10.5l-16 -81q-20 -7 -43.5 -11.5t-46.5 -4.5q-36 0 -65.5 11.5
t-44.5 35.5t-7 64q5 27 23 52.5t53.5 49.5t93.5 48z" />
    <glyph glyph-name="uni01EB" unicode="&#x1eb;" horiz-adv-x="584" 
d="M238 -7q-73 0 -123.5 31.5t-72 89t-6.5 135.5q16 79 61 137t109.5 89.5t136.5 31.5t124 -31.5t74 -89t7 -135.5q-16 -79 -62 -137t-110.5 -89.5t-137.5 -31.5zM260 108q32 0 63 15.5t54.5 47t33.5 80.5q9 47 -1.5 78.5t-35 47t-56.5 15.5q-31 0 -60.5 -15.5t-52 -47
t-31.5 -80.5q-9 -47 0 -78.5t32 -47t54 -15.5zM364 95l19 -65l-52 -25q-38 -17 -54.5 -32.5t-19.5 -32.5q-4 -19 7.5 -30t34.5 -11q16 0 34.5 3.5t38.5 10.5l-16 -81q-20 -8 -43.5 -12t-46.5 -4q-36 0 -65.5 11t-44.5 35.5t-8 64.5q6 26 24 52t53.5 50t93.5 48z" />
    <glyph glyph-name="AEacute" unicode="&#x1fc;" horiz-adv-x="918" 
d="M673 587l-35 -178h170l-22 -110h-170l-37 -186h264l-23 -113h-398l32 161h-234l-117 -161h-146l513 700h489l-22 -113h-264zM301 274h175l65 329zM791 968l-22 -111l-250 -105l19 97z" />
    <glyph glyph-name="aeacute" unicode="&#x1fd;" horiz-adv-x="858" 
d="M531 -7q-73 0 -119 32.5t-63 91t-1 136.5q23 119 97 186.5t186 67.5q72 0 120.5 -30.5t68 -85.5t4.5 -130q-3 -12 -6.5 -25t-8.5 -29h-345q-2 -32 8.5 -54.5t32 -35t50.5 -12.5q45 0 75 13t51 43l107 -34q-43 -63 -107.5 -98.5t-149.5 -35.5zM694 300q4 30 -5 52.5
t-30 34t-51 11.5q-27 0 -51 -12.5t-42.5 -34.5t-28.5 -51h208zM399 193l-4 -78q-30 -45 -69.5 -72t-84 -38.5t-87.5 -11.5q-48 0 -83 16t-50.5 48t-5.5 78q8 39 28 66.5t49.5 45.5t65 28.5t71.5 15.5l128 18l7 32q4 21 -11.5 39t-55.5 18q-36 0 -66 -17.5t-46 -52.5l-103 40
q34 67 97 103t145 36q99 0 138.5 -49.5t23.5 -130.5l-21 -107zM339 218l-110 -15q-36 -5 -55.5 -20.5t-23.5 -37.5q-5 -24 12 -34.5t46 -10.5q30 0 57 11.5t46 35.5t26 61zM622 731l-20 -96l-219 -92l17 84z" />
    <glyph glyph-name="uni0218" unicode="&#x218;" horiz-adv-x="592" 
d="M300 -44q3 -29 1.5 -55.5t-6.5 -50.5q-13 -65 -50.5 -100.5t-99.5 -35.5l11 56q26 0 41 15t21 45l4 20h-57l21 106h114zM156 198q-1 -28 12 -49t38 -32.5t62 -11.5q58 0 92.5 26.5t41.5 64.5q7 30 -7.5 50t-44 34t-69.5 27q-39 12 -75 26t-63.5 35t-40 54.5t-1.5 84.5
q13 64 53 109t100 68t132 23q61 0 107 -17.5t72.5 -51t31.5 -82.5l-130 -34q-2 22 -15.5 38t-36 25.5t-49.5 9.5q-31 1 -57.5 -9t-45 -29t-24.5 -44q-5 -28 8.5 -44.5t39.5 -28t58 -22.5q39 -12 78 -27.5t70 -39t45 -59.5t3 -91q-11 -58 -48 -105t-97.5 -75t-143.5 -28
q-68 0 -119 20t-80 58.5t-29 91.5z" />
    <glyph glyph-name="uni0219" unicode="&#x219;" horiz-adv-x="488" 
d="M254 -31q3 -29 2 -54t-5 -46q-12 -60 -50 -93t-100 -33l12 63q23 0 35.5 11.5t16.5 32.5l3 12h-50l22 107h114zM134 163q1 -25 13 -38t30 -18.5t36 -5.5q35 0 57.5 13.5t27.5 34.5q3 18 -8.5 28.5t-32 16t-43.5 11.5q-26 7 -54 15.5t-53 24.5t-37.5 41.5t-4.5 64.5
q9 46 42 81t82 55t109 20q71 0 114 -30t53 -86l-118 -32q-3 14 -13 23t-26 13t-32 4q-30 0 -51 -11.5t-25 -31.5q-2 -12 3 -19.5t17 -12.5t27.5 -9t34.5 -9q29 -8 58.5 -18.5t52.5 -26.5t34.5 -43t3.5 -68q-8 -44 -40 -79.5t-83 -56.5t-118 -21q-78 0 -125.5 33t-51.5 103z
" />
    <glyph glyph-name="uni021A" unicode="&#x21a;" horiz-adv-x="635" 
d="M318 -44q3 -29 1.5 -55.5t-6.5 -50.5q-13 -65 -50.5 -100.5t-99.5 -35.5l11 56q25 0 40.5 15t21.5 45l4 20h-56l21 106h113zM123 700h568l-23 -113h-216l-116 -587h-135l116 587h-216z" />
    <glyph glyph-name="uni021B" unicode="&#x21b;" horiz-adv-x="367" 
d="M182 -31q3 -29 1.5 -54t-4.5 -46q-12 -60 -49.5 -93t-100.5 -33l12 63q22 0 35.5 11.5t16.5 31.5l3 12l-50 1l21 107h115zM148 500l28 140h130l-28 -140h110l-22 -113h-111l-40 -203q-8 -39 5.5 -55t39 -17t52.5 3l-22 -110q-49 -10 -91.5 -6t-72.5 23.5t-41.5 59.5
t0.5 102l40 203h-70l22 113h71z" />
    <glyph glyph-name="uni0232" unicode="&#x232;" horiz-adv-x="705" 
d="M620 700h152l-353 -454l-49 -246h-135l49 245l-171 455h151l113 -325zM288 880h379l-20 -97h-378z" />
    <glyph glyph-name="uni0233" unicode="&#x233;" horiz-adv-x="557" 
d="M455 500h137l-435 -700h-129l138 218l-101 482h143l57 -329zM175 680h379l-20 -97h-379z" />
    <glyph glyph-name="uni0259" unicode="&#x259;" horiz-adv-x="560" 
d="M322 507q75 0 125.5 -33t70.5 -92t5 -136q-15 -74 -57.5 -131t-104.5 -89.5t-132 -32.5q-73 0 -122 31t-68 86.5t-5 129.5q3 11 6.5 24.5t9.5 28.5h344q2 32 -9.5 54.5t-34 35t-54.5 12.5q-36 0 -68.5 -15.5t-49.5 -40.5l-107 34q42 64 108 99t143 35zM167 200
q-5 -28 4.5 -50.5t30 -35t48.5 -12.5q25 0 50 13t44 34.5t30 50.5h-207z" />
    <glyph glyph-name="circumflex" unicode="&#x2c6;" horiz-adv-x="316" 
d="M373 592l-130 85l-165 -85l20 101l164 81l132 -81z" />
    <glyph glyph-name="caron" unicode="&#x2c7;" horiz-adv-x="316" 
d="M410 774l-21 -100l-163 -82l-132 82l20 100l131 -86z" />
    <glyph glyph-name="breve" unicode="&#x2d8;" horiz-adv-x="337" 
d="M426 750q-10 -47 -36 -81.5t-65 -52.5t-88 -18q-48 0 -80 18t-44.5 53t-2.5 81l3 21h73q-6 -33 8 -52t63 -19t71 19t28 52h73z" />
    <glyph glyph-name="dotaccent" unicode="&#x2d9;" horiz-adv-x="151" 
d="M149 620q-28 0 -43 19t-9 46q5 27 27.5 46.5t50.5 19.5q27 0 42.5 -19.5t10.5 -46.5q-6 -27 -29 -46t-50 -19z" />
    <glyph glyph-name="ring" unicode="&#x2da;" horiz-adv-x="253" 
d="M336 716q-10 -52 -50.5 -82.5t-89.5 -30.5q-47 0 -75 30.5t-18 82.5q11 53 51 84t88 31q49 0 76.5 -31t17.5 -84zM268 717q4 23 -7.5 36.5t-31.5 13.5q-19 0 -36 -13.5t-21 -36.5q-5 -22 6.5 -36t31.5 -14t36.5 14t21.5 36z" />
    <glyph glyph-name="ogonek" unicode="&#x2db;" horiz-adv-x="247" 
d="M155 65l20 -65l-53 -24q-37 -17 -53.5 -32.5t-20.5 -33.5t7.5 -29.5t35.5 -11.5q15 0 33.5 3.5t39.5 10.5l-16 -81q-21 -7 -44.5 -11t-46.5 -4q-36 0 -65.5 11t-44.5 35.5t-7 63.5q5 27 23 52.5t53.5 50t93.5 47.5z" />
    <glyph glyph-name="tilde" unicode="&#x2dc;" horiz-adv-x="381" 
d="M81 607q23 66 62 97.5t87 31.5q21 0 35.5 -6.5t26.5 -15.5t23.5 -16t26.5 -7q17 0 30.5 10.5t21.5 32.5h73q-23 -66 -62 -97t-86 -31q-21 0 -36 7t-27 15.5t-23.5 15.5t-26.5 7q-16 0 -30 -11t-22 -33h-73z" />
    <glyph glyph-name="hungarumlaut" unicode="&#x2dd;" horiz-adv-x="387" 
d="M301 786l-135 -185h-86l108 185h113zM483 786l-145 -185h-85l117 185h113z" />
    <glyph glyph-name="uni0394" unicode="&#x394;" horiz-adv-x="712" 
d="M390 700h111l161 -596l-20 -104h-671l20 104zM415 545l-282 -432h392z" />
    <glyph glyph-name="uni03A9" unicode="&#x3a9;" horiz-adv-x="780" 
d="M123 109q-35 30 -53 68t-21.5 83.5t7.5 96.5q15 79 55.5 143.5t98 110.5t127.5 71t143 25q75 0 135 -25t99 -71t54 -110.5t0 -143.5q-11 -50 -32.5 -96t-55.5 -84t-80 -68h109l-21 -109h-272l22 111q45 20 84 52.5t66 78t39 103.5q15 75 -2 129.5t-60.5 84t-107.5 29.5
q-48 0 -91.5 -17t-78.5 -48.5t-60 -76.5t-36 -101q-12 -58 -2.5 -103.5t35.5 -78t63 -52.5l-22 -111h-273l22 109h109z" />
    <glyph glyph-name="uni03BC" unicode="&#x3bc;" horiz-adv-x="599" 
d="M488 0h-135l99 501h135zM107 -200h-135l139 701h135l-55 -277q-8 -37 0 -62.5t28.5 -38.5t51.5 -13q47 0 81 29.5t46 86.5v1l18 -95q-18 -42 -48 -72t-67 -46t-80 -18q-13 0 -26 1.5t-24.5 5t-21.5 8.5z" />
    <glyph glyph-name="pi" unicode="&#x3c0;" horiz-adv-x="650" 
d="M80 501h589l-22 -110h-66l-77 -391h-135l77 391h-186l-78 -391h-135l78 391h-66z" />
    <glyph glyph-name="Wgrave" unicode="&#x1e80;" horiz-adv-x="1023" 
d="M325 0h-158l-54 700h144l21 -544l248 544h151l31 -542l236 542h146l-333 -700h-159l-37 502zM534 968l205 -119l-19 -97l-208 106z" />
    <glyph glyph-name="wgrave" unicode="&#x1e81;" horiz-adv-x="770" 
d="M250 0h-131l-49 500h132l16 -338l155 338h128l18 -338l149 338h131l-247 -500h-134l-21 314zM374 734l180 -104l-17 -84l-182 93z" />
    <glyph glyph-name="Wacute" unicode="&#x1e82;" horiz-adv-x="1023" 
d="M325 0h-158l-54 700h144l21 -544l248 544h151l31 -542l236 542h146l-333 -700h-159l-37 502zM762 968l-21 -111l-250 -105l19 97z" />
    <glyph glyph-name="wacute" unicode="&#x1e83;" horiz-adv-x="770" 
d="M250 0h-131l-49 500h132l16 -338l155 338h128l18 -338l149 338h131l-247 -500h-134l-21 314zM575 734l-19 -96l-220 -92l17 84z" />
    <glyph glyph-name="Wdieresis" unicode="&#x1e84;" horiz-adv-x="1023" 
d="M325 0h-158l-54 700h144l21 -544l248 544h151l31 -542l236 542h146l-333 -700h-159l-37 502zM525 781q-27 0 -42.5 18.5t-9.5 45.5q5 28 28 47t50 19q28 0 43 -19t9 -47q-5 -27 -28 -45.5t-50 -18.5zM708 781q-28 0 -43 18.5t-9 45.5q5 28 28 47t50 19t42.5 -19t9.5 -47
q-6 -27 -28.5 -45.5t-49.5 -18.5z" />
    <glyph glyph-name="wdieresis" unicode="&#x1e85;" horiz-adv-x="770" 
d="M250 0h-131l-49 500h132l16 -338l155 338h128l18 -338l149 338h131l-247 -500h-134l-21 314zM366 570q-24 0 -37 16.5t-8 41.5q5 23 24.5 40t43.5 17t38 -17t8 -40q-4 -25 -24.5 -41.5t-44.5 -16.5zM527 570q-24 0 -37 16.5t-9 41.5q5 23 25 40t43 17q25 0 38.5 -17
t7.5 -40q-4 -25 -24 -41.5t-44 -16.5z" />
    <glyph glyph-name="uni1EBC" unicode="&#x1ebc;" horiz-adv-x="608" 
d="M627 587h-357l-36 -178h268l-22 -109h-267l-37 -187h356l-22 -113h-492l140 700h492zM236 757q22 67 61.5 98t86.5 31q21 0 35.5 -6.5t26.5 -15.5t24 -15.5t27 -6.5q17 0 30.5 10t20.5 33h73q-23 -67 -62 -98t-85 -31q-22 0 -36.5 6.5t-26.5 15.5t-23.5 16t-26.5 7
q-18 0 -31.5 -11t-21.5 -33h-72z" />
    <glyph glyph-name="uni1EBD" unicode="&#x1ebd;" horiz-adv-x="560" 
d="M238 -7q-75 0 -125.5 33t-70.5 92t-5 136q15 74 57.5 131t104.5 89.5t133 32.5q72 0 121 -31t68 -86.5t5 -129.5q-3 -11 -6.5 -24.5t-9.5 -28.5h-344q-1 -32 10.5 -54.5t33.5 -35t54 -12.5q37 0 69 15.5t50 40.5l107 -34q-43 -64 -109 -99t-143 -35zM393 300
q5 28 -4.5 50.5t-29.5 35t-49 12.5q-25 0 -49.5 -13t-44 -34.5t-30.5 -50.5h207zM188 550q20 58 54.5 85.5t75.5 27.5q25 0 40 -10t28 -19.5t31 -9.5q15 0 27 9t19 29h64q-21 -59 -55 -86t-76 -27q-24 0 -39.5 10t-28.5 19.5t-31 9.5q-15 0 -26.5 -9t-19.5 -29h-63z" />
    <glyph glyph-name="Ygrave" unicode="&#x1ef2;" horiz-adv-x="705" 
d="M620 700h152l-353 -454l-49 -246h-135l49 245l-171 455h151l113 -325zM374 968l206 -119l-20 -97l-208 106z" />
    <glyph glyph-name="ygrave" unicode="&#x1ef3;" horiz-adv-x="557" 
d="M455 500h137l-435 -700h-129l138 218l-101 482h143l57 -329zM269 734l180 -104l-17 -84l-182 93z" />
    <glyph glyph-name="uni1EF8" unicode="&#x1ef8;" horiz-adv-x="705" 
d="M620 700h152l-353 -454l-49 -246h-135l49 245l-171 455h151l113 -325zM276 757q23 67 62 98t86 31q21 0 36 -6.5t26.5 -15.5t23.5 -15.5t27 -6.5q17 0 30.5 10t20.5 33h73q-22 -67 -61.5 -98t-85.5 -31q-22 0 -36.5 6.5t-26.5 15.5t-23.5 16t-26.5 7q-17 0 -31 -11
t-21 -33h-73z" />
    <glyph glyph-name="uni1EF9" unicode="&#x1ef9;" horiz-adv-x="557" 
d="M455 500h137l-435 -700h-129l138 218l-101 482h143l57 -329zM183 550q19 58 53.5 85.5t76.5 27.5q24 0 39.5 -10t29 -19.5t30.5 -9.5q15 0 27 9t18 29h64q-20 -59 -54.5 -86t-75.5 -27q-24 0 -39.5 10t-28.5 19.5t-31 9.5q-14 0 -26.5 -9t-18.5 -29h-64z" />
    <glyph glyph-name="endash" unicode="&#x2013;" horiz-adv-x="632" 
d="M61 336h543l-23 -114h-542z" />
    <glyph glyph-name="emdash" unicode="&#x2014;" horiz-adv-x="854" 
d="M61 336h766l-23 -114h-765z" />
    <glyph glyph-name="quoteleft" unicode="&#x2018;" horiz-adv-x="282" 
d="M338 700l-108 -251h-143l158 251h93z" />
    <glyph glyph-name="quoteright" unicode="&#x2019;" horiz-adv-x="282" 
d="M73 449l108 251h143l-157 -251h-94z" />
    <glyph glyph-name="quotesinglbase" unicode="&#x201a;" horiz-adv-x="282" 
d="M-36 -100l107 247h144l-157 -247h-94z" />
    <glyph glyph-name="quotedblleft" unicode="&#x201c;" horiz-adv-x="481" 
d="M338 700l-108 -251h-143l158 251h93zM536 700l-108 -251h-143l158 251h93z" />
    <glyph glyph-name="quotedblright" unicode="&#x201d;" horiz-adv-x="481" 
d="M272 449l107 251h143l-157 -251h-93zM73 449l108 251h143l-157 -251h-94z" />
    <glyph glyph-name="quotedblbase" unicode="&#x201e;" horiz-adv-x="482" 
d="M-36 -100l107 247h144l-157 -247h-94zM163 -100l107 247h144l-157 -247h-94z" />
    <glyph glyph-name="dagger" unicode="&#x2020;" horiz-adv-x="603" 
d="M621 568l-21 -104l-200 11l-100 -575h-135l127 575l-204 -11l21 104l200 -10l35 242h135l-62 -242z" />
    <glyph glyph-name="daggerdbl" unicode="&#x2021;" horiz-adv-x="603" 
d="M600 464l-200 11l-50 -249l205 11l-21 -104l-200 11l-35 -244h-135l62 244l-204 -11l21 104l199 -11l50 249l-204 -11l21 104l199 -10l35 242h135l-62 -242l205 10z" />
    <glyph glyph-name="bullet" unicode="&#x2022;" horiz-adv-x="440" 
d="M209 196q-39 0 -66.5 18t-40 49.5t-3.5 69.5q7 39 32 70t59.5 50t73.5 19t67 -19t40 -50t5 -70q-9 -38 -33.5 -69t-59.5 -49.5t-74 -18.5z" />
    <glyph glyph-name="ellipsis" unicode="&#x2026;" horiz-adv-x="702" 
d="M299 -7q-36 0 -54.5 23t-12.5 57q7 34 35 57.5t65 23.5q35 0 54.5 -23.5t12.5 -57.5q-6 -34 -35 -57t-65 -23zM516 -7q-36 0 -55 23t-12 57t35 57.5t65 23.5q35 0 54.5 -23.5t12.5 -57.5t-35.5 -57t-64.5 -23zM83 -7q-36 0 -55 23t-12 57t35 57.5t65 23.5
q35 0 54.5 -23.5t12.5 -57.5q-6 -34 -35 -57t-65 -23z" />
    <glyph glyph-name="perthousand" unicode="&#x2030;" horiz-adv-x="1115" 
d="M100 548q10 51 37.5 86.5t67 54t85.5 18.5q67 0 104 -41.5t21 -117.5q-10 -51 -37.5 -86.5t-67 -54t-83.5 -18.5q-68 0 -105 41.5t-22 117.5zM273 626q-27 0 -46 -18.5t-27 -59.5q-7 -40 4 -59t38 -19q26 0 46 19t27 59q8 41 -4 59.5t-38 18.5zM603 700h132l-534 -700
h-132zM391 153q10 51 38 86.5t67 53.5t84 18q67 0 103.5 -41t21.5 -117q-10 -51 -38 -87t-67 -54.5t-83 -18.5q-67 0 -104.5 41.5t-21.5 118.5zM563 230q-26 0 -45.5 -18.5t-27.5 -58.5q-8 -41 4 -59.5t38 -18.5t45.5 18.5t27.5 59.5q8 40 -4 58.5t-38 18.5zM740 153
q10 51 37.5 86.5t67 53.5t84.5 18q67 0 104 -41t22 -117q-10 -51 -38 -87t-67.5 -54.5t-84.5 -18.5q-67 0 -104 41.5t-21 118.5zM912 230q-26 0 -45.5 -18.5t-26.5 -58.5q-8 -41 3.5 -59.5t38.5 -18.5q25 0 45 18.5t28 59.5q7 40 -4.5 58.5t-38.5 18.5z" />
    <glyph glyph-name="guilsinglleft" unicode="&#x2039;" horiz-adv-x="292" 
d="M217 75h-129l-54 175l123 175h129l-127 -175z" />
    <glyph glyph-name="guilsinglright" unicode="&#x203a;" horiz-adv-x="292" 
d="M6 75l127 175l-57 175h128l54 -175l-124 -175h-128z" />
    <glyph glyph-name="fraction" unicode="&#x2044;" horiz-adv-x="603" 
d="M529 720h133l-549 -740h-133z" />
    <glyph glyph-name="uni2074" unicode="&#x2074;" horiz-adv-x="364" 
d="M226 350l14 72h-176l11 53l209 225h89l-42 -209h44l-14 -69h-44l-14 -72h-77zM283 618l-111 -127h85z" />
    <glyph glyph-name="uni20A8" unicode="&#x20a8;" horiz-adv-x="1110" 
d="M516 484q6 32 -2 55t-31.5 35.5t-62.5 12.5h-150l-41 -207h149q60 0 94 28t44 76zM446 700q84 0 133.5 -29.5t67.5 -79t6 -107.5q-10 -52 -45 -102t-97 -82.5t-151 -32.5h-153l-54 -267h-135l140 700h288zM444 312l127 -312h-151l-119 312h143zM756 163q1 -25 13 -38
t30 -18.5t36 -5.5q35 0 57.5 13.5t27.5 34.5q3 18 -8.5 28.5t-32 16t-43.5 11.5q-26 7 -54 15.5t-52.5 24.5t-37 41.5t-5.5 64.5q9 46 42 81t82 55t109 20q71 0 114 -30t53 -86l-118 -32q-2 14 -12.5 23t-26.5 13t-32 4q-30 0 -51 -11.5t-26 -31.5q-1 -12 4 -19.5t17 -12.5
t27.5 -9t34.5 -9q29 -8 59 -18.5t53 -26.5t34 -43t4 -68q-9 -44 -41 -79.5t-83 -56.5t-118 -21q-78 0 -125.5 33t-51.5 103z" />
    <glyph glyph-name="Euro" unicode="&#x20ac;" 
d="M50 388l17 83h428l-16 -83h-429zM19 231l16 82h429l-17 -82h-428zM77 350q16 79 56 144.5t97.5 113t127 73.5t144.5 26q108 0 182 -51.5t95 -147.5l-120 -33q-12 42 -39.5 68t-63.5 38t-75 12q-64 0 -119.5 -30.5t-94.5 -85.5t-54 -127q-14 -72 3.5 -126.5t61 -85.5
t107.5 -31q40 0 82 12.5t82 42.5t73 80l106 -31q-65 -109 -161 -163.5t-207 -54.5q-75 0 -134 26t-98 74t-52.5 113.5t1.5 143.5z" />
    <glyph glyph-name="indianrupee" unicode="&#x20b9;" horiz-adv-x="610" 
d="M554 643l-24 -119q-14 -71 -38.5 -122t-62.5 -84t-93.5 -49t-133.5 -16l-10 -51q-6 -29 -3 -53t20 -38t51 -14q49 0 74 28t34 76h126q-22 -101 -87 -154.5t-167 -53.5q-105 0 -149.5 57t-23.5 164l26 131q75 0 125.5 3t82.5 12.5t50.5 28.5t29.5 51.5t21 81.5l24 121h128
zM131 700h538l-19 -96h-539zM78 436l17 91h539l-18 -91h-538z" />
    <glyph glyph-name="turkishlira" unicode="&#x20ba;" horiz-adv-x="857" 
d="M243 700l-136 -680q58 -13 110.5 -20t101.5 -7q134 0 225.5 49t149.5 149t88 253h-139q-14 -73 -36.5 -132t-57.5 -102t-85 -66t-120 -23q-18 0 -37 1.5t-39 5.5l114 572h-139zM490 473l18 90l-454 -93l-17 -88zM453 308l18 90l-446 -89l-18 -91z" />
    <glyph glyph-name="uni20BD" unicode="&#x20bd;" horiz-adv-x="647" 
d="M47 383h343q58 0 91.5 29t43.5 76q6 33 -1 57t-30 37.5t-62 13.5h-116l-118 -596h-136l139 700h254q84 0 134 -28.5t68.5 -76.5t6.5 -107q-11 -53 -45.5 -101t-96 -78.5t-150.5 -30.5h-346zM12 205h409l-22 -106h-409z" />
    <glyph glyph-name="uni2113" unicode="&#x2113;" horiz-adv-x="291" 
d="M175 720h128l-143 -720h-128z" />
    <glyph glyph-name="trademark" unicode="&#x2122;" horiz-adv-x="840" 
d="M110 700h261l-16 -80h-79l-54 -270h-102l54 270h-80zM427 700h135l51 -289l-47 -1l176 290h126l-70 -350h-94l57 288l28 3l-179 -291h-70l-58 291l24 -3l-58 -288h-91z" />
    <glyph glyph-name="uni2126" unicode="&#x2126;" horiz-adv-x="780" 
d="M122 105q-34 29 -52 68.5t-21.5 86t7.5 97.5q15 79 55.5 143.5t98.5 111t127.5 72t143.5 25.5q75 0 134.5 -25.5t99 -72t54 -111t-0.5 -143.5q-11 -50 -33 -97t-55.5 -86.5t-80.5 -68.5h109l-20 -105h-272l21 108q46 20 84.5 53.5t66 79.5t39.5 104q15 75 -2.5 128.5
t-61 82t-107.5 28.5q-48 0 -91 -16t-78.5 -47.5t-60 -75.5t-35.5 -100q-12 -58 -2.5 -104t35 -79.5t62.5 -53.5l-21 -108h-273l21 105h109z" />
    <glyph glyph-name="estimated" unicode="&#x212e;" horiz-adv-x="755" 
d="M662 135q-75 -67 -156.5 -104.5t-170.5 -37.5q-99 0 -169 39.5t-100.5 115t-8.5 184.5q15 78 51 146.5t89 119.5t121.5 80t149.5 29q82 0 139 -27t91 -74t44.5 -106t-2.5 -122l-12 -62h-508l-34 -171q29 -34 69 -51.5t96 -17.5q50 0 95.5 13.5t88.5 40t88 63.5zM572 393
l34 172q-23 30 -62.5 46t-91.5 16q-53 0 -99.5 -17.5t-84.5 -52.5l-32 -164h336z" />
    <glyph glyph-name="partialdiff" unicode="&#x2202;" horiz-adv-x="585" 
d="M408 267q8 36 2.5 65t-24.5 45t-52 16t-68 -18t-63 -55t-39 -91q-12 -60 9.5 -90.5t66.5 -30.5q34 0 69 17.5t62 53t37 88.5zM25 224q14 69 48 121.5t80.5 88.5t98.5 54.5t101 18.5q26 0 45.5 -5.5t34 -16t26.5 -27.5q2 38 -1.5 72.5t-16 61t-36 42t-59.5 15.5
q-11 0 -27.5 -2.5t-40.5 -7.5l14 72q29 9 54.5 12.5t46.5 3.5q64 0 105.5 -29.5t64 -81t25 -119t-12.5 -143.5q-19 -98 -57 -167t-88.5 -112t-107 -62.5t-112.5 -19.5q-67 0 -114 26t-66 77.5t-5 127.5z" />
    <glyph glyph-name="uni2206" unicode="&#x2206;" horiz-adv-x="712" 
d="M390 700h111l161 -596l-20 -104h-671l20 104zM415 545l-285 -441h392z" />
    <glyph glyph-name="product" unicode="&#x220f;" horiz-adv-x="751" 
d="M120 700h690l-20 -105h-75l-119 -595h-135l119 595h-271l-119 -595h-135l119 595h-74z" />
    <glyph glyph-name="summation" unicode="&#x2211;" horiz-adv-x="503" 
d="M131 700h421l-21 -104h-327l-11 34l252 -228l-21 -104l-342 -228l4 34h347l-21 -104h-421l32 159l283 188l-207 195z" />
    <glyph glyph-name="minus" unicode="&#x2212;" horiz-adv-x="525" 
d="M83 409h422l-23 -118h-423z" />
    <glyph glyph-name="uni2215" unicode="&#x2215;" horiz-adv-x="513" 
d="M470 700h133l-520 -700h-133z" />
    <glyph glyph-name="radical" unicode="&#x221a;" horiz-adv-x="785" 
d="M795 800h91l-597 -800h-68l-90 245l-82 -43l-27 66l214 113l92 -253l-23 15z" />
    <glyph glyph-name="infinity" unicode="&#x221e;" horiz-adv-x="715" 
d="M40 350q10 51 40.5 87t72 55.5t87.5 19.5q45 0 76 -17t52.5 -43t38 -55t32.5 -55t36 -42.5t50 -16.5q28 0 50.5 17.5t28.5 50.5q7 33 -8.5 50t-43.5 17q-39 0 -79.5 -29t-64.5 -75l-61 34q20 43 55.5 80.5t81 60.5t97.5 23q47 -1 81 -20t48.5 -54.5t3.5 -86.5
q-9 -51 -39.5 -87.5t-72.5 -55.5t-88 -19q-44 0 -76.5 16.5t-55 42.5t-40.5 55t-34.5 55t-34.5 43t-43 17q-29 0 -51 -17.5t-29 -50.5q-6 -33 9 -50t44 -17q38 0 79 28.5t65 75.5l60 -34q-19 -44 -54 -81.5t-81.5 -60.5t-98.5 -22q-71 0 -109.5 42t-23.5 119z" />
    <glyph glyph-name="integral" unicode="&#x222b;" horiz-adv-x="299" 
d="M202 634q23 63 54.5 99t73.5 51.5t95 15.5h20l-34 -114h-16q-22 0 -34.5 -12t-22.5 -40l-202 -569q-22 -62 -54 -98t-74 -51.5t-95 -15.5h-19l33 114h17q14 0 24 5.5t18 16.5t13 29z" />
    <glyph glyph-name="approxequal" unicode="&#x2248;" horiz-adv-x="581" 
d="M9 142q37 98 91.5 141.5t119.5 43.5q31 0 53 -10t39.5 -23t34.5 -22.5t39 -9.5q25 0 46.5 15.5t33.5 48.5h99q-36 -98 -91.5 -141.5t-120.5 -43.5q-31 0 -52.5 10t-39 23t-34.5 23t-39 10q-26 0 -47.5 -16.5t-33.5 -48.5h-98zM56 375q36 98 90.5 141.5t119.5 43.5
q31 0 53 -10t40 -23t35 -22.5t38 -9.5q25 0 46.5 15.5t33.5 48.5h99q-35 -98 -90.5 -141.5t-121.5 -43.5q-31 0 -52.5 9.5t-38.5 22.5t-34.5 23t-39.5 10q-25 0 -47 -16t-33 -48h-98z" />
    <glyph glyph-name="notequal" unicode="&#x2260;" horiz-adv-x="665" 
d="M590 623h88l-563 -546h-88zM69 290h543l-24 -117h-542zM117 528h543l-24 -118h-543z" />
    <glyph glyph-name="lessequal" unicode="&#x2264;" horiz-adv-x="513" 
d="M43 162h381l-20 -104h-381zM440 223h-174l-183 187l257 189h175l-269 -197l3 18z" />
    <glyph glyph-name="greaterequal" unicode="&#x2265;" horiz-adv-x="513" 
d="M62 223l269 197l-4 -18l-189 197h173l184 -189l-259 -187h-174zM434 162l-21 -104h-380l20 104h381z" />
    <glyph glyph-name="lozenge" unicode="&#x25ca;" horiz-adv-x="568" 
d="M355 604l202 -253l-303 -254l-203 254zM327 465l-136 -114l91 -114l136 114z" />
    <glyph glyph-name="uniA732" unicode="&#xa732;" horiz-adv-x="1324" 
d="M454 587h-35l-323 -587h-139l390 700h223l112 -700h-139zM163 274h408l-23 -113h-407zM1040 587h-36l-322 -587h-139l390 700h223l112 -700h-139zM749 274h408l-23 -113h-407z" />
    <glyph glyph-name="g.ss02" horiz-adv-x="606" 
d="M471 500h123l-84 -426q-10 -49 -36.5 -96.5t-69 -86.5t-100 -63.5t-128.5 -27.5t-157 21l48 102q76 -19 130.5 -13t90.5 29t56.5 57.5t28.5 72.5v2l18 5q-30 -32 -77 -57.5t-106 -25.5q-65 0 -109 32t-61 89.5t-2 135.5q16 78 56 136t96.5 89.5t122.5 31.5q51 0 85.5 -20
t53.5 -47zM174 250q-9 -45 1 -76t34 -47.5t56 -16.5t61.5 16.5t51.5 47.5t31 76q14 68 -13.5 103.5t-75.5 35.5q-31 0 -61.5 -16t-53 -47t-31.5 -76z" />
    <glyph glyph-name="comma.ss01" horiz-adv-x="220" 
d="M132 118q4 -31 3 -62t-6 -59q-14 -71 -55.5 -110t-110.5 -39l12 59q26 0 43 15t23 49l4 21h-66l26 126h127z" />
    <glyph glyph-name="quotedblleft.ss01" horiz-adv-x="357" 
d="M259 478q-4 30 -2.5 56.5t6.5 49.5q13 65 50.5 100.5t99.5 35.5l-11 -56q-25 0 -40.5 -14.5t-21.5 -45.5l-4 -19h57l-21 -107h-113zM93 478q-3 30 -2 56.5t6 49.5q13 65 50.5 100.5t99.5 35.5l-11 -56q-25 0 -40.5 -14.5t-21.5 -45.5l-3 -19h56l-21 -107h-113z" />
    <glyph glyph-name="quotedblright.ss01" horiz-adv-x="358" 
d="M404 720q2 -29 1 -56t-6 -51q-12 -64 -50.5 -99.5t-98.5 -35.5l10 55q25 0 40.5 15.5t21.5 45.5l4 19h-57l21 107h114zM238 720q2 -29 1 -56t-7 -51q-12 -64 -49.5 -99.5t-98.5 -35.5l10 55q25 0 40.5 15.5t21.5 45.5l4 19h-57l21 107h114z" />
    <glyph glyph-name="quoteleft.ss01" horiz-adv-x="192" 
d="M93 478q-3 30 -2 56.5t6 49.5q13 65 50.5 100.5t99.5 35.5l-11 -56q-25 0 -40.5 -14.5t-21.5 -45.5l-3 -19h56l-21 -107h-113z" />
    <glyph glyph-name="quoteright.ss01" horiz-adv-x="192" 
d="M238 720q2 -29 1 -56t-7 -51q-12 -64 -49.5 -99.5t-98.5 -35.5l10 55q25 0 40.5 15.5t21.5 45.5l4 19h-57l21 107h114z" />
    <glyph glyph-name="ampersand.ss03" horiz-adv-x="666" 
d="M443 557q-10 18 -29.5 26.5t-45.5 8.5q-45 0 -75.5 -22.5t-39.5 -65.5q-9 -45 20.5 -66t103.5 -22h276l-21 -108h-275q-85 0 -125.5 -26t-50.5 -76q-9 -46 12 -72t73 -26q58 0 91.5 31t45.5 91l51 258h132l-51 -258q-23 -112 -98.5 -174.5t-196.5 -62.5q-111 0 -163 55
t-33 147q11 62 51 105.5t106 63.5l1 4q-50 18 -71 57t-12 86q12 58 50 102.5t94.5 69t123.5 24.5q62 0 105.5 -21t64.5 -60zM555 625l-112 -68z" />
    <glyph glyph-name="ampersand.ss04" horiz-adv-x="777" 
d="M453 531q5 23 0 38.5t-18 23.5t-32 8q-30 0 -52 -17.5t-26 -43.5q-6 -26 5.5 -50t37.5 -56l353 -434h-168l-306 377q-40 48 -52 83t-3 79q9 48 41 86t82 60t114 22t102.5 -24t52 -64t1.5 -88h-132zM365 361l-54 -16q-70 -22 -107.5 -54t-46.5 -77q-6 -30 4.5 -54.5
t36 -39t63.5 -14.5q49 0 91.5 18.5t82.5 53.5t80 85l81 101h141l-98 -123q-63 -81 -125.5 -136t-130 -83.5t-147.5 -28.5q-77 0 -129.5 26.5t-75 74.5t-9.5 113q15 77 75.5 134.5t166.5 89.5l53 16z" />
    <glyph glyph-name="ampersand.ss05" horiz-adv-x="777" 
d="M454 537q5 20 0 34t-18.5 22t-32.5 8q-30 0 -52 -17.5t-26 -43.5q-6 -26 5.5 -50t37.5 -56l353 -434h-168l-306 377q-40 48 -52 83t-3 79q9 48 41 86t82 60t114 22t103 -24t52.5 -64.5t0.5 -87.5q-11 -41 -42 -72.5t-71 -54t-79 -35.5l-51 86q48 15 76.5 34.5t35.5 47.5z
M365 361l-54 -16q-70 -22 -107.5 -54t-46.5 -77q-6 -30 4.5 -54.5t36 -39t63.5 -14.5q49 0 91.5 18.5t82.5 53.5t80 85l81 101h141l-98 -123q-63 -81 -125.5 -136t-130 -83.5t-147.5 -28.5q-77 0 -129.5 26.5t-75 74.5t-9.5 113q15 77 75.5 134.5t166.5 89.5l53 16z" />
    </font>
</defs>
</svg>
