<?xml version="1.0" standalone="no"?>
<!DOCTYPE svg PUBLIC "-//W3C//DTD SVG 1.1//EN" "http://www.w3.org/Graphics/SVG/1.1/DTD/svg11.dtd" >
<svg xmlns="http://www.w3.org/2000/svg" xmlns:xlink="http://www.w3.org/1999/xlink" version="1.1">
<metadata>
Created by FontForge 20201107 at Mon May 23 15:50:47 2022
 By www-data
Copyright 2021 The Albert Sans Project Authors (https://github.com/usted/Albert-Sans)
</metadata>
<defs>
<font id="AlbertSans-Bold" horiz-adv-x="781" >
  <font-face 
    font-family="Albert Sans"
    font-weight="700"
    font-stretch="normal"
    units-per-em="1000"
    panose-1="0 0 0 0 0 0 0 0 0 0"
    ascent="800"
    descent="-200"
    x-height="500"
    cap-height="700"
    bbox="-54 -286 1318 971"
    underline-thickness="50"
    underline-position="-125"
    unicode-range="U+0020-FB01"
  />
<missing-glyph horiz-adv-x="629" 
d="M62 0v700h507v-700h-507zM142 70h347v560h-347v-560z" />
    <glyph glyph-name="fi" unicode="fi" horiz-adv-x="570" 
d="M426 566q-35 0 -58.5 22.5t-23.5 54.5q0 33 23.5 55t58.5 22t58.5 -22t23.5 -55q0 -32 -23.5 -54.5t-58.5 -22.5zM490 501v-501h-129v388h-334v113h463zM86 545q0 65 23.5 106t70 59t116.5 10v-113q-44 6 -62.5 -12t-18.5 -56v-539h-129v545z" />
    <glyph glyph-name=".notdef" horiz-adv-x="629" 
d="M62 0v700h507v-700h-507zM142 70h347v560h-347v-560z" />
    <glyph glyph-name=".null" horiz-adv-x="0" 
 />
    <glyph glyph-name="nonmarkingreturn" horiz-adv-x="333" 
 />
    <glyph glyph-name="space" unicode=" " horiz-adv-x="280" 
 />
    <glyph glyph-name="exclam" unicode="!" horiz-adv-x="289" 
d="M72 700h145l-16 -476h-114zM145 -7q-36 0 -60 23t-24 57t24 57.5t60 23.5t59.5 -23.5t23.5 -57.5t-23.5 -57t-59.5 -23z" />
    <glyph glyph-name="quotedbl" unicode="&#x22;" horiz-adv-x="365" 
d="M41 700h117l-12 -207h-92zM207 700h117l-12 -207h-92z" />
    <glyph glyph-name="numbersign" unicode="#" horiz-adv-x="870" 
d="M297 700h129l-33 -153h184l33 153h129l-33 -153h131v-121h-157l-29 -139h130v-121h-155l-35 -166h-129l35 166h-184l-35 -166h-129l35 166h-150v121h176l29 139h-149v121h175zM338 287h185l29 139h-185z" />
    <glyph glyph-name="dollar" unicode="$" horiz-adv-x="592" 
d="M260 775h64v-850h-64v850zM166 198q5 -28 22 -49t44.5 -32.5t64.5 -11.5q58 0 87 26.5t29 64.5q0 30 -18 50t-50.5 34t-75.5 27q-40 12 -79 26t-71 35t-50.5 54.5t-18.5 84.5q0 64 31.5 109t86.5 68t127 23q61 0 110 -17.5t82.5 -51t49.5 -82.5l-125 -34q-5 22 -22 38
t-41 25.5t-52 9.5q-30 1 -55 -9t-40 -29t-15 -44q0 -28 17 -44.5t45 -28t63 -22.5q42 -12 84 -27.5t77 -39t56.5 -59.5t21.5 -91q0 -58 -27.5 -105t-82.5 -75t-138 -28q-68 0 -123.5 20t-91.5 58.5t-47 91.5z" />
    <glyph glyph-name="percent" unicode="%" horiz-adv-x="829" 
d="M41 546q0 78 45 119.5t113 41.5q67 0 112 -41.5t45 -119.5t-45 -120t-112 -42q-68 0 -113 42t-45 120zM198 626q-26 0 -41.5 -18.5t-15.5 -61.5q0 -42 15.5 -61.5t41.5 -19.5t42 19.5t16 61.5q0 43 -16 61.5t-42 18.5zM545 700h132l-394 -700h-132zM474 155
q0 78 45 119.5t113 41.5q66 0 111 -41.5t45 -119.5q0 -79 -45 -120.5t-111 -41.5q-68 0 -113 41.5t-45 120.5zM631 235q-27 0 -42.5 -19t-15.5 -61t15.5 -61t42.5 -19q26 0 41.5 19t15.5 61t-15.5 61t-41.5 19z" />
    <glyph glyph-name="ampersand" unicode="&#x26;" horiz-adv-x="688" 
d="M383 559q-13 15 -33 24t-50 9q-50 0 -73.5 -28.5t-23.5 -71.5q0 -33 17.5 -51.5t49 -26t74.5 -8.5h247v-108h-246q-80 0 -117.5 -19t-37.5 -77q0 -30 11 -51t33.5 -32t59.5 -11q57 0 80 28t23 88v146h132v-146q0 -83 -29.5 -134t-83 -74t-125.5 -23q-76 0 -129 25
t-80.5 69.5t-27.5 103.5q0 46 15.5 78t43.5 53t65 32v4q-27 10 -52.5 29.5t-42 50t-16.5 71.5q0 54 26.5 99t77.5 72t125 27q63 0 112.5 -19t81.5 -55zM490 633l-107 -74zM352 406q16 0 28 5t19 20t7 43v45h126v-113h111v-108h-111v-114q0 -41 18 -56.5t52 -15.5
q7 -1 17.5 0t23.5 3v-110q-17 -4 -33 -6t-31 -2q-47 0 -88.5 17.5t-67.5 59t-26 110.5v115h-72v107h27z" />
    <glyph glyph-name="quotesingle" unicode="'" horiz-adv-x="206" 
d="M44 700h118l-12 -207h-92z" />
    <glyph glyph-name="parenleft" unicode="(" horiz-adv-x="446" 
d="M252 -100q-66 51 -111.5 122t-69 154.5t-23.5 171.5q0 89 24 172.5t73 155t123 124.5h137v-10q-77 -58 -127.5 -130.5t-74.5 -151.5t-24 -160q0 -79 23.5 -158t70.5 -150.5t116 -129.5v-10h-137z" />
    <glyph glyph-name="parenright" unicode=")" horiz-adv-x="446" 
d="M194 -100h-137v10q69 58 115.5 129.5t70.5 150.5t24 158q0 81 -24.5 160t-74.5 151.5t-127 130.5v10h137q74 -53 122.5 -124.5t73 -155t24.5 -172.5q0 -88 -23.5 -171.5t-69 -154.5t-111.5 -122z" />
    <glyph glyph-name="asterisk" unicode="*" horiz-adv-x="475" 
d="M268 597l110 88l50 -88l-132 -48l132 -48l-52 -91l-108 89l22 -139h-101l21 139l-108 -91l-54 94l131 48l-131 46l51 90l112 -89l-22 140h102z" />
    <glyph glyph-name="plus" unicode="+" horiz-adv-x="612" 
d="M370 605v-510h-128v510h128zM51 409h510v-118h-510v118z" />
    <glyph glyph-name="comma" unicode="," horiz-adv-x="286" 
d="M97 145h138l-117 -281h-87z" />
    <glyph glyph-name="hyphen" unicode="-" horiz-adv-x="525" 
d="M51 336h422v-114h-422v114z" />
    <glyph glyph-name="period" unicode="." horiz-adv-x="269" 
d="M135 -7q-37 0 -60.5 23.5t-23.5 56.5q0 34 23.5 57.5t60.5 23.5q36 0 59.5 -23.5t23.5 -57.5q0 -33 -23.5 -56.5t-59.5 -23.5z" />
    <glyph glyph-name="slash" unicode="/" horiz-adv-x="373" 
d="M240 800h133l-241 -900h-132z" />
    <glyph glyph-name="zero" unicode="0" horiz-adv-x="645" 
d="M54 350q0 79 13 144.5t44 113t83 73.5t128 26q78 0 129.5 -26t82 -73.5t44 -113t13.5 -144.5q0 -80 -13.5 -146t-44 -113t-82 -72.5t-129.5 -25.5q-76 0 -128 25.5t-83 72.5t-44 113t-13 146zM453 350q0 47 -3.5 90.5t-16.5 78t-39 54t-72 19.5q-45 0 -71 -19.5t-39 -54
t-16.5 -78t-3.5 -90.5q0 -50 3.5 -93.5t16.5 -77t39 -52.5t71 -19q46 0 72 19t39 52.5t16.5 77t3.5 93.5z" />
    <glyph glyph-name="one" unicode="1" horiz-adv-x="333" 
d="M130 587h-96v113h231v-700h-135v587z" />
    <glyph glyph-name="two" unicode="2" horiz-adv-x="591" 
d="M47 98l195 183q54 51 85.5 86t45 64.5t13.5 61.5q0 44 -23.5 71.5t-78.5 27.5q-33 0 -57 -15.5t-37 -44.5t-14 -70h-130q2 85 35 139t87 80t120 26q77 0 130 -27.5t79.5 -74.5t26.5 -108q0 -45 -15.5 -86t-52.5 -87t-103 -106l-116 -105h303v-113h-493v98z" />
    <glyph glyph-name="three" unicode="3" horiz-adv-x="594" 
d="M55 502q3 67 34.5 112.5t85 69t123.5 23.5q73 0 124 -27t78 -72t27 -99q0 -41 -16.5 -71.5t-42.5 -50t-52 -29.5v-4q37 -11 65 -32t43.5 -53t15.5 -78q0 -59 -28 -103.5t-80.5 -69.5t-128.5 -25q-75 0 -132 22t-90 70.5t-36 128.5h132q2 -54 31 -80t92 -26q36 0 59 11
t34 32t11 51q0 58 -37.5 77t-117.5 19h-28v108h29q42 1 74 8.5t49.5 26t17.5 51.5q0 43 -24 71.5t-73 28.5q-36 0 -58 -13t-34.5 -33t-14.5 -44h-132z" />
    <glyph glyph-name="four" unicode="4" horiz-adv-x="654" 
d="M386 148h-352v102l328 450h159v-439h88v-113h-88v-148h-135v148zM392 261v295l-209 -295h209z" />
    <glyph glyph-name="five" unicode="5" horiz-adv-x="617" 
d="M517 700v-113h-315v-168q20 25 53.5 40t80.5 15q62 0 106 -22t71.5 -56.5t40 -75.5t12.5 -79q0 -72 -30.5 -128t-87 -88t-135.5 -32q-78 0 -133.5 26.5t-87 72.5t-38.5 105h132q9 -39 41 -64t84 -25q41 0 66.5 16t38.5 45.5t13 70.5q0 58 -31 90t-88 32q-43 0 -72 -22.5
t-41 -57.5h-130v418h450z" />
    <glyph glyph-name="six" unicode="6" horiz-adv-x="611" 
d="M309 -7q-75 0 -135 32t-94 88t-34 128q0 56 23 113t69 117l177 229h148l-208 -265l-130 -138q18 79 74 125.5t135 46.5q67 0 120.5 -28.5t85 -80t31.5 -122.5t-35.5 -126.5t-94.5 -87t-132 -31.5zM183 238q0 -39 15 -68.5t43 -45.5t68 -16t67.5 16t42 45.5t14.5 68.5
q0 40 -14.5 68.5t-42 44t-67.5 15.5t-68 -15.5t-43 -44t-15 -68.5z" />
    <glyph glyph-name="seven" unicode="7" horiz-adv-x="550" 
d="M517 700v-101l-268 -599h-138l271 587h-348v113h483z" />
    <glyph glyph-name="eight" unicode="8" horiz-adv-x="623" 
d="M167 371q-45 21 -72.5 58.5t-27.5 94.5q0 50 26.5 91.5t80.5 66.5t137 25t137.5 -25t81 -66.5t26.5 -91.5q0 -54 -28.5 -93.5t-71.5 -59.5q55 -22 87 -66t32 -104q0 -66 -35 -112t-94 -71t-135 -25q-75 0 -134 25t-93.5 71t-34.5 112q0 60 32 104.5t86 65.5zM419 506
q0 48 -28 69t-80 21q-50 0 -79 -20.5t-29 -69.5q0 -44 29.5 -70t78.5 -26q50 0 79 26.5t29 69.5zM311 314q-37 0 -65 -12.5t-44 -36t-16 -59.5q0 -47 31.5 -74.5t93.5 -27.5t94 27.5t32 74.5q0 35 -15.5 59t-43.5 36.5t-67 12.5z" />
    <glyph glyph-name="nine" unicode="9" horiz-adv-x="611" 
d="M302 707q75 0 134.5 -32t94 -88t34.5 -128q0 -56 -22.5 -113t-69.5 -117l-177 -229h-148l208 265l130 138q-18 -79 -74 -125.5t-135 -46.5q-67 0 -120.5 28.5t-84.5 80.5t-31 122q0 72 35 127t94 86.5t132 31.5zM428 462q0 40 -15 69t-43.5 45t-67.5 16q-40 0 -67.5 -16
t-42 -45t-14.5 -69q0 -39 14.5 -68t42 -44.5t67.5 -15.5q39 0 67.5 15.5t43.5 44.5t15 68z" />
    <glyph glyph-name="colon" unicode=":" horiz-adv-x="276" 
d="M139 -7q-37 0 -60.5 23.5t-23.5 56.5q0 34 23.5 57.5t60.5 23.5q36 0 59.5 -23.5t23.5 -57.5q0 -33 -23.5 -56.5t-59.5 -23.5zM139 408q-37 0 -60.5 23.5t-23.5 56.5q0 34 23.5 57.5t60.5 23.5q36 0 59.5 -23.5t23.5 -57.5q0 -33 -23.5 -56.5t-59.5 -23.5z" />
    <glyph glyph-name="semicolon" unicode=";" horiz-adv-x="305" 
d="M168 405q-37 0 -60.5 23.5t-23.5 56.5q0 34 23.5 57.5t60.5 23.5q36 0 59.5 -23.5t23.5 -57.5q0 -33 -23.5 -56.5t-59.5 -23.5zM101 145h138l-117 -281h-87z" />
    <glyph glyph-name="less" unicode="&#x3c;" horiz-adv-x="510" 
d="M442 125h-171l-220 225l220 225h171l-221 -225z" />
    <glyph glyph-name="equal" unicode="=" horiz-adv-x="665" 
d="M62 290h543v-117h-543v117zM62 528h543v-118h-543v118z" />
    <glyph glyph-name="greater" unicode="&#x3e;" horiz-adv-x="509" 
d="M288 350l-220 225h171l219 -225l-219 -225h-171z" />
    <glyph glyph-name="question" unicode="?" horiz-adv-x="548" 
d="M274 707q67 0 119 -25t81 -72t29 -114q0 -68 -30 -112.5t-82 -66.5t-118 -23l-5 -77h-118l-5 168h43q39 0 72 4.5t56.5 16.5t36.5 34t13 57q0 30 -11 51t-31.5 32.5t-51.5 11.5q-46 0 -72.5 -24.5t-26.5 -70.5h-128q-1 61 26 108t78.5 74.5t124.5 27.5zM213 -7
q-37 0 -60.5 23t-23.5 57t23.5 57.5t60.5 23.5q36 0 59.5 -23.5t23.5 -57.5t-23.5 -57t-59.5 -23z" />
    <glyph glyph-name="at" unicode="@" horiz-adv-x="1002" 
d="M579 162l23 -49q-26 -54 -78.5 -87t-115.5 -33q-77 0 -119.5 46t-42.5 125q0 55 17.5 106.5t49.5 91t76.5 63t97.5 23.5q59 0 92 -27t43 -77l-26 -16l19 111h114l-48 -272q-5 -38 1.5 -61t40.5 -23q29 0 50 21t34.5 55t20 73t6.5 75q0 82 -32.5 138.5t-96 86.5t-155.5 30
q-87 0 -161.5 -32.5t-129.5 -89.5t-85 -133.5t-30 -165.5q0 -83 33.5 -141t97 -87.5t152.5 -29.5q44 0 88.5 8t82.5 27l19 -89q-48 -21 -101 -30.5t-109 -9.5q-112 0 -195 42t-129 119t-46 181q0 111 39 206.5t110 166.5t168 110.5t211 39.5q118 0 202 -43.5t129 -120
t45 -178.5q0 -60 -15.5 -116.5t-46 -102t-74.5 -72.5t-102 -27q-68 0 -99.5 37t-25.5 100zM495 347q-40 0 -68.5 -23.5t-44 -60.5t-15.5 -78q0 -39 20.5 -65t62.5 -26q38 0 68.5 22t48 57.5t17.5 76.5q0 28 -10 50t-29.5 34.5t-49.5 12.5z" />
    <glyph glyph-name="A" unicode="A" horiz-adv-x="739" 
d="M388 587h-36l-206 -587h-139l251 700h223l251 -700h-139zM159 274h408v-113h-408v113z" />
    <glyph glyph-name="B" unicode="B" horiz-adv-x="679" 
d="M481 498q0 44 -28 66.5t-79 22.5h-171v-177h170q51 0 79.5 22.5t28.5 65.5zM68 0v700h325q73 0 123 -24.5t75.5 -66t25.5 -93.5q0 -46 -17 -78t-46.5 -50.5t-67.5 -25.5v-8q46 -6 79 -25.5t51 -54.5t18 -85q0 -55 -27 -97.5t-78.5 -67t-123.5 -24.5h-337zM203 113h184
q53 0 82.5 23.5t29.5 68.5q0 47 -31.5 71t-83.5 24h-181v-187z" />
    <glyph glyph-name="C" unicode="C" horiz-adv-x="757" 
d="M34 350q0 79 27 144.5t75 113t112.5 73.5t139.5 26q108 0 191.5 -51.5t125.5 -147.5l-113 -33q-22 42 -54.5 68t-70.5 38t-77 12q-64 0 -114 -30.5t-77.5 -85.5t-27.5 -127t27.5 -126.5t77.5 -85.5t114 -31q40 0 79.5 12.5t73.5 42.5t58 80l111 -31q-43 -109 -128 -163.5
t-196 -54.5q-75 0 -139.5 26t-112.5 74t-75 113.5t-27 143.5z" />
    <glyph glyph-name="D" unicode="D" horiz-adv-x="732" 
d="M329 700q112 0 194.5 -43.5t128.5 -122.5t46 -186q0 -106 -46 -184t-128.5 -121t-194.5 -43h-261v700h261zM325 113q113 0 174 62.5t61 172.5q0 111 -61 175t-174 64h-122v-474h122z" />
    <glyph glyph-name="E" unicode="E" horiz-adv-x="608" 
d="M560 587h-357v-178h267v-109h-267v-187h357v-113h-492v700h492v-113z" />
    <glyph glyph-name="F" unicode="F" horiz-adv-x="592" 
d="M68 700h492v-113h-357v-178h267v-109h-267v-300h-135v700z" />
    <glyph glyph-name="G" unicode="G" horiz-adv-x="760" 
d="M585 478q-33 61 -83 87.5t-108 26.5q-63 0 -113 -31t-79.5 -85.5t-29.5 -125.5q0 -72 28.5 -126.5t79 -85t115.5 -30.5q43 0 80.5 15t66 41t46.5 61v58h-191v108h323v-183q-24 -58 -71 -107.5t-112.5 -78.5t-145.5 -29q-77 0 -141.5 26t-113 73.5t-75.5 113t-27 144.5
q0 78 27 143.5t75 113.5t113 74t141 26q70 0 133 -22.5t111 -65t74 -103.5z" />
    <glyph glyph-name="H" unicode="H" horiz-adv-x="716" 
d="M68 700h135v-289h310v289h135v-700h-135v298h-310v-298h-135v700z" />
    <glyph glyph-name="I" unicode="I" horiz-adv-x="271" 
d="M68 700h135v-700h-135v700z" />
    <glyph glyph-name="J" unicode="J" horiz-adv-x="536" 
d="M336 700h135v-491q0 -67 -28 -115.5t-77.5 -74.5t-112.5 -26q-80 0 -134 38.5t-74 111.5l119 31q6 -21 17.5 -36.5t29.5 -23.5t40 -8q26 0 45 12.5t29.5 34.5t10.5 49v498z" />
    <glyph glyph-name="K" unicode="K" horiz-adv-x="673" 
d="M68 700h135v-289h41l246 289h165l-290 -344l298 -356h-173l-246 298h-41v-298h-135v700z" />
    <glyph glyph-name="L" unicode="L" horiz-adv-x="537" 
d="M203 700v-587h312v-113h-447v700h135z" />
    <glyph glyph-name="M" unicode="M" horiz-adv-x="890" 
d="M203 0h-135v700h154l223 -524l223 524h154v-700h-135v452l-189 -452h-106l-189 452v-452z" />
    <glyph glyph-name="N" unicode="N" horiz-adv-x="715" 
d="M647 700v-700h-138l-306 486v-486h-135v700h137l307 -486v486h135z" />
    <glyph glyph-name="O" unicode="O" 
d="M391 -7q-74 0 -139 26t-113.5 73.5t-76.5 113t-28 144.5t28 144t76.5 113t113.5 74t139 26q75 0 139.5 -26t113.5 -74t76.5 -113t27.5 -144t-27.5 -144.5t-76.5 -113t-113.5 -73.5t-139.5 -26zM392 108q63 0 112.5 30.5t78 84.5t28.5 127t-28.5 127t-78 84.5t-112.5 30.5
q-65 0 -114.5 -30.5t-77.5 -84.5t-28 -127q0 -72 28 -127t77.5 -85t114.5 -30z" />
    <glyph glyph-name="P" unicode="P" horiz-adv-x="641" 
d="M352 380q40 0 66 12.5t38.5 36t12.5 55.5q0 49 -28.5 76t-88.5 27h-149v-207h149zM607 484q0 -39 -14 -77.5t-44 -70t-77.5 -50.5t-115.5 -19h-153v-267h-135v700h288q85 0 140.5 -29.5t83 -79t27.5 -107.5z" />
    <glyph glyph-name="Q" unicode="Q" 
d="M332 213h121v-308h-121v308zM391 -7q-74 0 -139 26t-113.5 73.5t-76.5 113t-28 144.5t28 144t76.5 113t113.5 74t139 26q75 0 139.5 -26t113.5 -74t76.5 -113t27.5 -144t-27.5 -144.5t-76.5 -113t-113.5 -73.5t-139.5 -26zM392 108q63 0 112.5 30.5t78 84.5t28.5 127
t-28.5 127t-78 84.5t-112.5 30.5q-65 0 -114.5 -30.5t-77.5 -84.5t-28 -127q0 -72 28 -127t77.5 -85t114.5 -30z" />
    <glyph glyph-name="R" unicode="R" horiz-adv-x="656" 
d="M469 484q0 47 -28.5 75t-88.5 28h-149v-207h149q40 0 66 12.5t38.5 36t12.5 55.5zM356 700q85 0 140.5 -29.5t83 -79t27.5 -107.5q0 -39 -14 -77.5t-44 -70t-77.5 -50.5t-115.5 -19h-153v-267h-135v700h288zM432 312l189 -312h-151l-181 312h143z" />
    <glyph glyph-name="S" unicode="S" horiz-adv-x="592" 
d="M166 198q5 -28 22 -49t44.5 -32.5t64.5 -11.5q58 0 87 26.5t29 64.5q0 30 -18 50t-50.5 34t-75.5 27q-40 12 -79 26t-71 35t-50.5 54.5t-18.5 84.5q0 64 31.5 109t86.5 68t127 23q61 0 110 -17.5t82.5 -51t49.5 -82.5l-125 -34q-5 22 -22 38t-41 25.5t-52 9.5
q-30 1 -55 -9t-40 -29t-15 -44q0 -28 17 -44.5t45 -28t63 -22.5q42 -12 84 -27.5t77 -39t56.5 -59.5t21.5 -91q0 -58 -27.5 -105t-82.5 -75t-138 -28q-68 0 -123.5 20t-91.5 58.5t-47 91.5z" />
    <glyph glyph-name="T" unicode="T" horiz-adv-x="635" 
d="M34 700h568v-113h-216v-587h-135v587h-217v113z" />
    <glyph glyph-name="U" unicode="U" horiz-adv-x="709" 
d="M64 700h135v-442q0 -49 20 -82.5t54.5 -50.5t79.5 -17q46 0 81 17t55 50.5t20 82.5v442h135v-435q0 -69 -24 -120t-65.5 -85t-94 -50.5t-109.5 -16.5q-76 0 -141.5 30t-105.5 90t-40 152v435z" />
    <glyph glyph-name="V" unicode="V" horiz-adv-x="722" 
d="M555 700h144l-257 -700h-163l-256 700h144l194 -562z" />
    <glyph glyph-name="W" unicode="W" horiz-adv-x="1023" 
d="M375 0h-159l-193 700h145l128 -544l140 544h152l138 -542l129 542h145l-194 -700h-158l-136 502z" />
    <glyph glyph-name="X" unicode="X" horiz-adv-x="754" 
d="M45 700h154l180 -246l177 246h153l-251 -350l251 -350h-153l-177 246l-180 -246h-154l255 350z" />
    <glyph glyph-name="Y" unicode="Y" horiz-adv-x="705" 
d="M530 700h152l-262 -454v-246h-135v245l-262 455h151l178 -325z" />
    <glyph glyph-name="Z" unicode="Z" horiz-adv-x="603" 
d="M558 597l-355 -484h355v-113h-513v103l353 484h-353v113h513v-103z" />
    <glyph glyph-name="bracketleft" unicode="[" horiz-adv-x="348" 
d="M64 800h243v-111h-115v-677h115v-112h-243v900z" />
    <glyph glyph-name="backslash" unicode="\" horiz-adv-x="373" 
d="M373 -100h-132l-241 900h132z" />
    <glyph glyph-name="bracketright" unicode="]" horiz-adv-x="348" 
d="M284 800v-900h-243v112h116v677h-116v111h243z" />
    <glyph glyph-name="asciicircum" unicode="^" horiz-adv-x="697" 
d="M349 539l-166 -289h-139l239 450h130l240 -450h-140z" />
    <glyph glyph-name="underscore" unicode="_" horiz-adv-x="578" 
d="M-2 -40h582v-128h-582v128z" />
    <glyph glyph-name="grave" unicode="`" horiz-adv-x="250" 
d="M10 807l229 -118v-97l-229 106v109z" />
    <glyph glyph-name="a" unicode="a" horiz-adv-x="529" 
d="M356 0l-10 61q-25 -31 -56.5 -49t-84.5 -18q-50 0 -87.5 17.5t-58.5 49t-21 74.5q0 63 45.5 104.5t137.5 52.5l125 14v35q0 21 -19 39t-60 18q-36 0 -62.5 -17.5t-35.5 -52.5l-110 40q20 67 76 103t138 36q100 0 150.5 -49.5t50.5 -130.5v-327h-118zM346 217l-108 -14
q-33 -4 -50 -19.5t-17 -37.5q0 -21 17 -35.5t48 -14.5q35 0 59.5 13t37.5 38t13 62v8z" />
    <glyph glyph-name="b" unicode="b" horiz-adv-x="593" 
d="M174 425q23 34 65.5 58t100.5 24q66 0 115.5 -31.5t78 -89.5t28.5 -136t-28.5 -135.5t-78.5 -89.5t-115 -32q-52 0 -92 20.5t-62 48.5l-8 -62h-116v720h128v-297zM424 250q0 63 -32.5 101.5t-84.5 38.5q-32 0 -58.5 -16.5t-42.5 -47.5t-16 -76t16 -76t42.5 -47.5
t58.5 -16.5q52 0 84.5 38.5t32.5 101.5z" />
    <glyph glyph-name="c" unicode="c" horiz-adv-x="549" 
d="M282 -7q-73 0 -128 32t-86 89.5t-31 133.5q0 77 31 135t87 91t129 33q79 0 140.5 -39t86.5 -105l-119 -34q-12 29 -39.5 46t-62.5 17t-61.5 -18t-41 -50t-14.5 -75q0 -65 32 -103t86 -38q34 0 62 16.5t42 45.5l118 -34q-27 -65 -89.5 -104t-141.5 -39z" />
    <glyph glyph-name="d" unicode="d" horiz-adv-x="598" 
d="M425 425l-16 -2v297h128v-720h-116l-8 62q-24 -28 -63.5 -48.5t-91.5 -20.5q-65 0 -115 32t-78 89.5t-28 135.5t28 136t78 89.5t115 31.5q59 0 101.5 -24t65.5 -58zM175 250q0 -63 32 -101.5t84 -38.5q32 0 58.5 16.5t43 47.5t16.5 76t-16.5 76t-43 47.5t-58.5 16.5
q-52 0 -84 -38.5t-32 -101.5z" />
    <glyph glyph-name="e" unicode="e" horiz-adv-x="560" 
d="M289 -7q-75 0 -132 33t-88.5 92t-31.5 136q0 74 31 131t86.5 89.5t126.5 32.5q72 0 127 -31t85.5 -86.5t30.5 -129.5q0 -11 -1.5 -24.5t-3.5 -28.5h-344q4 -32 20.5 -54.5t41 -35t55.5 -12.5q37 0 66.5 15.5t42.5 40.5l114 -34q-30 -64 -89.5 -99t-136.5 -35zM384 300
q-1 28 -15 50.5t-37 35t-51 12.5q-25 0 -47 -13t-37.5 -34.5t-20.5 -50.5h208z" />
    <glyph glyph-name="f" unicode="f" horiz-adv-x="330" 
d="M86 545q0 65 23.5 106t70 59t116.5 10v-113q-44 6 -62.5 -12t-18.5 -56v-39h87v-113h-87v-387h-129v387h-59v113h59v45z" />
    <glyph glyph-name="g" unicode="g" horiz-adv-x="598" 
d="M421 500h116v-426q0 -85 -42 -146.5t-121.5 -94.5t-190.5 -33l-20 108q121 2 183.5 43t62.5 118v2l17 6q-24 -35 -66 -59.5t-100 -24.5q-66 0 -116 32t-78.5 89.5t-28.5 135.5t28.5 136t78.5 89.5t116 31.5q34 0 63.5 -9.5t52 -25t37.5 -34.5zM175 250q0 -63 32 -101.5
t86 -38.5q31 0 57 16.5t42.5 48.5t16.5 75q0 45 -16.5 76t-43 47.5t-56.5 16.5q-54 0 -86 -38.5t-32 -101.5z" />
    <glyph glyph-name="h" unicode="h" horiz-adv-x="567" 
d="M62 720h128v-269q23 25 57.5 40.5t77.5 15.5q57 0 99.5 -25t65.5 -72.5t23 -117.5v-292h-135v275q0 58 -23 87t-69 29q-47 0 -71.5 -31.5t-24.5 -89.5v-270h-128v720z" />
    <glyph glyph-name="i" unicode="i" horiz-adv-x="285" 
d="M79 500h128v-500h-128v500zM144 564q-36 0 -59 22.5t-23 55.5t23 55.5t59 22.5q34 0 57.5 -22.5t23.5 -55.5t-23.5 -55.5t-57.5 -22.5z" />
    <glyph glyph-name="j" unicode="j" horiz-adv-x="279" 
d="M75 38q0 -53 -30 -87.5t-84 -39.5l19 -111q57 2 108 29.5t83 80t32 127.5v463h-128v-462zM139 564q-36 0 -59 22.5t-23 55.5t23 55.5t59 22.5q35 0 58 -22.5t23 -55.5t-23 -55.5t-58 -22.5z" />
    <glyph glyph-name="k" unicode="k" horiz-adv-x="568" 
d="M62 720h129v-415h32l165 195h168l-221 -248l222 -252h-168l-167 198h-31v-198h-129v720z" />
    <glyph glyph-name="l" unicode="l" horiz-adv-x="251" 
d="M62 720h128v-720h-128v720z" />
    <glyph glyph-name="m" unicode="m" horiz-adv-x="883" 
d="M62 500h116l9 -49q24 25 57.5 40.5t73.5 15.5q48 0 88 -20.5t64 -58.5q27 37 70.5 58t94.5 21q59 0 102.5 -25t67.5 -72.5t24 -117.5v-292h-128v275q0 57 -25 86t-71 29q-47 0 -73.5 -30t-26.5 -87v-273h-128v275q0 57 -22.5 86t-68.5 29q-47 0 -71.5 -29.5t-24.5 -86.5
v-274h-128v500z" />
    <glyph glyph-name="n" unicode="n" horiz-adv-x="561" 
d="M62 500h116l9 -51q24 27 58.5 42.5t74.5 15.5q59 0 100.5 -25t64 -72.5t22.5 -117.5v-292h-129v275q0 58 -23 87t-69 29q-47 0 -71.5 -29.5t-24.5 -87.5v-274h-128v500z" />
    <glyph glyph-name="o" unicode="o" horiz-adv-x="584" 
d="M289 -7q-73 0 -130 31.5t-89.5 89t-32.5 135.5q0 79 33.5 137t91.5 89.5t130 31.5t130 -31.5t92 -89t34 -135.5q0 -79 -34.5 -137t-93 -89.5t-131.5 -31.5zM288 108q31 0 59 15.5t46 47t18 80.5q0 47 -17 78.5t-44.5 47t-59.5 15.5q-31 0 -57.5 -15.5t-42 -47
t-15.5 -80.5q0 -47 15 -78.5t41 -47t57 -15.5z" />
    <glyph glyph-name="p" unicode="p" horiz-adv-x="598" 
d="M174 75l16 2v-277h-128v700h116l8 -62q22 29 62 49t92 20q65 0 115 -32t78.5 -89.5t28.5 -135.5t-28.5 -136t-78 -89.5t-115.5 -31.5q-58 0 -100.5 24t-65.5 58zM424 250q0 63 -32.5 101.5t-84.5 38.5q-32 0 -58.5 -16.5t-42.5 -47t-16 -76.5q0 -45 16 -76t42.5 -47.5
t58.5 -16.5q52 0 84.5 38.5t32.5 101.5z" />
    <glyph glyph-name="q" unicode="q" horiz-adv-x="598" 
d="M425 75q-23 -34 -65.5 -58t-101.5 -24q-65 0 -115 31.5t-78 89.5t-28 136t28 135.5t78 89.5t115 32q52 0 91.5 -20t63.5 -49l8 62h116v-700h-128v277zM175 250q0 -63 32 -101.5t84 -38.5q31 0 58 16.5t43.5 47.5t16.5 76q0 46 -16.5 76.5t-43.5 47t-58 16.5
q-52 0 -84 -38.5t-32 -101.5z" />
    <glyph glyph-name="r" unicode="r" horiz-adv-x="380" 
d="M62 500h116l9 -64q21 26 47.5 42.5t58.5 23t67 -1.5v-120q-27 9 -56.5 5t-55 -21t-42 -48.5t-16.5 -79.5v-236h-128v500z" />
    <glyph glyph-name="s" unicode="s" horiz-adv-x="488" 
d="M152 163q6 -25 20.5 -38t33 -18.5t37.5 -5.5q35 0 55 13.5t20 34.5q0 18 -14 28.5t-36 16t-45 11.5q-27 7 -57.5 15.5t-57.5 24.5t-45 41.5t-18 64.5q0 46 25.5 81t71 55t105.5 20q71 0 120 -30t71 -86l-113 -32q-5 14 -17 23t-28.5 13t-33.5 4q-29 0 -48 -11.5
t-19 -31.5q0 -12 7 -19.5t19.5 -12.5t29 -9t36.5 -9q31 -8 62.5 -18.5t58 -26.5t42.5 -43t18 -68q0 -44 -25 -79.5t-72 -56.5t-114 -21q-78 0 -132.5 33t-71.5 103z" />
    <glyph glyph-name="t" unicode="t" horiz-adv-x="367" 
d="M98 500v140h130v-140h110v-113h-110v-203q0 -39 16.5 -55t42 -17t51.5 3v-110q-46 -10 -89.5 -6t-77.5 23.5t-53.5 59.5t-19.5 102v203h-71v113h71z" />
    <glyph glyph-name="u" unicode="u" horiz-adv-x="562" 
d="M501 0h-117l-9 52q-24 -28 -58.5 -43.5t-73.5 -15.5q-58 0 -100 25t-65 72.5t-23 117.5v292h129v-276q0 -57 22.5 -86.5t69.5 -29.5q46 0 71.5 30t25.5 87v275h128v-500z" />
    <glyph glyph-name="v" unicode="v" horiz-adv-x="555" 
d="M159 500l119 -356l120 356h137l-186 -500h-143l-185 500h138z" />
    <glyph glyph-name="w" unicode="w" horiz-adv-x="770" 
d="M300 0h-131l-148 500h132l83 -338l88 338h128l85 -338l82 338h131l-148 -500h-134l-83 314z" />
    <glyph glyph-name="x" unicode="x" horiz-adv-x="548" 
d="M25 500h148l101 -154l102 154h148l-176 -249l176 -251h-148l-102 155l-101 -155h-148l175 251z" />
    <glyph glyph-name="y" unicode="y" horiz-adv-x="557" 
d="M405 500h137l-295 -700h-129l94 218l-197 482h143l122 -329z" />
    <glyph glyph-name="z" unicode="z" horiz-adv-x="484" 
d="M442 399l-239 -286h241v-113h-403v102l239 285h-239v113h401v-101z" />
    <glyph glyph-name="braceleft" unicode="{" horiz-adv-x="389" 
d="M37 392q33 2 54.5 11t32 24t10.5 34q0 29 -4.5 65.5t-9 74.5t-4.5 70q0 63 46 96t120 33h69v-92h-42q-32 0 -47 -11.5t-15 -36.5q0 -24 4 -60t8 -73t4 -70q0 -41 -25 -69t-80 -37v-1q55 -9 80 -37.5t25 -69.5q0 -32 -4 -69.5t-8 -72.5t-4 -60t15 -36.5t47 -11.5h42v-93
h-69q-74 0 -120 34t-46 97q0 32 4.5 69.5t9 74t4.5 64.5q0 20 -10.5 34.5t-32 23.5t-54.5 11v84z" />
    <glyph glyph-name="bar" unicode="|" horiz-adv-x="298" 
d="M217 800v-900h-135v900h135z" />
    <glyph glyph-name="braceright" unicode="}" horiz-adv-x="388" 
d="M351 392v-84q-33 -2 -54 -11t-32 -23.5t-11 -34.5q0 -28 4.5 -64.5t9 -74t4.5 -69.5q0 -63 -46 -97t-120 -34h-69v93h42q33 0 47.5 11.5t14.5 36.5t-4 60t-8 72.5t-4 69.5q0 41 25 69.5t80 37.5v1q-55 9 -80 37t-25 69q0 33 4 70t8 73t4 60q0 25 -14.5 36.5t-47.5 11.5
h-42v92h69q74 0 120 -33t46 -96q0 -32 -4.5 -70t-9 -74.5t-4.5 -65.5q0 -19 11 -34t32 -24t54 -11z" />
    <glyph glyph-name="asciitilde" unicode="~" horiz-adv-x="614" 
d="M48 258q16 99 62.5 142t112.5 43q30 0 54 -10t44 -23t39.5 -22.5t41.5 -9.5q24 0 42 15.5t24 48.5h99q-16 -98 -63 -141t-112 -43q-31 0 -54.5 9.5t-43.5 22.5t-39 23t-41 10q-26 0 -44.5 -16.5t-22.5 -48.5h-99z" />
    <glyph glyph-name="uni00A0" unicode="&#xa0;" horiz-adv-x="280" 
 />
    <glyph glyph-name="exclamdown" unicode="&#xa1;" horiz-adv-x="289" 
d="M145 569q36 0 59.5 -23t23.5 -57t-23.5 -57.5t-59.5 -23.5t-60 23.5t-24 57.5t24 57t60 23zM72 -138l15 475h114l16 -475h-145z" />
    <glyph glyph-name="cent" unicode="&#xa2;" horiz-adv-x="549" 
d="M259 600h64v-167h-64v167zM259 82h64v-182h-64v182zM282 -7q-73 0 -128 32t-86 89.5t-31 133.5q0 77 31 135t87 91t129 33q79 0 140.5 -39t86.5 -105l-119 -34q-12 29 -39.5 46t-62.5 17t-61.5 -18t-41 -50t-14.5 -75q0 -65 32 -103t86 -38q34 0 62 16.5t42 45.5l118 -34
q-27 -65 -89.5 -104t-141.5 -39z" />
    <glyph glyph-name="sterling" unicode="&#xa3;" horiz-adv-x="618" 
d="M343 707q78 0 128 -30t74.5 -79.5t26.5 -109.5h-124q-1 46 -24.5 76t-78.5 30q-30 0 -54 -12t-38 -37.5t-14 -66.5q0 -31 7.5 -57.5t17.5 -50.5t17.5 -48.5t7.5 -52.5q0 -42 -16 -83.5t-51 -76.5h355v-109h-481l-21 70q28 28 47 56t28.5 62t9.5 82q0 27 -7.5 48.5
t-17 44.5t-17 52.5t-7.5 72.5q0 69 30 118t82.5 75t119.5 26zM451 389v-93h-404v93h404z" />
    <glyph glyph-name="currency" unicode="&#xa4;" horiz-adv-x="550" 
d="M275 556q57 0 100.5 -22t69 -61.5t25.5 -95.5q0 -54 -26 -94.5t-70 -62.5t-100 -22q-57 0 -100.5 22t-67.5 62.5t-24 94.5q0 56 25 95.5t69 61.5t99 22zM275 475q-34 0 -59 -24.5t-25 -73.5q0 -48 25 -72.5t58 -24.5q21 0 41 11t32.5 32.5t12.5 53.5q0 33 -12.5 55
t-31.5 32.5t-41 10.5zM146 451l-91 90l57 57l96 -96zM342 501l97 97l56 -57l-97 -97zM407 304l88 -88l-56 -57l-92 91zM213 260l-101 -101l-57 57l92 92z" />
    <glyph glyph-name="yen" unicode="&#xa5;" horiz-adv-x="705" 
d="M427 407h193v-96h-202zM84 232h536v-94h-536v94zM84 407h219l9 -96h-228v96zM530 700h152l-262 -454v-246h-135v245l-262 455h151l178 -325z" />
    <glyph glyph-name="brokenbar" unicode="&#xa6;" horiz-adv-x="299" 
d="M217 284v-384h-135v384h135zM82 416v384h135v-384h-135z" />
    <glyph glyph-name="section" unicode="&#xa7;" horiz-adv-x="462" 
d="M66 575q0 55 44 93.5t121 38.5q72 0 116.5 -36t46.5 -99h-103q-1 20 -8 33.5t-20 21t-32 7.5q-29 0 -46 -13t-17 -38q0 -18 10 -30.5t35.5 -25.5t71.5 -32q43 -17 74 -37.5t47 -46.5t16 -61q0 -33 -15.5 -60.5t-47.5 -47.5t-83 -33l12 46q32 -14 56 -32.5t38 -42
t14 -55.5q0 -54 -43.5 -93t-121.5 -39q-71 0 -116 36t-46 99h102q1 -19 7.5 -33t20 -21.5t33.5 -7.5q29 0 45.5 13t16.5 39q0 17 -10 29.5t-35.5 26t-71.5 31.5q-44 17 -74.5 37.5t-46 47t-15.5 60.5q0 33 15 61.5t47 48t83 26.5l-11 -41q-33 15 -57.5 33t-38 42t-13.5 55z
M316 350q0 30 -23 51.5t-62 21.5q-40 0 -62 -21.5t-22 -51.5t22.5 -52t62.5 -22t62 22t22 52z" />
    <glyph glyph-name="dieresis" unicode="&#xa8;" horiz-adv-x="334" 
d="M75 620q-27 0 -46 19t-19 46t19 46.5t46 19.5q28 0 46.5 -19.5t18.5 -46.5t-18.5 -46t-46.5 -19zM258 620q-27 0 -46 19t-19 46t19 46.5t46 19.5q28 0 46.5 -19.5t18.5 -46.5t-18.5 -46t-46.5 -19z" />
    <glyph glyph-name="copyright" unicode="&#xa9;" horiz-adv-x="791" 
d="M396 707q104 0 182.5 -45.5t123 -126t44.5 -185.5t-44.5 -185.5t-123 -126t-182.5 -45.5t-182.5 45.5t-123 126t-44.5 185.5t44.5 185.5t123.5 126t182 45.5zM396 657q-91 0 -157.5 -37.5t-102.5 -107t-36 -162.5q0 -92 36 -161t102.5 -107.5t157.5 -38.5t157.5 38.5
t102.5 107.5t36 161q0 93 -36 162.5t-102.5 107t-157.5 37.5zM393 91q-73 0 -128 32t-86.5 89.5t-31.5 134.5q0 76 31.5 134.5t87.5 91t129 32.5q80 0 141 -38.5t86 -105.5l-119 -34q-12 30 -39.5 46.5t-62.5 16.5t-61.5 -18t-41 -50t-14.5 -75q0 -64 32 -102t86 -38
q34 0 62 16t42 45l117 -34q-26 -65 -88.5 -103.5t-141.5 -39.5z" />
    <glyph glyph-name="ordfeminine" unicode="&#xaa;" horiz-adv-x="465" 
d="M28 530q0 54 23 94.5t60.5 63t83.5 22.5t76 -15.5t48 -36.5v46h104v-351h-104v45q-16 -21 -46.5 -35.5t-74.5 -14.5q-48 0 -86 22.5t-61 64t-23 95.5zM136 529q0 -48 28 -74t64 -26t63.5 26t27.5 74t-27.5 73.5t-63.5 25.5t-64 -25.5t-28 -73.5z" />
    <glyph glyph-name="guillemotleft" unicode="&#xab;" horiz-adv-x="497" 
d="M251 75h-128l-89 175l89 175h128l-92 -175zM456 75h-128l-90 175l90 175h128l-93 -175z" />
    <glyph glyph-name="logicalnot" unicode="&#xac;" horiz-adv-x="658" 
d="M31 437h586v-240h-136v136h-450v104z" />
    <glyph glyph-name="uni00AD" unicode="&#xad;" horiz-adv-x="511" 
d="M44 336h423v-114h-423v114z" />
    <glyph glyph-name="registered" unicode="&#xae;" horiz-adv-x="516" 
d="M46 495q0 62 27 109.5t75.5 75t110.5 27.5q61 0 108.5 -27.5t75 -75t27.5 -109.5t-27 -109.5t-75 -75t-109 -27.5q-62 0 -110.5 27.5t-75.5 75t-27 109.5zM100 495q0 -47 19 -84t55 -57.5t85 -20.5q48 0 83.5 20.5t55 57.5t19.5 84q0 49 -19.5 85t-55.5 56.5t-83 20.5
q-49 0 -85 -20.5t-55 -56.5t-19 -85zM170 605v-214h67v75h38q35 0 56 19t21 50q0 32 -21 51t-56 19h-105zM286 391h78l-62 97l-71 -1zM268 547q7 0 12.5 -3.5t5.5 -11.5q0 -9 -5.5 -12.5t-12.5 -3.5h-32v31h32z" />
    <glyph glyph-name="macron" unicode="&#xaf;" horiz-adv-x="400" 
d="M10 730h379v-97h-379v97z" />
    <glyph glyph-name="degree" unicode="&#xb0;" horiz-adv-x="428" 
d="M20 525q0 56 25 94.5t69 59.5t100 21t99.5 -21t68.5 -59.5t25 -94.5q0 -54 -25 -93.5t-69 -60.5t-101 -21q-85 0 -138.5 46.5t-53.5 128.5zM300 525q0 52 -26.5 75.5t-60.5 23.5q-33 0 -60 -23.5t-27 -75.5t26.5 -75.5t59.5 -23.5q34 0 61 23.5t27 75.5z" />
    <glyph glyph-name="plusminus" unicode="&#xb1;" horiz-adv-x="700" 
d="M414 601v-461h-128v461h128zM95 462h510v-117h-510v117zM95 217h510v-118h-510v118z" />
    <glyph glyph-name="uni00B2" unicode="&#xb2;" horiz-adv-x="355" 
d="M31 593q2 50 41 82t108 32q45 0 76.5 -16t47.5 -42t16 -55q0 -24 -8 -43.5t-28 -38t-56 -39.5l-111 -71l3 31h198v-83h-284v77l114 79q28 21 45 39t17 43q0 19 -11 30.5t-26 11.5q-17 0 -26.5 -10t-10.5 -27h-105z" />
    <glyph glyph-name="uni00B3" unicode="&#xb3;" horiz-adv-x="373" 
d="M34 598q3 30 21 55t51.5 39.5t80.5 14.5q42 0 75.5 -14t52 -37.5t18.5 -53.5q0 -31 -17.5 -49t-46.5 -25v-3q30 -9 49 -29.5t19 -52.5q0 -44 -42 -72t-110 -28q-73 0 -112.5 31t-42.5 84h105q3 -20 15 -30t31 -10q20 0 32.5 10.5t12.5 30.5q0 19 -13.5 30t-35.5 11h-35
v57h31q22 0 35 8.5t13 27.5q0 18 -11 28t-32 10q-19 0 -29.5 -9t-14.5 -24h-100z" />
    <glyph glyph-name="acute" unicode="&#xb4;" horiz-adv-x="250" 
d="M239 807v-110l-229 -105v97z" />
    <glyph glyph-name="uni00B5" unicode="&#xb5;" horiz-adv-x="599" 
d="M538 0h-136v57q-23 -28 -57 -43.5t-73 -17.5q-14 0 -27 1.5t-25 5t-24 8.5v-211h-134v700h134v-276q0 -55 28 -84.5t75 -29.5q46 0 74.5 29.5t28.5 86.5v274h136v-500z" />
    <glyph glyph-name="paragraph" unicode="&#xb6;" horiz-adv-x="654" 
d="M587 700v-700h-116v596h-66v-596h-116v281h-17q-84 0 -136.5 29t-77 77t-24.5 103q0 57 25 104.5t77.5 76.5t135.5 29h315z" />
    <glyph glyph-name="periodcentered" unicode="&#xb7;" horiz-adv-x="258" 
d="M129 247q-37 0 -60.5 23.5t-23.5 56.5q0 34 23.5 57.5t60.5 23.5q36 0 59.5 -23.5t23.5 -57.5q0 -33 -23.5 -56.5t-59.5 -23.5z" />
    <glyph glyph-name="cedilla" unicode="&#xb8;" horiz-adv-x="293" 
d="M152 -44q34 0 64 -11.5t48 -35.5t18 -61t-18.5 -62t-48 -37.5t-65.5 -12.5h-140v80h117q24 0 37 7t13 26q0 20 -13 26.5t-37 6.5h-61v125h86v-51z" />
    <glyph glyph-name="uni00B9" unicode="&#xb9;" horiz-adv-x="229" 
d="M79 624h-56v76h160v-350h-104v274z" />
    <glyph glyph-name="ordmasculine" unicode="&#xba;" horiz-adv-x="447" 
d="M27 528q0 55 25.5 95.5t69.5 63t101 22.5t101 -22.5t69.5 -63t25.5 -95.5q0 -53 -25.5 -94t-70.5 -64t-102 -23t-100.5 23t-68.5 64t-25 94zM312 528q0 50 -27.5 75.5t-62.5 25.5q-34 0 -61 -25.5t-27 -75.5q0 -49 26 -74.5t62 -25.5q35 0 62.5 25.5t27.5 74.5z" />
    <glyph glyph-name="guillemotright" unicode="&#xbb;" horiz-adv-x="497" 
d="M245 75l93 175l-93 175h128l90 -175l-90 -175h-128zM41 75l92 175l-92 175h128l89 -175l-89 -175h-128z" />
    <glyph glyph-name="onequarter" unicode="&#xbc;" horiz-adv-x="711" 
d="M451 700h129l-380 -700h-130zM683 128v-63h-42v-65h-105v65h-189v57l149 231h145v-225h42zM540 129v149l-91 -149h91zM79 623h-56v76h160v-350h-104v274z" />
    <glyph glyph-name="onehalf" unicode="&#xbd;" horiz-adv-x="732" 
d="M450 700h130l-380 -700h-130zM79 623h-56v76h160v-350h-104v274zM397 242q2 50 41 82t108 32q45 0 76.5 -16t47.5 -42t16 -55q0 -24 -8 -43.5t-28 -38t-56 -39.5l-110 -71l2 31h198v-83h-284v77l114 79q29 21 45.5 39t16.5 43q0 19 -11 30.5t-26 11.5q-17 0 -26.5 -10
t-10.5 -27h-105z" />
    <glyph glyph-name="threequarters" unicode="&#xbe;" horiz-adv-x="792" 
d="M538 700h129l-380 -700h-128zM770 128v-63h-43v-65h-104v65h-190v57l145 231h149v-225h43zM626 128v154l-91 -154h91zM27 598q3 30 21 55t51.5 39.5t80.5 14.5q42 0 75 -14t52 -37.5t19 -53.5q0 -31 -18 -49t-46 -25v-3q30 -9 49 -29.5t19 -52.5q0 -44 -42 -72t-110 -28
q-73 0 -113 31t-42 84h104q4 -20 16 -30t31 -10t31.5 10.5t12.5 30.5q0 19 -13 30t-35 11h-36v57h31q23 0 36 8.5t13 28.5q0 16 -11 26.5t-32 10.5q-19 0 -30 -9t-15 -24h-99z" />
    <glyph glyph-name="questiondown" unicode="&#xbf;" horiz-adv-x="548" 
d="M335 565q37 0 60.5 -23.5t23.5 -56.5q0 -34 -23.5 -57.5t-60.5 -23.5q-35 0 -59 23.5t-24 57.5q0 33 24 56.5t59 23.5zM275 -149q-68 0 -120 25t-81 72t-29 114q0 68 30 112.5t82 66.5t119 23l4 77h119l5 -168h-44q-39 0 -72 -4.5t-56.5 -16.5t-36.5 -34t-13 -57
q0 -30 11 -51t31.5 -32.5t51.5 -11.5q47 0 73.5 24.5t26.5 70.5h127q1 -60 -26 -107.5t-78.5 -75t-123.5 -27.5z" />
    <glyph glyph-name="Agrave" unicode="&#xc0;" horiz-adv-x="739" 
d="M249 968l229 -119v-97l-229 106v110zM388 587h-36l-206 -587h-139l251 700h223l251 -700h-139zM159 274h408v-113h-408v113z" />
    <glyph glyph-name="Aacute" unicode="&#xc1;" horiz-adv-x="739" 
d="M478 968v-111l-229 -105v97zM388 587h-36l-206 -587h-139l251 700h223l251 -700h-139zM159 274h408v-113h-408v113z" />
    <glyph glyph-name="Acircumflex" unicode="&#xc2;" horiz-adv-x="739" 
d="M517 753l-147 84l-148 -84v100l148 82l147 -82v-100zM388 587h-36l-206 -587h-139l251 700h223l251 -700h-139zM159 274h408v-113h-408v113z" />
    <glyph glyph-name="Atilde" unicode="&#xc3;" horiz-adv-x="739" 
d="M192 757q10 67 43 98t80 31q28 0 47.5 -11t37 -22t37.5 -11q16 0 28 10t15 33h73q-10 -67 -43 -98t-80 -31q-28 0 -48 11t-36.5 22.5t-36.5 11.5q-18 0 -29.5 -11t-14.5 -33h-73zM388 587h-36l-206 -587h-139l251 700h223l251 -700h-139zM159 274h408v-113h-408v113z" />
    <glyph glyph-name="Adieresis" unicode="&#xc4;" horiz-adv-x="739" 
d="M278 781q-28 0 -46.5 18.5t-18.5 45.5q0 28 18.5 47t46.5 19q27 0 46 -19t19 -47q0 -27 -19 -45.5t-46 -18.5zM461 781q-28 0 -46.5 18.5t-18.5 45.5q0 28 18.5 47t46.5 19q26 0 45.5 -19t19.5 -47q0 -27 -19.5 -45.5t-45.5 -18.5zM388 587h-36l-206 -587h-139l251 700
h223l251 -700h-139zM159 274h408v-113h-408v113z" />
    <glyph glyph-name="Aring" unicode="&#xc5;" horiz-adv-x="739" 
d="M486 856q0 -52 -34 -82.5t-82 -30.5t-82 30.5t-34 82.5q0 54 34 84.5t82 30.5t82 -30.5t34 -84.5zM418 857q0 23 -14.5 36.5t-33.5 13.5q-20 0 -34 -13.5t-14 -36.5q0 -22 14 -36t34 -14q19 0 33.5 14t14.5 36zM388 587h-36l-206 -587h-139l251 700h223l251 -700h-139z
M159 274h408v-113h-408v113z" />
    <glyph glyph-name="AE" unicode="&#xc6;" horiz-adv-x="918" 
d="M607 587v-178h169v-110h-169v-186h263v-113h-398v161h-234l-85 -161h-146l374 700h489v-113h-263zM297 274h175v329z" />
    <glyph glyph-name="Ccedilla" unicode="&#xc7;" horiz-adv-x="757" 
d="M431 -45q34 0 63.5 -11.5t48 -35.5t18.5 -62q0 -36 -18.5 -61t-48.5 -37.5t-65 -12.5h-140v80h117q23 0 36.5 6.5t13.5 26.5t-13.5 26.5t-36.5 6.5h-61v125h86v-51zM34 350q0 79 27 144.5t75 113t112.5 73.5t139.5 26q108 0 191.5 -51.5t125.5 -147.5l-113 -33
q-22 42 -54.5 68t-70.5 38t-77 12q-64 0 -114 -30.5t-77.5 -85.5t-27.5 -127t27.5 -126.5t77.5 -85.5t114 -31q40 0 79.5 12.5t73.5 42.5t58 80l111 -31q-43 -109 -128 -163.5t-196 -54.5q-75 0 -139.5 26t-112.5 74t-75 113.5t-27 143.5z" />
    <glyph glyph-name="Egrave" unicode="&#xc8;" horiz-adv-x="608" 
d="M192 968l228 -119v-97l-228 106v110zM560 587h-357v-178h267v-109h-267v-187h357v-113h-492v700h492v-113z" />
    <glyph glyph-name="Eacute" unicode="&#xc9;" horiz-adv-x="608" 
d="M420 968v-111l-228 -105v97zM560 587h-357v-178h267v-109h-267v-187h357v-113h-492v700h492v-113z" />
    <glyph glyph-name="Ecircumflex" unicode="&#xca;" horiz-adv-x="608" 
d="M460 753l-148 84l-148 -84v100l148 82l148 -82v-100zM560 587h-357v-178h267v-109h-267v-187h357v-113h-492v700h492v-113z" />
    <glyph glyph-name="Edieresis" unicode="&#xcb;" horiz-adv-x="608" 
d="M220 781q-27 0 -46 18.5t-19 45.5q0 28 19 47t46 19t46.5 -19t19.5 -47q0 -27 -19.5 -45.5t-46.5 -18.5zM403 781q-27 0 -46 18.5t-19 45.5q0 28 19 47t46 19t46 -19t19 -47q0 -27 -19 -45.5t-46 -18.5zM560 587h-357v-178h267v-109h-267v-187h357v-113h-492v700h492
v-113z" />
    <glyph glyph-name="Igrave" unicode="&#xcc;" horiz-adv-x="271" 
d="M15 968l229 -119v-97l-229 106v110zM68 700h135v-700h-135v700z" />
    <glyph glyph-name="Iacute" unicode="&#xcd;" horiz-adv-x="271" 
d="M244 968v-111l-229 -105v97zM68 700h135v-700h-135v700z" />
    <glyph glyph-name="Icircumflex" unicode="&#xce;" horiz-adv-x="271" 
d="M283 753l-147 84l-148 -84v100l148 82l147 -82v-100zM68 700h135v-700h-135v700z" />
    <glyph glyph-name="Idieresis" unicode="&#xcf;" horiz-adv-x="271" 
d="M44 781q-28 0 -46.5 18.5t-18.5 45.5q0 28 18.5 47t46.5 19q27 0 46 -19t19 -47q0 -27 -19 -45.5t-46 -18.5zM227 781q-28 0 -46.5 18.5t-18.5 45.5q0 28 18.5 47t46.5 19q27 0 46 -19t19 -47q0 -27 -19 -45.5t-46 -18.5zM68 700h135v-700h-135v700z" />
    <glyph glyph-name="Eth" unicode="&#xd0;" horiz-adv-x="764" 
d="M48 408h72v292h241q112 0 194.5 -43.5t128 -122.5t45.5 -186q0 -106 -45.5 -184t-128 -121t-194.5 -43h-241v289h-72v119zM256 109h101q112 -1 172.5 64t60.5 175q0 111 -60.5 175.5t-172.5 64.5h-101v-180h169v-119h-169v-180z" />
    <glyph glyph-name="Ntilde" unicode="&#xd1;" horiz-adv-x="715" 
d="M193 757q9 67 42.5 98t80.5 31q28 0 47.5 -11t36.5 -22t37 -11q17 0 28.5 10t14.5 33h73q-9 -67 -42 -98t-80 -31q-28 0 -48 11t-37 22.5t-37 11.5q-17 0 -28.5 -11t-15.5 -33h-72zM647 700v-700h-138l-306 486v-486h-135v700h137l307 -486v486h135z" />
    <glyph glyph-name="Ograve" unicode="&#xd2;" 
d="M271 968l229 -119v-97l-229 106v110zM391 -7q-74 0 -139 26t-113.5 73.5t-76.5 113t-28 144.5t28 144t76.5 113t113.5 74t139 26q75 0 139.5 -26t113.5 -74t76.5 -113t27.5 -144t-27.5 -144.5t-76.5 -113t-113.5 -73.5t-139.5 -26zM392 108q63 0 112.5 30.5t78 84.5
t28.5 127t-28.5 127t-78 84.5t-112.5 30.5q-65 0 -114.5 -30.5t-77.5 -84.5t-28 -127q0 -72 28 -127t77.5 -85t114.5 -30z" />
    <glyph glyph-name="Oacute" unicode="&#xd3;" 
d="M500 968v-111l-229 -105v97zM391 -7q-74 0 -139 26t-113.5 73.5t-76.5 113t-28 144.5t28 144t76.5 113t113.5 74t139 26q75 0 139.5 -26t113.5 -74t76.5 -113t27.5 -144t-27.5 -144.5t-76.5 -113t-113.5 -73.5t-139.5 -26zM392 108q63 0 112.5 30.5t78 84.5t28.5 127
t-28.5 127t-78 84.5t-112.5 30.5q-65 0 -114.5 -30.5t-77.5 -84.5t-28 -127q0 -72 28 -127t77.5 -85t114.5 -30z" />
    <glyph glyph-name="Ocircumflex" unicode="&#xd4;" 
d="M539 753l-148 84l-147 -84v100l147 82l148 -82v-100zM391 -7q-74 0 -138.5 26t-113.5 73.5t-77 113t-28 144.5q0 78 28 143.5t77 113.5t113.5 74t138.5 26q75 0 139.5 -26t113.5 -74t76.5 -113.5t27.5 -143.5q0 -79 -27.5 -144.5t-76.5 -113t-113.5 -73.5t-139.5 -26z
M391 108q64 0 113.5 30.5t78 85t28.5 126.5q0 73 -28.5 127t-78 84.5t-113.5 30.5t-113.5 -30.5t-77.5 -84.5t-28 -127q0 -72 28 -126.5t77.5 -85t113.5 -30.5z" />
    <glyph glyph-name="Otilde" unicode="&#xd5;" 
d="M214 757q9 67 42 98t81 31q28 0 47.5 -11t36.5 -22t38 -11q16 0 27.5 10.5t14.5 32.5h73q-10 -67 -43 -98t-79 -31q-29 0 -48.5 11t-36.5 22.5t-37 11.5q-17 0 -28.5 -11t-14.5 -33h-73zM391 -7q-74 0 -139 26t-113.5 73.5t-76.5 113t-28 144.5t28 144t76.5 113t113.5 74
t139 26q75 0 139.5 -26t113.5 -74t76.5 -113t27.5 -144t-27.5 -144.5t-76.5 -113t-113.5 -73.5t-139.5 -26zM392 108q63 0 112.5 30.5t78 84.5t28.5 127t-28.5 127t-78 84.5t-112.5 30.5q-65 0 -114.5 -30.5t-77.5 -84.5t-28 -127q0 -72 28 -127t77.5 -85t114.5 -30z" />
    <glyph glyph-name="Odieresis" unicode="&#xd6;" 
d="M299 781q-28 0 -46.5 18.5t-18.5 45.5q0 28 18.5 47t46.5 19q27 0 46.5 -19t19.5 -47q0 -27 -19.5 -45.5t-46.5 -18.5zM482 781q-28 0 -46.5 18.5t-18.5 45.5q0 28 18.5 47t46.5 19q27 0 46 -19t19 -47q0 -27 -19 -45.5t-46 -18.5zM391 -7q-74 0 -139 26t-113.5 73.5
t-76.5 113t-28 144.5t28 144t76.5 113t113.5 74t139 26q75 0 139.5 -26t113.5 -74t76.5 -113t27.5 -144t-27.5 -144.5t-76.5 -113t-113.5 -73.5t-139.5 -26zM392 108q63 0 112.5 30.5t78 84.5t28.5 127t-28.5 127t-78 84.5t-112.5 30.5q-65 0 -114.5 -30.5t-77.5 -84.5
t-28 -127q0 -72 28 -127t77.5 -85t114.5 -30z" />
    <glyph glyph-name="multiply" unicode="&#xd7;" horiz-adv-x="573" 
d="M143 583l378 -378l-88 -88l-378 379zM51 206l377 377l89 -88l-378 -377z" />
    <glyph glyph-name="Oslash" unicode="&#xd8;" 
d="M557 607l97 -50l-407 -446l-97 50zM391 -7q-74 0 -139 26t-113.5 73.5t-76.5 113t-28 144.5t28 144t76.5 113t113.5 74t139 26q75 0 139.5 -26t113.5 -74t76.5 -113t27.5 -144t-27.5 -144.5t-76.5 -113t-113.5 -73.5t-139.5 -26zM392 108q63 0 112.5 30.5t78 84.5
t28.5 127t-28.5 127t-78 84.5t-112.5 30.5q-65 0 -114.5 -30.5t-77.5 -84.5t-28 -127q0 -72 28 -127t77.5 -85t114.5 -30z" />
    <glyph glyph-name="Ugrave" unicode="&#xd9;" horiz-adv-x="709" 
d="M232 968l229 -119v-97l-229 106v110zM64 700h135v-442q0 -49 20 -82.5t54.5 -50.5t79.5 -17q46 0 81 17t55 50.5t20 82.5v442h135v-435q0 -69 -24 -120t-65.5 -85t-94 -50.5t-109.5 -16.5q-76 0 -141.5 30t-105.5 90t-40 152v435z" />
    <glyph glyph-name="Uacute" unicode="&#xda;" horiz-adv-x="709" 
d="M461 968v-111l-229 -105v97zM64 700h135v-442q0 -49 20 -82.5t54.5 -50.5t79.5 -17q46 0 81 17t55 50.5t20 82.5v442h135v-435q0 -69 -24 -120t-65.5 -85t-94 -50.5t-109.5 -16.5q-76 0 -141.5 30t-105.5 90t-40 152v435z" />
    <glyph glyph-name="Ucircumflex" unicode="&#xdb;" horiz-adv-x="709" 
d="M500 753l-147 84l-148 -84v100l148 82l147 -82v-100zM64 700h135v-442q0 -49 20 -82.5t54.5 -50.5t79.5 -17q46 0 81 17t55 50.5t20 82.5v442h135v-435q0 -69 -24 -120t-65.5 -85t-94 -50.5t-109.5 -16.5q-76 0 -141.5 30t-105.5 90t-40 152v435z" />
    <glyph glyph-name="Udieresis" unicode="&#xdc;" horiz-adv-x="709" 
d="M261 781q-27 0 -46 18.5t-19 45.5q0 28 19 47t46 19q28 0 46.5 -19t18.5 -47q0 -27 -18.5 -45.5t-46.5 -18.5zM444 781q-27 0 -46 18.5t-19 45.5q0 28 19 47t46 19t46 -19t19 -47q0 -27 -19 -45.5t-46 -18.5zM64 700h135v-442q0 -49 20 -82.5t54.5 -50.5t79.5 -17
q46 0 81 17t55 50.5t20 82.5v442h135v-435q0 -69 -24 -120t-65.5 -85t-94 -50.5t-109.5 -16.5q-76 0 -141.5 30t-105.5 90t-40 152v435z" />
    <glyph glyph-name="Yacute" unicode="&#xdd;" horiz-adv-x="705" 
d="M460 968v-111l-228 -105v97zM530 700h152l-262 -454v-246h-135v245l-262 455h151l178 -325z" />
    <glyph glyph-name="Thorn" unicode="&#xde;" horiz-adv-x="607" 
d="M317 243q61 0 89 29.5t28 77.5q0 49 -28 78.5t-89 29.5h-113v-215h113zM573 350q0 -51 -25.5 -100t-80 -80t-145.5 -31h-118v-139h-136v700h135v-137h119q84 0 140 -28.5t83.5 -77t27.5 -107.5z" />
    <glyph glyph-name="germandbls" unicode="&#xdf;" horiz-adv-x="650" 
d="M62 492q0 57 24.5 105.5t75.5 79t130 30.5q70 0 119 -25.5t74.5 -64.5t25.5 -81q0 -34 -13 -55.5t-30.5 -37t-35.5 -30.5q-14 -12 -23 -22t-9 -20q0 -11 15 -21.5t67 -28.5q70 -25 101 -71.5t31 -101.5q0 -70 -51 -112.5t-140 -42.5q-86 0 -140 45.5t-62 130.5h132
q2 -34 19.5 -52.5t50.5 -18.5q27 0 41.5 9.5t14.5 33.5q0 25 -16 47.5t-56 36.5q-73 25 -108 54t-35 73q0 36 20 61.5t43 48.5q19 18 33.5 28.5t14.5 32.5q0 30 -23.5 50.5t-62.5 20.5q-37 0 -58.5 -15t-31 -41t-9.5 -58v-480h-128v492z" />
    <glyph glyph-name="agrave" unicode="&#xe0;" horiz-adv-x="529" 
d="M163 734l201 -104v-84l-201 93v95zM356 0l-10 61q-25 -31 -56.5 -49t-84.5 -18q-50 0 -87.5 17.5t-58.5 49t-21 74.5q0 63 45.5 104.5t137.5 52.5l125 14v35q0 21 -19 39t-60 18q-36 0 -62.5 -17.5t-35.5 -52.5l-110 40q20 67 76 103t138 36q100 0 150.5 -49.5
t50.5 -130.5v-327h-118zM346 217l-108 -14q-33 -4 -50 -19.5t-17 -37.5q0 -21 17 -35.5t48 -14.5q35 0 59.5 13t37.5 38t13 62v8z" />
    <glyph glyph-name="aacute" unicode="&#xe1;" horiz-adv-x="529" 
d="M364 734v-96l-201 -92v84zM356 0l-10 61q-25 -31 -56.5 -49t-84.5 -18q-50 0 -87.5 17.5t-58.5 49t-21 74.5q0 63 45.5 104.5t137.5 52.5l125 14v35q0 21 -19 39t-60 18q-36 0 -62.5 -17.5t-35.5 -52.5l-110 40q20 67 76 103t138 36q100 0 150.5 -49.5t50.5 -130.5v-327
h-118zM346 217l-108 -14q-33 -4 -50 -19.5t-17 -37.5q0 -21 17 -35.5t48 -14.5q35 0 59.5 13t37.5 38t13 62v8z" />
    <glyph glyph-name="acircumflex" unicode="&#xe2;" horiz-adv-x="529" 
d="M398 546l-129 74l-130 -74v88l130 71l129 -71v-88zM356 0l-10 61q-25 -31 -56.5 -49t-84.5 -18q-50 0 -87.5 17.5t-58.5 49t-21 74.5q0 63 45.5 104.5t137.5 52.5l125 14v35q0 21 -19 39t-60 18q-36 0 -62.5 -17.5t-35.5 -52.5l-110 40q20 67 76 103t138 36
q100 0 150.5 -49.5t50.5 -130.5v-327h-118zM346 217l-108 -14q-33 -4 -50 -19.5t-17 -37.5q0 -21 17 -35.5t48 -14.5q35 0 59.5 13t37.5 38t13 62v8z" />
    <glyph glyph-name="atilde" unicode="&#xe3;" horiz-adv-x="529" 
d="M113 550q9 58 38 85.5t70 27.5q24 0 41.5 -10t32.5 -19.5t32 -9.5q15 0 25.5 9t13.5 29h64q-9 -59 -38 -86t-70 -27q-25 0 -42.5 10t-32 19.5t-32.5 9.5q-15 0 -25.5 -9t-12.5 -29h-64zM356 0l-10 61q-25 -31 -56.5 -49t-84.5 -18q-50 0 -87.5 17.5t-58.5 49t-21 74.5
q0 63 45.5 104.5t137.5 52.5l125 14v35q0 21 -19 39t-60 18q-36 0 -62.5 -17.5t-35.5 -52.5l-110 40q20 67 76 103t138 36q100 0 150.5 -49.5t50.5 -130.5v-327h-118zM346 217l-108 -14q-33 -4 -50 -19.5t-17 -37.5q0 -21 17 -35.5t48 -14.5q35 0 59.5 13t37.5 38t13 62v8z
" />
    <glyph glyph-name="adieresis" unicode="&#xe4;" horiz-adv-x="529" 
d="M188 570q-25 0 -41 16.5t-16 41.5q0 23 16 40t41 17q24 0 41 -17t17 -40q0 -25 -17 -41.5t-41 -16.5zM348 570q-24 0 -40 16.5t-16 41.5q0 23 16 40t40 17t41 -17t17 -40q0 -25 -17 -41.5t-41 -16.5zM356 0l-10 61q-25 -31 -56.5 -49t-84.5 -18q-50 0 -87.5 17.5
t-58.5 49t-21 74.5q0 63 45.5 104.5t137.5 52.5l125 14v35q0 21 -19 39t-60 18q-36 0 -62.5 -17.5t-35.5 -52.5l-110 40q20 67 76 103t138 36q100 0 150.5 -49.5t50.5 -130.5v-327h-118zM346 217l-108 -14q-33 -4 -50 -19.5t-17 -37.5q0 -21 17 -35.5t48 -14.5q35 0 59.5 13
t37.5 38t13 62v8z" />
    <glyph glyph-name="aring" unicode="&#xe5;" horiz-adv-x="529" 
d="M371 637q0 -46 -30 -73t-72 -27t-72 27t-30 73q0 47 30 74t72 27t72 -27t30 -74zM311 638q0 20 -12.5 32t-29.5 12q-18 0 -30 -12t-12 -32t12 -32t30 -12q17 0 29.5 12t12.5 32zM356 0l-10 61q-25 -31 -56.5 -49t-84.5 -18q-50 0 -87.5 17.5t-58.5 49t-21 74.5
q0 63 45.5 104.5t137.5 52.5l125 14v35q0 21 -19 39t-60 18q-36 0 -62.5 -17.5t-35.5 -52.5l-110 40q20 67 76 103t138 36q100 0 150.5 -49.5t50.5 -130.5v-327h-118zM346 217l-108 -14q-33 -4 -50 -19.5t-17 -37.5q0 -21 17 -35.5t48 -14.5q35 0 59.5 13t37.5 38t13 62v8z
" />
    <glyph glyph-name="ae" unicode="&#xe6;" horiz-adv-x="858" 
d="M583 -7q-73 0 -126 32.5t-81.5 91t-28.5 136.5q0 119 60.5 186.5t172.5 67.5q72 0 126.5 -30.5t85 -85.5t30.5 -130q0 -12 -1 -25t-4 -29h-344q4 -32 19 -54.5t38.5 -35t53.5 -12.5q45 0 72 13t43 43l113 -34q-30 -63 -87 -98.5t-142 -35.5zM684 300q-2 30 -15.5 52.5
t-36.5 34t-53 11.5q-27 0 -49 -12.5t-35.5 -34.5t-18.5 -51h208zM410 193l12 -78q-21 -45 -55.5 -72t-76.5 -38.5t-84 -11.5q-49 0 -87 16t-59.5 48t-21.5 78q0 39 15 66.5t41 45.5t58.5 28.5t68.5 15.5l125 18v32q0 21 -20 39t-59 18q-36 0 -62.5 -17.5t-35.5 -52.5
l-110 40q21 67 76.5 103t137.5 36q99 0 148.5 -49.5t49.5 -130.5v-107zM346 218l-107 -15q-36 -5 -52 -20.5t-16 -37.5q0 -24 19 -34.5t48 -10.5q30 0 54.5 11.5t39 35.5t14.5 61v10z" />
    <glyph glyph-name="ccedilla" unicode="&#xe7;" horiz-adv-x="549" 
d="M318 -33q30 0 56 -10t42 -31t16 -54q0 -32 -16 -54t-42.5 -33t-56.5 -11h-124v70h103q21 0 32.5 6t11.5 23q0 18 -11.5 23.5t-32.5 5.5h-54v110h76v-45zM282 -7q-73 0 -128 32t-86 89.5t-31 133.5q0 77 31 135t87 91t129 33q79 0 140.5 -39t86.5 -105l-119 -34
q-12 29 -39.5 46t-62.5 17t-61.5 -18t-41 -50t-14.5 -75q0 -65 32 -103t86 -38q34 0 62 16.5t42 45.5l118 -34q-27 -65 -89.5 -104t-141.5 -39z" />
    <glyph glyph-name="egrave" unicode="&#xe8;" horiz-adv-x="560" 
d="M178 734l201 -104v-84l-201 93v95zM289 -7q-75 0 -132 33t-88.5 92t-31.5 136q0 74 31 131t86.5 89.5t126.5 32.5q72 0 127 -31t85.5 -86.5t30.5 -129.5q0 -11 -1.5 -24.5t-3.5 -28.5h-344q4 -32 20.5 -54.5t41 -35t55.5 -12.5q37 0 66.5 15.5t42.5 40.5l114 -34
q-30 -64 -89.5 -99t-136.5 -35zM384 300q-1 28 -15 50.5t-37 35t-51 12.5q-25 0 -47 -13t-37.5 -34.5t-20.5 -50.5h208z" />
    <glyph glyph-name="eacute" unicode="&#xe9;" horiz-adv-x="560" 
d="M379 734v-96l-201 -92v84zM289 -7q-75 0 -132 33t-88.5 92t-31.5 136q0 74 31 131t86.5 89.5t126.5 32.5q72 0 127 -31t85.5 -86.5t30.5 -129.5q0 -11 -1.5 -24.5t-3.5 -28.5h-344q4 -32 20.5 -54.5t41 -35t55.5 -12.5q37 0 66.5 15.5t42.5 40.5l114 -34
q-30 -64 -89.5 -99t-136.5 -35zM384 300q-1 28 -15 50.5t-37 35t-51 12.5q-25 0 -47 -13t-37.5 -34.5t-20.5 -50.5h208z" />
    <glyph glyph-name="ecircumflex" unicode="&#xea;" horiz-adv-x="560" 
d="M414 546l-130 74l-130 -74v88l130 71l130 -71v-88zM289 -7q-75 0 -132 33t-88.5 92t-31.5 136q0 74 31 131t86.5 89.5t126.5 32.5q72 0 127 -31t85.5 -86.5t30.5 -129.5q0 -11 -1.5 -24.5t-3.5 -28.5h-344q4 -32 20.5 -54.5t41 -35t55.5 -12.5q37 0 66.5 15.5t42.5 40.5
l114 -34q-30 -64 -89.5 -99t-136.5 -35zM384 300q-1 28 -15 50.5t-37 35t-51 12.5q-25 0 -47 -13t-37.5 -34.5t-20.5 -50.5h208z" />
    <glyph glyph-name="edieresis" unicode="&#xeb;" horiz-adv-x="560" 
d="M203 570q-24 0 -40 16.5t-16 40.5t16 41t40 17t41 -17t17 -41t-17 -40.5t-41 -16.5zM364 570q-25 0 -41 16.5t-16 40.5t16 41t41 17q24 0 40.5 -17t16.5 -41t-16.5 -40.5t-40.5 -16.5zM289 -7q-75 0 -132 33t-88.5 92t-31.5 136q0 74 31 131t86.5 89.5t126.5 32.5
q72 0 127 -31t85.5 -86.5t30.5 -129.5q0 -11 -1.5 -24.5t-3.5 -28.5h-344q4 -32 20.5 -54.5t41 -35t55.5 -12.5q37 0 66.5 15.5t42.5 40.5l114 -34q-30 -64 -89.5 -99t-136.5 -35zM384 300q-1 28 -15 50.5t-37 35t-51 12.5q-25 0 -47 -13t-37.5 -34.5t-20.5 -50.5h208z" />
    <glyph glyph-name="igrave" unicode="&#xec;" horiz-adv-x="258" 
d="M23 728l201 -104v-84l-201 93v95zM62 500h135v-500h-135v500z" />
    <glyph glyph-name="iacute" unicode="&#xed;" horiz-adv-x="258" 
d="M224 728v-96l-201 -92v84zM62 500h135v-500h-135v500z" />
    <glyph glyph-name="icircumflex" unicode="&#xee;" horiz-adv-x="258" 
d="M259 540l-130 74l-130 -74v88l130 71l130 -71v-88zM62 500h135v-500h-135v500z" />
    <glyph glyph-name="idieresis" unicode="&#xef;" horiz-adv-x="258" 
d="M48 564q-24 0 -40 16.5t-16 40.5t16 41t40 17t41 -17t17 -41t-17 -40.5t-41 -16.5zM209 564q-25 0 -41 16.5t-16 40.5t16 41t41 17q24 0 40.5 -17t16.5 -41t-16.5 -40.5t-40.5 -16.5zM62 500h135v-500h-135v500z" />
    <glyph glyph-name="eth" unicode="&#xf0;" horiz-adv-x="592" 
d="M505 668v-67l-43 -14q45 -69 69 -148t24 -153q0 -97 -34.5 -162.5t-94 -98t-131.5 -32.5q-73 0 -131.5 31.5t-92.5 90t-34 136.5q0 79 33 136.5t89.5 89t125.5 31.5q21 0 40.5 -3.5t35.5 -10t32 -17.5q-10 18 -21 38t-25 41l-108 -32v67l70 22q-18 23 -38 45.5t-42 41.5
h138q28 -26 54 -57zM295 108q30 0 58 16t46 47.5t18 79.5t-18 79.5t-45.5 47t-58.5 15.5t-58.5 -15.5t-44 -47t-16.5 -79.5t16.5 -79.5t43.5 -47.5t59 -16z" />
    <glyph glyph-name="ntilde" unicode="&#xf1;" horiz-adv-x="561" 
d="M147 550q9 58 38 85.5t70 27.5q25 0 42 -10t32 -19.5t33 -9.5q15 0 25 9t13 29h64q-9 -59 -37.5 -86t-69.5 -27q-25 0 -42.5 10t-32.5 19.5t-32 9.5q-15 0 -25.5 -9t-13.5 -29h-64zM62 500h116l9 -51q24 27 58.5 42.5t74.5 15.5q59 0 100.5 -25t64 -72.5t22.5 -117.5
v-292h-129v275q0 58 -23 87t-69 29q-47 0 -71.5 -29.5t-24.5 -87.5v-274h-128v500z" />
    <glyph glyph-name="ograve" unicode="&#xf2;" horiz-adv-x="584" 
d="M193 734l201 -104v-84l-201 93v95zM289 -7q-73 0 -130 31.5t-89.5 89t-32.5 135.5q0 79 33.5 137t91.5 89.5t130 31.5t130 -31.5t92 -89t34 -135.5q0 -79 -34.5 -137t-93 -89.5t-131.5 -31.5zM288 108q31 0 59 15.5t46 47t18 80.5q0 47 -17 78.5t-44.5 47t-59.5 15.5
q-31 0 -57.5 -15.5t-42 -47t-15.5 -80.5q0 -47 15 -78.5t41 -47t57 -15.5z" />
    <glyph glyph-name="oacute" unicode="&#xf3;" horiz-adv-x="584" 
d="M394 734v-96l-201 -92v84zM289 -7q-73 0 -130 31.5t-89.5 89t-32.5 135.5q0 79 33.5 137t91.5 89.5t130 31.5t130 -31.5t92 -89t34 -135.5q0 -79 -34.5 -137t-93 -89.5t-131.5 -31.5zM288 108q31 0 59 15.5t46 47t18 80.5q0 47 -17 78.5t-44.5 47t-59.5 15.5
q-31 0 -57.5 -15.5t-42 -47t-15.5 -80.5q0 -47 15 -78.5t41 -47t57 -15.5z" />
    <glyph glyph-name="ocircumflex" unicode="&#xf4;" horiz-adv-x="584" 
d="M429 546l-130 74l-130 -74v88l130 71l130 -71v-88zM289 -7q-73 0 -130 31.5t-89.5 89t-32.5 135.5q0 79 33.5 137t91.5 89.5t130 31.5t130 -31.5t92 -89t34 -135.5q0 -79 -34.5 -137t-93 -89.5t-131.5 -31.5zM288 108q31 0 59 15.5t46 47t18 80.5q0 47 -17 78.5t-44.5 47
t-59.5 15.5q-31 0 -57.5 -15.5t-42 -47t-15.5 -80.5q0 -47 15 -78.5t41 -47t57 -15.5z" />
    <glyph glyph-name="otilde" unicode="&#xf5;" horiz-adv-x="584" 
d="M143 550q9 58 38 85.5t70 27.5q25 0 42 -10t32 -19.5t33 -9.5q15 0 25 9t13 29h63q-8 -59 -36.5 -86t-70.5 -27q-24 0 -41.5 10t-32.5 19.5t-33 9.5q-14 0 -24.5 -9t-13.5 -29h-64zM289 -7q-73 0 -130 31.5t-89.5 89t-32.5 135.5q0 79 33.5 137t91.5 89.5t130 31.5
t130 -31.5t92 -89t34 -135.5q0 -79 -34.5 -137t-93 -89.5t-131.5 -31.5zM288 108q31 0 59 15.5t46 47t18 80.5q0 47 -17 78.5t-44.5 47t-59.5 15.5q-31 0 -57.5 -15.5t-42 -47t-15.5 -80.5q0 -47 15 -78.5t41 -47t57 -15.5z" />
    <glyph glyph-name="odieresis" unicode="&#xf6;" horiz-adv-x="584" 
d="M218 570q-24 0 -40 16.5t-16 40.5t16 41t40 17t41 -17t17 -41t-17 -40.5t-41 -16.5zM379 570q-25 0 -41 16.5t-16 40.5t16 41t41 17q24 0 40.5 -17t16.5 -41t-16.5 -40.5t-40.5 -16.5zM289 -7q-72 0 -129.5 31.5t-90 89t-32.5 135.5q0 79 33.5 137t91.5 89.5t130 31.5
t130 -31.5t92 -89t34 -135.5q0 -79 -34.5 -137t-93 -89.5t-131.5 -31.5zM288 108q31 0 59 15.5t46 47t18 80.5q0 47 -17 78.5t-44.5 47t-59.5 15.5q-31 0 -57.5 -15.5t-42 -47t-15.5 -80.5q0 -47 15 -78.5t41 -47t57 -15.5z" />
    <glyph glyph-name="divide" unicode="&#xf7;" horiz-adv-x="613" 
d="M51 408h510v-117h-510v117zM312 50q-37 0 -60.5 23.5t-23.5 57.5q0 33 23.5 56.5t60.5 23.5q36 0 59.5 -23.5t23.5 -57.5q0 -33 -23.5 -56.5t-59.5 -23.5zM312 489q-37 0 -60.5 23.5t-23.5 57.5q0 33 23.5 56.5t60.5 23.5q36 0 59.5 -23.5t23.5 -56.5q0 -34 -23.5 -57.5
t-59.5 -23.5z" />
    <glyph glyph-name="oslash" unicode="&#xf8;" horiz-adv-x="584" 
d="M418 447l72 -51l-299 -328l-72 51zM289 -7q-73 0 -130 31.5t-89.5 89t-32.5 135.5q0 79 33.5 137t91.5 89.5t130 31.5t130 -31.5t92 -89t34 -135.5q0 -79 -34.5 -137t-93 -89.5t-131.5 -31.5zM288 108q31 0 59 15.5t46 47t18 80.5q0 47 -17 78.5t-44.5 47t-59.5 15.5
q-31 0 -57.5 -15.5t-42 -47t-15.5 -80.5q0 -47 15 -78.5t41 -47t57 -15.5z" />
    <glyph glyph-name="ugrave" unicode="&#xf9;" horiz-adv-x="562" 
d="M167 734l200 -104v-84l-200 93v95zM501 0h-117l-9 52q-24 -28 -58.5 -43.5t-73.5 -15.5q-58 0 -100 25t-65 72.5t-23 117.5v292h129v-276q0 -57 22.5 -86.5t69.5 -29.5q46 0 71.5 30t25.5 87v275h128v-500z" />
    <glyph glyph-name="uacute" unicode="&#xfa;" horiz-adv-x="562" 
d="M367 734v-96l-200 -92v84zM501 0h-117l-9 52q-24 -28 -58.5 -43.5t-73.5 -15.5q-58 0 -100 25t-65 72.5t-23 117.5v292h129v-276q0 -57 22.5 -86.5t69.5 -29.5q46 0 71.5 30t25.5 87v275h128v-500z" />
    <glyph glyph-name="ucircumflex" unicode="&#xfb;" horiz-adv-x="562" 
d="M402 546l-129 74l-130 -74v88l130 71l129 -71v-88zM501 0h-117l-9 52q-24 -28 -58.5 -43.5t-73.5 -15.5q-58 0 -100 25t-65 72.5t-23 117.5v292h129v-276q0 -57 22.5 -86.5t69.5 -29.5q46 0 71.5 30t25.5 87v275h128v-500z" />
    <glyph glyph-name="udieresis" unicode="&#xfc;" horiz-adv-x="562" 
d="M192 570q-24 0 -40.5 16.5t-16.5 41.5q0 23 16.5 40t40.5 17t40.5 -17t16.5 -40q0 -25 -16.5 -41.5t-40.5 -16.5zM352 570q-24 0 -40.5 16.5t-16.5 41.5q0 23 16.5 40t40.5 17t41 -17t17 -40q0 -25 -17 -41.5t-41 -16.5zM501 0h-117l-9 52q-24 -28 -58.5 -43.5
t-73.5 -15.5q-58 0 -100 25t-65 72.5t-23 117.5v292h129v-276q0 -57 22.5 -86.5t69.5 -29.5q46 0 71.5 30t25.5 87v275h128v-500z" />
    <glyph glyph-name="yacute" unicode="&#xfd;" horiz-adv-x="557" 
d="M374 734v-96l-201 -92v84zM405 500h137l-295 -700h-129l94 218l-197 482h143l122 -329z" />
    <glyph glyph-name="thorn" unicode="&#xfe;" horiz-adv-x="612" 
d="M191 -200h-129v921h129v-281q25 32 61.5 50t88.5 18q65 0 118.5 -32t85 -89.5t31.5 -134.5t-31.5 -135.5t-85 -91t-118.5 -32.5q-33 0 -61.5 9.5t-50.5 26t-38 37.5v-266zM438 252q0 45 -18.5 76t-46.5 47t-59 16t-59.5 -16t-46 -47t-17.5 -77t17.5 -77.5t46 -47.5
t59.5 -16t59 16.5t46.5 48t18.5 77.5z" />
    <glyph glyph-name="ydieresis" unicode="&#xff;" horiz-adv-x="557" 
d="M198 570q-24 0 -40.5 16.5t-16.5 40.5t16.5 41t40.5 17t40.5 -17t16.5 -41t-16.5 -40.5t-40.5 -16.5zM358 570q-24 0 -40.5 16.5t-16.5 40.5t16.5 41t40.5 17t40.5 -17t16.5 -41t-16.5 -40.5t-40.5 -16.5zM405 500h137l-295 -700h-129l94 218l-197 482h143l122 -329z" />
    <glyph glyph-name="Amacron" unicode="&#x100;" horiz-adv-x="739" 
d="M180 880h379v-97h-379v97zM388 587h-36l-206 -587h-139l251 700h223l251 -700h-139zM159 274h408v-113h-408v113z" />
    <glyph glyph-name="amacron" unicode="&#x101;" horiz-adv-x="529" 
d="M102 658h334v-85h-334v85zM356 0l-10 61q-25 -31 -56.5 -49t-84.5 -18q-50 0 -87.5 17.5t-58.5 49t-21 74.5q0 63 45.5 104.5t137.5 52.5l125 14v35q0 21 -19 39t-60 18q-36 0 -62.5 -17.5t-35.5 -52.5l-110 40q20 67 76 103t138 36q100 0 150.5 -49.5t50.5 -130.5v-327
h-118zM346 217l-108 -14q-33 -4 -50 -19.5t-17 -37.5q0 -21 17 -35.5t48 -14.5q35 0 59.5 13t37.5 38t13 62v8z" />
    <glyph glyph-name="Abreve" unicode="&#x102;" horiz-adv-x="739" 
d="M528 910q0 -47 -19.5 -81t-55 -52.5t-83.5 -18.5t-84 18.5t-55 53t-19 81.5v21h73q0 -34 18 -52.5t67 -18.5q48 0 66.5 18.5t18.5 52.5h73v-22zM388 587h-36l-206 -587h-139l251 700h223l251 -700h-139zM159 274h408v-113h-408v113z" />
    <glyph glyph-name="abreve" unicode="&#x103;" horiz-adv-x="529" 
d="M408 684q0 -41 -17.5 -71t-48.5 -46t-73 -16t-73.5 16t-48.5 46.5t-17 70.5v18h64q0 -28 16 -44.5t59 -16.5q42 0 58 16.5t16 44.5h65v-18zM356 0l-10 61q-25 -31 -56.5 -49t-84.5 -18q-50 0 -87.5 17.5t-58.5 49t-21 74.5q0 63 45.5 104.5t137.5 52.5l125 14v35
q0 21 -19 39t-60 18q-36 0 -62.5 -17.5t-35.5 -52.5l-110 40q20 67 76 103t138 36q100 0 150.5 -49.5t50.5 -130.5v-327h-118zM346 217l-108 -14q-33 -4 -50 -19.5t-17 -37.5q0 -21 17 -35.5t48 -14.5q35 0 59.5 13t37.5 38t13 62v8z" />
    <glyph glyph-name="Aogonek" unicode="&#x104;" horiz-adv-x="739" 
d="M644 67l32 -67l-48 -24q-35 -17 -47.5 -33t-12.5 -33q0 -19 14 -30.5t37 -11.5q15 0 33 3.5t36 10.5v-81q-18 -7 -40.5 -11.5t-46.5 -4.5q-35 0 -67 11.5t-52 36t-20 64.5q0 29 13 54t44 49.5t84 48.5zM388 587h-36l-206 -587h-139l251 700h223l251 -700h-139zM159 274
h408v-113h-408v113z" />
    <glyph glyph-name="aogonek" unicode="&#x105;" horiz-adv-x="529" 
d="M441 58l29 -58l-42 -21q-30 -16 -42 -29.5t-12 -28.5q0 -17 12.5 -26.5t32.5 -9.5q28 0 62 13v-72q-17 -6 -36.5 -10t-40.5 -4q-31 0 -59 10t-45.5 31.5t-17.5 55.5q0 36 26.5 68.5t96.5 63.5zM356 0l-10 61q-25 -31 -56.5 -49t-84.5 -18q-50 0 -87.5 17.5t-58.5 49
t-21 74.5q0 63 45.5 104.5t137.5 52.5l125 14v35q0 21 -19 39t-60 18q-36 0 -62.5 -17.5t-35.5 -52.5l-110 40q20 67 76 103t138 36q100 0 150.5 -49.5t50.5 -130.5v-327h-118zM346 217l-108 -14q-33 -4 -50 -19.5t-17 -37.5q0 -21 17 -35.5t48 -14.5q35 0 59.5 13t37.5 38
t13 62v8z" />
    <glyph glyph-name="Cacute" unicode="&#x106;" horiz-adv-x="757" 
d="M498 968v-111l-228 -105v97zM34 350q0 79 27 144.5t75 113t112.5 73.5t139.5 26q108 0 191.5 -51.5t125.5 -147.5l-113 -33q-22 42 -54.5 68t-70.5 38t-77 12q-64 0 -114 -30.5t-77.5 -85.5t-27.5 -127t27.5 -126.5t77.5 -85.5t114 -31q40 0 79.5 12.5t73.5 42.5t58 80
l111 -31q-43 -109 -128 -163.5t-196 -54.5q-75 0 -139.5 26t-112.5 74t-75 113.5t-27 143.5z" />
    <glyph glyph-name="cacute" unicode="&#x107;" horiz-adv-x="549" 
d="M371 734v-96l-201 -92v84zM282 -7q-73 0 -128 32t-86 89.5t-31 133.5q0 77 31 135t87 91t129 33q79 0 140.5 -39t86.5 -105l-119 -34q-12 29 -39.5 46t-62.5 17t-61.5 -18t-41 -50t-14.5 -75q0 -65 32 -103t86 -38q34 0 62 16.5t42 45.5l118 -34q-27 -65 -89.5 -104
t-141.5 -39z" />
    <glyph glyph-name="Ccircumflex" unicode="&#x108;" horiz-adv-x="757" 
d="M34 350q0 79 27 144.5t75 113t112.5 73.5t139.5 26q108 0 191.5 -51.5t125.5 -147.5l-113 -33q-22 42 -54.5 68t-70.5 38t-77 12q-64 0 -114 -30.5t-77.5 -85.5t-27.5 -127t27.5 -126.5t77.5 -85.5t114 -31q40 0 79.5 12.5t73.5 42.5t58 80l111 -31q-43 -109 -128 -163.5
t-196 -54.5q-75 0 -139.5 26t-112.5 74t-75 113.5t-27 143.5zM537 752l-147 85l-148 -85v101l148 81l147 -81v-101z" />
    <glyph glyph-name="ccircumflex" unicode="&#x109;" horiz-adv-x="549" 
d="M282 -7q-73 0 -128 32t-86 89.5t-31 133.5q0 77 31 135t87 91t129 33q79 0 140.5 -39t86.5 -105l-119 -34q-12 29 -39.5 46t-62.5 17t-61.5 -18t-41 -50t-14.5 -75q0 -65 32 -103t86 -38q34 0 62 16.5t42 45.5l118 -34q-27 -65 -89.5 -104t-141.5 -39zM423 552l-147 85
l-148 -85v101l148 81l147 -81v-101z" />
    <glyph glyph-name="Cdotaccent" unicode="&#x10a;" horiz-adv-x="757" 
d="M389 781q-28 0 -46.5 18.5t-18.5 45.5q0 28 18.5 47t46.5 19q27 0 46.5 -19t19.5 -47q0 -27 -19.5 -45.5t-46.5 -18.5zM34 350q0 79 27 144.5t75 113t112.5 73.5t139.5 26q108 0 191.5 -51.5t125.5 -147.5l-113 -33q-22 42 -54.5 68t-70.5 38t-77 12q-64 0 -114 -30.5
t-77.5 -85.5t-27.5 -127t27.5 -126.5t77.5 -85.5t114 -31q40 0 79.5 12.5t73.5 42.5t58 80l111 -31q-43 -109 -128 -163.5t-196 -54.5q-75 0 -139.5 26t-112.5 74t-75 113.5t-27 143.5z" />
    <glyph glyph-name="cdotaccent" unicode="&#x10b;" horiz-adv-x="549" 
d="M275 570q-24 0 -40.5 16.5t-16.5 40.5t16.5 41t41.5 17q24 0 40.5 -17t16.5 -41t-17 -40.5t-41 -16.5zM282 -7q-73 0 -128 32t-86 89.5t-31 133.5q0 77 31 135t87 91t129 33q79 0 140.5 -39t86.5 -105l-119 -34q-12 29 -39.5 46t-62.5 17q-36 0 -62 -18t-40.5 -50
t-14.5 -75q0 -65 32 -103t86 -38q34 0 62 16.5t42 45.5l118 -34q-27 -65 -89.5 -104t-141.5 -39z" />
    <glyph glyph-name="Ccaron" unicode="&#x10c;" horiz-adv-x="757" 
d="M538 935v-101l-148 -81l-147 81v101l147 -87zM34 350q0 79 27 144.5t75 113t112.5 73.5t139.5 26q108 0 191.5 -51.5t125.5 -147.5l-113 -33q-22 42 -54.5 68t-70.5 38t-77 12q-64 0 -114 -30.5t-77.5 -85.5t-27.5 -127t27.5 -126.5t77.5 -85.5t114 -31q40 0 79.5 12.5
t73.5 42.5t58 80l111 -31q-43 -109 -128 -163.5t-196 -54.5q-75 0 -139.5 26t-112.5 74t-75 113.5t-27 143.5z" />
    <glyph glyph-name="ccaron" unicode="&#x10d;" horiz-adv-x="549" 
d="M406 705v-88l-130 -71l-130 71v88l130 -76zM282 -7q-73 0 -128 32t-86 89.5t-31 133.5q0 77 31 135t87 91t129 33q79 0 140.5 -39t86.5 -105l-119 -34q-12 29 -39.5 46t-62.5 17t-61.5 -18t-41 -50t-14.5 -75q0 -65 32 -103t86 -38q34 0 62 16.5t42 45.5l118 -34
q-27 -65 -89.5 -104t-141.5 -39z" />
    <glyph glyph-name="Dcaron" unicode="&#x10e;" horiz-adv-x="732" 
d="M492 935v-101l-148 -81l-148 81v101l148 -87zM329 700q112 0 194.5 -43.5t128.5 -122.5t46 -186q0 -106 -46 -184t-128.5 -121t-194.5 -43h-261v700h261zM325 113q113 0 174 62.5t61 172.5q0 111 -61 175t-174 64h-122v-474h122z" />
    <glyph glyph-name="dcaron" unicode="&#x10f;" horiz-adv-x="782" 
d="M704 665q9 -29 13 -54t4 -47q0 -60 -31 -92.5t-95 -32.5v63q22 0 33 11t11 33v11h-50v108h115zM425 425l-16 -2v297h128v-720h-116l-8 62q-24 -28 -63.5 -48.5t-91.5 -20.5q-65 0 -115 32t-78 89.5t-28 135.5t28 136t78 89.5t115 31.5q59 0 101.5 -24t65.5 -58zM175 250
q0 -63 32 -101.5t84 -38.5q32 0 58.5 16.5t43 47.5t16.5 76t-16.5 76t-43 47.5t-58.5 16.5q-52 0 -84 -38.5t-32 -101.5z" />
    <glyph glyph-name="Dcroat" unicode="&#x110;" horiz-adv-x="764" 
d="M48 408h72v292h241q112 0 194.5 -43.5t128 -122.5t45.5 -186q0 -106 -45.5 -184t-128 -121t-194.5 -43h-241v289h-72v119zM256 109h101q112 -1 172.5 64t60.5 175q0 111 -60.5 175.5t-172.5 64.5h-101v-180h169v-119h-169v-180z" />
    <glyph glyph-name="dcroat" unicode="&#x111;" horiz-adv-x="666" 
d="M347 596h257v-77h-257v77zM425 425l-16 -2v297h128v-720h-116l-8 62q-24 -28 -63.5 -48.5t-91.5 -20.5q-65 0 -115 32t-78 89.5t-28 135.5t28 136t78 89.5t115 31.5q59 0 101.5 -24t65.5 -58zM175 250q0 -63 32 -101.5t84 -38.5q32 0 58.5 16.5t43 47.5t16.5 76t-16.5 76
t-43 47.5t-58.5 16.5q-52 0 -84 -38.5t-32 -101.5z" />
    <glyph glyph-name="Emacron" unicode="&#x112;" horiz-adv-x="608" 
d="M123 880h379v-97h-379v97zM560 587h-357v-178h267v-109h-267v-187h357v-113h-492v700h492v-113z" />
    <glyph glyph-name="emacron" unicode="&#x113;" horiz-adv-x="560" 
d="M118 658h332v-85h-332v85zM289 -7q-75 0 -132 33t-88.5 92t-31.5 136q0 74 31 131t86.5 89.5t126.5 32.5q72 0 127 -31t85.5 -86.5t30.5 -129.5q0 -11 -1.5 -24.5t-3.5 -28.5h-344q4 -32 20.5 -54.5t41 -35t55.5 -12.5q37 0 66.5 15.5t42.5 40.5l114 -34
q-30 -64 -89.5 -99t-136.5 -35zM384 300q-1 28 -15 50.5t-37 35t-51 12.5q-25 0 -47 -13t-37.5 -34.5t-20.5 -50.5h208z" />
    <glyph glyph-name="Ebreve" unicode="&#x114;" horiz-adv-x="608" 
d="M470 910q0 -47 -19 -81t-54.5 -52.5t-84.5 -18.5q-48 0 -83.5 18.5t-55 53t-19.5 81.5v21h73q0 -34 18 -52.5t67 -18.5t67 18.5t18 52.5h73v-22zM560 587h-357v-178h267v-109h-267v-187h357v-113h-492v700h492v-113z" />
    <glyph glyph-name="ebreve" unicode="&#x115;" horiz-adv-x="560" 
d="M423 684q0 -41 -17 -71t-48 -46t-74 -16q-42 0 -73.5 16t-48.5 46.5t-17 70.5v18h64q0 -28 16 -44.5t59 -16.5t59 16.5t16 44.5h64v-18zM289 -7q-75 0 -132 33t-88.5 92t-31.5 136q0 74 31 131t86.5 89.5t126.5 32.5q72 0 127 -31t85.5 -86.5t30.5 -129.5
q0 -11 -1.5 -24.5t-3.5 -28.5h-344q4 -32 20.5 -54.5t41 -35t55.5 -12.5q37 0 66.5 15.5t42.5 40.5l114 -34q-30 -64 -89.5 -99t-136.5 -35zM384 300q-1 28 -15 50.5t-37 35t-51 12.5q-25 0 -47 -13t-37.5 -34.5t-20.5 -50.5h208z" />
    <glyph glyph-name="Edotaccent" unicode="&#x116;" horiz-adv-x="608" 
d="M312 781q-28 0 -47 18.5t-19 45.5q0 28 19 47t47 19q27 0 46 -19t19 -47q0 -27 -19 -45.5t-46 -18.5zM560 587h-357v-178h267v-109h-267v-187h357v-113h-492v700h492v-113z" />
    <glyph glyph-name="edotaccent" unicode="&#x117;" horiz-adv-x="560" 
d="M284 570q-25 0 -41.5 16.5t-16.5 41.5q0 23 16.5 40t41.5 17q24 0 40.5 -17t16.5 -40q0 -25 -16.5 -41.5t-40.5 -16.5zM289 -7q-75 0 -132 33t-88.5 92t-31.5 136q0 74 31 131t86.5 89.5t126.5 32.5q72 0 127 -31t85.5 -86.5t30.5 -129.5q0 -11 -1.5 -24.5t-3.5 -28.5
h-344q4 -32 20.5 -54.5t41 -35t55.5 -12.5q37 0 66.5 15.5t42.5 40.5l114 -34q-30 -64 -89.5 -99t-136.5 -35zM384 300q-1 28 -15 50.5t-37 35t-51 12.5q-25 0 -47 -13t-37.5 -34.5t-20.5 -50.5h208z" />
    <glyph glyph-name="Eogonek" unicode="&#x118;" horiz-adv-x="608" 
d="M477 66l33 -66l-48 -24q-33 -18 -47 -33.5t-14 -32.5q0 -19 14 -30t37 -11q15 0 33 3.5t37 10.5v-81q-19 -7 -41 -11t-47 -4q-34 0 -66.5 11t-52 35t-19.5 64q0 27 13 52.5t43.5 50t83.5 47.5zM560 587h-357v-178h267v-109h-267v-187h357v-113h-492v700h492v-113z" />
    <glyph glyph-name="eogonek" unicode="&#x119;" horiz-adv-x="560" 
d="M340 63l28 -57l-41 -22q-30 -15 -42 -28.5t-12 -28.5q0 -17 12 -27t33 -10q27 0 61 13v-71q-17 -6 -36.5 -10t-40.5 -4q-31 0 -58.5 10t-45.5 31.5t-18 55.5q0 36 27 68.5t97 63.5zM289 -7q-75 0 -132 33t-88.5 92t-31.5 136q0 74 31 131t86.5 89.5t126.5 32.5
q72 0 127 -31t85.5 -86.5t30.5 -129.5q0 -11 -1.5 -24.5t-3.5 -28.5h-344q4 -32 20.5 -54.5t41 -35t55.5 -12.5q37 0 66.5 15.5t42.5 40.5l114 -34q-30 -64 -89.5 -99t-136.5 -35zM384 300q-1 28 -15 50.5t-37 35t-51 12.5q-25 0 -47 -13t-37.5 -34.5t-20.5 -50.5h208z" />
    <glyph glyph-name="Ecaron" unicode="&#x11a;" horiz-adv-x="608" 
d="M460 935v-101l-148 -81l-148 81v101l148 -87zM560 587h-357v-178h267v-109h-267v-187h357v-113h-492v700h492v-113z" />
    <glyph glyph-name="ecaron" unicode="&#x11b;" horiz-adv-x="560" 
d="M414 705v-88l-130 -71l-130 71v88l130 -76zM289 -7q-75 0 -132 33t-88.5 92t-31.5 136q0 74 31 131t86.5 89.5t126.5 32.5q72 0 127 -31t85.5 -86.5t30.5 -129.5q0 -11 -1.5 -24.5t-3.5 -28.5h-344q4 -32 20.5 -54.5t41 -35t55.5 -12.5q37 0 66.5 15.5t42.5 40.5l114 -34
q-30 -64 -89.5 -99t-136.5 -35zM384 300q-1 28 -15 50.5t-37 35t-51 12.5q-25 0 -47 -13t-37.5 -34.5t-20.5 -50.5h208z" />
    <glyph glyph-name="Gcircumflex" unicode="&#x11c;" horiz-adv-x="760" 
d="M585 478q-33 61 -83 87.5t-108 26.5q-63 0 -113 -31t-79.5 -85.5t-29.5 -125.5q0 -72 28.5 -126.5t79 -85t115.5 -30.5q43 0 80.5 15t66 41t46.5 61v58h-191v108h323v-183q-24 -58 -71 -107.5t-112.5 -78.5t-145.5 -29q-77 0 -141.5 26t-113 73.5t-75.5 113t-27 144.5
q0 78 27 143.5t75 113.5t113 74t141 26q70 0 133 -22.5t111 -65t74 -103.5zM530 752l-147 85l-148 -85v101l148 81l147 -81v-101z" />
    <glyph glyph-name="gcircumflex" unicode="&#x11d;" horiz-adv-x="598" 
d="M421 500h116v-426q0 -85 -42 -146.5t-121.5 -94.5t-190.5 -33l-20 108q121 2 183.5 43t62.5 118v2l17 6q-24 -35 -66 -59.5t-100 -24.5q-66 0 -116 32t-78.5 89.5t-28.5 135.5t28.5 136t78.5 89.5t116 31.5q34 0 63.5 -9.5t52 -25t37.5 -34.5zM175 250q0 -63 32 -101.5
t86 -38.5q31 0 57 16.5t42.5 48.5t16.5 75q0 45 -16.5 76t-43 47.5t-56.5 16.5q-54 0 -86 -38.5t-32 -101.5zM447 552l-147 85l-148 -85v101l148 81l147 -81v-101z" />
    <glyph glyph-name="Gbreve" unicode="&#x11e;" horiz-adv-x="760" 
d="M542 910q0 -47 -19.5 -81t-55.5 -52.5t-84 -18.5t-83.5 18.5t-55 53t-19.5 81.5v21h73q0 -34 18 -52.5t67 -18.5q48 0 66.5 18.5t18.5 52.5h74v-22zM585 478q-33 61 -83 87.5t-108 26.5q-63 0 -113 -31t-79.5 -85.5t-29.5 -125.5q0 -72 28.5 -126.5t79 -85t115.5 -30.5
q43 0 80.5 15t66 41t46.5 61v58h-191v108h323v-183q-24 -58 -71 -107.5t-112.5 -78.5t-145.5 -29q-77 0 -141.5 26t-113 73.5t-75.5 113t-27 144.5q0 78 27 143.5t75 113.5t113 74t141 26q70 0 133 -22.5t111 -65t74 -103.5z" />
    <glyph glyph-name="gbreve" unicode="&#x11f;" horiz-adv-x="598" 
d="M439 684q0 -41 -16.5 -71t-48 -46t-73.5 -16q-43 0 -74 16t-48 46.5t-17 70.5v18h64q0 -28 15.5 -44.5t59.5 -16.5q42 0 58 16.5t16 44.5h64v-18zM421 500h116v-426q0 -85 -42 -146.5t-121.5 -94.5t-190.5 -33l-20 108q121 2 183.5 43t62.5 118v2l17 6q-24 -35 -66 -59.5
t-100 -24.5q-66 0 -116 32t-78.5 89.5t-28.5 135.5t28.5 136t78.5 89.5t116 31.5q34 0 63.5 -9.5t52 -25t37.5 -34.5zM175 250q0 -63 32 -101.5t86 -38.5q31 0 57 16.5t42.5 48.5t16.5 75q0 45 -16.5 76t-43 47.5t-56.5 16.5q-54 0 -86 -38.5t-32 -101.5z" />
    <glyph glyph-name="Gdotaccent" unicode="&#x120;" horiz-adv-x="760" 
d="M382 781q-28 0 -46 18.5t-18 45.5q0 28 18 47t46 19q27 0 46.5 -19t19.5 -47q0 -27 -19.5 -45.5t-46.5 -18.5zM585 478q-33 61 -83 87.5t-108 26.5q-63 0 -113 -31t-79.5 -85.5t-29.5 -125.5q0 -72 28.5 -126.5t79 -85t115.5 -30.5q43 0 80.5 15t66 41t46.5 61v58h-191
v108h323v-183q-24 -58 -71 -107.5t-112.5 -78.5t-145.5 -29q-77 0 -141.5 26t-113 73.5t-75.5 113t-27 144.5q0 78 27 143.5t75 113.5t113 74t141 26q70 0 133 -22.5t111 -65t74 -103.5z" />
    <glyph glyph-name="gdotaccent" unicode="&#x121;" horiz-adv-x="598" 
d="M300 570q-24 0 -40.5 16.5t-16.5 41.5q0 23 16.5 40t40.5 17t40.5 -17t16.5 -40q0 -25 -16.5 -41.5t-40.5 -16.5zM421 500h116v-426q0 -85 -42 -146.5t-121.5 -94.5t-190.5 -33l-20 108q121 2 183.5 43t62.5 118v2l17 6q-24 -35 -66 -59.5t-100 -24.5q-66 0 -116 32
t-78.5 89.5t-28.5 135.5t28.5 136t78.5 89.5t116 31.5q34 0 63.5 -9.5t52 -25t37.5 -34.5zM175 250q0 -63 32 -101.5t86 -38.5q31 0 57 16.5t42.5 48.5t16.5 75q0 45 -16.5 76t-43 47.5t-56.5 16.5q-54 0 -86 -38.5t-32 -101.5z" />
    <glyph glyph-name="uni0122" unicode="&#x122;" horiz-adv-x="760" 
d="M439 -44q8 -29 12 -55.5t4 -50.5q0 -65 -30.5 -100.5t-92.5 -35.5v56q26 0 38 15t12 45v20h-57v106h114zM585 478q-33 61 -83 87.5t-108 26.5q-63 0 -113 -31t-79.5 -85.5t-29.5 -125.5q0 -72 28.5 -126.5t79 -85t115.5 -30.5q43 0 80.5 15t66 41t46.5 61v58h-191v108
h323v-183q-24 -58 -71 -107.5t-112.5 -78.5t-145.5 -29q-77 0 -141.5 26t-113 73.5t-75.5 113t-27 144.5q0 78 27 143.5t75 113.5t113 74t141 26q70 0 133 -22.5t111 -65t74 -103.5z" />
    <glyph glyph-name="uni0123" unicode="&#x123;" horiz-adv-x="598" 
d="M245 540q-8 30 -11.5 55.5t-3.5 45.5q0 60 31.5 92.5t93.5 32.5v-63q-21 0 -31.5 -10t-11.5 -31l-1 -13h49v-109h-115zM421 500h116v-426q0 -85 -42 -146.5t-121.5 -94.5t-190.5 -33l-20 108q121 2 183.5 43t62.5 118v2l17 6q-24 -35 -66 -59.5t-100 -24.5q-66 0 -116 32
t-78.5 89.5t-28.5 135.5t28.5 136t78.5 89.5t116 31.5q34 0 63.5 -9.5t52 -25t37.5 -34.5zM175 250q0 -63 32 -101.5t86 -38.5q31 0 57 16.5t42.5 48.5t16.5 75q0 45 -16.5 76t-43 47.5t-56.5 16.5q-54 0 -86 -38.5t-32 -101.5z" />
    <glyph glyph-name="Hcircumflex" unicode="&#x124;" horiz-adv-x="716" 
d="M68 700h135v-289h310v289h135v-700h-135v298h-310v-298h-135v700zM505 752l-147 85l-148 -85v101l148 81l147 -81v-101z" />
    <glyph glyph-name="hcircumflex" unicode="&#x125;" horiz-adv-x="567" 
d="M62 720h128v-269q23 25 57.5 40.5t77.5 15.5q57 0 99.5 -25t65.5 -72.5t23 -117.5v-292h-135v275q0 58 -23 87t-69 29q-47 0 -71.5 -31.5t-24.5 -89.5v-270h-128v720zM272 771l-147 85l-148 -85v101l148 81l147 -81v-101z" />
    <glyph glyph-name="Itilde" unicode="&#x128;" horiz-adv-x="271" 
d="M-42 757q10 67 43 98t80 31q28 0 47.5 -11t37 -22t37.5 -11q17 0 28.5 10t14.5 33h73q-10 -67 -43 -98t-80 -31q-28 0 -48 11t-37 22.5t-37 11.5q-16 0 -28 -11t-15 -33h-73zM68 700h135v-700h-135v700z" />
    <glyph glyph-name="itilde" unicode="&#x129;" horiz-adv-x="258" 
d="M-27 544q9 58 38 85.5t70 27.5q25 0 42.5 -10t32 -19.5t32.5 -9.5q15 0 25 9t13 29h64q-9 -59 -37.5 -86t-69.5 -27q-25 0 -42.5 10t-32.5 19.5t-32 9.5q-15 0 -25.5 -9t-13.5 -29h-64zM62 500h135v-500h-135v500z" />
    <glyph glyph-name="Imacron" unicode="&#x12a;" horiz-adv-x="271" 
d="M-54 880h379v-97h-379v97zM68 700h135v-700h-135v700z" />
    <glyph glyph-name="imacron" unicode="&#x12b;" horiz-adv-x="258" 
d="M-37 652h332v-85h-332v85zM62 500h135v-500h-135v500z" />
    <glyph glyph-name="Ibreve" unicode="&#x12c;" horiz-adv-x="271" 
d="M294 910q0 -47 -19.5 -81t-54.5 -52.5t-84 -18.5t-84 18.5t-54.5 53t-19.5 81.5v21h73q0 -34 18 -52.5t67 -18.5t67 18.5t18 52.5h73v-22zM68 700h135v-700h-135v700z" />
    <glyph glyph-name="ibreve" unicode="&#x12d;" horiz-adv-x="258" 
d="M268 678q0 -41 -17 -71t-48 -46t-73 -16q-43 0 -74 16t-48 46.5t-17 70.5v18h64q0 -29 15.5 -45.5t59.5 -16.5q42 0 58 16.5t16 45.5h64v-18zM62 500h135v-500h-135v500z" />
    <glyph glyph-name="Iogonek" unicode="&#x12e;" horiz-adv-x="271" 
d="M171 66l32 -65l-47 -24q-34 -18 -47.5 -33.5t-13.5 -32.5q0 -19 13.5 -30t37.5 -11q14 0 32.5 3.5t37.5 10.5v-81q-19 -7 -41.5 -11.5t-46.5 -4.5q-35 0 -67 11t-52 35.5t-20 64.5q0 27 13 52.5t44 50t84 47.5zM68 700h135v-700h-135v700z" />
    <glyph glyph-name="iogonek" unicode="&#x12f;" horiz-adv-x="285" 
d="M173 65l28 -57l-42 -22q-30 -15 -41.5 -28.5t-11.5 -28.5q0 -17 11.5 -27t32.5 -10q28 0 62 13v-71q-17 -6 -36.5 -10t-40.5 -4q-31 0 -59 10t-45.5 31.5t-17.5 55.5q0 36 27 68.5t96 63.5zM79 500h128v-500h-128v500zM144 564q-36 0 -59 22.5t-23 55.5t23 55.5t59 22.5
q34 0 57.5 -22.5t23.5 -55.5t-23.5 -55.5t-57.5 -22.5z" />
    <glyph glyph-name="Idotaccent" unicode="&#x130;" horiz-adv-x="271" 
d="M135 781q-27 0 -46 18.5t-19 45.5q0 28 19 47t46 19t46 -19t19 -47q0 -27 -19 -45.5t-46 -18.5zM68 700h135v-700h-135v700z" />
    <glyph glyph-name="dotlessi" unicode="&#x131;" horiz-adv-x="258" 
d="M62 500h135v-500h-135v500z" />
    <glyph glyph-name="Jcircumflex" unicode="&#x134;" horiz-adv-x="536" 
d="M336 700h135v-491q0 -67 -28 -115.5t-77.5 -74.5t-112.5 -26q-80 0 -134 38.5t-74 111.5l119 31q6 -21 17.5 -36.5t29.5 -23.5t40 -8q26 0 45 12.5t29.5 34.5t10.5 49v498zM554 752l-147 85l-148 -85v101l148 81l147 -81v-101z" />
    <glyph glyph-name="jcircumflex" unicode="&#x135;" horiz-adv-x="348" 
d="M75 38q0 -53 -30 -87.5t-84 -39.5l19 -111q42 1 83.5 15.5t74 43.5t52.5 73t20 105v463h-135v-462zM290 562l-147 84l-148 -84v100l148 81l147 -81v-100z" />
    <glyph glyph-name="uni0136" unicode="&#x136;" horiz-adv-x="673" 
d="M387 -44q9 -29 13 -55.5t4 -50.5q0 -65 -30.5 -100.5t-92.5 -35.5v56q25 0 37 15t12 45v20h-56v106h113zM68 700h135v-289h41l246 289h165l-290 -344l298 -356h-173l-246 298h-41v-298h-135v700z" />
    <glyph glyph-name="uni0137" unicode="&#x137;" horiz-adv-x="568" 
d="M318 -31q8 -29 12 -54t4 -46q0 -60 -31 -93t-94 -33v63q17 0 27 6t14 19q1 4 1.5 7.5t1.5 7.5v16h-50v107h115zM62 720h129v-415h32l165 195h168l-221 -248l222 -252h-168l-167 198h-31v-198h-129v720z" />
    <glyph glyph-name="Lacute" unicode="&#x139;" horiz-adv-x="537" 
d="M330 968v-111l-228 -105v97zM203 700v-587h312v-113h-447v700h135z" />
    <glyph glyph-name="lacute" unicode="&#x13a;" horiz-adv-x="251" 
d="M224 954v-96l-201 -92v84zM62 720h128v-720h-128v720z" />
    <glyph glyph-name="uni013B" unicode="&#x13b;" horiz-adv-x="537" 
d="M310 -44q9 -29 12.5 -55.5t3.5 -50.5q0 -65 -30.5 -100.5t-92.5 -35.5v56q26 0 38 15t12 45v20h-56v106h113zM203 700v-587h312v-113h-447v700h135z" />
    <glyph glyph-name="uni013C" unicode="&#x13c;" horiz-adv-x="263" 
d="M185 -31q8 -29 12 -54t4 -46q0 -60 -31.5 -93t-93.5 -33v63q22 0 33 12t11 34v13l-50 -3v107h115zM62 720h128v-720h-128v720z" />
    <glyph glyph-name="Lcaron" unicode="&#x13d;" horiz-adv-x="537" 
d="M425 700q9 -29 12.5 -55.5t3.5 -50.5q0 -64 -30 -100t-92 -36v56q25 0 37 15t12 46v19h-57v106h114zM203 700v-587h312v-113h-447v700h135z" />
    <glyph glyph-name="lcaron" unicode="&#x13e;" horiz-adv-x="438" 
d="M360 720q8 -30 12 -54.5t4 -46.5q0 -59 -31.5 -92t-93.5 -33v63q22 0 32.5 11.5t10.5 33.5v13l-49 -3v108h115zM62 720h128v-720h-128v720z" />
    <glyph glyph-name="Ldot" unicode="&#x13f;" horiz-adv-x="458" 
d="M68 0v700h136v-593h231v-107h-367zM363 318q-28 0 -46.5 19t-18.5 46q0 28 18.5 47t46.5 19q27 0 46 -19t19 -47q0 -27 -19 -46t-46 -19z" />
    <glyph glyph-name="ldot" unicode="&#x140;" horiz-adv-x="319" 
d="M62 0v720h135v-720h-135zM284 263q-28 0 -47 19t-19 46q0 26 19 45t47 19q27 0 46.5 -19t19.5 -45q0 -28 -19.5 -46.5t-46.5 -18.5z" />
    <glyph glyph-name="Lslash" unicode="&#x141;" horiz-adv-x="530" 
d="M68 371l73 23v306h136v-263l89 28v-109l-89 -28v-225h230v-103h-366v286l-73 -23v108z" />
    <glyph glyph-name="lslash" unicode="&#x142;" horiz-adv-x="265" 
d="M6 342l252 82v-111l-252 -82v111zM64 720h135v-720h-135v720z" />
    <glyph glyph-name="Nacute" unicode="&#x143;" horiz-adv-x="715" 
d="M478 968v-111l-228 -105v97zM647 700v-700h-138l-306 486v-486h-135v700h137l307 -486v486h135z" />
    <glyph glyph-name="nacute" unicode="&#x144;" horiz-adv-x="561" 
d="M398 734v-96l-201 -92v84zM62 500h116l9 -51q24 27 58.5 42.5t74.5 15.5q59 0 100.5 -25t64 -72.5t22.5 -117.5v-292h-129v275q0 58 -23 87t-69 29q-47 0 -71.5 -29.5t-24.5 -87.5v-274h-128v500z" />
    <glyph glyph-name="uni0145" unicode="&#x145;" horiz-adv-x="715" 
d="M425 -44q9 -29 13 -55.5t4 -50.5q0 -65 -30.5 -100.5t-92.5 -35.5v56q25 0 37 15t12 45v20h-56v106h113zM647 700v-700h-138l-306 486v-486h-135v700h137l307 -486v486h135z" />
    <glyph glyph-name="uni0146" unicode="&#x146;" horiz-adv-x="561" 
d="M357 -31q9 -29 12.5 -54t3.5 -46q0 -60 -31 -93t-94 -33v63q22 0 33 11.5t11 34.5v17h17v-7h-67v107h115zM62 500h116l9 -51q24 27 58.5 42.5t74.5 15.5q59 0 100.5 -25t64 -72.5t22.5 -117.5v-292h-129v275q0 58 -23 87t-69 29q-47 0 -71.5 -29.5t-24.5 -87.5v-274h-128
v500z" />
    <glyph glyph-name="Ncaron" unicode="&#x147;" horiz-adv-x="715" 
d="M518 935v-101l-148 -81l-147 81v101l147 -87zM647 700v-700h-138l-306 486v-486h-135v700h137l307 -486v486h135z" />
    <glyph glyph-name="ncaron" unicode="&#x148;" horiz-adv-x="561" 
d="M433 705v-88l-130 -71l-130 71v88l130 -76zM62 500h116l9 -51q24 27 58.5 42.5t74.5 15.5q59 0 100.5 -25t64 -72.5t22.5 -117.5v-292h-129v275q0 58 -23 87t-69 29q-47 0 -71.5 -29.5t-24.5 -87.5v-274h-128v500z" />
    <glyph glyph-name="Eng" unicode="&#x14a;" horiz-adv-x="715" 
d="M647 700v-700h-138l-306 486v-486h-135v700h137l307 -486v486h135zM509 110h138v-113q0 -49 -19 -86t-51.5 -61t-72.5 -36.5t-83 -13.5l-20 111q55 5 81.5 30t26.5 56v113z" />
    <glyph glyph-name="eng" unicode="&#x14b;" horiz-adv-x="575" 
d="M62 500h123l8 -51q25 27 59.5 42.5t74.5 15.5q59 0 102 -25t67 -72.5t24 -117.5v-292h-135v275q0 58 -23 87t-69 29q-47 0 -71.5 -29.5t-24.5 -87.5v-274h-135v500zM385 -2v90h135v-90q0 -62 -27.5 -106t-73 -67t-101.5 -25l-20 111q34 4 53 17t26.5 32.5t7.5 37.5z" />
    <glyph glyph-name="Omacron" unicode="&#x14c;" 
d="M202 880h379v-97h-379v97zM391 -7q-74 0 -139 26t-113.5 73.5t-76.5 113t-28 144.5t28 144t76.5 113t113.5 74t139 26q75 0 139.5 -26t113.5 -74t76.5 -113t27.5 -144t-27.5 -144.5t-76.5 -113t-113.5 -73.5t-139.5 -26zM392 108q63 0 112.5 30.5t78 84.5t28.5 127
t-28.5 127t-78 84.5t-112.5 30.5q-65 0 -114.5 -30.5t-77.5 -84.5t-28 -127q0 -72 28 -127t77.5 -85t114.5 -30z" />
    <glyph glyph-name="omacron" unicode="&#x14d;" horiz-adv-x="584" 
d="M133 658h332v-85h-332v85zM289 -7q-73 0 -130 31.5t-89.5 89t-32.5 135.5q0 79 33.5 137t91.5 89.5t130 31.5t130 -31.5t92 -89t34 -135.5q0 -79 -34.5 -137t-93 -89.5t-131.5 -31.5zM288 108q31 0 59 15.5t46 47t18 80.5q0 47 -17 78.5t-44.5 47t-59.5 15.5
q-31 0 -57.5 -15.5t-42 -47t-15.5 -80.5q0 -47 15 -78.5t41 -47t57 -15.5z" />
    <glyph glyph-name="Obreve" unicode="&#x14e;" 
d="M550 910q0 -47 -19.5 -81t-55.5 -52.5t-84 -18.5t-83.5 18.5t-54.5 53t-19 81.5v21h72q0 -34 18 -52.5t67 -18.5q48 0 66.5 18.5t18.5 52.5h74v-22zM391 -7q-74 0 -139 26t-113.5 73.5t-76.5 113t-28 144.5t28 144t76.5 113t113.5 74t139 26q75 0 139.5 -26t113.5 -74
t76.5 -113t27.5 -144t-27.5 -144.5t-76.5 -113t-113.5 -73.5t-139.5 -26zM392 108q63 0 112.5 30.5t78 84.5t28.5 127t-28.5 127t-78 84.5t-112.5 30.5q-65 0 -114.5 -30.5t-77.5 -84.5t-28 -127q0 -72 28 -127t77.5 -85t114.5 -30z" />
    <glyph glyph-name="obreve" unicode="&#x14f;" horiz-adv-x="584" 
d="M438 684q0 -41 -17 -71t-48 -46t-74 -16q-42 0 -73 16t-48 46.5t-17 70.5v18h64q0 -29 15.5 -45t58.5 -16t59 16t16 45h64v-18zM289 -7q-73 0 -130 31.5t-89.5 89t-32.5 135.5q0 79 33.5 137t91.5 89.5t130 31.5t130 -31.5t92 -89t34 -135.5q0 -79 -34.5 -137t-93 -89.5
t-131.5 -31.5zM288 108q31 0 59 15.5t46 47t18 80.5q0 47 -17 78.5t-44.5 47t-59.5 15.5q-31 0 -57.5 -15.5t-42 -47t-15.5 -80.5q0 -47 15 -78.5t41 -47t57 -15.5z" />
    <glyph glyph-name="Ohungarumlaut" unicode="&#x150;" 
d="M434 947l-98 -186h-86l71 186h113zM617 947l-108 -186h-86l81 186h113zM391 -7q-74 0 -138.5 26t-113.5 73.5t-77 113t-28 144.5q0 78 28 143.5t77 113.5t113.5 74t138.5 26q75 0 139.5 -26t113.5 -74t76.5 -113.5t27.5 -143.5q0 -79 -27.5 -144.5t-76.5 -113
t-113.5 -73.5t-139.5 -26zM391 108q64 0 113.5 30.5t78 85t28.5 126.5q0 73 -28.5 127t-78 84.5t-113.5 30.5t-113.5 -30.5t-77.5 -84.5t-28 -127q0 -72 28 -126.5t77.5 -85t113.5 -30.5z" />
    <glyph glyph-name="ohungarumlaut" unicode="&#x151;" horiz-adv-x="584" 
d="M337 716l-87 -163h-74l62 163h99zM497 716l-95 -163h-75l71 163h99zM289 -7q-73 0 -130 31.5t-89.5 89t-32.5 135.5q0 79 33.5 137t91.5 89.5t130 31.5t130 -31.5t92 -89t34 -135.5q0 -79 -34.5 -137t-93 -89.5t-131.5 -31.5zM288 108q31 0 59 15.5t46 47t18 80.5
q0 47 -17 78.5t-44.5 47t-59.5 15.5q-31 0 -57.5 -15.5t-42 -47t-15.5 -80.5q0 -47 15 -78.5t41 -47t57 -15.5z" />
    <glyph glyph-name="OE" unicode="&#x152;" horiz-adv-x="1152" 
d="M391 -7q-74 0 -139 26t-113.5 73.5t-76.5 113t-28 144.5t28 144t76.5 113t113.5 74t139 26q75 0 139.5 -26t113.5 -74t76.5 -113t27.5 -144t-27.5 -144.5t-76.5 -113t-113.5 -73.5t-139.5 -26zM392 108q63 0 112.5 30.5t78 84.5t28.5 127t-28.5 127t-78 84.5t-112.5 30.5
q-65 0 -114.5 -30.5t-77.5 -84.5t-28 -127q0 -72 28 -127t77.5 -85t114.5 -30zM1105 587h-357v-178h267v-109h-267v-187h357v-113h-492v700h492v-113z" />
    <glyph glyph-name="oe" unicode="&#x153;" horiz-adv-x="935" 
d="M289 -7q-73 0 -130 31.5t-89.5 89t-32.5 135.5q0 79 33.5 137t91.5 89.5t130 31.5t130 -31.5t92 -89t34 -135.5q0 -79 -34.5 -137t-93 -89.5t-131.5 -31.5zM288 108q31 0 59 15.5t46 47t18 80.5q0 47 -17 78.5t-44.5 47t-59.5 15.5q-31 0 -57.5 -15.5t-42 -47
t-15.5 -80.5q0 -47 15 -78.5t41 -47t57 -15.5zM664 -7q-75 0 -132 33t-88.5 92t-31.5 136q0 74 31 131t86.5 89.5t126.5 32.5q72 0 127 -31t85.5 -86.5t30.5 -129.5q0 -11 -1.5 -24.5t-3.5 -28.5h-344q4 -32 20.5 -54.5t41 -35t55.5 -12.5q37 0 66.5 15.5t42.5 40.5l114 -34
q-30 -64 -89.5 -99t-136.5 -35zM759 300q-1 28 -15 50.5t-37 35t-51 12.5q-25 0 -47 -13t-37.5 -34.5t-20.5 -50.5h208z" />
    <glyph glyph-name="Racute" unicode="&#x154;" horiz-adv-x="656" 
d="M430 968v-111l-228 -105v97zM469 484q0 47 -28.5 75t-88.5 28h-149v-207h149q40 0 66 12.5t38.5 36t12.5 55.5zM356 700q85 0 140.5 -29.5t83 -79t27.5 -107.5q0 -39 -14 -77.5t-44 -70t-77.5 -50.5t-115.5 -19h-153v-267h-135v700h288zM432 312l189 -312h-151l-181 312
h143z" />
    <glyph glyph-name="racute" unicode="&#x155;" horiz-adv-x="380" 
d="M313 734v-96l-201 -92v84zM62 500h116l9 -64q21 26 47.5 42.5t58.5 23t67 -1.5v-120q-27 9 -56.5 5t-55 -21t-42 -48.5t-16.5 -79.5v-236h-128v500z" />
    <glyph glyph-name="uni0156" unicode="&#x156;" horiz-adv-x="656" 
d="M411 -44q9 -29 12.5 -55.5t3.5 -50.5q0 -65 -30.5 -100.5t-92.5 -35.5v56q26 0 38 15t12 45v20h-57v106h114zM469 484q0 47 -28.5 75t-88.5 28h-149v-207h149q40 0 66 12.5t38.5 36t12.5 55.5zM356 700q85 0 140.5 -29.5t83 -79t27.5 -107.5q0 -39 -14 -77.5t-44 -70
t-77.5 -50.5t-115.5 -19h-153v-267h-135v700h288zM432 312l189 -312h-151l-181 312h143z" />
    <glyph glyph-name="uni0157" unicode="&#x157;" horiz-adv-x="380" 
d="M190 -31q9 -29 13 -54t4 -46q0 -60 -31 -93t-94 -33v63q22 0 32.5 11.5t10.5 34.5v13l-49 -3v107h114zM62 500h116l9 -64q21 26 47.5 42.5t58.5 23t67 -1.5v-120q-27 9 -56.5 5t-55 -21t-42 -48.5t-16.5 -79.5v-236h-128v500z" />
    <glyph glyph-name="Rcaron" unicode="&#x158;" horiz-adv-x="656" 
d="M470 935v-101l-148 -81l-148 81v101l148 -87zM469 484q0 47 -28.5 75t-88.5 28h-149v-207h149q40 0 66 12.5t38.5 36t12.5 55.5zM356 700q85 0 140.5 -29.5t83 -79t27.5 -107.5q0 -39 -14 -77.5t-44 -70t-77.5 -50.5t-115.5 -19h-153v-267h-135v700h288zM432 312
l189 -312h-151l-181 312h143z" />
    <glyph glyph-name="rcaron" unicode="&#x159;" horiz-adv-x="380" 
d="M348 705v-88l-130 -71l-129 71v88l129 -76zM62 500h116l9 -64q21 26 47.5 42.5t58.5 23t67 -1.5v-120q-27 9 -56.5 5t-55 -21t-42 -48.5t-16.5 -79.5v-236h-128v500z" />
    <glyph glyph-name="Sacute" unicode="&#x15a;" horiz-adv-x="592" 
d="M406 968v-111l-229 -105v97zM166 198q5 -28 22 -49t44.5 -32.5t64.5 -11.5q58 0 87 26.5t29 64.5q0 30 -18 50t-50.5 34t-75.5 27q-40 12 -79 26t-71 35t-50.5 54.5t-18.5 84.5q0 64 31.5 109t86.5 68t127 23q61 0 110 -17.5t82.5 -51t49.5 -82.5l-125 -34q-5 22 -22 38
t-41 25.5t-52 9.5q-30 1 -55 -9t-40 -29t-15 -44q0 -28 17 -44.5t45 -28t63 -22.5q42 -12 84 -27.5t77 -39t56.5 -59.5t21.5 -91q0 -58 -27.5 -105t-82.5 -75t-138 -28q-68 0 -123.5 20t-91.5 58.5t-47 91.5z" />
    <glyph glyph-name="sacute" unicode="&#x15b;" horiz-adv-x="488" 
d="M340 734v-96l-201 -92v84zM152 163q6 -25 20.5 -38t33 -18.5t37.5 -5.5q35 0 55 13.5t20 34.5q0 18 -14 28.5t-36 16t-45 11.5q-27 7 -57.5 15.5t-57.5 24.5t-45 41.5t-18 64.5q0 46 25.5 81t71 55t105.5 20q71 0 120 -30t71 -86l-113 -32q-5 14 -17 23t-28.5 13t-33.5 4
q-29 0 -48 -11.5t-19 -31.5q0 -12 7 -19.5t19.5 -12.5t29 -9t36.5 -9q31 -8 62.5 -18.5t58 -26.5t42.5 -43t18 -68q0 -44 -25 -79.5t-72 -56.5t-114 -21q-78 0 -132.5 33t-71.5 103z" />
    <glyph glyph-name="Scircumflex" unicode="&#x15c;" horiz-adv-x="592" 
d="M166 198q5 -28 22 -49t44.5 -32.5t64.5 -11.5q58 0 87 26.5t29 64.5q0 30 -18 50t-50.5 34t-75.5 27q-40 12 -79 26t-71 35t-50.5 54.5t-18.5 84.5q0 64 31.5 109t86.5 68t127 23q61 0 110 -17.5t82.5 -51t49.5 -82.5l-125 -34q-5 22 -22 38t-41 25.5t-52 9.5
q-30 1 -55 -9t-40 -29t-15 -44q0 -28 17 -44.5t45 -28t63 -22.5q42 -12 84 -27.5t77 -39t56.5 -59.5t21.5 -91q0 -58 -27.5 -105t-82.5 -75t-138 -28q-68 0 -123.5 20t-91.5 58.5t-47 91.5zM445 752l-147 85l-148 -85v101l148 81l147 -81v-101z" />
    <glyph glyph-name="scircumflex" unicode="&#x15d;" horiz-adv-x="488" 
d="M152 163q6 -25 20.5 -38t33 -18.5t37.5 -5.5q35 0 55 13.5t20 34.5q0 18 -14 28.5t-36 16t-45 11.5q-27 7 -57.5 15.5t-57.5 24.5t-45 41.5t-18 64.5q0 46 25.5 81t71 55t105.5 20q71 0 120 -30t71 -86l-113 -32q-5 14 -17 23t-28.5 13t-33.5 4q-29 0 -48 -11.5
t-19 -31.5q0 -12 7 -19.5t19.5 -12.5t29 -9t36.5 -9q31 -8 62.5 -18.5t58 -26.5t42.5 -43t18 -68q0 -44 -25 -79.5t-72 -56.5t-114 -21q-78 0 -132.5 33t-71.5 103zM392 552l-147 85l-148 -85v101l148 81l147 -81v-101z" />
    <glyph glyph-name="Scedilla" unicode="&#x15e;" horiz-adv-x="592" 
d="M349 -50q35 0 64.5 -12t47.5 -36t18 -61t-18.5 -61.5t-48 -37.5t-64.5 -13h-141v80h118q23 0 36 6.5t13 26.5t-13 26.5t-36 6.5h-62v125h86v-50zM166 198q5 -28 22 -49t44.5 -32.5t64.5 -11.5q58 0 87 26.5t29 64.5q0 30 -18 50t-50.5 34t-75.5 27q-40 12 -79 26t-71 35
t-50.5 54.5t-18.5 84.5q0 64 31.5 109t86.5 68t127 23q61 0 110 -17.5t82.5 -51t49.5 -82.5l-125 -34q-5 22 -22 38t-41 25.5t-52 9.5q-30 1 -55 -9t-40 -29t-15 -44q0 -28 17 -44.5t45 -28t63 -22.5q42 -12 84 -27.5t77 -39t56.5 -59.5t21.5 -91q0 -58 -27.5 -105
t-82.5 -75t-138 -28q-68 0 -123.5 20t-91.5 58.5t-47 91.5z" />
    <glyph glyph-name="scedilla" unicode="&#x15f;" horiz-adv-x="488" 
d="M287 -33q30 0 56 -10t42 -31t16 -54q0 -32 -16 -54t-42.5 -33t-56.5 -11h-124v70h103q21 0 32.5 6t11.5 23q0 18 -11.5 23.5t-32.5 5.5h-54v110h76v-45zM152 163q6 -25 20.5 -38t33 -18.5t37.5 -5.5q35 0 55 13.5t20 34.5q0 18 -14 28.5t-36 16t-45 11.5
q-27 7 -57.5 15.5t-57.5 24.5t-45 41.5t-18 64.5q0 46 25.5 81t71 55t105.5 20q71 0 120 -30t71 -86l-113 -32q-5 14 -17 23t-28.5 13t-33.5 4q-29 0 -48 -11.5t-19 -31.5q0 -12 7 -19.5t19.5 -12.5t29 -9t36.5 -9q31 -8 62.5 -18.5t58 -26.5t42.5 -43t18 -68
q0 -44 -25 -79.5t-72 -56.5t-114 -21q-78 0 -132.5 33t-71.5 103z" />
    <glyph glyph-name="Scaron" unicode="&#x160;" horiz-adv-x="592" 
d="M445 935v-101l-147 -81l-148 81v101l148 -87zM166 198q5 -28 22 -49t44.5 -32.5t64.5 -11.5q58 0 87 26.5t29 64.5q0 30 -18 50t-50.5 34t-75.5 27q-40 12 -79 26t-71 35t-50.5 54.5t-18.5 84.5q0 64 31.5 109t86.5 68t127 23q61 0 110 -17.5t82.5 -51t49.5 -82.5
l-125 -34q-5 22 -22 38t-41 25.5t-52 9.5q-30 1 -55 -9t-40 -29t-15 -44q0 -28 17 -44.5t45 -28t63 -22.5q42 -12 84 -27.5t77 -39t56.5 -59.5t21.5 -91q0 -58 -27.5 -105t-82.5 -75t-138 -28q-68 0 -123.5 20t-91.5 58.5t-47 91.5z" />
    <glyph glyph-name="scaron" unicode="&#x161;" horiz-adv-x="488" 
d="M375 705v-88l-129 -71l-130 71v88l130 -76zM152 163q6 -25 20.5 -38t33 -18.5t37.5 -5.5q35 0 55 13.5t20 34.5q0 18 -14 28.5t-36 16t-45 11.5q-27 7 -57.5 15.5t-57.5 24.5t-45 41.5t-18 64.5q0 46 25.5 81t71 55t105.5 20q71 0 120 -30t71 -86l-113 -32q-5 14 -17 23
t-28.5 13t-33.5 4q-29 0 -48 -11.5t-19 -31.5q0 -12 7 -19.5t19.5 -12.5t29 -9t36.5 -9q31 -8 62.5 -18.5t58 -26.5t42.5 -43t18 -68q0 -44 -25 -79.5t-72 -56.5t-114 -21q-78 0 -132.5 33t-71.5 103z" />
    <glyph glyph-name="uni0162" unicode="&#x162;" horiz-adv-x="635" 
d="M364 -45q34 0 63.5 -11.5t48 -35.5t18.5 -62q0 -36 -18.5 -61t-48.5 -37.5t-65 -12.5h-140v80h117q23 0 36.5 6.5t13.5 26.5t-13.5 26.5t-36.5 6.5h-61v125h86v-51zM34 700h568v-113h-216v-587h-135v587h-217v113z" />
    <glyph glyph-name="uni0163" unicode="&#x163;" horiz-adv-x="380" 
d="M85 621h137v-467q0 -22 9.5 -31t34.5 -9h67v-114h-87q-48 0 -84.5 15t-56.5 49t-20 91v466zM27 389v112h305v-112h-305zM237 -35l-13 6q33 0 62.5 -11t47 -34t17.5 -57q0 -35 -17 -58.5t-45.5 -35.5t-61.5 -12h-132v85h112q20 0 31 4.5t11 17.5q0 12 -11 16.5t-31 4.5
h-62v179h92v-105z" />
    <glyph glyph-name="Tcaron" unicode="&#x164;" horiz-adv-x="635" 
d="M465 935v-101l-148 -81l-147 81v101l147 -87zM34 700h568v-113h-216v-587h-135v587h-217v113z" />
    <glyph glyph-name="tcaron" unicode="&#x165;" horiz-adv-x="425" 
d="M381 721q9 -29 13 -49.5t4 -42.5q0 -52 -31.5 -80t-93.5 -28v64q22 0 32.5 5t10.5 17v9h-49v105h114zM98 500v140h130v-140h110v-113h-110v-203q0 -39 16.5 -55t42 -17t51.5 3v-110q-46 -10 -89.5 -6t-77.5 23.5t-53.5 59.5t-19.5 102v203h-71v113h71z" />
    <glyph glyph-name="Utilde" unicode="&#x168;" horiz-adv-x="709" 
d="M175 757q11 67 43.5 98t79.5 31q28 0 48 -11t37 -22t37 -11q17 0 28.5 10t14.5 33h73q-10 -67 -42.5 -98t-80.5 -31q-28 0 -47.5 11t-37 22.5t-37.5 11.5q-16 0 -28 -11t-15 -33h-73zM64 700h135v-442q0 -49 20 -82.5t54.5 -50.5t79.5 -17q46 0 81 17t55 50.5t20 82.5
v442h135v-435q0 -69 -24 -120t-65.5 -85t-94 -50.5t-109.5 -16.5q-76 0 -141.5 30t-105.5 90t-40 152v435z" />
    <glyph glyph-name="utilde" unicode="&#x169;" horiz-adv-x="562" 
d="M117 550q8 58 37 85.5t71 27.5q24 0 41.5 -10t32.5 -19.5t32 -9.5q15 0 25 9t13 29h64q-9 -59 -37.5 -86t-69.5 -27q-25 0 -42.5 10t-32 19.5t-32.5 9.5q-15 0 -25.5 -9t-12.5 -29h-64zM501 0h-117l-9 52q-24 -28 -58.5 -43.5t-73.5 -15.5q-58 0 -100 25t-65 72.5
t-23 117.5v292h129v-276q0 -57 22.5 -86.5t69.5 -29.5q46 0 71.5 30t25.5 87v275h128v-500z" />
    <glyph glyph-name="Umacron" unicode="&#x16a;" horiz-adv-x="709" 
d="M163 880h379v-97h-379v97zM64 700h135v-442q0 -49 20 -82.5t54.5 -50.5t79.5 -17q46 0 81 17t55 50.5t20 82.5v442h135v-435q0 -69 -24 -120t-65.5 -85t-94 -50.5t-109.5 -16.5q-76 0 -141.5 30t-105.5 90t-40 152v435z" />
    <glyph glyph-name="umacron" unicode="&#x16b;" horiz-adv-x="562" 
d="M106 658h333v-85h-333v85zM501 0h-117l-9 52q-24 -28 -58.5 -43.5t-73.5 -15.5q-58 0 -100 25t-65 72.5t-23 117.5v292h129v-276q0 -57 22.5 -86.5t69.5 -29.5q46 0 71.5 30t25.5 87v275h128v-500z" />
    <glyph glyph-name="Ubreve" unicode="&#x16c;" horiz-adv-x="709" 
d="M511 910q0 -47 -19.5 -81t-54.5 -52.5t-84 -18.5q-48 0 -83.5 18.5t-55 53t-19.5 81.5v21h73q0 -34 18.5 -52.5t66.5 -18.5q49 0 67 18.5t18 52.5h73v-22zM64 700h135v-442q0 -49 20 -82.5t54.5 -50.5t79.5 -17q46 0 81 17t55 50.5t20 82.5v442h135v-435q0 -69 -24 -120
t-65.5 -85t-94 -50.5t-109.5 -16.5q-76 0 -141.5 30t-105.5 90t-40 152v435z" />
    <glyph glyph-name="ubreve" unicode="&#x16d;" horiz-adv-x="562" 
d="M411 684q0 -41 -17 -71t-48 -46t-73 -16q-43 0 -74 16t-48 46.5t-17 70.5v18h64q0 -28 16 -44.5t59 -16.5q42 0 58 16.5t16 44.5h64v-18zM501 0h-117l-9 52q-24 -28 -58.5 -43.5t-73.5 -15.5q-58 0 -100 25t-65 72.5t-23 117.5v292h129v-276q0 -57 22.5 -86.5t69.5 -29.5
q46 0 71.5 30t25.5 87v275h128v-500z" />
    <glyph glyph-name="Uring" unicode="&#x16e;" horiz-adv-x="709" 
d="M469 856q0 -52 -33.5 -82.5t-82.5 -30.5q-47 0 -82 30.5t-35 82.5q0 54 35 84.5t82 30.5q49 0 82.5 -30.5t33.5 -84.5zM401 857q0 23 -14 36.5t-34 13.5q-19 0 -33.5 -13.5t-14.5 -36.5q0 -22 14.5 -36t33.5 -14q20 0 34 14t14 36zM64 700h135v-442q0 -49 20 -82.5
t54.5 -50.5t79.5 -17q46 0 81 17t55 50.5t20 82.5v442h135v-435q0 -69 -24 -120t-65.5 -85t-94 -50.5t-109.5 -16.5q-76 0 -141.5 30t-105.5 90t-40 152v435z" />
    <glyph glyph-name="uring" unicode="&#x16f;" horiz-adv-x="562" 
d="M375 637q0 -46 -30 -73t-72 -27t-72.5 27t-30.5 73q0 47 30.5 74t72.5 27t72 -27t30 -74zM315 638q0 20 -12.5 32t-29.5 12q-18 0 -30 -12t-12 -32t12 -32t30 -12q17 0 29.5 12t12.5 32zM501 0h-117l-9 52q-24 -28 -58.5 -43.5t-73.5 -15.5q-58 0 -100 25t-65 72.5
t-23 117.5v292h129v-276q0 -57 22.5 -86.5t69.5 -29.5q46 0 71.5 30t25.5 87v275h128v-500z" />
    <glyph glyph-name="Uhungarumlaut" unicode="&#x170;" horiz-adv-x="709" 
d="M396 947l-98 -186h-86l71 186h113zM578 947l-108 -186h-86l81 186h113zM64 700h135v-442q0 -49 20 -82.5t54.5 -50.5t79.5 -17q46 0 81 17t55 50.5t20 82.5v442h135v-435q0 -69 -24 -120t-65.5 -85t-94 -50.5t-109.5 -16.5q-76 0 -141.5 30t-105.5 90t-40 152v435z" />
    <glyph glyph-name="uhungarumlaut" unicode="&#x171;" horiz-adv-x="562" 
d="M310 716l-86 -163h-75l62 163h99zM470 716l-94 -163h-76l71 163h99zM501 0h-117l-9 52q-24 -28 -58.5 -43.5t-73.5 -15.5q-58 0 -100 25t-65 72.5t-23 117.5v292h129v-276q0 -57 22.5 -86.5t69.5 -29.5q46 0 71.5 30t25.5 87v275h128v-500z" />
    <glyph glyph-name="Uogonek" unicode="&#x172;" horiz-adv-x="709" 
d="M397 66l32 -65l-47 -25q-34 -17 -47.5 -32.5t-13.5 -33.5t13.5 -29.5t37.5 -11.5q15 0 33 3.5t36 11.5v-82q-18 -7 -40.5 -11t-46.5 -4q-35 0 -67 11t-52 35.5t-20 63.5q0 27 13.5 53t43.5 50.5t84 47.5zM64 700h135v-442q0 -49 20 -82.5t54.5 -50.5t79.5 -17q46 0 81 17
t55 50.5t20 82.5v442h135v-435q0 -69 -24 -120t-65.5 -85t-94 -50.5t-109.5 -16.5q-76 0 -141.5 30t-105.5 90t-40 152v435z" />
    <glyph glyph-name="uogonek" unicode="&#x173;" horiz-adv-x="562" 
d="M472 63l28 -57l-42 -22q-30 -15 -41.5 -28.5t-11.5 -28.5q0 -17 12 -27t33 -10q27 0 61 13v-71q-16 -6 -36 -10t-41 -4q-31 0 -59 10t-45 31.5t-17 55.5q0 36 26.5 68.5t96.5 63.5zM501 0h-117l-9 52q-24 -28 -58.5 -43.5t-73.5 -15.5q-58 0 -100 25t-65 72.5t-23 117.5
v292h129v-276q0 -57 22.5 -86.5t69.5 -29.5q46 0 71.5 30t25.5 87v275h128v-500z" />
    <glyph glyph-name="Wcircumflex" unicode="&#x174;" horiz-adv-x="1023" 
d="M659 753l-147 84l-148 -84v100l148 82l147 -82v-100zM375 0h-159l-193 700h145l128 -544l140 544h152l138 -542l129 542h145l-194 -700h-158l-136 502z" />
    <glyph glyph-name="wcircumflex" unicode="&#x175;" horiz-adv-x="770" 
d="M513 546l-129 74l-130 -74v88l130 71l129 -71v-88zM300 0h-131l-148 500h132l83 -338l88 338h128l85 -338l82 338h131l-148 -500h-134l-83 314z" />
    <glyph glyph-name="Ycircumflex" unicode="&#x176;" horiz-adv-x="705" 
d="M500 753l-148 84l-147 -84v100l147 82l148 -82v-100zM530 700h152l-262 -454v-246h-135v245l-262 455h151l178 -325z" />
    <glyph glyph-name="ycircumflex" unicode="&#x177;" horiz-adv-x="557" 
d="M408 546l-130 74l-129 -74v88l129 71l130 -71v-88zM405 500h137l-295 -700h-129l94 218l-197 482h143l122 -329z" />
    <glyph glyph-name="Ydieresis" unicode="&#x178;" horiz-adv-x="705" 
d="M260 781q-27 0 -46 18.5t-19 45.5q0 28 19 47t46 19q28 0 47 -19t19 -47q0 -27 -19 -45.5t-47 -18.5zM443 781q-27 0 -46 18.5t-19 45.5q0 28 19 47t46 19q28 0 46.5 -19t18.5 -47q0 -27 -18.5 -45.5t-46.5 -18.5zM530 700h152l-262 -454v-246h-135v245l-262 455h151
l178 -325z" />
    <glyph glyph-name="Zacute" unicode="&#x179;" horiz-adv-x="603" 
d="M390 968v-111l-229 -105v97zM558 597l-355 -484h355v-113h-513v103l353 484h-353v113h513v-103z" />
    <glyph glyph-name="zacute" unicode="&#x17a;" horiz-adv-x="484" 
d="M321 734v-96l-200 -92v84zM442 399l-239 -286h241v-113h-403v102l239 285h-239v113h401v-101z" />
    <glyph glyph-name="Zdotaccent" unicode="&#x17b;" horiz-adv-x="603" 
d="M281 781q-28 0 -46.5 18.5t-18.5 45.5q0 28 18.5 47t46.5 19q27 0 46 -19t19 -47q0 -27 -19 -45.5t-46 -18.5zM558 597l-355 -484h355v-113h-513v103l353 484h-353v113h513v-103z" />
    <glyph glyph-name="zdotaccent" unicode="&#x17c;" horiz-adv-x="484" 
d="M226 570q-24 0 -40.5 16.5t-16.5 40.5t16.5 41t40.5 17q25 0 41 -17t16 -41t-16 -40.5t-41 -16.5zM442 399l-239 -286h241v-113h-403v102l239 285h-239v113h401v-101z" />
    <glyph glyph-name="Zcaron" unicode="&#x17d;" horiz-adv-x="603" 
d="M429 935v-101l-148 -81l-147 81v101l147 -87zM558 597l-355 -484h355v-113h-513v103l353 484h-353v113h513v-103z" />
    <glyph glyph-name="zcaron" unicode="&#x17e;" horiz-adv-x="484" 
d="M356 705v-88l-129 -71l-130 71v88l130 -76zM442 399l-239 -286h241v-113h-403v102l239 285h-239v113h401v-101z" />
    <glyph glyph-name="uni018F" unicode="&#x18f;" horiz-adv-x="756" 
d="M571 377q0 64 -25 111t-69 73t-100 26q-42 0 -76.5 -12.5t-59.5 -36t-39 -57.5h-152q22 69 67.5 120.5t111.5 80t147 28.5q100 0 177 -45t120 -125.5t43 -187.5q0 -106 -42.5 -187.5t-118.5 -126.5t-178 -45q-99 0 -175.5 39.5t-118.5 115t-42 182.5q0 15 1 32t3 33h548
v-110h-411q2 -50 27 -88t68 -59.5t99 -21.5q54 0 98.5 23t70.5 66t26 103v69z" />
    <glyph glyph-name="florin" unicode="&#x192;" horiz-adv-x="412" 
d="M102 501h272l-11 -112h-272zM158 527q15 90 68 131.5t163 41.5l-12 -113q-42 0 -60 -14t-23 -47l-62 -375q-9 -56 -31.5 -89t-58 -47.5t-84.5 -14.5h-31l12 113h20q18 0 26.5 10.5t11.5 32.5z" />
    <glyph glyph-name="uni01CD" unicode="&#x1cd;" horiz-adv-x="739" 
d="M388 587h-36l-206 -587h-139l251 700h223l251 -700h-139zM159 274h408v-113h-408v113zM516 934v-100l-147 -82l-148 82v100l148 -86z" />
    <glyph glyph-name="uni01CE" unicode="&#x1ce;" horiz-adv-x="529" 
d="M356 0l-10 61q-25 -31 -56.5 -49t-84.5 -18q-50 0 -87.5 17.5t-58.5 49t-21 74.5q0 63 45.5 104.5t137.5 52.5l125 14v35q0 21 -19 39t-60 18q-36 0 -62.5 -17.5t-35.5 -52.5l-110 40q20 67 76 103t138 36q100 0 150.5 -49.5t50.5 -130.5v-327h-118zM346 217l-108 -14
q-33 -4 -50 -19.5t-17 -37.5q0 -21 17 -35.5t48 -14.5q35 0 59.5 13t37.5 38t13 62v8zM415 734v-100l-147 -82l-148 82v100l148 -86z" />
    <glyph glyph-name="Gcaron" unicode="&#x1e6;" horiz-adv-x="760" 
d="M585 478q-33 61 -83 87.5t-108 26.5q-63 0 -113 -31t-79.5 -85.5t-29.5 -125.5q0 -72 28.5 -126.5t79 -85t115.5 -30.5q43 0 80.5 15t66 41t46.5 61v58h-191v108h323v-183q-24 -58 -71 -107.5t-112.5 -78.5t-145.5 -29q-77 0 -141.5 26t-113 73.5t-75.5 113t-27 144.5
q0 78 27 143.5t75 113.5t113 74t141 26q70 0 133 -22.5t111 -65t74 -103.5zM530 934v-100l-147 -82l-148 82v100l148 -86z" />
    <glyph glyph-name="gcaron" unicode="&#x1e7;" horiz-adv-x="598" 
d="M421 500h116v-426q0 -85 -42 -146.5t-121.5 -94.5t-190.5 -33l-20 108q121 2 183.5 43t62.5 118v2l17 6q-24 -35 -66 -59.5t-100 -24.5q-66 0 -116 32t-78.5 89.5t-28.5 135.5t28.5 136t78.5 89.5t116 31.5q34 0 63.5 -9.5t52 -25t37.5 -34.5zM175 250q0 -63 32 -101.5
t86 -38.5q31 0 57 16.5t42.5 48.5t16.5 75q0 45 -16.5 76t-43 47.5t-56.5 16.5q-54 0 -86 -38.5t-32 -101.5zM447 734v-100l-147 -82l-148 82v100l148 -86z" />
    <glyph glyph-name="uni01E8" unicode="&#x1e8;" horiz-adv-x="673" 
d="M68 700h135v-289h41l246 289h165l-290 -344l298 -356h-173l-246 298h-41v-298h-135v700zM474 934v-100l-147 -82l-148 82v100l148 -86z" />
    <glyph glyph-name="uni01E9" unicode="&#x1e9;" horiz-adv-x="568" 
d="M62 720h129v-415h32l165 195h168l-221 -248l222 -252h-168l-167 198h-31v-198h-129v720zM273 954v-100l-147 -82l-148 82v100l148 -86z" />
    <glyph glyph-name="uni01EA" unicode="&#x1ea;" 
d="M391 -7q-74 0 -139 26t-113.5 73.5t-76.5 113t-28 144.5t28 144t76.5 113t113.5 74t139 26q75 0 139.5 -26t113.5 -74t76.5 -113t27.5 -144t-27.5 -144.5t-76.5 -113t-113.5 -73.5t-139.5 -26zM392 108q63 0 112.5 30.5t78 84.5t28.5 127t-28.5 127t-78 84.5t-112.5 30.5
q-65 0 -114.5 -30.5t-77.5 -84.5t-28 -127q0 -72 28 -127t77.5 -85t114.5 -30zM475 78l32 -65l-48 -24q-33 -17 -46.5 -32.5t-13.5 -33.5t13.5 -29.5t36.5 -11.5q16 0 34 3.5t36 10.5v-81q-18 -7 -40.5 -11t-46.5 -4q-35 0 -67 11t-52 35.5t-20 63.5q0 27 13 52.5t43.5 50
t84.5 47.5z" />
    <glyph glyph-name="uni01EB" unicode="&#x1eb;" horiz-adv-x="584" 
d="M289 -7q-73 0 -130 31.5t-89.5 89t-32.5 135.5q0 79 33.5 137t91.5 89.5t130 31.5t130 -31.5t92 -89t34 -135.5q0 -79 -34.5 -137t-93 -89.5t-131.5 -31.5zM288 108q31 0 59 15.5t46 47t18 80.5q0 47 -17 78.5t-44.5 47t-59.5 15.5q-31 0 -57.5 -15.5t-42 -47
t-15.5 -80.5q0 -47 15 -78.5t41 -47t57 -15.5zM394 95l32 -65l-48 -24q-33 -17 -46.5 -32.5t-13.5 -33.5t13.5 -29.5t36.5 -11.5q16 0 34 3.5t36 10.5v-81q-18 -7 -40.5 -11t-46.5 -4q-35 0 -67 11t-52 35.5t-20 63.5q0 27 13 52.5t43.5 50t84.5 47.5z" />
    <glyph glyph-name="AEacute" unicode="&#x1fc;" horiz-adv-x="918" 
d="M648 968v-111l-229 -105v97zM607 587v-178h169v-110h-169v-186h263v-113h-398v161h-234l-85 -161h-146l374 700h489v-113h-263zM297 274h175v329z" />
    <glyph glyph-name="aeacute" unicode="&#x1fd;" horiz-adv-x="858" 
d="M526 731v-96l-201 -92v84zM583 -7q-73 0 -126 32.5t-81.5 91t-28.5 136.5q0 119 60.5 186.5t172.5 67.5q72 0 126.5 -30.5t85 -85.5t30.5 -130q0 -12 -1 -25t-4 -29h-344q4 -32 19 -54.5t38.5 -35t53.5 -12.5q45 0 72 13t43 43l113 -34q-30 -63 -87 -98.5t-142 -35.5z
M684 300q-2 30 -15.5 52.5t-36.5 34t-53 11.5q-27 0 -49 -12.5t-35.5 -34.5t-18.5 -51h208zM410 193l12 -78q-21 -45 -55.5 -72t-76.5 -38.5t-84 -11.5q-49 0 -87 16t-59.5 48t-21.5 78q0 39 15 66.5t41 45.5t58.5 28.5t68.5 15.5l125 18v32q0 21 -20 39t-59 18
q-36 0 -62.5 -17.5t-35.5 -52.5l-110 40q21 67 76.5 103t137.5 36q99 0 148.5 -49.5t49.5 -130.5v-107zM346 218l-107 -15q-36 -5 -52 -20.5t-16 -37.5q0 -24 19 -34.5t48 -10.5q30 0 54.5 11.5t39 35.5t14.5 61v10z" />
    <glyph glyph-name="uni0218" unicode="&#x218;" horiz-adv-x="592" 
d="M358 -44q9 -29 13 -55.5t4 -50.5q0 -65 -31 -100.5t-93 -35.5v56q26 0 38 15t12 45v20h-56v106h113zM166 198q5 -28 22 -49t44.5 -32.5t64.5 -11.5q58 0 87 26.5t29 64.5q0 30 -18 50t-50.5 34t-75.5 27q-40 12 -79 26t-71 35t-50.5 54.5t-18.5 84.5q0 64 31.5 109
t86.5 68t127 23q61 0 110 -17.5t82.5 -51t49.5 -82.5l-125 -34q-5 22 -22 38t-41 25.5t-52 9.5q-30 1 -55 -9t-40 -29t-15 -44q0 -28 17 -44.5t45 -28t63 -22.5q42 -12 84 -27.5t77 -39t56.5 -59.5t21.5 -91q0 -58 -27.5 -105t-82.5 -75t-138 -28q-68 0 -123.5 20
t-91.5 58.5t-47 91.5z" />
    <glyph glyph-name="uni0219" unicode="&#x219;" horiz-adv-x="488" 
d="M310 -31q9 -29 13 -54t4 -46q0 -60 -31.5 -93t-94.5 -33v63q23 0 33.5 11.5t10.5 32.5v12h-49v107h114zM152 163q6 -25 20.5 -38t33 -18.5t37.5 -5.5q35 0 55 13.5t20 34.5q0 18 -14 28.5t-36 16t-45 11.5q-27 7 -57.5 15.5t-57.5 24.5t-45 41.5t-18 64.5q0 46 25.5 81
t71 55t105.5 20q71 0 120 -30t71 -86l-113 -32q-5 14 -17 23t-28.5 13t-33.5 4q-29 0 -48 -11.5t-19 -31.5q0 -12 7 -19.5t19.5 -12.5t29 -9t36.5 -9q31 -8 62.5 -18.5t58 -26.5t42.5 -43t18 -68q0 -44 -25 -79.5t-72 -56.5t-114 -21q-78 0 -132.5 33t-71.5 103z" />
    <glyph glyph-name="uni021A" unicode="&#x21a;" horiz-adv-x="635" 
d="M376 -44q9 -29 12.5 -55.5t3.5 -50.5q0 -65 -30.5 -100.5t-91.5 -35.5v56q25 0 37.5 15t12.5 45v20h-57v106h113zM34 700h568v-113h-216v-587h-135v587h-217v113z" />
    <glyph glyph-name="uni021B" unicode="&#x21b;" horiz-adv-x="367" 
d="M238 -31q9 -29 12.5 -54t3.5 -46q0 -60 -31 -93t-94 -33v63q23 0 33.5 11.5t10.5 31.5v12l-50 1v107h115zM98 500v140h130v-140h110v-113h-110v-203q0 -39 16.5 -55t42 -17t51.5 3v-110q-46 -10 -89.5 -6t-77.5 23.5t-53.5 59.5t-19.5 102v203h-71v113h71z" />
    <glyph glyph-name="uni0232" unicode="&#x232;" horiz-adv-x="705" 
d="M530 700h152l-262 -454v-246h-135v245l-262 455h151l178 -325zM163 880h379v-97h-379v97z" />
    <glyph glyph-name="uni0233" unicode="&#x233;" horiz-adv-x="557" 
d="M405 500h137l-295 -700h-129l94 218l-197 482h143l122 -329zM89 680h379v-97h-379v97z" />
    <glyph glyph-name="uni0259" unicode="&#x259;" horiz-adv-x="560" 
d="M271 507q75 0 132 -33t89 -92t32 -136q0 -74 -31.5 -131t-87 -89.5t-125.5 -32.5q-73 0 -128 31t-85 86.5t-30 129.5q0 11 1 24.5t4 28.5h344q-5 32 -21 54.5t-40.5 35t-56.5 12.5q-37 0 -66.5 -15.5t-41.5 -40.5l-113 34q29 64 88 99t136 35zM177 200q1 -28 14.5 -50.5
t36.5 -35t51 -12.5q25 0 47.5 13t37.5 34.5t21 50.5h-208z" />
    <glyph glyph-name="circumflex" unicode="&#x2c6;" horiz-adv-x="316" 
d="M305 592l-147 85l-148 -85v101l148 81l147 -81v-101z" />
    <glyph glyph-name="caron" unicode="&#x2c7;" horiz-adv-x="316" 
d="M305 774v-100l-147 -82l-148 82v100l148 -86z" />
    <glyph glyph-name="breve" unicode="&#x2d8;" horiz-adv-x="337" 
d="M326 750q0 -47 -19.5 -81.5t-54.5 -52.5t-84 -18q-48 0 -83.5 18t-55 53t-19.5 81v21h73q0 -33 18.5 -52t66.5 -19q49 0 67 19t18 52h73v-21z" />
    <glyph glyph-name="dotaccent" unicode="&#x2d9;" horiz-adv-x="151" 
d="M75 620q-27 0 -46 19t-19 46t19 46.5t46 19.5q28 0 46.5 -19.5t18.5 -46.5t-18.5 -46t-46.5 -19z" />
    <glyph glyph-name="ring" unicode="&#x2da;" horiz-adv-x="253" 
d="M243 716q0 -52 -34 -82.5t-83 -30.5q-47 0 -81.5 30.5t-34.5 82.5q0 53 34.5 84t81.5 31q49 0 83 -31t34 -84zM174 717q0 23 -13.5 36.5t-34.5 13.5q-19 0 -33 -13.5t-14 -36.5q0 -22 14 -36t33 -14q21 0 34.5 14t13.5 36z" />
    <glyph glyph-name="ogonek" unicode="&#x2db;" horiz-adv-x="247" 
d="M192 65l32 -65l-48 -24q-33 -17 -46.5 -32.5t-13.5 -33.5t13.5 -29.5t36.5 -11.5q16 0 34 3.5t36 10.5v-81q-18 -7 -40.5 -11t-46.5 -4q-35 0 -67 11t-52 35.5t-20 63.5q0 27 13 52.5t43.5 50t84.5 47.5z" />
    <glyph glyph-name="tilde" unicode="&#x2dc;" horiz-adv-x="381" 
d="M10 607q10 66 43 97.5t80 31.5q28 0 48 -11t36.5 -22.5t36.5 -11.5q18 0 29 10.5t14 32.5h73q-9 -66 -41.5 -97t-80.5 -31q-28 0 -48 11t-37 22.5t-37 11.5q-16 0 -28 -11t-15 -33h-73z" />
    <glyph glyph-name="hungarumlaut" unicode="&#x2dd;" horiz-adv-x="387" 
d="M194 786l-98 -185h-86l71 185h113zM376 786l-108 -185h-85l80 185h113z" />
    <glyph glyph-name="uni0394" unicode="&#x394;" horiz-adv-x="712" 
d="M300 700h111l280 -596v-104h-671v104zM356 545l-197 -432h392z" />
    <glyph glyph-name="uni03A9" unicode="&#x3a9;" horiz-adv-x="780" 
d="M151 109q-40 30 -65.5 68t-38.5 83.5t-13 96.5q0 79 27.5 143.5t76 110.5t113.5 71t139 25q75 0 139.5 -25t113 -71t76.5 -110.5t28 -143.5q0 -50 -13 -96t-39.5 -84t-65.5 -68h109v-109h-272v111q41 20 73 52.5t51 78t19 103.5q0 56 -16.5 101t-45.5 76.5t-69 48.5
t-88 17q-49 0 -89 -17t-69 -48.5t-44.5 -76.5t-15.5 -101q0 -58 18.5 -103.5t50.5 -78t74 -52.5v-111h-273v109h109z" />
    <glyph glyph-name="uni03BC" unicode="&#x3bc;" horiz-adv-x="599" 
d="M538 0h-135v501h135v-501zM197 -200h-135v701h135v-277q0 -55 28 -84.5t74 -29.5q47 0 75.5 29.5t28.5 86.5v1l37 -95q-10 -42 -34 -72t-58 -46t-75 -18q-14 0 -27 1.5t-25.5 5t-23.5 8.5v-211z" />
    <glyph glyph-name="pi" unicode="&#x3c0;" horiz-adv-x="650" 
d="M31 501h588v-110h-65v-391h-135v391h-187v-391h-135v391h-66v110z" />
    <glyph glyph-name="Wgrave" unicode="&#x1e80;" horiz-adv-x="1023" 
d="M391 968l229 -119v-97l-229 106v110zM375 0h-159l-193 700h145l128 -544l140 544h152l138 -542l129 542h145l-194 -700h-158l-136 502z" />
    <glyph glyph-name="wgrave" unicode="&#x1e81;" horiz-adv-x="770" 
d="M278 734l201 -104v-84l-201 93v95zM300 0h-131l-148 500h132l83 -338l88 338h128l85 -338l82 338h131l-148 -500h-134l-83 314z" />
    <glyph glyph-name="Wacute" unicode="&#x1e82;" horiz-adv-x="1023" 
d="M620 968v-111l-229 -105v97zM375 0h-159l-193 700h145l128 -544l140 544h152l138 -542l129 542h145l-194 -700h-158l-136 502z" />
    <glyph glyph-name="wacute" unicode="&#x1e83;" horiz-adv-x="770" 
d="M479 734v-96l-201 -92v84zM300 0h-131l-148 500h132l83 -338l88 338h128l85 -338l82 338h131l-148 -500h-134l-83 314z" />
    <glyph glyph-name="Wdieresis" unicode="&#x1e84;" horiz-adv-x="1023" 
d="M420 781q-27 0 -46 18.5t-19 45.5q0 28 19 47t46 19t46 -19t19 -47q0 -27 -19 -45.5t-46 -18.5zM603 781q-28 0 -46.5 18.5t-18.5 45.5q0 28 18.5 47t46.5 19q27 0 46 -19t19 -47q0 -27 -19 -45.5t-46 -18.5zM375 0h-159l-193 700h145l128 -544l140 544h152l138 -542
l129 542h145l-194 -700h-158l-136 502z" />
    <glyph glyph-name="wdieresis" unicode="&#x1e85;" horiz-adv-x="770" 
d="M303 570q-24 0 -40.5 16.5t-16.5 40.5t16.5 41t40.5 17t41 -17t17 -41t-17 -40.5t-41 -16.5zM464 570q-25 0 -41.5 16.5t-16.5 40.5t16.5 41t41.5 17q23 0 40 -17t17 -41t-17 -40.5t-40 -16.5zM300 0h-131l-148 500h132l83 -338l88 338h128l85 -338l82 338h131l-148 -500
h-134l-83 314z" />
    <glyph glyph-name="uni1EBC" unicode="&#x1ebc;" horiz-adv-x="608" 
d="M135 757q9 67 42.5 98t79.5 31q28 0 48 -11t37 -22t37 -11q17 0 28.5 10t14.5 33h73q-10 -67 -42.5 -98t-79.5 -31q-28 0 -48 11t-37 22.5t-37 11.5q-17 0 -28.5 -11t-15.5 -33h-72zM560 587h-357v-178h267v-109h-267v-187h357v-113h-492v700h492v-113z" />
    <glyph glyph-name="uni1EBD" unicode="&#x1ebd;" horiz-adv-x="560" 
d="M128 550q9 58 37.5 85.5t70.5 27.5q24 0 41.5 -10t32.5 -19.5t33 -9.5q15 0 25 9t13 29h63q-8 -59 -36.5 -86t-70.5 -27q-24 0 -42 10t-33 19.5t-32 9.5q-15 0 -25 -9t-13 -29h-64zM289 -7q-75 0 -132 33t-88.5 92t-31.5 136q0 74 31 131t86.5 89.5t126.5 32.5
q72 0 127 -31t85.5 -86.5t30.5 -129.5q0 -11 -1.5 -24.5t-3.5 -28.5h-344q4 -32 20.5 -54.5t41 -35t55.5 -12.5q37 0 66.5 15.5t42.5 40.5l114 -34q-30 -64 -89.5 -99t-136.5 -35zM384 300q-1 28 -15 50.5t-37 35t-51 12.5q-25 0 -47 -13t-37.5 -34.5t-20.5 -50.5h208z" />
    <glyph glyph-name="Ygrave" unicode="&#x1ef2;" horiz-adv-x="705" 
d="M232 968l228 -119v-97l-228 106v110zM530 700h152l-262 -454v-246h-135v245l-262 455h151l178 -325z" />
    <glyph glyph-name="ygrave" unicode="&#x1ef3;" horiz-adv-x="557" 
d="M173 734l201 -104v-84l-201 93v95zM405 500h137l-295 -700h-129l94 218l-197 482h143l122 -329z" />
    <glyph glyph-name="uni1EF8" unicode="&#x1ef8;" horiz-adv-x="705" 
d="M175 757q10 67 43 98t80 31q28 0 47.5 -11t36.5 -22t37 -11q17 0 28.5 10t14.5 33h73q-9 -67 -42 -98t-80 -31q-29 0 -48.5 11t-36.5 22.5t-37 11.5q-16 0 -28 -11t-15 -33h-73zM530 700h152l-262 -454v-246h-135v245l-262 455h151l178 -325z" />
    <glyph glyph-name="uni1EF9" unicode="&#x1ef9;" horiz-adv-x="557" 
d="M123 550q8 58 37 85.5t70 27.5q25 0 42.5 -10t32.5 -19.5t33 -9.5q14 0 24 9t13 29h64q-8 -59 -37 -86t-70 -27q-25 0 -42.5 10t-32 19.5t-32.5 9.5q-15 0 -25.5 -9t-12.5 -29h-64zM405 500h137l-295 -700h-129l94 218l-197 482h143l122 -329z" />
    <glyph glyph-name="endash" unicode="&#x2013;" horiz-adv-x="631" 
d="M44 336h543v-114h-543v114z" />
    <glyph glyph-name="emdash" unicode="&#x2014;" horiz-adv-x="854" 
d="M44 336h766v-114h-766v114z" />
    <glyph glyph-name="quoteleft" unicode="&#x2018;" horiz-adv-x="282" 
d="M249 700l-58 -251h-143l107 251h94z" />
    <glyph glyph-name="quoteright" unicode="&#x2019;" horiz-adv-x="282" 
d="M34 449l58 251h143l-107 -251h-94z" />
    <glyph glyph-name="quotesinglbase" unicode="&#x201a;" horiz-adv-x="282" 
d="M34 -100l58 247h143l-107 -247h-94z" />
    <glyph glyph-name="quotedblleft" unicode="&#x201c;" horiz-adv-x="481" 
d="M249 700l-58 -251h-143l108 251h93zM447 700l-57 -251h-144l108 251h93z" />
    <glyph glyph-name="quotedblright" unicode="&#x201d;" horiz-adv-x="481" 
d="M233 449l57 251h143l-107 -251h-93zM34 449l58 251h143l-107 -251h-94z" />
    <glyph glyph-name="quotedblbase" unicode="&#x201e;" horiz-adv-x="482" 
d="M34 -100l58 247h143l-107 -247h-94zM233 -100l58 247h143l-107 -247h-94z" />
    <glyph glyph-name="dagger" unicode="&#x2020;" horiz-adv-x="603" 
d="M558 568v-104l-202 11l14 -575h-136l14 575l-202 -11v104l202 -10l-14 242h136l-14 -242z" />
    <glyph glyph-name="daggerdbl" unicode="&#x2021;" horiz-adv-x="603" 
d="M557 464l-202 11v-249l202 11v-104l-202 11l14 -244h-136l14 244l-201 -11v104l201 -11v249l-201 -11v104l201 -10l-14 242h136l-14 -242l202 10v-104z" />
    <glyph glyph-name="bullet" unicode="&#x2022;" horiz-adv-x="440" 
d="M219 196q-37 0 -68.5 18.5t-50 49.5t-18.5 69q0 39 18.5 70t50 50t68.5 19q40 0 71 -19t50 -50t19 -70q0 -38 -19 -69t-50.5 -49.5t-70.5 -18.5z" />
    <glyph glyph-name="ellipsis" unicode="&#x2026;" horiz-adv-x="702" 
d="M351 -7q-37 0 -60.5 23.5t-23.5 56.5q0 34 23.5 57.5t60.5 23.5q36 0 59.5 -23.5t23.5 -57.5q0 -33 -23.5 -56.5t-59.5 -23.5zM568 -7q-37 0 -60.5 23.5t-23.5 56.5q0 34 23.5 57.5t60.5 23.5q36 0 59.5 -23.5t23.5 -57.5q0 -33 -23.5 -56.5t-59.5 -23.5zM135 -7
q-37 0 -60.5 23.5t-23.5 56.5q0 34 23.5 57.5t60.5 23.5q36 0 59.5 -23.5t23.5 -57.5q0 -33 -23.5 -56.5t-59.5 -23.5z" />
    <glyph glyph-name="perthousand" unicode="&#x2030;" horiz-adv-x="1115" 
d="M41 548q0 76 45 117.5t113 41.5q67 0 112 -41.5t45 -117.5t-45 -117.5t-112 -41.5q-68 0 -113 41.5t-45 117.5zM198 626q-26 0 -41.5 -18.5t-15.5 -59.5q0 -40 15.5 -59t41.5 -19t42 19t16 59q0 41 -16 59.5t-42 18.5zM513 700h132l-394 -700h-132zM410 153
q0 76 45.5 117t112.5 41q66 0 111 -41t45 -117q0 -77 -45 -118.5t-111 -41.5q-67 0 -112.5 41.5t-45.5 118.5zM567 230q-27 0 -42.5 -18.5t-15.5 -58.5q0 -41 15.5 -59.5t42.5 -18.5q26 0 41.5 18.5t15.5 59.5q0 40 -15.5 58.5t-41.5 18.5zM759 153q0 76 45 117t112 41
q68 0 113 -41t45 -117q0 -77 -45 -118.5t-113 -41.5q-67 0 -112 41.5t-45 118.5zM916 230q-26 0 -41.5 -18.5t-15.5 -58.5q0 -41 15.5 -59.5t41.5 -18.5t42 18.5t16 59.5q0 40 -16 58.5t-42 18.5z" />
    <glyph glyph-name="guilsinglleft" unicode="&#x2039;" horiz-adv-x="292" 
d="M251 75h-128l-89 175l89 175h128l-92 -175z" />
    <glyph glyph-name="guilsinglright" unicode="&#x203a;" horiz-adv-x="292" 
d="M41 75l92 175l-92 175h128l89 -175l-89 -175h-128z" />
    <glyph glyph-name="fraction" unicode="&#x2044;" horiz-adv-x="603" 
d="M436 720h133l-402 -740h-133z" />
    <glyph glyph-name="uni2074" unicode="&#x2074;" horiz-adv-x="364" 
d="M206 350v72h-176v53l164 225h89v-209h44v-69h-44v-72h-77zM209 618l-85 -127h85v127z" />
    <glyph glyph-name="uni20A8" unicode="&#x20a8;" horiz-adv-x="1110" 
d="M469 484q0 47 -28.5 75t-88.5 28h-149v-207h149q40 0 66 12.5t38.5 36t12.5 55.5zM356 700q85 0 140.5 -29.5t83 -79t27.5 -107.5q0 -39 -14 -77.5t-44 -70t-77.5 -50.5t-115.5 -19h-153v-267h-135v700h288zM432 312l189 -312h-151l-181 312h143zM774 163q6 -25 20.5 -38
t33 -18.5t37.5 -5.5q35 0 55 13.5t20 34.5q0 18 -14 28.5t-36 16t-45 11.5q-27 7 -57.5 15.5t-57.5 24.5t-45 41.5t-18 64.5q0 46 25.5 81t71 55t105.5 20q71 0 120 -30t71 -86l-113 -32q-5 14 -17 23t-28.5 13t-33.5 4q-29 0 -48 -11.5t-19 -31.5q0 -12 7 -19.5t19.5 -12.5
t29 -9t36.5 -9q31 -8 62.5 -18.5t58 -26.5t42.5 -43t18 -68q0 -44 -25 -79.5t-72 -56.5t-114 -21q-78 0 -132.5 33t-71.5 103z" />
    <glyph glyph-name="Euro" unicode="&#x20ac;" 
d="M23 388v83h428v-83h-428zM23 231v82h428v-82h-428zM58 350q0 79 26.5 144.5t74.5 113t112.5 73.5t140.5 26q108 0 191.5 -51.5t124.5 -147.5l-113 -33q-21 42 -53.5 68t-70.5 38t-77 12q-64 0 -114 -30.5t-78 -85.5t-28 -127t28 -126.5t78 -85.5t114 -31q40 0 79.5 12.5
t73.5 42.5t57 80l111 -31q-42 -109 -127 -163.5t-196 -54.5q-76 0 -140.5 26t-112.5 74t-74.5 113.5t-26.5 143.5z" />
    <glyph glyph-name="indianrupee" unicode="&#x20b9;" horiz-adv-x="610" 
d="M475 643v-119q0 -71 -14 -122t-45.5 -84t-84 -49t-130.5 -16v-51q0 -44 18.5 -74.5t71.5 -30.5q48 0 68 28t20 76h125q-3 -101 -57 -154.5t-156 -53.5q-105 0 -161 57t-56 164v131q94 0 149 5t81.5 22t35 53t8.5 97v121h127zM41 700h538v-96h-538v96zM41 436v91h538v-91
h-538z" />
    <glyph glyph-name="turkishlira" unicode="&#x20ba;" horiz-adv-x="857" 
d="M153 700v-680q60 -13 114.5 -20t102.5 -7q134 0 216 49t119.5 149t37.5 253h-138q0 -73 -11 -132t-37 -102t-72 -66t-115 -23q-18 0 -37.5 1.5t-40.5 5.5v572h-139zM445 473v90l-435 -93v-88zM441 308v90l-428 -89v-91z" />
    <glyph glyph-name="uni20BD" unicode="&#x20bd;" horiz-adv-x="647" 
d="M20 383h343q59 0 86.5 29t27.5 76q0 49 -27.5 78.5t-86.5 29.5h-116v-596h-136v700h254q84 0 140 -28.5t83.5 -76.5t27.5 -107q0 -53 -25 -101t-80 -78.5t-146 -30.5h-345v105zM20 205h409v-106h-409v106z" />
    <glyph glyph-name="uni2113" unicode="&#x2113;" horiz-adv-x="291" 
d="M83 720h128v-720h-128v720z" />
    <glyph glyph-name="trademark" unicode="&#x2122;" horiz-adv-x="840" 
d="M20 700h261v-80h-79v-270h-102v270h-80v80zM337 700h135l108 -289l-47 -1l119 290h126v-350h-94v288l27 3l-121 -291h-70l-116 291l24 -3v-288h-91v350z" />
    <glyph glyph-name="uni2126" unicode="&#x2126;" horiz-adv-x="780" 
d="M151 105q-40 29 -65.5 68.5t-38.5 86t-13 97.5q0 79 27.5 143.5t76 111t113.5 72t139 25.5q75 0 139.5 -25.5t113 -72t76.5 -111t28 -143.5q0 -50 -13 -97t-39.5 -86.5t-65.5 -68.5h109v-105h-272v108q41 20 73 53.5t51 79.5t19 104q0 56 -16.5 100.5t-45.5 75.5t-69 47
t-88 16q-49 0 -89 -16t-69 -47.5t-44.5 -75.5t-15.5 -100q0 -58 18.5 -104t50.5 -79.5t74 -53.5v-108h-273v105h109z" />
    <glyph glyph-name="estimated" unicode="&#x212e;" horiz-adv-x="755" 
d="M685 135q-62 -67 -136 -104.5t-163 -37.5q-99 0 -177 39.5t-123 115t-45 184.5q0 78 22 146.5t65 119.5t105.5 80t143.5 29q82 0 144.5 -27t105.5 -74t65.5 -106t22.5 -122v-62h-508v-171q35 -34 79 -51.5t100 -17.5q49 0 92 13.5t81 40t76 63.5zM544 393v172
q-30 30 -72.5 46t-94.5 16q-53 0 -96 -17.5t-74 -52.5v-164h337z" />
    <glyph glyph-name="partialdiff" unicode="&#x2202;" horiz-adv-x="585" 
d="M406 267q0 36 -11.5 65t-34 45t-54.5 16q-33 0 -64.5 -18t-52 -55t-20.5 -91q0 -60 27 -90.5t72 -30.5q34 0 65.5 17.5t52 53t20.5 88.5zM31 224q0 69 23.5 121.5t62.5 88.5t87 54.5t98 18.5q26 0 46 -5.5t37.5 -16t32.5 -27.5q-6 38 -16.5 72.5t-28 61t-44 42
t-62.5 15.5q-11 0 -27 -2.5t-40 -7.5v72q28 9 53 12.5t45 3.5q64 0 111.5 -29.5t80 -81t49 -119t16.5 -143.5q0 -98 -24.5 -167t-66.5 -112t-94.5 -62.5t-108.5 -19.5q-67 0 -119 26t-81.5 77.5t-29.5 127.5z" />
    <glyph glyph-name="uni2206" unicode="&#x2206;" horiz-adv-x="712" 
d="M300 700h111l280 -596v-104h-671v104zM356 545l-197 -441h392z" />
    <glyph glyph-name="product" unicode="&#x220f;" horiz-adv-x="751" 
d="M31 700h690v-105h-75v-595h-135v595h-271v-595h-135v595h-74v105z" />
    <glyph glyph-name="summation" unicode="&#x2211;" horiz-adv-x="503" 
d="M41 700h421v-104h-327l-17 34l297 -228v-104l-297 -228l-3 34h347v-104h-421v159l246 188l-246 195v158z" />
    <glyph glyph-name="minus" unicode="&#x2212;" horiz-adv-x="525" 
d="M51 409h422v-118h-422v118z" />
    <glyph glyph-name="uni2215" unicode="&#x2215;" horiz-adv-x="513" 
d="M380 700h133l-380 -700h-133z" />
    <glyph glyph-name="radical" unicode="&#x221a;" horiz-adv-x="785" 
d="M686 800h90l-438 -800h-68l-138 245l-74 -43l-40 66l192 113l142 -253l-26 15z" />
    <glyph glyph-name="infinity" unicode="&#x221e;" horiz-adv-x="715" 
d="M20 350q0 51 23 87t61 55.5t83 19.5q46 0 80.5 -17t61 -43t48.5 -55t43.5 -55t45 -42.5t52.5 -16.5t47.5 17.5t18.5 50.5t-18.5 50t-47.5 17q-38 0 -73 -29t-50 -75l-67 34q11 43 39 80.5t69 60.5t93 23q47 -1 84.5 -20t59 -54.5t21.5 -86.5t-22.5 -87.5t-60.5 -55.5
t-84 -19q-45 0 -80.5 16.5t-63.5 42.5t-51.5 55t-45 55t-43.5 43t-47 17q-28 0 -47 -17.5t-19 -50.5t19 -50t47 -17q39 0 74 28.5t49 75.5l67 -34q-10 -44 -37.5 -81.5t-69.5 -60.5t-94 -22q-71 0 -118 42t-47 119z" />
    <glyph glyph-name="integral" unicode="&#x222b;" horiz-adv-x="299" 
d="M126 634q10 63 34.5 99t63.5 51.5t92 15.5h20l-12 -114h-16q-21 0 -31.5 -12t-14.5 -40l-89 -569q-10 -62 -34.5 -98t-63.5 -51.5t-92 -15.5h-19l10 114h17q21 0 31 12t15 39z" />
    <glyph glyph-name="approxequal" unicode="&#x2248;" horiz-adv-x="581" 
d="M31 142q16 99 62.5 142t112.5 43q30 0 54 -10t44 -23t39.5 -22.5t41.5 -9.5q24 0 42 15.5t24 48.5h99q-16 -98 -63 -141t-112 -43q-31 0 -54.5 9.5t-43.5 22.5t-39 23t-41 10q-26 0 -44.5 -16.5t-22.5 -48.5h-99zM31 375q16 99 62.5 142t112.5 43q30 0 54 -10t44 -23
t39.5 -22.5t41.5 -9.5q24 0 42 15.5t24 48.5h99q-16 -98 -63 -141t-112 -43q-31 0 -54.5 9.5t-43.5 22.5t-39 23t-41 10q-26 0 -44.5 -16.5t-22.5 -48.5h-99z" />
    <glyph glyph-name="notequal" unicode="&#x2260;" horiz-adv-x="665" 
d="M515 623h89l-454 -546h-89zM61 290h543v-117h-543v117zM61 528h543v-118h-543v118z" />
    <glyph glyph-name="lessequal" unicode="&#x2264;" horiz-adv-x="513" 
d="M61 162h381v-104h-381v104zM445 223h-174l-220 187l220 189h174l-230 -197v18z" />
    <glyph glyph-name="greaterequal" unicode="&#x2265;" horiz-adv-x="513" 
d="M68 223l229 197v-18l-229 197h174l221 -189l-221 -187h-174zM452 162v-104h-381v104h381z" />
    <glyph glyph-name="lozenge" unicode="&#x25ca;" horiz-adv-x="568" 
d="M285 604l252 -253l-252 -254l-254 254zM285 465l-114 -114l114 -114l113 114z" />
    <glyph glyph-name="uniA732" unicode="&#xa732;" horiz-adv-x="1324" 
d="M388 587h-36l-206 -587h-139l251 700h223l251 -700h-139zM159 274h408v-113h-408v113zM974 587h-36l-206 -587h-139l251 700h223l251 -700h-139zM745 274h408v-113h-408v113z" />
    <glyph glyph-name="g.ss02" horiz-adv-x="606" 
d="M422 500h123v-426q0 -49 -17.5 -96.5t-52 -86.5t-87 -63.5t-123 -27.5t-160.5 21l27 102q80 -19 133.5 -13t85 29t45 57.5t13.5 72.5v2l17 5q-24 -32 -66 -57.5t-100 -25.5q-66 0 -116 32t-78.5 89.5t-28.5 135.5t28.5 136t78.5 89.5t116 31.5q51 0 89.5 -20t63.5 -47z
M175 250q0 -45 16 -76t43 -47.5t59 -16.5q31 0 57.5 16.5t42.5 47.5t16 76t-16 76t-42.5 47t-57.5 16q-32 0 -59 -16t-43 -47t-16 -76z" />
    <glyph glyph-name="comma.ss01" horiz-adv-x="220" 
d="M159 118q9 -31 15 -62t6 -59q0 -71 -34 -110t-103 -39v59q26 0 40 15t14 49v21h-66v126h128z" />
    <glyph glyph-name="quotedblleft.ss01" horiz-adv-x="357" 
d="M213 478q-9 30 -12.5 56.5t-3.5 49.5q0 65 30.5 100.5t92.5 35.5v-56q-26 0 -38 -14.5t-12 -45.5v-19h57v-107h-114zM47 478q-9 30 -12.5 56.5t-3.5 49.5q0 65 30 100.5t93 35.5v-56q-26 0 -38 -14.5t-12 -45.5v-19h57v-107h-114z" />
    <glyph glyph-name="quotedblright.ss01" horiz-adv-x="358" 
d="M311 720q8 -29 12.5 -56t4.5 -51q0 -64 -31 -99.5t-93 -35.5v55q25 0 37.5 15.5t12.5 45.5v19h-57v107h114zM145 720q8 -29 12 -56t4 -51q0 -64 -31 -99.5t-92 -35.5v55q25 0 37.5 15.5t12.5 45.5v19h-57v107h114z" />
    <glyph glyph-name="quoteleft.ss01" horiz-adv-x="191" 
d="M47 478q-9 30 -12.5 56.5t-3.5 49.5q0 65 30 100.5t93 35.5v-56q-26 0 -38 -14.5t-12 -45.5v-19h57v-107h-114z" />
    <glyph glyph-name="quoteright.ss01" horiz-adv-x="192" 
d="M145 720q8 -29 12 -56t4 -51q0 -64 -31 -99.5t-92 -35.5v55q25 0 37.5 15.5t12.5 45.5v19h-57v107h114z" />
    <glyph glyph-name="ampersand.ss03" horiz-adv-x="666" 
d="M381 557q-13 18 -34 26.5t-47 8.5q-44 0 -70.5 -22.5t-26.5 -65.5q0 -45 33.5 -66t107.5 -22h276v-108h-275q-85 0 -120 -26t-35 -76q0 -46 26.5 -72t77.5 -26q58 0 85.5 31t27.5 91v258h131v-258q0 -112 -63 -174.5t-184 -62.5q-111 0 -174 55t-63 147q0 62 31 105.5
t93 63.5v4q-52 18 -81.5 57t-29.5 86q0 58 29.5 102.5t81 69t118.5 24.5q62 0 109.5 -21t76.5 -60zM481 625l-100 -68z" />
    <glyph glyph-name="ampersand.ss04" horiz-adv-x="777" 
d="M397 531q1 23 -7 38.5t-23 23.5t-33 8q-30 0 -48.5 -17.5t-18.5 -43.5t16 -50t49 -56l439 -434h-168l-381 377q-33 32 -52 57.5t-27 50t-8 54.5q0 48 24.5 86t69.5 60t109 22t108 -24t64.5 -64t18.5 -88h-132zM343 361l-51 -16q-66 -22 -97 -54t-31 -77q0 -30 15.5 -54.5
t44 -39t66.5 -14.5q48 0 87 18.5t72 53.5t64 85l61 101h141l-74 -123q-48 -81 -99 -136t-113 -83.5t-142 -28.5q-77 0 -135 26.5t-89.5 74.5t-31.5 113q0 77 48.5 134.5t148.5 89.5l50 16z" />
    <glyph glyph-name="ampersand.ss05" horiz-adv-x="777" 
d="M397 537q1 20 -7 34t-23 22t-33 8q-30 0 -48.5 -17.5t-18.5 -43.5t16 -50t49 -56l439 -434h-168l-381 377q-33 32 -52 57.5t-27 50t-8 54.5q0 48 24.5 86t69.5 60t109 22t108 -24t65 -64.5t18 -87.5q-3 -41 -27.5 -72.5t-60.5 -54t-72 -35.5l-68 86q46 15 70.5 34.5
t25.5 47.5zM343 361l-51 -16q-66 -22 -97 -54t-31 -77q0 -30 15.5 -54.5t44 -39t66.5 -14.5q48 0 87 18.5t72 53.5t64 85l61 101h141l-74 -123q-48 -81 -99 -136t-113 -83.5t-142 -28.5q-77 0 -135 26.5t-89.5 74.5t-31.5 113q0 77 48.5 134.5t148.5 89.5l50 16z" />
    </font>
</defs>
</svg>
