<?xml version="1.0" standalone="no"?>
<!DOCTYPE svg PUBLIC "-//W3C//DTD SVG 1.1//EN" "http://www.w3.org/Graphics/SVG/1.1/DTD/svg11.dtd" >
<svg xmlns="http://www.w3.org/2000/svg" xmlns:xlink="http://www.w3.org/1999/xlink" version="1.1">
<metadata>
Created by FontForge 20201107 at Mon May 23 15:50:47 2022
 By www-data
Copyright 2021 The Albert Sans Project Authors (https://github.com/usted/Albert-Sans)
</metadata>
<defs>
<font id="AlbertSans-MediumItalic" horiz-adv-x="561" >
  <font-face 
    font-family="Albert Sans Medium"
    font-weight="500"
    font-style="italic"
    font-stretch="normal"
    units-per-em="1000"
    panose-1="0 0 0 0 0 0 0 0 0 0"
    ascent="800"
    descent="-200"
    x-height="500"
    cap-height="700"
    bbox="-113 -268 1209 962"
    underline-thickness="50"
    underline-position="-125"
    slope="-11.25"
    unicode-range="U+0020-FB01"
  />
<missing-glyph horiz-adv-x="650" 
d="M22 0l139 700h507l-139 -700h-507zM116 70h347l111 560h-347z" />
    <glyph glyph-name="fi" unicode="fi" horiz-adv-x="553" 
d="M484 587q-26 0 -40.5 18t-9.5 44q6 28 27.5 46.5t48.5 18.5t42 -18.5t10 -46.5q-6 -26 -28 -44t-50 -18zM514 501l-99 -501h-95l82 417h-337l17 84h432zM158 556q16 85 68.5 129.5t151.5 34.5l-16 -83q-52 5 -76.5 -16t-32.5 -65l-111 -556h-95z" />
    <glyph glyph-name=".notdef" horiz-adv-x="650" 
d="M22 0l139 700h507l-139 -700h-507zM116 70h347l111 560h-347z" />
    <glyph glyph-name=".null" horiz-adv-x="0" 
 />
    <glyph glyph-name="nonmarkingreturn" horiz-adv-x="333" 
 />
    <glyph glyph-name="space" unicode=" " horiz-adv-x="280" 
 />
    <glyph glyph-name="exclam" unicode="!" horiz-adv-x="272" 
d="M171 700h106l-111 -498h-83zM85 -6q-27 0 -42 19t-9 47q5 27 27.5 46t50.5 19q26 0 41 -19t10 -46q-6 -28 -28.5 -47t-49.5 -19z" />
    <glyph glyph-name="quotedbl" unicode="&#x22;" horiz-adv-x="328" 
d="M138 700h91l-50 -196h-68zM278 700h92l-50 -196h-69z" />
    <glyph glyph-name="numbersign" unicode="#" horiz-adv-x="835" 
d="M387 700h95l-68 -170h204l69 170h95l-68 -170h137l-17 -87h-156l-66 -165h138l-17 -88h-157l-77 -190h-95l77 190h-205l-77 -190h-95l77 190h-153l17 88h172l66 165h-155l18 87h173zM312 278h204l67 165h-205z" />
    <glyph glyph-name="dollar" unicode="$" horiz-adv-x="578" 
d="M362 775h58l-169 -850h-58zM126 185q1 -28 14.5 -52t42 -39t75.5 -15q70 0 110 32.5t49 76.5q8 36 -7.5 59.5t-48 40t-76.5 29.5q-38 12 -73.5 25.5t-62.5 34t-38.5 53t-1.5 81.5q12 61 50 105t95 67.5t126 23.5q58 0 100.5 -16.5t68 -47t32.5 -73.5l-97 -33
q-2 22 -17.5 41.5t-42.5 31.5t-62 12q-37 1 -68.5 -11.5t-54 -35.5t-28.5 -55q-7 -35 9 -55t46.5 -33t68.5 -25q38 -13 75.5 -28t66 -38t41 -57.5t2.5 -86.5q-11 -56 -46 -102t-93 -74t-137 -28q-65 0 -113 20t-74.5 55.5t-28.5 82.5z" />
    <glyph glyph-name="percent" unicode="%" horiz-adv-x="782" 
d="M108 555q10 48 36 82t63 52t80 18q63 0 97.5 -40t20.5 -112q-10 -48 -36.5 -82t-63 -52.5t-79.5 -18.5q-64 0 -98 40.5t-20 112.5zM274 646q-32 0 -55 -22t-32 -69q-10 -46 4.5 -69t46.5 -23t55.5 23t32.5 69q9 47 -5.5 69t-46.5 22zM633 700h98l-543 -700h-98zM418 145
q10 49 36 83t63.5 52t78.5 18q64 0 98 -40.5t20 -112.5q-10 -48 -35.5 -81.5t-63 -52t-79.5 -18.5q-63 0 -97.5 40.5t-20.5 111.5zM584 236q-31 0 -55 -22t-33 -69q-9 -46 5.5 -68t46.5 -22q31 0 54.5 22t32.5 68q9 47 -5.5 69t-45.5 22z" />
    <glyph glyph-name="ampersand" unicode="&#x26;" horiz-adv-x="697" 
d="M470 582q-14 18 -38 28.5t-58 10.5q-63 0 -100 -35t-46 -85q-8 -37 6.5 -59.5t51 -33.5t93.5 -12h228l-17 -85h-227q-94 0 -145 -24.5t-65 -92.5q-7 -36 1.5 -61.5t34.5 -39.5t71 -14q71 0 106 33.5t49 103.5l26 136h97l-27 -136q-16 -80 -53.5 -129t-91.5 -71.5
t-123 -22.5q-76 0 -122.5 24.5t-64 68t-6.5 100.5q15 70 60 111t109 56l1 5q-34 9 -57 31t-32.5 53.5t-2.5 69.5q11 52 45 96.5t88 71.5t126 27q59 0 103.5 -18.5t69.5 -53.5zM560 635l-90 -53zM408 396q14 0 26 4.5t21 18t14 39.5l12 61h92l-25 -123h125l-17 -85h-125
l-27 -141q-10 -48 8 -68t59 -20q8 0 18 1t23 2l-17 -81q-14 -3 -28.5 -5t-27.5 -2q-44 0 -79.5 17t-51.5 55t-3 101l28 142h-74l17 84h32z" />
    <glyph glyph-name="quotesingle" unicode="'" horiz-adv-x="196" 
d="M141 700h93l-51 -196h-69z" />
    <glyph glyph-name="parenleft" unicode="(" horiz-adv-x="426" 
d="M189 -100q-55 51 -86.5 121.5t-38 154t10.5 172.5q18 90 59 173.5t104 154.5t147 124h103l-2 -8q-90 -58 -154.5 -130.5t-104.5 -152t-56 -161.5q-16 -80 -8 -159.5t40 -151t90 -129.5l-1 -8h-103z" />
    <glyph glyph-name="parenright" unicode=")" horiz-adv-x="425" 
d="M98 -100h-103l2 8q81 58 141.5 129.5t100 151t55.5 159.5q16 82 7.5 161.5t-44 152t-101.5 130.5l1 8h103q63 -53 97.5 -124t42.5 -154.5t-10 -173.5q-18 -89 -58.5 -172.5t-99.5 -154t-134 -121.5z" />
    <glyph glyph-name="asterisk" unicode="*" horiz-adv-x="478" 
d="M329 585l138 89l25 -71l-149 -55l128 -56l-55 -72l-102 89l-12 -149h-80l46 149l-137 -91l-27 75l149 56l-127 53l54 72l104 -89l13 150h81z" />
    <glyph glyph-name="plus" unicode="+" horiz-adv-x="628" 
d="M431 605l-102 -510h-92l101 510h93zM88 392h509l-16 -84h-510z" />
    <glyph glyph-name="comma" unicode="," horiz-adv-x="276" 
d="M84 130h109l-170 -272h-65z" />
    <glyph glyph-name="hyphen" unicode="-" horiz-adv-x="523" 
d="M73 320h404l-17 -84h-403z" />
    <glyph glyph-name="period" unicode="." horiz-adv-x="248" 
d="M73 -6q-27 0 -42 19t-9 46q5 28 27.5 47t50.5 19q26 0 41.5 -19t9.5 -47q-6 -27 -28.5 -46t-49.5 -19z" />
    <glyph glyph-name="slash" unicode="/" horiz-adv-x="339" 
d="M349 800h99l-420 -900h-98z" />
    <glyph glyph-name="zero" unicode="0" horiz-adv-x="635" 
d="M83 350q15 78 40 143.5t63 113t92.5 74t130.5 26.5q75 0 119.5 -26.5t63 -74t17 -113t-16.5 -143.5q-16 -79 -40.5 -144.5t-62.5 -113t-92.5 -73.5t-129.5 -26q-76 0 -120 26t-63 73.5t-18 113t17 144.5zM491 350q11 54 16 103t-3 87t-34 59.5t-78 21.5q-53 0 -88 -21.5
t-57.5 -59.5t-37 -87t-24.5 -103q-12 -57 -17 -106t2.5 -86t34.5 -58t79 -21t87 21t57.5 58t36.5 86t26 106z" />
    <glyph glyph-name="one" unicode="1" horiz-adv-x="314" 
d="M207 616h-95l17 84h195l-139 -700h-100z" />
    <glyph glyph-name="two" unicode="2" horiz-adv-x="598" 
d="M19 73l244 192q70 54 112 93t63.5 72.5t28.5 69.5q10 53 -14 87t-91 34q-43 0 -77 -19t-56.5 -53.5t-33.5 -80.5h-96q18 80 60 133t99.5 79.5t121.5 26.5q72 0 118.5 -26t64 -72.5t5.5 -108.5q-9 -45 -34 -87.5t-74.5 -91t-132.5 -112.5l-160 -125h337l-16 -84h-483z" />
    <glyph glyph-name="three" unicode="3" horiz-adv-x="597" 
d="M115 510q16 63 56.5 107t97 67t123.5 23q71 0 114.5 -27t60 -71.5t6.5 -96.5q-8 -38 -30.5 -69.5t-54 -53.5t-68.5 -31l-1 -5q39 -10 65 -31.5t36 -55t0 -80.5q-11 -57 -45.5 -100.5t-90.5 -68t-132 -24.5q-74 0 -124 22t-72 69t-12 122h96q-7 -62 22.5 -94.5
t106.5 -32.5q46 0 77 14t49.5 39.5t25.5 61.5q14 68 -27.5 92.5t-135.5 24.5h-24l17 85h25q57 1 97.5 12t64.5 33.5t32 59.5q9 50 -13.5 85t-85.5 35q-41 0 -73.5 -14.5t-54 -39.5t-31.5 -57h-97z" />
    <glyph glyph-name="four" unicode="4" horiz-adv-x="654" 
d="M389 160h-367l14 73l438 467h122l-90 -455h95l-17 -85h-95l-32 -160h-100zM408 245l70 352l-325 -352h255z" />
    <glyph glyph-name="five" unicode="5" horiz-adv-x="623" 
d="M606 700l-17 -84h-338l-42 -209q28 29 71 47t95 18q63 0 103.5 -22t61 -57t25 -75.5t-3.5 -77.5q-13 -68 -53 -124t-102.5 -89.5t-142.5 -33.5q-73 0 -121 25.5t-70.5 70t-20.5 101.5h97q2 -52 37 -81.5t96 -29.5q50 0 86.5 20t59.5 55.5t33 83.5q14 70 -16.5 109
t-100.5 39q-53 0 -95 -25t-67 -68h-94l82 407h437z" />
    <glyph glyph-name="six" unicode="6" horiz-adv-x="607" 
d="M256 -7q-74 0 -125 32t-72 88t-7 126q10 55 42 110t87 112l230 239h108l-262 -270l-139 -119q35 71 100 115t145 44q70 0 118.5 -29.5t68.5 -82t6 -121.5q-14 -70 -57.5 -125.5t-107 -87t-135.5 -31.5zM152 237q-10 -48 1.5 -83.5t41 -55t78.5 -19.5t86 19.5t61.5 55
t34.5 83.5q10 49 -0.5 83t-40.5 52t-79 18q-48 0 -86 -18t-62.5 -52t-34.5 -83z" />
    <glyph glyph-name="seven" unicode="7" horiz-adv-x="557" 
d="M606 700l-14 -74l-403 -626h-100l403 616h-380l17 84h477z" />
    <glyph glyph-name="eight" unicode="8" horiz-adv-x="628" 
d="M210 368q-48 21 -70 59.5t-10 96.5q10 51 45 92t92.5 66t137.5 25q78 0 126.5 -25t66.5 -66.5t9 -91.5q-12 -55 -50.5 -95.5t-92.5 -60.5q56 -19 82.5 -63t13.5 -108q-12 -63 -54 -108.5t-104.5 -70.5t-138.5 -25t-129 25t-76.5 70.5t-11.5 108.5q13 64 57.5 108.5
t106.5 62.5zM503 513q11 57 -19.5 82.5t-95.5 25.5q-64 0 -105.5 -25t-53.5 -84q-10 -51 21 -80.5t94 -29.5t106 29.5t53 81.5zM329 324q-45 0 -83 -13t-63.5 -40t-34.5 -71q-11 -58 23 -89.5t109 -31.5q74 0 121.5 32t58.5 89q9 42 -6 69.5t-47.5 41t-77.5 13.5z" />
    <glyph glyph-name="nine" unicode="9" horiz-adv-x="607" 
d="M390 707q74 0 125 -32t72.5 -88t7.5 -126q-11 -55 -43 -110t-86 -112l-231 -239h-108l262 270l139 119q-35 -71 -100 -115t-146 -44q-69 0 -117 29.5t-68.5 82t-6.5 121.5q14 71 57.5 126t106.5 86.5t136 31.5zM494 463q10 49 -1 84t-41 54.5t-79 19.5t-86.5 -19.5
t-61.5 -54.5t-34 -84q-10 -48 0.5 -82.5t40.5 -52.5t79 -18t86.5 18t62 52.5t34.5 82.5z" />
    <glyph glyph-name="colon" unicode=":" horiz-adv-x="256" 
d="M77 -6q-27 0 -42 19t-10 46q6 28 28.5 47t49.5 19t42.5 -19t8.5 -47q-5 -27 -27.5 -46t-49.5 -19zM162 419q-27 0 -42 19t-10 46q6 28 28.5 47t49.5 19t42 -19t9 -47q-5 -27 -27.5 -46t-49.5 -19z" />
    <glyph glyph-name="semicolon" unicode=";" horiz-adv-x="293" 
d="M199 419q-28 0 -43 19t-9 47q5 27 27.5 46t50.5 19q27 0 41.5 -19t9.5 -46q-5 -28 -27.5 -47t-49.5 -19zM88 130h109l-170 -272h-65z" />
    <glyph glyph-name="less" unicode="&#x3c;" horiz-adv-x="502" 
d="M397 121h-126l-192 229l283 229h126l-284 -229z" />
    <glyph glyph-name="equal" unicode="=" horiz-adv-x="667" 
d="M77 283h525l-17 -84h-524zM122 502h524l-17 -84h-525z" />
    <glyph glyph-name="greater" unicode="&#x3e;" horiz-adv-x="501" 
d="M337 350l-192 229h125l192 -229l-283 -229h-125z" />
    <glyph glyph-name="question" unicode="?" horiz-adv-x="547" 
d="M363 707q66 0 111 -25t64 -71.5t6 -110.5q-14 -72 -54 -117t-98 -66.5t-127 -21.5l-21 -90h-86l26 158h31q43 0 80 5.5t67.5 19.5t51 41.5t29.5 70.5q12 57 -13 89t-83 32q-59 0 -99.5 -30t-51.5 -87h-93q11 61 47.5 106.5t91.5 71t121 25.5zM163 -6q-28 0 -42.5 19
t-8.5 46q5 28 27 47t50 19q27 0 42 -19t10 -47q-6 -27 -28.5 -46t-49.5 -19z" />
    <glyph glyph-name="at" unicode="@" horiz-adv-x="983" 
d="M567 152l14 -33q-38 -56 -99.5 -91t-124.5 -35q-78 0 -111.5 47t-17.5 126q11 56 39 107t68.5 91t90.5 63t105 23q61 0 90.5 -29t28.5 -87l-30 -14l45 121h87l-108 -288q-14 -41 -11 -67t41 -26q32 0 60 23.5t51 60.5t39 79t24 80q17 87 -5.5 147t-82.5 91.5t-155 31.5
q-90 0 -172.5 -33t-150 -92t-114 -137.5t-64.5 -170.5q-18 -87 5.5 -147.5t84.5 -91.5t154 -31q41 0 86 8t87 26v-66q-50 -20 -102 -29t-105 -9q-109 0 -181.5 40.5t-102.5 115.5t-10 176q22 107 77.5 200t138 162.5t183.5 109t212 39.5q114 0 187.5 -42.5t102 -117.5
t9.5 -175q-12 -57 -38 -113t-63 -101.5t-83.5 -73t-99.5 -27.5q-62 0 -82.5 35t-4.5 91zM516 374q-36 0 -68 -16.5t-57 -44.5t-42.5 -62.5t-24.5 -70.5q-10 -48 8.5 -79t70.5 -31q43 0 83 25t69.5 65.5t41.5 90.5q9 34 3.5 62t-26.5 44.5t-58 16.5z" />
    <glyph glyph-name="A" unicode="A" horiz-adv-x="692" 
d="M437 616h-35l-342 -616h-102l391 700h173l113 -700h-102zM140 262h407l-16 -84h-408z" />
    <glyph glyph-name="B" unicode="B" horiz-adv-x="666" 
d="M548 506q7 34 -3.5 58.5t-36.5 38t-68 13.5h-188l-44 -219h189q62 0 101.5 29t49.5 80zM29 0l140 700h297q73 0 117 -25t60.5 -66t6.5 -91q-9 -47 -32.5 -79t-56 -51t-70.5 -27l-2 -7q63 -9 95.5 -49t16.5 -118q-10 -52 -45.5 -95t-91 -67.5t-127.5 -24.5h-308zM146 84
h199q64 0 106 29.5t53 84.5q11 56 -21.5 85.5t-95.5 29.5h-196z" />
    <glyph glyph-name="C" unicode="C" horiz-adv-x="764" 
d="M59 350q16 79 56 144.5t98 113t126.5 73.5t141.5 26q105 0 178.5 -49t97.5 -141l-87 -29q-13 47 -44.5 76t-73 43t-86.5 14q-71 0 -134.5 -33t-108.5 -94t-62 -144q-16 -82 5 -143t71 -94.5t122 -33.5q46 0 94 15t93 48.5t81 87.5l75 -28q-65 -106 -160 -157.5
t-203 -51.5q-73 0 -131 26t-97 74t-53 113.5t1 143.5z" />
    <glyph glyph-name="D" unicode="D" horiz-adv-x="729" 
d="M409 700q113 0 187.5 -43t104 -122t7.5 -188q-21 -108 -82 -185.5t-152 -119.5t-205 -42h-240l140 700h240zM286 84q132 0 214 69.5t107 193.5q25 126 -29 197.5t-185 71.5h-141l-106 -532h140z" />
    <glyph glyph-name="E" unicode="E" horiz-adv-x="606" 
d="M620 616h-368l-44 -219h276l-17 -84h-276l-45 -229h368l-17 -84h-468l140 700h468z" />
    <glyph glyph-name="F" unicode="F" horiz-adv-x="586" 
d="M169 700h468l-17 -84h-368l-44 -219h276l-17 -84h-276l-62 -313h-100z" />
    <glyph glyph-name="G" unicode="G" horiz-adv-x="767" 
d="M664 486q-23 71 -75 103t-122 32t-134 -34t-110 -94.5t-63 -142.5q-16 -81 5.5 -142t72 -95t120.5 -34q52 0 100 18t88.5 50t66.5 76l16 76h-219l16 82h320l-32 -163q-36 -64 -94 -115t-129.5 -80.5t-149.5 -29.5q-73 0 -132 26t-98 73.5t-53 113t1 144.5q16 78 56 143.5
t98 113.5t127.5 74t142.5 26q67 0 124.5 -22t96.5 -64t54 -103z" />
    <glyph glyph-name="H" unicode="H" horiz-adv-x="710" 
d="M169 700h100l-61 -303h352l61 303h99l-140 -700h-99l62 313h-352l-62 -313h-100z" />
    <glyph glyph-name="I" unicode="I" horiz-adv-x="258" 
d="M169 700h100l-140 -700h-100z" />
    <glyph glyph-name="J" unicode="J" horiz-adv-x="516" 
d="M431 700h99l-100 -507q-13 -60 -47.5 -105t-85 -70t-109.5 -25q-72 0 -112.5 35.5t-47.5 99.5l91 29q2 -23 11.5 -41t27.5 -28.5t47 -10.5q34 0 60 16t42 41.5t22 54.5z" />
    <glyph glyph-name="K" unicode="K" horiz-adv-x="631" 
d="M169 700h100l-61 -303h36l335 303h126l-380 -345l244 -355h-131l-212 313h-35l-62 -313h-100z" />
    <glyph glyph-name="L" unicode="L" horiz-adv-x="525" 
d="M269 700l-123 -616h320l-17 -84h-420l140 700h100z" />
    <glyph glyph-name="M" unicode="M" horiz-adv-x="874" 
d="M129 0h-100l140 700h110l135 -567l362 567h109l-140 -700h-99l101 506l-323 -506h-73l-121 506z" />
    <glyph glyph-name="N" unicode="N" horiz-adv-x="709" 
d="M720 700l-140 -700h-102l-241 542l-108 -542h-100l140 700h102l241 -540l108 540h100z" />
    <glyph glyph-name="O" unicode="O" horiz-adv-x="783" 
d="M341 -7q-74 0 -132.5 26t-97.5 73.5t-53 113t1 144.5q16 78 56 143.5t98 113.5t127.5 74t142.5 26q74 0 132.5 -26t97 -74t52.5 -113.5t-2 -143.5q-15 -79 -55 -144.5t-97.5 -113t-126.5 -73.5t-143 -26zM358 79q72 0 135 33t108 94t61 144q16 84 -4.5 144.5t-70 93.5
t-121.5 33t-135.5 -33t-108 -93.5t-61.5 -144.5q-16 -83 4 -144t70.5 -94t122.5 -33z" />
    <glyph glyph-name="P" unicode="P" horiz-adv-x="622" 
d="M363 367q49 0 83.5 15.5t55 43.5t28.5 65q8 40 -2 67.5t-38 42.5t-77 15h-161l-50 -249h161zM630 491q-10 -51 -43.5 -99t-93.5 -78.5t-147 -30.5h-161l-56 -283h-100l140 700h261q81 0 129 -28.5t65.5 -76t5.5 -104.5z" />
    <glyph glyph-name="Q" unicode="Q" horiz-adv-x="783" 
d="M332 184h100l-57 -284h-100zM341 -7q-73 0 -132 26t-98 73.5t-53 113t1 144.5q16 78 56 143.5t98 113.5t127.5 74t142.5 26q74 0 132.5 -26t97 -74t52.5 -113.5t-2 -143.5q-15 -79 -55 -144.5t-97.5 -113t-126.5 -73.5t-143 -26zM358 79q72 0 135 33t108 94t61 144
q16 84 -4.5 144.5t-70 93.5t-121.5 33t-135.5 -33t-108 -93.5t-61.5 -144.5q-16 -83 4 -144t70.5 -94t122.5 -33z" />
    <glyph glyph-name="R" unicode="R" horiz-adv-x="636" 
d="M529 491q8 39 -1.5 66.5t-38 43t-77.5 15.5h-160l-50 -249h161q73 0 113.5 34t52.5 90zM429 700q82 0 130 -28.5t65.5 -75.5t5.5 -105q-10 -51 -43.5 -99t-93.5 -78.5t-147 -30.5h-161l-56 -283h-100l140 700h260zM416 317l130 -317h-113l-123 317h106z" />
    <glyph glyph-name="S" unicode="S" horiz-adv-x="578" 
d="M126 185q1 -28 14.5 -52t42 -39t75.5 -15q70 0 110 32.5t49 76.5q8 36 -7.5 59.5t-48 40t-76.5 29.5q-38 12 -73.5 25.5t-62.5 34t-38.5 53t-1.5 81.5q12 61 50 105t95 67.5t126 23.5q58 0 100.5 -16.5t68 -47t32.5 -73.5l-97 -33q-2 22 -17.5 41.5t-42.5 31.5t-62 12
q-37 1 -68.5 -11.5t-54 -35.5t-28.5 -55q-7 -35 9 -55t46.5 -33t68.5 -25q38 -13 75.5 -28t66 -38t41 -57.5t2.5 -86.5q-11 -56 -46 -102t-93 -74t-137 -28q-65 0 -113 20t-74.5 55.5t-28.5 82.5z" />
    <glyph glyph-name="T" unicode="T" horiz-adv-x="616" 
d="M129 700h537l-17 -84h-218l-122 -616h-100l122 616h-219z" />
    <glyph glyph-name="U" unicode="U" horiz-adv-x="703" 
d="M165 700h99l-88 -445q-12 -60 3 -99.5t51.5 -58t86.5 -18.5q51 0 94.5 18.5t74 58t42.5 99.5l89 445h99l-88 -443q-13 -68 -45.5 -117.5t-78 -82t-98.5 -48.5t-107 -16q-72 0 -129 28.5t-84 87t-9 148.5z" />
    <glyph glyph-name="V" unicode="V" horiz-adv-x="693" 
d="M651 700h105l-402 -700h-115l-123 700h106l96 -597z" />
    <glyph glyph-name="W" unicode="W" horiz-adv-x="994" 
d="M288 0h-111l-61 700h106l33 -584l276 584h111l44 -582l265 582h106l-338 -700h-112l-50 551z" />
    <glyph glyph-name="X" unicode="X" horiz-adv-x="726" 
d="M142 700h111l146 -270l253 270h110l-323 -350l184 -350h-111l-145 270l-254 -270h-110l324 350z" />
    <glyph glyph-name="Y" unicode="Y" horiz-adv-x="670" 
d="M622 700h111l-347 -440l-51 -260h-100l52 259l-171 441h111l128 -349z" />
    <glyph glyph-name="Z" unicode="Z" horiz-adv-x="597" 
d="M618 624l-481 -540h375l-17 -84h-492l15 76l479 540h-370l17 84h488z" />
    <glyph glyph-name="bracketleft" unicode="[" horiz-adv-x="313" 
d="M185 800h190l-16 -82h-97l-146 -735h97l-17 -83h-190z" />
    <glyph glyph-name="backslash" unicode="\" horiz-adv-x="339" 
d="M269 -100h-98l-62 900h98z" />
    <glyph glyph-name="bracketright" unicode="]" horiz-adv-x="313" 
d="M347 800l-179 -900h-190l16 83h97l146 735h-96l16 82h190z" />
    <glyph glyph-name="asciicircum" unicode="^" horiz-adv-x="669" 
d="M400 579l-246 -329h-102l325 450h93l147 -450h-104z" />
    <glyph glyph-name="underscore" unicode="_" horiz-adv-x="538" 
d="M7 -38h542l-19 -93h-541z" />
    <glyph glyph-name="grave" unicode="`" horiz-adv-x="240" 
d="M119 787l191 -123l-15 -74l-193 113z" />
    <glyph glyph-name="a" unicode="a" horiz-adv-x="527" 
d="M327 0l7 73q-30 -38 -71 -58.5t-99 -20.5q-54 0 -88.5 17.5t-49 49t-5.5 73.5q12 63 67.5 104.5t146.5 51.5l145 16l8 39q6 32 -15.5 54.5t-70.5 22.5q-46 0 -82 -21.5t-56 -63.5l-78 30q32 66 95 103t143 37q93 0 132.5 -47t24.5 -124l-67 -336h-87zM365 229l-141 -17
q-44 -6 -70 -24.5t-32 -48.5q-6 -28 12 -46.5t57 -18.5q48 0 83.5 18t57.5 50.5t31 75.5z" />
    <glyph glyph-name="b" unicode="b" horiz-adv-x="600" 
d="M189 415q30 39 81 65.5t116 26.5q68 0 112.5 -32t61.5 -90t1 -135q-15 -77 -55 -135t-97.5 -90t-125.5 -32q-60 0 -98 24t-56 58l-21 -75h-86l143 720h94l-61 -308zM459 250q17 77 -14 124t-98 47q-40 0 -77.5 -20.5t-65 -58.5t-39.5 -92q-10 -54 2 -92.5t41.5 -58.5
t70.5 -20q45 0 82 21.5t63 60t35 89.5z" />
    <glyph glyph-name="c" unicode="c" horiz-adv-x="553" 
d="M235 -7q-72 0 -120.5 32.5t-68 89.5t-3.5 133q15 77 57.5 135t104.5 91t134 33q77 0 128.5 -36t64.5 -97l-91 -30q-7 35 -38.5 56t-76.5 21t-82.5 -21.5t-63.5 -60t-36 -90.5q-16 -78 15 -124t99 -46q45 0 84.5 20t63.5 55l78 -30q-39 -60 -106 -95.5t-143 -35.5z" />
    <glyph glyph-name="d" unicode="d" horiz-adv-x="604" 
d="M481 415l-11 -3l61 308h95l-143 -720h-86l8 75q-32 -34 -79 -58t-108 -24q-68 0 -112 32t-61.5 90t-1.5 135q15 77 55 135t97 90t125 32q65 0 105 -26.5t56 -65.5zM144 250q-16 -77 15 -124t98 -47q41 0 78 20t64.5 58.5t38.5 92.5t-1.5 92t-41.5 58.5t-70 20.5
q-45 0 -82 -21.5t-63 -60t-36 -89.5z" />
    <glyph glyph-name="e" unicode="e" horiz-adv-x="563" 
d="M238 -7q-72 0 -121 33.5t-68.5 92.5t-4.5 135q14 73 56.5 130t103.5 90t130 33q70 0 118 -30.5t67 -85t4 -125.5q-2 -12 -5.5 -24.5t-8.5 -27.5h-370q-5 -40 8 -70.5t40.5 -47.5t67.5 -17q49 0 90 19.5t62 52.5l77 -29q-42 -61 -106.5 -95t-139.5 -34zM426 295
q7 36 -5 65t-39 45.5t-66 16.5q-34 0 -66 -16.5t-56.5 -45t-38.5 -65.5h271z" />
    <glyph glyph-name="f" unicode="f" horiz-adv-x="323" 
d="M158 556q16 85 68.5 129.5t151.5 34.5l-16 -83q-52 5 -76.5 -16t-32.5 -65l-12 -56h99l-17 -84h-99l-82 -416h-95l83 416h-65l17 84h64z" />
    <glyph glyph-name="g" unicode="g" horiz-adv-x="604" 
d="M496 500h86l-83 -418q-17 -88 -71.5 -151t-139.5 -97t-197 -34l2 83q134 3 213.5 53.5t98.5 145.5l1 5l10 -1q-31 -38 -81 -65.5t-116 -27.5q-67 0 -112 32t-62.5 90t-1.5 135q15 77 55.5 135t98 90t124.5 32q41 0 71.5 -11t51 -29.5t30.5 -41.5zM144 250
q-16 -77 15.5 -124t98.5 -47q41 0 78 20.5t64 59t38 91.5q11 54 -1.5 92t-41 58.5t-69.5 20.5q-45 0 -82.5 -21.5t-63.5 -59.5t-36 -90z" />
    <glyph glyph-name="h" unicode="h" horiz-adv-x="565" 
d="M165 720h94l-54 -275q31 29 71.5 45.5t86.5 16.5q56 0 93.5 -24.5t52 -73t0.5 -120.5l-58 -289h-99l55 277q14 70 -7.5 107t-78.5 37q-58 0 -97 -38t-53 -111l-55 -272h-94z" />
    <glyph glyph-name="i" unicode="i" horiz-adv-x="268" 
d="M137 500h94l-99 -500h-95zM202 588q-27 0 -41.5 18t-9.5 44q5 27 27 45.5t49 18.5q26 0 40.5 -18.5t9.5 -45.5q-6 -26 -27.5 -44t-47.5 -18z" />
    <glyph glyph-name="j" unicode="j" horiz-adv-x="262" 
d="M39 25q-12 -62 -50.5 -99.5t-97.5 -42.5l-2 -83q52 2 103 28.5t89.5 76t51.5 119.5l95 476h-95zM198 588q-26 0 -40.5 18t-10.5 44q6 27 28 45.5t48 18.5q27 0 41.5 -18.5t9.5 -45.5q-5 -26 -27 -44t-49 -18z" />
    <glyph glyph-name="k" unicode="k" horiz-adv-x="538" 
d="M165 720h95l-85 -429h41l228 209h128l-281 -250l183 -250h-129l-145 210h-42l-41 -210h-95z" />
    <glyph glyph-name="l" unicode="l" horiz-adv-x="237" 
d="M165 720h94l-143 -720h-94z" />
    <glyph glyph-name="m" unicode="m" horiz-adv-x="890" 
d="M121 500h86l-4 -58q29 30 68.5 47.5t84.5 17.5q51 0 88.5 -22.5t52.5 -66.5q33 44 83.5 66.5t105.5 22.5q57 0 95.5 -24.5t53 -72.5t-0.5 -120l-57 -290h-95l55 278q14 70 -8.5 106.5t-79.5 36.5q-56 0 -96.5 -38t-55.5 -111l-54 -272h-95l55 278q14 70 -6.5 106.5
t-76.5 36.5q-58 0 -96.5 -38t-52.5 -111l-55 -272h-94z" />
    <glyph glyph-name="n" unicode="n" 
d="M121 500h86l-4 -58q30 31 70 48t85 17q58 0 95.5 -24.5t51.5 -72.5t0 -120l-58 -290h-94l55 278q14 70 -8 106.5t-79 36.5q-58 0 -97 -37.5t-53 -110.5l-55 -273h-94z" />
    <glyph glyph-name="o" unicode="o" horiz-adv-x="589" 
d="M240 -7q-71 0 -121 31.5t-71 89t-5 135.5q16 79 60.5 137t107.5 89.5t134 31.5t122 -31.5t73 -89t6 -135.5q-16 -79 -61 -137t-109 -89.5t-136 -31.5zM256 79q40 0 79 18.5t68.5 56.5t41.5 97q11 58 -3 95.5t-45 56t-71 18.5q-39 0 -76.5 -18.5t-65.5 -56.5t-40 -97
q-12 -58 1 -95.5t42.5 -56t68.5 -18.5z" />
    <glyph glyph-name="p" unicode="p" horiz-adv-x="604" 
d="M123 85l11 3l-58 -288h-94l139 700h86l-8 -75q21 23 49 41.5t63 29.5t75 11q66 0 110.5 -32t62.5 -89.5t2 -135.5q-15 -77 -55 -135t-97.5 -90t-125.5 -32q-64 0 -104 26.5t-56 65.5zM459 250q17 77 -14 124t-98 47q-40 0 -77.5 -20t-65 -58t-39.5 -93q-10 -54 2 -92
t41.5 -58.5t70.5 -20.5q44 0 81.5 21.5t63.5 60t35 89.5z" />
    <glyph glyph-name="q" unicode="q" horiz-adv-x="604" 
d="M415 85q-30 -39 -81.5 -65.5t-115.5 -26.5q-68 0 -112.5 32t-61.5 90t-1 135q16 78 55.5 135.5t97 89.5t124.5 32q41 0 71.5 -11t51 -29.5t31.5 -41.5l22 75h86l-139 -700h-95l57 288zM144 250q-16 -77 15.5 -124t97.5 -47q41 0 78 20.5t64.5 58.5t38.5 92q11 55 -1.5 93
t-41.5 58t-70 20q-45 0 -82 -21.5t-63 -60t-36 -89.5z" />
    <glyph glyph-name="r" unicode="r" horiz-adv-x="363" 
d="M121 500h86l-6 -67q25 26 56.5 43.5t65 24.5t66.5 -1l-18 -89q-30 8 -62.5 2t-61 -25.5t-50 -51.5t-30.5 -77l-52 -259h-94z" />
    <glyph glyph-name="s" unicode="s" horiz-adv-x="480" 
d="M110 158q1 -30 14.5 -47t35.5 -24.5t47 -7.5q46 0 74.5 18t33.5 45q4 23 -8.5 36.5t-36 21.5t-51.5 15q-25 7 -53.5 16t-52.5 24.5t-36 40t-5 62.5q9 45 41 78.5t79 52t102 18.5q64 0 107.5 -27.5t53.5 -82.5l-91 -28q-3 19 -16.5 31t-33 16.5t-39.5 4.5q-39 0 -67 -15
t-33 -44q-3 -16 3 -26.5t19.5 -17t32 -11.5t39.5 -11q30 -9 58.5 -19.5t51.5 -26.5t34 -42t3 -64q-8 -44 -39 -78t-79.5 -53.5t-109.5 -19.5q-74 0 -119 33t-50 102z" />
    <glyph glyph-name="t" unicode="t" horiz-adv-x="357" 
d="M154 500l28 140h95l-28 -140h125l-17 -84h-125l-48 -246q-9 -46 5.5 -65t42.5 -21.5t59 1.5l-16 -81q-43 -9 -81.5 -5.5t-66 22.5t-39 55.5t0.5 93.5l48 246h-72l17 84h72z" />
    <glyph glyph-name="u" unicode="u" 
d="M440 0h-86l6 59q-30 -32 -70.5 -49t-85.5 -17q-58 0 -96 24.5t-52.5 72t0.5 118.5l58 292h94l-56 -280q-14 -69 8 -105t79 -36q58 0 97.5 37t54.5 110l54 274h94z" />
    <glyph glyph-name="v" unicode="v" horiz-adv-x="538" 
d="M175 500l64 -399l225 399h100l-294 -500h-102l-95 500h102z" />
    <glyph glyph-name="w" unicode="w" horiz-adv-x="756" 
d="M221 0h-90l-58 500h96l28 -388l189 388h90l31 -386l181 386h93l-254 -500h-91l-35 363z" />
    <glyph glyph-name="x" unicode="x" horiz-adv-x="508" 
d="M78 500h108l83 -175l152 175h108l-224 -250l124 -250h-107l-83 177l-152 -177h-108l223 250z" />
    <glyph glyph-name="y" unicode="y" horiz-adv-x="529" 
d="M463 500h98l-429 -700h-93l129 210l-100 490h104l70 -379z" />
    <glyph glyph-name="z" unicode="z" horiz-adv-x="478" 
d="M464 423l-331 -339h266l-17 -84h-384l15 77l332 339h-264l17 84h382z" />
    <glyph glyph-name="braceleft" unicode="{" horiz-adv-x="380" 
d="M70 381q36 4 60.5 15.5t38 28t17.5 36.5q6 32 9 70t6.5 77.5t10.5 72.5q11 59 58.5 89t113.5 30h61l-14 -69h-41q-36 0 -57 -13t-27 -43q-5 -29 -8 -67t-6 -76.5t-10 -73.5q-8 -40 -39 -68.5t-89 -38.5l-1 -1q54 -10 73.5 -39t11.5 -69q-6 -34 -18.5 -73t-24 -76
t-18.5 -67q-6 -30 10 -43t51 -13h42l-14 -70h-61q-66 0 -101.5 31t-23.5 89q6 34 18.5 73t25 77.5t18.5 68.5q4 21 -3 37.5t-27 27.5t-55 16z" />
    <glyph glyph-name="bar" unicode="|" horiz-adv-x="290" 
d="M304 800l-179 -900h-100l179 900h100z" />
    <glyph glyph-name="braceright" unicode="}" horiz-adv-x="379" 
d="M362 381l-12 -61q-37 -5 -61 -16t-38 -27.5t-18 -37.5q-6 -30 -9 -68.5t-6.5 -77.5t-9.5 -73q-12 -58 -59.5 -89t-112.5 -31h-62l14 70h42q35 0 56 13t26 43q7 30 10 67t6 76t9 73q8 40 39.5 69t88.5 39l1 1q-55 10 -74 38.5t-11 68.5q7 35 19 73.5t24 76.5t18 67
q6 30 -10 43t-51 13h-42l14 69h62q65 0 100.5 -30t24.5 -89q-7 -33 -19.5 -72.5t-24.5 -77.5t-18 -70q-4 -20 3 -36.5t27 -28t54 -15.5z" />
    <glyph glyph-name="asciitilde" unicode="~" horiz-adv-x="569" 
d="M60 274q30 80 76 117t102 37q29 0 49.5 -10t36.5 -23.5t32.5 -23t38.5 -9.5q25 0 47.5 16.5t32.5 47.5h73q-29 -80 -75.5 -116.5t-102.5 -36.5q-29 0 -49 9.5t-36 23t-32.5 23.5t-38.5 10q-26 0 -48.5 -17.5t-32.5 -47.5h-73z" />
    <glyph glyph-name="uni00A0" unicode="&#xa0;" horiz-adv-x="280" 
 />
    <glyph glyph-name="exclamdown" unicode="&#xa1;" horiz-adv-x="272" 
d="M4 -141l110 498h83l-87 -498h-106zM199 564q27 0 42 -18.5t9 -46.5q-5 -28 -27.5 -46.5t-49.5 -18.5q-28 0 -43 18.5t-9 46.5q5 28 27.5 46.5t50.5 18.5z" />
    <glyph glyph-name="cent" unicode="&#xa2;" horiz-adv-x="553" 
d="M336 600h58l-28 -142h-58zM228 60h59l-32 -160h-58zM235 -7q-72 0 -120.5 32.5t-68 89.5t-3.5 133q15 77 57.5 135t104.5 91t134 33q77 0 128.5 -36t64.5 -97l-91 -30q-7 35 -38.5 56t-76.5 21t-82.5 -21.5t-63.5 -60t-36 -90.5q-16 -78 15 -124t99 -46q45 0 84.5 20
t63.5 55l78 -30q-39 -60 -106 -95.5t-143 -35.5z" />
    <glyph glyph-name="sterling" unicode="&#xa3;" horiz-adv-x="609" 
d="M431 707q74 0 115.5 -29t55.5 -76t5 -104h-91q9 54 -13.5 89.5t-87.5 35.5q-35 0 -66 -13.5t-54 -43t-33 -77.5q-7 -36 -5 -66.5t7.5 -58t8 -55t-3.5 -58.5q-9 -49 -35 -90.5t-68 -78.5h363l-16 -82h-453l-7 55q47 42 77.5 84.5t44.5 111.5q7 33 3.5 58.5t-9 51t-8 57.5
t6.5 76q14 66 51.5 113.5t92.5 73.5t119 26zM460 376l-14 -70h-379l14 70h379z" />
    <glyph glyph-name="currency" unicode="&#xa4;" horiz-adv-x="545" 
d="M332 554q52 0 88.5 -21.5t52.5 -61t5 -94.5q-10 -54 -42 -93.5t-78 -61.5t-97 -22q-79 0 -119 48.5t-24 128.5q11 55 42.5 94.5t76.5 61t95 21.5zM320 492q-40 0 -74 -29.5t-45 -85.5q-12 -56 11 -85t61 -29q25 0 50.5 13t44.5 38.5t27 62.5q7 38 -1.5 63.5t-28.5 38.5
t-45 13zM191 459l-68 84l54 45l69 -86zM400 501l104 87l35 -45l-105 -88zM407 295l67 -82l-54 -45l-67 83zM199 257l-106 -89l-36 45l101 86z" />
    <glyph glyph-name="yen" unicode="&#xa5;" horiz-adv-x="670" 
d="M421 387h190l-14 -72h-204zM79 223h499l-14 -72h-499zM112 387h205l-1 -72h-219zM622 700h111l-347 -440l-51 -260h-100l52 259l-171 441h111l128 -349z" />
    <glyph glyph-name="brokenbar" unicode="&#xa6;" horiz-adv-x="289" 
d="M200 279l-76 -379h-99l76 379h99zM129 422l75 378h99l-74 -378h-100z" />
    <glyph glyph-name="section" unicode="&#xa7;" horiz-adv-x="461" 
d="M137 582q7 34 31 62.5t62.5 45.5t87.5 17q68 0 106 -33.5t26 -95.5h-75q3 20 -3 37t-21.5 27.5t-43.5 10.5q-38 0 -63 -16.5t-31 -48.5q-6 -28 15 -47t86 -44q43 -16 72.5 -35.5t42 -46t5.5 -65.5q-7 -33 -29 -61.5t-58.5 -48.5t-86.5 -29l13 30q28 -12 51.5 -28
t34.5 -38.5t5 -55.5q-7 -34 -31 -63t-62.5 -46t-86.5 -17q-68 0 -106 33.5t-27 95.5h75q-3 -21 3 -38t21.5 -27t44.5 -10q37 0 62 16.5t31 48.5q4 19 -3.5 33t-30.5 27.5t-67 30.5q-43 16 -72.5 35.5t-42 47t-4.5 64.5q7 34 28.5 63t58 49t85.5 25l-12 -28q-29 13 -52 29
t-34 38.5t-5 55.5zM357 350q7 37 -17 62t-74 25t-82.5 -26t-39.5 -61q-7 -36 16.5 -61.5t73.5 -25.5t83 26t40 61z" />
    <glyph glyph-name="dieresis" unicode="&#xa8;" horiz-adv-x="301" 
d="M141 621q-24 0 -36.5 16t-7.5 39q4 23 23 39.5t43 16.5q22 0 35.5 -16.5t8.5 -39.5q-4 -23 -23.5 -39t-42.5 -16zM307 621q-24 0 -36.5 16t-7.5 39q4 23 23 39.5t43 16.5q22 0 35.5 -16.5t8.5 -39.5q-4 -23 -23.5 -39t-42.5 -16z" />
    <glyph glyph-name="copyright" unicode="&#xa9;" horiz-adv-x="802" 
d="M493 707q103 0 171.5 -46t96.5 -127t7 -185q-15 -78 -53.5 -143.5t-94 -113t-124 -73.5t-145.5 -26q-104 0 -173 45.5t-97.5 125.5t-7.5 185q16 78 54 143.5t94 113.5t125 74.5t147 26.5zM484 665q-93 0 -168.5 -39.5t-127 -111t-70.5 -165.5q-18 -94 5 -164.5t83 -110
t153 -39.5q69 0 129 22.5t108 64.5t80 99.5t46 127.5q19 94 -3.5 165.5t-82 111t-152.5 39.5zM365 90q-72 0 -120.5 32t-68 89.5t-4.5 133.5q16 77 58.5 135t104 91t134.5 33q76 0 128 -36t65 -97l-91 -30q-7 35 -38.5 56t-77.5 21q-45 0 -82.5 -21.5t-63 -60t-36.5 -90.5
q-15 -78 16 -124t99 -46q45 0 84.5 20t63.5 55l79 -30q-40 -60 -107 -95.5t-143 -35.5z" />
    <glyph glyph-name="ordfeminine" unicode="&#xaa;" horiz-adv-x="456" 
d="M89 530q11 53 41 93.5t72 63t89 22.5q49 0 77.5 -18.5t40.5 -43.5l11 56h78l-70 -350h-78l11 55q-21 -25 -57 -43t-82 -18q-48 0 -82 23.5t-48 65t-3 94.5zM169 529q-11 -57 15 -89t68 -32q44 0 83 31.5t50 88.5t-15 88.5t-70 31.5q-42 0 -80.5 -31t-50.5 -88z" />
    <glyph glyph-name="guillemotleft" unicode="&#xab;" horiz-adv-x="463" 
d="M197 75h-97l-60 175l129 175h97l-133 -175zM381 75h-97l-60 175l129 175h97l-132 -175z" />
    <glyph glyph-name="logicalnot" unicode="&#xac;" horiz-adv-x="649" 
d="M72 433h566l-44 -218h-99l28 140h-466z" />
    <glyph glyph-name="uni00AD" unicode="&#xad;" horiz-adv-x="507" 
d="M66 320h404l-17 -84h-404z" />
    <glyph glyph-name="registered" unicode="&#xae;" horiz-adv-x="517" 
d="M103 501q12 60 48 106t87.5 73t111.5 27q59 0 100 -27t58 -73t5 -106t-47.5 -106.5t-87 -73.5t-111.5 -27t-100.5 27t-58 73.5t-5.5 106.5zM149 501q-10 -48 2 -85t44 -58t81 -21t89 21t67 58t37 85q10 49 -3 85.5t-44.5 57.5t-80.5 21t-89 -21t-66.5 -57.5t-36.5 -85.5z
M248 611l-43 -215h56l16 77h41q34 0 59 19.5t31 49.5q6 31 -11 50t-51 19h-98zM321 396h68l-46 99l-61 -1zM332 560q9 0 15 -4.5t5 -15.5q-2 -10 -10 -15t-18 -5h-38l8 40h38z" />
    <glyph glyph-name="macron" unicode="&#xaf;" horiz-adv-x="381" 
d="M104 713h357l-15 -74h-357z" />
    <glyph glyph-name="degree" unicode="&#xb0;" horiz-adv-x="407" 
d="M78 525q11 55 42.5 94t76 60t96.5 21q78 0 119 -47t25 -128q-10 -54 -41.5 -93t-77 -60.5t-97.5 -21.5q-79 0 -119 47.5t-24 127.5zM357 525q12 59 -12 88t-65 29q-40 0 -75.5 -29t-47.5 -88q-11 -59 12 -87.5t64 -28.5q39 0 76 28.5t48 87.5z" />
    <glyph glyph-name="plusminus" unicode="&#xb1;" horiz-adv-x="731" 
d="M482 601l-91 -457h-93l91 457h93zM148 436h509l-17 -83h-509zM98 183h509l-17 -84h-509z" />
    <glyph glyph-name="uni00B2" unicode="&#xb2;" horiz-adv-x="340" 
d="M106 600q11 47 50.5 77t101.5 30q40 0 66 -15.5t36.5 -40.5t4.5 -55q-5 -26 -18 -47t-36.5 -40.5t-59.5 -42.5l-119 -79l3 27h196l-12 -64h-262l12 57l126 87q34 23 57.5 45t29.5 53q5 26 -6.5 40.5t-32.5 14.5q-22 0 -37 -12.5t-21 -34.5h-79z" />
    <glyph glyph-name="uni00B3" unicode="&#xb3;" horiz-adv-x="358" 
d="M110 607q8 29 30.5 51.5t55.5 35.5t73 13q57 0 90 -30t24 -74q-6 -31 -27.5 -49.5t-49.5 -26.5l-1 -2q25 -9 40 -30.5t8 -53.5q-7 -41 -52 -69.5t-108 -28.5q-61 0 -93 28t-25 80h78q-2 -26 12 -38t39 -12t44 13.5t24 36.5q4 23 -10 37t-41 14h-40l10 51h38
q27 0 45.5 11.5t23.5 34.5q4 22 -8 35t-38 13t-42.5 -11t-24.5 -29h-75z" />
    <glyph glyph-name="acute" unicode="&#xb4;" horiz-adv-x="240" 
d="M334 787l-17 -86l-238 -111l15 74z" />
    <glyph glyph-name="uni00B5" unicode="&#xb5;" horiz-adv-x="597" 
d="M476 0h-99l14 71q-33 -39 -78.5 -59t-93.5 -20q-19 0 -36.5 4.5t-32 13.5t-23.5 23l-47 -233h-98l139 700h98l-54 -275q-10 -49 -0.5 -82t35 -49.5t64.5 -16.5q57 0 100 37t57 111l55 275h99z" />
    <glyph glyph-name="paragraph" unicode="&#xb6;" horiz-adv-x="617" 
d="M628 700l-139 -700h-89l123 622h-73l-123 -622h-88l57 291h-11q-83 0 -129.5 27.5t-62.5 74t-4 102.5q11 57 45.5 103.5t92.5 74t139 27.5h262z" />
    <glyph glyph-name="periodcentered" unicode="&#xb7;" horiz-adv-x="235" 
d="M122 273q-27 0 -42 19t-10 46q6 28 28.5 47t49.5 19t42 -19t10 -47q-6 -27 -28.5 -46t-49.5 -19z" />
    <glyph glyph-name="cedilla" unicode="&#xb8;" horiz-adv-x="269" 
d="M67 -54q37 0 64 -11.5t39.5 -34t5.5 -56.5q-7 -32 -27.5 -55.5t-51 -36.5t-66.5 -13h-121l13 64h102q29 0 46.5 9t21.5 32q5 23 -8.5 32t-43.5 9h-53l24 122h67z" />
    <glyph glyph-name="uni00B9" unicode="&#xb9;" horiz-adv-x="211" 
d="M159 642h-54l11 58h132l-70 -350h-78z" />
    <glyph glyph-name="ordmasculine" unicode="&#xba;" horiz-adv-x="439" 
d="M88 528q11 56 43.5 96.5t79.5 62.5t100 22t91 -22t55 -62.5t6 -96.5q-12 -54 -45 -95t-80.5 -63.5t-99.5 -22.5q-54 0 -91.5 22.5t-53.5 63.5t-5 95zM381 527q12 60 -15 90.5t-68 30.5q-42 0 -80 -30.5t-50 -90.5q-11 -58 14 -88t68 -30q41 0 80.5 30t50.5 88z" />
    <glyph glyph-name="guillemotright" unicode="&#xbb;" horiz-adv-x="463" 
d="M197 75l132 175l-62 175h97l60 -175l-130 -175h-97zM13 75l132 175l-62 175h96l60 -175l-130 -175h-96z" />
    <glyph glyph-name="onequarter" unicode="&#xbc;" horiz-adv-x="651" 
d="M534 700h94l-520 -700h-95zM593 119l-10 -51h-46l-14 -68h-79l14 68h-184l10 45l203 240h107l-47 -234h46zM470 119l34 170l-141 -170h107zM159 641h-54l11 58h132l-70 -350h-78z" />
    <glyph glyph-name="onehalf" unicode="&#xbd;" horiz-adv-x="689" 
d="M531 700h95l-520 -700h-94zM159 641h-54l11 58h132l-70 -350h-78zM373 250q11 47 51 77t102 30q40 0 65.5 -15.5t36.5 -40.5t5 -55q-5 -26 -18.5 -47t-37 -40.5t-58.5 -42.5l-119 -79l2 27h197l-13 -64h-261l11 57l126 87q35 23 58.5 45t29.5 53q4 26 -7 40.5t-32 14.5
q-22 0 -36.5 -12.5t-22.5 -34.5h-79z" />
    <glyph glyph-name="threequarters" unicode="&#xbe;" horiz-adv-x="725" 
d="M614 700h94l-519 -700h-93zM672 119l-9 -51h-47l-13 -68h-79l14 68h-184l9 45l203 240h107l-47 -234h46zM549 119l34 170l-140 -170h106zM101 607q9 29 31 51.5t55 35.5t73 13q56 0 90 -30t25 -74q-6 -31 -27.5 -49.5t-50.5 -26.5v-2q24 -9 39 -30.5t9 -53.5
q-8 -41 -53 -69.5t-108 -28.5q-61 0 -93 28t-25 80h78q-1 -26 12.5 -38t38.5 -12t44 13.5t24 36.5t-9.5 37t-40.5 14h-41l10 51h39q26 0 45 11.5t23 34.5q4 22 -8 35t-38 13t-42.5 -11t-24.5 -29h-75z" />
    <glyph glyph-name="questiondown" unicode="&#xbf;" horiz-adv-x="547" 
d="M195 -156q-66 0 -111.5 25t-64.5 72t-6 110q15 73 54.5 118t98 66t127.5 21l21 90h86l-27 -158h-30q-43 0 -80.5 -5t-68 -19.5t-51 -41.5t-29.5 -71q-11 -56 14 -88.5t83 -32.5t98.5 31t52.5 87h93q-12 -60 -48.5 -106t-91 -72t-120.5 -26zM395 558q27 0 42 -19t9 -47
q-5 -27 -27.5 -46t-49.5 -19t-42 19t-10 46q5 28 28 47t50 19z" />
    <glyph glyph-name="Agrave" unicode="&#xc0;" horiz-adv-x="692" 
d="M437 616h-35l-342 -616h-102l391 700h173l113 -700h-102zM140 262h407l-16 -84h-408zM369 949l191 -124l-15 -74l-193 113z" />
    <glyph glyph-name="Aacute" unicode="&#xc1;" horiz-adv-x="692" 
d="M437 616h-35l-342 -616h-102l391 700h173l113 -700h-102zM140 262h407l-16 -84h-408zM584 949l-17 -87l-237 -111l15 74z" />
    <glyph glyph-name="Acircumflex" unicode="&#xc2;" horiz-adv-x="692" 
d="M437 616h-35l-342 -616h-102l391 700h173l113 -700h-102zM140 262h407l-16 -84h-408zM587 755l-123 86l-157 -86l16 79l156 84l124 -84z" />
    <glyph glyph-name="Atilde" unicode="&#xc3;" horiz-adv-x="692" 
d="M437 616h-35l-342 -616h-102l391 700h173l113 -700h-102zM140 262h407l-16 -84h-408zM292 760q19 54 52 81t74 27q20 0 33.5 -6.5t24.5 -15.5t22 -16t26 -7q17 0 30.5 10t20.5 32h57q-18 -54 -51.5 -81t-74.5 -27q-20 0 -34 7t-24.5 16t-21.5 16t-26 7q-16 0 -30 -10.5
t-21 -32.5h-57z" />
    <glyph glyph-name="Adieresis" unicode="&#xc4;" horiz-adv-x="692" 
d="M437 616h-35l-342 -616h-102l391 700h173l113 -700h-102zM140 262h407l-16 -84h-408zM369 782q-24 0 -36.5 16t-7.5 39t23.5 39.5t42.5 16.5q23 0 36 -16.5t9 -39.5q-5 -23 -24.5 -39t-42.5 -16zM535 782q-24 0 -36.5 16t-7.5 39t23.5 39.5t42.5 16.5q23 0 36 -16.5
t9 -39.5q-5 -23 -24.5 -39t-42.5 -16z" />
    <glyph glyph-name="Aring" unicode="&#xc5;" horiz-adv-x="692" 
d="M437 616h-35l-342 -616h-102l391 700h173l113 -700h-102zM140 262h407l-16 -84h-408zM576 854q-10 -49 -47.5 -78t-83.5 -29q-44 0 -70.5 29t-16.5 78q10 50 47.5 79t82.5 29t71.5 -29t16.5 -79zM519 855q5 25 -7.5 39.5t-34.5 14.5q-21 0 -39 -14.5t-23 -39.5t7 -39.5
t34 -14.5t40 14.5t23 39.5z" />
    <glyph glyph-name="AE" unicode="&#xc6;" horiz-adv-x="899" 
d="M635 616l-43 -219h187l-17 -85h-187l-45 -228h277l-17 -84h-377l35 177h-249l-133 -177h-108l529 700h442l-17 -84h-277zM262 262h203l72 365z" />
    <glyph glyph-name="Ccedilla" unicode="&#xc7;" horiz-adv-x="765" 
d="M59 350q16 79 56 144.5t98 113t126.5 73.5t141.5 26q105 0 178.5 -49t97.5 -141l-87 -29q-13 47 -44.5 76t-73 43t-86.5 14q-71 0 -134.5 -33t-108.5 -94t-62 -144q-16 -82 5 -143t71 -94.5t122 -33.5q46 0 94 15t93 48.5t81 87.5l75 -28q-65 -106 -160 -157.5
t-203 -51.5q-73 0 -131 26t-97 74t-53 113.5t1 143.5zM365 -54q37 0 64 -11.5t39.5 -34t5.5 -56.5q-7 -33 -27.5 -56.5t-51 -36.5t-66.5 -13h-121l13 64h102q29 0 46.5 9t21.5 33q5 23 -8.5 32t-43.5 9h-53l24 122h67z" />
    <glyph glyph-name="Egrave" unicode="&#xc8;" horiz-adv-x="606" 
d="M620 616h-368l-44 -219h276l-17 -84h-276l-45 -229h368l-17 -84h-468l140 700h468zM335 949l191 -124l-15 -74l-193 113z" />
    <glyph glyph-name="Eacute" unicode="&#xc9;" horiz-adv-x="606" 
d="M620 616h-368l-44 -219h276l-17 -84h-276l-45 -229h368l-17 -84h-468l140 700h468zM551 949l-17 -87l-238 -111l15 74z" />
    <glyph glyph-name="Ecircumflex" unicode="&#xca;" horiz-adv-x="606" 
d="M620 616h-368l-44 -219h276l-17 -84h-276l-45 -229h368l-17 -84h-468l140 700h468zM553 755l-122 86l-158 -86l16 79l157 84l123 -84z" />
    <glyph glyph-name="Edieresis" unicode="&#xcb;" horiz-adv-x="606" 
d="M620 616h-368l-44 -219h276l-17 -84h-276l-45 -229h368l-17 -84h-468l140 700h468zM335 782q-23 0 -36 16t-8 39t24 39.5t43 16.5q22 0 35 -16.5t9 -39.5q-5 -23 -24 -39t-43 -16zM501 782q-23 0 -35.5 16t-8.5 39q5 23 24 39.5t43 16.5q22 0 35 -16.5t9 -39.5
q-5 -23 -24.5 -39t-42.5 -16z" />
    <glyph glyph-name="Igrave" unicode="&#xcc;" horiz-adv-x="374" 
d="M236 700h100l-140 -700h-100zM218 949l191 -124l-15 -74l-193 113z" />
    <glyph glyph-name="Iacute" unicode="&#xcd;" horiz-adv-x="374" 
d="M236 700h100l-140 -700h-100zM433 949l-16 -87l-238 -111l15 74z" />
    <glyph glyph-name="Icircumflex" unicode="&#xce;" horiz-adv-x="439" 
d="M260 700h100l-140 -700h-100zM460 755l-123 86l-158 -86l16 79l157 84l123 -84z" />
    <glyph glyph-name="Idieresis" unicode="&#xcf;" horiz-adv-x="435" 
d="M258 700h100l-140 -700h-100zM240 782q-23 0 -36 16t-8 39q4 23 23.5 39.5t42.5 16.5t36 -16.5t9 -39.5q-5 -23 -24.5 -39t-42.5 -16zM406 782q-23 0 -36 16t-8 39q4 23 23.5 39.5t42.5 16.5t36 -16.5t9 -39.5q-5 -23 -24.5 -39t-42.5 -16z" />
    <glyph glyph-name="Eth" unicode="&#xd0;" horiz-adv-x="771" 
d="M88 394h82l62 306h221q113 0 187 -43t103.5 -122t7.5 -188q-21 -108 -81.5 -185.5t-151.5 -119.5t-205 -42h-221l60 302h-83zM208 76h121q130 -1 213 73t107 198q25 126 -28.5 199t-183.5 73h-121l-45 -225h187l-19 -92h-186z" />
    <glyph glyph-name="Ntilde" unicode="&#xd1;" horiz-adv-x="709" 
d="M720 700l-140 -700h-102l-241 542l-108 -542h-100l140 700h102l241 -540l108 540h100zM311 760q18 54 51.5 81t74.5 27q20 0 33.5 -6.5t24 -15.5t21.5 -16t27 -7t30 10t21 32h57q-18 -54 -52 -81t-74 -27q-21 0 -34.5 7t-24 16t-21.5 16t-26 7q-17 0 -30.5 -10.5
t-21.5 -32.5h-56z" />
    <glyph glyph-name="Ograve" unicode="&#xd2;" horiz-adv-x="783" 
d="M341 -7q-73 0 -132 26t-98 73.5t-53 113t1 144.5q16 78 56 143.5t98 113.5t127.5 74t142.5 26q74 0 132.5 -26t97 -74t52.5 -113.5t-2 -143.5q-15 -79 -55 -144.5t-97.5 -113t-126.5 -73.5t-143 -26zM358 79q72 0 135 33t108 94t61 144q16 84 -4.5 144.5t-70 93.5
t-121.5 33t-135.5 -33t-108 -93.5t-61.5 -144.5q-16 -83 4 -144t70.5 -94t122.5 -33zM416 949l191 -124l-15 -74l-193 113z" />
    <glyph glyph-name="Oacute" unicode="&#xd3;" horiz-adv-x="783" 
d="M341 -7q-73 0 -132 26t-98 73.5t-53 113t1 144.5q16 78 56 143.5t98 113.5t127.5 74t142.5 26q74 0 132.5 -26t97 -74t52.5 -113.5t-2 -143.5q-15 -79 -55 -144.5t-97.5 -113t-126.5 -73.5t-143 -26zM358 79q72 0 135 33t108 94t61 144q16 84 -4.5 144.5t-70 93.5
t-121.5 33t-135.5 -33t-108 -93.5t-61.5 -144.5q-16 -83 4 -144t70.5 -94t122.5 -33zM631 949l-17 -87l-237 -111l15 74z" />
    <glyph glyph-name="Ocircumflex" unicode="&#xd4;" horiz-adv-x="783" 
d="M341 -7q-73 0 -132 26t-98 73.5t-53 113t1 144.5q16 78 56 143.5t98 113.5t127.5 74t142.5 26q74 0 132.5 -26t97 -74t52.5 -113.5t-2 -143.5q-15 -79 -55 -144.5t-97.5 -113t-126.5 -73.5t-143 -26zM358 79q72 0 135 33t108 94t61 144q16 84 -4.5 144.5t-70 93.5
t-121.5 33t-135.5 -33t-108 -93.5t-61.5 -144.5q-16 -83 4 -144t70.5 -94t122.5 -33zM634 755l-123 86l-157 -86l16 79l156 84l124 -84z" />
    <glyph glyph-name="Otilde" unicode="&#xd5;" horiz-adv-x="783" 
d="M341 -7q-73 0 -132 26t-98 73.5t-53 113t1 144.5q16 78 56 143.5t98 113.5t127.5 74t142.5 26q74 0 132.5 -26t97 -74t52.5 -113.5t-2 -143.5q-15 -79 -55 -144.5t-97.5 -113t-126.5 -73.5t-143 -26zM358 79q72 0 135 33t108 94t61 144q16 84 -4.5 144.5t-70 93.5
t-121.5 33t-135.5 -33t-108 -93.5t-61.5 -144.5q-16 -83 4 -144t70.5 -94t122.5 -33zM339 760q19 54 52 81t74 27q20 0 33.5 -6.5t24.5 -15.5t22 -16t26 -7q17 0 30.5 10t20.5 32h57q-18 -54 -51.5 -81t-74.5 -27q-20 0 -34 7t-24.5 16t-21.5 16t-26 7q-16 0 -30 -10.5
t-21 -32.5h-57z" />
    <glyph glyph-name="Odieresis" unicode="&#xd6;" horiz-adv-x="783" 
d="M341 -7q-74 0 -132.5 26t-97.5 73.5t-53 113t1 144.5q16 78 56 143.5t98 113.5t127.5 74t142.5 26q74 0 132.5 -26t97 -74t52.5 -113.5t-2 -143.5q-15 -79 -55 -144.5t-97.5 -113t-126.5 -73.5t-143 -26zM358 79q72 0 135 33t108 94t61 144q16 84 -4.5 144.5t-70 93.5
t-121.5 33t-135.5 -33t-108 -93.5t-61.5 -144.5q-16 -83 4 -144t70.5 -94t122.5 -33zM416 782q-24 0 -36.5 16t-7.5 39t23.5 39.5t42.5 16.5t36.5 -16.5t8.5 -39.5q-5 -23 -24.5 -39t-42.5 -16zM582 782q-24 0 -36.5 16t-7.5 39t23.5 39.5t42.5 16.5q23 0 36 -16.5t9 -39.5
q-5 -23 -24.5 -39t-42.5 -16z" />
    <glyph glyph-name="multiply" unicode="&#xd7;" horiz-adv-x="560" 
d="M190 570l300 -375l-77 -64l-300 376zM49 196l449 374l52 -65l-449 -374z" />
    <glyph glyph-name="Oslash" unicode="&#xd8;" horiz-adv-x="783" 
d="M642 608l71 -42l-513 -460l-71 42zM341 -7q-73 0 -132 26t-98 73.5t-53 113t1 144.5q16 78 56 143.5t98 113.5t127.5 74t142.5 26q74 0 132.5 -26t97 -74t52.5 -113.5t-2 -143.5q-15 -79 -55 -144.5t-97.5 -113t-126.5 -73.5t-143 -26zM358 79q72 0 135 33t108 94t61 144
q16 84 -4.5 144.5t-70 93.5t-121.5 33t-135.5 -33t-108 -93.5t-61.5 -144.5q-16 -83 4 -144t70.5 -94t122.5 -33z" />
    <glyph glyph-name="Ugrave" unicode="&#xd9;" horiz-adv-x="702" 
d="M165 700h99l-88 -445q-12 -60 3 -99.5t51.5 -58t86.5 -18.5q51 0 94.5 18.5t74 58t42.5 99.5l89 445h99l-88 -443q-13 -68 -45.5 -117.5t-78 -82t-98.5 -48.5t-107 -16q-72 0 -129 28.5t-84 87t-9 148.5zM373 949l191 -124l-14 -74l-194 113z" />
    <glyph glyph-name="Uacute" unicode="&#xda;" horiz-adv-x="702" 
d="M165 700h99l-88 -445q-12 -60 3 -99.5t51.5 -58t86.5 -18.5q51 0 94.5 18.5t74 58t42.5 99.5l89 445h99l-88 -443q-13 -68 -45.5 -117.5t-78 -82t-98.5 -48.5t-107 -16q-72 0 -129 28.5t-84 87t-9 148.5zM589 949l-18 -87l-237 -111l14 74z" />
    <glyph glyph-name="Ucircumflex" unicode="&#xdb;" horiz-adv-x="703" 
d="M165 700h99l-88 -445q-12 -60 3 -99.5t51.5 -58t86.5 -18.5q51 0 94.5 18.5t74 58t42.5 99.5l89 445h99l-88 -443q-13 -68 -45.5 -117.5t-78 -82t-98.5 -48.5t-107 -16q-72 0 -129 28.5t-84 87t-9 148.5zM591 755l-123 86l-157 -86l15 79l157 84l124 -84z" />
    <glyph glyph-name="Udieresis" unicode="&#xdc;" horiz-adv-x="703" 
d="M165 700h99l-88 -445q-12 -60 3 -99.5t51.5 -58t86.5 -18.5q51 0 94.5 18.5t74 58t42.5 99.5l89 445h99l-88 -443q-13 -68 -45.5 -117.5t-78 -82t-98.5 -48.5t-107 -16q-72 0 -129 28.5t-84 87t-9 148.5zM373 782q-24 0 -36.5 16t-7.5 39t24 39.5t43 16.5q22 0 35 -16.5
t9 -39.5q-5 -23 -24.5 -39t-42.5 -16zM539 782q-24 0 -36.5 16t-7.5 39t24 39.5t43 16.5q22 0 35 -16.5t9 -39.5q-5 -23 -24.5 -39t-42.5 -16z" />
    <glyph glyph-name="Yacute" unicode="&#xdd;" horiz-adv-x="670" 
d="M622 700h111l-347 -440l-51 -260h-100l52 259l-171 441h111l128 -349zM572 949l-17 -87l-237 -111l14 74z" />
    <glyph glyph-name="Thorn" unicode="&#xde;" horiz-adv-x="592" 
d="M304 224q74 0 114 34.5t52 91.5q12 59 -14.5 93t-100.5 34h-131l-51 -253h131zM572 350q-10 -52 -43.5 -98.5t-93 -76t-146.5 -29.5h-131l-30 -146h-99l140 700h98l-29 -145h132q83 0 131 -27t65 -74t6 -104z" />
    <glyph glyph-name="germandbls" unicode="&#xdf;" horiz-adv-x="632" 
d="M122 507q11 54 42 99.5t83.5 73t128.5 27.5q68 0 109 -23t57 -59.5t8 -76.5q-7 -34 -24.5 -56.5t-40 -38.5t-43.5 -31q-21 -14 -35.5 -27.5t-16.5 -26.5q-4 -16 12 -29t69 -32q65 -23 86.5 -67t10.5 -99q-13 -66 -68.5 -107t-140.5 -41q-81 0 -123.5 44t-33.5 125h101
q-6 -41 12.5 -65t59.5 -24q37 0 60 15t30 46q6 30 -6.5 56t-56.5 41q-68 24 -96 52t-19 73q7 37 34 62.5t56 48.5q27 19 46.5 33.5t24.5 40.5q8 38 -16 60.5t-73 22.5q-43 0 -72.5 -16t-46.5 -45t-25 -67l-99 -496h-94z" />
    <glyph glyph-name="agrave" unicode="&#xe0;" horiz-adv-x="527" 
d="M327 0l7 73q-30 -38 -71 -58.5t-99 -20.5q-54 0 -88.5 17.5t-49 49t-5.5 73.5q12 63 67.5 104.5t146.5 51.5l145 16l8 39q6 32 -15.5 54.5t-70.5 22.5q-46 0 -82 -21.5t-56 -63.5l-78 30q32 66 95 103t143 37q93 0 132.5 -47t24.5 -124l-67 -336h-87zM365 229l-141 -17
q-44 -6 -70 -24.5t-32 -48.5q-6 -28 12 -46.5t57 -18.5q48 0 83.5 18t57.5 50.5t31 75.5zM258 721l171 -110l-13 -65l-173 101z" />
    <glyph glyph-name="aacute" unicode="&#xe1;" horiz-adv-x="527" 
d="M327 0l7 73q-30 -38 -71 -58.5t-99 -20.5q-54 0 -88.5 17.5t-49 49t-5.5 73.5q12 63 67.5 104.5t146.5 51.5l145 16l8 39q6 32 -15.5 54.5t-70.5 22.5q-46 0 -82 -21.5t-56 -63.5l-78 30q32 66 95 103t143 37q93 0 132.5 -47t24.5 -124l-67 -336h-87zM365 229l-141 -17
q-44 -6 -70 -24.5t-32 -48.5q-6 -28 12 -46.5t57 -18.5q48 0 83.5 18t57.5 50.5t31 75.5zM451 721l-16 -76l-212 -99l13 65z" />
    <glyph glyph-name="acircumflex" unicode="&#xe2;" horiz-adv-x="527" 
d="M327 0l7 73q-30 -38 -71 -58.5t-99 -20.5q-54 0 -88.5 17.5t-49 49t-5.5 73.5q12 63 67.5 104.5t146.5 51.5l145 16l8 39q6 32 -15.5 54.5t-70.5 22.5q-46 0 -82 -21.5t-56 -63.5l-78 30q32 66 95 103t143 37q93 0 132.5 -47t24.5 -124l-67 -336h-87zM365 229l-141 -17
q-44 -6 -70 -24.5t-32 -48.5q-6 -28 12 -46.5t57 -18.5q48 0 83.5 18t57.5 50.5t31 75.5zM453 550l-110 76l-140 -76l13 70l141 74l110 -74z" />
    <glyph glyph-name="atilde" unicode="&#xe3;" horiz-adv-x="527" 
d="M327 0l7 73q-30 -38 -71 -58.5t-99 -20.5q-54 0 -88.5 17.5t-49 49t-5.5 73.5q12 63 67.5 104.5t146.5 51.5l145 16l8 39q6 32 -15.5 54.5t-70.5 22.5q-46 0 -82 -21.5t-56 -63.5l-78 30q32 66 95 103t143 37q93 0 132.5 -47t24.5 -124l-67 -336h-87zM365 229l-141 -17
q-44 -6 -70 -24.5t-32 -48.5q-6 -28 12 -46.5t57 -18.5q48 0 83.5 18t57.5 50.5t31 75.5zM188 554q17 48 47.5 72t66.5 24q24 0 38 -10t26 -20t31 -10q14 0 26.5 9t19.5 28h51q-17 -49 -47 -72.5t-66 -23.5q-24 0 -38.5 10t-26.5 20.5t-30 10.5q-15 0 -27 -9.5t-19 -28.5
h-52z" />
    <glyph glyph-name="adieresis" unicode="&#xe4;" horiz-adv-x="527" 
d="M327 0l7 73q-30 -38 -71 -58.5t-99 -20.5q-54 0 -88.5 17.5t-49 49t-5.5 73.5q12 63 67.5 104.5t146.5 51.5l145 16l8 39q6 32 -15.5 54.5t-70.5 22.5q-46 0 -82 -21.5t-56 -63.5l-78 30q32 66 95 103t143 37q93 0 132.5 -47t24.5 -124l-67 -336h-87zM365 229l-141 -17
q-44 -6 -70 -24.5t-32 -48.5q-6 -28 12 -46.5t57 -18.5q48 0 83.5 18t57.5 50.5t31 75.5zM258 573q-21 0 -32.5 14t-7.5 35t21.5 35.5t38.5 14.5q20 0 31.5 -14.5t7.5 -35.5t-21.5 -35t-37.5 -14zM407 573q-21 0 -32.5 14t-7.5 35t21 35.5t38 14.5t32.5 -14.5t7.5 -35.5
t-21.5 -35t-37.5 -14z" />
    <glyph glyph-name="aring" unicode="&#xe5;" horiz-adv-x="527" 
d="M327 0l7 73q-30 -38 -71 -58.5t-99 -20.5q-54 0 -88.5 17.5t-49 49t-5.5 73.5q12 63 67.5 104.5t146.5 51.5l145 16l8 39q6 32 -15.5 54.5t-70.5 22.5q-46 0 -82 -21.5t-56 -63.5l-78 30q32 66 95 103t143 37q93 0 132.5 -47t24.5 -124l-67 -336h-87zM365 229l-141 -17
q-44 -6 -70 -24.5t-32 -48.5q-6 -28 12 -46.5t57 -18.5q48 0 83.5 18t57.5 50.5t31 75.5zM443 637q-9 -44 -42.5 -69.5t-74.5 -25.5q-39 0 -63 25.5t-15 69.5q9 45 42.5 70.5t73.5 25.5q41 0 64.5 -25.5t14.5 -70.5zM392 638q4 23 -6.5 35.5t-30.5 12.5q-19 0 -35 -12.5
t-21 -35.5q-4 -22 6.5 -35t30.5 -13q19 0 35.5 13t20.5 35z" />
    <glyph glyph-name="ae" unicode="&#xe6;" horiz-adv-x="882" 
d="M555 -7q-72 0 -118 32.5t-63.5 91t-1.5 136.5q23 118 98 186t185 68q72 0 119 -30.5t65 -84.5t4 -125q-2 -12 -5.5 -25t-9.5 -28h-370q-6 -44 7 -74t40 -45.5t65 -15.5q55 0 93.5 17.5t63.5 54.5l76 -29q-40 -58 -102 -93.5t-146 -35.5zM747 295q8 41 -4 69.5t-40 43
t-67 14.5q-34 0 -65.5 -15t-55.5 -43t-38 -69h270zM413 199l-6 -72q-28 -50 -69.5 -79t-87 -42t-86.5 -13q-50 0 -85.5 16t-51 47.5t-6.5 77.5q8 40 29.5 68t51.5 46t64.5 28t68.5 14l146 19l7 36q6 30 -14.5 53.5t-71.5 23.5q-44 0 -81 -21t-57 -64l-78 30q32 66 93.5 103
t144.5 37q92 0 132.5 -47.5t25.5 -123.5l-21 -102zM365 229l-138 -17q-48 -5 -73.5 -24.5t-31.5 -48.5q-7 -32 15 -46.5t58 -14.5q41 0 76 16.5t59 48t32 74.5z" />
    <glyph glyph-name="ccedilla" unicode="&#xe7;" horiz-adv-x="553" 
d="M235 -7q-72 0 -120.5 32.5t-68 89.5t-3.5 133q15 77 57.5 135t104.5 91t134 33q77 0 128.5 -36t64.5 -97l-91 -30q-7 35 -38.5 56t-76.5 21t-82.5 -21.5t-63.5 -60t-36 -90.5q-16 -78 15 -124t99 -46q45 0 84.5 20t63.5 55l78 -30q-39 -60 -106 -95.5t-143 -35.5z
M254 -44q33 0 57 -10t35 -30.5t5 -50.5q-5 -29 -24 -50t-46.5 -32.5t-58.5 -11.5h-109l12 57h90q27 0 42.5 8t19.5 29q5 21 -7.5 29t-39.5 8h-47l22 109h59z" />
    <glyph glyph-name="egrave" unicode="&#xe8;" horiz-adv-x="563" 
d="M238 -7q-72 0 -121 33.5t-68.5 92.5t-4.5 135q14 73 56.5 130t103.5 90t130 33q70 0 118 -30.5t67 -85t4 -125.5q-2 -12 -5.5 -24.5t-8.5 -27.5h-370q-5 -40 8 -70.5t40.5 -47.5t67.5 -17q49 0 90 19.5t62 52.5l77 -29q-42 -61 -106.5 -95t-139.5 -34zM426 295
q7 36 -5 65t-39 45.5t-66 16.5q-34 0 -66 -16.5t-56.5 -45t-38.5 -65.5h271zM275 721l171 -110l-13 -65l-173 101z" />
    <glyph glyph-name="eacute" unicode="&#xe9;" horiz-adv-x="563" 
d="M238 -7q-72 0 -121 33.5t-68.5 92.5t-4.5 135q14 73 56.5 130t103.5 90t130 33q70 0 118 -30.5t67 -85t4 -125.5q-2 -12 -5.5 -24.5t-8.5 -27.5h-370q-5 -40 8 -70.5t40.5 -47.5t67.5 -17q49 0 90 19.5t62 52.5l77 -29q-42 -61 -106.5 -95t-139.5 -34zM426 295
q7 36 -5 65t-39 45.5t-66 16.5q-34 0 -66 -16.5t-56.5 -45t-38.5 -65.5h271zM468 721l-15 -76l-213 -99l14 65z" />
    <glyph glyph-name="ecircumflex" unicode="&#xea;" horiz-adv-x="563" 
d="M238 -7q-72 0 -121 33.5t-68.5 92.5t-4.5 135q14 73 56.5 130t103.5 90t130 33q70 0 118 -30.5t67 -85t4 -125.5q-2 -12 -5.5 -24.5t-8.5 -27.5h-370q-5 -40 8 -70.5t40.5 -47.5t67.5 -17q49 0 90 19.5t62 52.5l77 -29q-42 -61 -106.5 -95t-139.5 -34zM426 295
q7 36 -5 65t-39 45.5t-66 16.5q-34 0 -66 -16.5t-56.5 -45t-38.5 -65.5h271zM471 550l-111 76l-140 -76l14 70l140 74l110 -74z" />
    <glyph glyph-name="edieresis" unicode="&#xeb;" horiz-adv-x="563" 
d="M238 -7q-72 0 -121 33.5t-68.5 92.5t-4.5 135q14 73 56.5 130t103.5 90t130 33q70 0 118 -30.5t67 -85t4 -125.5q-2 -12 -5.5 -24.5t-8.5 -27.5h-370q-5 -40 8 -70.5t40.5 -47.5t67.5 -17q49 0 90 19.5t62 52.5l77 -29q-42 -61 -106.5 -95t-139.5 -34zM426 295
q7 36 -5 65t-39 45.5t-66 16.5q-34 0 -66 -16.5t-56.5 -45t-38.5 -65.5h271zM276 573q-21 0 -33 14t-7 35q4 21 21 35.5t38 14.5t32.5 -14.5t7.5 -35.5t-21.5 -35t-37.5 -14zM424 573q-21 0 -32.5 14t-6.5 35q3 21 20.5 35.5t38.5 14.5q20 0 32 -14.5t8 -35.5
q-5 -21 -22 -35t-38 -14z" />
    <glyph glyph-name="igrave" unicode="&#xec;" horiz-adv-x="336" 
d="M175 500h100l-99 -500h-100zM164 718l172 -110l-14 -65l-172 100z" />
    <glyph glyph-name="iacute" unicode="&#xed;" horiz-adv-x="336" 
d="M175 500h100l-99 -500h-100zM357 718l-15 -76l-213 -99l14 65z" />
    <glyph glyph-name="icircumflex" unicode="&#xee;" horiz-adv-x="394" 
d="M196 500h100l-99 -500h-100zM381 547l-110 76l-141 -76l14 70l140 74l111 -74z" />
    <glyph glyph-name="idieresis" unicode="&#xef;" horiz-adv-x="390" 
d="M195 500h100l-100 -500h-99zM184 570q-21 0 -32 14t-7 35q3 20 20.5 35t38.5 15q20 0 32 -15t8 -35q-4 -21 -21.5 -35t-38.5 -14zM333 570q-21 0 -32 14t-8 35q5 20 22 35t38 15q20 0 32 -15t8 -35q-5 -21 -22 -35t-38 -14z" />
    <glyph glyph-name="eth" unicode="&#xf0;" horiz-adv-x="595" 
d="M596 676l-11 -58l-68 -21q38 -70 48 -150t-6 -160q-19 -97 -66 -163t-111.5 -99t-138.5 -33q-73 0 -123.5 32t-71 91t-4.5 137q15 78 59 135.5t106 89.5t131 32q30 0 54.5 -6.5t43.5 -19.5t33 -33q-6 28 -16 58.5t-25 61.5l-134 -42l12 58l96 30q-13 22 -30 43t-37 41
h105q27 -26 48 -57zM260 76q40 0 79.5 20t69.5 59t42 96q11 58 -3 96.5t-45.5 58t-72.5 19.5q-40 0 -78.5 -19.5t-66.5 -58t-39 -95.5q-18 -87 17.5 -131.5t96.5 -44.5z" />
    <glyph glyph-name="ntilde" unicode="&#xf1;" 
d="M121 500h86l-4 -58q30 31 70 48t85 17q58 0 95.5 -24.5t51.5 -72.5t0 -120l-58 -290h-94l55 278q14 70 -8 106.5t-79 36.5q-58 0 -97 -37.5t-53 -110.5l-55 -273h-94zM216 554q16 48 46 72t67 24q24 0 37.5 -10t26 -20t30.5 -10q15 0 27.5 9t19.5 28h50
q-16 -49 -46 -72.5t-67 -23.5q-24 0 -38 10t-26 20.5t-30 10.5q-16 0 -28 -9.5t-19 -28.5h-50z" />
    <glyph glyph-name="ograve" unicode="&#xf2;" horiz-adv-x="589" 
d="M240 -7q-71 0 -121 31.5t-71 89t-5 135.5q16 79 60.5 137t107.5 89.5t134 31.5t122 -31.5t73 -89t6 -135.5q-16 -79 -61 -137t-109 -89.5t-136 -31.5zM256 79q40 0 79 18.5t68.5 56.5t41.5 97q11 58 -3 95.5t-45 56t-71 18.5q-39 0 -76.5 -18.5t-65.5 -56.5t-40 -97
q-12 -58 1 -95.5t42.5 -56t68.5 -18.5zM287 721l171 -110l-13 -65l-173 101z" />
    <glyph glyph-name="oacute" unicode="&#xf3;" horiz-adv-x="589" 
d="M240 -7q-71 0 -121 31.5t-71 89t-5 135.5q16 79 60.5 137t107.5 89.5t134 31.5t122 -31.5t73 -89t6 -135.5q-16 -79 -61 -137t-109 -89.5t-136 -31.5zM256 79q40 0 79 18.5t68.5 56.5t41.5 97q11 58 -3 95.5t-45 56t-71 18.5q-39 0 -76.5 -18.5t-65.5 -56.5t-40 -97
q-12 -58 1 -95.5t42.5 -56t68.5 -18.5zM480 721l-15 -76l-213 -99l13 65z" />
    <glyph glyph-name="ocircumflex" unicode="&#xf4;" horiz-adv-x="589" 
d="M240 -7q-71 0 -121 31.5t-71 89t-5 135.5q16 79 60.5 137t107.5 89.5t134 31.5t122 -31.5t73 -89t6 -135.5q-16 -79 -61 -137t-109 -89.5t-136 -31.5zM256 79q40 0 79 18.5t68.5 56.5t41.5 97q11 58 -3 95.5t-45 56t-71 18.5q-39 0 -76.5 -18.5t-65.5 -56.5t-40 -97
q-12 -58 1 -95.5t42.5 -56t68.5 -18.5zM482 550l-110 76l-140 -76l14 70l139 74l111 -74z" />
    <glyph glyph-name="otilde" unicode="&#xf5;" horiz-adv-x="589" 
d="M240 -7q-71 0 -121 31.5t-71 89t-5 135.5q16 79 60.5 137t107.5 89.5t134 31.5t122 -31.5t73 -89t6 -135.5q-16 -79 -61 -137t-109 -89.5t-136 -31.5zM256 79q40 0 79 18.5t68.5 56.5t41.5 97q11 58 -3 95.5t-45 56t-71 18.5q-39 0 -76.5 -18.5t-65.5 -56.5t-40 -97
q-12 -58 1 -95.5t42.5 -56t68.5 -18.5zM218 554q17 48 47 72t66 24q24 0 38 -10t26 -20t31 -10q15 0 27.5 9t18.5 28h51q-16 -49 -46.5 -72.5t-66.5 -23.5q-25 0 -38.5 10t-26 20.5t-30.5 10.5q-15 0 -27 -9.5t-19 -28.5h-51z" />
    <glyph glyph-name="odieresis" unicode="&#xf6;" horiz-adv-x="589" 
d="M240 -7q-71 0 -121 31.5t-71 89t-5 135.5q16 79 60.5 137t107.5 89.5t134 31.5t122 -31.5t73 -89t6 -135.5q-16 -79 -61 -137t-109 -89.5t-136 -31.5zM256 79q40 0 79 18.5t68.5 56.5t41.5 97q11 58 -3 95.5t-45 56t-71 18.5q-39 0 -76.5 -18.5t-65.5 -56.5t-40 -97
q-12 -58 1 -95.5t42.5 -56t68.5 -18.5zM288 573q-22 0 -33.5 14t-6.5 35q4 21 21 35.5t38 14.5q20 0 32 -14.5t8 -35.5t-21.5 -35t-37.5 -14zM436 573q-21 0 -32.5 14t-6.5 35q3 21 20.5 35.5t38.5 14.5q20 0 32 -14.5t8 -35.5q-5 -21 -22.5 -35t-37.5 -14z" />
    <glyph glyph-name="divide" unicode="&#xf7;" horiz-adv-x="629" 
d="M87 392h510l-16 -84h-510zM284 70q-27 0 -42 19t-10 46q6 28 28.5 47t50.5 19q27 0 41.5 -19t9.5 -47q-6 -27 -28 -46t-50 -19zM370 500q-28 0 -42.5 18.5t-9.5 46.5t27.5 46.5t50.5 18.5q27 0 42 -18.5t10 -46.5q-6 -28 -28.5 -46.5t-49.5 -18.5z" />
    <glyph glyph-name="oslash" unicode="&#xf8;" horiz-adv-x="589" 
d="M464 447l59 -49l-376 -339l-60 50zM240 -7q-71 0 -121 31.5t-71 89t-5 135.5q16 79 60.5 137t107.5 89.5t134 31.5t122 -31.5t73 -89t6 -135.5q-16 -79 -61 -137t-109 -89.5t-136 -31.5zM256 79q40 0 79 18.5t68.5 56.5t41.5 97q11 58 -3 95.5t-45 56t-71 18.5
q-39 0 -76.5 -18.5t-65.5 -56.5t-40 -97q-12 -58 1 -95.5t42.5 -56t68.5 -18.5z" />
    <glyph glyph-name="ugrave" unicode="&#xf9;" 
d="M440 0h-86l6 59q-30 -32 -70.5 -49t-85.5 -17q-58 0 -96 24.5t-52.5 72t0.5 118.5l58 292h94l-56 -280q-14 -69 8 -105t79 -36q58 0 97.5 37t54.5 110l54 274h94zM260 721l172 -110l-14 -65l-172 101z" />
    <glyph glyph-name="uacute" unicode="&#xfa;" 
d="M440 0h-86l6 59q-30 -32 -70.5 -49t-85.5 -17q-58 0 -96 24.5t-52.5 72t0.5 118.5l58 292h94l-56 -280q-14 -69 8 -105t79 -36q58 0 97.5 37t54.5 110l54 274h94zM453 721l-15 -76l-213 -99l13 65z" />
    <glyph glyph-name="ucircumflex" unicode="&#xfb;" 
d="M440 0h-86l6 59q-30 -32 -70.5 -49t-85.5 -17q-58 0 -96 24.5t-52.5 72t0.5 118.5l58 292h94l-56 -280q-14 -69 8 -105t79 -36q58 0 97.5 37t54.5 110l54 274h94zM455 550l-110 76l-140 -76l14 70l140 74l110 -74z" />
    <glyph glyph-name="udieresis" unicode="&#xfc;" 
d="M440 0h-86l6 59q-30 -32 -70.5 -49t-85.5 -17q-58 0 -96 24.5t-52.5 72t0.5 118.5l58 292h94l-56 -280q-14 -69 8 -105t79 -36q58 0 97.5 37t54.5 110l54 274h94zM260 573q-21 0 -32 14t-7 35t21 35.5t38 14.5q20 0 32 -14.5t8 -35.5t-21.5 -35t-38.5 -14zM409 573
q-21 0 -32 14t-7 35t21 35.5t38 14.5q20 0 32 -14.5t8 -35.5t-22 -35t-38 -14z" />
    <glyph glyph-name="yacute" unicode="&#xfd;" horiz-adv-x="529" 
d="M463 500h98l-429 -700h-93l129 210l-100 490h104l70 -379zM447 721l-16 -76l-213 -99l14 65z" />
    <glyph glyph-name="thorn" unicode="&#xfe;" horiz-adv-x="620" 
d="M75 -205h-94l183 921h94l-60 -300q33 40 82.5 66.5t110.5 26.5q68 0 115 -32t67 -89.5t5 -134.5q-15 -78 -58.5 -136.5t-103.5 -91.5t-128 -33q-39 0 -70 12.5t-52 34.5t-32 50zM477 253q11 54 -3.5 92t-45.5 57.5t-73 19.5q-41 0 -80 -20t-68.5 -58.5t-40.5 -92.5t3 -93
t45 -59.5t73 -20.5q41 0 80.5 21t69 60t40.5 94z" />
    <glyph glyph-name="ydieresis" unicode="&#xff;" horiz-adv-x="529" 
d="M463 500h98l-429 -700h-93l129 210l-100 490h104l70 -379zM254 573q-21 0 -32.5 14t-7.5 35q5 21 22 35.5t37 14.5q21 0 32.5 -14.5t7.5 -35.5t-21.5 -35t-37.5 -14zM402 573q-20 0 -31.5 14t-7.5 35t21 35.5t38 14.5q20 0 32 -14.5t8 -35.5t-21.5 -35t-38.5 -14z" />
    <glyph glyph-name="Amacron" unicode="&#x100;" horiz-adv-x="692" 
d="M437 616h-35l-342 -616h-102l391 700h173l113 -700h-102zM140 262h407l-16 -84h-408zM290 865h357l-15 -75h-357z" />
    <glyph glyph-name="amacron" unicode="&#x101;" horiz-adv-x="527" 
d="M327 0l7 73q-30 -38 -71 -58.5t-99 -20.5q-54 0 -88.5 17.5t-49 49t-5.5 73.5q12 63 67.5 104.5t146.5 51.5l145 16l8 39q6 32 -15.5 54.5t-70.5 22.5q-46 0 -82 -21.5t-56 -63.5l-78 30q32 66 95 103t143 37q93 0 132.5 -47t24.5 -124l-67 -336h-87zM365 229l-141 -17
q-44 -6 -70 -24.5t-32 -48.5q-6 -28 12 -46.5t57 -18.5q48 0 83.5 18t57.5 50.5t31 75.5zM187 647h320l-13 -67h-320z" />
    <glyph glyph-name="Abreve" unicode="&#x102;" horiz-adv-x="692" 
d="M437 616h-35l-342 -616h-102l391 700h173l113 -700h-102zM140 262h407l-16 -84h-408zM620 895q-7 -39 -30 -69t-59 -47.5t-83 -17.5q-46 0 -75 17.5t-40 48t-3 69.5l3 19h58q-7 -35 8.5 -55.5t64.5 -20.5q48 0 71.5 20.5t30.5 55.5h58z" />
    <glyph glyph-name="abreve" unicode="&#x103;" horiz-adv-x="527" 
d="M327 0l7 73q-30 -38 -71 -58.5t-99 -20.5q-54 0 -88.5 17.5t-49 49t-5.5 73.5q12 63 67.5 104.5t146.5 51.5l145 16l8 39q6 32 -15.5 54.5t-70.5 22.5q-46 0 -82 -21.5t-56 -63.5l-78 30q32 66 95 103t143 37q93 0 132.5 -47t24.5 -124l-67 -336h-87zM365 229l-141 -17
q-44 -6 -70 -24.5t-32 -48.5q-6 -28 12 -46.5t57 -18.5q48 0 83.5 18t57.5 50.5t31 75.5zM483 674q-7 -34 -27.5 -61.5t-52.5 -42.5t-75 -15q-41 0 -66.5 15.5t-35.5 43t-3 60.5l3 17h52q-6 -31 7.5 -49t56.5 -18q44 0 65 18t27 49h52z" />
    <glyph glyph-name="Aogonek" unicode="&#x104;" horiz-adv-x="692" 
d="M582 51l16 -51l-58 -26q-36 -16 -52 -33.5t-20 -35.5q-5 -23 8 -36t40 -13q14 0 31.5 3.5t35.5 10.5l-12 -64q-19 -7 -39.5 -11t-41.5 -4q-31 0 -58 10t-41 33t-7 60q5 25 21 48t47.5 45.5t79.5 43.5zM437 616h-35l-342 -616h-102l391 700h173l113 -700h-102zM140 262
h408l-17 -84h-408z" />
    <glyph glyph-name="aogonek" unicode="&#x105;" horiz-adv-x="532" 
d="M327 0l7 73q-30 -38 -71 -58.5t-99 -20.5q-54 0 -88.5 17.5t-49 49t-5.5 73.5q12 63 67.5 104.5t146.5 51.5l145 16l8 39q6 32 -15.5 54.5t-70.5 22.5q-46 0 -82 -21.5t-56 -63.5l-78 30q32 66 95 103t143 37q93 0 132.5 -47t24.5 -124l-67 -336h-87zM365 229l-141 -17
q-44 -6 -70 -24.5t-32 -48.5q-6 -28 12 -46.5t57 -18.5q48 0 83.5 18t57.5 50.5t31 75.5zM394 46l14 -46l-51 -23q-33 -16 -47.5 -30.5t-17.5 -31.5q-4 -20 7.5 -31t34.5 -11q27 0 62 12l-12 -58q-16 -6 -35 -9.5t-37 -3.5q-28 0 -52 9t-36.5 29t-6.5 53q6 34 36.5 64.5
t95.5 57.5z" />
    <glyph glyph-name="Cacute" unicode="&#x106;" horiz-adv-x="765" 
d="M59 350q16 79 56 144.5t98 113t126.5 73.5t141.5 26q105 0 178.5 -49t97.5 -141l-87 -29q-13 47 -44.5 76t-73 43t-86.5 14q-71 0 -134.5 -33t-108.5 -94t-62 -144q-16 -82 5 -143t71 -94.5t122 -33.5q46 0 94 15t93 48.5t81 87.5l75 -28q-65 -106 -160 -157.5
t-203 -51.5q-73 0 -131 26t-97 74t-53 113.5t1 143.5zM630 949l-17 -87l-237 -111l15 74z" />
    <glyph glyph-name="cacute" unicode="&#x107;" horiz-adv-x="553" 
d="M235 -7q-72 0 -120.5 32.5t-68 89.5t-3.5 133q15 77 57.5 135t104.5 91t134 33q77 0 128.5 -36t64.5 -97l-91 -30q-7 35 -38.5 56t-76.5 21t-82.5 -21.5t-63.5 -60t-36 -90.5q-16 -78 15 -124t99 -46q45 0 84.5 20t63.5 55l78 -30q-39 -60 -106 -95.5t-143 -35.5z
M462 721l-15 -76l-213 -99l13 65z" />
    <glyph glyph-name="Ccircumflex" unicode="&#x108;" horiz-adv-x="764" 
d="M59 350q16 79 56 144.5t98 113t126.5 73.5t141.5 26q105 0 178.5 -49t97.5 -141l-87 -29q-13 47 -44.5 76t-73 43t-86.5 14q-71 0 -134.5 -33t-108.5 -94t-62 -144q-16 -82 5 -143t71 -94.5t122 -33.5q46 0 94 15t93 48.5t81 87.5l75 -28q-65 -106 -160 -157.5
t-203 -51.5q-73 0 -131 26t-97 74t-53 113.5t1 143.5zM633 755l-123 85l-157 -85l15 79l157 82l123 -82z" />
    <glyph glyph-name="ccircumflex" unicode="&#x109;" horiz-adv-x="553" 
d="M235 -7q-72 0 -120.5 32.5t-68 89.5t-3.5 133q15 77 57.5 135t104.5 91t134 33q77 0 128.5 -36t64.5 -97l-91 -30q-7 35 -38.5 56t-76.5 21t-82.5 -21.5t-63.5 -60t-36 -90.5q-16 -78 15 -124t99 -46q45 0 84.5 20t63.5 55l78 -30q-39 -60 -106 -95.5t-143 -35.5z
M480 555l-123 85l-157 -85l16 79l156 82l124 -82z" />
    <glyph glyph-name="Cdotaccent" unicode="&#x10a;" horiz-adv-x="765" 
d="M59 350q16 79 56 144.5t98 113t126.5 73.5t141.5 26q105 0 178.5 -49t97.5 -141l-87 -29q-13 47 -44.5 76t-73 43t-86.5 14q-71 0 -134.5 -33t-108.5 -94t-62 -144q-16 -82 5 -143t71 -94.5t122 -33.5q46 0 94 15t93 48.5t81 87.5l75 -28q-65 -106 -160 -157.5
t-203 -51.5q-73 0 -131 26t-97 74t-53 113.5t1 143.5zM497 779q-23 0 -35.5 15.5t-8.5 39.5q5 23 24 39t43 16q23 0 36 -16t8 -39q-5 -24 -24 -39.5t-43 -15.5z" />
    <glyph glyph-name="cdotaccent" unicode="&#x10b;" horiz-adv-x="553" 
d="M235 -7q-72 0 -120.5 32.5t-68 89.5t-3.5 133q15 77 57.5 135t104.5 91t134 33q77 0 128.5 -36t64.5 -97l-91 -30q-7 35 -38.5 56t-76.5 21t-82.5 -21.5t-63.5 -60t-36 -90.5q-16 -78 15 -124t99 -46q45 0 84.5 20t63.5 55l78 -30q-39 -60 -106 -95.5t-143 -35.5z
M343 570q-21 0 -32.5 14t-7.5 35t21.5 35.5t37.5 14.5q21 0 33 -14.5t7 -35.5q-4 -21 -21.5 -35t-37.5 -14z" />
    <glyph glyph-name="Ccaron" unicode="&#x10c;" horiz-adv-x="765" 
d="M59 350q16 79 56 144.5t98 113t126.5 73.5t141.5 26q105 0 178.5 -49t97.5 -141l-87 -29q-13 47 -44.5 76t-73 43t-86.5 14q-71 0 -134.5 -33t-108.5 -94t-62 -144q-16 -82 5 -143t71 -94.5t122 -33.5q46 0 94 15t93 48.5t81 87.5l75 -28q-65 -106 -160 -157.5
t-203 -51.5q-73 0 -131 26t-97 74t-53 113.5t1 143.5zM665 917l-16 -79l-156 -83l-124 83l16 79l123 -86z" />
    <glyph glyph-name="ccaron" unicode="&#x10d;" horiz-adv-x="553" 
d="M235 -7q-72 0 -120.5 32.5t-68 89.5t-3.5 133q15 77 57.5 135t104.5 91t134 33q77 0 128.5 -36t64.5 -97l-91 -30q-7 35 -38.5 56t-76.5 21t-82.5 -21.5t-63.5 -60t-36 -90.5q-16 -78 15 -124t99 -46q45 0 84.5 20t63.5 55l78 -30q-39 -60 -106 -95.5t-143 -35.5z
M493 694l-14 -71l-140 -74l-111 74l14 71l110 -77z" />
    <glyph glyph-name="Dcaron" unicode="&#x10e;" horiz-adv-x="729" 
d="M409 700q113 0 187.5 -43t104 -122t7.5 -188q-21 -108 -82 -185.5t-152 -119.5t-205 -42h-240l140 700h240zM286 84q132 0 214 69.5t107 193.5q25 126 -29 197.5t-185 71.5h-141l-106 -532h140zM615 917l-16 -79l-157 -83l-123 83l16 79l123 -86z" />
    <glyph glyph-name="dcaron" unicode="&#x10f;" horiz-adv-x="765" 
d="M765 672q0 -26 -1 -48.5t-5 -41.5q-11 -55 -43 -82t-85 -27l10 49q23 0 35.5 11.5t16.5 33.5l4 15h-45l17 90h96zM481 415l-11 -3l61 308h95l-143 -720h-86l8 75q-32 -34 -79 -58t-108 -24q-68 0 -112 32t-61.5 90t-1.5 135q15 77 55 135t97 90t125 32q65 0 105 -26.5
t56 -65.5zM144 250q-16 -77 15 -124t98 -47q41 0 78 20t64.5 58.5t38.5 92.5t-1.5 92t-41.5 58.5t-70 20.5q-45 0 -82 -21.5t-63 -60t-36 -89.5z" />
    <glyph glyph-name="Dcroat" unicode="&#x110;" horiz-adv-x="791" 
d="M108 394h82l62 306h221q113 0 187 -43t103.5 -122t7.5 -188q-21 -108 -81.5 -185.5t-151.5 -119.5t-205 -42h-221l60 302h-83zM228 76h121q130 -1 213 73t107 198q25 126 -28.5 199t-183.5 73h-121l-45 -225h187l-19 -92h-186z" />
    <glyph glyph-name="dcroat" unicode="&#x111;" horiz-adv-x="676" 
d="M426 598h245l-11 -61h-246zM481 415l-11 -3l61 308h95l-143 -720h-86l8 75q-32 -34 -79 -58t-108 -24q-68 0 -112 32t-61.5 90t-1.5 135q15 77 55 135t97 90t125 32q65 0 105 -26.5t56 -65.5zM144 250q-16 -77 15 -124t98 -47q41 0 78 20t64.5 58.5t38.5 92.5t-1.5 92
t-41.5 58.5t-70 20.5q-45 0 -82 -21.5t-63 -60t-36 -89.5z" />
    <glyph glyph-name="Emacron" unicode="&#x112;" horiz-adv-x="606" 
d="M620 616h-368l-44 -219h276l-17 -84h-276l-45 -229h368l-17 -84h-468l140 700h468zM257 865h357l-15 -75h-357z" />
    <glyph glyph-name="emacron" unicode="&#x113;" horiz-adv-x="563" 
d="M238 -7q-72 0 -121 33.5t-68.5 92.5t-4.5 135q14 73 56.5 130t103.5 90t130 33q70 0 118 -30.5t67 -85t4 -125.5q-2 -12 -5.5 -24.5t-8.5 -27.5h-370q-5 -40 8 -70.5t40.5 -47.5t67.5 -17q49 0 90 19.5t62 52.5l77 -29q-42 -61 -106.5 -95t-139.5 -34zM426 295
q7 36 -5 65t-39 45.5t-66 16.5q-34 0 -66 -16.5t-56.5 -45t-38.5 -65.5h271zM205 647h320l-14 -67h-319z" />
    <glyph glyph-name="Ebreve" unicode="&#x114;" horiz-adv-x="606" 
d="M620 616h-368l-44 -219h276l-17 -84h-276l-45 -229h368l-17 -84h-468l140 700h468zM587 895q-8 -39 -31 -69t-59 -47.5t-82 -17.5q-47 0 -75.5 17.5t-40 48t-3.5 69.5l4 19h58q-7 -35 8.5 -55.5t63.5 -20.5t71.5 20.5t30.5 55.5h59z" />
    <glyph glyph-name="ebreve" unicode="&#x115;" horiz-adv-x="563" 
d="M238 -7q-72 0 -121 33.5t-68.5 92.5t-4.5 135q14 73 56.5 130t103.5 90t130 33q70 0 118 -30.5t67 -85t4 -125.5q-2 -12 -5.5 -24.5t-8.5 -27.5h-370q-5 -40 8 -70.5t40.5 -47.5t67.5 -17q49 0 90 19.5t62 52.5l77 -29q-42 -61 -106.5 -95t-139.5 -34zM426 295
q7 36 -5 65t-39 45.5t-66 16.5q-34 0 -66 -16.5t-56.5 -45t-38.5 -65.5h271zM501 674q-7 -34 -27.5 -61.5t-53 -42.5t-74.5 -15q-41 0 -67 15.5t-35.5 43t-3.5 60.5l4 17h51q-6 -31 8 -49t57 -18t64 18t27 49h53z" />
    <glyph glyph-name="Edotaccent" unicode="&#x116;" horiz-adv-x="606" 
d="M620 616h-368l-44 -219h276l-17 -84h-276l-45 -229h368l-17 -84h-468l140 700h468zM418 779q-23 0 -36 15.5t-9 39.5q5 23 24 39t43 16q23 0 36 -16t8 -39q-5 -24 -24 -39.5t-42 -15.5z" />
    <glyph glyph-name="edotaccent" unicode="&#x117;" horiz-adv-x="563" 
d="M238 -7q-72 0 -121 33.5t-68.5 92.5t-4.5 135q14 73 56.5 130t103.5 90t130 33q70 0 118 -30.5t67 -85t4 -125.5q-2 -12 -5.5 -24.5t-8.5 -27.5h-370q-5 -40 8 -70.5t40.5 -47.5t67.5 -17q49 0 90 19.5t62 52.5l77 -29q-42 -61 -106.5 -95t-139.5 -34zM426 295
q7 36 -5 65t-39 45.5t-66 16.5q-34 0 -66 -16.5t-56.5 -45t-38.5 -65.5h271zM349 570q-21 0 -32.5 14t-7.5 35q5 21 22 35.5t38 14.5q20 0 32 -14.5t7 -35.5q-3 -21 -20.5 -35t-38.5 -14z" />
    <glyph glyph-name="Eogonek" unicode="&#x118;" horiz-adv-x="606" 
d="M620 616h-368l-44 -219h276l-17 -84h-276l-45 -229h368l-17 -84h-467l139 700h468zM431 51l16 -51l-57 -26q-37 -17 -53 -34t-20 -35q-4 -23 8.5 -35.5t39.5 -12.5q14 0 32 3.5t36 10.5l-13 -65q-19 -7 -39.5 -10.5t-41.5 -3.5q-30 0 -57.5 9.5t-41.5 32t-7 60.5
q5 25 21.5 48.5t47.5 45.5t79 43z" />
    <glyph glyph-name="eogonek" unicode="&#x119;" horiz-adv-x="563" 
d="M238 -7q-72 0 -121 33.5t-68.5 92.5t-4.5 135q14 73 56.5 130t103.5 90t130 33q70 0 118 -30.5t67 -85t4 -125.5q-2 -12 -5.5 -24.5t-8.5 -27.5h-370q-5 -40 8 -70.5t40.5 -47.5t67.5 -17q49 0 90 19.5t62 52.5l77 -29q-42 -61 -106.5 -95t-139.5 -34zM426 295
q7 36 -5 65t-39 45.5t-66 16.5q-34 0 -66 -16.5t-56.5 -45t-38.5 -65.5h271zM301 50l15 -46l-52 -24q-33 -15 -47 -30t-18 -31q-4 -20 7.5 -31.5t35.5 -11.5q27 0 61 13l-12 -58q-16 -6 -34.5 -9.5t-37.5 -3.5q-27 0 -51.5 9t-37.5 29t-6 53t37 63.5t96 58.5z" />
    <glyph glyph-name="Ecaron" unicode="&#x11a;" horiz-adv-x="606" 
d="M620 616h-368l-44 -219h276l-17 -84h-276l-45 -229h368l-17 -84h-468l140 700h468zM586 917l-16 -79l-157 -83l-123 83l16 79l123 -86z" />
    <glyph glyph-name="ecaron" unicode="&#x11b;" horiz-adv-x="563" 
d="M238 -7q-72 0 -121 33.5t-68.5 92.5t-4.5 135q14 73 56.5 130t103.5 90t130 33q70 0 118 -30.5t67 -85t4 -125.5q-2 -12 -5.5 -24.5t-8.5 -27.5h-370q-5 -40 8 -70.5t40.5 -47.5t67.5 -17q49 0 90 19.5t62 52.5l77 -29q-42 -61 -106.5 -95t-139.5 -34zM426 295
q7 36 -5 65t-39 45.5t-66 16.5q-34 0 -66 -16.5t-56.5 -45t-38.5 -65.5h271zM499 694l-13 -71l-141 -74l-111 74l14 71l111 -77z" />
    <glyph glyph-name="Gcircumflex" unicode="&#x11c;" horiz-adv-x="768" 
d="M664 486q-23 71 -75 103t-122 32t-134 -34t-110 -94.5t-63 -142.5q-16 -81 5.5 -142t72 -95t120.5 -34q52 0 100 18t88.5 50t66.5 76l16 76h-219l16 82h320l-32 -163q-36 -64 -94 -115t-129.5 -80.5t-149.5 -29.5q-73 0 -132 26t-98 73.5t-53 113t1 144.5q16 78 56 143.5
t98 113.5t127.5 74t142.5 26q67 0 124.5 -22t96.5 -64t54 -103zM630 755l-124 85l-156 -85l15 79l157 82l123 -82z" />
    <glyph glyph-name="gcircumflex" unicode="&#x11d;" horiz-adv-x="604" 
d="M496 500h86l-83 -418q-17 -88 -71.5 -151t-139.5 -97t-197 -34l2 83q134 3 213.5 53.5t98.5 145.5l1 5l10 -1q-31 -38 -81 -65.5t-116 -27.5q-67 0 -112 32t-62.5 90t-1.5 135q15 77 55.5 135t98 90t124.5 32q41 0 71.5 -11t51 -29.5t30.5 -41.5zM144 250
q-16 -77 15.5 -124t98.5 -47q41 0 78 20.5t64 59t38 91.5q11 54 -1.5 92t-41 58.5t-69.5 20.5q-45 0 -82.5 -21.5t-63.5 -59.5t-36 -90zM499 555l-123 85l-157 -85l16 79l156 82l124 -82z" />
    <glyph glyph-name="Gbreve" unicode="&#x11e;" horiz-adv-x="768" 
d="M664 486q-23 71 -75 103t-122 32t-134 -34t-110 -94.5t-63 -142.5q-16 -81 5.5 -142t72 -95t120.5 -34q52 0 100 18t88.5 50t66.5 76l16 76h-219l16 82h320l-32 -163q-36 -64 -93.5 -115t-129.5 -80.5t-150 -29.5q-73 0 -132 26t-98 73.5t-53 113t1 144.5q16 78 56 143.5
t98 113.5t127.5 74t142.5 26q67 0 124.5 -22t96.5 -64t54 -103zM663 895q-7 -39 -30.5 -69t-59 -47.5t-83.5 -17.5q-46 0 -75 17.5t-39.5 48t-2.5 69.5l3 19h58q-7 -35 8.5 -55.5t63.5 -20.5q49 0 72 20.5t30 55.5h59z" />
    <glyph glyph-name="gbreve" unicode="&#x11f;" horiz-adv-x="604" 
d="M496 500h86l-83 -418q-17 -88 -71.5 -151t-139.5 -97t-197 -34l2 83q134 3 213.5 53.5t98.5 145.5l1 5l10 -1q-31 -38 -81 -65.5t-116 -27.5q-67 0 -112 32t-62.5 90t-1.5 135q15 77 55.5 135t98 90t124.5 32q41 0 71.5 -11t51 -29.5t30.5 -41.5zM144 250
q-16 -77 15.5 -124t98.5 -47q41 0 78 20.5t64 59t38 91.5q11 54 -1.5 92t-41 58.5t-69.5 20.5q-45 0 -82.5 -21.5t-63.5 -59.5t-36 -90zM513 674q-6 -34 -27 -61.5t-53.5 -42.5t-73.5 -15q-42 0 -67.5 15.5t-35.5 43t-3 60.5l3 17h52q-6 -31 8 -49t57 -18t64 18t27 49h53z
" />
    <glyph glyph-name="Gdotaccent" unicode="&#x120;" horiz-adv-x="768" 
d="M664 486q-23 71 -75 103t-122 32t-134 -34t-110 -94.5t-63 -142.5q-16 -81 5.5 -142t72 -95t120.5 -34q52 0 100 18t88.5 50t66.5 76l16 76h-219l16 82h320l-32 -163q-36 -64 -93.5 -115t-129.5 -80.5t-150 -29.5q-73 0 -132 26t-98 73.5t-53 113t1 144.5q16 78 56 143.5
t98 113.5t127.5 74t142.5 26q67 0 124.5 -22t96.5 -64t54 -103zM494 779q-24 0 -36.5 15.5t-7.5 39.5q4 23 23.5 39t42.5 16t36 -16t9 -39q-5 -24 -24.5 -39.5t-42.5 -15.5z" />
    <glyph glyph-name="gdotaccent" unicode="&#x121;" horiz-adv-x="604" 
d="M496 500h86l-83 -418q-17 -88 -71.5 -151t-139.5 -97t-197 -34l2 83q134 3 213.5 53.5t98.5 145.5l1 5l10 -1q-31 -38 -81 -65.5t-116 -27.5q-67 0 -112 32t-62.5 90t-1.5 135q15 77 55.5 135t98 90t124.5 32q41 0 71.5 -11t51 -29.5t30.5 -41.5zM144 250
q-16 -77 15.5 -124t98.5 -47q41 0 78 20.5t64 59t38 91.5q11 54 -1.5 92t-41 58.5t-69.5 20.5q-45 0 -82.5 -21.5t-63.5 -59.5t-36 -90zM362 570q-21 0 -32.5 14t-7.5 35t21.5 35.5t37.5 14.5q21 0 33 -14.5t7 -35.5q-4 -21 -21.5 -35t-37.5 -14z" />
    <glyph glyph-name="uni0122" unicode="&#x122;" horiz-adv-x="768" 
d="M374 -49q1 -24 0 -46.5t-5 -41.5q-12 -62 -45 -91t-84 -29l9 45q25 0 39 14t20 42l4 20h-50l18 87h94zM664 486q-23 71 -75 103t-122 32t-134 -34t-110 -94.5t-63 -142.5q-16 -81 5.5 -142t72 -95t120.5 -34q52 0 100 18t88.5 50t66.5 76l16 76h-219l16 82h320l-32 -163
q-36 -64 -93.5 -115t-129.5 -80.5t-150 -29.5q-73 0 -132 26t-98 73.5t-53 113t1 144.5q16 78 56 143.5t98 113.5t127.5 74t142.5 26q67 0 124.5 -22t96.5 -64t54 -103z" />
    <glyph glyph-name="uni0123" unicode="&#x123;" horiz-adv-x="604" 
d="M313 540q-1 26 1 48.5t6 40.5q11 56 43 82.5t84 26.5l-11 -49q-23 0 -35 -11t-16 -34l-4 -14h45l-18 -90h-95zM496 500h86l-83 -418q-17 -88 -71.5 -151t-139.5 -97t-197 -34l2 83q134 3 213.5 53.5t98.5 145.5l1 5l10 -1q-31 -38 -81 -65.5t-116 -27.5q-67 0 -112 32
t-62.5 90t-1.5 135q15 77 55.5 135t98 90t124.5 32q41 0 71.5 -11t51 -29.5t30.5 -41.5zM144 250q-16 -77 15.5 -124t98.5 -47q41 0 78 20.5t64 59t38 91.5q11 54 -1.5 92t-41 58.5t-69.5 20.5q-45 0 -82.5 -21.5t-63.5 -59.5t-36 -90z" />
    <glyph glyph-name="Hcircumflex" unicode="&#x124;" horiz-adv-x="710" 
d="M169 700h100l-61 -303h352l61 303h99l-140 -700h-99l62 313h-352l-62 -313h-100zM596 755l-124 85l-156 -85l14 79l157 82l124 -82z" />
    <glyph glyph-name="hcircumflex" unicode="&#x125;" horiz-adv-x="658" 
d="M258 720h95l-55 -275q31 29 72 45.5t86 16.5q57 0 94.5 -24.5t52 -73t-0.5 -120.5l-58 -289h-99l56 277q13 70 -8 107t-78 37q-58 0 -97.5 -38t-54.5 -111l-53 -272h-95zM456 774l-123 85l-157 -85l15 79l157 82l123 -82z" />
    <glyph glyph-name="Itilde" unicode="&#x128;" horiz-adv-x="478" 
d="M276 700h99l-140 -700h-99zM181 760q18 54 51.5 81t74.5 27q20 0 33.5 -6.5t24 -15.5t21.5 -16t27 -7t30 10t21 32h57q-18 -54 -52 -81t-74 -27q-21 0 -34.5 7t-24 16t-21.5 16t-26 7q-17 0 -30.5 -10.5t-21.5 -32.5h-56z" />
    <glyph glyph-name="itilde" unicode="&#x129;" horiz-adv-x="400" 
d="M197 500h99l-100 -500h-99zM117 550q17 49 46.5 73t65.5 24q24 0 38.5 -10t26.5 -20t31 -10q14 0 26.5 9t18.5 28h51q-15 -49 -45.5 -72.5t-67.5 -23.5q-24 0 -38.5 10t-26 20t-29.5 10q-16 0 -28 -9t-19 -29h-50z" />
    <glyph glyph-name="Imacron" unicode="&#x12a;" horiz-adv-x="516" 
d="M298 700h100l-140 -700h-100zM201 865h358l-15 -75h-358z" />
    <glyph glyph-name="imacron" unicode="&#x12b;" horiz-adv-x="463" 
d="M231 500h100l-100 -500h-99zM149 643h320l-13 -66h-320z" />
    <glyph glyph-name="Ibreve" unicode="&#x12c;" horiz-adv-x="449" 
d="M265 700h99l-140 -700h-99zM499 895q-8 -39 -31 -69t-59 -47.5t-83 -17.5t-75.5 17.5t-39.5 48t-3 69.5l3 19h58q-7 -35 8.5 -55.5t63.5 -20.5t71.5 20.5t30.5 55.5h59z" />
    <glyph glyph-name="ibreve" unicode="&#x12d;" horiz-adv-x="403" 
d="M201 500h100l-100 -500h-100zM416 671q-8 -35 -28.5 -62t-52.5 -42.5t-74 -15.5t-67.5 15.5t-35.5 43t-3 61.5l3 17h52q-6 -32 7.5 -49.5t57.5 -17.5q43 0 64 17.5t27 49.5h53z" />
    <glyph glyph-name="Iogonek" unicode="&#x12e;" horiz-adv-x="363" 
d="M263 700h100l-140 -700h-100zM207 52l15 -51l-57 -26q-37 -17 -53 -34t-20 -35q-4 -23 9 -35.5t39 -12.5q15 0 32.5 3.5t35.5 10.5l-13 -65q-18 -7 -39 -10.5t-42 -3.5q-30 0 -57 9.5t-41.5 32t-6.5 60.5q5 25 21 48.5t47 45.5t79 43z" />
    <glyph glyph-name="iogonek" unicode="&#x12f;" horiz-adv-x="306" 
d="M190 500h94l-100 -500h-94zM255 588q-27 0 -41.5 18t-10.5 44q6 27 28 45.5t49 18.5q26 0 40 -18.5t9 -45.5q-5 -26 -26.5 -44t-47.5 -18zM167 51l14 -46l-51 -23q-33 -16 -48 -30.5t-18 -31.5q-4 -20 8 -31t35 -11q27 0 61 12l-11 -58q-16 -6 -35 -9.5t-38 -3.5
q-27 0 -51 9t-37 29t-6 54q6 33 36.5 63.5t95.5 58.5z" />
    <glyph glyph-name="Idotaccent" unicode="&#x130;" horiz-adv-x="269" 
d="M175 700h100l-140 -700h-100zM240 779q-24 0 -37 15.5t-8 39.5q5 23 24 39t42 16q24 0 36.5 -16t8.5 -39q-5 -24 -24.5 -39.5t-41.5 -15.5z" />
    <glyph glyph-name="dotlessi" unicode="&#x131;" horiz-adv-x="242" 
d="M121 500h99l-99 -500h-99z" />
    <glyph glyph-name="Jcircumflex" unicode="&#x134;" horiz-adv-x="609" 
d="M431 700h99l-100 -507q-13 -60 -47.5 -105t-85 -70t-109.5 -25q-72 0 -112.5 35.5t-47.5 99.5l91 29q2 -23 11.5 -41t27.5 -28.5t47 -10.5q34 0 60 16t42 41.5t22 54.5zM634 755l-123 85l-157 -85l16 79l156 82l124 -82z" />
    <glyph glyph-name="jcircumflex" unicode="&#x135;" horiz-adv-x="344" 
d="M39 25q-12 -62 -50.5 -99.5t-97.5 -42.5l-2 -83q39 1 78.5 15.5t74.5 41.5t60 69t36 98l95 476h-100zM342 579l-123 85l-157 -85l15 78l157 83l123 -83z" />
    <glyph glyph-name="uni0136" unicode="&#x136;" horiz-adv-x="631" 
d="M290 -49q2 -24 0.5 -46.5t-5.5 -41.5q-12 -62 -44.5 -91t-84.5 -29l9 45q25 0 39 14t20 42l4 20h-49l17 87h94zM169 700h100l-61 -303h36l335 303h126l-380 -345l244 -355h-131l-212 313h-35l-62 -313h-100z" />
    <glyph glyph-name="uni0137" unicode="&#x137;" horiz-adv-x="538" 
d="M233 -34q0 -24 -1.5 -45t-4.5 -39q-12 -56 -44 -83t-82 -27l9 48q17 0 27.5 7t17.5 19q2 4 3 7.5t2 7.5l5 18h-45l17 87h96zM165 720h95l-85 -429h41l228 209h128l-281 -250l183 -250h-129l-145 210h-42l-41 -210h-95z" />
    <glyph glyph-name="Lacute" unicode="&#x139;" horiz-adv-x="525" 
d="M269 700l-123 -616h320l-17 -84h-420l140 700h100zM459 949l-17 -87l-238 -111l15 74z" />
    <glyph glyph-name="lacute" unicode="&#x13a;" horiz-adv-x="336" 
d="M219 720h95l-143 -720h-95zM402 941l-16 -76l-212 -99l13 65z" />
    <glyph glyph-name="uni013B" unicode="&#x13b;" horiz-adv-x="525" 
d="M231 -49q1 -24 0 -46.5t-6 -41.5q-12 -62 -45 -91t-84 -29l9 45q25 0 39 14t20 42l4 20h-50l18 87h95zM269 700l-123 -616h320l-17 -84h-420l140 700h100z" />
    <glyph glyph-name="uni013C" unicode="&#x13c;" horiz-adv-x="251" 
d="M112 -34q1 -24 -0.5 -45t-4.5 -39q-12 -56 -44 -83t-83 -27l9 48q23 0 36 12.5t17 34.5l2 12h-44l17 87h95zM169 720h95l-143 -720h-95z" />
    <glyph glyph-name="Lcaron" unicode="&#x13d;" horiz-adv-x="525" 
d="M473 700q0 -27 -1.5 -50t-5.5 -44q-12 -60 -45 -89.5t-83 -29.5l8 46q25 0 39 14t20 42l4 22h-50l18 89h96zM269 700l-123 -616h320l-17 -84h-420l140 700h100z" />
    <glyph glyph-name="lcaron" unicode="&#x13e;" horiz-adv-x="404" 
d="M412 720q2 -27 1 -48.5t-5 -40.5q-11 -56 -43.5 -83t-83.5 -27l10 50q22 0 34.5 11t16.5 33l3 16h-45l17 89h95zM165 720h94l-143 -720h-94z" />
    <glyph glyph-name="Ldot" unicode="&#x13f;" horiz-adv-x="445" 
d="M29 0l140 700h99l-123 -619h240l-16 -81h-340zM364 322q-23 0 -36 16t-8 39q4 23 23.5 39t42.5 16t36 -16t8 -39q-4 -23 -23.5 -39t-42.5 -16z" />
    <glyph glyph-name="ldot" unicode="&#x140;" horiz-adv-x="275" 
d="M22 0l142 715h100l-143 -715h-99zM261 278q-23 0 -35.5 16t-8.5 39q4 21 23.5 37t41.5 16q23 0 36 -16t9 -37q-5 -23 -24.5 -39t-41.5 -16z" />
    <glyph glyph-name="Lslash" unicode="&#x141;" horiz-adv-x="525" 
d="M99 352l86 28l64 320h100l-57 -285l110 36l-16 -77l-110 -36l-51 -262h239l-16 -76h-339l60 303l-85 -27z" />
    <glyph glyph-name="lslash" unicode="&#x142;" horiz-adv-x="238" 
d="M26 342l239 83l-15 -78l-240 -84zM161 715h100l-143 -715h-99z" />
    <glyph glyph-name="Nacute" unicode="&#x143;" horiz-adv-x="709" 
d="M720 700l-140 -700h-102l-241 542l-108 -542h-100l140 700h102l241 -540l108 540h100zM603 949l-17 -87l-238 -111l15 74z" />
    <glyph glyph-name="nacute" unicode="&#x144;" 
d="M121 500h86l-4 -58q30 31 70 48t85 17q58 0 95.5 -24.5t51.5 -72.5t0 -120l-58 -290h-94l55 278q14 70 -8 106.5t-79 36.5q-58 0 -97 -37.5t-53 -110.5l-55 -273h-94zM478 721l-16 -76l-212 -99l13 65z" />
    <glyph glyph-name="uni0145" unicode="&#x145;" horiz-adv-x="709" 
d="M340 -49q2 -24 0.5 -46.5t-6.5 -41.5q-12 -62 -44 -91t-84 -29l9 45q25 0 39 14t19 42l5 20h-50l17 87h95zM720 700l-140 -700h-102l-241 542l-108 -542h-100l140 700h102l241 -540l108 540h100z" />
    <glyph glyph-name="uni0146" unicode="&#x146;" 
d="M283 -34q2 -24 0.5 -45t-4.5 -39q-12 -56 -44 -83t-83 -27l10 48q22 0 34 12.5t17 34.5l3 17h11l-1 -5h-55l17 87h95zM121 500h86l-4 -58q30 31 70 48t85 17q58 0 95.5 -24.5t51.5 -72.5t0 -120l-58 -290h-94l55 278q14 70 -8 106.5t-79 36.5q-58 0 -97 -37.5t-53 -110.5
l-55 -273h-94z" />
    <glyph glyph-name="Ncaron" unicode="&#x147;" horiz-adv-x="709" 
d="M720 700l-140 -700h-102l-241 542l-108 -542h-100l140 700h102l241 -540l108 540h100zM638 917l-16 -79l-157 -83l-123 83l16 79l123 -86z" />
    <glyph glyph-name="ncaron" unicode="&#x148;" 
d="M121 500h86l-4 -58q30 31 70 48t85 17q58 0 95.5 -24.5t51.5 -72.5t0 -120l-58 -290h-94l55 278q14 70 -8 106.5t-79 36.5q-58 0 -97 -37.5t-53 -110.5l-55 -273h-94zM509 694l-14 -71l-140 -74l-112 74l15 71l110 -77z" />
    <glyph glyph-name="Eng" unicode="&#x14a;" horiz-adv-x="709" 
d="M720 700l-140 -700h-102l-241 542l-108 -542h-100l140 700h102l241 -540l108 540h100zM499 107h103l-22 -110q-13 -62 -51 -105.5t-89.5 -66.5t-103.5 -25l1 83q59 5 95.5 37.5t45.5 76.5z" />
    <glyph glyph-name="eng" unicode="&#x14b;" horiz-adv-x="571" 
d="M121 500h91l-4 -58q30 31 70 48t85 17q58 0 97 -24.5t54 -72.5t1 -120l-58 -290h-99l55 278q14 70 -8 106.5t-79 36.5q-58 0 -97 -37.5t-53 -110.5l-55 -273h-99zM358 -1l15 77h100l-17 -78q-13 -65 -48 -108.5t-83.5 -65.5t-100.5 -24l2 83q39 4 66 19t43 40.5t23 56.5z
" />
    <glyph glyph-name="Omacron" unicode="&#x14c;" horiz-adv-x="783" 
d="M341 -7q-73 0 -132 26t-98 73.5t-53 113t1 144.5q16 78 56 143.5t98 113.5t127.5 74t142.5 26q74 0 132.5 -26t97 -74t52.5 -113.5t-2 -143.5q-15 -79 -55 -144.5t-97.5 -113t-126.5 -73.5t-143 -26zM358 79q72 0 135 33t108 94t61 144q16 84 -4.5 144.5t-70 93.5
t-121.5 33t-135.5 -33t-108 -93.5t-61.5 -144.5q-16 -83 4 -144t70.5 -94t122.5 -33zM337 865h357l-15 -75h-357z" />
    <glyph glyph-name="omacron" unicode="&#x14d;" horiz-adv-x="589" 
d="M240 -7q-71 0 -121 31.5t-71 89t-5 135.5q16 79 60.5 137t107.5 89.5t134 31.5t122 -31.5t73 -89t6 -135.5q-16 -79 -61 -137t-109 -89.5t-136 -31.5zM256 79q40 0 79 18.5t68.5 56.5t41.5 97q11 58 -3 95.5t-45 56t-71 18.5q-39 0 -76.5 -18.5t-65.5 -56.5t-40 -97
q-12 -58 1 -95.5t42.5 -56t68.5 -18.5zM216 647h320l-13 -67h-320z" />
    <glyph glyph-name="Obreve" unicode="&#x14e;" horiz-adv-x="783" 
d="M341 -7q-73 0 -132 26t-98 73.5t-53 113t1 144.5q16 78 56 143.5t98 113.5t127.5 74t142.5 26q74 0 132.5 -26t97 -74t52.5 -113.5t-2 -143.5q-15 -79 -55 -144.5t-97.5 -113t-126.5 -73.5t-143 -26zM358 79q72 0 135 33t108 94t61 144q16 84 -4.5 144.5t-70 93.5
t-121.5 33t-135.5 -33t-108 -93.5t-61.5 -144.5q-16 -83 4 -144t70.5 -94t122.5 -33zM667 895q-7 -39 -30 -69t-59 -47.5t-83 -17.5q-46 0 -75 17.5t-40 48t-3 69.5l3 19h58q-7 -35 8.5 -55.5t64.5 -20.5q48 0 71.5 20.5t30.5 55.5h58z" />
    <glyph glyph-name="obreve" unicode="&#x14f;" horiz-adv-x="589" 
d="M240 -7q-71 0 -121 31.5t-71 89t-5 135.5q16 79 60.5 137t107.5 89.5t134 31.5t122 -31.5t73 -89t6 -135.5q-16 -79 -61 -137t-109 -89.5t-136 -31.5zM256 79q40 0 79 18.5t68.5 56.5t41.5 97q11 58 -3 95.5t-45 56t-71 18.5q-39 0 -76.5 -18.5t-65.5 -56.5t-40 -97
q-12 -58 1 -95.5t42.5 -56t68.5 -18.5zM512 674q-6 -34 -26.5 -61.5t-53 -42.5t-74.5 -15q-41 0 -67 15.5t-36 43t-3 60.5l4 17h51q-6 -31 8 -49t57 -18t64 18t27 49h53z" />
    <glyph glyph-name="Ohungarumlaut" unicode="&#x150;" horiz-adv-x="783" 
d="M341 -7q-73 0 -132 26t-98 73.5t-53 113t1 144.5q16 78 56 143.5t98 113.5t127.5 74t142.5 26q74 0 132.5 -26t97 -74t52.5 -113.5t-2 -143.5q-15 -79 -55 -144.5t-97.5 -113t-126.5 -73.5t-143 -26zM358 79q72 0 135 33t108 94t61 144q16 84 -4.5 144.5t-70 93.5
t-121.5 33t-135.5 -33t-108 -93.5t-61.5 -144.5q-16 -83 4 -144t70.5 -94t122.5 -33zM563 923l-121 -161h-66l100 161h87zM721 923l-127 -161h-65l105 161h87z" />
    <glyph glyph-name="ohungarumlaut" unicode="&#x151;" horiz-adv-x="589" 
d="M240 -7q-71 0 -121 31.5t-71 89t-5 135.5q16 79 60.5 137t107.5 89.5t134 31.5t122 -31.5t73 -89t6 -135.5q-16 -79 -61 -137t-109 -89.5t-136 -31.5zM256 79q40 0 79 18.5t68.5 56.5t41.5 97q11 58 -3 95.5t-45 56t-71 18.5q-39 0 -76.5 -18.5t-65.5 -56.5t-40 -97
q-12 -58 1 -95.5t42.5 -56t68.5 -18.5zM419 699l-109 -144h-59l89 144h79zM560 699l-113 -144h-59l94 144h78z" />
    <glyph glyph-name="OE" unicode="&#x152;" horiz-adv-x="1171" 
d="M341 -7q-73 0 -132 26t-98 73.5t-53 113t1 144.5q16 78 56 143.5t98 113.5t127.5 74t142.5 26q74 0 132.5 -26t97 -74t52.5 -113.5t-2 -143.5q-15 -79 -55 -144.5t-97.5 -113t-126.5 -73.5t-143 -26zM358 79q72 0 135 33t108 94t61 144q16 84 -4.5 144.5t-70 93.5
t-121.5 33t-135.5 -33t-108 -93.5t-61.5 -144.5q-16 -83 4 -144t70.5 -94t122.5 -33zM1185 616h-368l-44 -219h277l-17 -84h-277l-45 -229h368l-17 -84h-467l140 700h467z" />
    <glyph glyph-name="oe" unicode="&#x153;" horiz-adv-x="966" 
d="M240 -7q-71 0 -121 31.5t-71 89t-5 135.5q16 79 60.5 137t107.5 89.5t134 31.5t122 -31.5t73 -89t6 -135.5q-16 -79 -61 -137t-109 -89.5t-136 -31.5zM256 79q40 0 79 18.5t68.5 56.5t41.5 97q11 58 -3 95.5t-45 56t-71 18.5q-39 0 -76.5 -18.5t-65.5 -56.5t-40 -97
q-12 -58 1 -95.5t42.5 -56t68.5 -18.5zM642 -7q-73 0 -121.5 33.5t-68.5 92.5t-4 135q14 73 56.5 130t103.5 90t130 33q70 0 117.5 -30.5t67 -85t4.5 -125.5q-2 -12 -6 -24.5t-9 -27.5h-370q-5 -40 8.5 -70.5t41 -47.5t66.5 -17q49 0 90.5 19.5t62.5 52.5l76 -29
q-42 -61 -106.5 -95t-138.5 -34zM829 295q7 36 -5 65t-39 45.5t-65 16.5q-34 0 -66 -16.5t-57 -45t-38 -65.5h270z" />
    <glyph glyph-name="Racute" unicode="&#x154;" horiz-adv-x="636" 
d="M529 491q8 39 -1.5 66.5t-38 43t-77.5 15.5h-160l-50 -249h161q73 0 113.5 34t52.5 90zM429 700q82 0 130 -28.5t65.5 -75.5t5.5 -105q-10 -51 -43.5 -99t-93.5 -78.5t-147 -30.5h-161l-56 -283h-100l140 700h260zM416 317l130 -317h-113l-123 317h106zM550 949l-17 -87
l-238 -111l15 74z" />
    <glyph glyph-name="racute" unicode="&#x155;" horiz-adv-x="363" 
d="M121 500h86l-6 -67q25 26 56.5 43.5t65 24.5t66.5 -1l-18 -89q-30 8 -62.5 2t-61 -25.5t-50 -51.5t-30.5 -77l-52 -259h-94zM395 721l-15 -76l-213 -99l13 65z" />
    <glyph glyph-name="uni0156" unicode="&#x156;" horiz-adv-x="636" 
d="M335 -49q1 -24 -0.5 -46.5t-5.5 -41.5q-12 -62 -44.5 -91t-84.5 -29l9 45q25 0 39 14t20 42l4 20h-49l17 87h95zM529 491q8 39 -1.5 66.5t-38 43t-77.5 15.5h-160l-50 -249h161q73 0 113.5 34t52.5 90zM429 700q82 0 130 -28.5t65.5 -75.5t5.5 -105q-10 -51 -43.5 -99
t-93.5 -78.5t-147 -30.5h-161l-56 -283h-100l140 700h260zM416 317l130 -317h-113l-123 317h106z" />
    <glyph glyph-name="uni0157" unicode="&#x157;" horiz-adv-x="363" 
d="M118 -34q2 -24 0.5 -45t-5.5 -39q-11 -56 -43 -83t-83 -27l10 48q22 0 34.5 12.5t16.5 34.5l3 12h-44l17 87h94zM121 500h86l-6 -67q25 26 56.5 43.5t65 24.5t66.5 -1l-18 -89q-30 8 -62.5 2t-61 -25.5t-50 -51.5t-30.5 -77l-52 -259h-94z" />
    <glyph glyph-name="Rcaron" unicode="&#x158;" horiz-adv-x="636" 
d="M529 491q8 39 -1.5 66.5t-38 43t-77.5 15.5h-160l-50 -249h161q73 0 113.5 34t52.5 90zM429 700q82 0 130 -28.5t65.5 -75.5t5.5 -105q-10 -51 -43.5 -99t-93.5 -78.5t-147 -30.5h-161l-56 -283h-100l140 700h260zM416 317l130 -317h-113l-123 317h106zM585 917l-16 -79
l-157 -83l-123 83l16 79l123 -86z" />
    <glyph glyph-name="rcaron" unicode="&#x159;" horiz-adv-x="363" 
d="M121 500h86l-6 -67q25 26 56.5 43.5t65 24.5t66.5 -1l-18 -89q-30 8 -62.5 2t-61 -25.5t-50 -51.5t-30.5 -77l-52 -259h-94zM426 694l-14 -71l-140 -74l-110 74l14 71l110 -77z" />
    <glyph glyph-name="Sacute" unicode="&#x15a;" horiz-adv-x="578" 
d="M126 185q1 -28 14.5 -52t42 -39t75.5 -15q70 0 110 32.5t49 76.5q8 36 -7.5 59.5t-48 40t-76.5 29.5q-38 12 -73.5 25.5t-62.5 34t-38.5 53t-1.5 81.5q12 61 50 105t95 67.5t126 23.5q58 0 100.5 -16.5t68 -47t32.5 -73.5l-97 -33q-2 22 -17.5 41.5t-42.5 31.5t-62 12
q-37 1 -68.5 -11.5t-54 -35.5t-28.5 -55q-7 -35 9 -55t46.5 -33t68.5 -25q39 -13 76 -28t65.5 -38t41 -57.5t2.5 -86.5q-11 -56 -46 -102t-93 -74t-137 -28q-65 0 -113 20t-74.5 55.5t-28.5 82.5zM528 949l-17 -87l-238 -111l15 74z" />
    <glyph glyph-name="sacute" unicode="&#x15b;" horiz-adv-x="480" 
d="M110 158q1 -30 14.5 -47t35.5 -24.5t47 -7.5q46 0 74.5 18t33.5 45q4 23 -8.5 36.5t-36 21.5t-51.5 15q-25 7 -53.5 16t-52.5 24.5t-36 40t-5 62.5q9 45 41 78.5t79 52t102 18.5q64 0 107.5 -27.5t53.5 -82.5l-91 -28q-3 19 -16.5 31t-33 16.5t-39.5 4.5q-39 0 -67 -15
t-33 -44q-3 -16 3 -26.5t19.5 -17t32 -11.5t39.5 -11q30 -9 58.5 -19.5t51.5 -26.5t34 -42t3 -64q-8 -44 -39 -78t-79.5 -53.5t-109.5 -19.5q-74 0 -119 33t-50 102zM421 721l-15 -76l-213 -99l13 65z" />
    <glyph glyph-name="Scircumflex" unicode="&#x15c;" horiz-adv-x="578" 
d="M126 185q1 -28 14.5 -52t42 -39t75.5 -15q70 0 110 32.5t49 76.5q8 36 -7.5 59.5t-48 40t-76.5 29.5q-38 12 -73.5 25.5t-62.5 34t-38.5 53t-1.5 81.5q12 61 50 105t95 67.5t126 23.5q58 0 100.5 -16.5t68 -47t32.5 -73.5l-97 -33q-2 22 -17.5 41.5t-42.5 31.5t-62 12
q-37 1 -68.5 -11.5t-54 -35.5t-28.5 -55q-7 -35 9 -55t46.5 -33t68.5 -25q38 -13 75.5 -28t66 -38t41 -57.5t2.5 -86.5q-11 -56 -46 -102t-93 -74t-137 -28q-65 0 -113 20t-74.5 55.5t-28.5 82.5zM530 755l-123 85l-157 -85l16 79l156 82l124 -82z" />
    <glyph glyph-name="scircumflex" unicode="&#x15d;" horiz-adv-x="480" 
d="M110 158q1 -30 14.5 -47t35.5 -24.5t47 -7.5q46 0 74.5 18t33.5 45q4 23 -8.5 36.5t-36 21.5t-51.5 15q-25 7 -53.5 16t-52.5 24.5t-36 40t-5 62.5q9 45 41 78.5t79 52t102 18.5q64 0 107.5 -27.5t53.5 -82.5l-91 -28q-3 19 -16.5 31t-33 16.5t-39.5 4.5q-39 0 -67 -15
t-33 -44q-3 -16 3 -26.5t19.5 -17t32 -11.5t39.5 -11q30 -9 58.5 -19.5t51.5 -26.5t34 -42t3 -64q-8 -44 -39 -78t-79.5 -53.5t-109.5 -19.5q-74 0 -119 33t-50 102zM439 555l-123 85l-157 -85l16 79l156 82l124 -82z" />
    <glyph glyph-name="Scedilla" unicode="&#x15e;" horiz-adv-x="578" 
d="M126 185q1 -28 14.5 -52t42 -39t75.5 -15q70 0 110 32.5t49 76.5q8 36 -7.5 59.5t-48 40t-76.5 29.5q-38 12 -73.5 25.5t-62.5 34t-38.5 53t-1.5 81.5q12 61 50 105t95 67.5t126 23.5q58 0 100.5 -16.5t68 -47t32.5 -73.5l-97 -33q-2 22 -17.5 41.5t-42.5 31.5t-62 12
q-37 1 -68.5 -11.5t-54 -35.5t-28.5 -55q-7 -35 9 -55t46.5 -33t68.5 -25q38 -13 75.5 -28t66 -38t41 -57.5t2.5 -86.5q-11 -56 -46 -102t-93 -74t-137 -28q-65 0 -113 20t-74.5 55.5t-28.5 82.5zM268 -60q38 0 65 -11.5t39 -34t6 -56.5q-7 -33 -27.5 -56.5t-51.5 -36.5
t-66 -13h-121l12 65h102q30 0 47.5 8.5t21.5 32.5q5 23 -9 32t-43 9h-53l24 122h67z" />
    <glyph glyph-name="scedilla" unicode="&#x15f;" horiz-adv-x="480" 
d="M110 158q1 -30 14.5 -47t35.5 -24.5t47 -7.5q46 0 74.5 18t33.5 45q4 23 -8.5 36.5t-36 21.5t-51.5 15q-25 7 -53.5 16t-52.5 24.5t-36 40t-5 62.5q9 45 41 78.5t79 52t102 18.5q64 0 107.5 -27.5t53.5 -82.5l-91 -28q-3 19 -16.5 31t-33 16.5t-39.5 4.5q-39 0 -67 -15
t-33 -44q-3 -16 3 -26.5t19.5 -17t32 -11.5t39.5 -11q30 -9 58.5 -19.5t51.5 -26.5t34 -42t3 -64q-8 -44 -39 -78t-79.5 -53.5t-109.5 -19.5q-74 0 -119 33t-50 102zM213 -44q34 0 58 -10t35 -30.5t5 -50.5q-6 -29 -25 -50t-46.5 -32.5t-58.5 -11.5h-109l12 57h90
q27 0 42.5 8t19.5 29q5 21 -7.5 29t-39.5 8h-47l22 109h59z" />
    <glyph glyph-name="Scaron" unicode="&#x160;" horiz-adv-x="578" 
d="M126 185q1 -28 14.5 -52t42 -39t75.5 -15q70 0 110 32.5t49 76.5q8 36 -7.5 59.5t-48 40t-76.5 29.5q-38 12 -73.5 25.5t-62.5 34t-38.5 53t-1.5 81.5q12 61 50 105t95 67.5t126 23.5q58 0 100.5 -16.5t68 -47t32.5 -73.5l-97 -33q-2 22 -17.5 41.5t-42.5 31.5t-62 12
q-37 1 -68.5 -11.5t-54 -35.5t-28.5 -55q-7 -35 9 -55t46.5 -33t68.5 -25q39 -13 76 -28t65.5 -38t41 -57.5t2.5 -86.5q-11 -56 -46 -102t-93 -74t-137 -28q-65 0 -113 20t-74.5 55.5t-28.5 82.5zM563 917l-16 -79l-157 -83l-123 83l15 79l123 -86z" />
    <glyph glyph-name="scaron" unicode="&#x161;" horiz-adv-x="480" 
d="M110 158q1 -30 14.5 -47t35.5 -24.5t47 -7.5q46 0 74.5 18t33.5 45q4 23 -8.5 36.5t-36 21.5t-51.5 15q-25 7 -53.5 16t-52.5 24.5t-36 40t-5 62.5q9 45 41 78.5t79 52t102 18.5q64 0 107.5 -27.5t53.5 -82.5l-91 -28q-3 19 -16.5 31t-33 16.5t-39.5 4.5q-39 0 -67 -15
t-33 -44q-3 -16 3 -26.5t19.5 -17t32 -11.5t39.5 -11q30 -9 58.5 -19.5t51.5 -26.5t34 -42t3 -64q-8 -44 -39 -78t-79.5 -53.5t-109.5 -19.5q-74 0 -119 33t-50 102zM452 694l-14 -71l-140 -74l-111 74l14 71l110 -77z" />
    <glyph glyph-name="uni0162" unicode="&#x162;" horiz-adv-x="616" 
d="M129 700h537l-17 -84h-218l-122 -616h-100l122 616h-219zM282 -54q38 0 65 -11.5t39 -34t5 -56.5q-6 -33 -26.5 -56.5t-51.5 -36.5t-67 -13h-121l13 64h102q30 0 47 9t22 33q5 23 -9 32t-44 9h-52l24 122h66z" />
    <glyph glyph-name="uni0163" unicode="&#x163;" horiz-adv-x="371" 
d="M168 624h101l-97 -484q-6 -32 4.5 -44t44.5 -12h65l-16 -84h-81q-46 0 -75.5 14t-41 44.5t-0.5 81.5zM66 419l16 82h287l-16 -82h-287zM164 -43l-4 3q35 0 60.5 -10.5t37 -31.5t5.5 -53q-7 -30 -26.5 -52.5t-48 -34t-62.5 -11.5h-113l14 65h95q24 0 38 7.5t18 25.5
t-7.5 25t-35.5 7h-52l31 158h70z" />
    <glyph glyph-name="Tcaron" unicode="&#x164;" horiz-adv-x="616" 
d="M129 700h537l-17 -84h-218l-122 -616h-100l122 616h-219zM582 917l-16 -79l-156 -83l-124 83l15 79l123 -86z" />
    <glyph glyph-name="tcaron" unicode="&#x165;" horiz-adv-x="385" 
d="M431 705q1 -26 0.5 -44.5t-4.5 -37.5q-9 -49 -41 -71.5t-83 -22.5l10 49q22 0 33.5 6t14.5 20l2 11h-45l18 90h95zM154 500l28 140h95l-28 -140h125l-17 -84h-125l-48 -246q-9 -46 5.5 -65t42.5 -21.5t59 1.5l-16 -81q-43 -9 -81.5 -5.5t-66 22.5t-39 55.5t0.5 93.5
l48 246h-72l17 84h72z" />
    <glyph glyph-name="Utilde" unicode="&#x168;" horiz-adv-x="702" 
d="M165 700h99l-88 -445q-12 -60 3 -99.5t51.5 -58t86.5 -18.5q51 0 94.5 18.5t74 58t42.5 99.5l89 445h99l-88 -443q-13 -68 -45.5 -117.5t-78 -82t-98.5 -48.5t-107 -16q-72 0 -129 28.5t-84 87t-9 148.5zM296 760q18 54 51.5 81t74.5 27q20 0 34 -6.5t24 -15.5t21.5 -16
t26.5 -7q16 0 30.5 10t21.5 32h56q-18 -54 -51.5 -81t-74.5 -27q-20 0 -34 7t-24.5 16t-21.5 16t-26 7q-17 0 -30.5 -10.5t-20.5 -32.5h-57z" />
    <glyph glyph-name="utilde" unicode="&#x169;" 
d="M440 0h-86l6 59q-30 -32 -70.5 -49t-85.5 -17q-58 0 -96 24.5t-52.5 72t0.5 118.5l58 292h94l-56 -280q-14 -69 8 -105t79 -36q58 0 97.5 37t54.5 110l54 274h94zM192 554q16 48 46 72t66 24q24 0 38 -10t26 -20t31 -10q15 0 27.5 9t18.5 28h51q-16 -49 -46.5 -72.5
t-66.5 -23.5q-24 0 -38.5 10t-26.5 20.5t-30 10.5q-15 0 -27 -9.5t-19 -28.5h-50z" />
    <glyph glyph-name="Umacron" unicode="&#x16a;" horiz-adv-x="702" 
d="M165 700h99l-88 -445q-12 -60 3 -99.5t51.5 -58t86.5 -18.5q51 0 94.5 18.5t74 58t42.5 99.5l89 445h99l-88 -443q-13 -68 -45.5 -117.5t-78 -82t-98.5 -48.5t-107 -16q-72 0 -129 28.5t-84 87t-9 148.5zM295 865h357l-15 -75h-357z" />
    <glyph glyph-name="umacron" unicode="&#x16b;" 
d="M440 0h-86l6 59q-30 -32 -70.5 -49t-85.5 -17q-58 0 -96 24.5t-52.5 72t0.5 118.5l58 292h94l-56 -280q-14 -69 8 -105t79 -36q58 0 97.5 37t54.5 110l54 274h94zM190 647h319l-13 -67h-320z" />
    <glyph glyph-name="Ubreve" unicode="&#x16c;" horiz-adv-x="703" 
d="M165 700h99l-88 -445q-12 -60 3 -99.5t51.5 -58t86.5 -18.5q51 0 94.5 18.5t74 58t42.5 99.5l89 445h99l-88 -443q-13 -68 -45.5 -117.5t-78 -82t-98.5 -48.5t-107 -16q-72 0 -129 28.5t-84 87t-9 148.5zM625 895q-8 -39 -31 -69t-59 -47.5t-83 -17.5q-46 0 -75 17.5
t-40 48t-3 69.5l4 19h57q-7 -35 8.5 -55.5t64.5 -20.5q48 0 71 20.5t31 55.5h58z" />
    <glyph glyph-name="ubreve" unicode="&#x16d;" 
d="M440 0h-86l6 59q-30 -32 -70.5 -49t-85.5 -17q-58 0 -96 24.5t-52.5 72t0.5 118.5l58 292h94l-56 -280q-14 -69 8 -105t79 -36q58 0 97.5 37t54.5 110l54 274h94zM485 674q-6 -34 -26.5 -61.5t-53 -42.5t-74.5 -15q-41 0 -67 15.5t-36 43t-2 60.5l2 17h52q-6 -31 8 -49
t57 -18q44 0 65 18t27 49h52z" />
    <glyph glyph-name="Uring" unicode="&#x16e;" horiz-adv-x="702" 
d="M165 700h99l-88 -445q-12 -60 3 -99.5t51.5 -58t86.5 -18.5q51 0 94.5 18.5t74 58t42.5 99.5l89 445h99l-88 -443q-13 -68 -45.5 -117.5t-78 -82t-98.5 -48.5t-107 -16q-72 0 -129 28.5t-84 87t-9 148.5zM580 854q-10 -49 -47.5 -78t-82.5 -29t-71.5 29t-16.5 78
q10 50 48 79t81 29q46 0 72.5 -29t16.5 -79zM523 855q5 25 -7.5 39.5t-33.5 14.5q-22 0 -40 -14.5t-22 -39.5q-5 -25 6.5 -39.5t32.5 -14.5q23 0 41 14.5t23 39.5z" />
    <glyph glyph-name="uring" unicode="&#x16f;" 
d="M440 0h-86l6 59q-30 -32 -70.5 -49t-85.5 -17q-58 0 -96 24.5t-52.5 72t0.5 118.5l58 292h94l-56 -280q-14 -69 8 -105t79 -36q58 0 97.5 37t54.5 110l54 274h94zM445 637q-8 -44 -42 -69.5t-74 -25.5t-63.5 25.5t-15.5 69.5q9 45 43 70.5t74 25.5t63.5 -25.5t14.5 -70.5
zM395 638q4 23 -7 35.5t-30 12.5q-20 0 -36 -12.5t-20 -35.5q-5 -22 6 -35t30 -13q20 0 36 13t21 35z" />
    <glyph glyph-name="Uhungarumlaut" unicode="&#x170;" horiz-adv-x="703" 
d="M165 700h99l-88 -445q-12 -60 3 -99.5t51.5 -58t86.5 -18.5q51 0 94.5 18.5t74 58t42.5 99.5l89 445h99l-88 -443q-13 -68 -45.5 -117.5t-78 -82t-98.5 -48.5t-107 -16q-72 0 -129 28.5t-84 87t-9 148.5zM520 923l-121 -161h-66l100 161h87zM678 923l-127 -161h-65
l105 161h87z" />
    <glyph glyph-name="uhungarumlaut" unicode="&#x171;" 
d="M440 0h-86l6 59q-30 -32 -70.5 -49t-85.5 -17q-58 0 -96 24.5t-52.5 72t0.5 118.5l58 292h94l-56 -280q-14 -69 8 -105t79 -36q58 0 97.5 37t54.5 110l54 274h94zM392 699l-109 -144h-59l90 144h78zM533 699l-114 -144h-57l93 144h78z" />
    <glyph glyph-name="Uogonek" unicode="&#x172;" horiz-adv-x="702" 
d="M165 700h100l-89 -445q-12 -60 3.5 -99.5t51.5 -58t86 -18.5q51 0 94.5 18.5t74 58t43.5 99.5l88 445h100l-89 -443q-13 -68 -45.5 -117.5t-78 -82t-98.5 -48.5t-107 -16q-72 0 -129 28.5t-84 87t-9 148.5zM357 51l16 -51l-58 -26q-37 -17 -53 -34t-20 -35
q-4 -23 9 -35.5t39 -12.5q14 0 32 3.5t36 10.5l-13 -65q-18 -7 -39 -10.5t-42 -3.5q-31 0 -57.5 9.5t-41 32t-6.5 60.5q5 25 21 48.5t46.5 45.5t79.5 43z" />
    <glyph glyph-name="uogonek" unicode="&#x173;" horiz-adv-x="571" 
d="M440 0h-86l6 59q-30 -32 -70.5 -49t-85.5 -17q-58 0 -96 24.5t-52.5 72t0.5 118.5l58 292h94l-56 -280q-14 -69 8 -105t79 -36q58 0 97.5 37t54.5 110l54 274h94zM426 50l15 -46l-52 -24q-33 -15 -47 -30t-18 -31q-4 -20 7.5 -31.5t35.5 -11.5q26 0 61 13l-12 -58
q-16 -6 -35 -9.5t-37 -3.5q-28 0 -52 9t-37 29t-6 53t37 63.5t95 58.5z" />
    <glyph glyph-name="Wcircumflex" unicode="&#x174;" horiz-adv-x="994" 
d="M288 0h-111l-61 700h106l33 -584l276 584h111l44 -582l265 582h106l-338 -700h-112l-50 551zM737 755l-122 86l-158 -86l16 79l157 84l123 -84z" />
    <glyph glyph-name="wcircumflex" unicode="&#x175;" horiz-adv-x="756" 
d="M221 0h-90l-58 500h96l28 -388l189 388h90l31 -386l181 386h93l-254 -500h-91l-35 363zM563 550l-110 76l-141 -76l14 70l140 74l111 -74z" />
    <glyph glyph-name="Ycircumflex" unicode="&#x176;" horiz-adv-x="670" 
d="M622 700h111l-347 -440l-51 -260h-100l52 259l-171 441h111l128 -349zM575 755l-123 86l-157 -86l16 79l157 84l123 -84z" />
    <glyph glyph-name="ycircumflex" unicode="&#x177;" horiz-adv-x="529" 
d="M463 500h98l-429 -700h-93l129 210l-100 490h104l70 -379zM449 550l-110 76l-141 -76l14 70l141 74l111 -74z" />
    <glyph glyph-name="Ydieresis" unicode="&#x178;" horiz-adv-x="670" 
d="M622 700h111l-347 -440l-51 -260h-100l52 259l-171 441h111l128 -349zM357 782q-23 0 -36 16t-8 39q4 23 23.5 39.5t42.5 16.5t36 -16.5t8 -39.5q-4 -23 -23.5 -39t-42.5 -16zM523 782q-23 0 -36 16t-8 39q4 23 23.5 39.5t42.5 16.5t36 -16.5t8 -39.5q-4 -23 -23.5 -39
t-42.5 -16z" />
    <glyph glyph-name="Zacute" unicode="&#x179;" horiz-adv-x="597" 
d="M618 624l-481 -540h375l-17 -84h-492l15 76l479 540h-370l17 84h488zM517 949l-17 -87l-238 -111l15 74z" />
    <glyph glyph-name="zacute" unicode="&#x17a;" horiz-adv-x="478" 
d="M464 423l-331 -339h266l-17 -84h-384l15 77l332 339h-264l17 84h382zM405 721l-16 -76l-212 -99l13 65z" />
    <glyph glyph-name="Zdotaccent" unicode="&#x17b;" horiz-adv-x="597" 
d="M618 624l-481 -540h375l-17 -84h-492l15 76l479 540h-370l17 84h488zM383 779q-23 0 -36 15.5t-8 39.5q5 23 24 39t42 16t36 -16t9 -39q-5 -24 -24.5 -39.5t-42.5 -15.5z" />
    <glyph glyph-name="zdotaccent" unicode="&#x17c;" horiz-adv-x="478" 
d="M464 423l-331 -339h266l-17 -84h-384l15 77l332 339h-264l17 84h382zM285 570q-20 0 -31.5 14t-8.5 35q5 21 22 35.5t39 14.5q20 0 31.5 -14.5t7.5 -35.5t-21.5 -35t-38.5 -14z" />
    <glyph glyph-name="Zcaron" unicode="&#x17d;" horiz-adv-x="597" 
d="M618 624l-481 -540h375l-17 -84h-492l15 76l479 540h-370l17 84h488zM551 917l-16 -79l-156 -83l-124 83l16 79l123 -86z" />
    <glyph glyph-name="zcaron" unicode="&#x17e;" horiz-adv-x="478" 
d="M464 423l-331 -339h266l-17 -84h-384l15 77l332 339h-264l17 84h382zM436 694l-14 -71l-140 -74l-112 74l15 71l110 -77z" />
    <glyph glyph-name="uni018F" unicode="&#x18f;" horiz-adv-x="757" 
d="M625 369q15 75 -3 130.5t-62.5 86.5t-111.5 31q-49 0 -93 -16t-80 -45.5t-59 -71.5h-115q36 69 91.5 119t125 77.5t148.5 27.5q99 0 165.5 -45.5t93 -125.5t5.5 -186t-79 -186.5t-142 -126t-184 -45.5q-98 0 -163.5 39t-93 112.5t-6.5 178.5q3 15 7 31t9 34h569l-18 -94
h-469q-12 -63 7 -110.5t64 -74t111 -26.5q64 0 120.5 27.5t96.5 79t54 123.5z" />
    <glyph glyph-name="florin" unicode="&#x192;" horiz-adv-x="406" 
d="M154 501h260l-24 -81h-260zM227 539q30 84 86.5 122.5t154.5 38.5l-25 -82q-50 0 -76 -19t-41 -61l-142 -404q-26 -72 -67.5 -103t-107.5 -31h-27l25 82h21q22 0 34 12t23 40z" />
    <glyph glyph-name="uni01CD" unicode="&#x1cd;" horiz-adv-x="692" 
d="M437 616h-35l-342 -616h-102l391 700h173l113 -700h-102zM140 262h407l-16 -84h-408zM619 916l-16 -79l-156 -82l-124 82l16 79l123 -85z" />
    <glyph glyph-name="uni01CE" unicode="&#x1ce;" horiz-adv-x="527" 
d="M327 0l7 73q-30 -38 -71 -58.5t-99 -20.5q-54 0 -88.5 17.5t-49 49t-5.5 73.5q12 63 67.5 104.5t146.5 51.5l145 16l8 39q6 32 -15.5 54.5t-70.5 22.5q-46 0 -82 -21.5t-56 -63.5l-78 30q32 66 95 103t143 37q93 0 132.5 -47t24.5 -124l-67 -336h-87zM365 229l-141 -17
q-44 -6 -70 -24.5t-32 -48.5q-6 -28 12 -46.5t57 -18.5q48 0 83.5 18t57.5 50.5t31 75.5zM501 716l-16 -79l-156 -82l-124 82l16 79l123 -85z" />
    <glyph glyph-name="Gcaron" unicode="&#x1e6;" horiz-adv-x="768" 
d="M664 486q-23 71 -75 103t-122 32t-134 -34t-110 -94.5t-63 -142.5q-16 -81 5.5 -142t72 -95t120.5 -34q52 0 100 18t88.5 50t66.5 76l16 76h-219l16 82h320l-32 -163q-36 -64 -94 -115t-129.5 -80.5t-149.5 -29.5q-73 0 -132 26t-98 73.5t-53 113t1 144.5q16 78 56 143.5
t98 113.5t127.5 74t142.5 26q67 0 124.5 -22t96.5 -64t54 -103zM662 916l-16 -79l-156 -82l-124 82l16 79l123 -85z" />
    <glyph glyph-name="gcaron" unicode="&#x1e7;" horiz-adv-x="604" 
d="M496 500h86l-83 -418q-17 -88 -71.5 -151t-139.5 -97t-197 -34l2 83q134 3 213.5 53.5t98.5 145.5l1 5l10 -1q-31 -38 -81 -65.5t-116 -27.5q-67 0 -112 32t-62.5 90t-1.5 135q15 77 55.5 135t98 90t124.5 32q41 0 71.5 -11t51 -29.5t30.5 -41.5zM144 250
q-16 -77 15.5 -124t98.5 -47q41 0 78 20.5t64 59t38 91.5q11 54 -1.5 92t-41 58.5t-69.5 20.5q-45 0 -82.5 -21.5t-63.5 -59.5t-36 -90zM531 716l-16 -79l-156 -82l-124 82l16 79l123 -85z" />
    <glyph glyph-name="uni01E8" unicode="&#x1e8;" horiz-adv-x="631" 
d="M169 700h100l-61 -303h36l335 303h126l-380 -345l244 -355h-131l-212 313h-35l-62 -313h-100zM582 916l-15 -79l-157 -82l-123 82l15 79l123 -85z" />
    <glyph glyph-name="uni01E9" unicode="&#x1e9;" horiz-adv-x="538" 
d="M121 720h95l-85 -429h42l228 209h128l-281 -250l182 -250h-128l-145 210h-42l-42 -210h-95zM353 936l-15 -79l-157 -82l-124 82l16 79l123 -85z" />
    <glyph glyph-name="uni01EA" unicode="&#x1ea;" horiz-adv-x="783" 
d="M341 -7q-73 0 -132 26t-98 73.5t-53 113t1 144.5q16 78 56 143.5t98 113.5t127.5 74t142.5 26q74 0 132.5 -26t97 -74t52.5 -113.5t-2 -143.5q-15 -79 -55 -144.5t-97.5 -113t-126.5 -73.5t-143 -26zM358 79q72 0 135 33t108 94t61 144q16 84 -4.5 144.5t-70 93.5
t-121.5 33t-135.5 -33t-108 -93.5t-61.5 -144.5q-16 -83 4 -144t70.5 -94t122.5 -33zM453 67l17 -51l-58 -26q-37 -17 -53 -33.5t-20 -35.5q-5 -22 8.5 -34.5t38.5 -12.5q15 0 32.5 3.5t36.5 9.5l-13 -64q-18 -7 -39.5 -11t-41.5 -4q-30 0 -57 10t-41.5 32.5t-7.5 60.5
q5 25 21.5 48t47.5 45t79 42z" />
    <glyph glyph-name="uni01EB" unicode="&#x1eb;" horiz-adv-x="589" 
d="M240 -7q-71 0 -121 31.5t-71 89t-5 135.5q16 79 60.5 137t107.5 89.5t134 31.5t122 -31.5t73 -89t6 -135.5q-16 -79 -61 -137t-109 -89.5t-136 -31.5zM256 79q40 0 79 18.5t68.5 56.5t41.5 97q11 58 -3 95.5t-45 56t-71 18.5q-39 0 -76.5 -18.5t-65.5 -56.5t-40 -97
q-12 -58 1 -95.5t42.5 -56t68.5 -18.5zM368 82l17 -51l-58 -26q-37 -17 -53 -33.5t-20 -35.5q-5 -22 8.5 -34.5t39.5 -12.5q15 0 32.5 3.5t35.5 10.5l-13 -65q-18 -7 -39 -11t-42 -4q-30 0 -57 10t-41.5 33t-7.5 60q5 25 21.5 48t47.5 45t79 43z" />
    <glyph glyph-name="AEacute" unicode="&#x1fc;" horiz-adv-x="899" 
d="M635 616l-43 -219h187l-17 -85h-187l-45 -228h277l-17 -84h-377l35 177h-249l-133 -177h-108l529 700h442l-17 -84h-277zM262 262h203l72 365zM750 949l-17 -87l-238 -111l15 74z" />
    <glyph glyph-name="aeacute" unicode="&#x1fd;" horiz-adv-x="882" 
d="M555 -7q-72 0 -118 32.5t-63.5 91t-1.5 136.5q23 118 98 186t185 68q72 0 119 -30.5t65 -84.5t4 -125q-2 -12 -5.5 -25t-9.5 -28h-370q-6 -44 7 -74t40 -45.5t65 -15.5q55 0 93.5 17.5t63.5 54.5l76 -29q-40 -58 -102 -93.5t-146 -35.5zM747 295q8 41 -4 69.5t-40 43
t-67 14.5q-34 0 -65.5 -15t-55.5 -43t-38 -69h270zM413 199l-6 -72q-28 -50 -69.5 -79t-87 -42t-86.5 -13q-50 0 -85.5 16t-51 47.5t-6.5 77.5q8 40 29.5 68t51.5 46t64.5 28t68.5 14l146 19l7 36q6 30 -14.5 53.5t-71.5 23.5q-44 0 -81 -21t-57 -64l-78 30q32 66 93.5 103
t144.5 37q92 0 132.5 -47.5t25.5 -123.5l-21 -102zM365 229l-138 -17q-48 -5 -73.5 -24.5t-31.5 -48.5q-7 -32 15 -46.5t58 -14.5q41 0 76 16.5t59 48t32 74.5zM624 718l-15 -76l-213 -99l13 65z" />
    <glyph glyph-name="uni0218" unicode="&#x218;" horiz-adv-x="578" 
d="M280 -49q1 -24 0 -46.5t-6 -41.5q-12 -62 -45 -91t-84 -29l9 45q25 0 39.5 14.5t19.5 41.5l4 20h-50l18 87h95zM126 185q1 -28 14.5 -52t42 -39t75.5 -15q70 0 110 32.5t49 76.5q8 36 -7.5 59.5t-48 40t-76.5 29.5q-38 12 -73.5 25.5t-62.5 34t-38.5 53t-1.5 81.5
q12 61 50 105t95 67.5t126 23.5q58 0 100.5 -16.5t68 -47t32.5 -73.5l-97 -33q-2 22 -17.5 41.5t-42.5 31.5t-62 12q-37 1 -68.5 -11.5t-54 -35.5t-28.5 -55q-7 -35 9 -55t46.5 -33t68.5 -25q39 -13 76 -28t65.5 -38t41 -57.5t2.5 -86.5q-11 -56 -46 -102t-93 -74t-137 -28
q-65 0 -113 20t-74.5 55.5t-28.5 82.5z" />
    <glyph glyph-name="uni0219" unicode="&#x219;" horiz-adv-x="480" 
d="M242 -34q1 -24 0 -45t-4 -39q-11 -56 -43.5 -83t-83.5 -27l9 48q23 0 35 12.5t17 34.5l2 12h-44l18 87h94zM110 158q1 -30 14.5 -47t35.5 -24.5t47 -7.5q46 0 74.5 18t33.5 45q4 23 -8.5 36.5t-36 21.5t-51.5 15q-25 7 -53.5 16t-52.5 24.5t-36 40t-5 62.5q9 45 41 78.5
t79 52t102 18.5q64 0 107.5 -27.5t53.5 -82.5l-91 -28q-3 19 -16.5 31t-33 16.5t-39.5 4.5q-39 0 -67 -15t-33 -44q-3 -16 3 -26.5t19.5 -17t32 -11.5t39.5 -11q30 -9 58.5 -19.5t51.5 -26.5t34 -42t3 -64q-8 -44 -39 -78t-79.5 -53.5t-109.5 -19.5q-74 0 -119 33t-50 102z
" />
    <glyph glyph-name="uni021A" unicode="&#x21a;" horiz-adv-x="616" 
d="M301 -49q1 -24 0 -46.5t-6 -41.5q-12 -62 -44.5 -91t-83.5 -29l9 45q25 0 39 14t20 42l4 20h-50l18 87h94zM129 700h537l-17 -84h-218l-122 -616h-100l122 616h-219z" />
    <glyph glyph-name="uni021B" unicode="&#x21b;" horiz-adv-x="357" 
d="M167 -34q2 -24 0.5 -45t-4.5 -39q-11 -56 -43.5 -83t-83.5 -27l9 48q23 0 36 12.5t17 34.5l3 12h-45l17 87h94zM154 500l28 140h95l-28 -140h125l-17 -84h-125l-48 -246q-9 -46 5.5 -65t42.5 -21.5t59 1.5l-16 -81q-43 -9 -81.5 -5.5t-66 22.5t-39 55.5t0.5 93.5l48 246
h-72l17 84h72z" />
    <glyph glyph-name="uni0232" unicode="&#x232;" horiz-adv-x="670" 
d="M622 700h111l-347 -440l-51 -260h-100l52 259l-171 441h111l128 -349zM278 864h357l-15 -75h-357z" />
    <glyph glyph-name="uni0233" unicode="&#x233;" horiz-adv-x="529" 
d="M463 500h98l-429 -700h-93l129 210l-100 490h104l70 -379zM168 664h357l-15 -75h-357z" />
    <glyph glyph-name="uni0259" unicode="&#x259;" horiz-adv-x="563" 
d="M325 507q72 0 121 -33.5t68.5 -92.5t4.5 -135q-14 -73 -56.5 -130t-103.5 -90t-130 -33q-70 0 -118 30.5t-67 85t-5 125.5q3 12 6.5 24.5t8.5 27.5h370q5 40 -8 70.5t-40.5 47.5t-67.5 17q-49 0 -90 -19.5t-62 -52.5l-77 29q42 61 106.5 95t139.5 34zM137 205
q-7 -36 5 -65t39 -45.5t66 -16.5q33 0 65.5 16.5t57 45t37.5 65.5h-270z" />
    <glyph glyph-name="circumflex" unicode="&#x2c6;" horiz-adv-x="304" 
d="M361 595l-124 85l-156 -85l15 78l157 83l123 -83z" />
    <glyph glyph-name="caron" unicode="&#x2c7;" horiz-adv-x="304" 
d="M392 755l-15 -78l-157 -83l-123 83l15 78l124 -85z" />
    <glyph glyph-name="breve" unicode="&#x2d8;" horiz-adv-x="315" 
d="M399 733q-8 -38 -31 -68t-59 -47.5t-83 -17.5q-46 0 -75 17.5t-40 48t-3 68.5l4 19h57q-6 -35 9.5 -55t63.5 -20q49 0 72 20t30 55h58z" />
    <glyph glyph-name="dotaccent" unicode="&#x2d9;" horiz-adv-x="135" 
d="M141 621q-24 0 -36.5 16t-7.5 39q4 23 23 39.5t43 16.5q22 0 35.5 -16.5t8.5 -39.5q-4 -23 -23.5 -39t-42.5 -16z" />
    <glyph glyph-name="ring" unicode="&#x2da;" horiz-adv-x="242" 
d="M322 713q-10 -49 -47.5 -77.5t-83.5 -28.5q-44 0 -70.5 28.5t-16.5 77.5t47.5 78t82.5 29q46 0 72 -29t16 -78zM265 713q5 25 -7.5 40t-34.5 15q-21 0 -39 -15t-23 -40q-5 -23 7.5 -38.5t33.5 -15.5q22 0 40 15.5t23 38.5z" />
    <glyph glyph-name="ogonek" unicode="&#x2db;" horiz-adv-x="228" 
d="M139 51l17 -51l-58 -26q-37 -17 -53 -33.5t-20 -35.5q-5 -22 8 -34.5t39 -12.5q15 0 32.5 3.5t36.5 10.5l-13 -65q-18 -7 -39.5 -11t-40.5 -4q-32 0 -59 10.5t-41 32.5t-7 60q5 25 21.5 48t47 45t79.5 43z" />
    <glyph glyph-name="tilde" unicode="&#x2dc;" horiz-adv-x="344" 
d="M83 608q18 55 52 82t74 27q20 0 33.5 -7t24.5 -16t22 -15.5t26 -6.5q16 0 30 9.5t21 31.5h57q-18 -54 -51.5 -80.5t-74.5 -26.5q-20 0 -34 7t-24.5 15.5t-21 15.5t-25.5 7q-17 0 -30.5 -10t-21.5 -33h-57z" />
    <glyph glyph-name="hungarumlaut" unicode="&#x2dd;" horiz-adv-x="337" 
d="M268 761l-121 -160h-65l99 160h87zM427 761l-127 -160h-66l105 160h88z" />
    <glyph glyph-name="uni0394" unicode="&#x394;" horiz-adv-x="693" 
d="M395 700h82l158 -623l-15 -77h-646l15 77zM412 582l-319 -498h442z" />
    <glyph glyph-name="uni03A9" unicode="&#x3a9;" horiz-adv-x="786" 
d="M147 78q-41 29 -64 70.5t-29 93.5t6 109q15 78 55.5 143.5t98.5 113t127 73.5t142 26q75 0 133.5 -26t97.5 -73.5t53.5 -113t-0.5 -143.5q-12 -57 -38.5 -109t-67 -93.5t-92.5 -70.5h131l-15 -78h-275l16 81q57 16 106 52t83.5 89.5t48.5 122.5q17 84 -3.5 145.5
t-71 95.5t-123.5 34q-55 0 -105 -19.5t-90.5 -56t-69.5 -87t-41 -112.5q-14 -69 -0.5 -122.5t48 -89.5t85.5 -52l-16 -81h-275l15 78h130z" />
    <glyph glyph-name="uni03BC" unicode="&#x3bc;" horiz-adv-x="598" 
d="M477 0h-99l99 501h99zM81 -200h-99l139 701h99l-54 -276q-10 -49 -0.5 -82t35 -49.5t64.5 -16.5q57 0 100 37t57 111v1l16 -77q-20 -52 -53.5 -87t-76 -52.5t-88.5 -17.5q-19 0 -36.5 4.5t-32 13.5t-23.5 23z" />
    <glyph glyph-name="pi" unicode="&#x3c0;" horiz-adv-x="647" 
d="M86 501h576l-17 -84h-69l-83 -417h-100l83 417h-238l-83 -417h-100l83 417h-69z" />
    <glyph glyph-name="Wgrave" unicode="&#x1e80;" horiz-adv-x="994" 
d="M288 0h-111l-61 700h106l33 -584l276 584h111l44 -582l265 582h106l-338 -700h-112l-50 551zM520 949l191 -124l-15 -74l-193 113z" />
    <glyph glyph-name="wgrave" unicode="&#x1e81;" horiz-adv-x="756" 
d="M221 0h-90l-58 500h96l28 -388l189 388h90l31 -386l181 386h93l-254 -500h-91l-35 363zM368 721l171 -110l-13 -65l-173 101z" />
    <glyph glyph-name="Wacute" unicode="&#x1e82;" horiz-adv-x="994" 
d="M288 0h-111l-61 700h106l33 -584l276 584h111l44 -582l265 582h106l-338 -700h-112l-50 551zM735 949l-17 -87l-238 -111l15 74z" />
    <glyph glyph-name="wacute" unicode="&#x1e83;" horiz-adv-x="756" 
d="M221 0h-90l-58 500h96l28 -388l189 388h90l31 -386l181 386h93l-254 -500h-91l-35 363zM560 721l-15 -76l-213 -99l14 65z" />
    <glyph glyph-name="Wdieresis" unicode="&#x1e84;" horiz-adv-x="994" 
d="M288 0h-111l-61 700h106l33 -584l276 584h111l44 -582l265 582h106l-338 -700h-112l-50 551zM520 782q-24 0 -36.5 16t-8.5 39q5 23 24.5 39.5t42.5 16.5t36 -16.5t8 -39.5t-24 -39t-42 -16zM686 782q-24 0 -36.5 16t-8.5 39q5 23 24.5 39.5t42.5 16.5t36 -16.5t8 -39.5
q-4 -23 -24 -39t-42 -16z" />
    <glyph glyph-name="wdieresis" unicode="&#x1e85;" horiz-adv-x="756" 
d="M221 0h-90l-58 500h96l28 -388l189 388h90l31 -386l181 386h93l-254 -500h-91l-35 363zM368 573q-21 0 -32.5 14t-7.5 35q5 21 22 35.5t37 14.5q21 0 33 -14.5t7 -35.5q-4 -21 -21.5 -35t-37.5 -14zM516 573q-20 0 -31.5 14t-7.5 35t21 35.5t38 14.5t32.5 -14.5
t7.5 -35.5t-21.5 -35t-38.5 -14z" />
    <glyph glyph-name="uni1EBC" unicode="&#x1ebc;" horiz-adv-x="606" 
d="M620 616h-368l-44 -219h276l-17 -84h-276l-45 -229h368l-17 -84h-468l140 700h468zM258 760q19 54 52.5 81t73.5 27q21 0 34 -6.5t24 -15.5t22 -16t27 -7t30 10t21 32h57q-18 -54 -52 -81t-74 -27q-21 0 -34.5 7t-24 16t-21.5 16t-26 7q-17 0 -30.5 -10.5t-21.5 -32.5
h-57z" />
    <glyph glyph-name="uni1EBD" unicode="&#x1ebd;" horiz-adv-x="563" 
d="M238 -7q-72 0 -121 33.5t-68.5 92.5t-4.5 135q14 73 56.5 130t103.5 90t130 33q70 0 118 -30.5t67 -85t4 -125.5q-2 -12 -5.5 -24.5t-8.5 -27.5h-370q-5 -40 8 -70.5t40.5 -47.5t67.5 -17q49 0 90 19.5t62 52.5l77 -29q-42 -61 -106.5 -95t-139.5 -34zM426 295
q7 36 -5 65t-39 45.5t-66 16.5q-34 0 -66 -16.5t-56.5 -45t-38.5 -65.5h271zM206 554q17 48 47 72t66 24q24 0 38 -10t26.5 -20t30.5 -10q15 0 27.5 9t18.5 28h52q-17 -49 -47.5 -72.5t-66.5 -23.5q-24 0 -38 10t-26.5 20.5t-30.5 10.5q-15 0 -27 -9.5t-19 -28.5h-51z" />
    <glyph glyph-name="Ygrave" unicode="&#x1ef2;" horiz-adv-x="670" 
d="M622 700h111l-347 -440l-51 -260h-100l52 259l-171 441h111l128 -349zM357 949l191 -124l-15 -74l-193 113z" />
    <glyph glyph-name="ygrave" unicode="&#x1ef3;" horiz-adv-x="529" 
d="M463 500h98l-429 -700h-93l129 210l-100 490h104l70 -379zM254 721l171 -110l-13 -65l-173 101z" />
    <glyph glyph-name="uni1EF8" unicode="&#x1ef8;" horiz-adv-x="670" 
d="M622 700h111l-347 -440l-51 -260h-100l52 259l-171 441h111l128 -349zM280 760q19 54 52.5 81t73.5 27q20 0 33.5 -6.5t24.5 -15.5t22 -16t26 -7q17 0 31 10t21 32h57q-18 -54 -52 -81t-74 -27q-21 0 -34.5 7t-24.5 16t-21.5 16t-25.5 7q-17 0 -31 -10.5t-21 -32.5h-57z
" />
    <glyph glyph-name="uni1EF9" unicode="&#x1ef9;" horiz-adv-x="529" 
d="M463 500h98l-429 -700h-93l129 210l-100 490h104l70 -379zM185 554q16 48 46 72t67 24q24 0 38 -10t26 -20t30 -10q15 0 28 9t19 28h51q-17 -49 -47 -72.5t-66 -23.5q-24 0 -38.5 10t-26.5 20.5t-30 10.5q-15 0 -27 -9.5t-19 -28.5h-51z" />
    <glyph glyph-name="endash" unicode="&#x2013;" horiz-adv-x="633" 
d="M66 320h530l-17 -84h-530z" />
    <glyph glyph-name="emdash" unicode="&#x2014;" horiz-adv-x="843" 
d="M66 320h740l-17 -84h-740z" />
    <glyph glyph-name="quoteleft" unicode="&#x2018;" horiz-adv-x="264" 
d="M314 700l-106 -232h-109l145 232h70z" />
    <glyph glyph-name="quoteright" unicode="&#x2019;" horiz-adv-x="264" 
d="M83 468l106 232h109l-145 -232h-70z" />
    <glyph glyph-name="quotesinglbase" unicode="&#x201a;" horiz-adv-x="265" 
d="M-30 -100l106 229h110l-145 -229h-71z" />
    <glyph glyph-name="quotedblleft" unicode="&#x201c;" horiz-adv-x="433" 
d="M314 700l-106 -232h-109l145 232h70zM483 700l-106 -232h-110l146 232h70z" />
    <glyph glyph-name="quotedblright" unicode="&#x201d;" horiz-adv-x="433" 
d="M251 468l106 232h110l-145 -232h-71zM83 468l106 232h109l-145 -232h-70z" />
    <glyph glyph-name="quotedblbase" unicode="&#x201e;" horiz-adv-x="435" 
d="M-30 -100l106 229h110l-145 -229h-71zM141 -100l106 229h109l-145 -229h-70z" />
    <glyph glyph-name="dagger" unicode="&#x2020;" horiz-adv-x="575" 
d="M584 568l-15 -79l-193 9l-109 -598h-98l129 598l-197 -9l16 79l193 -9l38 241h98l-58 -241z" />
    <glyph glyph-name="daggerdbl" unicode="&#x2021;" horiz-adv-x="574" 
d="M568 489l-193 9l-59 -295l197 8l-16 -78l-192 9l-38 -242h-99l58 242l-196 -9l16 78l192 -8l59 295l-196 -9l16 79l192 -9l38 241h99l-58 -241l196 9z" />
    <glyph glyph-name="bullet" unicode="&#x2022;" horiz-adv-x="442" 
d="M212 208q-34 0 -59.5 17t-37 45t-3.5 63q7 36 29.5 64t54 45t66.5 17q36 0 61 -17t36.5 -45t4.5 -64q-8 -35 -30.5 -63t-54 -45t-67.5 -17z" />
    <glyph glyph-name="ellipsis" unicode="&#x2026;" horiz-adv-x="633" 
d="M265 -6q-27 0 -42 19t-9 46q5 28 27.5 47t50.5 19q26 0 41.5 -19t9.5 -47q-5 -27 -27.5 -46t-50.5 -19zM458 -6q-27 0 -42 19t-9 46q6 28 28 47t50 19q26 0 41.5 -19t9.5 -47q-5 -27 -27.5 -46t-50.5 -19zM73 -6q-27 0 -42 19t-9 46q5 28 27.5 47t50.5 19q26 0 41.5 -19
t9.5 -47q-6 -27 -28.5 -46t-49.5 -19z" />
    <glyph glyph-name="perthousand" unicode="&#x2030;" horiz-adv-x="1040" 
d="M108 558q10 46 36 79.5t63 51.5t80 18q63 0 97.5 -40t20.5 -109q-9 -47 -35.5 -80.5t-63.5 -51.5t-79 -18q-63 0 -97.5 39.5t-21.5 110.5zM274 646q-32 0 -55 -22t-32 -66q-9 -45 5.5 -67t46.5 -22t55.5 22t31.5 67q9 44 -5.5 66t-46.5 22zM595 700h98l-543 -700h-98z
M342 143q8 47 34.5 80.5t63 51t79.5 17.5q63 0 97.5 -39.5t20.5 -109.5q-9 -47 -35.5 -80.5t-63 -51.5t-78.5 -18q-64 0 -98.5 40t-19.5 110zM506 231q-31 0 -54.5 -21.5t-32.5 -66.5t6 -66.5t46 -21.5t55 21.5t33 66.5q8 45 -6.5 66.5t-46.5 21.5zM675 143q8 47 34.5 80.5
t63.5 51t79 17.5q63 0 98 -39.5t21 -109.5q-9 -47 -35.5 -80.5t-63.5 -51.5t-79 -18q-63 0 -98 40t-20 110zM840 231q-32 0 -55 -21.5t-32 -66.5t5.5 -66.5t46.5 -21.5q31 0 55 21.5t33 66.5q8 45 -6.5 66.5t-46.5 21.5z" />
    <glyph glyph-name="guilsinglleft" unicode="&#x2039;" horiz-adv-x="279" 
d="M197 75h-97l-60 175l129 175h97l-133 -175z" />
    <glyph glyph-name="guilsinglright" unicode="&#x203a;" horiz-adv-x="279" 
d="M13 75l132 175l-62 175h96l60 -175l-130 -175h-96z" />
    <glyph glyph-name="fraction" unicode="&#x2044;" horiz-adv-x="581" 
d="M535 720h100l-549 -740h-100z" />
    <glyph glyph-name="uni2074" unicode="&#x2074;" horiz-adv-x="366" 
d="M239 350l15 77h-184l8 39l219 234h70l-43 -219h46l-11 -54h-46l-15 -77h-59zM298 638l-142 -157h110z" />
    <glyph glyph-name="uni20A8" unicode="&#x20a8;" horiz-adv-x="1084" 
d="M529 491q8 39 -1.5 66.5t-38 43t-77.5 15.5h-160l-50 -249h161q73 0 113.5 34t52.5 90zM429 700q82 0 130 -28.5t65.5 -75.5t5.5 -105q-10 -51 -43.5 -99t-93.5 -78.5t-147 -30.5h-161l-56 -283h-100l140 700h260zM416 317l130 -317h-113l-123 317h106zM714 158
q1 -30 14.5 -47t35.5 -24.5t47 -7.5q46 0 74.5 18t33.5 45q4 23 -8.5 36.5t-36 21.5t-51.5 15q-25 7 -53.5 16t-52.5 24.5t-36 40t-5 62.5q9 45 41 78.5t79 52t102 18.5q64 0 107.5 -27.5t53.5 -82.5l-91 -28q-3 19 -16.5 31t-33 16.5t-39.5 4.5q-39 0 -67 -15t-33 -44
q-3 -16 3 -26.5t19.5 -17t32 -11.5t39.5 -11q29 -9 58 -19.5t52 -26.5t34 -42t3 -64q-8 -44 -39.5 -78t-79.5 -53.5t-109 -19.5q-74 0 -119 33t-50 102z" />
    <glyph glyph-name="Euro" unicode="&#x20ac;" horiz-adv-x="784" 
d="M55 396l14 69h428l-14 -69h-428zM22 231l14 69h429l-15 -69h-428zM79 350q16 79 56 144.5t97.5 113t126.5 73.5t142 26q105 0 178 -49t97 -141l-86 -29q-14 47 -45 76t-73 43t-86 14q-72 0 -135.5 -33t-108.5 -94t-62 -144q-16 -82 5 -143t71.5 -94.5t121.5 -33.5
q46 0 94.5 15t93.5 48.5t81 87.5l75 -28q-66 -106 -160.5 -157.5t-202.5 -51.5q-73 0 -131.5 26t-97 74t-52.5 113.5t1 143.5z" />
    <glyph glyph-name="indianrupee" unicode="&#x20b9;" horiz-adv-x="627" 
d="M548 653l-22 -111q-15 -76 -39.5 -128t-62.5 -83.5t-95.5 -45.5t-139.5 -14l-14 -70q-7 -38 -2.5 -67t26 -46t63.5 -17q60 0 92 33.5t43 90.5h92q-21 -101 -84 -151.5t-160 -50.5q-101 0 -141.5 56t-21.5 154l28 137q76 0 128 3.5t85.5 15t53.5 33.5t32.5 59t22.5 92
l23 110h93zM138 700h544l-15 -73h-544zM88 454l14 72h544l-14 -72h-544z" />
    <glyph glyph-name="turkishlira" unicode="&#x20ba;" horiz-adv-x="848" 
d="M261 700l-136 -684q46 -11 90 -17t85 -6q129 0 219.5 48.5t147.5 146t85 243.5h-101q-16 -82 -43 -146t-67 -108.5t-95 -67.5t-128 -23q-18 0 -37 1.5t-39 5.5l121 607h-102zM493 483l14 72l-455 -105l-14 -69zM455 317l14 71l-447 -101l-14 -72z" />
    <glyph glyph-name="uni20BD" unicode="&#x20bd;" horiz-adv-x="620" 
d="M47 366h318q74 0 114 35t52 90q7 41 -1.5 70.5t-36.5 45t-78 15.5h-131l-123 -622h-99l139 700h230q82 0 130.5 -28t65.5 -75t5 -106q-10 -51 -43.5 -97.5t-92.5 -76.5t-147 -30h-318zM13 197h398l-16 -80h-398z" />
    <glyph glyph-name="uni2113" unicode="&#x2113;" horiz-adv-x="285" 
d="M188 720h95l-143 -720h-95z" />
    <glyph glyph-name="trademark" unicode="&#x2122;" horiz-adv-x="805" 
d="M113 700h243l-13 -60h-81l-58 -290h-79l58 290h-82zM413 700h101l60 -295l-29 -1l182 296h96l-70 -350h-73l58 292l23 6l-188 -298h-54l-65 298l18 -6l-58 -292h-71z" />
    <glyph glyph-name="uni2126" unicode="&#x2126;" horiz-adv-x="786" 
d="M147 78q-41 29 -64 70.5t-29 93.5t6 109q15 78 55.5 143.5t98.5 113.5t127 74t143 26t133 -26t98 -74t53 -113.5t-1 -143.5q-12 -57 -38.5 -109t-67 -93.5t-92.5 -70.5h131l-15 -78h-275l16 81q57 16 106 52t83.5 89.5t48.5 122.5q17 84 -4 145t-71.5 94t-122.5 33
q-55 0 -105 -19t-91 -54.5t-69.5 -86t-40.5 -112.5q-14 -69 -0.5 -122.5t48 -89.5t85.5 -52l-16 -81h-275l15 78h130z" />
    <glyph glyph-name="estimated" unicode="&#x212e;" horiz-adv-x="764" 
d="M665 136q-75 -66 -156.5 -104.5t-168.5 -38.5q-98 0 -167.5 40t-99.5 116.5t-8 184.5q15 79 50.5 147t88 118.5t120.5 79t149 28.5q80 0 137 -26.5t90.5 -72.5t44 -105t-2.5 -124l-12 -61h-528l-34 -171q30 -44 73.5 -66.5t110.5 -22.5q51 0 97 15t91 43t92 67zM594 384
l35 179q-23 39 -66.5 59.5t-102.5 20.5q-60 0 -114 -22t-98 -69l-33 -168h379z" />
    <glyph glyph-name="partialdiff" unicode="&#x2202;" horiz-adv-x="570" 
d="M427 272q8 42 2 76.5t-28.5 54.5t-61.5 20q-41 0 -84.5 -23.5t-77.5 -69t-47 -109.5q-13 -70 11.5 -107t77.5 -37q43 0 86 23t76 66.5t46 105.5zM28 214q14 66 46.5 119.5t78 92.5t98 60t105.5 21q29 0 52 -7.5t38 -24.5t23 -45q6 50 4 93t-14 75t-37 50.5t-66 18.5
q-12 0 -29.5 -2.5t-43.5 -8.5l12 57q24 7 48.5 10.5t45.5 3.5q60 0 99.5 -26.5t60 -74.5t22.5 -114.5t-13 -145.5q-21 -103 -58.5 -174t-87 -115.5t-104.5 -64t-109 -19.5q-64 0 -107 25t-60.5 74t-3.5 122z" />
    <glyph glyph-name="uni2206" unicode="&#x2206;" horiz-adv-x="693" 
d="M395 700h82l158 -623l-15 -77h-646l15 77zM413 587l-322 -510h442z" />
    <glyph glyph-name="product" unicode="&#x220f;" horiz-adv-x="738" 
d="M125 700h667l-15 -78h-79l-124 -622h-98l124 622h-313l-124 -622h-99l123 622h-77z" />
    <glyph glyph-name="summation" unicode="&#x2211;" horiz-adv-x="488" 
d="M138 700h393l-16 -77h-325l-3 22l237 -256l-15 -78l-339 -255v21h337l-16 -77h-393l23 115l303 233l-210 237z" />
    <glyph glyph-name="minus" unicode="&#x2212;" horiz-adv-x="523" 
d="M88 392h404l-17 -84h-404z" />
    <glyph glyph-name="uni2215" unicode="&#x2215;" horiz-adv-x="479" 
d="M470 700h99l-520 -700h-99z" />
    <glyph glyph-name="radical" unicode="&#x221a;" horiz-adv-x="739" 
d="M765 800h73l-592 -800h-50l-83 225l-74 -39l-20 50l169 90l85 -232l-22 10z" />
    <glyph glyph-name="infinity" unicode="&#x221e;" horiz-adv-x="685" 
d="M43 350q10 47 38 81t67 52t82 18q41 0 69.5 -17t48.5 -43t36 -55t32.5 -55t37 -43t50.5 -17q34 0 60 21t33 59q8 38 -9.5 58t-52.5 20q-42 0 -85.5 -33t-68.5 -82l-42 33q19 40 52 75t75.5 57.5t91.5 21.5q42 0 73 -18t45 -51.5t4 -80.5q-9 -48 -37 -82t-67 -52t-83 -18
q-40 0 -69.5 16.5t-50.5 42.5t-37.5 55.5t-33 55.5t-36 43t-45.5 17q-35 0 -61 -20.5t-34 -58.5q-7 -38 10.5 -58t52.5 -20q42 0 85.5 32.5t69.5 81.5l41 -33q-18 -39 -51 -75t-76 -58t-92 -21q-64 0 -100 39.5t-23 111.5z" />
    <glyph glyph-name="integral" unicode="&#x222b;" horiz-adv-x="266" 
d="M209 655q19 53 44.5 84.5t61 46t81.5 14.5h23l-26 -83h-17q-24 0 -39.5 -14t-27.5 -48l-213 -610q-17 -52 -43 -84t-61 -46.5t-82 -14.5h-23l25 82h19q16 0 28 6t20.5 20t16.5 37z" />
    <glyph glyph-name="approxequal" unicode="&#x2248;" horiz-adv-x="529" 
d="M19 167q30 80 76 116.5t102 36.5q29 0 49.5 -10t36.5 -23t32.5 -22.5t38.5 -9.5q24 0 47 16.5t33 47.5h73q-30 -80 -76 -116.5t-103 -36.5q-29 0 -48.5 9.5t-35.5 23t-32.5 23.5t-39.5 10q-25 0 -47.5 -17.5t-33.5 -47.5h-72zM62 382q30 80 75.5 116.5t102.5 36.5
q29 0 49 -10t36.5 -23t33 -23t37.5 -10q25 0 47.5 17t32.5 48h74q-29 -80 -75.5 -116.5t-103.5 -36.5q-29 0 -49 9.5t-36 22.5t-32.5 23t-38.5 10q-25 0 -48 -17t-33 -47h-72z" />
    <glyph glyph-name="notequal" unicode="&#x2260;" horiz-adv-x="667" 
d="M579 599h75l-528 -497h-74zM77 283h525l-17 -84h-524zM122 502h524l-17 -84h-525z" />
    <glyph glyph-name="lessequal" unicode="&#x2264;" horiz-adv-x="507" 
d="M49 169h360l-15 -76h-360zM423 225h-131l-200 191l276 191h131l-287 -200l4 19z" />
    <glyph glyph-name="greaterequal" unicode="&#x2265;" horiz-adv-x="507" 
d="M74 225l286 201l-3 -19l-207 200h131l200 -191l-277 -191h-130zM425 169l-14 -76h-360l15 76h359z" />
    <glyph glyph-name="lozenge" unicode="&#x25ca;" horiz-adv-x="558" 
d="M348 594l195 -243l-292 -244l-195 244zM327 487l-164 -136l109 -137l164 137z" />
    <glyph glyph-name="uniA732" unicode="&#xa732;" horiz-adv-x="1267" 
d="M437 616h-35l-342 -616h-102l391 700h173l113 -700h-102zM140 262h407l-16 -84h-408zM1012 616h-35l-342 -616h-102l390 700h174l112 -700h-101zM715 262h407l-17 -84h-407z" />
    <glyph glyph-name="g.ss02" horiz-adv-x="610" 
d="M497 500h92l-83 -418q-11 -52 -36.5 -101t-67 -88.5t-97.5 -64.5t-126 -28t-154 22l38 81q80 -22 140 -15.5t101.5 34t66.5 69.5t35 91l1 5h10q-31 -36 -82 -65t-116 -29q-67 0 -112 32t-62.5 90t-1.5 135q15 77 55.5 135t98 90t124.5 32q61 0 99 -23.5t56 -57.5z
M144 250q-11 -55 1.5 -93t42 -58t70.5 -20t78.5 20t64.5 58.5t38 92.5q16 82 -18 126t-95 44q-41 0 -78.5 -19.5t-65 -57.5t-38.5 -93z" />
    <glyph glyph-name="comma.ss01" horiz-adv-x="204" 
d="M113 101q1 -27 -0.5 -52.5t-6.5 -46.5q-13 -67 -49 -99.5t-93 -32.5l10 50q27 0 42.5 15.5t21.5 46.5l5 21h-56l19 98h107z" />
    <glyph glyph-name="quotedblleft.ss01" horiz-adv-x="321" 
d="M240 508q-1 27 1 50t5 44q13 60 45.5 89t84.5 29l-9 -45q-26 0 -40 -14t-20 -42l-4 -22h51l-18 -89h-96zM100 508q-2 27 0 50t5 44q13 60 45.5 89t83.5 29l-9 -45q-25 0 -39 -14t-20 -42l-4 -22h51l-18 -89h-95z" />
    <glyph glyph-name="quotedblright.ss01" horiz-adv-x="321" 
d="M366 720q1 -27 -0.5 -51t-5.5 -44q-12 -60 -45 -88.5t-84 -28.5l9 45q25 0 39.5 13.5t19.5 40.5l5 23h-51l18 90h95zM225 720q1 -27 -0.5 -51t-6.5 -44q-11 -60 -44 -88.5t-84 -28.5l9 45q25 0 39 13.5t19 40.5l5 23h-51l18 90h96z" />
    <glyph glyph-name="quoteleft.ss01" horiz-adv-x="180" 
d="M100 508q-2 27 0 50t5 44q13 60 45.5 89t83.5 29l-9 -45q-25 0 -39 -14t-20 -42l-4 -22h51l-18 -89h-95z" />
    <glyph glyph-name="quoteright.ss01" horiz-adv-x="180" 
d="M225 720q1 -27 -0.5 -51t-6.5 -44q-11 -60 -44 -88.5t-84 -28.5l9 45q25 0 39 13.5t19 40.5l5 23h-51l18 90h96z" />
    <glyph glyph-name="ampersand.ss03" horiz-adv-x="674" 
d="M467 579q-11 22 -35.5 32t-57.5 10q-56 0 -95 -28t-50 -83q-10 -49 27 -76t125 -28h271l-17 -85h-270q-98 0 -148.5 -30.5t-62.5 -93.5q-11 -56 15.5 -87t90.5 -31q72 0 115.5 37t57.5 106l51 260h96l-51 -260q-22 -108 -96 -168.5t-190 -60.5q-108 0 -159 53t-32 143
q12 66 55.5 111.5t113.5 62.5l1 5q-54 15 -78.5 56.5t-14.5 90.5q11 57 48 100.5t92 67.5t119 24q59 0 101 -20t62 -58zM550 628l-83 -49z" />
    <glyph glyph-name="ampersand.ss04" horiz-adv-x="749" 
d="M463 541q6 28 -1 47t-23 28.5t-40 9.5q-37 0 -64.5 -21.5t-33.5 -53.5q-6 -30 5.5 -57.5t40.5 -64.5l344 -429h-129l-306 384q-39 49 -51 85t-3 82q9 45 38.5 80t76 55.5t103.5 20.5t92.5 -22t48.5 -59t1 -85h-99zM343 374l-46 -15q-77 -24 -118.5 -60.5t-51.5 -89.5
q-8 -37 4.5 -66.5t42.5 -47t74 -17.5q49 0 94.5 18.5t89 55.5t88.5 93l95 118h107l-113 -141q-62 -77 -121.5 -128t-122 -76t-134.5 -25q-73 0 -123.5 26t-72 74t-8.5 113q16 77 75.5 133.5t161.5 88.5l39 12z" />
    <glyph glyph-name="ampersand.ss05" horiz-adv-x="749" 
d="M464 547q6 24 -1 42t-23.5 27.5t-40.5 9.5q-37 0 -64.5 -21.5t-33.5 -53.5q-6 -30 5.5 -57.5t40.5 -64.5l344 -429h-129l-306 384q-39 49 -51 85t-3 82q9 45 38.5 80t76 55.5t103.5 20.5t93 -22t49 -59.5t0 -84.5q-11 -41 -41 -73t-69.5 -53.5t-80.5 -32.5l-44 66
q58 14 93 38t44 61zM343 374l-46 -15q-77 -24 -118.5 -60.5t-51.5 -89.5q-8 -37 4.5 -66.5t42.5 -47t74 -17.5q49 0 94.5 18.5t89 55.5t88.5 93l95 118h107l-113 -141q-62 -77 -121.5 -128t-122 -76t-134.5 -25q-73 0 -123.5 26t-72 74t-8.5 113q16 77 75.5 133.5
t161.5 88.5l39 12z" />
    </font>
</defs>
</svg>
