<svg width="84" height="50" viewBox="0 0 84 50" fill="none" xmlns="http://www.w3.org/2000/svg">
<foreignObject x="0" y="0" width="84" height="50"><div xmlns="http://www.w3.org/1999/xhtml" style="backdrop-filter:blur(9.73px);clip-path:url(#bgblur_0_2876_5492_clip_path);height:100%;width:100%"></div></foreignObject><g data-figma-bg-blur-radius="19.4578">
<rect width="84" height="50" rx="6" fill="white" fill-opacity="0.1"/>
<rect x="0.401163" y="0.401163" width="83.1977" height="49.1977" rx="5.59884" stroke="url(#paint0_linear_2876_5492)" stroke-opacity="0.25" stroke-width="0.802326"/>
<path d="M48.0031 13C47.738 13 47.4838 13.0957 47.2964 13.266C47.109 13.4363 47.0037 13.6672 47.0037 13.9081C47.0037 14.1489 47.109 14.3799 47.2964 14.5502C47.4838 14.7205 47.738 14.8162 48.0031 14.8162H49.5881L45.0049 18.9806L41.2142 15.5363C41.0268 15.366 40.7727 15.2704 40.5077 15.2704C40.2427 15.2704 39.9885 15.366 39.8011 15.5363L33.3051 21.4388C33.2096 21.5225 33.1335 21.6227 33.0811 21.7335C33.0288 21.8443 33.0012 21.9635 33 22.084C32.9989 22.2046 33.0242 22.3242 33.0744 22.4358C33.1247 22.5474 33.1989 22.6488 33.2927 22.734C33.3865 22.8193 33.4981 22.8867 33.621 22.9324C33.7438 22.978 33.8754 23.001 34.0081 23C34.1408 22.9989 34.2719 22.9739 34.3938 22.9263C34.5158 22.8787 34.626 22.8095 34.7182 22.7228L40.5077 17.4623L44.2983 20.9066C44.4858 21.0769 44.7399 21.1725 45.0049 21.1725C45.2699 21.1725 45.5241 21.0769 45.7115 20.9066L51.0012 16.1002V17.5404C51.0012 17.7812 51.1065 18.0122 51.2939 18.1825C51.4814 18.3528 51.7356 18.4485 52.0006 18.4485C52.2657 18.4485 52.5199 18.3528 52.7073 18.1825C52.8947 18.0122 53 17.7812 53 17.5404V13.9081C53 13.6672 52.8947 13.4363 52.7073 13.266C52.5199 13.0957 52.2657 13 52.0006 13H48.0031Z" fill="black"/>
<path d="M27.1552 29.4493H31.3552V30.0093H29.5792V35.0493H28.9392V30.0093H27.1552V29.4493ZM32.0693 31.0493H32.6213L32.6533 31.6333C32.76 31.4893 32.888 31.3666 33.0373 31.2653C33.192 31.164 33.36 31.0946 33.5413 31.0573C33.728 31.0146 33.9253 31.012 34.1333 31.0493V31.6493C33.9093 31.6066 33.7066 31.6066 33.5253 31.6493C33.3493 31.692 33.1973 31.772 33.0693 31.8893C32.9413 32.0066 32.8426 32.156 32.7733 32.3373C32.704 32.5133 32.6693 32.7186 32.6693 32.9533V35.0493H32.0693V31.0493ZM36.3914 35.1053C36.0181 35.1053 35.6848 35.0146 35.3914 34.8333C35.1034 34.652 34.8768 34.404 34.7114 34.0893C34.5461 33.7746 34.4634 33.4146 34.4634 33.0093C34.4634 32.62 34.5461 32.2733 34.7114 31.9693C34.8768 31.6653 35.1034 31.428 35.3914 31.2573C35.6794 31.0813 36.0074 30.9933 36.3754 30.9933C36.7381 30.9933 37.0608 31.0733 37.3434 31.2333C37.6314 31.3933 37.8554 31.6146 38.0154 31.8973C38.1754 32.18 38.2501 32.5026 38.2394 32.8653C38.2394 32.924 38.2368 32.9853 38.2314 33.0493C38.2261 33.1133 38.2208 33.1826 38.2154 33.2573H35.1194C35.1301 33.508 35.1914 33.7293 35.3034 33.9213C35.4154 34.1133 35.5621 34.2653 35.7434 34.3773C35.9301 34.484 36.1408 34.5373 36.3754 34.5373C36.6848 34.5373 36.9461 34.4786 37.1594 34.3613C37.3781 34.244 37.5354 34.076 37.6314 33.8573L38.1514 34.0653C37.9914 34.4013 37.7594 34.66 37.4554 34.8413C37.1514 35.0173 36.7968 35.1053 36.3914 35.1053ZM37.5834 32.7373C37.5888 32.508 37.5381 32.3053 37.4314 32.1293C37.3301 31.9533 37.1861 31.8146 36.9994 31.7133C36.8128 31.612 36.5968 31.5613 36.3514 31.5613C36.1381 31.5613 35.9434 31.612 35.7674 31.7133C35.5914 31.8146 35.4448 31.956 35.3274 32.1373C35.2154 32.3133 35.1488 32.5133 35.1274 32.7373H37.5834ZM38.9863 31.0493H39.5383L39.5703 31.6173C39.6983 31.42 39.8663 31.268 40.0743 31.1613C40.2823 31.0493 40.525 30.9933 40.8024 30.9933C41.1064 30.9933 41.373 31.06 41.6023 31.1933C41.8317 31.3213 42.0104 31.516 42.1384 31.7773C42.2664 32.0333 42.3304 32.356 42.3304 32.7453V35.0493H41.7304V32.8173C41.7304 32.4013 41.6397 32.0866 41.4583 31.8733C41.2823 31.6546 41.0264 31.5453 40.6904 31.5453C40.3437 31.5453 40.0717 31.66 39.8743 31.8893C39.6823 32.1186 39.5863 32.4573 39.5863 32.9053V35.0493H38.9863V31.0493ZM46.3415 31.8573L46.2775 31.8653V29.2893H46.8775V35.0493H46.3255L46.2855 34.3053C46.1628 34.5293 45.9788 34.7186 45.7335 34.8733C45.4935 35.028 45.1948 35.1053 44.8375 35.1053C44.4695 35.1053 44.1468 35.0226 43.8695 34.8573C43.5975 34.6866 43.3841 34.4466 43.2295 34.1373C43.0801 33.828 43.0055 33.4653 43.0055 33.0493C43.0055 32.6333 43.0801 32.2733 43.2295 31.9693C43.3841 31.66 43.5975 31.42 43.8695 31.2493C44.1468 31.0786 44.4695 30.9933 44.8375 30.9933C45.2161 30.9933 45.5308 31.076 45.7815 31.2413C46.0321 31.4066 46.2188 31.612 46.3415 31.8573ZM43.6535 33.0493C43.6535 33.508 43.7708 33.8733 44.0055 34.1453C44.2401 34.412 44.5601 34.5453 44.9655 34.5453C45.2161 34.5453 45.4401 34.4866 45.6375 34.3693C45.8348 34.252 45.9895 34.0813 46.1015 33.8573C46.2188 33.6333 46.2775 33.364 46.2775 33.0493C46.2775 32.7346 46.2188 32.468 46.1015 32.2493C45.9895 32.0253 45.8348 31.8546 45.6375 31.7373C45.4401 31.6146 45.2161 31.5533 44.9655 31.5533C44.5655 31.5533 44.2455 31.6893 44.0055 31.9613C43.7708 32.228 43.6535 32.5906 43.6535 33.0493ZM47.9843 31.0493H48.5763V35.0493H47.9843V31.0493ZM48.2883 30.2493C48.1657 30.2493 48.0643 30.2093 47.9843 30.1293C47.9043 30.0493 47.8643 29.9506 47.8643 29.8333C47.8643 29.7106 47.9043 29.6093 47.9843 29.5293C48.0643 29.4493 48.1657 29.4093 48.2883 29.4093C48.4003 29.4093 48.4963 29.4493 48.5763 29.5293C48.6617 29.6093 48.7043 29.7106 48.7043 29.8333C48.7043 29.9506 48.6617 30.0493 48.5763 30.1293C48.4963 30.2093 48.4003 30.2493 48.2883 30.2493ZM49.6861 31.0493H50.2381L50.2701 31.6173C50.3981 31.42 50.5661 31.268 50.7741 31.1613C50.9821 31.0493 51.2248 30.9933 51.5021 30.9933C51.8061 30.9933 52.0728 31.06 52.3021 31.1933C52.5315 31.3213 52.7101 31.516 52.8381 31.7773C52.9661 32.0333 53.0301 32.356 53.0301 32.7453V35.0493H52.4301V32.8173C52.4301 32.4013 52.3395 32.0866 52.1581 31.8733C51.9821 31.6546 51.7261 31.5453 51.3901 31.5453C51.0435 31.5453 50.7715 31.66 50.5741 31.8893C50.3821 32.1186 50.2861 32.4573 50.2861 32.9053V35.0493H49.6861V31.0493ZM57.0252 31.0493H57.5772V34.3133C57.5772 34.804 57.4679 35.2226 57.2492 35.5693C57.0306 35.9213 56.7132 36.188 56.2972 36.3693C55.8812 36.556 55.3746 36.6493 54.7772 36.6493L54.6812 36.0973C55.4332 36.0866 56.0039 35.9293 56.3932 35.6253C56.7826 35.3266 56.9772 34.8893 56.9772 34.3133V34.2253L57.0412 34.2413C56.9186 34.476 56.7346 34.6786 56.4892 34.8493C56.2439 35.0146 55.9266 35.1 55.5372 35.1053C55.1692 35.1053 54.8466 35.0226 54.5692 34.8573C54.2972 34.6866 54.0839 34.4466 53.9292 34.1373C53.7799 33.828 53.7052 33.4653 53.7052 33.0493C53.7052 32.6333 53.7799 32.2733 53.9292 31.9693C54.0839 31.66 54.2972 31.42 54.5692 31.2493C54.8466 31.0786 55.1692 30.9933 55.5372 30.9933C55.7772 30.9933 55.9906 31.0306 56.1772 31.1053C56.3639 31.1746 56.5239 31.2706 56.6572 31.3933C56.7906 31.5106 56.8999 31.644 56.9852 31.7933L57.0252 31.0493ZM54.3532 33.0493C54.3532 33.508 54.4706 33.8733 54.7052 34.1453C54.9452 34.412 55.2679 34.5453 55.6732 34.5453C55.9186 34.5453 56.1399 34.4866 56.3372 34.3693C56.5346 34.252 56.6892 34.0813 56.8012 33.8573C56.9186 33.6333 56.9772 33.364 56.9772 33.0493C56.9772 32.7346 56.9186 32.468 56.8012 32.2493C56.6892 32.0253 56.5346 31.8546 56.3372 31.7373C56.1399 31.6146 55.9186 31.5533 55.6732 31.5533C55.2732 31.5533 54.9532 31.6893 54.7132 31.9613C54.4732 32.2333 54.3532 32.596 54.3532 33.0493Z" fill="black"/>
</g>
<defs>
<clipPath id="bgblur_0_2876_5492_clip_path" transform="translate(0 0)"><rect width="84" height="50" rx="6"/>
</clipPath><linearGradient id="paint0_linear_2876_5492" x1="42" y1="0" x2="42" y2="50" gradientUnits="userSpaceOnUse">
<stop stop-color="white"/>
<stop offset="1" stop-color="#606060"/>
</linearGradient>
</defs>
</svg>
