<svg width="145" height="83" viewBox="0 0 145 83" fill="none" xmlns="http://www.w3.org/2000/svg">
<g filter="url(#filter0_d_2964_5514)">
<rect x="16.2148" y="21.0793" width="112" height="50" rx="12" fill="url(#paint0_radial_2964_5514)" fill-opacity="0.1" shape-rendering="crispEdges"/>
<rect x="16.7148" y="21.5793" width="111" height="49" rx="11.5" stroke="url(#paint1_linear_2964_5514)" stroke-opacity="0.25" shape-rendering="crispEdges"/>
<path d="M43.2148 38.5737C43.2148 37.1979 44.3359 36.0793 45.7148 36.0793H55.7148C57.0938 36.0793 58.2148 37.1979 58.2148 38.5737V54.8302C58.2148 55.8279 57.1016 56.4204 56.2695 55.8669L50.7148 52.1682L45.1602 55.8669C44.3281 56.4204 43.2148 55.824 43.2148 54.8302V38.5737ZM45.7148 37.9501C45.3711 37.9501 45.0898 38.2307 45.0898 38.5737V53.6648L49.6758 50.617C50.3047 50.1999 51.125 50.1999 51.7539 50.617L56.3398 53.6648V38.5737C56.3398 38.2307 56.0586 37.9501 55.7148 37.9501H45.7148Z" fill="black"/>
<path d="M99.9852 37.1779C100.454 36.9771 100.989 37.0896 101.348 37.4552L103.848 40.0264C104.082 40.2674 104.215 40.5929 104.215 40.9344C104.215 41.2759 104.082 41.6013 103.848 41.8423L101.348 44.4136C100.989 44.7832 100.454 44.8917 99.9852 44.6908C99.5165 44.4899 99.2119 44.0279 99.2119 43.5096V42.224H97.9622C97.5677 42.224 97.1967 42.4128 96.9624 42.7382L95.697 44.4738L94.1348 42.3325L94.9627 41.1955C95.6696 40.2233 96.7827 39.6528 97.9622 39.6528H99.2119V38.3671C99.2119 37.8489 99.5165 37.3788 99.9852 37.1779ZM90.2293 47.6879L91.7915 49.8292L90.9635 50.9662C90.2566 51.9384 89.1436 52.5089 87.9641 52.5089H85.4646C84.7733 52.5089 84.2148 51.9344 84.2148 51.2233C84.2148 50.5122 84.7733 49.9377 85.4646 49.9377H87.9641C88.3586 49.9377 88.7296 49.7489 88.9639 49.4235L90.2293 47.6879ZM101.344 54.7025C100.985 55.0721 100.45 55.1806 99.9813 54.9797C99.5126 54.7789 99.2119 54.3128 99.2119 53.7946V52.5089H97.9622C96.7827 52.5089 95.6696 51.9384 94.9627 50.9662L88.9639 42.7382C88.7296 42.4128 88.3586 42.224 87.9641 42.224H85.4646C84.7733 42.224 84.2148 41.6495 84.2148 40.9384C84.2148 40.2273 84.7733 39.6528 85.4646 39.6528H87.9641C89.1436 39.6528 90.2566 40.2233 90.9635 41.1955L96.9624 49.4235C97.1967 49.7489 97.5677 49.9377 97.9622 49.9377H99.2119V48.6521C99.2119 48.1338 99.5165 47.6638 99.9852 47.4629C100.454 47.262 100.989 47.3745 101.348 47.7401L103.848 50.3113C104.082 50.5524 104.215 50.8778 104.215 51.2193C104.215 51.5608 104.082 51.8862 103.848 52.1273L101.348 54.6985L101.344 54.7025Z" fill="black"/>
</g>
<defs>
<filter id="filter0_d_2964_5514" x="1.14441e-05" y="2.38419e-06" width="144.43" height="82.4297" filterUnits="userSpaceOnUse" color-interpolation-filters="sRGB">
<feFlood flood-opacity="0" result="BackgroundImageFix"/>
<feColorMatrix in="SourceAlpha" type="matrix" values="0 0 0 0 0 0 0 0 0 0 0 0 0 0 0 0 0 0 127 0" result="hardAlpha"/>
<feOffset dy="-4.86445"/>
<feGaussianBlur stdDeviation="8.10742"/>
<feComposite in2="hardAlpha" operator="out"/>
<feColorMatrix type="matrix" values="0 0 0 0 0 0 0 0 0 0 0 0 0 0 0 0 0 0 0.1 0"/>
<feBlend mode="normal" in2="BackgroundImageFix" result="effect1_dropShadow_2964_5514"/>
<feBlend mode="normal" in="BackgroundImageFix" in2="effect1_dropShadow_2964_5514" result="BackgroundImageFix"/>
<feBlend mode="normal" in="SourceGraphic" in2="BackgroundImageFix" result="shape"/>
</filter>
<radialGradient id="paint0_radial_2964_5514" cx="0" cy="0" r="1" gradientUnits="userSpaceOnUse" gradientTransform="translate(72.2148 46.0793) rotate(90) scale(22.5 50.4)">
<stop stop-color="#A580A6" stop-opacity="0.1"/>
<stop offset="1" stop-color="#A580A6"/>
</radialGradient>
<linearGradient id="paint1_linear_2964_5514" x1="72.2148" y1="21.0793" x2="72.2148" y2="71.0793" gradientUnits="userSpaceOnUse">
<stop stop-color="white"/>
<stop offset="1" stop-color="#606060"/>
</linearGradient>
</defs>
</svg>
